<?xml version="1.0" standalone="no"?>
<!DOCTYPE svg PUBLIC "-//W3C//DTD SVG 20010904//EN"
 "http://www.w3.org/TR/2001/REC-SVG-20010904/DTD/svg10.dtd">
<svg version="1.0" xmlns="http://www.w3.org/2000/svg"
 width="512.000000pt" height="512.000000pt" viewBox="0 0 512.000000 512.000000"
 preserveAspectRatio="xMidYMid meet">
<metadata>
Created by potrace 1.11, written by Peter Selinger 2001-2013
</metadata>
<g transform="translate(0.000000,512.000000) scale(0.100000,-0.100000)"
fill="#000000" stroke="none">
<path d="M2528 4826 c-1 -2 -52 -7 -113 -10 -157 -10 -200 -16 -340 -48 -614
-137 -1127 -505 -1454 -1043 -51 -83 -153 -293 -171 -350 -7 -22 -16 -44 -20
-50 -10 -14 -78 -259 -90 -325 -31 -175 -39 -263 -40 -425 -1 -137 6 -242 26
-365 127 -799 660 -1461 1415 -1758 123 -49 308 -102 409 -117 25 -4 54 -9 65
-11 11 -2 45 -6 75 -9 30 -4 71 -8 90 -11 46 -5 343 -6 361 0 8 3 43 7 79 10
304 27 687 164 965 344 66 43 167 115 191 137 6 6 40 35 75 65 225 196 418
451 552 730 81 169 158 405 183 564 3 21 8 48 10 60 2 11 7 46 10 76 31 284
15 536 -51 807 -78 321 -212 597 -418 863 -108 138 -279 305 -417 406 -104 76
-125 90 -200 135 -137 82 -193 108 -425 199 -76 30 -289 82 -390 96 -27 3 -59
8 -70 10 -11 2 -78 7 -150 10 -71 3 -135 7 -142 9 -6 2 -13 2 -15 1z m997
-1420 c98 -6 126 -13 220 -54 33 -15 77 -39 98 -54 l38 -27 -38 -7 c-91 -16
-165 -90 -178 -179 l-6 -40 19 30 c27 42 55 65 98 80 69 23 144 0 190 -61 25
-32 29 -47 29 -98 0 -69 -24 -113 -79 -147 -35 -21 -17 -25 35 -8 50 17 96 55
117 95 l18 36 13 -57 c45 -201 2 -475 -109 -695 -33 -66 -36 -80 -17 -80 14 0
290 -103 367 -137 100 -44 100 -43 45 -38 -59 7 -151 22 -215 35 -25 5 -57 12
-71 14 -14 2 -65 12 -114 22 -86 18 -88 18 -99 0 -6 -10 -40 -55 -75 -100
-355 -454 -925 -678 -1319 -518 -202 83 -342 261 -379 482 -9 54 -9 258 0 316
9 58 54 210 78 263 10 24 19 45 19 46 0 4 -77 26 -445 130 -467 131 -761 224
-882 280 -17 8 -34 15 -38 15 -14 0 -196 83 -191 87 2 2 30 0 62 -6 33 -6 77
-13 99 -17 55 -8 223 -42 325 -66 47 -11 92 -21 100 -23 48 -11 331 -91 495
-140 141 -43 259 -77 290 -86 17 -4 77 -21 134 -38 57 -17 105 -30 106 -29 1
2 19 32 40 68 142 238 405 476 660 595 83 39 215 87 215 79 0 -3 6 -2 13 3 6
4 17 8 22 9 6 1 26 5 45 8 19 4 60 9 90 12 30 3 56 7 58 8 1 2 12 2 25 0 12
-2 54 -5 92 -8z"/>
</g>
</svg>
