<?xml version="1.0" standalone="no"?>
<!DOCTYPE svg PUBLIC "-//W3C//DTD SVG 1.1//EN" "http://www.w3.org/Graphics/SVG/1.1/DTD/svg11.dtd" >
<svg xmlns="http://www.w3.org/2000/svg" xmlns:xlink="http://www.w3.org/1999/xlink" version="1.1">
<metadata>
Created by FontForge 20170910 at Tue Oct 10 16:14:22 2017
 By Jimmy Wärting
Copyright (c) 2017 by Studio Kmzero &#38; Zetafonts. All rights reserved.
</metadata>
<defs>
<font id="HeadingProTrial-Heavy" horiz-adv-x="2531" >
  <font-face 
    font-family="Heading Pro Trial"
    font-weight="900"
    font-stretch="normal"
    units-per-em="2048"
    panose-1="2 0 5 6 0 0 0 2 0 4"
    ascent="1638"
    descent="-410"
    x-height="1202"
    cap-height="1522"
    bbox="-197 -974 2479 2049"
    underline-thickness="102"
    underline-position="-205"
    unicode-range="U+000D-FB06"
  />
<missing-glyph horiz-adv-x="1659" 
 />
    <glyph glyph-name="f_t" unicode="ft" horiz-adv-x="1318" 
d="M-25 1202h137v8q0 86 13.5 159t49 126t97 83t156.5 30q85 0 142 -25.5t95 -56.5l-16 -266q-11 6 -24.5 14t-32.5 15.5t-45 12.5t-60 5q-57 0 -57 -97v-8h206v-297h-206v-905h-318v905h-137v297zM1084 1585v-383h206v-297h-206v-530q0 -97 57 -97q34 0 60 5t45 12.5
t32.5 15.5t24.5 14l16 -266q-38 -31 -95 -56.5t-142 -25.5q-95 0 -156.5 30t-97 83t-49 126t-13.5 159v530h-129v297h129v383h318z" />
    <glyph glyph-name="ff" unicode="ff" horiz-adv-x="1274" 
d="M-25 1202h137v8q0 86 13.5 159t49 126t97 83t156.5 30q85 0 142 -25.5t95 -56.5l-16 -266q-11 6 -24.5 14t-32.5 15.5t-45 12.5t-60 5q-57 0 -57 -97v-8h319v8q0 86 13.5 159t49 126t97 83t156.5 30q85 0 142 -25.5t95 -56.5l-16 -266q-11 6 -24.5 14t-32.5 15.5
t-45 12.5t-60 5q-57 0 -57 -97v-8h206v-297h-206v-905h-318v905h-319v-905h-318v905h-137v297z" />
    <glyph glyph-name="ffi" unicode="ffi" horiz-adv-x="1755" 
d="M-25 1202h137v8q0 86 13.5 159t49 126t97 83t156.5 30q85 0 142 -25.5t95 -56.5l-16 -266q-11 6 -24.5 14t-32.5 15.5t-45 12.5t-60 5q-57 0 -57 -97v-8h319v8q0 86 13.5 159t49 126t97 83t156.5 30q85 0 142 -25.5t95 -56.5l-16 -266q-11 6 -24.5 14t-32.5 15.5
t-45 12.5t-60 5q-57 0 -57 -97v-8h606v-1202h-317v905h-289v-905h-318v905h-319v-905h-318v905h-137v297zM1329 1430q0 80 44.5 116.5t138.5 36.5q96 0 140 -36.5t44 -116.5q0 -79 -44 -115.5t-140 -36.5q-94 0 -138.5 36.5t-44.5 115.5z" />
    <glyph glyph-name="ffl" unicode="ffl" horiz-adv-x="1774" 
d="M-25 1202h137v8q0 86 13.5 159t49 126t97 83t156.5 30q85 0 142 -25.5t95 -56.5l-16 -266q-11 6 -24.5 14t-32.5 15.5t-45 12.5t-60 5q-57 0 -57 -97v-8h319v8q0 86 13.5 159t49 126t97 83t156.5 30q85 0 142 -25.5t95 -56.5l-16 -266q-11 6 -24.5 14t-32.5 15.5
t-45 12.5t-60 5q-57 0 -57 -97v-8h306v-297h-306v-905h-318v905h-319v-905h-318v905h-137v297zM1366 0v1569h316v-1569h-316z" />
    <glyph glyph-name="fi" unicode="fi" horiz-adv-x="1118" 
d="M-25 1202h137v8q0 86 13.5 159t49 126t97 83t156.5 30q68 0 128.5 -20.5t98.5 -51.5l-16 -266q-22 12 -58 24.5t-94 12.5q-57 0 -57 -97v-8h606v-1202h-317v905h-289v-905h-318v905h-137v297zM692 1430q0 80 44.5 116.5t138.5 36.5q96 0 140 -36.5t44 -116.5
q0 -79 -44 -115.5t-140 -36.5q-94 0 -138.5 36.5t-44.5 115.5z" />
    <glyph glyph-name="f_j" unicode="fj" horiz-adv-x="1119" 
d="M-25 1202h137v8q0 86 13.5 159t49 126t97 83t156.5 30q85 0 142 -25.5t95 -56.5l-16 -266q-11 6 -24.5 14t-32.5 15.5t-45 12.5t-60 5q-57 0 -57 -97v-8h607v-1210q0 -86 -13.5 -159t-49 -126t-97 -83t-156.5 -30q-43 0 -78 7t-64 18.5t-52.5 26.5t-42.5 30l16 266
q11 -6 24.5 -14t32.5 -15.5t44.5 -12.5t60.5 -5q57 0 57 97v913h-289v-905h-318v905h-137v297zM693 1430q0 80 44.5 116.5t138.5 36.5q96 0 140 -36.5t44 -116.5q0 -79 -44 -115.5t-140 -36.5q-94 0 -138.5 36.5t-44.5 115.5z" />
    <glyph glyph-name="fl" unicode="fl" horiz-adv-x="1137" 
d="M729 0v1346q-35 7 -68 11t-62 4q-63 0 -97.5 -14.5t-50 -37t-18.5 -49t-3 -50.5v-8h206v-297h-206v-905h-318v905h-137v297h137v8q0 57 6 112t23.5 103t48.5 88.5t81.5 69.5t122 45t170.5 16q76 0 154 -13t144 -32t115 -40t68 -36v-1523h-316z" />
    <glyph glyph-name=".notdef" horiz-adv-x="1659" 
 />
    <glyph glyph-name="space" unicode=" " horiz-adv-x="354" 
 />
    <glyph glyph-name="exclam" unicode="!" horiz-adv-x="504" 
d="M117 418l-49 1104h366l-45 -1104h-272zM68 145q0 90 44 130t138 40q96 0 140 -40t44 -130q0 -88 -44 -128t-140 -40q-94 0 -138 40t-44 128z" />
    <glyph glyph-name="quotedbl" unicode="&#x22;" horiz-adv-x="727" 
d="M70 1067l-25 455h287l-27 -455h-235zM420 1067l-25 455h287l-27 -455h-235z" />
    <glyph glyph-name="numbersign" unicode="#" horiz-adv-x="788" 
d="M735 414h-100l-51 -414h-256l50 414h-65l-51 -414h-256l50 414h-76l12 202h88l40 332h-75l12 203h88l45 375h261l-47 -375h63l45 375h260l-46 -375h87l-12 -203h-100l-41 -332h88zM338 616h64l40 332h-63z" />
    <glyph glyph-name="percent" unicode="%" horiz-adv-x="1749" 
d="M61 1182q0 93 15 161.5t51.5 113.5t98.5 67t157 22q94 0 155 -22t97 -67t50.5 -113.5t14.5 -161.5v-236q0 -95 -14.5 -164t-50.5 -114.5t-97 -67.5t-155 -22q-95 0 -157 22t-98.5 67.5t-51.5 114.5t-15 164v236zM383 829q11 0 19.5 4t14 16t8.5 34t3 57v246q0 35 -3 56.5
t-8.5 33.5t-14 16t-19.5 4q-12 0 -21 -4t-15 -16t-9.5 -33.5t-3.5 -56.5v-246q0 -35 3.5 -57t9.5 -34t15 -16t21 -4zM827 0h-303l406 1522h305zM1051 571q0 93 14.5 161.5t51.5 114t98.5 67.5t156.5 22q94 0 155.5 -22t97.5 -67.5t50.5 -114t14.5 -161.5v-235
q0 -95 -14.5 -164t-50.5 -115t-97.5 -68t-155.5 -22q-95 0 -156.5 22t-98.5 68t-51.5 115t-14.5 164v235zM1372 219q11 0 19.5 4t14 16t8.5 34t3 57v245q0 36 -3 57.5t-8.5 33.5t-14 16t-19.5 4q-12 0 -21 -4t-15 -16t-9.5 -33.5t-3.5 -57.5v-245q0 -35 3.5 -57t9.5 -34
t15 -16t21 -4z" />
    <glyph glyph-name="ampersand" unicode="&#x26;" horiz-adv-x="950" 
d="M855 945h81v-292h-81v-268q0 -91 -21 -166t-68.5 -129t-124.5 -83.5t-188 -29.5t-188 29.5t-124 83.5t-68 129t-21 166v182q0 102 33.5 164t95.5 82q-60 22 -90.5 86t-30.5 186v83q0 76 21 140.5t68 112t122.5 74.5t184.5 27h220l2 -299h-212q-43 0 -60.5 -19t-19.5 -65
l-2 -88q-2 -60 16.5 -82.5t63.5 -22.5h67v112l324 -1v-112zM376 410q0 -51 17 -84t57 -33q23 0 38.5 9.5t25 25t13.5 37t4 45.5v136v2v103h-79q-23 0 -38 -6.5t-23.5 -18t-11.5 -26.5t-3 -33v-157z" />
    <glyph glyph-name="quoteright" unicode="&#x2019;" horiz-adv-x="451" 
d="M79 897q8 37 16 75.5t15 74.5t11 68t4 57q0 31 -7.5 48.5t-26.5 17.5h-50v291l324 3v-275q0 -56 -19 -149.5t-68 -238.5z" />
    <glyph glyph-name="parenleft" unicode="(" horiz-adv-x="541" 
d="M483 -117q-106 0 -178.5 22t-119.5 57.5t-72 81.5t-36.5 93.5t-13.5 93t-2 80.5v899q0 35 2 80t13.5 92.5t37 93t72.5 81t119 57.5t178 22h15v-286h-15q-41 0 -63 -17t-31.5 -39.5t-10.5 -45t-1 -34.5v-919q0 -11 1.5 -32t11.5 -41.5t31.5 -36t61.5 -15.5h15v-287h-15z
" />
    <glyph glyph-name="parenright" unicode=")" horiz-adv-x="541" 
d="M35 -117v287h14q40 0 62 15.5t32 36t11.5 41.5t1.5 32v919q0 12 -1 34.5t-11 45t-31.5 39.5t-63.5 17h-14v286h14q105 0 177.5 -22t119.5 -57.5t72.5 -81t37 -93t13.5 -92.5t2 -80v-899q0 -35 -2 -80.5t-13.5 -93t-36.5 -93.5t-72 -81.5t-119.5 -57.5t-178.5 -22h-14z
" />
    <glyph glyph-name="asterisk" unicode="*" horiz-adv-x="874" 
d="M529 1273l229 101l73 -227l-243 -53l166 -187l-193 -141l-126 217l-128 -215l-192 139l167 188l-243 54l74 225l228 -101l-24 249h238z" />
    <glyph glyph-name="plus" unicode="+" horiz-adv-x="836" 
d="M279 563h-207v281h207v205h280v-205h205v-281h-205v-207h-280v207z" />
    <glyph glyph-name="comma" unicode="," horiz-adv-x="457" 
d="M51 145q0 90 44 130t138 40q97 0 141 -55t44 -149q0 -78 -13 -142t-34 -114.5t-48.5 -88.5t-56.5 -65l-139 82q24 28 39.5 51.5t25.5 46t15.5 46t9.5 50.5q-85 0 -125.5 42.5t-40.5 125.5z" />
    <glyph glyph-name="hyphen" unicode="-" horiz-adv-x="768" 
d="M70 450v281h626v-281h-626z" />
    <glyph glyph-name="period" unicode="." horiz-adv-x="473" 
d="M51 145q0 90 44 130t138 40q96 0 140.5 -40t44.5 -130q0 -88 -44.5 -128t-140.5 -40q-94 0 -138 40t-44 128z" />
    <glyph glyph-name="slash" unicode="/" horiz-adv-x="696" 
d="M299 -80h-311l405 1679h314z" />
    <glyph glyph-name="colon" unicode=":" horiz-adv-x="473" 
d="M51 145q0 90 44 130t138 40q96 0 140.5 -40t44.5 -130q0 -88 -44.5 -128t-140.5 -40q-94 0 -138 40t-44 128zM51 1056q0 90 44 130t138 40q96 0 140.5 -40t44.5 -130q0 -88 -44.5 -128t-140.5 -40q-94 0 -138 40t-44 128z" />
    <glyph glyph-name="less" unicode="&#x3c;" horiz-adv-x="788" 
d="M49 582v241l662 441v-342l-322 -220l322 -219v-342z" />
    <glyph glyph-name="equal" unicode="=" horiz-adv-x="836" 
d="M72 771v281h692v-281h-692zM72 352v281h692v-281h-692z" />
    <glyph glyph-name="greater" unicode="&#x3e;" horiz-adv-x="788" 
d="M738.955 582v241l-661.96 441v-342l321.98 -220l-321.98 -219v-342z" />
    <glyph glyph-name="question" unicode="?" horiz-adv-x="889" 
d="M819 1139q0 -83 -17.5 -150.5t-43.5 -124t-57 -104t-58 -92t-45.5 -88t-19.5 -91.5l-3 -71h-274l-2 76q-2 81 12 145t35.5 117.5t48 99.5t49 91t37.5 92t15 102q0 40 -8 63t-44 23q-21 0 -32.5 -6t-17 -17.5t-6.5 -27.5t-1 -37v-95h-311l-4 95q0 87 15 161t55.5 129
t112 86t185.5 31q87 0 157 -20.5t119.5 -68.5t76 -126t26.5 -192zM254 145q0 90 44 130t138 40q96 0 140.5 -40t44.5 -130q0 -88 -44.5 -128t-140.5 -40q-94 0 -138 40t-44 128z" />
    <glyph glyph-name="A" unicode="A" horiz-adv-x="944" 
d="M241 1523h421l232 -1523h-326l-23 199h-188l-22 -199h-326zM391 496h121l-61 541z" />
    <glyph glyph-name="B" unicode="B" horiz-adv-x="978" 
d="M579 567q0 18 -3 33t-11.5 26.5t-23.5 18t-38 6.5h-79v-336h79q23 0 38 6t23.5 15.5t11.5 22.5t3 28v180zM569 1139q-2 46 -19.5 65t-60.5 19h-65v-277h47q30 0 49.5 5t31 17.5t16 32.5t3.5 50zM903 393q0 -104 -25.5 -178t-75.5 -122t-124 -70.5t-171 -22.5h-407v1522
h399q109 0 184.5 -27t122.5 -74.5t68 -112t21 -140.5v-83q0 -122 -30.5 -186t-90.5 -86q62 -20 95.5 -82t33.5 -164v-174z" />
    <glyph glyph-name="C" unicode="C" horiz-adv-x="932" 
d="M862 511v-132q0 -89 -20.5 -163t-66.5 -126.5t-121.5 -82t-184.5 -29.5v-1q-111 0 -186 29.5t-121.5 83.5t-66.5 129t-20 166v754q0 90 20 164.5t66 128.5t121 84t185 30l1 1q110 0 185.5 -29.5t122 -83t66.5 -128.5t20 -165v-128h-324v127q0 13 -2.5 29t-10 29.5t-21 23
t-35.5 9.5q-23 0 -36.5 -9.5t-21 -23.5t-10 -30t-2.5 -29v-754q0 -13 2.5 -29t10 -30t21 -23.5t36.5 -9.5q21 0 34.5 8.5t21 21.5t10.5 28.5t3 28.5v131h324z" />
    <glyph glyph-name="D" unicode="D" horiz-adv-x="960" 
d="M495 1522q109 -1 183.5 -31t120.5 -83.5t65.5 -128.5t19.5 -165v-706q0 -91 -20 -166t-66 -129t-121 -83.5t-186 -29.5h-391v1522h395zM424 1206v-891h67q22 0 36 9.5t21.5 24t10 30.5t2.5 29v706q0 13 -2.5 29t-10 30t-21.5 23.5t-36 9.5h-67z" />
    <glyph glyph-name="E" unicode="E" horiz-adv-x="885" 
d="M100 0v1522h700v-316h-376v-280h307v-316h-307v-295h376v-315h-700z" />
    <glyph glyph-name="F" unicode="F" horiz-adv-x="875" 
d="M424 1206v-323h301v-316h-301v-567h-324v1522h700v-316h-376z" />
    <glyph glyph-name="G" unicode="G" horiz-adv-x="937" 
d="M463 858h399v-479q0 -89 -20.5 -163t-66.5 -126.5t-121.5 -82t-184.5 -29.5v-1q-111 0 -186 29.5t-121.5 83.5t-66.5 129t-20 166v754q0 90 20 164.5t66 128.5t121 84t185 30l1 1q110 0 185.5 -29.5t122 -83t66.5 -128.5t20 -165v-128h-324v127q0 13 -2.5 29t-10 29.5
t-21.5 23t-36 9.5t-35.5 -9.5t-21 -23.5t-10 -30t-2.5 -29v-754q0 -13 2.5 -29t10 -30t21 -23.5t36.5 -9.5q21 0 34.5 8.5t21 21.5t10.5 28.5t3 28.5v167h-75v311z" />
    <glyph glyph-name="H" unicode="H" horiz-adv-x="1030" 
d="M100 0v1522h324v-596h182v596h324v-1522h-324v610h-182v-610h-324z" />
    <glyph glyph-name="I" unicode="I" horiz-adv-x="524" 
d="M100 0v1522h324v-1522h-324z" />
    <glyph glyph-name="K" unicode="K" horiz-adv-x="990" 
d="M100 0v1522h324v-596h51l164 596h344l-215 -739l227 -783h-344l-166 608l1 2h-62v-610h-324z" />
    <glyph glyph-name="L" unicode="L" horiz-adv-x="788" 
d="M100 0v1522h324v-1211h354v-311h-678z" />
    <glyph glyph-name="M" unicode="M" horiz-adv-x="1283" 
d="M398 776l26 -776h-324v1522h397l146 -739l146 739h394v-1522h-324l25 757l-111 -601h-260z" />
    <glyph glyph-name="O" unicode="O" horiz-adv-x="928" 
d="M70 1139q0 90 20 165t66.5 129t121.5 83.5t186 29.5t186 -29.5t121.5 -83.5t66.5 -129t20 -166v-754q0 -90 -20 -165t-66.5 -129t-121.5 -83.5t-186 -29.5t-186 29.5t-121.5 83.5t-66.5 129t-20 166v754zM464 293q1 0 1.5 -0.5t1.5 -0.5q21 1 34.5 10.5t20.5 23t9.5 29.5
t2.5 29v754q0 13 -2.5 29t-10 30t-21.5 23.5t-36 9.5q-3 0 -4 1q-21 -1 -34 -11t-20 -23.5t-9.5 -29t-2.5 -28.5v-754q0 -13 2.5 -29t10 -30t21 -23.5t36.5 -9.5z" />
    <glyph glyph-name="P" unicode="P" horiz-adv-x="952" 
d="M882 865q0 -113 -28.5 -189t-81 -122.5t-126 -66t-163.5 -19.5h-59v-468h-324v1522h381q90 0 163.5 -20t126.5 -65.5t82 -119.5t29 -182v-270zM557 1135q0 35 -16.5 53t-59.5 18h-57v-425h53q46 0 63 20.5t17 63.5v270z" />
    <glyph glyph-name="Q" unicode="Q" horiz-adv-x="928" 
d="M335 -10q-74 16 -124.5 51t-81.5 86t-45 116.5t-14 141.5v754q0 90 20 165t66.5 129t121.5 83.5t186 29.5t186 -29.5t121.5 -83.5t66.5 -129t20 -166v-754q0 -73 -13 -135.5t-41.5 -112.5t-74.5 -86t-112 -54v-127h-282v121zM464 293q1 0 1.5 -0.5t1.5 -0.5
q21 1 34.5 10.5t20.5 23t9.5 29.5t2.5 29v754q0 13 -2.5 29t-10 30t-21.5 23.5t-36 9.5q-3 0 -4 1q-21 -1 -34 -11t-20 -23.5t-9.5 -29t-2.5 -28.5v-754q0 -13 2.5 -29t10 -30t21 -23.5t36.5 -9.5z" />
    <glyph glyph-name="R" unicode="R" horiz-adv-x="978" 
d="M100 0v1522h407q97 0 171 -22.5t124 -70.5t75.5 -122.5t25.5 -177.5v-178q0 -88 -37 -158.5t-95 -121.5q28 -20 46.5 -40.5t30 -50t18 -72.5t10.5 -108l12 -203q3 -36 9.5 -64.5t15.5 -52.5t18.5 -43.5t18.5 -36.5h-334q-2 3 -9.5 20t-16.5 42.5t-17 58t-10 67.5l-13 205
q-2 50 -11.5 81.5t-23.5 48.5t-32 23t-37 5h-22v-551h-324zM579 1133q0 15 -3 28t-11.5 23t-23.5 16t-38 6h-79v-339h79q46 0 61 24t15 60v182z" />
    <glyph glyph-name="S" unicode="S" horiz-adv-x="935" 
d="M866 365q0 -192 -96 -290t-301 -98q-107 0 -182.5 24t-123.5 73.5t-70.5 124t-22.5 176.5v136h323v-136q0 -38 16 -60t56 -22q46 0 61 21t15 55v12v34q0 25 -1.5 46.5t-8.5 40.5t-21 36.5t-39 34.5l-141 99q-86 60 -135 109.5t-73 100.5t-30 108.5t-6 131.5v33
q0 108 26 183t76 121t123 66.5t168 20.5q97 0 168.5 -21.5t118.5 -68t70.5 -121t23.5 -180.5v-142h-323v142q0 38 -12 57t-50 19q-35 0 -50 -19t-15 -57v-25q0 -19 3 -40.5t10.5 -42.5t20.5 -39.5t33 -30.5l119 -72q82 -50 134 -101.5t81.5 -108.5t41 -120.5t13.5 -138.5
v-71z" />
    <glyph glyph-name="T" unicode="T" horiz-adv-x="800" 
d="M563 1206v-1206h-326v1206h-227v316h780v-316h-227z" />
    <glyph glyph-name="U" unicode="U" horiz-adv-x="956" 
d="M871 1522v-1158q0 -91 -20 -162.5t-66 -121.5t-121 -76.5t-186 -26.5t-186 26.5t-121 76.5t-66 121.5t-20 162.5v1158h323v-1158q0 -13 2.5 -26t10 -23t21.5 -16.5t36 -6.5t36 6.5t21.5 16.5t10 23t2.5 26v1158h323z" />
    <glyph glyph-name="V" unicode="V" horiz-adv-x="905" 
d="M894 1523l-232 -1523h-421l-232 1523h326l116 -1038l117 1038h326z" />
    <glyph glyph-name="W" unicode="W" horiz-adv-x="1372" 
d="M686 815l-76 -815h-401l-172 1523h326l61 -838l72 838h380l72 -838l61 838h326l-172 -1523h-401z" />
    <glyph glyph-name="X" unicode="X" horiz-adv-x="992" 
d="M626 0l-137 459l-123 -459h-358l272 786l-248 736h356l113 -404l111 404h354l-256 -736l274 -786h-358z" />
    <glyph glyph-name="Y" unicode="Y" horiz-adv-x="935" 
d="M638 518v-518h-323v518l-309 1004h356l117 -564l135 564h315z" />
    <glyph glyph-name="Z" unicode="Z" horiz-adv-x="840" 
d="M60 0v293l348 913h-336v316h704v-269l-360 -938h364v-315h-720z" />
    <glyph glyph-name="bracketleft" unicode="[" horiz-adv-x="532" 
d="M61 -117v1753h437v-286h-121v-1180h121v-287h-437z" />
    <glyph glyph-name="bracketright" unicode="]" horiz-adv-x="532" 
d="M35 -117v287h121v1180h-121v286h436v-1753h-436z" />
    <glyph glyph-name="asciicircum" unicode="^" horiz-adv-x="1096" 
d="M1020 840h-328l-123 469h-43l-123 -469h-327l235 759h473z" />
    <glyph glyph-name="underscore" unicode="_" horiz-adv-x="860" 
d="M18 -307v260h824v-260h-824z" />
    <glyph glyph-name="quoteleft" unicode="&#x2018;" horiz-adv-x="451" 
d="M326.98 1532.91q-8 -36.998 -15.999 -75.4951q-8 -38.498 -14.999 -74.4951q-7 -35.998 -11 -67.9961t-4 -56.9971q0 -30.998 7.5 -48.4971q7.5 -17.498 26.498 -17.498h49.9971v-290.982l-323.98 -3v274.983q0 55.9961 18.999 149.49q18.999 93.4951 67.9961 238.485z
" />
    <glyph glyph-name="b" unicode="b" horiz-adv-x="945" 
d="M100 0v1569h316v-458q20 54 56.5 85t94.5 31q87 0 145.5 -29t93.5 -82t49.5 -127.5t14.5 -165.5v-442q0 -91 -14 -165.5t-48 -127.5t-92 -82t-145 -29q-60 0 -97 32.5t-58 89.5v-99h-316zM485 920q-22 0 -35.5 -12t-20.5 -29.5t-9.5 -36t-2.5 -31.5v-416q0 -13 2.5 -31.5
t9.5 -35.5t20.5 -29t35.5 -12t35.5 9t20.5 22t9.5 28.5t2.5 28.5v456q0 13 -2.5 28.5t-9.5 29t-20.5 22.5t-35.5 9z" />
    <glyph glyph-name="f.001" horiz-adv-x="637" 
d="M-25 1202h137v8q0 86 13.5 159t49 126t97 83t156.5 30q85 0 142 -25.5t95 -56.5l-16 -266q-11 6 -24.5 14t-32.5 15.5t-45 12.5t-60 5q-57 0 -57 -97v-8h206v-297h-206v-905h-318v905h-137v297z" />
    <glyph glyph-name="g" unicode="g" horiz-adv-x="911" 
d="M841 1202v-1210q0 -86 -17 -159t-56 -126t-103.5 -83t-159.5 -30q-119 0 -195.5 18t-124.5 44l17 266q16 -6 43 -11t60 -8t69 -5t71 -2q29 0 53.5 24t24.5 72v98q-21 -52 -57 -82.5t-93 -30.5q-87 0 -145.5 29t-93.5 82t-49.5 127.5t-14.5 165.5v442q0 91 14 165.5
t48 127.5t92 82t145 29q59 0 95.5 -32.5t58.5 -87.5v95h318zM455 284q22 0 35.5 12t20.5 29.5t9.5 36t2.5 31.5v416q0 13 -2.5 31.5t-9.5 35.5t-20.5 29t-35.5 12t-35.5 -9t-20.5 -22t-9.5 -28.5t-2.5 -28.5v-456q0 -13 2.5 -28.5t9.5 -29t20.5 -22.5t35.5 -9z" />
    <glyph glyph-name="i" unicode="i" horiz-adv-x="487" 
d="M58 1430q0 80 44.5 116.5t138.5 36.5q96 0 140 -36.5t44 -116.5q0 -79 -44 -115.5t-140 -36.5q-94 0 -138.5 36.5t-44.5 115.5zM85 0v1202h317v-1202h-317z" />
    <glyph glyph-name="k" unicode="k" horiz-adv-x="927" 
d="M400 1569v-803h57l119 436h319l-192 -602l217 -600h-350l-119 451h-51v-451h-316v1569h316z" />
    <glyph glyph-name="l" unicode="l" horiz-adv-x="486" 
d="M85 0v1569h316v-1569h-316z" />
    <glyph glyph-name="m" unicode="m" horiz-adv-x="1391" 
d="M536 0v830q0 13 -2 28.5t-9.5 28.5t-21 22t-35.5 9q-21 0 -33.5 -10.5t-20 -26t-10.5 -33t-3 -31.5v-817h-316v1202h316v-90q42 53 95 83t114 30q63 0 107.5 -26.5t73.5 -75.5q43 54 105.5 78t136.5 24q79 0 131.5 -29t84 -82t44.5 -127.5t13 -164.5v-822h-317v830
q0 13 -2 28.5t-9.5 28.5t-21 22t-35.5 9t-35.5 -12t-20.5 -29.5t-9 -36t-2 -31.5v-356l-1 1v-454h-317z" />
    <glyph glyph-name="r" unicode="r" horiz-adv-x="648" 
d="M638 864q-2 1 -13 8t-30 15t-45 15t-59 7h-1h-1q-21 0 -37.5 -11t-27.5 -26.5t-16.5 -33.5t-6.5 -32v-806h-316v1202h316v-111q22 62 60 99t99 37v-3q0 1 0.5 1t0.5 1l1 1q11 0 34.5 -5.5t41.5 -21.5v-336z" />
    <glyph glyph-name="s" unicode="s" horiz-adv-x="854" 
d="M805 381q0 -92 -17.5 -167t-60.5 -127.5t-115.5 -81t-183.5 -28.5q-114 0 -189 29.5t-119.5 85t-62.5 135t-18 179.5h318q0 -57 13 -88t54 -31q15 0 24 5.5t14 13.5t7 16.5t2 13.5q0 33 -31 61t-77.5 57.5t-100.5 63.5t-100.5 77.5t-77.5 100.5t-31 133q0 99 17.5 173.5
t61 124.5t116.5 75t184 25q76 0 142.5 -14t116 -57.5t78 -124t28.5 -214.5l-318 2v27t-4 33.5t-14 28.5t-29 12q-21 0 -32.5 -6t-17 -14t-6.5 -16.5t-1 -13.5q0 -27 32 -52.5t79.5 -54t103.5 -63t103.5 -79.5t79.5 -104t32 -136z" />
    <glyph glyph-name="v" unicode="v" horiz-adv-x="903" 
d="M894 1204l-232 -1204h-421l-232 1204h326l116 -820l117 820h326z" />
    <glyph glyph-name="w" unicode="w" horiz-adv-x="1506" 
d="M7 1204h326l96 -888l97 888h450l96 -888l97 888h326l-172 -1204h-481l-91 830l-91 -830h-481z" />
    <glyph glyph-name="x" unicode="x" horiz-adv-x="864" 
d="M527 0l-102 324l-111 -324h-307l227 625l-215 577h332l86 -295l101 295h307l-215 -577l227 -625h-330z" />
    <glyph glyph-name="y" unicode="y" horiz-adv-x="887" 
d="M336 1204l108 -864l109 864h326q-33 -211 -67 -419.5t-67 -419.5l-63 -400q-12 -94 -47 -171.5t-83 -137t-104.5 -100t-113.5 -60.5l-136 228q27 11 57 26t57 41.5t48 69.5t31 110l4 29h-193l-192 1204h326z" />
    <glyph glyph-name="z" unicode="z" horiz-adv-x="804" 
d="M41 0v270l342 637h-314v295h666v-268l-338 -629h340v-305h-696z" />
    <glyph glyph-name="braceleft" unicode="{" horiz-adv-x="569" 
d="M6 911q39 0 62 12t35 36.5t16 63t4 91.5q0 51 -1 100.5t-1 100.5q-2 76 16.5 129t49.5 89t70.5 56.5t79.5 31t76.5 13t61.5 2.5h80v-286h-39q-23 0 -37.5 -7t-23.5 -22.5t-12.5 -40t-4.5 -59.5l-4 -291q-1 -46 -11 -78t-28 -52t-42.5 -29.5t-53.5 -10.5q29 -2 53.5 -11
t42.5 -29t28 -52t11 -78l4 -291q1 -35 4.5 -59.5t12.5 -40t23.5 -22.5t37.5 -7h39v-287h-80q-25 0 -61 3t-76 13.5t-79 31t-70 56.5t-50 89t-18 129l2 201q1 53 -3 91t-16.5 63t-35.5 36.5t-62 11.5v303v0z" />
    <glyph glyph-name="bar" unicode="|" horiz-adv-x="1001" 
d="M92 -82v1686h324v-1686h-324z" />
    <glyph glyph-name="braceright" unicode="}" horiz-adv-x="571" 
d="M563 608q-38 0 -61.5 -11.5t-36 -36.5t-16.5 -63t-3 -91l3 -201q1 -76 -18 -129t-50 -89t-70 -56.5t-79 -31t-76.5 -13.5t-61.5 -3h-80v287h39q23 0 38 7t23.5 22.5t12 40t4.5 59.5l4 291q1 46 11 78t28 52t42.5 29t53.5 11q-29 1 -53.5 10.5t-42.5 29.5t-28 52t-11 78
l-4 291q-1 35 -4.5 59.5t-12 40t-23.5 22.5t-38 7h-39v286h80q25 0 61.5 -2.5t76.5 -13t79 -31t70 -56.5t50 -89t18 -129l-3 -201q-1 -53 3 -91.5t16.5 -63t36 -36.5t61.5 -12v-303z" />
    <glyph glyph-name="asciitilde" unicode="~" horiz-adv-x="836" 
d="M813 633q-14 -22 -33 -42.5t-45.5 -36t-60.5 -25t-79 -9.5q-48 0 -89 15.5t-79 33.5t-74 33.5t-73 15.5q-21 0 -43.5 -3t-43 -9t-37.5 -15.5t-27 -23.5l-44 217q12 21 30.5 41t44.5 36t59.5 26t76.5 10q47 0 89.5 -15.5t82.5 -33.5t77 -33.5t73 -15.5q21 0 42.5 2.5
t42 8.5t37.5 15.5t29 24.5z" />
    <glyph glyph-name="exclamdown" unicode="&#xa1;" horiz-adv-x="543" 
d="M384.977 789.952l48.9971 -1103.93h-365.978l44.9971 1103.93h271.983zM433.974 1062.94q0 -89.9951 -43.9971 -129.992q-43.998 -39.998 -137.992 -39.998q-95.9941 0 -139.991 39.998q-43.9971 39.9971 -43.9971 129.992q0 87.9941 43.9971 127.992
q43.9971 39.9971 139.991 39.9971q93.9941 0 137.992 -39.9971q43.9971 -39.998 43.9971 -127.992z" />
    <glyph glyph-name="cent" unicode="&#xa2;" horiz-adv-x="897" 
d="M834 406v-25q0 -75 -12 -139.5t-41 -115t-76.5 -85t-118.5 -50.5v-155h-279v158q-68 18 -115 53t-75.5 84.5t-41 112.5t-12.5 137v442q0 74 12.5 137.5t41 113.5t75 85t115.5 52v167h279v-166q70 -17 117.5 -52t76.5 -85t41.5 -113.5t12.5 -138.5v-26h-314v32q0 13 -3 29
t-10.5 29.5t-21.5 23t-36 9.5q-23 0 -36 -9t-20.5 -22.5t-9.5 -29t-2 -28.5v-456q0 -13 2 -28.5t9.5 -28.5t20.5 -22t36 -9q30 0 45 15.5t21 36t5.5 40t-0.5 27.5h314z" />
    <glyph glyph-name="sterling" unicode="&#xa3;" horiz-adv-x="838" 
d="M11 773h118q-20 54 -40 107.5t-36 108.5t-26.5 112.5t-10.5 119.5q0 72 18.5 135.5t63.5 111t120.5 75.5t189.5 28q109 0 183.5 -32.5t119.5 -95.5t64.5 -155t19.5 -212q0 -29 -1 -59t-3 -62l-317 -2q-2 10 -2 27.5t1.5 39.5t3 47t1.5 50q0 28 -3 54t-10.5 46t-22 32
t-36.5 12q-35 0 -50.5 -24.5t-15.5 -93.5q0 -37 10.5 -79t26.5 -88.5t35.5 -97t38.5 -105.5h251v-290h-186q1 -12 1.5 -24.5t0.5 -24.5q0 -28 -9 -51.5t-23.5 -41.5t-31.5 -29t-32 -13q17 -1 38 -3l42 -4t40.5 -3.5t32.5 -1.5q19 0 37 1t36.5 6.5t37 16.5t37.5 31l113 -262
q-44 -54 -96.5 -76t-114.5 -22q-40 0 -92.5 4t-107.5 8.5t-109 8.5t-97 4q-32 0 -70 -3t-72 -7q-40 -4 -79 -9v303q60 7 99.5 19t63 28.5t33 38.5t9.5 49q0 28 -3 57h-189v290z" />
    <glyph glyph-name="fraction" unicode="&#x2044;" horiz-adv-x="637" 
d="M239 -50l-274 50l406 1522l267 -50z" />
    <glyph glyph-name="yen" unicode="&#xa5;" horiz-adv-x="850" 
d="M649 645h191v-182h-228v-64h228v-182h-228v-217h-323v217h-223v182h223v64h-223v182h184l-270 877h356l117 -564l135 564h315z" />
    <glyph glyph-name="section" unicode="&#xa7;" horiz-adv-x="872" 
d="M49 633q0 109 36 175.5t104 101.5q-27 23 -50 49t-40 56.5t-26.5 66t-9.5 77.5q0 98 17.5 172.5t61 124.5t116.5 75t184 25q76 0 142.5 -14t116 -57t78 -124t28.5 -214l-318 2v27t-4 33t-14 28t-29 12q-21 0 -32.5 -6t-17 -14t-6.5 -16.5t-1 -12.5q0 -27 32 -52.5
t79.5 -54t103.5 -63t103.5 -79.5t79.5 -104t32 -136q0 -110 -36 -176.5t-104 -101.5q26 -23 49 -49t40 -57t27 -66.5t10 -76.5q0 -98 -17.5 -172.5t-61 -124.5t-116.5 -75t-184 -25q-76 0 -142.5 14t-116 57.5t-78 124t-28.5 214.5l318 -2v-27t4 -33.5t14 -28.5t29 -12
q21 0 32.5 6t17 14t6.5 16t1 13q0 27 -32 52.5t-79.5 54.5t-103.5 63t-103.5 79.5t-79.5 104.5t-32 136zM383 678q0 -17 8 -31.5t22 -28.5q5 -1 10 -1.5t11 -0.5q15 0 24 5.5t14 13.5t7 16.5t2 14.5q0 16 -7.5 30.5t-21.5 28.5q-5 1 -10.5 1.5t-11.5 0.5q-15 0 -24 -5.5
t-14 -13.5t-7 -16.5t-2 -13.5z" />
    <glyph glyph-name="currency" unicode="&#xa4;" horiz-adv-x="831" 
d="M115 700q0 47 14 92l-96 97l198 198l100 -99q20 6 41 9.5t44 3.5q44 0 88 -14l100 100l199 -198l-100 -101q14 -44 14 -88q0 -23 -3.5 -44.5t-9.5 -41.5l99 -98l-199 -199l-95 97q-45 -15 -93 -15t-90 13l-95 -95l-198 199l96 94q-14 45 -14 90zM342 700q0 -31 21.5 -52
t52.5 -21t52 21t21 52t-21 52.5t-52 21.5t-52.5 -21.5t-21.5 -52.5z" />
    <glyph glyph-name="quotesingle" unicode="'" horiz-adv-x="377" 
d="M70 1067l-25 455h287l-27 -455h-235z" />
    <glyph glyph-name="quotedblleft" unicode="&#x201c;" horiz-adv-x="937" 
d="M326.98 1516.91q-8 -36.9971 -15.999 -75.4951q-8 -38.498 -14.999 -74.4951q-7 -35.998 -11 -67.9961t-4 -56.9971q0 -30.998 7.5 -48.4971t26.498 -17.499h49.9971v-290.981l-323.98 -3v274.983q0 55.9961 18.999 149.49t67.9961 238.485zM822.95 1512.91
q-8 -36.9971 -15.999 -75.4951q-8 -38.4971 -15 -74.4951q-6.99902 -35.998 -10.999 -67.9961t-4 -56.9961q0 -30.998 7.5 -48.4971q7.49902 -17.499 26.498 -17.499h49.9971v-290.982l-323.98 -3v274.983q0 55.9961 18.999 149.491q18.999 93.4941 67.9961 238.485z" />
    <glyph glyph-name="guillemotleft" unicode="&#xab;" horiz-adv-x="1010" 
d="M193 188l-168 403l168 404h315l-180 -404l180 -403h-315zM668 188l-168 403l168 404h315l-180 -404l180 -403h-315z" />
    <glyph glyph-name="guilsinglright" unicode="&#x203a;" horiz-adv-x="532" 
d="M338.979 187l167.989 403l-167.989 404h-314.981l179.989 -404l-179.989 -403h314.981z" />
    <glyph glyph-name="endash" unicode="&#x2013;" horiz-adv-x="952" 
d="M76 447v281h801v-281h-801z" />
    <glyph glyph-name="dagger" unicode="&#x2020;" horiz-adv-x="788" 
d="M555 815v-1243h-317v1243h-238v312h238v399h317v-399h236v-312h-236z" />
    <glyph glyph-name="periodcentered" unicode="&#xb7;" horiz-adv-x="473" 
d="M51 588q0 90 44 130t138 40q96 0 140.5 -40t44.5 -130q0 -88 -44.5 -128t-140.5 -40q-94 0 -138 40t-44 128z" />
    <glyph glyph-name="paragraph" unicode="&#xb6;" horiz-adv-x="1229" 
d="M520 -369v918q-114 3 -200.5 32.5t-145 88.5t-88 149t-29.5 213q0 128 28 220.5t85 152.5t144 88.5t206 28.5h283v-1891h-283zM881 -369v1891h282v-1891h-282z" />
    <glyph glyph-name="bullet" unicode="&#x2022;" horiz-adv-x="940" 
d="M862 702q0 -81 -30 -152t-82.5 -123.5t-123.5 -83t-153 -30.5q-81 0 -152.5 30.5t-125.5 83t-85.5 123.5t-31.5 152q0 83 31.5 155t85.5 124.5t125.5 82.5t152.5 30q82 0 153 -30t123.5 -82.5t82.5 -124.5t30 -155z" />
    <glyph glyph-name="quotesinglbase" unicode="&#x201a;" horiz-adv-x="451" 
d="M79 -322q8 37 16 75.5t15 74.5t11 68t4 57q0 31 -7.5 48.5t-26.5 17.5h-50v291l324 3v-275q0 -56 -19 -149.5t-68 -238.5z" />
    <glyph glyph-name="quotedblbase" unicode="&#x201e;" horiz-adv-x="937" 
d="M79 -322q8 37 16 75.5t15 74.5t11 68t4 57q0 31 -7.5 48.5t-26.5 17.5h-50v291l324 3v-275q0 -56 -19 -149.5t-68 -238.5zM537 -322q8 37 16 75.5t15 74.5t11 68t4 57q0 31 -7.5 48.5t-26.5 17.5h-50v291l324 3v-275q0 -56 -19 -149.5t-68 -238.5z" />
    <glyph glyph-name="quotedblright" unicode="&#x201d;" horiz-adv-x="937" 
d="M575 891q8 37 16 75.5t15 74.5t11 68t4 57q0 31 -7.5 48.5t-26.5 17.5h-50v291l324 3v-275q0 -56 -19 -149.5t-68 -238.5zM79 887q8 37 16 75.5t15 74.5t11 68t4 57q0 31 -7.5 48.5t-26.5 17.5h-50v291l324 3v-275q0 -56 -19 -149.5t-68 -238.5z" />
    <glyph glyph-name="perthousand" unicode="&#x2030;" horiz-adv-x="2443" 
d="M59 1182q0 93 15 161.5t51.5 113.5t98.5 67t157 22q94 0 155 -22t97 -67t50.5 -113.5t14.5 -161.5v-236q0 -95 -14.5 -164t-50.5 -114.5t-97 -67.5t-155 -22q-95 0 -157 22t-98.5 67.5t-51.5 114.5t-15 164v236zM381 829q11 0 19.5 4t14 16t8.5 34t3 57v246q0 35 -3 56.5
t-8.5 33.5t-14 16t-19.5 4q-12 0 -21 -4t-15 -16t-9.5 -33.5t-3.5 -56.5v-246q0 -35 3.5 -57t9.5 -34t15 -16t21 -4zM819 0h-303l406 1522h305zM1016 367q0 93 14.5 161.5t51.5 113.5t98.5 67t156.5 22q94 0 155.5 -22t97.5 -67t50.5 -113.5t14.5 -161.5v-31
q0 -95 -14.5 -164t-50.5 -115t-97.5 -68t-155.5 -22q-95 0 -156.5 22t-98.5 68t-51.5 115t-14.5 164v31zM1337 219q11 0 19.5 4t14 16t8.5 34t3 57v41q0 35 -3 56.5t-8.5 33.5t-14 16t-19.5 4t-20 -4t-15.5 -16t-10 -33.5t-3.5 -56.5v-41q0 -35 3.5 -57t10 -34t15.5 -16
t20 -4zM1712 367q0 93 15 161.5t51.5 113.5t98.5 67t157 22q94 0 155 -22t97 -67t50.5 -113.5t14.5 -161.5v-31q0 -95 -14.5 -164t-50.5 -115t-97 -68t-155 -22q-95 0 -157 22t-98.5 68t-51.5 115t-15 164v31zM2034 219q10 0 18.5 4t14.5 16t9 34t3 57v41q0 35 -3 56.5
t-9 33.5t-14.5 16t-18.5 4q-12 0 -21 -4t-15 -16t-9.5 -33.5t-3.5 -56.5v-41q0 -35 3.5 -57t9.5 -34t15 -16t21 -4z" />
    <glyph glyph-name="grave" unicode="`" horiz-adv-x="422" 
d="M278 1572l132 -294h-215l-190 294h273z" />
    <glyph glyph-name="acute" unicode="&#xb4;" horiz-adv-x="492" 
d="M460 1572l-200 -294h-225l132 294h293z" />
    <glyph glyph-name="circumflex" unicode="&#x2c6;" horiz-adv-x="375" 
d="M-88 1279l139 249h295l139 -249h-248l-39 94l-38 -94h-248z" />
    <glyph glyph-name="tilde" unicode="&#x2dc;" horiz-adv-x="365" 
d="M515 1547q-8 -55 -25.5 -104.5t-47.5 -86.5t-73.5 -59t-102.5 -22q-35 0 -62.5 9.5t-51 21.5t-44.5 21.5t-43 9.5q-32 0 -55 -15t-35 -59l-156 43q9 53 26.5 101.5t47 85.5t72 59t100.5 22q38 0 66.5 -9.5t51.5 -21.5t43.5 -21.5t42.5 -9.5q35 0 56.5 16t32.5 58z" />
    <glyph glyph-name="macron" unicode="&#xaf;" horiz-adv-x="371" 
d="M-75 1311v233h527v-233h-527z" />
    <glyph glyph-name="breve" unicode="&#x2d8;" horiz-adv-x="760" 
d="M681 1585q0 -60 -15 -115.5t-51 -98t-96 -68t-150 -25.5q-92 0 -152 25.5t-96 68t-50.5 98t-14.5 115.5h172q3 -28 6 -52.5t15.5 -42.5t40 -28.5t79.5 -10.5q48 0 75 9.5t40.5 27.5t17.5 42.5t7 54.5h172z" />
    <glyph glyph-name="dotaccent" unicode="&#x2d9;" horiz-adv-x="467" 
d="M51 1410q0 90 44 130t138 40q96 0 140.5 -40t44.5 -130q0 -88 -44.5 -128t-140.5 -40q-94 0 -138 40t-44 128z" />
    <glyph glyph-name="dieresis" unicode="&#xa8;" horiz-adv-x="430" 
d="M-88 1425q0 78 33 112t105 34t106 -34t34 -112q0 -75 -34 -109.5t-106 -34.5t-105 34.5t-33 109.5zM229 1425q0 78 33.5 112t104.5 34q73 0 106.5 -34t33.5 -112q0 -75 -33.5 -109.5t-106.5 -34.5q-71 0 -104.5 34.5t-33.5 109.5z" />
    <glyph glyph-name="ring" unicode="&#x2da;" horiz-adv-x="442" 
d="M-42 1492q0 124 62 180t192 56q132 0 194 -56t62 -180q0 -121 -61.5 -177.5t-194.5 -56.5q-131 0 -192.5 56.5t-61.5 177.5zM155 1493q0 -28 13.5 -41.5t44.5 -13.5q30 0 43.5 13.5t13.5 41.5q0 27 -13.5 39.5t-43.5 12.5q-31 0 -44.5 -12.5t-13.5 -39.5z" />
    <glyph glyph-name="cedilla" unicode="&#xb8;" horiz-adv-x="707" 
d="M124 -283q19 -11 36.5 -20.5t38.5 -17t48 -11.5t63 -4q38 0 65.5 15t27.5 50q0 15 -9.5 25t-24.5 16.5t-34.5 9.5t-39.5 3t-39 -2.5t-33 -7.5l2 272h149v-125q11 2 22 5q10 2 23 4t29 2q45 0 79.5 -16.5t57 -42.5t34 -60t11.5 -68q0 -54 -22 -95.5t-62.5 -69.5t-98 -42.5
t-128.5 -14.5q-41 0 -77 8t-66.5 20.5t-54.5 28t-41 30.5z" />
    <glyph glyph-name="hungarumlaut" unicode="&#x2dd;" horiz-adv-x="389" 
d="M250 1572l-190 -294h-215l132 294h273zM560 1572l-190 -294h-215l132 294h273z" />
    <glyph glyph-name="ogonek" unicode="&#x2db;" horiz-adv-x="414" 
d="M354 -417q-54 -60 -172 -60q-55 0 -105 13.5t-88.5 43.5t-61 77.5t-22.5 115.5q0 56 24.5 97t66.5 73t98 58.5t119 53.5l117 -55q-42 -26 -70.5 -49t-45 -46t-23.5 -48t-7 -55q0 -38 17 -56t45 -18q18 0 29.5 1t21 4t18.5 8t21 12z" />
    <glyph glyph-name="caron" unicode="&#x2c7;" horiz-adv-x="682" 
d="M299 1528l38 -94l39 94h248l-139 -249h-295l-139 249h248z" />
    <glyph glyph-name="emdash" unicode="&#x2014;" horiz-adv-x="1333" 
d="M76 448v281h1165v-281h-1165z" />
    <glyph glyph-name="AE" unicode="&#xc6;" horiz-adv-x="1165" 
d="M-60 0l367 1522h805v-316h-296v-280h227v-316h-227v-295h296v-315h-620v199h-185l-41 -199h-326zM492 496v592l-123 -592h123z" />
    <glyph glyph-name="Lslash" unicode="&#x141;" horiz-adv-x="788" 
d="M201 0v388l-101 -70v352l101 70v782h324v-556l128 89v-352l-128 -89v-303h354v-311h-678z" />
    <glyph glyph-name="OE" unicode="&#x152;" horiz-adv-x="1345" 
d="M545 0v70q-10 -17 -23 -33t-30 -28t-39 -19.5t-50 -7.5q-95 0 -159 29.5t-102.5 83t-54.5 128.5t-16 166v750q0 90 16 165t54.5 129t102.5 83.5t159 29.5q42 0 80.5 -20t61.5 -44v44h700v-314h-376v-286h307v-316h-307v-295h376v-315h-700zM465 297q33 0 52 16t28 31v840
q-9 15 -28 31t-52 16q-23 0 -36.5 -9.5t-21 -23.5t-10 -30t-2.5 -29v-727q0 -25 2.5 -46t10 -36.5t21 -24t36.5 -8.5z" />
    <glyph glyph-name="ordmasculine" unicode="&#xba;" horiz-adv-x="758" 
d="M59 1182q0 93 15 161.5t51.5 113.5t98.5 67t157 22q94 0 155 -22t97 -67t50.5 -113.5t14.5 -161.5v-72q0 -95 -14.5 -164t-50.5 -115t-97 -68t-155 -22q-95 0 -157 22t-98.5 68t-51.5 115t-15 164v72zM381 993q11 0 19.5 3t14 14t8.5 32t3 56v94q0 35 -3 56t-8.5 31.5
t-14 13.5t-19.5 3q-12 0 -21 -3t-15 -13.5t-9.5 -31.5t-3.5 -56v-94q0 -35 3.5 -56t9.5 -32t15 -14t21 -3zM80 686h600v-250h-600v250z" />
    <glyph glyph-name="dotlessi" unicode="&#x131;" horiz-adv-x="487" 
d="M85 0v1202h317v-1202h-317z" />
    <glyph glyph-name="Euro" unicode="&#x20ac;" horiz-adv-x="791" 
d="M526 1013v127q0 13 -2.5 29t-10 29.5t-21 23t-35.5 9.5q-23 0 -36.5 -9.5t-21 -23.5t-10 -30t-2.5 -29v-168h324l-20 -193h-304v-37h301l-20 -193h-281v-163q0 -13 2.5 -29t10 -30t21 -23.5t36.5 -9.5q21 0 34.5 8.5t21 21.5t10.5 28.5t3 28.5v131h324v-132
q0 -89 -20.5 -163t-66.5 -126.5t-121.5 -82t-184.5 -29.5v-1q-111 0 -186 29.5t-121.5 83.5t-66.5 129t-20 166v163h-65l20 193h45v37h-65l20 193h45v168q0 90 20 164.5t66 128.5t121 84t185 30l1 1q110 0 185.5 -29.5t122 -83t66.5 -128.5t20 -165v-128h-324z" />
    <glyph glyph-name="trademark" unicode="&#x2122;" horiz-adv-x="1720" 
d="M1001 944h-6l19 -420h-273v1002h336l117 -465h4l117 465h334v-1002h-271l19 420h-6l-95 -354h-200zM502 1262v-738h-273v738h-190v262h651v-262h-188z" />
    <glyph glyph-name="copyright" unicode="&#xa9;" horiz-adv-x="1580" 
d="M1493 504q0 -210 -48 -350.5t-138 -224.5t-219.5 -119t-292.5 -35q-164 0 -293.5 35t-219.5 120t-138 226.5t-48 354.5v336q0 208 47.5 347.5t137.5 223t219.5 118.5t293.5 35q163 0 292.5 -35t220 -119.5t138.5 -225.5t48 -352v-335zM795 20q129 0 213.5 31.5t134 92
t69 149.5t19.5 203v350q0 116 -19.5 205.5t-69 150.5t-134 92.5t-214.5 31.5q-128 0 -212.5 -31.5t-134.5 -91.5t-70 -148t-20 -200v-351q0 -117 20 -207.5t69.5 -152t134 -93t214.5 -31.5zM859 500h270v-22q0 -79 -15.5 -144t-53 -111.5t-101 -72t-158.5 -25.5t-159.5 25.5
t-103.5 72t-56 111.5t-17 144v387q0 79 16.5 144.5t55 112t102.5 72t159 25.5t158.5 -25.5t102 -72t54.5 -112t16 -144.5v-22h-270v28q0 11 -2.5 25t-9.5 26t-18.5 20t-30.5 8q-20 0 -31.5 -8t-17.5 -19.5t-8 -25t-2 -25.5v-399q0 -11 2 -24.5t8 -25t17.5 -19.5t31.5 -8
q19 0 30.5 8t18.5 20t9.5 25.5t2.5 25.5v25z" />
    <glyph glyph-name="minus" unicode="&#x2212;" horiz-adv-x="836" 
d="M72 563v281h692v-281h-692z" />
    <glyph glyph-name="degree" unicode="&#xb0;" horiz-adv-x="475" 
d="M475 1300q0 -49 -16 -93t-46.5 -77t-76 -52t-103.5 -19q-57 0 -101 19t-74 52t-46 77t-16 93t16 94t46 79.5t74 54.5t101 20q58 0 103.5 -20t76 -54.5t46.5 -79.5t16 -94zM301 1300q0 36 -16 57t-52 21q-29 0 -46 -21t-17 -57q0 -32 17 -56.5t46 -24.5q36 0 52 24.5
t16 56.5z" />
    <glyph glyph-name="plusminus" unicode="&#xb1;" horiz-adv-x="836" 
d="M279 747h-207v281h207v205h280v-205h205v-281h-205v-207h-280v207zM72 165v281h692v-281h-692z" />
    <glyph glyph-name="onehalf" unicode="&#xbd;" horiz-adv-x="1661" 
d="M29 1697q48 25 94.5 58t75.5 67h221v-998h-274v680q-15 -20 -48.5 -34.5t-68.5 -16.5v244zM962 300v260q15 41 48.5 82t74 80t84 76t79 70t58.5 62t23 52q0 12 -1.5 25t-7 24.5t-15 19t-25.5 7.5q-14 0 -22.5 -6.5t-13.5 -17.5t-7 -25t-2 -29v-20h-273v51q0 148 80 230.5
t244 82.5q161 0 238 -88t77 -254q0 -54 -20 -101t-51 -87t-68 -74t-71 -62.5t-60.5 -52.5t-36.5 -43h293v-262h-625zM651 -50l-274 50l406 1522l267 -50z" />
    <glyph glyph-name="Eth" unicode="&#xd0;" horiz-adv-x="940" 
d="M486 563h-486v281h486v-281zM471 1522q109 -1 183.5 -31t120.5 -83.5t65.5 -128.5t19.5 -165v-706q0 -91 -20 -166t-66 -129t-121 -83.5t-186 -29.5h-391v1522h395zM400 1206v-891h67q22 0 36 9.5t21.5 24t10 30.5t2.5 29v706q0 13 -2.5 29t-10 30t-21.5 23.5t-36 9.5
h-67z" />
    <glyph glyph-name="multiply" unicode="&#xd7;" horiz-adv-x="836" 
d="M219 702l-166 166l199 199l166 -166l166 166l198 -199l-166 -166l166 -165l-198 -199l-166 166l-166 -166l-199 199z" />
    <glyph glyph-name="eth" unicode="&#xf0;" horiz-adv-x="912" 
d="M320 1319q-30 6 -55.5 6.5t-42.5 2.5l139 265q22 -3 53 -9t69 -18l46 70l123 -83l-36 -54q44 -32 84.5 -80t72 -117t50 -161t18.5 -213v-545q0 -91 -18 -165.5t-61.5 -128t-117 -83t-184.5 -29.5q-112 0 -187 29.5t-120 83t-64 128t-19 165.5v372q0 91 12.5 164t44.5 124
t88.5 78.5t143.5 27.5q66 0 107 -34.5t64 -97.5q-11 82 -32.5 136.5t-50.5 88.5l-40 -60l-124 81zM456 287q22 0 35.5 9t20.5 22t9 28.5t2 28.5v366q0 13 -2 31.5t-9 36t-20.5 29.5t-35.5 12q-23 0 -36 -9t-20.5 -22.5t-9.5 -29t-2 -28.5v-386q0 -13 2 -28.5t9.5 -28.5
t20.5 -22t36 -9z" />
    <glyph glyph-name="divide" unicode="&#xf7;" horiz-adv-x="836" 
d="M72 563v281h692v-281h-692zM229 1050q0 90 44 130t138 40q96 0 140.5 -40t44.5 -130q0 -88 -44.5 -128t-140.5 -40q-94 0 -138 40t-44 128zM229 354q0 90 44 130t138 40q96 0 140.5 -40t44.5 -130q0 -88 -44.5 -128t-140.5 -40q-94 0 -138 40t-44 128z" />
    <glyph glyph-name="thorn" unicode="&#xfe;" horiz-adv-x="934" 
d="M82 -367v1889h316v-411q20 54 56.5 85t94.5 31q87 0 145.5 -29t93.5 -82t49.5 -127.5t14.5 -165.5v-442q0 -91 -14 -165.5t-48 -127.5t-92 -82t-145 -29q-60 0 -97 32.5t-58 89.5v-466h-316zM467 920q-22 0 -35.5 -12t-20.5 -29.5t-9.5 -36t-2.5 -31.5v-416
q0 -13 2.5 -31.5t9.5 -35.5t20.5 -29t35.5 -12t35.5 9t20.5 22t9.5 28.5t2.5 28.5v456q0 13 -2.5 28.5t-9.5 29t-20.5 22.5t-35.5 9z" />
    <glyph glyph-name=".DOT" horiz-adv-x="0" 
d="M63 385q0 82 39.5 120t122.5 38q84 0 123 -38t39 -120t-39 -120t-123 -38q-83 0 -122.5 38t-39.5 120z" />
    <glyph glyph-name="p" unicode="p" horiz-adv-x="930" 
d="M85 -367v1569h316v-91q20 54 56.5 85t94.5 31q87 0 145.5 -29t93.5 -82t49.5 -127.5t14.5 -165.5v-442q0 -91 -14 -165.5t-48 -127.5t-92 -82t-145 -29q-60 0 -97 32.5t-58 89.5v-466h-316zM470 287q22 0 35.5 9t20.5 22t9.5 28.5t2.5 28.5v456q0 13 -2.5 28.5t-9.5 29
t-20.5 22.5t-35.5 9t-35.5 -12t-20.5 -29.5t-9.5 -36t-2.5 -31.5v-416q0 -13 2.5 -31.5t9.5 -35.5t20.5 -29t35.5 -12z" />
    <glyph glyph-name="q" unicode="q" horiz-adv-x="922" 
d="M523 -367v457q-21 -52 -57 -82.5t-93 -30.5q-87 0 -145.5 29t-93.5 82t-49.5 127.5t-14.5 165.5v442q0 91 14 165.5t48 127.5t92 82t145 29q59 0 95.5 -32.5t58.5 -87.5v95h315v-1569h-315zM455 284q20 0 33 10.5t20.5 25.5t10.5 32.5t4 31.5v433q-1 14 -4 31.5
t-10.5 32.5t-20.5 25.5t-33 10.5q-22 0 -35.5 -9t-20.5 -22t-9.5 -28.5t-2.5 -28.5v-456q0 -13 2.5 -28.5t9.5 -29t20.5 -22.5t35.5 -9z" />
    <glyph glyph-name="e" unicode="e" horiz-adv-x="911" 
d="M841 406v-25q0 -91 -18 -165.5t-62 -127.5t-117 -82t-184 -29t-185.5 29t-120 82t-65 127.5t-19.5 165.5v442q0 91 19 165.5t63.5 127.5t118.5 82t185 29q110 0 184 -29t118.5 -82t63.5 -127.5t19 -165.5v-295l-457 -96v-55q0 -13 3 -29t10.5 -29.5t21.5 -22.5t37 -9
q22 0 36 9t21.5 22.5t10.5 29.5t3 29v29h314zM456 920q-23 0 -37 -9.5t-21.5 -23t-10.5 -29.5t-3 -29v-124l143 35v89q0 13 -3 29t-10.5 29.5t-21.5 23t-36 9.5z" />
    <glyph glyph-name="a" unicode="a" horiz-adv-x="931" 
d="M531 0v105q-23 -59 -61 -93.5t-99 -34.5q-87 0 -145.5 27.5t-93.5 78.5t-49.5 124t-14.5 164q0 93 14 157.5t48 105t92 59t145 18.5q54 0 93.5 -5t68.5 -11v136q0 13 -2 28.5t-9 29t-20.5 22.5t-35.5 9t-35.5 -9.5t-20.5 -23t-9.5 -29.5t-2.5 -29v-32h-316v26
q0 91 18.5 165.5t62.5 127.5t117.5 82t183.5 29q111 0 185 -29t118.5 -82t63.5 -127.5t19 -165.5v-823h-315zM453 284q22 0 36.5 12t23.5 29.5t12.5 36t3.5 31.5v38q-15 7 -39 13.5t-43 6.5q-21 0 -33.5 -7t-18.5 -19t-8 -28t-2 -34q0 -13 2.5 -27t9.5 -25.5t20.5 -19
t35.5 -7.5z" />
    <glyph glyph-name="u" unicode="u" horiz-adv-x="937" 
d="M402 1203v-830q0 -13 2 -28.5t9.5 -28.5t20.5 -22t36 -9q22 0 35.5 12t20.5 29.5t9 36t2 31.5v808h315v-1202h-315v98q-21 -55 -56.5 -87.5t-92.5 -32.5q-88 0 -146 29t-93 82t-49.5 127.5t-14.5 164.5v822h317z" />
    <glyph glyph-name="n" unicode="n" horiz-adv-x="938" 
d="M536 0v830q0 13 -2 28.5t-9.5 28.5t-21 22t-35.5 9t-35.5 -12t-20.5 -29.5t-9 -36t-2 -31.5v-809h-316v1202h316v-97q13 25 34 47t45.5 38.5t52.5 25.5t57 9q81 0 132 -29t80.5 -82t40 -127.5t10.5 -164.5v-822h-317z" />
    <glyph glyph-name="h" unicode="h" horiz-adv-x="938" 
d="M536 0v830q0 13 -2 28.5t-9.5 28.5t-21 22t-35.5 9t-35.5 -12t-20.5 -29.5t-9 -36t-2 -31.5v-809h-316v1567h316v-462q20 55 56 87.5t93 32.5q88 0 146 -29t93 -82t49.5 -127.5t14.5 -164.5v-822h-317z" />
    <glyph glyph-name="d" unicode="d" horiz-adv-x="938" 
d="M523 0v90q-21 -52 -57 -82.5t-93 -30.5q-87 0 -145.5 29t-93.5 82t-49.5 127.5t-14.5 165.5v442q0 91 14 165.5t48 127.5t92 82t145 29q59 0 95.5 -32.5t58.5 -87.5v462h315v-1569h-315zM455 284q20 0 33 10.5t20.5 25.5t10.5 32.5t4 31.5v433q-1 14 -4 31.5t-10.5 32.5
t-20.5 25.5t-33 10.5q-22 0 -35.5 -9t-20.5 -22t-9.5 -28.5t-2.5 -28.5v-456q0 -13 2.5 -28.5t9.5 -29t20.5 -22.5t35.5 -9z" />
    <glyph glyph-name="t" unicode="t" horiz-adv-x="702" 
d="M457 1585v-383h166v-297h-166v-530q0 -97 57 -97q34 0 60 5t45 12.5t32.5 15.5t24.5 14l16 -266q-38 -31 -95 -56.5t-142 -25.5q-95 0 -156.5 30t-97 83t-49 126t-13.5 159v530h-129v297h129v383h318z" />
    <glyph glyph-name="j" unicode="j" horiz-adv-x="489" 
d="M59 1430q0 80 44.5 116.5t138.5 36.5q96 0 140 -36.5t44 -116.5q0 -79 -44 -115.5t-140 -36.5q-94 0 -138.5 36.5t-44.5 115.5zM403 1202v-1210q0 -86 -13.5 -159t-49 -126t-97 -83t-156.5 -30q-43 0 -78 7t-64 18.5t-52.5 26.5t-42.5 30l16 266q11 -6 24.5 -14
t32.5 -15.5t44.5 -12.5t60.5 -5q57 0 57 97v1210h318z" />
    <glyph glyph-name="ae" unicode="&#xe6;" horiz-adv-x="1379" 
d="M1294 406v-25q0 -91 -18 -165.5t-62 -127.5t-117 -82t-184 -29q-92 0 -153.5 19.5t-101.5 56.5q-48 -34 -110.5 -55t-138.5 -21q-99 0 -165.5 27.5t-106.5 78.5t-57 124t-17 164q0 93 14 157.5t48 105t92 59t145 18.5q54 0 93.5 -5t68.5 -11v136q0 13 -2 28.5t-9 29
t-20.5 22.5t-35.5 9t-35.5 -9.5t-20.5 -23t-9.5 -29.5t-2.5 -29v-32h-316v26q0 91 18.5 165.5t62.5 127.5t117.5 82t183.5 29q78 0 132.5 -14.5t92.5 -41.5q39 27 95 41.5t134 14.5q110 0 184 -29t118.5 -82t63.5 -127.5t19 -165.5v-295l-457 -96v-55q0 -13 3 -29
t10.5 -29.5t21.5 -22.5t37 -9q22 0 36 9t21.5 22.5t10.5 29.5t3 29v29h314zM909 920q-23 0 -37 -9.5t-21.5 -23t-10.5 -29.5t-3 -29v-124l143 35v89q0 13 -3 29t-10.5 29.5t-21.5 23t-36 9.5zM455 284q22 0 36.5 12t23.5 29.5t12.5 36t3.5 31.5v38q-15 7 -39 13.5t-43 6.5
q-21 0 -33.5 -7t-18.5 -19t-8 -28t-2 -34q0 -13 2.5 -27t9.5 -25.5t20.5 -19t35.5 -7.5z" />
    <glyph glyph-name="Thorn" unicode="&#xde;" horiz-adv-x="946" 
d="M406 1522v-267h57q90 0 163.5 -20t126.5 -65.5t82 -119.5t29 -182v-235q0 -113 -28.5 -189t-81 -122.5t-126 -66t-163.5 -19.5h-59v-236h-324v1522h324zM539 868q0 35 -16.5 53.5t-59.5 18.5h-57v-391h53q46 0 63 20t17 64v235z" />
    <glyph glyph-name="semicolon" unicode=";" horiz-adv-x="473" 
d="M51 145q0 90 44 130t138 40q97 0 141 -55t44 -149q0 -78 -13 -142t-34 -114.5t-48.5 -88.5t-56.5 -65l-139 82q24 28 39.5 51.5t25.5 46t15.5 46t9.5 50.5q-85 0 -125.5 42.5t-40.5 125.5zM51 1056q0 90 44 130t138 40q96 0 140.5 -40t44.5 -130q0 -88 -44.5 -128
t-140.5 -40q-94 0 -138 40t-44 128z" />
    <glyph glyph-name="backslash" unicode="\" horiz-adv-x="696" 
d="M-12 1599h313l406 -1679h-312z" />
    <glyph glyph-name="oe" unicode="&#x153;" horiz-adv-x="1383" 
d="M1298 406v-25q0 -91 -18 -165.5t-62 -127.5t-117 -82t-184 -29q-73 0 -130 13t-100 36q-42 -23 -98 -36t-129 -13q-111 0 -185.5 29t-120 82t-65 127.5t-19.5 165.5v442q0 91 19 165.5t63.5 127.5t118.5 82t185 29q72 0 128.5 -13t99.5 -37q43 24 99.5 37t129.5 13
q110 0 184 -29t118.5 -82t63.5 -127.5t19 -165.5v-295l-457 -96v-51v-4q0 -13 3 -29t10.5 -29.5t21.5 -22.5t37 -9q22 0 36 9t21.5 22.5t10.5 29.5t3 29v29h314zM456 920q-23 0 -36 -9t-20.5 -22.5t-9.5 -29t-2 -28.5v-456q0 -13 2 -28.5t9.5 -28.5t20.5 -22t36 -9
q22 0 35.5 9t20.5 22t9 28.5t2 28.5v456q0 13 -2 28.5t-9 29t-20.5 22.5t-35.5 9zM913 920q-21 0 -34.5 -8t-21.5 -20.5t-11.5 -27t-4.5 -27.5v-8v-124l143 35v89q0 13 -3 29t-10.5 29.5t-21.5 23t-36 9.5z" />
    <glyph glyph-name="questiondown" unicode="&#xbf;" horiz-adv-x="889" 
d="M71.9961 68.9961q0 82.9941 17.498 150.49q17.499 67.4961 43.498 123.993q25.998 56.4961 56.9961 103.993t57.9961 91.9941q26.999 44.498 45.498 87.9951q18.498 43.4971 19.498 91.4941l3 70.9961h273.983l2 -75.9961q2 -80.9951 -11.999 -144.991t-35.498 -117.492
q-21.499 -53.4971 -47.9971 -99.4941t-48.9971 -90.9941q-22.499 -44.998 -37.498 -91.9951t-14.999 -101.993q0 -39.998 8 -62.9961q7.99902 -22.999 43.9971 -22.999q20.999 0 32.498 6q11.499 5.99902 16.999 17.499q5.5 11.499 6.5 27.498
q0.999023 15.999 0.999023 36.998v94.9941h310.981l4 -94.9941q0 -86.9951 -14.999 -160.99q-14.999 -73.9961 -55.4971 -128.992q-40.4971 -54.9971 -111.993 -85.9951q-71.4951 -30.998 -185.488 -30.998q-86.9951 0 -156.99 20.499q-69.9961 20.499 -119.493 68.4961
t-75.9951 125.992t-26.498 191.988zM636.961 1062.94q0 -89.9951 -43.9971 -129.992q-43.9971 -39.998 -137.991 -39.998q-95.9941 0 -140.492 39.998q-44.4971 39.9971 -44.4971 129.992q0 87.9941 44.4971 127.992q44.498 39.9971 140.492 39.9971
q93.9941 0 137.991 -39.9971q43.9971 -39.998 43.9971 -127.992z" />
    <glyph glyph-name="brokenbar" unicode="&#xa6;" horiz-adv-x="1001" 
d="M92 817v787h324v-787h-324zM416 717v-799h-324v799h324z" />
    <glyph glyph-name="Oslash" unicode="&#xd8;" horiz-adv-x="928" 
d="M70 1139q0 90 20 165t66.5 129t121.5 83.5t186 29.5t186 -29.5t121.5 -83.5t66.5 -129t20 -166v-754q0 -90 -20 -165t-66.5 -129t-121.5 -83.5t-186 -29.5t-186 29.5t-121.5 83.5t-66.5 129t-20 166v754zM464 293q1 0 1.5 -0.5t1.5 -0.5q21 1 34.5 10.5t20.5 23t9.5 29.5
t2.5 29v754q0 13 -2.5 29t-10 30t-21.5 23.5t-36 9.5q-3 0 -4 1q-21 -1 -34 -11t-20 -23.5t-9.5 -29t-2.5 -28.5v-754q0 -13 2.5 -29t10 -30t21 -23.5t36.5 -9.5zM414 -80h-311l405 1679h314z" />
    <glyph glyph-name="germandbls" unicode="&#xdf;" horiz-adv-x="926" 
d="M446 977h22q21 1 33.5 10.5t20 23.5t10 29.5t2.5 28.5v80q0 13 -2.5 29t-10 30t-21.5 23.5t-36 9.5t-36 -9.5t-21.5 -23.5t-10 -30t-2.5 -29v-1147l-323 -2v1139q0 90 20 165t66 129t121 83.5t186 29.5t185 -29t119 -82t64 -128t19 -168v-64q0 -97 -31 -157t-88 -94
q57 -35 91 -95t34 -154v-165q0 -91 -20 -166t-66 -129t-121 -83.5t-186 -29.5v305q22 0 36.5 9.5t22.5 23.5t11.5 30t3.5 29v183q0 13 -3.5 29t-11.5 30t-22.5 23.5t-36.5 9.5h-18v303z" />
    <glyph glyph-name="Germandbls" unicode="&#x1e9e;" horiz-adv-x="937" 
d="M461 956l69 250h-51q-22 0 -36 -9t-21.5 -22.5t-10 -29.5t-2.5 -29v-1114l-327 -2v1116q0 91 20.5 166t67.5 129t122.5 83.5t186.5 29.5l373 -2v-322l-119 -343q66 -42 105.5 -111.5t39.5 -170.5v-165q0 -91 -21 -166t-68 -129t-123 -83.5t-187 -29.5v313q22 0 36.5 9.5
t22.5 24t11.5 30.5t3.5 29v174q0 12 -3 27.5t-11 29.5t-21.5 24t-34.5 11h-22v282z" />
    <glyph glyph-name="guilsinglleft" unicode="&#x2039;" horiz-adv-x="537" 
d="M193 187l-168 403l168 404h315l-180 -404l180 -403h-315z" />
    <glyph glyph-name="guillemotright" unicode="&#xbb;" horiz-adv-x="1010" 
d="M341.979 187l167.989 403l-167.989 404h-314.981l179.989 -404l-179.989 -403h314.981zM816.95 187l167.989 403l-167.989 404h-314.98l179.988 -404l-179.988 -403h314.98z" />
    <glyph glyph-name="logicalnot" unicode="&#xac;" horiz-adv-x="836" 
d="M483 563h-411v281h692v-488h-281v207z" />
    <glyph glyph-name="ellipsis" unicode="&#x2026;" horiz-adv-x="1419" 
d="M51 145q0 90 44 130t138 40q96 0 140.5 -40t44.5 -130q0 -88 -44.5 -128t-140.5 -40q-94 0 -138 40t-44 128zM524 145q0 90 44.5 130t138.5 40q96 0 140 -40t44 -130q0 -88 -44 -128t-140 -40q-94 0 -138.5 40t-44.5 128zM997 145q0 90 44.5 130t138.5 40q96 0 140 -40
t44 -130q0 -88 -44 -128t-140 -40q-94 0 -138.5 40t-44.5 128z" />
    <glyph glyph-name="Lambda" unicode="&#x39b;" horiz-adv-x="889" 
d="M448 1027l-116 -1027h-331l215 1522h462l210 -1522h-332z" />
    <glyph glyph-name="Csmall" unicode="&#xf763;" horiz-adv-x="911" 
d="M527 406h314v-25q0 -91 -18 -165.5t-62 -127.5t-117 -82t-184 -29t-185.5 29t-120 82t-65 127.5t-19.5 165.5v442q0 91 19 165.5t63.5 127.5t118.5 82t185 29q110 0 184 -29t118.5 -82t63.5 -127.5t19 -165.5v-26h-314v32q0 13 -3 29t-10.5 29.5t-21.5 23t-36 9.5
q-23 0 -36 -9t-20.5 -22.5t-9.5 -29t-2 -28.5v-456q0 -13 2 -28.5t9.5 -28.5t20.5 -22t36 -9q22 0 36 9t21.5 22.5t10.5 29.5t3 29v29z" />
    <glyph glyph-name="cacute" unicode="&#x107;" horiz-adv-x="911" 
d="M759 1582l-200 -294h-225l132 294h293zM527 406h314v-25q0 -91 -18 -165.5t-62 -127.5t-117 -82t-184 -29t-185.5 29t-120 82t-65 127.5t-19.5 165.5v442q0 91 19 165.5t63.5 127.5t118.5 82t185 29q110 0 184 -29t118.5 -82t63.5 -127.5t19 -165.5v-26h-314v32
q0 13 -3 29t-10.5 29.5t-21.5 23t-36 9.5q-23 0 -36 -9t-20.5 -22.5t-9.5 -29t-2 -28.5v-456q0 -13 2 -28.5t9.5 -28.5t20.5 -22t36 -9q22 0 36 9t21.5 22.5t10.5 29.5t3 29v29z" />
    <glyph glyph-name="Alpha" unicode="&#x391;" horiz-adv-x="944" 
d="M241 1523h421l232 -1523h-326l-23 199h-188l-22 -199h-326zM391 496h121l-61 541z" />
    <glyph glyph-name="afii10017" unicode="&#x410;" horiz-adv-x="944" 
d="M241 1523h421l232 -1523h-326l-23 199h-188l-22 -199h-326zM391 496h121l-61 541z" />
    <glyph glyph-name="ccedilla" unicode="&#xe7;" horiz-adv-x="911" 
d="M268 -283q19 -11 36.5 -20.5t38.5 -17t48 -11.5t63 -4q38 0 65.5 15t27.5 50q0 15 -9.5 25t-24.5 16.5t-34.5 9.5t-39.5 3t-39 -2.5t-33 -7.5l2 272h149v-125q11 2 22 5q10 2 23 4t29 2q45 0 79.5 -16.5t57 -42.5t34 -60t11.5 -68q0 -54 -22 -95.5t-62.5 -69.5t-98 -42.5
t-128.5 -14.5q-41 0 -77 8t-66.5 20.5t-54.5 28t-41 30.5zM527 406h314v-25q0 -91 -18 -165.5t-62 -127.5t-117 -82t-184 -29t-185.5 29t-120 82t-65 127.5t-19.5 165.5v442q0 91 19 165.5t63.5 127.5t118.5 82t185 29q110 0 184 -29t118.5 -82t63.5 -127.5t19 -165.5v-26
h-314v32q0 13 -3 29t-10.5 29.5t-21.5 23t-36 9.5q-23 0 -36 -9t-20.5 -22.5t-9.5 -29t-2 -28.5v-456q0 -13 2 -28.5t9.5 -28.5t20.5 -22t36 -9q22 0 36 9t21.5 22.5t10.5 29.5t3 29v29z" />
    <glyph glyph-name="ccaron" unicode="&#x10d;" horiz-adv-x="911" 
d="M416 1528l38 -94l39 94h248l-139 -249h-295l-139 249h248zM527 406h314v-25q0 -91 -18 -165.5t-62 -127.5t-117 -82t-184 -29t-185.5 29t-120 82t-65 127.5t-19.5 165.5v442q0 91 19 165.5t63.5 127.5t118.5 82t185 29q110 0 184 -29t118.5 -82t63.5 -127.5t19 -165.5
v-26h-314v32q0 13 -3 29t-10.5 29.5t-21.5 23t-36 9.5q-23 0 -36 -9t-20.5 -22.5t-9.5 -29t-2 -28.5v-456q0 -13 2 -28.5t9.5 -28.5t20.5 -22t36 -9q22 0 36 9t21.5 22.5t10.5 29.5t3 29v29z" />
    <glyph glyph-name="cdotaccent" unicode="&#x10b;" horiz-adv-x="911" 
d="M272 1410q0 90 44 130t138 40q96 0 140.5 -40t44.5 -130q0 -88 -44.5 -128t-140.5 -40q-94 0 -138 40t-44 128zM527 406h314v-25q0 -91 -18 -165.5t-62 -127.5t-117 -82t-184 -29t-185.5 29t-120 82t-65 127.5t-19.5 165.5v442q0 91 19 165.5t63.5 127.5t118.5 82t185 29
q110 0 184 -29t118.5 -82t63.5 -127.5t19 -165.5v-26h-314v32q0 13 -3 29t-10.5 29.5t-21.5 23t-36 9.5q-23 0 -36 -9t-20.5 -22.5t-9.5 -29t-2 -28.5v-456q0 -13 2 -28.5t9.5 -28.5t20.5 -22t36 -9q22 0 36 9t21.5 22.5t10.5 29.5t3 29v29z" />
    <glyph glyph-name="dollar" unicode="$" horiz-adv-x="862" 
d="M823 365q0 -152 -58 -244t-182 -125v-118h-324v119q-123 33 -177.5 126.5t-54.5 251.5v92h323v-92q0 -38 16 -60t56 -22q46 0 61 21t15 55v12v34q0 25 -1.5 46.5t-8.5 40.5t-21 36.5t-39 34.5l-141 99q-86 60 -135 109.5t-73 100.5t-30 108.5t-6 131.5v33
q0 159 55.5 246.5t160.5 120.5v122h324v-114q59 -14 103 -43.5t73 -75t43.5 -109.5t14.5 -147v-88l-323 2v86q0 38 -12 57t-50 19q-35 0 -50 -19t-15 -57v-25q0 -19 3 -40.5t10.5 -42.5t20.5 -39.5t33 -30.5l119 -72q82 -50 134 -101.5t81.5 -108.5t41 -120.5t13.5 -138.5
v-71z" />
    <glyph glyph-name="a.end" horiz-adv-x="926" 
d="M516 0v90q-21 -52 -57 -82.5t-93 -30.5q-87 0 -145.5 29t-93.5 82t-49.5 127.5t-14.5 165.5v442q0 91 14 165.5t48 127.5t92 82t145 29q59 0 95.5 -32.5t58.5 -87.5v95h315v-1202h-315zM448 284q20 0 33 10.5t20.5 25.5t10.5 32.5t4 31.5v433q-1 14 -4 31.5t-10.5 32.5
t-20.5 25.5t-33 10.5q-22 0 -35.5 -9t-20.5 -22t-9.5 -28.5t-2.5 -28.5v-456q0 -13 2.5 -28.5t9.5 -29t20.5 -22.5t35.5 -9z" />
    <glyph glyph-name="kgreenlandic" unicode="&#x138;" horiz-adv-x="927" 
d="M400 1201v-435h57l119 436h319l-192 -602l217 -600h-350l-119 451h-51v-451h-316v1201h316z" />
    <glyph glyph-name="Ksmall" unicode="&#xf76b;" horiz-adv-x="927" 
d="M400 1201v-435h57l119 436h319l-192 -602l217 -600h-350l-119 451h-51v-451h-316v1201h316z" />
    <glyph glyph-name="Vsmall" unicode="&#xf776;" horiz-adv-x="903" 
d="M894 1204l-232 -1204h-421l-232 1204h326l116 -820l117 820h326z" />
    <glyph glyph-name="Asmall" unicode="&#xf761;" horiz-adv-x="905" 
d="M895 0h-326l-17 130h-200l-16 -130h-326l192 1204h501zM387 407h131l-62 490h-8z" />
    <glyph glyph-name="mu" unicode="&#xb5;" horiz-adv-x="926" 
d="M862 1202v-822q0 -90 -14.5 -164.5t-49.5 -127.5t-93 -82t-146 -29q-57 0 -93 32.5t-56 87.5v-462h-316v1567h316v-809q0 -13 2 -31.5t9 -36t20.5 -29.5t35.5 -12t35.5 9t21 22t9.5 28.5t2 28.5v830h317z" />
    <glyph glyph-name="Beta" unicode="&#x392;" horiz-adv-x="978" 
d="M579 567q0 18 -3 33t-11.5 26.5t-23.5 18t-38 6.5h-79v-336h79q23 0 38 6t23.5 15.5t11.5 22.5t3 28v180zM569 1139q-2 46 -19.5 65t-60.5 19h-65v-277h47q30 0 49.5 5t31 17.5t16 32.5t3.5 50zM903 393q0 -104 -25.5 -178t-75.5 -122t-124 -70.5t-171 -22.5h-407v1522
h399q109 0 184.5 -27t122.5 -74.5t68 -112t21 -140.5v-83q0 -122 -30.5 -186t-90.5 -86q62 -20 95.5 -82t33.5 -164v-174z" />
    <glyph glyph-name="Epsilon" unicode="&#x395;" horiz-adv-x="885" 
d="M100 0v1522h700v-316h-376v-280h307v-316h-307v-295h376v-315h-700z" />
    <glyph glyph-name="Osmall" unicode="&#xf76f;" horiz-adv-x="911" 
d="M70 823q0 91 19 165.5t63.5 127.5t118.5 82t185 29q110 0 184 -29t118.5 -82t63.5 -127.5t19 -165.5v-442q0 -91 -18 -165.5t-62 -127.5t-117 -82t-184 -29t-185.5 29t-120 82t-65 127.5t-19.5 165.5v442zM456 920q-23 0 -36 -9t-20.5 -22.5t-9.5 -29t-2 -28.5v-456
q0 -13 2 -28.5t9.5 -28.5t20.5 -22t36 -9q22 0 35.5 9t20.5 22t9 28.5t2 28.5v456q0 13 -2 28.5t-9 29t-20.5 22.5t-35.5 9z" />
    <glyph glyph-name="afii10019" unicode="&#x412;" horiz-adv-x="978" 
d="M579 567q0 18 -3 33t-11.5 26.5t-23.5 18t-38 6.5h-79v-336h79q23 0 38 6t23.5 15.5t11.5 22.5t3 28v180zM569 1139q-2 46 -19.5 65t-60.5 19h-65v-277h47q30 0 49.5 5t31 17.5t16 32.5t3.5 50zM903 393q0 -104 -25.5 -178t-75.5 -122t-124 -70.5t-171 -22.5h-407v1522
h399q109 0 184.5 -27t122.5 -74.5t68 -112t21 -140.5v-83q0 -122 -30.5 -186t-90.5 -86q62 -20 95.5 -82t33.5 -164v-174z" />
    <glyph glyph-name="Gamma" unicode="&#x393;" horiz-adv-x="782" 
d="M406 1212v-1212h-324v1528h700v-316h-376z" />
    <glyph glyph-name="Zeta" unicode="&#x396;" horiz-adv-x="840" 
d="M60 0v293l348 913h-336v316h704v-269l-360 -938h364v-315h-720z" />
    <glyph glyph-name="Eta" unicode="&#x397;" horiz-adv-x="1030" 
d="M100 0v1522h324v-596h182v596h324v-1522h-324v610h-182v-610h-324z" />
    <glyph glyph-name="Iota" unicode="&#x399;" horiz-adv-x="524" 
d="M100 0v1522h324v-1522h-324z" />
    <glyph glyph-name="Kappa" unicode="&#x39a;" horiz-adv-x="990" 
d="M100 0v1522h324v-596h51l164 596h344l-215 -739l227 -783h-344l-166 608l1 2h-62v-610h-324z" />
    <glyph glyph-name="Mu" unicode="&#x39c;" horiz-adv-x="1283" 
d="M398 776l26 -776h-324v1522h397l146 -739l146 739h394v-1522h-324l25 757l-111 -601h-260z" />
    <glyph glyph-name="Omicron" unicode="&#x39f;" horiz-adv-x="911" 
d="M70 1139q0 90 20 165t66.5 129t121.5 83.5t186 29.5t186 -29.5t121.5 -83.5t66.5 -129t20 -166v-754q0 -90 -20 -165t-66.5 -129t-121.5 -83.5t-186 -29.5t-186 29.5t-121.5 83.5t-66.5 129t-20 166v754zM464 293q1 0 1.5 -0.5t1.5 -0.5q21 1 34.5 10.5t20.5 23t9.5 29.5
t2.5 29v754q0 13 -2.5 29t-10 30t-21.5 23.5t-36 9.5q-3 0 -4 1q-21 -1 -34 -11t-20 -23.5t-9.5 -29t-2.5 -28.5v-754q0 -13 2.5 -29t10 -30t21 -23.5t36.5 -9.5z" />
    <glyph glyph-name="Rho" unicode="&#x3a1;" horiz-adv-x="946" 
d="M865 865q0 -113 -28.5 -189t-81 -122.5t-126 -66t-163.5 -19.5h-59v-468h-324v1522h381q90 0 163.5 -20t126.5 -65.5t82 -119.5t29 -182v-270zM540 1135q0 35 -16.5 53t-59.5 18h-57v-425h53q46 0 63 20.5t17 63.5v270z" />
    <glyph glyph-name="Tau" unicode="&#x3a4;" horiz-adv-x="800" 
d="M563 1206v-1206h-326v1206h-227v316h780v-316h-227z" />
    <glyph glyph-name="Upsilon" unicode="&#x3a5;" horiz-adv-x="935" 
d="M638 518v-518h-323v518l-309 1004h356l117 -564l135 564h315z" />
    <glyph glyph-name="Chi" unicode="&#x3a7;" horiz-adv-x="976" 
d="M619 0l-137 459l-123 -459h-358l272 786l-248 736h356l113 -404l111 404h354l-256 -736l274 -786h-358z" />
    <glyph glyph-name="Pi" unicode="&#x3a0;" horiz-adv-x="993" 
d="M82 0v1522h830v-1522h-324v1206h-182v-1206h-324z" />
    <glyph glyph-name="Xi" unicode="&#x39e;" horiz-adv-x="852" 
d="M70 1526h710v-314h-710v314zM137 926h574v-316h-574v316zM68 315h712v-315h-710z" />
    <glyph glyph-name="registered" unicode="&#xae;" horiz-adv-x="1580" 
d="M1493 504q0 -210 -48 -350.5t-138 -224.5t-219.5 -119t-292.5 -35q-164 0 -293.5 35t-219.5 120t-138 226.5t-48 354.5v336q0 208 47.5 347.5t137.5 223t219.5 118.5t293.5 35q163 0 292.5 -35t220 -119.5t138.5 -225.5t48 -352v-335zM795 20q129 0 213.5 31.5t134 92
t69 149.5t19.5 203v350q0 116 -19.5 205.5t-69 150.5t-134 92.5t-214.5 31.5q-128 0 -212.5 -31.5t-134.5 -91.5t-70 -148t-20 -200v-351q0 -117 20 -207.5t69.5 -152t134 -93t214.5 -31.5zM463 147v1056h336q165 0 251 -79.5t86 -254.5v-53q0 -75 -31.5 -134.5
t-80.5 -103.5q24 -17 41.5 -34t28.5 -40t16 -56t5 -82l-1 -219h-272l-4 212q-1 36 -5.5 58t-12.5 35t-18.5 18t-22.5 6h-11h-28v-329h-277zM860 873q0 24 -12.5 42.5t-52.5 18.5h-55v-189h55q40 0 52.5 20.5t12.5 50.5v57z" />
    <glyph glyph-name="Xsmall" unicode="&#xf778;" horiz-adv-x="860" 
d="M525 0l-102 324l-111 -324h-307l227 625l-215 577h332l86 -295l101 295h307l-215 -577l227 -625h-330z" />
    <glyph glyph-name="Rsmall" unicode="&#xf772;" horiz-adv-x="912" 
d="M85 0v1202h382q94 0 166 -22t120.5 -68t73 -118t24.5 -172v-60q0 -85 -35.5 -153t-92.5 -118q27 -19 44 -35.5t27.5 -41.5t17.5 -63t15 -101l10 -89q4 -34 9 -57.5t11.5 -41t13.5 -32t16 -30.5h-325q-1 3 -6 14.5t-11 31t-13 46.5t-11 60l-12 90q-6 42 -12.5 68t-15 40
t-19.5 19t-25 6h-5h-32v-375h-315zM537 826q0 28 -14.5 49t-59.5 21h-63v-215h63q45 0 59.5 23t14.5 58v64z" />
    <glyph glyph-name="ordfeminine" unicode="&#xaa;" horiz-adv-x="812" 
d="M452 771v86q-23 -57 -57 -83.5t-72 -26.5q-86 0 -138 22t-79.5 67.5t-36 114.5t-8.5 164v67q0 93 9.5 161.5t38 113.5t80 67t134.5 22q38 0 72 -26.5t57 -83.5v86h273v-751h-273zM114 686h600v-250h-600v250zM393 999q11 0 21 3t17.5 13.5t12 31.5t4.5 56v88
q0 35 -4.5 56t-12 31.5t-17.5 13.5t-21 3q-12 0 -22.5 -3t-18.5 -13.5t-13 -31.5t-5 -56v-88q0 -35 5 -56t13 -31.5t18.5 -13.5t22.5 -3z" />
    <glyph glyph-name="zeroinferior" unicode="&#x2080;" horiz-adv-x="744" 
d="M53 282q0 93 15 161.5t51.5 113.5t98.5 67t157 22q94 0 155 -22t97 -67t50.5 -113.5t14.5 -161.5v-314q0 -95 -14.5 -164t-50.5 -114.5t-97 -67.5t-155 -22q-95 0 -157 22t-98.5 67.5t-51.5 114.5t-15 164v314zM375 -148q11 0 19.5 3t14 13.5t8.5 31.5t3 56v336
q0 35 -3 56t-8.5 31.5t-14 13.5t-19.5 3q-12 0 -21 -3t-15 -13.5t-9.5 -31.5t-3.5 -56v-336q0 -35 3.5 -56t9.5 -31.5t15 -13.5t21 -3z" />
    <glyph glyph-name="Delta" unicode="&#x394;" horiz-adv-x="944" 
d="M15 0l215 1522h462l210 -1522h-887zM381 316h156l-75 711z" />
    <glyph glyph-name="Bsmall" unicode="&#xf762;" horiz-adv-x="916" 
d="M442 1202q94 0 167.5 -21.5t123.5 -67t76.5 -115.5t26.5 -166v-7q0 -75 -27 -126.5t-72 -85.5q49 -35 79 -90t30 -136v-7q0 -100 -24.5 -172t-73 -118t-120.5 -68t-166 -22h-382v1202h362zM532 387q0 35 -16 58t-58 23h-63v-162h63q41 0 57.5 21t16.5 49v11zM512 836
q0 28 -18 44t-56 16h-43v-142h43q24 0 39 4.5t22.5 13.5t10 22.5t2.5 30.5v11z" />
    <glyph glyph-name="Psmall" unicode="&#xf770;" horiz-adv-x="891" 
d="M537 826q0 28 -14.5 49t-59.5 21h-63v-255h63q45 0 59.5 23t14.5 58v104zM85 0v1202h382q94 0 166 -22t120.5 -68t73 -118t24.5 -172v-100q0 -83 -19 -143.5t-50.5 -103.5t-74 -70.5t-89 -43t-94.5 -21t-92 -5.5h-32v-335h-315z" />
    <glyph glyph-name="afii10067" unicode="&#x432;" horiz-adv-x="916" 
d="M442 1202q94 0 167.5 -21.5t123.5 -67t76.5 -115.5t26.5 -166v-7q0 -75 -27 -126.5t-72 -85.5q49 -35 79 -90t30 -136v-7q0 -100 -24.5 -172t-73 -118t-120.5 -68t-166 -22h-382v1202h362zM532 387q0 35 -16 58t-58 23h-63v-162h63q41 0 57.5 21t16.5 49v11zM512 836
q0 28 -18 44t-56 16h-43v-142h43q24 0 39 4.5t22.5 13.5t10 22.5t2.5 30.5v11z" />
    <glyph glyph-name="commaaccent" unicode="&#xf6c3;" horiz-adv-x="354" 
d="M31 -182q0 71 35.5 99.5t109.5 28.5q78 0 113 -40t35 -115q0 -63 -10 -111t-27 -85.5t-39 -65.5t-45 -49l-111 65q19 22 31 39.5t20 34t12.5 34t7.5 39.5q-68 0 -100 30t-32 96z" />
    <glyph glyph-name="Kcommaaccent" unicode="&#x136;" horiz-adv-x="990" 
d="M100 0v1522h324v-596h51l164 596h344l-215 -739l227 -783h-344l-166 608l1 2h-62v-610h-324zM394 -182q0 71 35.5 99.5t109.5 28.5q78 0 113 -40t35 -115q0 -63 -10 -111t-27 -85.5t-39 -65.5t-45 -49l-111 65q19 22 31 39.5t20 34t12.5 34t7.5 39.5q-68 0 -100 30
t-32 96z" />
    <glyph glyph-name="Lcommaaccent" unicode="&#x13b;" horiz-adv-x="788" 
d="M100 0v1522h324v-1211h354v-311h-678zM298 -182q0 71 35.5 99.5t109.5 28.5q78 0 113 -40t35 -115q0 -63 -10 -111t-27 -85.5t-39 -65.5t-45 -49l-111 65q19 22 31 39.5t20 34t12.5 34t7.5 39.5q-68 0 -100 30t-32 96z" />
    <glyph glyph-name="daggerdbl" unicode="&#x2021;" horiz-adv-x="791" 
d="M238 283v532h-238v312h238v399h317v-399h236v-312h-236v-532h236v-312h-236v-399h-317v399h-238v312h238z" />
    <glyph glyph-name="Theta" unicode="&#x398;" horiz-adv-x="928" 
d="M70 1139q0 90 20 165t66.5 129t121.5 83.5t186 29.5t186 -29.5t121.5 -83.5t66.5 -129t20 -166v-754q0 -90 -20 -165t-66.5 -129t-121.5 -83.5t-186 -29.5t-186 29.5t-121.5 83.5t-66.5 129t-20 166v754zM394 916h140v222q0 13 -2.5 29t-10 30t-21.5 23.5t-36 9.5
q-3 0 -4 1q-21 -1 -34 -11t-20 -23.5t-9.5 -29t-2.5 -28.5v-223zM464 293q1 0 1.5 -0.5t1.5 -0.5q21 1 34.5 10.5t20.5 23t9.5 29.5t2.5 29v216h-140v-215q0 -13 2.5 -29t10 -30t21 -23.5t36.5 -9.5z" />
    <glyph glyph-name="Tsmall" unicode="&#xf774;" horiz-adv-x="750" 
d="M534 894v-895h-315v895h-209v308h730v-308h-206z" />
    <glyph glyph-name="Ssmall" unicode="&#xf773;" horiz-adv-x="854" 
d="M805 381q0 -92 -17.5 -167t-60.5 -127.5t-115.5 -81t-183.5 -28.5q-114 0 -189 29.5t-119.5 85t-62.5 135t-18 179.5h318q0 -57 13 -88t54 -31q15 0 24 5.5t14 13.5t7 16.5t2 13.5q0 33 -31 61t-77.5 57.5t-100.5 63.5t-100.5 77.5t-77.5 100.5t-31 133q0 99 17.5 173.5
t61 124.5t116.5 75t184 25q76 0 142.5 -14t116 -57.5t78 -124t28.5 -214.5l-318 2v27t-4 33.5t-14 28.5t-29 12q-21 0 -32.5 -6t-17 -14t-6.5 -16.5t-1 -13.5q0 -27 32 -52.5t79.5 -54t103.5 -63t103.5 -79.5t79.5 -104t32 -136z" />
    <glyph glyph-name="Ismall" unicode="&#xf769;" horiz-adv-x="487" 
d="M85 0v1202h317v-1202h-317z" />
    <glyph glyph-name="Zsmall" unicode="&#xf77a;" horiz-adv-x="804" 
d="M41 0v270l342 637h-314v295h666v-268l-338 -629h340v-305h-696z" />
    <glyph glyph-name="Iotadieresis" unicode="&#x3aa;" horiz-adv-x="524" 
d="M100 0v1522h324v-1522h-324zM-36 1745q0 78 33 112t105 34t106 -34t34 -112q0 -75 -34 -109.5t-106 -34.5t-105 34.5t-33 109.5zM281 1745q0 78 33.5 112t104.5 34q73 0 106.5 -34t33.5 -112q0 -75 -33.5 -109.5t-106.5 -34.5q-71 0 -104.5 34.5t-33.5 109.5z" />
    <glyph glyph-name="Etatonos" unicode="&#x389;" horiz-adv-x="1030" 
d="M100 0v1522h324v-596h182v596h324v-1522h-324v610h-182v-610h-324zM74 1519l-38 -294h-195l-30 294h263z" />
    <glyph glyph-name="Iotatonos" unicode="&#x38a;" horiz-adv-x="524" 
d="M100 0v1522h324v-1522h-324zM407 1892l-38 -294h-195l-30 294h263z" />
    <glyph glyph-name="Epsilontonos" unicode="&#x388;" horiz-adv-x="885" 
d="M100 0v1522h700v-316h-376v-280h307v-316h-307v-295h376v-315h-700zM66 1525l-38 -294h-195l-30 294h263z" />
    <glyph glyph-name="Alphatonos" unicode="&#x386;" horiz-adv-x="944" 
d="M241 1523h421l232 -1523h-326l-23 199h-188l-22 -199h-326zM391 496h121l-61 541zM173 1523l-38 -294h-195l-30 294h263z" />
    <glyph glyph-name="Phi" unicode="&#x3a6;" horiz-adv-x="1252" 
d="M464 0v117q-111 0 -186 29.5t-121.5 83.5t-66.5 129t-20 166v474q0 90 20 165t66.5 129t121.5 83.5t186 29.5v116h324v-116q111 0 186 -29.5t121.5 -83.5t66.5 -129t20 -166v-474q0 -90 -20 -165t-66.5 -129t-121.5 -83.5t-186 -29.5v-117h-324zM788 432q22 0 36 9.5
t21.5 23.5t10 30t2.5 29v474q0 13 -2.5 29t-10 30t-21.5 23.5t-36 9.5v-658zM464 1091q-23 0 -36.5 -9.5t-21 -23.5t-10 -30t-2.5 -29v-474q0 -13 2.5 -29t10 -30t21 -23.5t36.5 -9.5v658z" />
    <glyph glyph-name="Upsilondieresis" unicode="&#x3ab;" horiz-adv-x="935" 
d="M638 518v-518h-323v518l-309 1004h356l117 -564l135 564h315zM181 1745q0 78 33 112t105 34t106 -34t34 -112q0 -75 -34 -109.5t-106 -34.5t-105 34.5t-33 109.5zM498 1745q0 78 33.5 112t104.5 34q73 0 106.5 -34t33.5 -112q0 -75 -33.5 -109.5t-106.5 -34.5
q-71 0 -104.5 34.5t-33.5 109.5z" />
    <glyph glyph-name="Upsilontonos" unicode="&#x38e;" horiz-adv-x="1260" 
d="M973 518v-518h-323v518l-309 1004h356l117 -564l135 564h315zM264 1572l-38 -294h-195l-30 294h263z" />
    <glyph glyph-name="Sigma" unicode="&#x3a3;" horiz-adv-x="766" 
d="M593 701l-214 -386h364v-315h-720v293l235 469l-225 467v293h700v-315h-344l204 -386v-120z" />
    <glyph glyph-name="afii10020" unicode="&#x413;" horiz-adv-x="864" 
d="M406 1212v-1212h-324v1528h700v-316h-376z" />
    <glyph glyph-name="lira" unicode="&#x20a4;" horiz-adv-x="838" 
d="M1 895h82q-28 78 -47.5 157.5t-19.5 168.5q0 72 18.5 135.5t63.5 111t120.5 75.5t189.5 28q109 0 183.5 -32.5t119.5 -95.5t64.5 -155t19.5 -212q0 -29 -1 -59t-3 -62l-317 -2q-2 10 -2 27.5t1.5 39.5t3 47t1.5 50q0 28 -3 54t-10.5 46t-22 32t-36.5 12
q-35 0 -50.5 -24.5t-15.5 -93.5q0 -53 19.5 -114.5t46.5 -133.5h290v-236h-210q3 -11 6 -21.5t5 -21.5h199v-236h-188q-14 -35 -38.5 -56.5t-47.5 -24.5q17 -1 38 -3l42 -4t40.5 -3.5t32.5 -1.5q19 0 37 1t36.5 6.5t37 16.5t37.5 31l113 -262q-44 -54 -96.5 -76t-114.5 -22
q-40 0 -92.5 4t-107.5 8.5t-109 8.5t-97 4q-32 0 -70 -3t-72 -7q-40 -4 -79 -9v303q92 11 137.5 32.5t59.5 56.5h-194v236h177q-2 11 -5.5 21.5t-6.5 21.5h-165v236z" />
    <glyph glyph-name="Omega" unicode="&#x3a9;" horiz-adv-x="929" 
d="M87 0v311h84l-3 80q-56 54 -76.5 137t-20.5 187v424q0 90 20 165t66.5 129t121.5 83.5t186 29.5t186 -29.5t121.5 -83.5t66.5 -129t20 -166v-424q0 -104 -20.5 -186.5t-76.5 -136.5l-3 -80h84v-311h-348v622q15 0 23 9.5t12 23.5t4.5 30t0.5 29v424q0 13 -2.5 29t-10 30
t-21.5 23.5t-36 9.5q-3 0 -4 1q-21 -1 -34 -11t-20 -23.5t-9.5 -29t-2.5 -28.5v-424q0 -13 0.5 -29t4.5 -30.5t12 -24t23 -9.5v-622h-348z" />
    <glyph glyph-name="Psi" unicode="&#x3a8;" horiz-adv-x="1253" 
d="M465 0v412q-111 0 -186 29.5t-121.5 83.5t-66.5 129t-20 166v704h324v-704q0 -13 2.5 -29t10 -30t21 -23.5t36.5 -9.5v794h324v-795q22 0 36 9.5t21.5 23.5t10 30t2.5 29v704h324v-704q0 -90 -20 -165t-66.5 -129t-121.5 -83.5t-186 -29.5v-412h-324z" />
    <glyph glyph-name="Omicrontonos" unicode="&#x38c;" horiz-adv-x="911" 
d="M70 1139q0 90 20 165t66.5 129t121.5 83.5t186 29.5t186 -29.5t121.5 -83.5t66.5 -129t20 -166v-754q0 -90 -20 -165t-66.5 -129t-121.5 -83.5t-186 -29.5t-186 29.5t-121.5 83.5t-66.5 129t-20 166v754zM464 293q1 0 1.5 -0.5t1.5 -0.5q21 1 34.5 10.5t20.5 23t9.5 29.5
t2.5 29v754q0 13 -2.5 29t-10 30t-21.5 23.5t-36 9.5q-3 0 -4 1q-21 -1 -34 -11t-20 -23.5t-9.5 -29t-2.5 -28.5v-754q0 -13 2.5 -29t10 -30t21 -23.5t36.5 -9.5zM82 1598l-38 -294h-195l-30 294h263z" />
    <glyph glyph-name="afii10022" unicode="&#x415;" horiz-adv-x="885" 
d="M100 0v1522h700v-316h-376v-280h307v-316h-307v-295h376v-315h-700z" />
    <glyph glyph-name="afii10025.001" horiz-adv-x="893" 
d="M836 418q0 -123 -24 -207.5t-73 -136t-122 -74.5t-170 -23q-84 0 -155 19.5t-123 65.5t-81.5 122.5t-29.5 190.5v104h324v-102q0 -45 17 -64.5t48 -19.5q29 0 47.5 19.5t18.5 66.5v149q0 45 -21 71t-69 28l-88 2v299l100 4q21 1 33.5 8t19.5 25t9.5 49.5t2.5 79.5v43v29
t-4.5 30.5t-16 24.5t-34.5 10q-15 0 -25 -7t-16 -17.5t-8 -23t-2 -22.5v-117h-324v99q0 106 24 182.5t71.5 125.5t119.5 72t168 23q192 0 281.5 -102.5t89.5 -319.5q0 -80 -7 -136.5t-23 -96t-41 -64.5t-62 -41q48 -19 76.5 -55t43.5 -84.5t20 -106.5t5 -122z" />
    <glyph glyph-name="afii10028" unicode="&#x41a;" horiz-adv-x="990" 
d="M100 0v1522h324v-596h51l164 596h344l-215 -739l227 -783h-344l-166 608l1 2h-62v-610h-324z" />
    <glyph glyph-name="afii10030" unicode="&#x41c;" horiz-adv-x="1283" 
d="M398 776l26 -776h-324v1522h397l146 -739l146 739h394v-1522h-324l25 757l-111 -601h-260z" />
    <glyph glyph-name="afii10031" unicode="&#x41d;" horiz-adv-x="1030" 
d="M100 0v1522h324v-596h182v596h324v-1522h-324v610h-182v-610h-324z" />
    <glyph glyph-name="afii10032" unicode="&#x41e;" horiz-adv-x="928" 
d="M70 1139q0 90 20 165t66.5 129t121.5 83.5t186 29.5t186 -29.5t121.5 -83.5t66.5 -129t20 -166v-754q0 -90 -20 -165t-66.5 -129t-121.5 -83.5t-186 -29.5t-186 29.5t-121.5 83.5t-66.5 129t-20 166v754zM464 293q1 0 1.5 -0.5t1.5 -0.5q21 1 34.5 10.5t20.5 23t9.5 29.5
t2.5 29v754q0 13 -2.5 29t-10 30t-21.5 23.5t-36 9.5q-3 0 -4 1q-21 -1 -34 -11t-20 -23.5t-9.5 -29t-2.5 -28.5v-754q0 -13 2.5 -29t10 -30t21 -23.5t36.5 -9.5z" />
    <glyph glyph-name="afii10033" unicode="&#x41f;" horiz-adv-x="993" 
d="M82 0v1522h830v-1522h-324v1206h-182v-1206h-324z" />
    <glyph glyph-name="afii10034" unicode="&#x420;" horiz-adv-x="920" 
d="M865 865q0 -113 -28.5 -189t-81 -122.5t-126 -66t-163.5 -19.5h-59v-468h-324v1522h381q90 0 163.5 -20t126.5 -65.5t82 -119.5t29 -182v-270zM540 1135q0 35 -16.5 53t-59.5 18h-57v-425h53q46 0 63 20.5t17 63.5v270z" />
    <glyph glyph-name="afii10035" unicode="&#x421;" horiz-adv-x="932" 
d="M862 511v-132q0 -89 -20.5 -163t-66.5 -126.5t-121.5 -82t-184.5 -29.5v-1q-111 0 -186 29.5t-121.5 83.5t-66.5 129t-20 166v754q0 90 20 164.5t66 128.5t121 84t185 30l1 1q110 0 185.5 -29.5t122 -83t66.5 -128.5t20 -165v-128h-324v127q0 13 -2.5 29t-10 29.5t-21 23
t-35.5 9.5q-23 0 -36.5 -9.5t-21 -23.5t-10 -30t-2.5 -29v-754q0 -13 2.5 -29t10 -30t21 -23.5t36.5 -9.5q21 0 34.5 8.5t21 21.5t10.5 28.5t3 28.5v131h324z" />
    <glyph glyph-name="afii10036" unicode="&#x422;" horiz-adv-x="800" 
d="M563 1206v-1206h-326v1206h-227v316h780v-316h-227z" />
    <glyph glyph-name="afii10038" unicode="&#x424;" horiz-adv-x="1252" 
d="M464 0v117q-111 0 -186 29.5t-121.5 83.5t-66.5 129t-20 166v474q0 90 20 165t66.5 129t121.5 83.5t186 29.5v116h324v-116q111 0 186 -29.5t121.5 -83.5t66.5 -129t20 -166v-474q0 -90 -20 -165t-66.5 -129t-121.5 -83.5t-186 -29.5v-117h-324zM788 432q22 0 36 9.5
t21.5 23.5t10 30t2.5 29v474q0 13 -2.5 29t-10 30t-21.5 23.5t-36 9.5v-658zM464 1091q-23 0 -36.5 -9.5t-21 -23.5t-10 -30t-2.5 -29v-474q0 -13 2.5 -29t10 -30t21 -23.5t36.5 -9.5v658z" />
    <glyph glyph-name="afii10039" unicode="&#x425;" horiz-adv-x="977" 
d="M618 0l-137 459l-123 -459h-358l272 786l-248 736h356l113 -404l111 404h354l-256 -736l274 -786h-358z" />
    <glyph glyph-name="afii10023" unicode="&#x401;" horiz-adv-x="885" 
d="M100 0v1522h700v-316h-376v-280h307v-316h-307v-295h376v-315h-700zM142 1745q0 78 33 112t105 34t106 -34t34 -112q0 -75 -34 -109.5t-106 -34.5t-105 34.5t-33 109.5zM459 1745q0 78 33.5 112t104.5 34q73 0 106.5 -34t33.5 -112q0 -75 -33.5 -109.5t-106.5 -34.5
q-71 0 -104.5 34.5t-33.5 109.5z" />
    <glyph glyph-name="afii10054" unicode="&#x405;" horiz-adv-x="913" 
d="M829 365q0 -192 -96 -290t-301 -98q-107 0 -182.5 24t-123.5 73.5t-70.5 124t-22.5 176.5v136h323v-136q0 -38 16 -60t56 -22q46 0 61 21t15 55v12v34q0 25 -1.5 46.5t-8.5 40.5t-21 36.5t-39 34.5l-141 99q-86 60 -135 109.5t-73 100.5t-30 108.5t-6 131.5v33
q0 108 26 183t76 121t123 66.5t168 20.5q97 0 168.5 -21.5t118.5 -68t70.5 -121t23.5 -180.5v-142h-323v142q0 38 -12 57t-50 19q-35 0 -50 -19t-15 -57v-25q0 -19 3 -40.5t10.5 -42.5t20.5 -39.5t33 -30.5l119 -72q82 -50 134 -101.5t81.5 -108.5t41 -120.5t13.5 -138.5
v-71z" />
    <glyph glyph-name="omicron" unicode="&#x3bf;" horiz-adv-x="911" 
d="M70 823q0 91 19 165.5t63.5 127.5t118.5 82t185 29q110 0 184 -29t118.5 -82t63.5 -127.5t19 -165.5v-442q0 -91 -18 -165.5t-62 -127.5t-117 -82t-184 -29t-185.5 29t-120 82t-65 127.5t-19.5 165.5v442zM456 920q-23 0 -36 -9t-20.5 -22.5t-9.5 -29t-2 -28.5v-456
q0 -13 2 -28.5t9.5 -28.5t20.5 -22t36 -9q22 0 35.5 9t20.5 22t9 28.5t2 28.5v456q0 13 -2 28.5t-9 29t-20.5 22.5t-35.5 9z" />
    <glyph glyph-name="rho" unicode="&#x3c1;" horiz-adv-x="930" 
d="M85 -367v975h-2v215q0 91 19 165.5t63.5 127.5t118.5 82t185 29l1 -2q0 1 1 2q87 0 158 -29t121.5 -82t77.5 -127.5t27 -165.5v-442q0 -91 -14 -165.5t-48 -127.5t-92 -82t-145 -29q-60 0 -97 32.5t-58 89.5v-466h-316zM470 287q22 0 35.5 9t20.5 22t9.5 28.5t2.5 28.5
v456q0 13 -2.5 28.5t-9.5 29t-20.5 22.5t-35.5 9h-1q-23 0 -36 -9t-20.5 -22.5t-9.5 -29t-2 -28.5v-184h1v-252q0 -13 2.5 -31.5t9.5 -35.5t20.5 -29t35.5 -12z" />
    <glyph glyph-name="afii10024" unicode="&#x416;" horiz-adv-x="1467" 
d="M573 0v610h-63l2 -2l-166 -608h-344l226 783l-214 739h344l164 -596h51v596h324v-596h51l164 596h344l-215 -739l227 -783h-344l-166 608q0 1 0.5 1t0.5 1h-62v-610h-324z" />
    <glyph glyph-name="afii10049" unicode="&#x42f;" horiz-adv-x="932" 
d="M812.95 0v1522h-406.975q-96.9941 0 -170.99 -22.5q-73.9951 -22.5 -123.992 -70.5t-75.4951 -122.5q-25.499 -74.5 -25.499 -177.5v-178q0 -88 36.998 -158.5t94.9941 -121.5q-27.998 -20 -46.4971 -40.5t-29.998 -50t-17.999 -72.5t-10.499 -108l-12 -203
q-2.99902 -36 -9.49902 -64.5t-15.499 -52.5t-18.499 -43.5q-9.49902 -19.5 -18.499 -36.5h333.979q2 3 9.5 20q7.49902 17 16.499 42.5q8.99902 25.5 16.999 58q7.99902 32.5 9.99902 67.5l12.999 205q2 50 11.5 81.5q9.49902 31.5 23.498 48.5t31.998 23t36.998 5h21.998
v-551h323.98zM333.979 1133q0 15 3 28t11.499 23q8.5 10 23.499 16t37.9971 6h78.9951v-339h-78.9951q-45.9971 0 -60.9961 24t-14.999 60v182z" />
    <glyph glyph-name="afii10055" unicode="&#x406;" horiz-adv-x="524" 
d="M100 0v1522h324v-1522h-324z" />
    <glyph glyph-name="afii10056" unicode="&#x407;" horiz-adv-x="524" 
d="M100 0v1522h324v-1522h-324zM-35 1745q0 78 33 112t105 34t106 -34t34 -112q0 -75 -34 -109.5t-106 -34.5t-105 34.5t-33 109.5zM282 1745q0 78 33.5 112t104.5 34q73 0 106.5 -34t33.5 -112q0 -75 -33.5 -109.5t-106.5 -34.5q-71 0 -104.5 34.5t-33.5 109.5z" />
    <glyph glyph-name="afii10057" unicode="&#x408;" horiz-adv-x="710" 
d="M610 1522v-1153q0 -91 -21 -162.5t-68 -121.5t-123 -76.5t-187 -26.5q-63 0 -112.5 16t-88.5 47l86 279q10 -6 20 -11t23 -8.5t30.5 -5.5t41.5 -2q22 0 37 7.5t23.5 18.5t12 25t3.5 27v1147h323z" />
    <glyph glyph-name="afii10018" unicode="&#x411;" horiz-adv-x="978" 
d="M882 387q0 -108 -29 -182t-82 -119.5t-126.5 -65.5t-163.5 -20h-381v1522h678v-311h-354v-157h59q90 0 163.5 -19.5t126 -66t81 -122.5t28.5 -189v-270zM557 657q0 43 -17 63.5t-63 20.5h-53v-425h57q43 0 59.5 18t16.5 53v270z" />
    <glyph glyph-name="afii10046" unicode="&#x42c;" horiz-adv-x="946" 
d="M865 656.96q0 112.993 -28.5 188.988t-81 122.492q-52.5 46.498 -126 65.9961q-73.5 19.499 -163.5 19.499h-59v467.972h-324v-1521.91h381q90 0 163.5 19.999t126.5 65.4961t82 119.492q29 73.9961 29 181.989v269.983zM540 386.977q0 -34.998 -16.5 -52.9971
t-59.5 -17.999h-57v424.975h53q46 0 63 -20.499t17 -63.4961v-269.983z" />
    <glyph glyph-name="kappa" unicode="&#x3ba;" horiz-adv-x="918" 
d="M399 1201v-435h57l119 436h319l-192 -602l217 -600h-350l-119 451h-51v-451h-316v1201h316z" />
    <glyph glyph-name="nu" unicode="&#x3bd;" horiz-adv-x="903" 
d="M894 1204l-232 -1204h-421l-232 1204h326l116 -820l117 820h326z" />
    <glyph glyph-name="eta" unicode="&#x3b7;" horiz-adv-x="938" 
d="M536 -367v1197q0 13 -2 28.5t-9.5 28.5t-21 22t-35.5 9t-35.5 -12t-20.5 -29.5t-9 -36t-2 -31.5v-809h-316v1202h316v-97q13 25 34 47t45.5 38.5t52.5 25.5t57 9q81 0 132 -29t80.5 -82t40 -127.5t10.5 -164.5v-1189h-317z" />
    <glyph glyph-name="theta" unicode="&#x3b8;" horiz-adv-x="911" 
d="M70 385v754q0 90 18.5 165t62.5 129t117.5 83.5t184.5 29.5t184.5 -29.5t117.5 -83.5t62.5 -129t18.5 -165v-754q0 -91 -18.5 -166t-62.5 -129t-117.5 -83.5t-184.5 -29.5t-184.5 29.5t-117.5 83.5t-62.5 129t-18.5 166zM453 1231q-21 0 -32.5 -9.5t-17.5 -23.5t-7.5 -30
t-1.5 -29v-223h119v223q0 13 -1.5 29t-7.5 30t-18 23.5t-33 9.5zM453 293q21 0 33 9.5t18 23.5t7.5 30t1.5 29v215h-119v-215q0 -13 1.5 -29t7.5 -30t17.5 -23.5t32.5 -9.5z" />
    <glyph glyph-name="beta" unicode="&#x3b2;" horiz-adv-x="884" 
d="M836 418q0 -123 -24 -207.5t-73 -136t-122 -74.5t-170 -23h-21v316h21q29 0 47.5 19.5t18.5 66.5v149q0 45 -21 72t-69 27h-28l-1 38v-1031h-324v1509q0 106 22.5 182.5t68 125.5t116 72t166.5 23q192 0 281.5 -102.5t89.5 -319.5q0 -80 -5.5 -136.5t-19.5 -96
t-37.5 -64.5t-60.5 -41q48 -19 76.5 -55t43.5 -84.5t20 -106.5t5 -122zM394 932h31q21 0 33.5 7t19.5 25.5t9.5 50t2.5 79.5v43v29t-4.5 30.5t-16 24.5t-34.5 10q-15 0 -23.5 -7t-12.5 -17.5t-4.5 -23t-0.5 -22.5v-229z" />
    <glyph glyph-name="c" unicode="c" horiz-adv-x="911" 
d="M527 406h314v-25q0 -91 -18 -165.5t-62 -127.5t-117 -82t-184 -29t-185.5 29t-120 82t-65 127.5t-19.5 165.5v442q0 91 19 165.5t63.5 127.5t118.5 82t185 29q110 0 184 -29t118.5 -82t63.5 -127.5t19 -165.5v-26h-314v32q0 13 -3 29t-10.5 29.5t-21.5 23t-36 9.5
q-23 0 -36 -9t-20.5 -22.5t-9.5 -29t-2 -28.5v-456q0 -13 2 -28.5t9.5 -28.5t20.5 -22t36 -9q22 0 36 9t21.5 22.5t10.5 29.5t3 29v29z" />
    <glyph glyph-name="afii10029" unicode="&#x41b;" horiz-adv-x="995" 
d="M588 0v1206h-184v-821q0 -91 -21.5 -166t-69.5 -129t-124.5 -83.5t-187.5 -29.5v316q21 0 36 9.5t24.5 23.5t14.5 30t5 29v1139l312 -2h519v-1522h-324z" />
    <glyph glyph-name="afii10053" unicode="&#x404;" horiz-adv-x="928" 
d="M533 1013v127q0 13 -2.5 29t-10 29.5t-21 23t-35.5 9.5q-23 0 -36.5 -9.5t-21 -23.5t-10 -30t-2.5 -29v-213h326v-316h-326v-225q0 -13 2.5 -29t10 -30t21 -23.5t35.5 -9.5q21 0 35 8.5t21.5 21.5t10.5 28.5t3 28.5v131h324v-132q0 -89 -20.5 -163t-66.5 -126.5
t-121.5 -82t-184.5 -29.5v-1q-111 0 -186 29.5t-121.5 83.5t-66.5 129t-20 166v754q0 90 20 164.5t66 128.5t121 84t185 30l1 1q110 0 185.5 -29.5t122 -83t66.5 -128.5t20 -165v-128h-324z" />
    <glyph glyph-name="afii10047" unicode="&#x42d;" horiz-adv-x="928" 
d="M380.977 1013v127q0 13 2.5 29t9.99902 29.5q7.5 13.5 20.999 23t35.498 9.5q22.998 0 36.498 -9.5q13.499 -9.5 20.998 -23.5q7.5 -14 10 -30t2.5 -29v-213h-325.98v-316h325.98v-225q0 -13 -2.5 -29t-10 -30q-7.49902 -14 -20.998 -23.5q-13.5 -9.5 -35.498 -9.5
q-20.999 0 -34.998 8.5t-21.499 21.5q-7.49902 13 -10.499 28.5t-3 28.5v131h-323.98v-132q0 -89 20.499 -163t66.4961 -126.5t121.492 -82q75.4961 -29.5 184.489 -29.5v-1q110.993 0 185.988 29.5q74.9961 29.5 121.493 83.5t66.4951 129q19.999 75 19.999 166v754
q0 90 -19.999 164.5q-19.998 74.5 -65.9951 128.5t-120.993 84q-74.9951 30 -184.988 30l-1 1q-109.993 0 -185.489 -29.5q-75.4951 -29.5 -121.992 -83t-66.4961 -128.5t-19.999 -165v-128h323.98z" />
    <glyph glyph-name="afii10085" unicode="&#x443;" horiz-adv-x="887" 
d="M738 365l-53 -400q-12 -94 -47 -171.5t-83 -137t-104.5 -100t-113.5 -60.5l-136 228q28 11 58.5 26t58 42t48 69.5t28.5 109.5l47 394h297zM872 1204l-232 -1204h-421l-232 1204h326l116 -820l117 820h326z" />
    <glyph glyph-name="afii10048" unicode="&#x42e;" horiz-adv-x="1428" 
d="M81 0v1522h324v-606h155v223q0 90 20 165t66.5 129t121.5 83.5t186 29.5t186 -29.5t121.5 -83.5t66.5 -129t20 -166v-754q0 -90 -20 -165t-66.5 -129t-121.5 -83.5t-186 -29.5t-186 29.5t-121.5 83.5t-66.5 129t-20 166v215h-155v-600h-324zM954 293q1 0 1.5 -0.5
t1.5 -0.5q21 1 34.5 10.5t20.5 23t9.5 29.5t2.5 29v754q0 13 -2.5 29t-10 30t-21.5 23.5t-36 9.5q-3 0 -4 1q-21 -1 -34 -11t-20 -23.5t-9.5 -29t-2.5 -28.5v-754q0 -13 2.5 -29t10 -30t21 -23.5t36.5 -9.5z" />
    <glyph glyph-name="afii10040" unicode="&#x426;" horiz-adv-x="1054" 
d="M912 1522v-1206h147v-491h-324v175h-653v1522h324v-1206h182v1206h324z" />
    <glyph glyph-name="afii10070" unicode="&#x435;" horiz-adv-x="911" 
d="M841 406v-25q0 -91 -18 -165.5t-62 -127.5t-117 -82t-184 -29t-185.5 29t-120 82t-65 127.5t-19.5 165.5v442q0 91 19 165.5t63.5 127.5t118.5 82t185 29q110 0 184 -29t118.5 -82t63.5 -127.5t19 -165.5v-295l-457 -96v-55q0 -13 3 -29t10.5 -29.5t21.5 -22.5t37 -9
q22 0 36 9t21.5 22.5t10.5 29.5t3 29v29h314zM456 920q-23 0 -37 -9.5t-21.5 -23t-10.5 -29.5t-3 -29v-124l143 35v89q0 13 -3 29t-10.5 29.5t-21.5 23t-36 9.5z" />
    <glyph glyph-name="afii10071" unicode="&#x451;" horiz-adv-x="911" 
d="M841 406v-25q0 -91 -18 -165.5t-62 -127.5t-117 -82t-184 -29t-185.5 29t-120 82t-65 127.5t-19.5 165.5v442q0 91 19 165.5t63.5 127.5t118.5 82t185 29q110 0 184 -29t118.5 -82t63.5 -127.5t19 -165.5v-295l-457 -96v-55q0 -13 3 -29t10.5 -29.5t21.5 -22.5t37 -9
q22 0 36 9t21.5 22.5t10.5 29.5t3 29v29h314zM456 920q-23 0 -37 -9.5t-21.5 -23t-10.5 -29.5t-3 -29v-124l143 35v89q0 13 -3 29t-10.5 29.5t-21.5 23t-36 9.5zM158 1425q0 78 33 112t105 34t106 -34t34 -112q0 -75 -34 -109.5t-106 -34.5t-105 34.5t-33 109.5zM475 1425
q0 78 33.5 112t104.5 34q73 0 106.5 -34t33.5 -112q0 -75 -33.5 -109.5t-106.5 -34.5q-71 0 -104.5 34.5t-33.5 109.5z" />
    <glyph glyph-name="uni2206" unicode="&#x2206;" horiz-adv-x="889" 
d="M366 316h128l34 -316h-527l215 1522h462l210 -1522h-332l-109 1076z" />
    <glyph glyph-name="Ohm" unicode="&#x2126;" horiz-adv-x="913" 
d="M79 0v311h84l-3 80q-56 54 -76.5 137t-20.5 187v424q0 90 20 165t66.5 129t121.5 83.5t186 29.5t186 -29.5t121.5 -83.5t66.5 -129t20 -166v-424q0 -104 -20.5 -186.5t-76.5 -136.5l-3 -80h84v-311h-348v622q15 0 23 9.5t12 23.5t4.5 30t0.5 29v424q0 13 -2.5 29t-10 30
t-21.5 23.5t-36 9.5q-3 0 -4 1q-21 -1 -34 -11t-20 -23.5t-9.5 -29t-2.5 -28.5v-424q0 -13 0.5 -29t4.5 -30.5t12 -24t23 -9.5v-622h-348z" />
    <glyph glyph-name="summation" unicode="&#x2211;" horiz-adv-x="842" 
d="M631 701l-214 -386h364v-315h-720v293l235 469l-225 467v293h700v-315h-344l204 -386v-120z" />
    <glyph glyph-name="iota" unicode="&#x3b9;" horiz-adv-x="487" 
d="M58 1430q0 80 44.5 116.5t138.5 36.5q96 0 140 -36.5t44 -116.5q0 -79 -44 -115.5t-140 -36.5q-94 0 -138.5 36.5t-44.5 115.5zM85 0v1202h317v-1202h-317z" />
    <glyph glyph-name="afii10065" unicode="&#x430;" horiz-adv-x="931" 
d="M531 0v105q-23 -59 -61 -93.5t-99 -34.5q-87 0 -145.5 27.5t-93.5 78.5t-49.5 124t-14.5 164q0 93 14 157.5t48 105t92 59t145 18.5q54 0 93.5 -5t68.5 -11v136q0 13 -2 28.5t-9 29t-20.5 22.5t-35.5 9t-35.5 -9.5t-20.5 -23t-9.5 -29.5t-2.5 -29v-32h-316v26
q0 91 18.5 165.5t62.5 127.5t117.5 82t183.5 29q111 0 185 -29t118.5 -82t63.5 -127.5t19 -165.5v-823h-315zM453 284q22 0 36.5 12t23.5 29.5t12.5 36t3.5 31.5v38q-15 7 -39 13.5t-43 6.5q-21 0 -33.5 -7t-18.5 -19t-8 -28t-2 -34q0 -13 2.5 -27t9.5 -25.5t20.5 -19
t35.5 -7.5z" />
    <glyph glyph-name="a.alt" horiz-adv-x="926" 
d="M516 0v90q-21 -52 -57 -82.5t-93 -30.5q-87 0 -145.5 29t-93.5 82t-49.5 127.5t-14.5 165.5v442q0 91 14 165.5t48 127.5t92 82t145 29q59 0 95.5 -32.5t58.5 -87.5v95h315v-1202h-315zM448 284q20 0 33 10.5t20.5 25.5t10.5 32.5t4 31.5v371q0 5 0.5 16t0.5 25
q0 18 -2 39.5t-9.5 39.5t-21 30t-36.5 12q-22 0 -35.5 -9t-20.5 -22t-9.5 -28.5t-2.5 -28.5v-456q0 -13 2.5 -28.5t9.5 -29t20.5 -22.5t35.5 -9z" />
    <glyph glyph-name="alpha" unicode="&#x3b1;" horiz-adv-x="931" 
d="M532 0v90q-21 -52 -57 -82.5t-93 -30.5q-87 0 -145.5 29t-93.5 82t-49.5 127.5t-14.5 165.5v442q0 91 14 165.5t48 127.5t92 82t145 29q59 0 95.5 -32.5t58.5 -87.5v95h315v-1202h-315zM464 284q20 0 33 10.5t20.5 25.5t10.5 32.5t4 31.5v371q0 5 0.5 16t0.5 25
q0 18 -2 39.5t-9.5 39.5t-21 30t-36.5 12q-22 0 -35.5 -9t-20.5 -22t-9.5 -28.5t-2.5 -28.5v-456q0 -13 2.5 -28.5t9.5 -29t20.5 -22.5t35.5 -9z" />
    <glyph glyph-name="alphatonos" unicode="&#x3ac;" horiz-adv-x="931" 
d="M532 0v90q-21 -52 -57 -82.5t-93 -30.5q-87 0 -145.5 29t-93.5 82t-49.5 127.5t-14.5 165.5v442q0 91 14 165.5t48 127.5t92 82t145 29q59 0 95.5 -32.5t58.5 -87.5v95h315v-1202h-315zM464 284q20 0 33 10.5t20.5 25.5t10.5 32.5t4 31.5v371q0 5 0.5 16t0.5 25
q0 18 -2 39.5t-9.5 39.5t-21 30t-36.5 12q-22 0 -35.5 -9t-20.5 -22t-9.5 -28.5t-2.5 -28.5v-456q0 -13 2.5 -28.5t9.5 -29t20.5 -22.5t35.5 -9zM651 1572l-38 -294h-195l-30 294h263z" />
    <glyph glyph-name="parenleftsuperior" unicode="&#x207d;" horiz-adv-x="447" 
d="M418 751q-91 0 -153.5 22t-103 57t-62 79.5t-31.5 90t-11.5 87.5t-1.5 72v329q0 30 1.5 72t12 87.5t32 89.5t62 79.5t102.5 57t153 21.5h13v-236h-13q-36 0 -54.5 -20.5t-26.5 -47.5t-9 -53t-1 -36v-366q0 -9 1.5 -33.5t10 -50t27 -45t52.5 -19.5h13v-237h-13z" />
    <glyph glyph-name="parenrightsuperior" unicode="&#x207e;" horiz-adv-x="450" 
d="M61.9961 760q90.9941 0 153.491 22q62.4961 22 102.993 57q40.498 35 61.9961 79.5q21.499 44.5 31.498 90q10 45.5 11.5 87.5q1.49902 42 1.49902 72v329q0 30 -1.49902 72q-1.5 42 -12 87.5q-10.499 45.5 -31.998 89.5q-21.498 44 -61.9961 79.5
q-40.4971 35.5 -102.493 57q-61.9971 21.5 -152.991 21.5h-12.999v-236h12.999q35.998 0 54.4971 -20.5t26.498 -47.5q8 -27 8.99902 -53q1 -26 1 -36v-366q0 -9 -1.49902 -33.5q-1.5 -24.5 -10 -50q-8.49902 -25.5 -26.998 -45t-52.4971 -19.5h-12.999v-237h12.999z" />
    <glyph glyph-name="eng" unicode="&#x14b;" horiz-adv-x="938" 
d="M853 -1q0 -86 -13.5 -159t-49 -126t-97 -83t-156.5 -30q-43 0 -78 7t-64 18.5t-52.5 26.5t-42.5 30l16 260q11 -6 24.5 -13t32.5 -13.5t44.5 -10.5t60.5 -4q58 0 58 97v831q0 13 -2 28.5t-9.5 28.5t-21 22t-35.5 9t-35.5 -12t-20.5 -29.5t-9 -36t-2 -31.5v-809h-316v1202
h316v-97q20 55 56 87.5t93 32.5q88 0 146 -29t93 -82t49.5 -127.5t14.5 -164.5v-823v0z" />
    <glyph glyph-name="Eng" unicode="&#x14a;" horiz-adv-x="1030" 
d="M100 0v1522h356l158 -500v500h324v-1537q0 -98 -18.5 -175t-64 -131t-122.5 -82.5t-194 -28.5q-63 0 -112.5 16t-88.5 47l86 279q10 -6 20 -11t23 -8.5t30.5 -5.5t41.5 -2q22 0 37 7.5t23.5 18.5t12 25t3.5 27v39l-191 564v-564h-324z" />
    <glyph glyph-name="iacute" unicode="&#xed;" horiz-adv-x="487" 
d="M85 0v1202h317v-1202h-317zM557 1572l-200 -294h-225l132 294h293z" />
    <glyph glyph-name="afii61352" unicode="&#x2116;" horiz-adv-x="1888" 
d="M83 0v1522h356l158 -600v600h324v-1522h-324l-190 759v-759h-324zM1035 1137q0 91 19 165.5t63.5 127.5t118.5 82t185 29q110 0 184 -29t118.5 -82t63.5 -127.5t19 -165.5v-333q0 -91 -18 -165.5t-62 -127.5t-117 -82t-184 -29t-185.5 29t-120 82t-65 127.5t-19.5 165.5
v333zM1114 64v281h626v-281h-626zM1421 1234q-23 0 -36 -9t-20.5 -22.5t-9.5 -29t-2 -28.5v-347q0 -13 2 -28.5t9.5 -28.5t20.5 -22t36 -9q22 0 35.5 9t20.5 22t9 28.5t2 28.5v347q0 13 -2 28.5t-9 29t-20.5 22.5t-35.5 9z" />
    <glyph glyph-name="N" unicode="N" horiz-adv-x="1030" 
d="M100 0v1522h376l187 -676l-9 676h324v-1522h-344l-220 735l10 -735h-324z" />
    <glyph glyph-name="J" unicode="J" horiz-adv-x="710" 
d="M119 1522h491v-1153q0 -91 -21 -162.5t-68 -121.5t-123 -76.5t-187 -26.5q-63 0 -112.5 16t-88.5 47l86 279q10 -6 20 -11t23 -8.5t30.5 -5.5t41.5 -2q22 0 37 7.5t23.5 18.5t12 25t3.5 27v831h-168v316z" />
    <glyph glyph-name="Jcircumflex" unicode="&#x134;" horiz-adv-x="710" 
d="M119 1522h491v-1153q0 -91 -21 -162.5t-68 -121.5t-123 -76.5t-187 -26.5q-63 0 -112.5 16t-88.5 47l86 279q10 -6 20 -11t23 -8.5t30.5 -5.5t41.5 -2q22 0 37 7.5t23.5 18.5t12 25t3.5 27v831h-168v316zM77 1580l139 249h295l139 -249h-248l-39 94l-38 -94h-248z" />
    <glyph glyph-name="afii10076" unicode="&#x43a;" horiz-adv-x="916" 
d="M397 1201v-435h57l119 436h319l-192 -602l217 -600h-350l-119 451h-51v-451h-316v1201h316z" />
    <glyph glyph-name="o" unicode="o" horiz-adv-x="911" 
d="M70 823q0 91 19 165.5t63.5 127.5t118.5 82t185 29q110 0 184 -29t118.5 -82t63.5 -127.5t19 -165.5v-442q0 -91 -18 -165.5t-62 -127.5t-117 -82t-184 -29t-185.5 29t-120 82t-65 127.5t-19.5 165.5v442zM456 920q-23 0 -36 -9t-20.5 -22.5t-9.5 -29t-2 -28.5v-456
q0 -13 2 -28.5t9.5 -28.5t20.5 -22t36 -9q22 0 35.5 9t20.5 22t9 28.5t2 28.5v456q0 13 -2 28.5t-9 29t-20.5 22.5t-35.5 9z" />
    <glyph glyph-name="afii10096" unicode="&#x44e;" horiz-adv-x="1366" 
d="M82 0v1202h317v-484h149v-281h-149v-437h-317zM539 823q0 91 19 165.5t63.5 127.5t118.5 82t185 29q110 0 184 -29t118.5 -82t63.5 -127.5t19 -165.5v-442q0 -91 -18 -165.5t-62 -127.5t-117 -82t-184 -29t-185.5 29t-120 82t-65 127.5t-19.5 165.5v442zM925 920
q-23 0 -36 -9t-20.5 -22.5t-9.5 -29t-2 -28.5v-456q0 -13 2 -28.5t9.5 -28.5t20.5 -22t36 -9q22 0 35.5 9t20.5 22t9 28.5t2 28.5v456q0 13 -2 28.5t-9 29t-20.5 22.5t-35.5 9z" />
    <glyph glyph-name="afii10080" unicode="&#x43e;" horiz-adv-x="911" 
d="M70 823q0 91 19 165.5t63.5 127.5t118.5 82t185 29q110 0 184 -29t118.5 -82t63.5 -127.5t19 -165.5v-442q0 -91 -18 -165.5t-62 -127.5t-117 -82t-184 -29t-185.5 29t-120 82t-65 127.5t-19.5 165.5v442zM456 920q-23 0 -36 -9t-20.5 -22.5t-9.5 -29t-2 -28.5v-456
q0 -13 2 -28.5t9.5 -28.5t20.5 -22t36 -9q22 0 35.5 9t20.5 22t9 28.5t2 28.5v456q0 13 -2 28.5t-9 29t-20.5 22.5t-35.5 9z" />
    <glyph glyph-name="Pallino" horiz-adv-x="0" 
d="M593 -184q0 14 9 23t23 9t23.5 -9t9.5 -23t-9.5 -23.5t-23.5 -9.5t-23 9.5t-9 23.5z" />
    <glyph glyph-name="afii10068" unicode="&#x433;" horiz-adv-x="741" 
d="M82 0v1202h651v-315h-334v-887h-317z" />
    <glyph glyph-name="afii10082" unicode="&#x440;" horiz-adv-x="930" 
d="M85 -367v1569h316v-91q20 54 56.5 85t94.5 31q87 0 145.5 -29t93.5 -82t49.5 -127.5t14.5 -165.5v-442q0 -91 -14 -165.5t-48 -127.5t-92 -82t-145 -29q-60 0 -97 32.5t-58 89.5v-466h-316zM470 920q-22 0 -35.5 -12t-20.5 -29.5t-9.5 -36t-2.5 -31.5v-416
q0 -13 2.5 -31.5t9.5 -35.5t20.5 -29t35.5 -12t35.5 9t20.5 22t9.5 28.5t2.5 28.5v456q0 13 -2.5 28.5t-9.5 29t-20.5 22.5t-35.5 9z" />
    <glyph glyph-name="afii10074" unicode="&#x438;" horiz-adv-x="952" 
d="M408.975 0l139.992 415v-415h323.979v1202h-57.9961v2l-264.983 -2h-1v-3l-139.992 -395v398h-323.979v-1202h323.979z" />
    <glyph glyph-name="afii10098" unicode="&#x491;" horiz-adv-x="853" 
d="M397 894v-894h-315v1202h375v169l315 -3l-1 -166h1l-1 -308h-374z" />
    <glyph glyph-name="afii10051" unicode="&#x402;" horiz-adv-x="1076" 
d="M553 1206v-204q21 53 57 83.5t93 30.5q87 0 145.5 -29t93.5 -82t49.5 -127.5t14.5 -165.5v-331q0 -91 -14 -165.5t-48 -127.5t-92 -82t-145 -29q-60 0 -96.5 32t-57.5 88v-97h-326v1206h-227v316h780v-316h-227zM621 809q-21 0 -34 -10.5t-20.5 -26t-10.5 -33t-3 -31.5
v-313q0 -13 2.5 -31.5t9.5 -35.5t20.5 -29t35.5 -12t35.5 9t20.5 22t9.5 28.5t2.5 28.5v345q0 13 -2.5 28.5t-9.5 29t-20.5 22.5t-35.5 9z" />
    <glyph glyph-name="afii10050" unicode="&#x490;" horiz-adv-x="892" 
d="M406 1207v-1207h-324v1523h412v179h316v-495h-404z" />
    <glyph glyph-name="afii10042" unicode="&#x428;" horiz-adv-x="1361" 
d="M1279 1518v-1518h-1195v1518h324v-1202h113v1192h324v-1192h110v1202h324z" />
    <glyph glyph-name="afii10090" unicode="&#x448;" horiz-adv-x="1364" 
d="M1278 1202v-1202h-1195v1202h324v-894h113v884h324v-884h110v894h324z" />
    <glyph glyph-name="afii10091" unicode="&#x449;" horiz-adv-x="1438" 
d="M1278 1202v-894h160v-483h-315v175h-1040v1202h324v-894h113v884h324v-884h110v894h324z" />
    <glyph glyph-name="afii10079" unicode="&#x43d;" horiz-adv-x="952" 
d="M85 0v1202h317v-445h148v445h317v-1202h-317v443h-148v-443h-317z" />
    <glyph glyph-name="afii10081" unicode="&#x43f;" horiz-adv-x="952" 
d="M85 0v1202h781v-1202h-316v894h-146v-894h-319z" />
    <glyph glyph-name="afii10088" unicode="&#x446;" horiz-adv-x="1082" 
d="M406 1202v-894h140v894h324v-894h153v-483h-315v175h-626v1202h324z" />
    <glyph glyph-name="afii10083" unicode="&#x441;" horiz-adv-x="911" 
d="M527 406h314v-25q0 -91 -18 -165.5t-62 -127.5t-117 -82t-184 -29t-185.5 29t-120 82t-65 127.5t-19.5 165.5v442q0 91 19 165.5t63.5 127.5t118.5 82t185 29q110 0 184 -29t118.5 -82t63.5 -127.5t19 -165.5v-26h-314v32q0 13 -3 29t-10.5 29.5t-21.5 23t-36 9.5
q-23 0 -36 -9t-20.5 -22.5t-9.5 -29t-2 -28.5v-456q0 -13 2 -28.5t9.5 -28.5t20.5 -22t36 -9q22 0 36 9t21.5 22.5t10.5 29.5t3 29v29z" />
    <glyph glyph-name="afii10087" unicode="&#x445;" horiz-adv-x="856" 
d="M527 0l-102 324l-111 -324h-307l227 625l-215 577h332l86 -295l101 295h307l-215 -577l227 -625h-330z" />
    <glyph glyph-name="afii10078" unicode="&#x43c;" horiz-adv-x="1249" 
d="M398 668l11 -668h-324v1205h399l143 -552l142 552h399v-1205h-323l10 666l-109 -482h-239z" />
    <glyph glyph-name="afii10102" unicode="&#x455;" horiz-adv-x="882" 
d="M821 381q0 -92 -17.5 -167t-60.5 -127.5t-115.5 -81t-183.5 -28.5q-114 0 -189 29.5t-119.5 85t-62.5 135t-18 179.5h318q0 -57 13 -88t54 -31q15 0 24 5.5t14 13.5t7 16.5t2 13.5q0 33 -31 61t-77.5 57.5t-100.5 63.5t-100.5 77.5t-77.5 100.5t-31 133q0 99 17.5 173.5
t61 124.5t116.5 75t184 25q76 0 142.5 -14t116 -57.5t78 -124t28.5 -214.5l-318 2v27t-4 33.5t-14 28.5t-29 12q-21 0 -32.5 -6t-17 -14t-6.5 -16.5t-1 -13.5q0 -27 32 -52.5t79.5 -54t103.5 -63t103.5 -79.5t79.5 -104t32 -136z" />
    <glyph glyph-name="afii10100" unicode="&#x453;" horiz-adv-x="811" 
d="M83 0v1202h651v-315h-334v-887h-317zM669 1572l-200 -294h-225l132 294h293z" />
    <glyph glyph-name="afii10089" unicode="&#x447;" horiz-adv-x="932" 
d="M399 1202v-465q0 -13 2 -28.5t9.5 -28.5t20.5 -22t36 -9q22 0 35.5 12t20.5 29.5t9 36t2 31.5v444h316v-1202h-316v462q-20 -55 -56 -87.5t-93 -32.5q-88 0 -146 29t-93 82t-49.5 127.5t-14.5 164.5v457h317z" />
    <glyph glyph-name="afii10103" unicode="&#x456;" horiz-adv-x="487" 
d="M58 1430q0 80 44.5 116.5t138.5 36.5q96 0 140 -36.5t44 -116.5q0 -79 -44 -115.5t-140 -36.5q-94 0 -138.5 36.5t-44.5 115.5zM85 0v1202h317v-1202h-317z" />
    <glyph glyph-name="afii10106" unicode="&#x459;" horiz-adv-x="995" 
d="M467 888h59q90 0 163.5 -19.5t126 -66t81 -122.5t28.5 -189v-104q0 -108 -29 -182t-82 -119.5t-126.5 -65.5t-163.5 -20h-381v894h-142v308h466v-314zM600 491q0 43 -17 63.5t-63 20.5h-53v-259h57q43 0 59.5 18t16.5 53v104z" />
    <glyph glyph-name="afii10108" unicode="&#x45b;" horiz-adv-x="926" 
d="M393 873v-133q20 55 56 87.5t93 32.5q88 0 146 -29t93 -82t49.5 -127.5t14.5 -164.5v-457h-317v465q0 13 -2 28.5t-9.5 28.5t-21 22t-35.5 9t-35.5 -12t-20.5 -29.5t-9 -36t-2 -31.5v-444h-316v873h-77v241h77v88h316v-88h84v-241h-84z" />
    <glyph glyph-name="afii10045" unicode="&#x42b;" horiz-adv-x="1408" 
d="M864 387q0 -108 -29 -182t-82 -119.5t-126.5 -65.5t-163.5 -20h-381v1522h324v-468h59q90 0 163.5 -19.5t126 -66t81 -122.5t28.5 -189v-270zM539 657q0 43 -17 63.5t-63 20.5h-53v-425h57q43 0 59.5 18t16.5 53v270zM1325 0v1522h-324v-1522h324z" />
    <glyph glyph-name="afii10092" unicode="&#x44a;" horiz-adv-x="1031" 
d="M961 387q0 -108 -29 -182t-82 -119.5t-126.5 -65.5t-163.5 -20h-381v910h-179v292h503v-314h59q90 0 163.5 -19.5t126 -66t81 -122.5t28.5 -189v-104zM636 491q0 43 -17 63.5t-63 20.5h-53v-259h57q43 0 59.5 18t16.5 53v104z" />
    <glyph glyph-name="afii10043" unicode="&#x429;" horiz-adv-x="1526" 
d="M1277 1518v-1210h203v-483h-315v175h-1083v1518h324v-1202h113v1192h324v-1192h110v1202h324z" />
    <glyph glyph-name="afii10099" unicode="&#x452;" horiz-adv-x="925" 
d="M393 1261v-153q20 55 56 87.5t93 32.5q88 0 146 -29t93 -82t49.5 -127.5t14.5 -164.5v-886q0 -91 -21 -162.5t-68 -121.5t-123 -76.5t-187 -26.5q-63 0 -112.5 16t-88.5 47l86 279q10 -6 20 -11t23 -8.5t30.5 -5.5t41.5 -2q22 0 38 7.5t25.5 18.5t14 25t4.5 27v888
q0 13 -2 28.5t-9.5 28.5t-21 22t-35.5 9t-35.5 -12t-20.5 -29.5t-9 -36t-2 -31.5v-812h-316v1261h-77v233h77v68h316v-68h84v-233h-84z" />
    <glyph glyph-name="afii10846" unicode="&#x4d9;" horiz-adv-x="897" 
d="M48.9971 797.951v24.999q0 90.9941 17.999 165.489q17.999 74.4961 61.9961 127.492q43.9971 52.9971 116.993 81.9951q72.9951 28.998 183.988 28.998t185.489 -28.998q74.4951 -28.998 119.992 -81.9951q45.4971 -52.9961 64.9961 -127.492
q19.499 -74.4951 19.499 -165.489v-441.974q0 -90.9941 -18.999 -165.489q-18.999 -74.4961 -63.4961 -127.493q-44.4971 -52.9961 -118.493 -81.9941q-73.9951 -28.999 -184.988 -28.999q-109.993 0 -183.989 28.999q-73.9951 28.998 -118.492 81.9941
q-44.4971 52.9971 -63.4961 127.493q-18.999 74.4951 -18.999 165.489v294.982l456.972 95.9941v54.9961q0 13 -2.99902 28.998q-3 16 -10.5 29.499q-7.49902 13.499 -21.498 22.498q-14 9 -36.998 9q-21.999 0 -35.998 -9q-13.999 -8.99902 -21.499 -22.498
q-7.49902 -13.499 -10.499 -29.499q-3 -15.998 -3 -28.998v-28.998h-313.98zM433.974 283.982q22.998 0 36.998 9.5q13.999 9.49902 21.498 22.998q7.5 13.499 10.5 29.498q2.99902 15.999 2.99902 28.999v123.992l-142.991 -34.998v-88.9941q0 -13 3 -28.999
t10.499 -29.498q7.5 -13.499 21.499 -22.998q13.999 -9.5 35.998 -9.5z" />
    <glyph glyph-name="iotadieresis" unicode="&#x3ca;" horiz-adv-x="487" 
d="M85 0v1202h317v-1202h-317zM-56 1432q0 78 33 112t105 34t106 -34t34 -112q0 -75 -34 -109.5t-106 -34.5t-105 34.5t-33 109.5zM261 1432q0 78 33.5 112t104.5 34q73 0 106.5 -34t33.5 -112q0 -75 -33.5 -109.5t-106.5 -34.5q-71 0 -104.5 34.5t-33.5 109.5z" />
    <glyph glyph-name="afii10104" unicode="&#x457;" horiz-adv-x="487" 
d="M85 0v1202h317v-1202h-317zM-41 1425q0 78 33 112t105 34t106 -34t34 -112q0 -75 -34 -109.5t-106 -34.5t-105 34.5t-33 109.5zM276 1425q0 78 33.5 112t104.5 34q73 0 106.5 -34t33.5 -112q0 -75 -33.5 -109.5t-106.5 -34.5q-71 0 -104.5 34.5t-33.5 109.5z" />
    <glyph glyph-name="afii10084" unicode="&#x442;" horiz-adv-x="730" 
d="M524 894v-895h-315v895h-209v308h730v-308h-206z" />
    <glyph glyph-name="Nu" unicode="&#x39d;" horiz-adv-x="1030" 
d="M100 0v1522h376l187 -676l-9 676h324v-1522h-344l-220 735l10 -735h-324z" />
    <glyph glyph-name="afii10044" unicode="&#x42a;" horiz-adv-x="992" 
d="M910 387q0 -108 -29 -182t-82 -119.5t-126.5 -65.5t-163.5 -20h-381v1206h-128v316h452v-468h59q90 0 163.5 -19.5t126 -66t81 -122.5t28.5 -189v-270zM585 657q0 43 -17 63.5t-63 20.5h-53v-425h57q43 0 59.5 18t16.5 53v270z" />
    <glyph glyph-name="afii10026" unicode="&#x418;" horiz-adv-x="1030" 
d="M977.94 0v1522h-375.978l-186.988 -676l9 676h-323.98v-1522h343.979l219.986 735l-9.99902 -735h323.98z" />
    <glyph glyph-name="afii10037" unicode="&#x423;" horiz-adv-x="920" 
d="M641 551l-159 -551h-315l147 508l-315 1014h356l117 -564l135 564h315z" />
    <glyph glyph-name="afii10105" unicode="&#x458;" horiz-adv-x="489" 
d="M59 1430q0 80 44.5 116.5t138.5 36.5q96 0 140 -36.5t44 -116.5q0 -79 -44 -115.5t-140 -36.5q-94 0 -138.5 36.5t-44.5 115.5zM403 1202v-1210q0 -86 -13.5 -159t-49 -126t-97 -83t-156.5 -30q-43 0 -78 7t-64 18.5t-52.5 26.5t-42.5 30l16 266q11 -6 24.5 -14
t32.5 -15.5t44.5 -12.5t60.5 -5q57 0 57 97v1210h318z" />
    <glyph glyph-name="afii10097" unicode="&#x44f;" horiz-adv-x="882" 
d="M793.951 0v1202h-381.977q-93.9941 0 -165.989 -22q-71.9961 -22 -120.493 -68t-72.9951 -118q-24.499 -72 -24.499 -172v-60q0 -85 35.498 -153t92.4941 -118q-26.998 -19 -43.9971 -35.5t-27.498 -41.5q-10.5 -25 -17.499 -63q-7 -38 -14.999 -101l-10 -89
q-3.99902 -34 -8.99902 -57.5t-11.499 -41q-6.5 -17.5 -13.499 -32q-7 -14.5 -16 -30.5h324.98q1 3 6 14.5t10.999 31q6 19.5 12.999 46.5q7 27 11 60l11.999 90q5.99902 42 12.499 68t14.999 40q8.5 14 19.499 19t24.998 6h5h31.998v-375h314.98zM341.979 826
q0 28 14.499 49t59.4961 21h62.9961v-215h-62.9961q-44.9971 0 -59.4961 23t-14.499 58v64z" />
    <glyph glyph-name="Dsmall" unicode="&#xf764;" horiz-adv-x="916" 
d="M471 0h-391v1202h395q109 -1 183.5 -31t120.5 -83.5t65.5 -128.5t19.5 -165v-386q0 -91 -20 -166t-66 -129t-121 -83.5t-186 -29.5zM471 886h-67v-571h67q22 0 36 9.5t21.5 24t10 30.5t2.5 29v386q0 13 -2.5 29t-10 30t-21.5 23.5t-36 9.5z" />
    <glyph glyph-name="Esmall" unicode="&#xf765;" horiz-adv-x="860" 
d="M85 0v1202h700v-317h-383v-119h246v-317h-246v-132h383v-317h-700z" />
    <glyph glyph-name="Fsmall" unicode="&#xf766;" horiz-adv-x="805" 
d="M85 0v1202h700v-317h-383v-169h256v-317h-256l1 -399h-318z" />
    <glyph glyph-name="Gsmall" unicode="&#xf767;" horiz-adv-x="906" 
d="M445 664h396v-283q0 -91 -18 -165.5t-62 -127.5t-117 -82t-184 -29t-185.5 29t-120 82t-65 127.5t-19.5 165.5v442q0 91 19 165.5t63.5 127.5t118.5 82t185 29q110 0 184 -29t118.5 -82t63.5 -127.5t19 -165.5v-26h-314v32q0 13 -3 29t-10.5 29.5t-21.5 23t-36 9.5
q-23 0 -36 -9t-20.5 -22.5t-9.5 -29t-2 -28.5v-456q0 -13 2 -28.5t9.5 -28.5t20.5 -22t36 -9q22 0 36 9t21.5 22.5t10.5 29.5t3 29v36h-82v251z" />
    <glyph glyph-name="Hsmall" unicode="&#xf768;" horiz-adv-x="952" 
d="M85 0v1202h317v-445h148v445h317v-1202h-317v443h-148v-443h-317z" />
    <glyph glyph-name="Jsmall" unicode="&#xf76a;" horiz-adv-x="670" 
d="M86 316q58 -23 120 -23q19 0 32.5 8t22 20.5t12.5 27t4 27.5v826h318l-1 -776v-61q0 -91 -21 -162.5t-68 -121.5t-123 -76.5t-187 -26.5q-63 0 -112.5 16t-88.5 47z" />
    <glyph glyph-name="Lsmall" unicode="&#xf76c;" horiz-adv-x="795" 
d="M403 1202l-1 -885h383v-317h-700v1202h318z" />
    <glyph glyph-name="Msmall" unicode="&#xf76d;" horiz-adv-x="1253" 
d="M398 668l11 -668h-324v1205h399l143 -552l142 552h399v-1205h-323l10 666l-109 -482h-239z" />
    <glyph glyph-name="Nsmall" unicode="&#xf76e;" horiz-adv-x="960" 
d="M551 0l-140 415v-415h-324v1202h58v2l265 -2h1v-3l140 -395v398h324v-1202h-324z" />
    <glyph glyph-name="Qsmall" unicode="&#xf771;" horiz-adv-x="911" 
d="M314 -6q-68 18 -115 53t-75.5 84.5t-41 112.5t-12.5 137v442q0 91 19 165.5t63.5 127.5t118.5 82t185 29q110 0 184 -29t118.5 -82t63.5 -127.5t19 -165.5v-442q0 -75 -12 -139t-40.5 -114t-75.5 -85t-117 -51v-123h-282v125zM456 920q-23 0 -36 -9t-20.5 -22.5t-9.5 -29
t-2 -28.5v-456q0 -13 2 -28.5t9.5 -28.5t20.5 -22t36 -9q22 0 35.5 9t20.5 22t9 28.5t2 28.5v456q0 13 -2 28.5t-9 29t-20.5 22.5t-35.5 9z" />
    <glyph glyph-name="Usmall" unicode="&#xf775;" horiz-adv-x="907" 
d="M856 1202v-838q0 -91 -20 -162.5t-66 -121.5t-121 -76.5t-186 -26.5t-186 26.5t-121 76.5t-66 121.5t-20 162.5v838h323v-838q0 -13 2.5 -26t10 -23t21.5 -16.5t36 -6.5t36 6.5t21.5 16.5t10 23t2.5 26v838h323z" />
    <glyph glyph-name="Wsmall" unicode="&#xf777;" horiz-adv-x="1506" 
d="M7 1204h326l96 -888l97 888h450l96 -888l97 888h326l-172 -1204h-481l-91 830l-91 -830h-481z" />
    <glyph glyph-name="Ysmall" unicode="&#xf779;" horiz-adv-x="812" 
d="M798 1202l-223 -769v-433h-323v433l-235 769h310l89 -447l98 447h284z" />
    <glyph glyph-name="epsilon" unicode="&#x3b5;" horiz-adv-x="910" 
d="M527 406h314v-25q0 -91 -18 -165.5t-62 -127.5t-117 -82t-184 -29t-185.5 29t-120 82t-65 127.5t-19.5 165.5v442q0 91 19 165.5t63.5 127.5t118.5 82t185 29q110 0 184 -29t118.5 -82t63.5 -127.5t19 -165.5v-26h-314v32q0 13 -3 29t-10.5 29.5t-21.5 23t-36 9.5
q-23 0 -36 -9t-20.5 -22.5t-9.5 -29t-2 -28.5v-94l293 7v-287l-293 5v-87q0 -13 2 -28.5t9.5 -28.5t20.5 -22t36 -9q22 0 36 9t21.5 22.5t10.5 29.5t3 29v29z" />
    <glyph glyph-name="afii10095" unicode="&#x44d;" horiz-adv-x="893" 
d="M374.978 406h-313.981v-25q0 -91 17.999 -165.5t61.9961 -127.5t116.993 -82q72.9951 -29 183.988 -29t185.489 29q74.4951 29 119.992 82t64.9961 127.5t19.499 165.5v442q0 91 -18.999 165.5t-63.4961 127.5t-118.492 82q-73.9961 29 -184.989 29
q-109.993 0 -183.988 -29q-73.9961 -29 -118.493 -82t-63.4961 -127.5t-18.999 -165.5v-26h313.981v32q0 13 2.99902 29q3 16 10.5 29.5q7.49902 13.5 21.498 23q14 9.5 35.998 9.5q22.999 0 35.998 -9t20.499 -22.5q7.49902 -13.5 9.49902 -29t2 -28.5v-94l-292.982 7v-287
l292.982 5v-87q0 -13 -2 -28.5t-9.49902 -28.5q-7.5 -13 -20.499 -22t-35.998 -9q-21.998 0 -35.998 9q-13.999 9 -21.498 22.5q-7.5 13.5 -10.5 29.5q-2.99902 16 -2.99902 29v29z" />
    <glyph glyph-name="afii10101" unicode="&#x454;" horiz-adv-x="908" 
d="M527 406h314v-25q0 -91 -18 -165.5t-62 -127.5t-117 -82t-184 -29t-185.5 29t-120 82t-65 127.5t-19.5 165.5v442q0 91 19 165.5t63.5 127.5t118.5 82t185 29q110 0 184 -29t118.5 -82t63.5 -127.5t19 -165.5v-26h-314v32q0 13 -3 29t-10.5 29.5t-21.5 23t-36 9.5
q-23 0 -36 -9t-20.5 -22.5t-9.5 -29t-2 -28.5v-94l293 7v-287l-293 5v-87q0 -13 2 -28.5t9.5 -28.5t20.5 -22t36 -9q22 0 36 9t21.5 22.5t10.5 29.5t3 29v29z" />
    <glyph glyph-name="afii10061" unicode="&#x40c;" horiz-adv-x="990" 
d="M100 0v1522h324v-596h51l164 596h344l-215 -739l227 -783h-344l-166 608l1 2h-62v-610h-324zM832 1892l-200 -294h-225l132 294h293z" />
    <glyph glyph-name="tau" unicode="&#x3c4;" horiz-adv-x="750" 
d="M534 894v-895h-315v895h-209v308h730v-308h-206z" />
    <glyph glyph-name="spessoresmall" horiz-adv-x="844" 
d="M804 1202h171v-65h-171v65z" />
    <glyph glyph-name="afii10041" unicode="&#x427;" horiz-adv-x="993" 
d="M406 1523v-787q0 -13 6.5 -28.5t19 -28.5t30 -21.5t40.5 -8.5q22 0 38.5 12t27 29.5t15.5 36t5 31.5v765h324v-1523h-324v462q-20 -55 -57.5 -87.5t-94.5 -32.5q-88 0 -154 29t-110.5 82t-67 127.5t-22.5 164.5v778h324z" />
    <glyph glyph-name="afii10052" unicode="&#x403;" horiz-adv-x="837" 
d="M83 1521.91v-1521.91h324v1210.93h354v310.981h-678zM716 1892l-200 -294h-225l132 294h293z" />
    <glyph glyph-name="afii10093" unicode="&#x44b;" horiz-adv-x="1414" 
d="M1015 0v1202h317v-1202h-317zM863 387q0 -108 -29 -182t-82 -119.5t-126.5 -65.5t-163.5 -20h-381v1202h324v-314h59q90 0 163.5 -19.5t126 -66t81 -122.5t28.5 -189v-104zM538 491q0 43 -17 63.5t-63 20.5h-53v-259h57q43 0 59.5 18t16.5 53v104z" />
    <glyph glyph-name="afii10094" unicode="&#x44c;" horiz-adv-x="924" 
d="M854 387q0 -108 -29 -182t-82 -119.5t-126.5 -65.5t-163.5 -20h-381v1202h324v-314h59q90 0 163.5 -19.5t126 -66t81 -122.5t28.5 -189v-104zM529 491q0 43 -17 63.5t-63 20.5h-53v-259h57q43 0 59.5 18t16.5 53v104z" />
    <glyph glyph-name="afii10069" unicode="&#x434;" horiz-adv-x="1090" 
d="M933 308h155v-483h-315v175h-458v-175h-314v483h13q25 0 51 27.5t47 94.5t34.5 179t13.5 281v314l312 -2h461v-894zM475 855q0 -99 -4 -181.5t-15.5 -150.5t-31.5 -121.5t-52 -93.5h246v586h-143v-39z" />
    <glyph glyph-name="afii10021" unicode="&#x414;" horiz-adv-x="1148" 
d="M999 316h149v-491h-324v175h-500v-175h-324v491h35q20 0 36.5 28t30 76t23.5 111t18 134t13 144.5t8 142t4.5 127.5t1.5 100v345l308 -2h521v-1206zM494 1179q0 -167 -2 -303t-13.5 -243t-36.5 -186t-70 -131h303v890h-181v-27z" />
    <glyph glyph-name="afii10058" unicode="&#x409;" horiz-adv-x="1457" 
d="M1386 387q0 -108 -29 -182t-82 -119.5t-126.5 -65.5t-163.5 -20h-381v1206h-202v-821q0 -91 -21.5 -166t-69.5 -129t-124.5 -83.5t-187.5 -29.5v316q21 0 36 9.5t24.5 23.5t14.5 30t5 29v1139l312 -2h537v-468h59q90 0 163.5 -19.5t126 -66t81 -122.5t28.5 -189v-270z
M1061 657q0 43 -17 63.5t-63 20.5h-53v-425h57q43 0 59.5 18t16.5 53v270z" />
    <glyph glyph-name="afii10059" unicode="&#x40a;" horiz-adv-x="1437" 
d="M80 0v1522h324v-468h181v468h325v-468h58q90 0 163.5 -19.5t126 -66t81 -122.5t28.5 -189v-270q0 -108 -29 -182t-82 -119.5t-126.5 -65.5t-163.5 -20h-381v741h-181v-741h-324zM1042 657q0 43 -17 63.5t-63 20.5h-52v-425h56q43 0 59.5 18t16.5 53v270z" />
    <glyph glyph-name="afii10060" unicode="&#x40b;" horiz-adv-x="1081" 
d="M688 0v643q0 13 -2 28.5t-9.5 28.5t-21 22t-35.5 9t-35.5 -12t-20.5 -29.5t-9 -36t-2 -31.5v-622h-316v1380h316v-462q20 55 59 87.5t96 32.5q88 0 146 -29t93 -82t49.5 -127.5t14.5 -164.5v-635h-323zM553 1206v-1206h-326v1206h-227v316h780v-316h-227z" />
    <glyph glyph-name="afii10072" unicode="&#x436;" horiz-adv-x="1295" 
d="M805 1201v-435h28l119 436h319l-192 -602l217 -600h-350l-119 451h-22v-451h-316v451h-19l-119 -451h-350l217 600l-192 602h319l119 -436h25v435h316z" />
    <glyph glyph-name="afii10077" unicode="&#x43b;" horiz-adv-x="982" 
d="M587 0v894h-192v-509q0 -91 -23.5 -166t-72 -129t-123 -83.5t-176.5 -29.5v308q21 0 36 9.5t24.5 23.5t14.5 30t5 29v827l312 -2h510v-1202h-315z" />
    <glyph glyph-name="afii10107" unicode="&#x45a;" horiz-adv-x="1392" 
d="M1322 387q0 -108 -29 -182t-82 -119.5t-126.5 -65.5t-163.5 -20h-374v515h-148v-515h-317v1202h317v-374h148v374h315v-374h61q90 0 163.5 -19.5t126 -66t81 -122.5t28.5 -189v-44zM997 431q0 43 -17 63.5t-63 20.5h-55l-1 -199h60q43 0 59.5 18t16.5 53v44z" />
    <glyph glyph-name="i.trk" horiz-adv-x="508" 
d="M55 1430q0 80 44.5 116.5t138.5 36.5q96 0 140 -36.5t44 -116.5q0 -79 -44 -115.5t-140 -36.5q-94 0 -138.5 36.5t-44.5 115.5zM82 0v1202h317v-1202h-317z" />
    <glyph glyph-name="zero.slash" horiz-adv-x="907" 
d="M70 385v754q0 90 18.5 165t62.5 129t117.5 83.5t184.5 29.5t184.5 -29.5t117.5 -83.5t62.5 -129t18.5 -165v-754q0 -91 -18.5 -166t-62.5 -129t-117.5 -83.5t-184.5 -29.5t-184.5 29.5t-117.5 83.5t-62.5 129t-18.5 166zM453 1231q-21 0 -32.5 -9.5t-17.5 -23.5t-7.5 -30
t-1.5 -29v-267l119 130v137q0 13 -1.5 29t-7.5 30t-18 23.5t-33 9.5zM453 293q21 0 33 9.5t18 23.5t7.5 30t1.5 29v257l-119 -136v-121q0 -13 1.5 -29t7.5 -30t17.5 -23.5t32.5 -9.5z" />
    <glyph glyph-name="afii10066" unicode="&#x431;" horiz-adv-x="911" 
d="M900 1572q-3 -36 -6 -71t-14 -67t-33 -59t-62.5 -47t-103.5 -31.5t-155 -11.5q-38 0 -64 -12.5t-42.5 -34.5t-25.5 -51.5t-13 -62.5q41 48 89 75.5t98 27.5q87 0 141 -29t83 -82t39 -127.5t10 -165.5v-442q0 -106 -16.5 -182t-59 -125t-116.5 -72.5t-189 -24.5
q-111 0 -185.5 29t-120 82t-65 127.5t-19.5 165.5v540q0 139 24.5 250.5t74 190.5t124 122.5t173.5 47.5q44 1 76 4.5t55 9t38.5 12.5t27.5 15zM388 375q0 -13 2 -28.5t9.5 -28.5t20.5 -22t36 -9q22 0 35.5 9t20.5 22t9.5 28.5t2.5 28.5v456q0 13 -2.5 28.5t-9.5 29
t-20.5 22.5t-35.5 9q-26 0 -40.5 -16.5t-20.5 -37.5q-2 -7 -3.5 -20t-2.5 -26.5t-1 -25.5v-17v-402z" />
    <glyph glyph-name="afii10073" unicode="&#x437;" horiz-adv-x="868" 
d="M410 740q24 0 41 7.5t28 19.5t16 26.5t5 29.5v1q0 47 -18.5 66.5t-47.5 19.5q-31 0 -48 -19.5t-17 -64.5v-29h-324v31q0 114 29.5 190.5t81.5 122.5t123 65.5t155 19.5q97 0 170 -23.5t122 -73t73 -127.5t24 -186q0 -50 -15 -87t-36 -63t-43 -42t-37 -24q29 -5 53 -28.5
t41.5 -58t27 -75t9.5 -79.5q0 -84 -24 -154.5t-73 -121t-122 -78.5t-170 -28q-84 0 -155 19.5t-123 65.5t-81.5 122.5t-29.5 190.5v31h324v-29q0 -45 17 -64.5t48 -19.5q29 0 47.5 19.5t18.5 66.5q0 53 -20.5 72.5t-68.5 19.5l-209 -1v268z" />
    <glyph glyph-name="afii10086" unicode="&#x444;" horiz-adv-x="1324" 
d="M504 -368v423q-22 -37 -54.5 -57.5t-79.5 -20.5q-87 0 -145 29t-92 82t-48 127.5t-14 165.5v442q0 91 14.5 165.5t49.5 127.5t93.5 82t145.5 29q45 0 76.5 -15t53.5 -44v355h316v-355q21 29 53 44t77 15q87 0 145.5 -29t93.5 -82t49.5 -127.5t14.5 -165.5v-442
q0 -91 -14 -165.5t-48 -127.5t-92 -82t-145 -29q-47 0 -79.5 20.5t-54.5 57.5v-423h-316zM456 287q33 0 48 9v597q-8 12 -19.5 19.5t-28.5 7.5q-22 0 -35.5 -9t-20.5 -22.5t-9.5 -29t-2.5 -28.5v-456q0 -13 2.5 -28.5t9.5 -28.5t20.5 -22t35.5 -9zM868 920q-17 0 -28.5 -7.5
t-19.5 -19.5v-597q15 -9 48 -9q22 0 35.5 9t20.5 22t9.5 28.5t2.5 28.5v456q0 13 -2.5 28.5t-9.5 29t-20.5 22.5t-35.5 9z" />
    <glyph glyph-name="gamma" unicode="&#x3b3;" horiz-adv-x="883" 
d="M277 -376v402h317v-402h-317zM884 1204l-232 -1204h-421l-232 1204h326l116 -820l117 820h326z" />
    <glyph glyph-name="pi" unicode="&#x3c0;" horiz-adv-x="1148" 
d="M933 894v-895h-315v895h-134v-895h-315v895h-149v308h1059v-308h-146z" />
    <glyph glyph-name="uni03BC" unicode="&#x3bc;" horiz-adv-x="926" 
d="M862 1202v-822q0 -90 -14.5 -164.5t-49.5 -127.5t-93 -82t-146 -29q-57 0 -93 32.5t-56 87.5v-462h-316v1567h316v-809q0 -13 2 -31.5t9 -36t20.5 -29.5t35.5 -12t35.5 9t21 22t9.5 28.5t2 28.5v830h317z" />
    <glyph glyph-name="phi" unicode="&#x3c6;" horiz-adv-x="1210" 
d="M446 -367v345q-107 1 -179 31t-116 82.5t-63 126t-19 163.5v442q0 90 18.5 163.5t62 126.5t116 82.5t180.5 31.5v342h317v-342q108 -1 180.5 -30.5t116.5 -82.5t62.5 -127t18.5 -164v-442q0 -90 -18 -164.5t-61.5 -127.5t-116.5 -82.5t-182 -29.5v-344h-317zM823 831
q0 12 -2 27t-8.5 28t-18.5 22t-31 11v-632q19 1 31 10.5t18.5 22.5t8.5 27.5t2 27.5v456zM387 375q0 -12 2 -27t8 -27.5t17.5 -22t31.5 -11.5v632q-20 -2 -31.5 -11.5t-17.5 -22t-8 -27.5t-2 -27v-456z" />
    <glyph glyph-name="sigma" unicode="&#x3c3;" horiz-adv-x="911" 
d="M904 918l-89 24q26 -65 26 -171v-390q0 -91 -18 -165.5t-62 -127.5t-117 -82t-184 -29t-185.5 29t-120 82t-65 127.5t-19.5 165.5v442q0 91 19 165.5t63.5 127.5t118.5 82t185 29h448v-309zM456 920q-23 0 -36 -9t-20.5 -22.5t-9.5 -29t-2 -28.5v-456q0 -13 2 -28.5
t9.5 -28.5t20.5 -22t36 -9q22 0 35.5 9t20.5 22t9 28.5t2 28.5v456q0 13 -2 28.5t-9 29t-20.5 22.5t-35.5 9z" />
    <glyph glyph-name="upsilon" unicode="&#x3c5;" horiz-adv-x="907" 
d="M856 1202v-838q0 -91 -20 -162.5t-66 -121.5t-121 -76.5t-186 -26.5t-186 26.5t-121 76.5t-66 121.5t-20 162.5v838h323v-838q0 -13 2.5 -26t10 -23t21.5 -16.5t36 -6.5t36 6.5t21.5 16.5t10 23t2.5 26v838h323z" />
    <glyph glyph-name="psi" unicode="&#x3c8;" horiz-adv-x="1185" 
d="M393 1202v-838q0 -21 7.5 -40.5t32.5 -27.5v1273h317v-1274q26 8 34 27.5t8 41.5v838h323v-838q0 -88 -18.5 -158t-61.5 -119.5t-113 -77.5t-172 -31v-346h-317v346q-102 3 -171.5 31t-112 77.5t-61 119.5t-18.5 158v838h323z" />
    <glyph glyph-name="lambda" unicode="&#x3bb;" horiz-adv-x="888" 
d="M2 0l192 1204h203q-15 33 -35 55t-41.5 37.5t-44 25.5t-43.5 19l136 228q57 -20 113.5 -60.5t104.5 -100t83 -137t47 -171.5l26 -201l144 -899h-326l-88 700l-2 12l-23 185h-8l-112 -897h-326z" />
    <glyph glyph-name="omicrontonos" unicode="&#x3cc;" horiz-adv-x="911" 
d="M597 1572l-38 -294h-225l-30 294h293zM70 823q0 91 19 165.5t63.5 127.5t118.5 82t185 29q110 0 184 -29t118.5 -82t63.5 -127.5t19 -165.5v-442q0 -91 -18 -165.5t-62 -127.5t-117 -82t-184 -29t-185.5 29t-120 82t-65 127.5t-19.5 165.5v442zM456 920q-23 0 -36 -9
t-20.5 -22.5t-9.5 -29t-2 -28.5v-456q0 -13 2 -28.5t9.5 -28.5t20.5 -22t36 -9q22 0 35.5 9t20.5 22t9 28.5t2 28.5v456q0 13 -2 28.5t-9 29t-20.5 22.5t-35.5 9z" />
    <glyph glyph-name="etatonos" unicode="&#x3ae;" horiz-adv-x="938" 
d="M609 1572l-38 -294h-195l-30 294h263zM536 -367v1197q0 13 -2 28.5t-9.5 28.5t-21 22t-35.5 9t-35.5 -12t-20.5 -29.5t-9 -36t-2 -31.5v-809h-316v1202h316v-97q13 25 34 47t45.5 38.5t52.5 25.5t57 9q81 0 132 -29t80.5 -82t40 -127.5t10.5 -164.5v-1189h-317z" />
    <glyph glyph-name="chi" unicode="&#x3c7;" horiz-adv-x="847" 
d="M520 0l-102 324l-111 -324h-307l227 625l-215 577h332l86 -295l101 295h307l-215 -577l227 -625h-330z" />
    <glyph glyph-name="omega" unicode="&#x3c9;" horiz-adv-x="1408" 
d="M861 779v-295q0 -26 -0.5 -48.5t-0.5 -42.5q0 -27 2.5 -47.5t11 -34t25 -20t44.5 -6.5t44 7.5t23.5 23.5t9.5 42t2 64v38v271q0 54 -17.5 89.5t-42.5 57t-53 30.5t-48 9l1 308q109 -3 197 -29t150.5 -84t95.5 -151t33 -229l-1 -271q0 -49 -2.5 -104t-14 -109t-35.5 -103
t-67.5 -86.5t-110.5 -59.5t-164 -22q-82 0 -142 28.5t-104 76.5q-42 -48 -99 -76.5t-134 -28.5q-97 0 -164 22t-110.5 59.5t-67.5 86.5t-35.5 103t-14 109t-2.5 104l-1 271q0 136 33 229.5t95.5 151.5t150.5 84.5t197 29.5l1 -308q-20 0 -48 -9.5t-53 -31t-42.5 -57.5
t-17.5 -90v-271v-38q0 -38 2 -64t9.5 -42t23.5 -23.5t44 -7.5t44.5 6.5t25 20t11 34t2.5 47.5q0 20 -0.5 42.5t-0.5 48.5v295h315z" />
    <glyph glyph-name="omegatonos" unicode="&#x3ce;" horiz-adv-x="1403" 
d="M835 1572l-36 -294h-225l-32 294h293zM857 779v-295q0 -26 -0.5 -48.5t-0.5 -42.5q0 -27 2.5 -47.5t11 -34t25 -20t44.5 -6.5t44 7.5t23.5 23.5t9.5 42t2 64v38v271q0 54 -17.5 89.5t-42.5 57t-53 30.5t-48 9l1 308q109 -3 197 -29t150.5 -84t95.5 -151t33 -229l-1 -271
q0 -49 -2.5 -104t-14 -109t-35.5 -103t-67.5 -86.5t-110.5 -59.5t-164 -22q-82 0 -142 28.5t-104 76.5q-42 -48 -99 -76.5t-134 -28.5q-97 0 -164 22t-110.5 59.5t-67.5 86.5t-35.5 103t-14 109t-2.5 104l-1 271q0 136 33 229.5t95.5 151.5t150.5 84.5t197 29.5l1 -308
q-20 0 -48 -9.5t-53 -31t-42.5 -57.5t-17.5 -90v-271v-38q0 -38 2 -64t9.5 -42t23.5 -23.5t44 -7.5t44.5 6.5t25 20t11 34t2.5 47.5q0 20 -0.5 42.5t-0.5 48.5v295h315z" />
    <glyph glyph-name="epsilontonos" unicode="&#x3ad;" horiz-adv-x="910" 
d="M527 406h314v-25q0 -91 -18 -165.5t-62 -127.5t-117 -82t-184 -29t-185.5 29t-120 82t-65 127.5t-19.5 165.5v442q0 91 19 165.5t63.5 127.5t118.5 82t185 29q110 0 184 -29t118.5 -82t63.5 -127.5t19 -165.5v-26h-314v32q0 13 -3 29t-10.5 29.5t-21.5 23t-36 9.5
q-23 0 -36 -9t-20.5 -22.5t-9.5 -29t-2 -28.5v-94l293 7v-287l-293 5v-87q0 -13 2 -28.5t9.5 -28.5t20.5 -22t36 -9q22 0 36 9t21.5 22.5t10.5 29.5t3 29v29zM599 1572l-38 -294h-195l-30 294h263z" />
    <glyph glyph-name="xi" unicode="&#x3be;" horiz-adv-x="917" 
d="M407 1032q0 -12 -0.5 -22.5t-0.5 -19.5q0 -36 8.5 -50.5t41.5 -14.5h146v-305h-144q-48 0 -69 -27t-21 -72v-149q0 -23 7 -40.5t18.5 -29t26 -17t29.5 -5.5l158 -66v-237h-173q-98 0 -170.5 21.5t-121.5 72.5t-73 134t-24 206q0 64 7.5 122t26 106.5t49.5 84.5t79 55
q-37 16 -61 43t-38 60.5t-19.5 72t-5.5 77.5v107q0 90 17.5 164.5t60 128.5t115 84t182.5 30l1 1q110 0 182.5 -29.5t115.5 -83t60.5 -128.5t17.5 -165v-58h-324v57q0 13 -1 29t-6 29.5t-15.5 23t-29.5 9.5q-22 0 -33 -9.5t-15 -23.5t-4 -30v-29v-107zM476 -367l29 274
q0 13 -2.5 25.5t-10 22.5t-21 16t-35.5 6q-9 0 -13 17.5t-4 45.5q0 33 4 75t9 78.5t9.5 61.5t5.5 25q100 0 171.5 -25t117.5 -68.5t67.5 -102t21.5 -126.5q0 -26 -3 -51l-30 -274h-316z" />
    <glyph glyph-name="upsilondieresis" unicode="&#x3cb;" horiz-adv-x="907" 
d="M856 1202v-838q0 -91 -20 -162.5t-66 -121.5t-121 -76.5t-186 -26.5t-186 26.5t-121 76.5t-66 121.5t-20 162.5v838h323v-838q0 -13 2.5 -26t10 -23t21.5 -16.5t36 -6.5t36 6.5t21.5 16.5t10 23t2.5 26v838h323zM166 1432q0 78 33 112t105 34t106 -34t34 -112
q0 -75 -34 -109.5t-106 -34.5t-105 34.5t-33 109.5zM483 1432q0 78 33.5 112t104.5 34q73 0 106.5 -34t33.5 -112q0 -75 -33.5 -109.5t-106.5 -34.5q-71 0 -104.5 34.5t-33.5 109.5z" />
    <glyph glyph-name="upsilontonos" unicode="&#x3cd;" horiz-adv-x="907" 
d="M616 1572l-36 -294h-225l-32 294h293zM856 1202v-838q0 -91 -20 -162.5t-66 -121.5t-121 -76.5t-186 -26.5t-186 26.5t-121 76.5t-66 121.5t-20 162.5v838h323v-838q0 -13 2.5 -26t10 -23t21.5 -16.5t36 -6.5t36 6.5t21.5 16.5t10 23t2.5 26v838h323z" />
    <glyph glyph-name="uni03C2" unicode="&#x3c2;" horiz-adv-x="910" 
d="M459 -22q-111 0 -185.5 29t-120 82t-65 127t-19.5 165v442q0 91 19 165.5t63.5 127.5t118.5 82t185 29q110 0 184 -29t118.5 -82t63.5 -127.5t19 -165.5v-26h-314v32q0 13 -3 29t-10.5 29.5t-21.5 23t-36 9.5q-23 0 -36 -9t-20.5 -22.5t-9.5 -29t-2 -28.5v-456
q0 -13 4.5 -29.5t14.5 -31t25.5 -24.5t38.5 -10zM499 -367l29 274q0 13 -2.5 25.5t-10 22.5t-21 16t-35.5 6q-9 0 -13 17.5t-4 45.5q0 33 4 75t9 78.5t9.5 61.5t5.5 25q100 0 171.5 -25t117.5 -68.5t67.5 -102t21.5 -126.5q0 -26 -3 -51l-30 -274h-316z" />
    <glyph glyph-name="zeta" unicode="&#x3b6;" horiz-adv-x="756" 
d="M-1 1202h582v-317l-230 -487q-16 -32 -16 -57q0 -28 18.5 -43.5t49.5 -20.5q97 -16 164 -43t109 -65.5t61 -89t19 -114.5q0 -28 -3 -58l-30 -274h-316l29 274q0 25 -24 45t-66 28v-1q-82 14 -147 38t-110.5 58.5t-69.5 80t-24 101.5q0 76 44 167l218 461h-258v317z" />
    <glyph glyph-name="delta" unicode="&#x3b4;" horiz-adv-x="911" 
d="M587 1309q0 -1 18 -21.5t42.5 -48.5t50.5 -57t43 -47q55 -54 77.5 -133t22.5 -179v-442q0 -91 -18 -165.5t-62 -127.5t-117 -82t-184 -29t-185.5 29t-120 82t-65 127.5t-19.5 165.5v442q0 70 11 131t36.5 110t67.5 84.5t103 55.5l-77 105v260h630v-260h-254zM456 920
q-23 0 -36 -9t-20.5 -22.5t-9.5 -29t-2 -28.5v-456q0 -13 2 -28.5t9.5 -28.5t20.5 -22t36 -9q22 0 35.5 9t20.5 22t9 28.5t2 28.5v456q0 13 -2 28.5t-9 29t-20.5 22.5t-35.5 9z" />
    <glyph glyph-name="_480" horiz-adv-x="897" 
d="M493 -367l29 274q0 13 -2.5 25.5t-10 22.5t-21 16t-35.5 6q-9 0 -13 17.5t-4 45.5q0 33 4 75t9 78.5t9.5 61.5t5.5 25q100 0 171.5 -25t117.5 -68.5t67.5 -102t21.5 -126.5q0 -26 -3 -51l-30 -274h-316z" />
    <glyph glyph-name="aacute" unicode="&#xe1;" horiz-adv-x="931" 
d="M531 0v105q-23 -59 -61 -93.5t-99 -34.5q-87 0 -145.5 27.5t-93.5 78.5t-49.5 124t-14.5 164q0 93 14 157.5t48 105t92 59t145 18.5q54 0 93.5 -5t68.5 -11v136q0 13 -2 28.5t-9 29t-20.5 22.5t-35.5 9t-35.5 -9.5t-20.5 -23t-9.5 -29.5t-2.5 -29v-32h-316v26
q0 91 18.5 165.5t62.5 127.5t117.5 82t183.5 29q111 0 185 -29t118.5 -82t63.5 -127.5t19 -165.5v-823h-315zM453 284q22 0 36.5 12t23.5 29.5t12.5 36t3.5 31.5v38q-15 7 -39 13.5t-43 6.5q-21 0 -33.5 -7t-18.5 -19t-8 -28t-2 -34q0 -13 2.5 -27t9.5 -25.5t20.5 -19
t35.5 -7.5zM770 1572l-200 -294h-225l132 294h293z" />
    <glyph glyph-name="abreve" unicode="&#x103;" horiz-adv-x="931" 
d="M531 0v105q-23 -59 -61 -93.5t-99 -34.5q-87 0 -145.5 27.5t-93.5 78.5t-49.5 124t-14.5 164q0 93 14 157.5t48 105t92 59t145 18.5q54 0 93.5 -5t68.5 -11v136q0 13 -2 28.5t-9 29t-20.5 22.5t-35.5 9t-35.5 -9.5t-20.5 -23t-9.5 -29.5t-2.5 -29v-32h-316v26
q0 91 18.5 165.5t62.5 127.5t117.5 82t183.5 29q111 0 185 -29t118.5 -82t63.5 -127.5t19 -165.5v-823h-315zM453 284q22 0 36.5 12t23.5 29.5t12.5 36t3.5 31.5v38q-15 7 -39 13.5t-43 6.5q-21 0 -33.5 -7t-18.5 -19t-8 -28t-2 -34q0 -13 2.5 -27t9.5 -25.5t20.5 -19
t35.5 -7.5zM789 1585q0 -60 -15 -115.5t-51 -98t-96 -68t-150 -25.5q-92 0 -152 25.5t-96 68t-50.5 98t-14.5 115.5h172q3 -28 6 -52.5t15.5 -42.5t40 -28.5t79.5 -10.5q48 0 75 9.5t40.5 27.5t17.5 42.5t7 54.5h172z" />
    <glyph glyph-name="Aogonek" unicode="&#x104;" horiz-adv-x="944" 
d="M241 1523h421l232 -1523h-326l-23 199h-188l-22 -199h-326zM391 496h121l-61 541zM920 -417q-54 -60 -172 -60q-55 0 -105 13.5t-88.5 43.5t-61 77.5t-22.5 115.5q0 56 24.5 97t66.5 73t98 58.5t119 53.5l117 -55q-42 -26 -70.5 -49t-45 -46t-23.5 -48t-7 -55
q0 -38 17 -56t45 -18q18 0 29.5 1t21 4t18.5 8t21 12z" />
    <glyph glyph-name="Aring" unicode="&#xc5;" horiz-adv-x="944" 
d="M241 1523h421l232 -1523h-326l-23 199h-188l-22 -199h-326zM391 496h121l-61 541zM199 1813q0 124 62 180t192 56q132 0 194 -56t62 -180q0 -121 -61.5 -177.5t-194.5 -56.5q-131 0 -192.5 56.5t-61.5 177.5zM396 1814q0 -28 13.5 -41.5t44.5 -13.5q30 0 43.5 13.5
t13.5 41.5q0 27 -13.5 39.5t-43.5 12.5q-31 0 -44.5 -12.5t-13.5 -39.5z" />
    <glyph glyph-name="Abreve" unicode="&#x102;" horiz-adv-x="944" 
d="M241 1523h421l232 -1523h-326l-23 199h-188l-22 -199h-326zM391 496h121l-61 541zM765 1906q0 -60 -15 -115.5t-51 -98t-96 -68t-150 -25.5q-92 0 -152 25.5t-96 68t-50.5 98t-14.5 115.5h172q3 -28 6 -52.5t15.5 -42.5t40 -28.5t79.5 -10.5q48 0 75 9.5t40.5 27.5
t17.5 42.5t7 54.5h172z" />
    <glyph glyph-name="Agrave" unicode="&#xc0;" horiz-adv-x="944" 
d="M241 1523h421l232 -1523h-326l-23 199h-188l-22 -199h-326zM391 496h121l-61 541zM430 1893l132 -294h-215l-190 294h273z" />
    <glyph glyph-name="Atilde" unicode="&#xc3;" horiz-adv-x="944" 
d="M241 1523h421l232 -1523h-326l-23 199h-188l-22 -199h-326zM391 496h121l-61 541zM802 1868q-8 -55 -25.5 -104.5t-47.5 -86.5t-73.5 -59t-102.5 -22q-35 0 -62.5 9.5t-51 21.5t-44.5 21.5t-43 9.5q-32 0 -55 -15t-35 -59l-156 43q9 53 26.5 101.5t47 85.5t72 59
t100.5 22q38 0 66.5 -9.5t51.5 -21.5t43.5 -21.5t42.5 -9.5q35 0 56.5 16t32.5 58z" />
    <glyph glyph-name="Amacron" unicode="&#x100;" horiz-adv-x="944" 
d="M241 1523h421l232 -1523h-326l-23 199h-188l-22 -199h-326zM391 496h121l-61 541zM191 1632v233h527v-233h-527z" />
    <glyph glyph-name="Adieresis" unicode="&#xc4;" horiz-adv-x="944" 
d="M241 1523h421l232 -1523h-326l-23 199h-188l-22 -199h-326zM391 496h121l-61 541zM157 1746q0 78 33 112t105 34t106 -34t34 -112q0 -75 -34 -109.5t-106 -34.5t-105 34.5t-33 109.5zM474 1746q0 78 33.5 112t104.5 34q73 0 106.5 -34t33.5 -112q0 -75 -33.5 -109.5
t-106.5 -34.5q-71 0 -104.5 34.5t-33.5 109.5z" />
    <glyph glyph-name="Acircumflex" unicode="&#xc2;" horiz-adv-x="944" 
d="M241 1523h421l232 -1523h-326l-23 199h-188l-22 -199h-326zM391 496h121l-61 541zM166 1600l139 249h295l139 -249h-248l-39 94l-38 -94h-248z" />
    <glyph glyph-name="A.fat" horiz-adv-x="889" 
d="M536 199h-183l-21 -199h-331l215 1522h462l210 -1522h-332zM385 496h121l-59 580z" />
    <glyph glyph-name="AEacute" unicode="&#x1fc;" horiz-adv-x="1334" 
d="M1046 1893l-200 -294h-225l132 294h293zM-60 0l367 1522h805v-316h-296v-280h227v-316h-227v-295h296v-315h-620v199h-185l-41 -199h-326zM492 496v592l-123 -592h123z" />
    <glyph glyph-name="Hbar" unicode="&#x126;" horiz-adv-x="1030" 
d="M100 0v1522h324v-596h182v596h324v-1522h-324v610h-182v-610h-324zM251 1632v233h527v-233h-527z" />
    <glyph glyph-name="Ncommaaccent" unicode="&#x145;" horiz-adv-x="1030" 
d="M100 0v1522h376l187 -676l-9 676h324v-1522h-344l-220 735l10 -735h-324zM397 -182q0 71 35.5 99.5t109.5 28.5q78 0 113 -40t35 -115q0 -63 -10 -111t-27 -85.5t-39 -65.5t-45 -49l-111 65q19 22 31 39.5t20 34t12.5 34t7.5 39.5q-68 0 -100 30t-32 96z" />
    <glyph glyph-name="Nacute" unicode="&#x143;" horiz-adv-x="1030" 
d="M100 0v1522h376l187 -676l-9 676h324v-1522h-344l-220 735l10 -735h-324zM836 1892l-200 -294h-225l132 294h293z" />
    <glyph glyph-name="Ncaron" unicode="&#x147;" horiz-adv-x="1030" 
d="M100 0v1522h376l187 -676l-9 676h324v-1522h-344l-220 735l10 -735h-324zM515 1849l38 -94l39 94h248l-139 -249h-295l-139 249h248z" />
    <glyph glyph-name="Ntilde" unicode="&#xd1;" horiz-adv-x="1030" 
d="M891 1868q-8 -55 -25.5 -104.5t-47.5 -86.5t-73.5 -59t-102.5 -22q-35 0 -62.5 9.5t-51 21.5t-44.5 21.5t-43 9.5q-32 0 -55 -15t-35 -59l-156 43q9 53 26.5 101.5t47 85.5t72 59t100.5 22q38 0 66.5 -9.5t51.5 -21.5t43.5 -21.5t42.5 -9.5q35 0 56.5 16t32.5 58zM100 0
v1522h376l187 -676l-9 676h324v-1522h-344l-220 735l10 -735h-324z" />
    <glyph glyph-name="Hcircumflex" unicode="&#x124;" horiz-adv-x="1030" 
d="M100 0v1522h324v-596h182v596h324v-1522h-324v610h-182v-610h-324zM228 1600l139 249h295l139 -249h-248l-39 94l-38 -94h-248z" />
    <glyph glyph-name="Icircumflex" unicode="&#xce;" horiz-adv-x="524" 
d="M100 0v1522h324v-1522h-324zM-24 1600l139 249h295l139 -249h-248l-39 94l-38 -94h-248z" />
    <glyph glyph-name="Imacron" unicode="&#x12a;" horiz-adv-x="524" 
d="M100 0v1522h324v-1522h-324zM-1 1632v233h527v-233h-527z" />
    <glyph glyph-name="Iogonek" unicode="&#x12e;" horiz-adv-x="524" 
d="M100 0v1522h324v-1522h-324zM448 -417q-54 -60 -172 -60q-55 0 -105 13.5t-88.5 43.5t-61 77.5t-22.5 115.5q0 56 24.5 97t66.5 73t98 58.5t119 53.5l117 -55q-42 -26 -70.5 -49t-45 -46t-23.5 -48t-7 -55q0 -38 17 -56t45 -18q18 0 29.5 1t21 4t18.5 8t21 12z" />
    <glyph glyph-name="Iacute" unicode="&#xcd;" horiz-adv-x="524" 
d="M100 0v1522h324v-1522h-324zM570 1893l-200 -294h-225l132 294h293z" />
    <glyph glyph-name="Ibreve" unicode="&#x12c;" horiz-adv-x="524" 
d="M100 0v1522h324v-1522h-324zM576 1906q0 -60 -15 -115.5t-51 -98t-96 -68t-150 -25.5q-92 0 -152 25.5t-96 68t-50.5 98t-14.5 115.5h172q3 -28 6 -52.5t15.5 -42.5t40 -28.5t79.5 -10.5q48 0 75 9.5t40.5 27.5t17.5 42.5t7 54.5h172z" />
    <glyph glyph-name="Igrave" unicode="&#xcc;" horiz-adv-x="524" 
d="M100 0v1522h324v-1522h-324zM237 1893l132 -294h-215l-190 294h273z" />
    <glyph glyph-name="Itilde" unicode="&#x128;" horiz-adv-x="524" 
d="M100 0v1522h324v-1522h-324zM610 1868q-8 -55 -25.5 -104.5t-47.5 -86.5t-73.5 -59t-102.5 -22q-35 0 -62.5 9.5t-51 21.5t-44.5 21.5t-43 9.5q-32 0 -55 -15t-35 -59l-156 43q9 53 26.5 101.5t47 85.5t72 59t100.5 22q38 0 66.5 -9.5t51.5 -21.5t43.5 -21.5t42.5 -9.5
q35 0 56.5 16t32.5 58z" />
    <glyph glyph-name="Idieresis" unicode="&#xcf;" horiz-adv-x="524" 
d="M100 0v1522h324v-1522h-324zM-35 1746q0 78 33 112t105 34t106 -34t34 -112q0 -75 -34 -109.5t-106 -34.5t-105 34.5t-33 109.5zM282 1746q0 78 33.5 112t104.5 34q73 0 106.5 -34t33.5 -112q0 -75 -33.5 -109.5t-106.5 -34.5q-71 0 -104.5 34.5t-33.5 109.5z" />
    <glyph glyph-name="afii10027" unicode="&#x419;" horiz-adv-x="1030" 
d="M654 0l9 736l-219 -736h-344v1522h324l-9 -677l187 677h376v-1522h-324zM902 1906q0 -60 -15 -115.5t-51 -98t-96 -68t-150 -25.5q-92 0 -152 25.5t-96 68t-50.5 98t-14.5 115.5h172q3 -28 6 -52.5t15.5 -42.5t40 -28.5t79.5 -10.5q48 0 75 9.5t40.5 27.5t17.5 42.5
t7 54.5h172z" />
    <glyph glyph-name="Idotaccent" unicode="&#x130;" horiz-adv-x="524" 
d="M100 0v1522h324v-1522h-324zM79 1731q0 90 44 130t138 40q96 0 140.5 -40t44.5 -130q0 -88 -44.5 -128t-140.5 -40q-94 0 -138 40t-44 128z" />
    <glyph glyph-name="Emacron" unicode="&#x112;" horiz-adv-x="885" 
d="M100 0v1522h700v-316h-376v-280h307v-316h-307v-295h376v-315h-700zM176 1632v233h527v-233h-527z" />
    <glyph glyph-name="Eogonek" unicode="&#x118;" horiz-adv-x="885" 
d="M100 0v1522h700v-316h-376v-280h307v-316h-307v-295h376v-315h-700zM824 -417q-54 -60 -172 -60q-55 0 -105 13.5t-88.5 43.5t-61 77.5t-22.5 115.5q0 56 24.5 97t66.5 73t98 58.5t119 53.5l117 -55q-42 -26 -70.5 -49t-45 -46t-23.5 -48t-7 -55q0 -38 17 -56t45 -18
q18 0 29.5 1t21 4t18.5 8t21 12z" />
    <glyph glyph-name="Rcommaaccent" unicode="&#x156;" horiz-adv-x="978" 
d="M100 0v1522h407q97 0 171 -22.5t124 -70.5t75.5 -122.5t25.5 -177.5v-178q0 -88 -37 -158.5t-95 -121.5q28 -20 46.5 -40.5t30 -50t18 -72.5t10.5 -108l12 -203q3 -36 9.5 -64.5t15.5 -52.5t18.5 -43.5t18.5 -36.5h-334q-2 3 -9.5 20t-16.5 42.5t-17 58t-10 67.5l-13 205
q-2 50 -11.5 81.5t-23.5 48.5t-32 23t-37 5h-22v-551h-324zM579 1133q0 15 -3 28t-11.5 23t-23.5 16t-38 6h-79v-339h79q46 0 61 24t15 60v182zM364 -182q0 71 35.5 99.5t109.5 28.5q78 0 113 -40t35 -115q0 -63 -10 -111t-27 -85.5t-39 -65.5t-45 -49l-111 65
q19 22 31 39.5t20 34t12.5 34t7.5 39.5q-68 0 -100 30t-32 96z" />
    <glyph glyph-name="Dcaron" unicode="&#x10e;" horiz-adv-x="960" 
d="M495 1522q109 -1 183.5 -31t120.5 -83.5t65.5 -128.5t19.5 -165v-706q0 -91 -20 -166t-66 -129t-121 -83.5t-186 -29.5h-391v1522h395zM424 1206v-891h67q22 0 36 9.5t21.5 24t10 30.5t2.5 29v706q0 13 -2.5 29t-10 30t-21.5 23.5t-36 9.5h-67zM400 1849l38 -94l39 94
h248l-139 -249h-295l-139 249h248z" />
    <glyph glyph-name="Edotaccent" unicode="&#x116;" horiz-adv-x="885" 
d="M100 0v1522h700v-316h-376v-280h307v-316h-307v-295h376v-315h-700zM262 1731q0 90 44 130t138 40q96 0 140.5 -40t44.5 -130q0 -88 -44.5 -128t-140.5 -40q-94 0 -138 40t-44 128z" />
    <glyph glyph-name="Eacute" unicode="&#xc9;" horiz-adv-x="885" 
d="M100 0v1522h700v-316h-376v-280h307v-316h-307v-295h376v-315h-700zM747 1893l-200 -294h-225l132 294h293z" />
    <glyph glyph-name="Ebreve" unicode="&#x114;" horiz-adv-x="885" 
d="M100 0v1522h700v-316h-376v-280h307v-316h-307v-295h376v-315h-700zM752 1906q0 -60 -15 -115.5t-51 -98t-96 -68t-150 -25.5q-92 0 -152 25.5t-96 68t-50.5 98t-14.5 115.5h172q3 -28 6 -52.5t15.5 -42.5t40 -28.5t79.5 -10.5q48 0 75 9.5t40.5 27.5t17.5 42.5t7 54.5
h172z" />
    <glyph glyph-name="Ecaron" unicode="&#x11a;" horiz-adv-x="885" 
d="M100 0v1522h700v-316h-376v-280h307v-316h-307v-295h376v-315h-700zM401 1849l38 -94l39 94h248l-139 -249h-295l-139 249h248z" />
    <glyph glyph-name="Egrave" unicode="&#xc8;" horiz-adv-x="885" 
d="M100 0v1522h700v-316h-376v-280h307v-316h-307v-295h376v-315h-700zM431 1893l132 -294h-215l-190 294h273z" />
    <glyph glyph-name="Lacute" unicode="&#x139;" horiz-adv-x="788" 
d="M100 0v1522h324v-1211h354v-311h-678zM573 1893l-200 -294h-225l132 294h293z" />
    <glyph glyph-name="Lcaron" unicode="&#x13d;" horiz-adv-x="788" 
d="M100 0v1522h324v-1211h354v-311h-678zM223 1847l38 -94l39 94h248l-139 -249h-295l-139 249h248z" />
    <glyph glyph-name="Racute" unicode="&#x154;" horiz-adv-x="978" 
d="M100 0v1522h407q97 0 171 -22.5t124 -70.5t75.5 -122.5t25.5 -177.5v-178q0 -88 -37 -158.5t-95 -121.5q28 -20 46.5 -40.5t30 -50t18 -72.5t10.5 -108l12 -203q3 -36 9.5 -64.5t15.5 -52.5t18.5 -43.5t18.5 -36.5h-334q-2 3 -9.5 20t-16.5 42.5t-17 58t-10 67.5l-13 205
q-2 50 -11.5 81.5t-23.5 48.5t-32 23t-37 5h-22v-551h-324zM579 1133q0 15 -3 28t-11.5 23t-23.5 16t-38 6h-79v-339h79q46 0 61 24t15 60v182zM742 1893l-200 -294h-225l132 294h293z" />
    <glyph glyph-name="Rcaron" unicode="&#x158;" horiz-adv-x="978" 
d="M100 0v1522h407q97 0 171 -22.5t124 -70.5t75.5 -122.5t25.5 -177.5v-178q0 -88 -37 -158.5t-95 -121.5q28 -20 46.5 -40.5t30 -50t18 -72.5t10.5 -108l12 -203q3 -36 9.5 -64.5t15.5 -52.5t18.5 -43.5t18.5 -36.5h-334q-2 3 -9.5 20t-16.5 42.5t-17 58t-10 67.5l-13 205
q-2 50 -11.5 81.5t-23.5 48.5t-32 23t-37 5h-22v-551h-324zM579 1133q0 15 -3 28t-11.5 23t-23.5 16t-38 6h-79v-339h79q46 0 61 24t15 60v182zM400 1849l38 -94l39 94h248l-139 -249h-295l-139 249h248z" />
    <glyph glyph-name="Edieresis" unicode="&#xcb;" horiz-adv-x="885" 
d="M100 0v1522h700v-316h-376v-280h307v-316h-307v-295h376v-315h-700zM142 1746q0 78 33 112t105 34t106 -34t34 -112q0 -75 -34 -109.5t-106 -34.5t-105 34.5t-33 109.5zM459 1746q0 78 33.5 112t104.5 34q73 0 106.5 -34t33.5 -112q0 -75 -33.5 -109.5t-106.5 -34.5
q-71 0 -104.5 34.5t-33.5 109.5z" />
    <glyph glyph-name="Ecircumflex" unicode="&#xca;" horiz-adv-x="885" 
d="M100 0v1522h700v-316h-376v-280h307v-316h-307v-295h376v-315h-700zM153 1600l139 249h295l139 -249h-248l-39 94l-38 -94h-248z" />
    <glyph glyph-name="Ldot" unicode="&#x13f;" horiz-adv-x="788" 
d="M479 750q0 90 44 130t138 40q96 0 140.5 -40t44.5 -130q0 -88 -44.5 -128t-140.5 -40q-94 0 -138 40t-44 128zM100 0v1522h324v-1211h354v-311h-678z" />
    <glyph glyph-name="Cacute" unicode="&#x106;" horiz-adv-x="932" 
d="M862 511v-132q0 -89 -20.5 -163t-66.5 -126.5t-121.5 -82t-184.5 -29.5v-1q-111 0 -186 29.5t-121.5 83.5t-66.5 129t-20 166v754q0 90 20 164.5t66 128.5t121 84t185 30l1 1q110 0 185.5 -29.5t122 -83t66.5 -128.5t20 -165v-128h-324v127q0 13 -2.5 29t-10 29.5t-21 23
t-35.5 9.5q-23 0 -36.5 -9.5t-21 -23.5t-10 -30t-2.5 -29v-754q0 -13 2.5 -29t10 -30t21 -23.5t36.5 -9.5q21 0 34.5 8.5t21 21.5t10.5 28.5t3 28.5v131h324zM776 1893l-200 -294h-225l132 294h293z" />
    <glyph glyph-name="Ccaron" unicode="&#x10c;" horiz-adv-x="932" 
d="M862 511v-132q0 -89 -20.5 -163t-66.5 -126.5t-121.5 -82t-184.5 -29.5v-1q-111 0 -186 29.5t-121.5 83.5t-66.5 129t-20 166v754q0 90 20 164.5t66 128.5t121 84t185 30l1 1q110 0 185.5 -29.5t122 -83t66.5 -128.5t20 -165v-128h-324v127q0 13 -2.5 29t-10 29.5t-21 23
t-35.5 9.5q-23 0 -36.5 -9.5t-21 -23.5t-10 -30t-2.5 -29v-754q0 -13 2.5 -29t10 -30t21 -23.5t36.5 -9.5q21 0 34.5 8.5t21 21.5t10.5 28.5t3 28.5v131h324zM430 1849l38 -94l39 94h248l-139 -249h-295l-139 249h248z" />
    <glyph glyph-name="Ccedilla" unicode="&#xc7;" horiz-adv-x="932" 
d="M862 511v-132q0 -89 -20.5 -163t-66.5 -126.5t-121.5 -82t-184.5 -29.5v-1q-111 0 -186 29.5t-121.5 83.5t-66.5 129t-20 166v754q0 90 20 164.5t66 128.5t121 84t185 30l1 1q110 0 185.5 -29.5t122 -83t66.5 -128.5t20 -165v-128h-324v127q0 13 -2.5 29t-10 29.5t-21 23
t-35.5 9.5q-23 0 -36.5 -9.5t-21 -23.5t-10 -30t-2.5 -29v-754q0 -13 2.5 -29t10 -30t21 -23.5t36.5 -9.5q21 0 34.5 8.5t21 21.5t10.5 28.5t3 28.5v131h324zM286 -283q19 -11 36.5 -20.5t38.5 -17t48 -11.5t63 -4q38 0 65.5 15t27.5 50q0 15 -9.5 25t-24.5 16.5t-34.5 9.5
t-39.5 3t-39 -2.5t-33 -7.5l2 272h149v-125q11 2 22 5q10 2 23 4t29 2q45 0 79.5 -16.5t57 -42.5t34 -60t11.5 -68q0 -54 -22 -95.5t-62.5 -69.5t-98 -42.5t-128.5 -14.5q-41 0 -77 8t-66.5 20.5t-54.5 28t-41 30.5z" />
    <glyph glyph-name="Ccircumflex" unicode="&#x108;" horiz-adv-x="932" 
d="M862 511v-132q0 -89 -20.5 -163t-66.5 -126.5t-121.5 -82t-184.5 -29.5v-1q-111 0 -186 29.5t-121.5 83.5t-66.5 129t-20 166v754q0 90 20 164.5t66 128.5t121 84t185 30l1 1q110 0 185.5 -29.5t122 -83t66.5 -128.5t20 -165v-128h-324v127q0 13 -2.5 29t-10 29.5t-21 23
t-35.5 9.5q-23 0 -36.5 -9.5t-21 -23.5t-10 -30t-2.5 -29v-754q0 -13 2.5 -29t10 -30t21 -23.5t36.5 -9.5q21 0 34.5 8.5t21 21.5t10.5 28.5t3 28.5v131h324zM182 1600l139 249h295l139 -249h-248l-39 94l-38 -94h-248z" />
    <glyph glyph-name="Cdotaccent" unicode="&#x10a;" horiz-adv-x="932" 
d="M862 511v-132q0 -89 -20.5 -163t-66.5 -126.5t-121.5 -82t-184.5 -29.5v-1q-111 0 -186 29.5t-121.5 83.5t-66.5 129t-20 166v754q0 90 20 164.5t66 128.5t121 84t185 30l1 1q110 0 185.5 -29.5t122 -83t66.5 -128.5t20 -165v-128h-324v127q0 13 -2.5 29t-10 29.5t-21 23
t-35.5 9.5q-23 0 -36.5 -9.5t-21 -23.5t-10 -30t-2.5 -29v-754q0 -13 2.5 -29t10 -30t21 -23.5t36.5 -9.5q21 0 34.5 8.5t21 21.5t10.5 28.5t3 28.5v131h324zM285 1731q0 90 44 130t138 40q96 0 140.5 -40t44.5 -130q0 -88 -44.5 -128t-140.5 -40q-94 0 -138 40t-44 128z
" />
    <glyph glyph-name="Gbreve" unicode="&#x11e;" horiz-adv-x="937" 
d="M463 858h399v-479q0 -89 -20.5 -163t-66.5 -126.5t-121.5 -82t-184.5 -29.5v-1q-111 0 -186 29.5t-121.5 83.5t-66.5 129t-20 166v754q0 90 20 164.5t66 128.5t121 84t185 30l1 1q110 0 185.5 -29.5t122 -83t66.5 -128.5t20 -165v-128h-324v127q0 13 -2.5 29t-10 29.5
t-21.5 23t-36 9.5t-35.5 -9.5t-21 -23.5t-10 -30t-2.5 -29v-754q0 -13 2.5 -29t10 -30t21 -23.5t36.5 -9.5q21 0 34.5 8.5t21 21.5t10.5 28.5t3 28.5v167h-75v311zM781 1906q0 -60 -15 -115.5t-51 -98t-96 -68t-150 -25.5q-92 0 -152 25.5t-96 68t-50.5 98t-14.5 115.5h172
q3 -28 6 -52.5t15.5 -42.5t40 -28.5t79.5 -10.5q48 0 75 9.5t40.5 27.5t17.5 42.5t7 54.5h172z" />
    <glyph glyph-name="Gcircumflex" unicode="&#x11c;" horiz-adv-x="937" 
d="M463 858h399v-479q0 -89 -20.5 -163t-66.5 -126.5t-121.5 -82t-184.5 -29.5v-1q-111 0 -186 29.5t-121.5 83.5t-66.5 129t-20 166v754q0 90 20 164.5t66 128.5t121 84t185 30l1 1q110 0 185.5 -29.5t122 -83t66.5 -128.5t20 -165v-128h-324v127q0 13 -2.5 29t-10 29.5
t-21.5 23t-36 9.5t-35.5 -9.5t-21 -23.5t-10 -30t-2.5 -29v-754q0 -13 2.5 -29t10 -30t21 -23.5t36.5 -9.5q21 0 34.5 8.5t21 21.5t10.5 28.5t3 28.5v167h-75v311zM182 1600l139 249h295l139 -249h-248l-39 94l-38 -94h-248z" />
    <glyph glyph-name="Gcommaaccent" unicode="&#x122;" horiz-adv-x="937" 
d="M463 858h399v-479q0 -89 -20.5 -163t-66.5 -126.5t-121.5 -82t-184.5 -29.5v-1q-111 0 -186 29.5t-121.5 83.5t-66.5 129t-20 166v754q0 90 20 164.5t66 128.5t121 84t185 30l1 1q110 0 185.5 -29.5t122 -83t66.5 -128.5t20 -165v-128h-324v127q0 13 -2.5 29t-10 29.5
t-21.5 23t-36 9.5t-35.5 -9.5t-21 -23.5t-10 -30t-2.5 -29v-754q0 -13 2.5 -29t10 -30t21 -23.5t36.5 -9.5q21 0 34.5 8.5t21 21.5t10.5 28.5t3 28.5v167h-75v311zM322 -182q0 71 35.5 99.5t109.5 28.5q78 0 113 -40t35 -115q0 -63 -10 -111t-27 -85.5t-39 -65.5t-45 -49
l-111 65q19 22 31 39.5t20 34t12.5 34t7.5 39.5q-68 0 -100 30t-32 96z" />
    <glyph glyph-name="Gdotaccent" unicode="&#x120;" horiz-adv-x="937" 
d="M463 858h399v-479q0 -89 -20.5 -163t-66.5 -126.5t-121.5 -82t-184.5 -29.5v-1q-111 0 -186 29.5t-121.5 83.5t-66.5 129t-20 166v754q0 90 20 164.5t66 128.5t121 84t185 30l1 1q110 0 185.5 -29.5t122 -83t66.5 -128.5t20 -165v-128h-324v127q0 13 -2.5 29t-10 29.5
t-21.5 23t-36 9.5t-35.5 -9.5t-21 -23.5t-10 -30t-2.5 -29v-754q0 -13 2.5 -29t10 -30t21 -23.5t36.5 -9.5q21 0 34.5 8.5t21 21.5t10.5 28.5t3 28.5v167h-75v311zM285 1731q0 90 44 130t138 40q96 0 140.5 -40t44.5 -130q0 -88 -44.5 -128t-140.5 -40q-94 0 -138 40
t-44 128z" />
    <glyph glyph-name="Oacute" unicode="&#xd3;" horiz-adv-x="928" 
d="M70 1139q0 90 20 165t66.5 129t121.5 83.5t186 29.5t186 -29.5t121.5 -83.5t66.5 -129t20 -166v-754q0 -90 -20 -165t-66.5 -129t-121.5 -83.5t-186 -29.5t-186 29.5t-121.5 83.5t-66.5 129t-20 166v754zM464 293q1 0 1.5 -0.5t1.5 -0.5q21 1 34.5 10.5t20.5 23t9.5 29.5
t2.5 29v754q0 13 -2.5 29t-10 30t-21.5 23.5t-36 9.5q-3 0 -4 1q-21 -1 -34 -11t-20 -23.5t-9.5 -29t-2.5 -28.5v-754q0 -13 2.5 -29t10 -30t21 -23.5t36.5 -9.5zM766 1893l-200 -294h-225l132 294h293z" />
    <glyph glyph-name="Obreve" unicode="&#x14e;" horiz-adv-x="928" 
d="M70 1139q0 90 20 165t66.5 129t121.5 83.5t186 29.5t186 -29.5t121.5 -83.5t66.5 -129t20 -166v-754q0 -90 -20 -165t-66.5 -129t-121.5 -83.5t-186 -29.5t-186 29.5t-121.5 83.5t-66.5 129t-20 166v754zM464 293q1 0 1.5 -0.5t1.5 -0.5q21 1 34.5 10.5t20.5 23t9.5 29.5
t2.5 29v754q0 13 -2.5 29t-10 30t-21.5 23.5t-36 9.5q-3 0 -4 1q-21 -1 -34 -11t-20 -23.5t-9.5 -29t-2.5 -28.5v-754q0 -13 2.5 -29t10 -30t21 -23.5t36.5 -9.5zM775 1906q0 -60 -15 -115.5t-51 -98t-96 -68t-150 -25.5q-92 0 -152 25.5t-96 68t-50.5 98t-14.5 115.5h172
q3 -28 6 -52.5t15.5 -42.5t40 -28.5t79.5 -10.5q48 0 75 9.5t40.5 27.5t17.5 42.5t7 54.5h172z" />
    <glyph glyph-name="Ocircumflex" unicode="&#xd4;" horiz-adv-x="928" 
d="M70 1139q0 90 20 165t66.5 129t121.5 83.5t186 29.5t186 -29.5t121.5 -83.5t66.5 -129t20 -166v-754q0 -90 -20 -165t-66.5 -129t-121.5 -83.5t-186 -29.5t-186 29.5t-121.5 83.5t-66.5 129t-20 166v754zM464 293q1 0 1.5 -0.5t1.5 -0.5q21 1 34.5 10.5t20.5 23t9.5 29.5
t2.5 29v754q0 13 -2.5 29t-10 30t-21.5 23.5t-36 9.5q-3 0 -4 1q-21 -1 -34 -11t-20 -23.5t-9.5 -29t-2.5 -28.5v-754q0 -13 2.5 -29t10 -30t21 -23.5t36.5 -9.5zM176 1600l139 249h295l139 -249h-248l-39 94l-38 -94h-248z" />
    <glyph glyph-name="Odieresis" unicode="&#xd6;" horiz-adv-x="928" 
d="M70 1139q0 90 20 165t66.5 129t121.5 83.5t186 29.5t186 -29.5t121.5 -83.5t66.5 -129t20 -166v-754q0 -90 -20 -165t-66.5 -129t-121.5 -83.5t-186 -29.5t-186 29.5t-121.5 83.5t-66.5 129t-20 166v754zM464 293q1 0 1.5 -0.5t1.5 -0.5q21 1 34.5 10.5t20.5 23t9.5 29.5
t2.5 29v754q0 13 -2.5 29t-10 30t-21.5 23.5t-36 9.5q-3 0 -4 1q-21 -1 -34 -11t-20 -23.5t-9.5 -29t-2.5 -28.5v-754q0 -13 2.5 -29t10 -30t21 -23.5t36.5 -9.5zM165 1746q0 78 33 112t105 34t106 -34t34 -112q0 -75 -34 -109.5t-106 -34.5t-105 34.5t-33 109.5zM482 1746
q0 78 33.5 112t104.5 34q73 0 106.5 -34t33.5 -112q0 -75 -33.5 -109.5t-106.5 -34.5q-71 0 -104.5 34.5t-33.5 109.5z" />
    <glyph glyph-name="Ograve" unicode="&#xd2;" horiz-adv-x="928" 
d="M70 1139q0 90 20 165t66.5 129t121.5 83.5t186 29.5t186 -29.5t121.5 -83.5t66.5 -129t20 -166v-754q0 -90 -20 -165t-66.5 -129t-121.5 -83.5t-186 -29.5t-186 29.5t-121.5 83.5t-66.5 129t-20 166v754zM464 293q1 0 1.5 -0.5t1.5 -0.5q21 1 34.5 10.5t20.5 23t9.5 29.5
t2.5 29v754q0 13 -2.5 29t-10 30t-21.5 23.5t-36 9.5q-3 0 -4 1q-21 -1 -34 -11t-20 -23.5t-9.5 -29t-2.5 -28.5v-754q0 -13 2.5 -29t10 -30t21 -23.5t36.5 -9.5zM443 1893l132 -294h-215l-190 294h273z" />
    <glyph glyph-name="Ohungarumlaut" unicode="&#x150;" horiz-adv-x="928" 
d="M70 1139q0 90 20 165t66.5 129t121.5 83.5t186 29.5t186 -29.5t121.5 -83.5t66.5 -129t20 -166v-754q0 -90 -20 -165t-66.5 -129t-121.5 -83.5t-186 -29.5t-186 29.5t-121.5 83.5t-66.5 129t-20 166v754zM464 293q1 0 1.5 -0.5t1.5 -0.5q21 1 34.5 10.5t20.5 23t9.5 29.5
t2.5 29v754q0 13 -2.5 29t-10 30t-21.5 23.5t-36 9.5q-3 0 -4 1q-21 -1 -34 -11t-20 -23.5t-9.5 -29t-2.5 -28.5v-754q0 -13 2.5 -29t10 -30t21 -23.5t36.5 -9.5zM598 1893l-190 -294h-215l132 294h273zM908 1893l-190 -294h-215l132 294h273z" />
    <glyph glyph-name="Omacron" unicode="&#x14c;" horiz-adv-x="928" 
d="M70 1139q0 90 20 165t66.5 129t121.5 83.5t186 29.5t186 -29.5t121.5 -83.5t66.5 -129t20 -166v-754q0 -90 -20 -165t-66.5 -129t-121.5 -83.5t-186 -29.5t-186 29.5t-121.5 83.5t-66.5 129t-20 166v754zM464 293q1 0 1.5 -0.5t1.5 -0.5q21 1 34.5 10.5t20.5 23t9.5 29.5
t2.5 29v754q0 13 -2.5 29t-10 30t-21.5 23.5t-36 9.5q-3 0 -4 1q-21 -1 -34 -11t-20 -23.5t-9.5 -29t-2.5 -28.5v-754q0 -13 2.5 -29t10 -30t21 -23.5t36.5 -9.5zM199 1632v233h527v-233h-527z" />
    <glyph glyph-name="Otilde" unicode="&#xd5;" horiz-adv-x="928" 
d="M70 1139q0 90 20 165t66.5 129t121.5 83.5t186 29.5t186 -29.5t121.5 -83.5t66.5 -129t20 -166v-754q0 -90 -20 -165t-66.5 -129t-121.5 -83.5t-186 -29.5t-186 29.5t-121.5 83.5t-66.5 129t-20 166v754zM464 293q1 0 1.5 -0.5t1.5 -0.5q21 1 34.5 10.5t20.5 23t9.5 29.5
t2.5 29v754q0 13 -2.5 29t-10 30t-21.5 23.5t-36 9.5q-3 0 -4 1q-21 -1 -34 -11t-20 -23.5t-9.5 -29t-2.5 -28.5v-754q0 -13 2.5 -29t10 -30t21 -23.5t36.5 -9.5zM810 1868q-8 -55 -25.5 -104.5t-47.5 -86.5t-73.5 -59t-102.5 -22q-35 0 -62.5 9.5t-51 21.5t-44.5 21.5
t-43 9.5q-32 0 -55 -15t-35 -59l-156 43q9 53 26.5 101.5t47 85.5t72 59t100.5 22q38 0 66.5 -9.5t51.5 -21.5t43.5 -21.5t42.5 -9.5q35 0 56.5 16t32.5 58z" />
    <glyph glyph-name="Oslashacute" unicode="&#x1fe;" horiz-adv-x="928" 
d="M70 1139q0 90 20 165t66.5 129t121.5 83.5t186 29.5t186 -29.5t121.5 -83.5t66.5 -129t20 -166v-754q0 -90 -20 -165t-66.5 -129t-121.5 -83.5t-186 -29.5t-186 29.5t-121.5 83.5t-66.5 129t-20 166v754zM464 293q1 0 1.5 -0.5t1.5 -0.5q21 1 34.5 10.5t20.5 23t9.5 29.5
t2.5 29v754q0 13 -2.5 29t-10 30t-21.5 23.5t-36 9.5q-3 0 -4 1q-21 -1 -34 -11t-20 -23.5t-9.5 -29t-2.5 -28.5v-754q0 -13 2.5 -29t10 -30t21 -23.5t36.5 -9.5zM414 -80h-311l405 1679h314zM675 1893l-200 -294h-225l132 294h293z" />
    <glyph glyph-name="Omegatonos" unicode="&#x38f;" horiz-adv-x="929" 
d="M87 0v311h84l-3 80q-56 54 -76.5 137t-20.5 187v424q0 90 20 165t66.5 129t121.5 83.5t186 29.5t186 -29.5t121.5 -83.5t66.5 -129t20 -166v-424q0 -104 -20.5 -186.5t-76.5 -136.5l-3 -80h84v-311h-348v622q15 0 23 9.5t12 23.5t4.5 30t0.5 29v424q0 13 -2.5 29t-10 30
t-21.5 23.5t-36 9.5q-3 0 -4 1q-21 -1 -34 -11t-20 -23.5t-9.5 -29t-2.5 -28.5v-424q0 -13 0.5 -29t4.5 -30.5t12 -24t23 -9.5v-622h-348zM128 1572l-38 -294h-195l-30 294h263z" />
    <glyph glyph-name="Oslash.fat" horiz-adv-x="913" 
d="M195 -98l-136 59l670 1667l131 -59z" />
    <glyph glyph-name="Dcroat" unicode="&#x110;" horiz-adv-x="940" 
d="M472 1522q109 -1 183.5 -31t120.5 -83.5t65.5 -128.5t19.5 -165v-706q0 -91 -20 -166t-66 -129t-121 -83.5t-186 -29.5h-391v1522h395zM401 1206v-891h67q22 0 36 9.5t21.5 24t10 30.5t2.5 29v706q0 13 -2.5 29t-10 30t-21.5 23.5t-36 9.5h-67zM-38 628v233h527v-233
h-527z" />
    <glyph glyph-name="Wacute" unicode="&#x1e82;" horiz-adv-x="1372" 
d="M686 815l-76 -815h-401l-172 1523h326l61 -838l72 838h380l72 -838l61 838h326l-172 -1523h-401zM995 1893l-200 -294h-225l132 294h293z" />
    <glyph glyph-name="Wgrave" unicode="&#x1e80;" horiz-adv-x="1372" 
d="M686 815l-76 -815h-401l-172 1523h326l61 -838l72 838h380l72 -838l61 838h326l-172 -1523h-401zM649 1893l132 -294h-215l-190 294h273z" />
    <glyph glyph-name="Wdieresis" unicode="&#x1e84;" horiz-adv-x="1372" 
d="M686 815l-76 -815h-401l-172 1523h326l61 -838l72 838h380l72 -838l61 838h326l-172 -1523h-401zM389 1746q0 78 33 112t105 34t106 -34t34 -112q0 -75 -34 -109.5t-106 -34.5t-105 34.5t-33 109.5zM706 1746q0 78 33.5 112t104.5 34q73 0 106.5 -34t33.5 -112
q0 -75 -33.5 -109.5t-106.5 -34.5q-71 0 -104.5 34.5t-33.5 109.5z" />
    <glyph glyph-name="Wcircumflex" unicode="&#x174;" horiz-adv-x="1372" 
d="M686 815l-76 -815h-401l-172 1523h326l61 -838l72 838h380l72 -838l61 838h326l-172 -1523h-401zM400 1600l139 249h295l139 -249h-248l-39 94l-38 -94h-248z" />
    <glyph glyph-name="afii10148" unicode="&#x474;" horiz-adv-x="0" 
 />
    <glyph glyph-name="Tcommaaccent" unicode="&#x162;" horiz-adv-x="800" 
d="M563 1206v-1206h-326v1206h-227v316h780v-316h-227zM253 -182q0 71 35.5 99.5t109.5 28.5q78 0 113 -40t35 -115q0 -63 -10 -111t-27 -85.5t-39 -65.5t-45 -49l-111 65q19 22 31 39.5t20 34t12.5 34t7.5 39.5q-68 0 -100 30t-32 96z" />
    <glyph glyph-name="Tbar" unicode="&#x166;" horiz-adv-x="800" 
d="M563 1206v-1206h-326v1206h-227v316h780v-316h-227zM136 1632v233h527v-233h-527z" />
    <glyph glyph-name="Tcaron" unicode="&#x164;" horiz-adv-x="800" 
d="M563 1206v-1206h-326v1206h-227v316h780v-316h-227zM361 1849l38 -94l39 94h248l-139 -249h-295l-139 249h248z" />
    <glyph glyph-name="Sacute" unicode="&#x15a;" horiz-adv-x="935" 
d="M866 365q0 -192 -96 -290t-301 -98q-107 0 -182.5 24t-123.5 73.5t-70.5 124t-22.5 176.5v136h323v-136q0 -38 16 -60t56 -22q46 0 61 21t15 55v12v34q0 25 -1.5 46.5t-8.5 40.5t-21 36.5t-39 34.5l-141 99q-86 60 -135 109.5t-73 100.5t-30 108.5t-6 131.5v33
q0 108 26 183t76 121t123 66.5t168 20.5q97 0 168.5 -21.5t118.5 -68t70.5 -121t23.5 -180.5v-142h-323v142q0 38 -12 57t-50 19q-35 0 -50 -19t-15 -57v-25q0 -19 3 -40.5t10.5 -42.5t20.5 -39.5t33 -30.5l119 -72q82 -50 134 -101.5t81.5 -108.5t41 -120.5t13.5 -138.5
v-71zM785 1893l-200 -294h-225l132 294h293z" />
    <glyph glyph-name="Scaron" unicode="&#x160;" horiz-adv-x="935" 
d="M866 365q0 -192 -96 -290t-301 -98q-107 0 -182.5 24t-123.5 73.5t-70.5 124t-22.5 176.5v136h323v-136q0 -38 16 -60t56 -22q46 0 61 21t15 55v12v34q0 25 -1.5 46.5t-8.5 40.5t-21 36.5t-39 34.5l-141 99q-86 60 -135 109.5t-73 100.5t-30 108.5t-6 131.5v33
q0 108 26 183t76 121t123 66.5t168 20.5q97 0 168.5 -21.5t118.5 -68t70.5 -121t23.5 -180.5v-142h-323v142q0 38 -12 57t-50 19q-35 0 -50 -19t-15 -57v-25q0 -19 3 -40.5t10.5 -42.5t20.5 -39.5t33 -30.5l119 -72q82 -50 134 -101.5t81.5 -108.5t41 -120.5t13.5 -138.5
v-71zM456 1849l38 -94l39 94h248l-139 -249h-295l-139 249h248z" />
    <glyph glyph-name="Scedilla" unicode="&#x15e;" horiz-adv-x="935" 
d="M866 365q0 -192 -96 -290t-301 -98q-107 0 -182.5 24t-123.5 73.5t-70.5 124t-22.5 176.5v136h323v-136q0 -38 16 -60t56 -22q46 0 61 21t15 55v12v34q0 25 -1.5 46.5t-8.5 40.5t-21 36.5t-39 34.5l-141 99q-86 60 -135 109.5t-73 100.5t-30 108.5t-6 131.5v33
q0 108 26 183t76 121t123 66.5t168 20.5q97 0 168.5 -21.5t118.5 -68t70.5 -121t23.5 -180.5v-142h-323v142q0 38 -12 57t-50 19q-35 0 -50 -19t-15 -57v-25q0 -19 3 -40.5t10.5 -42.5t20.5 -39.5t33 -30.5l119 -72q82 -50 134 -101.5t81.5 -108.5t41 -120.5t13.5 -138.5
v-71zM323 -283q19 -11 36.5 -20.5t38.5 -17t48 -11.5t63 -4q38 0 65.5 15t27.5 50q0 15 -9.5 25t-24.5 16.5t-34.5 9.5t-39.5 3t-39 -2.5t-33 -7.5l2 272h149v-125q11 2 22 5q10 2 23 4t29 2q45 0 79.5 -16.5t57 -42.5t34 -60t11.5 -68q0 -54 -22 -95.5t-62.5 -69.5
t-98 -42.5t-128.5 -14.5q-41 0 -77 8t-66.5 20.5t-54.5 28t-41 30.5z" />
    <glyph glyph-name="Scircumflex" unicode="&#x15c;" horiz-adv-x="935" 
d="M866 365q0 -192 -96 -290t-301 -98q-107 0 -182.5 24t-123.5 73.5t-70.5 124t-22.5 176.5v136h323v-136q0 -38 16 -60t56 -22q46 0 61 21t15 55v12v34q0 25 -1.5 46.5t-8.5 40.5t-21 36.5t-39 34.5l-141 99q-86 60 -135 109.5t-73 100.5t-30 108.5t-6 131.5v33
q0 108 26 183t76 121t123 66.5t168 20.5q97 0 168.5 -21.5t118.5 -68t70.5 -121t23.5 -180.5v-142h-323v142q0 38 -12 57t-50 19q-35 0 -50 -19t-15 -57v-25q0 -19 3 -40.5t10.5 -42.5t20.5 -39.5t33 -30.5l119 -72q82 -50 134 -101.5t81.5 -108.5t41 -120.5t13.5 -138.5
v-71zM208 1600l139 249h295l139 -249h-248l-39 94l-38 -94h-248z" />
    <glyph glyph-name="Scommaaccent" unicode="&#x218;" horiz-adv-x="935" 
d="M866 365q0 -192 -96 -290t-301 -98q-107 0 -182.5 24t-123.5 73.5t-70.5 124t-22.5 176.5v136h323v-136q0 -38 16 -60t56 -22q46 0 61 21t15 55v12v34q0 25 -1.5 46.5t-8.5 40.5t-21 36.5t-39 34.5l-141 99q-86 60 -135 109.5t-73 100.5t-30 108.5t-6 131.5v33
q0 108 26 183t76 121t123 66.5t168 20.5q97 0 168.5 -21.5t118.5 -68t70.5 -121t23.5 -180.5v-142h-323v142q0 38 -12 57t-50 19q-35 0 -50 -19t-15 -57v-25q0 -19 3 -40.5t10.5 -42.5t20.5 -39.5t33 -30.5l119 -72q82 -50 134 -101.5t81.5 -108.5t41 -120.5t13.5 -138.5
v-71zM383 -182q0 71 35.5 99.5t109.5 28.5q78 0 113 -40t35 -115q0 -63 -10 -111t-27 -85.5t-39 -65.5t-45 -49l-111 65q19 22 31 39.5t20 34t12.5 34t7.5 39.5q-68 0 -100 30t-32 96z" />
    <glyph glyph-name="Uogonek" unicode="&#x172;" horiz-adv-x="956" 
d="M871 1522v-1158q0 -91 -20 -162.5t-66 -121.5t-121 -76.5t-186 -26.5t-186 26.5t-121 76.5t-66 121.5t-20 162.5v1158h323v-1158q0 -13 2.5 -26t10 -23t21.5 -16.5t36 -6.5t36 6.5t21.5 16.5t10 23t2.5 26v1158h323zM725 -397q-54 -60 -172 -60q-55 0 -105 13.5
t-88.5 43.5t-61 77.5t-22.5 115.5q0 56 24.5 97t66.5 73t98 58.5t119 53.5l117 -55q-42 -26 -70.5 -49t-45 -46t-23.5 -48t-7 -55q0 -38 17 -56t45 -18q18 0 29.5 1t21 4t18.5 8t21 12z" />
    <glyph glyph-name="Uring" unicode="&#x16e;" horiz-adv-x="956" 
d="M871 1522v-1158q0 -91 -20 -162.5t-66 -121.5t-121 -76.5t-186 -26.5t-186 26.5t-121 76.5t-66 121.5t-20 162.5v1158h323v-1158q0 -13 2.5 -26t10 -23t21.5 -16.5t36 -6.5t36 6.5t21.5 16.5t10 23t2.5 26v1158h323zM223 1813q0 124 62 180t192 56q132 0 194 -56t62 -180
q0 -121 -61.5 -177.5t-194.5 -56.5q-131 0 -192.5 56.5t-61.5 177.5zM420 1814q0 -28 13.5 -41.5t44.5 -13.5q30 0 43.5 13.5t13.5 41.5q0 27 -13.5 39.5t-43.5 12.5q-31 0 -44.5 -12.5t-13.5 -39.5z" />
    <glyph glyph-name="Uacute" unicode="&#xda;" horiz-adv-x="956" 
d="M871 1522v-1158q0 -91 -20 -162.5t-66 -121.5t-121 -76.5t-186 -26.5t-186 26.5t-121 76.5t-66 121.5t-20 162.5v1158h323v-1158q0 -13 2.5 -26t10 -23t21.5 -16.5t36 -6.5t36 6.5t21.5 16.5t10 23t2.5 26v1158h323zM793 1893l-200 -294h-225l132 294h293z" />
    <glyph glyph-name="Ubreve" unicode="&#x16c;" horiz-adv-x="956" 
d="M871 1522v-1158q0 -91 -20 -162.5t-66 -121.5t-121 -76.5t-186 -26.5t-186 26.5t-121 76.5t-66 121.5t-20 162.5v1158h323v-1158q0 -13 2.5 -26t10 -23t21.5 -16.5t36 -6.5t36 6.5t21.5 16.5t10 23t2.5 26v1158h323zM790 1906q0 -60 -15 -115.5t-51 -98t-96 -68
t-150 -25.5q-92 0 -152 25.5t-96 68t-50.5 98t-14.5 115.5h172q3 -28 6 -52.5t15.5 -42.5t40 -28.5t79.5 -10.5q48 0 75 9.5t40.5 27.5t17.5 42.5t7 54.5h172z" />
    <glyph glyph-name="Ugrave" unicode="&#xd9;" horiz-adv-x="956" 
d="M871 1522v-1158q0 -91 -20 -162.5t-66 -121.5t-121 -76.5t-186 -26.5t-186 26.5t-121 76.5t-66 121.5t-20 162.5v1158h323v-1158q0 -13 2.5 -26t10 -23t21.5 -16.5t36 -6.5t36 6.5t21.5 16.5t10 23t2.5 26v1158h323zM455 1893l132 -294h-215l-190 294h273z" />
    <glyph glyph-name="Utilde" unicode="&#x168;" horiz-adv-x="956" 
d="M871 1522v-1158q0 -91 -20 -162.5t-66 -121.5t-121 -76.5t-186 -26.5t-186 26.5t-121 76.5t-66 121.5t-20 162.5v1158h323v-1158q0 -13 2.5 -26t10 -23t21.5 -16.5t36 -6.5t36 6.5t21.5 16.5t10 23t2.5 26v1158h323zM826 1868q-8 -55 -25.5 -104.5t-47.5 -86.5t-73.5 -59
t-102.5 -22q-35 0 -62.5 9.5t-51 21.5t-44.5 21.5t-43 9.5q-32 0 -55 -15t-35 -59l-156 43q9 53 26.5 101.5t47 85.5t72 59t100.5 22q38 0 66.5 -9.5t51.5 -21.5t43.5 -21.5t42.5 -9.5q35 0 56.5 16t32.5 58z" />
    <glyph glyph-name="Udieresis" unicode="&#xdc;" horiz-adv-x="956" 
d="M871 1522v-1158q0 -91 -20 -162.5t-66 -121.5t-121 -76.5t-186 -26.5t-186 26.5t-121 76.5t-66 121.5t-20 162.5v1158h323v-1158q0 -13 2.5 -26t10 -23t21.5 -16.5t36 -6.5t36 6.5t21.5 16.5t10 23t2.5 26v1158h323zM180 1746q0 78 33 112t105 34t106 -34t34 -112
q0 -75 -34 -109.5t-106 -34.5t-105 34.5t-33 109.5zM497 1746q0 78 33.5 112t104.5 34q73 0 106.5 -34t33.5 -112q0 -75 -33.5 -109.5t-106.5 -34.5q-71 0 -104.5 34.5t-33.5 109.5z" />
    <glyph glyph-name="Ucircumflex" unicode="&#xdb;" horiz-adv-x="956" 
d="M871 1522v-1158q0 -91 -20 -162.5t-66 -121.5t-121 -76.5t-186 -26.5t-186 26.5t-121 76.5t-66 121.5t-20 162.5v1158h323v-1158q0 -13 2.5 -26t10 -23t21.5 -16.5t36 -6.5t36 6.5t21.5 16.5t10 23t2.5 26v1158h323zM191 1600l139 249h295l139 -249h-248l-39 94l-38 -94
h-248z" />
    <glyph glyph-name="ccircumflex" unicode="&#x109;" horiz-adv-x="911" 
d="M527 406h314v-25q0 -91 -18 -165.5t-62 -127.5t-117 -82t-184 -29t-185.5 29t-120 82t-65 127.5t-19.5 165.5v442q0 91 19 165.5t63.5 127.5t118.5 82t185 29q110 0 184 -29t118.5 -82t63.5 -127.5t19 -165.5v-26h-314v32q0 13 -3 29t-10.5 29.5t-21.5 23t-36 9.5
q-23 0 -36 -9t-20.5 -22.5t-9.5 -29t-2 -28.5v-456q0 -13 2 -28.5t9.5 -28.5t20.5 -22t36 -9q22 0 36 9t21.5 22.5t10.5 29.5t3 29v29zM169 1279l139 249h295l139 -249h-248l-39 94l-38 -94h-248z" />
    <glyph glyph-name="eacute" unicode="&#xe9;" horiz-adv-x="911" 
d="M841 406v-25q0 -91 -18 -165.5t-62 -127.5t-117 -82t-184 -29t-185.5 29t-120 82t-65 127.5t-19.5 165.5v442q0 91 19 165.5t63.5 127.5t118.5 82t185 29q110 0 184 -29t118.5 -82t63.5 -127.5t19 -165.5v-295l-457 -96v-55q0 -13 3 -29t10.5 -29.5t21.5 -22.5t37 -9
q22 0 36 9t21.5 22.5t10.5 29.5t3 29v29h314zM456 920q-23 0 -37 -9.5t-21.5 -23t-10.5 -29.5t-3 -29v-124l143 35v89q0 13 -3 29t-10.5 29.5t-21.5 23t-36 9.5zM761 1572l-200 -294h-225l132 294h293z" />
    <glyph glyph-name="ebreve" unicode="&#x115;" horiz-adv-x="911" 
d="M841 406v-25q0 -91 -18 -165.5t-62 -127.5t-117 -82t-184 -29t-185.5 29t-120 82t-65 127.5t-19.5 165.5v442q0 91 19 165.5t63.5 127.5t118.5 82t185 29q110 0 184 -29t118.5 -82t63.5 -127.5t19 -165.5v-295l-457 -96v-55q0 -13 3 -29t10.5 -29.5t21.5 -22.5t37 -9
q22 0 36 9t21.5 22.5t10.5 29.5t3 29v29h314zM456 920q-23 0 -37 -9.5t-21.5 -23t-10.5 -29.5t-3 -29v-124l143 35v89q0 13 -3 29t-10.5 29.5t-21.5 23t-36 9.5zM768 1585q0 -60 -15 -115.5t-51 -98t-96 -68t-150 -25.5q-92 0 -152 25.5t-96 68t-50.5 98t-14.5 115.5h172
q3 -28 6 -52.5t15.5 -42.5t40 -28.5t79.5 -10.5q48 0 75 9.5t40.5 27.5t17.5 42.5t7 54.5h172z" />
    <glyph glyph-name="ecaron" unicode="&#x11b;" horiz-adv-x="911" 
d="M841 406v-25q0 -91 -18 -165.5t-62 -127.5t-117 -82t-184 -29t-185.5 29t-120 82t-65 127.5t-19.5 165.5v442q0 91 19 165.5t63.5 127.5t118.5 82t185 29q110 0 184 -29t118.5 -82t63.5 -127.5t19 -165.5v-295l-457 -96v-55q0 -13 3 -29t10.5 -29.5t21.5 -22.5t37 -9
q22 0 36 9t21.5 22.5t10.5 29.5t3 29v29h314zM456 920q-23 0 -37 -9.5t-21.5 -23t-10.5 -29.5t-3 -29v-124l143 35v89q0 13 -3 29t-10.5 29.5t-21.5 23t-36 9.5zM417 1528l38 -94l39 94h248l-139 -249h-295l-139 249h248z" />
    <glyph glyph-name="ecircumflex" unicode="&#xea;" horiz-adv-x="911" 
d="M841 406v-25q0 -91 -18 -165.5t-62 -127.5t-117 -82t-184 -29t-185.5 29t-120 82t-65 127.5t-19.5 165.5v442q0 91 19 165.5t63.5 127.5t118.5 82t185 29q110 0 184 -29t118.5 -82t63.5 -127.5t19 -165.5v-295l-457 -96v-55q0 -13 3 -29t10.5 -29.5t21.5 -22.5t37 -9
q22 0 36 9t21.5 22.5t10.5 29.5t3 29v29h314zM456 920q-23 0 -37 -9.5t-21.5 -23t-10.5 -29.5t-3 -29v-124l143 35v89q0 13 -3 29t-10.5 29.5t-21.5 23t-36 9.5zM169 1279l139 249h295l139 -249h-248l-39 94l-38 -94h-248z" />
    <glyph glyph-name="edieresis" unicode="&#xeb;" horiz-adv-x="911" 
d="M841 406v-25q0 -91 -18 -165.5t-62 -127.5t-117 -82t-184 -29t-185.5 29t-120 82t-65 127.5t-19.5 165.5v442q0 91 19 165.5t63.5 127.5t118.5 82t185 29q110 0 184 -29t118.5 -82t63.5 -127.5t19 -165.5v-295l-457 -96v-55q0 -13 3 -29t10.5 -29.5t21.5 -22.5t37 -9
q22 0 36 9t21.5 22.5t10.5 29.5t3 29v29h314zM456 920q-23 0 -37 -9.5t-21.5 -23t-10.5 -29.5t-3 -29v-124l143 35v89q0 13 -3 29t-10.5 29.5t-21.5 23t-36 9.5zM158 1425q0 78 33 112t105 34t106 -34t34 -112q0 -75 -34 -109.5t-106 -34.5t-105 34.5t-33 109.5zM475 1425
q0 78 33.5 112t104.5 34q73 0 106.5 -34t33.5 -112q0 -75 -33.5 -109.5t-106.5 -34.5q-71 0 -104.5 34.5t-33.5 109.5z" />
    <glyph glyph-name="edotaccent" unicode="&#x117;" horiz-adv-x="911" 
d="M841 406v-25q0 -91 -18 -165.5t-62 -127.5t-117 -82t-184 -29t-185.5 29t-120 82t-65 127.5t-19.5 165.5v442q0 91 19 165.5t63.5 127.5t118.5 82t185 29q110 0 184 -29t118.5 -82t63.5 -127.5t19 -165.5v-295l-457 -96v-55q0 -13 3 -29t10.5 -29.5t21.5 -22.5t37 -9
q22 0 36 9t21.5 22.5t10.5 29.5t3 29v29h314zM456 920q-23 0 -37 -9.5t-21.5 -23t-10.5 -29.5t-3 -29v-124l143 35v89q0 13 -3 29t-10.5 29.5t-21.5 23t-36 9.5zM272 1410q0 90 44 130t138 40q96 0 140.5 -40t44.5 -130q0 -88 -44.5 -128t-140.5 -40q-94 0 -138 40t-44 128z
" />
    <glyph glyph-name="egrave" unicode="&#xe8;" horiz-adv-x="911" 
d="M841 406v-25q0 -91 -18 -165.5t-62 -127.5t-117 -82t-184 -29t-185.5 29t-120 82t-65 127.5t-19.5 165.5v442q0 91 19 165.5t63.5 127.5t118.5 82t185 29q110 0 184 -29t118.5 -82t63.5 -127.5t19 -165.5v-295l-457 -96v-55q0 -13 3 -29t10.5 -29.5t21.5 -22.5t37 -9
q22 0 36 9t21.5 22.5t10.5 29.5t3 29v29h314zM456 920q-23 0 -37 -9.5t-21.5 -23t-10.5 -29.5t-3 -29v-124l143 35v89q0 13 -3 29t-10.5 29.5t-21.5 23t-36 9.5zM448 1572l132 -294h-215l-190 294h273z" />
    <glyph glyph-name="emacron" unicode="&#x113;" horiz-adv-x="911" 
d="M841 406v-25q0 -91 -18 -165.5t-62 -127.5t-117 -82t-184 -29t-185.5 29t-120 82t-65 127.5t-19.5 165.5v442q0 91 19 165.5t63.5 127.5t118.5 82t185 29q110 0 184 -29t118.5 -82t63.5 -127.5t19 -165.5v-295l-457 -96v-55q0 -13 3 -29t10.5 -29.5t21.5 -22.5t37 -9
q22 0 36 9t21.5 22.5t10.5 29.5t3 29v29h314zM456 920q-23 0 -37 -9.5t-21.5 -23t-10.5 -29.5t-3 -29v-124l143 35v89q0 13 -3 29t-10.5 29.5t-21.5 23t-36 9.5zM192 1311v233h527v-233h-527z" />
    <glyph glyph-name="eogonek" unicode="&#x119;" horiz-adv-x="911" 
d="M841 406v-25q0 -91 -18 -165.5t-62 -127.5t-117 -82t-184 -29t-185.5 29t-120 82t-65 127.5t-19.5 165.5v442q0 91 19 165.5t63.5 127.5t118.5 82t185 29q110 0 184 -29t118.5 -82t63.5 -127.5t19 -165.5v-295l-457 -96v-55q0 -13 3 -29t10.5 -29.5t21.5 -22.5t37 -9
q22 0 36 9t21.5 22.5t10.5 29.5t3 29v29h314zM456 920q-23 0 -37 -9.5t-21.5 -23t-10.5 -29.5t-3 -29v-124l143 35v89q0 13 -3 29t-10.5 29.5t-21.5 23t-36 9.5zM744 -369q-54 -60 -172 -60q-55 0 -105 13.5t-88.5 43.5t-61 77.5t-22.5 115.5q0 56 24.5 97t66.5 73t98 58.5
t119 53.5l117 -55q-42 -26 -70.5 -49t-45 -46t-23.5 -48t-7 -55q0 -38 17 -56t45 -18q18 0 29.5 1t21 4t18.5 8t21 12z" />
    <glyph glyph-name="oacute" unicode="&#xf3;" horiz-adv-x="911" 
d="M70 823q0 91 19 165.5t63.5 127.5t118.5 82t185 29q110 0 184 -29t118.5 -82t63.5 -127.5t19 -165.5v-442q0 -91 -18 -165.5t-62 -127.5t-117 -82t-184 -29t-185.5 29t-120 82t-65 127.5t-19.5 165.5v442zM456 920q-23 0 -36 -9t-20.5 -22.5t-9.5 -29t-2 -28.5v-456
q0 -13 2 -28.5t9.5 -28.5t20.5 -22t36 -9q22 0 35.5 9t20.5 22t9 28.5t2 28.5v456q0 13 -2 28.5t-9 29t-20.5 22.5t-35.5 9zM763 1572l-200 -294h-225l132 294h293z" />
    <glyph glyph-name="obreve" unicode="&#x14f;" horiz-adv-x="911" 
d="M70 823q0 91 19 165.5t63.5 127.5t118.5 82t185 29q110 0 184 -29t118.5 -82t63.5 -127.5t19 -165.5v-442q0 -91 -18 -165.5t-62 -127.5t-117 -82t-184 -29t-185.5 29t-120 82t-65 127.5t-19.5 165.5v442zM456 920q-23 0 -36 -9t-20.5 -22.5t-9.5 -29t-2 -28.5v-456
q0 -13 2 -28.5t9.5 -28.5t20.5 -22t36 -9q22 0 35.5 9t20.5 22t9 28.5t2 28.5v456q0 13 -2 28.5t-9 29t-20.5 22.5t-35.5 9zM763 1585q0 -60 -15 -115.5t-51 -98t-96 -68t-150 -25.5q-92 0 -152 25.5t-96 68t-50.5 98t-14.5 115.5h172q3 -28 6 -52.5t15.5 -42.5t40 -28.5
t79.5 -10.5q48 0 75 9.5t40.5 27.5t17.5 42.5t7 54.5h172z" />
    <glyph glyph-name="ocircumflex" unicode="&#xf4;" horiz-adv-x="911" 
d="M70 823q0 91 19 165.5t63.5 127.5t118.5 82t185 29q110 0 184 -29t118.5 -82t63.5 -127.5t19 -165.5v-442q0 -91 -18 -165.5t-62 -127.5t-117 -82t-184 -29t-185.5 29t-120 82t-65 127.5t-19.5 165.5v442zM456 920q-23 0 -36 -9t-20.5 -22.5t-9.5 -29t-2 -28.5v-456
q0 -13 2 -28.5t9.5 -28.5t20.5 -22t36 -9q22 0 35.5 9t20.5 22t9 28.5t2 28.5v456q0 13 -2 28.5t-9 29t-20.5 22.5t-35.5 9zM165 1279l139 249h295l139 -249h-248l-39 94l-38 -94h-248z" />
    <glyph glyph-name="odieresis" unicode="&#xf6;" horiz-adv-x="911" 
d="M70 823q0 91 19 165.5t63.5 127.5t118.5 82t185 29q110 0 184 -29t118.5 -82t63.5 -127.5t19 -165.5v-442q0 -91 -18 -165.5t-62 -127.5t-117 -82t-184 -29t-185.5 29t-120 82t-65 127.5t-19.5 165.5v442zM456 920q-23 0 -36 -9t-20.5 -22.5t-9.5 -29t-2 -28.5v-456
q0 -13 2 -28.5t9.5 -28.5t20.5 -22t36 -9q22 0 35.5 9t20.5 22t9 28.5t2 28.5v456q0 13 -2 28.5t-9 29t-20.5 22.5t-35.5 9zM154 1425q0 78 33 112t105 34t106 -34t34 -112q0 -75 -34 -109.5t-106 -34.5t-105 34.5t-33 109.5zM471 1425q0 78 33.5 112t104.5 34
q73 0 106.5 -34t33.5 -112q0 -75 -33.5 -109.5t-106.5 -34.5q-71 0 -104.5 34.5t-33.5 109.5z" />
    <glyph glyph-name="ograve" unicode="&#xf2;" horiz-adv-x="911" 
d="M70 823q0 91 19 165.5t63.5 127.5t118.5 82t185 29q110 0 184 -29t118.5 -82t63.5 -127.5t19 -165.5v-442q0 -91 -18 -165.5t-62 -127.5t-117 -82t-184 -29t-185.5 29t-120 82t-65 127.5t-19.5 165.5v442zM456 920q-23 0 -36 -9t-20.5 -22.5t-9.5 -29t-2 -28.5v-456
q0 -13 2 -28.5t9.5 -28.5t20.5 -22t36 -9q22 0 35.5 9t20.5 22t9 28.5t2 28.5v456q0 13 -2 28.5t-9 29t-20.5 22.5t-35.5 9zM433 1572l132 -294h-215l-190 294h273z" />
    <glyph glyph-name="ohungarumlaut" unicode="&#x151;" horiz-adv-x="911" 
d="M70 823q0 91 19 165.5t63.5 127.5t118.5 82t185 29q110 0 184 -29t118.5 -82t63.5 -127.5t19 -165.5v-442q0 -91 -18 -165.5t-62 -127.5t-117 -82t-184 -29t-185.5 29t-120 82t-65 127.5t-19.5 165.5v442zM456 920q-23 0 -36 -9t-20.5 -22.5t-9.5 -29t-2 -28.5v-456
q0 -13 2 -28.5t9.5 -28.5t20.5 -22t36 -9q22 0 35.5 9t20.5 22t9 28.5t2 28.5v456q0 13 -2 28.5t-9 29t-20.5 22.5t-35.5 9zM561 1572l-190 -294h-215l132 294h273zM871 1572l-190 -294h-215l132 294h273z" />
    <glyph glyph-name="omacron" unicode="&#x14d;" horiz-adv-x="911" 
d="M70 823q0 91 19 165.5t63.5 127.5t118.5 82t185 29q110 0 184 -29t118.5 -82t63.5 -127.5t19 -165.5v-442q0 -91 -18 -165.5t-62 -127.5t-117 -82t-184 -29t-185.5 29t-120 82t-65 127.5t-19.5 165.5v442zM456 920q-23 0 -36 -9t-20.5 -22.5t-9.5 -29t-2 -28.5v-456
q0 -13 2 -28.5t9.5 -28.5t20.5 -22t36 -9q22 0 35.5 9t20.5 22t9 28.5t2 28.5v456q0 13 -2 28.5t-9 29t-20.5 22.5t-35.5 9zM188 1311v233h527v-233h-527z" />
    <glyph glyph-name="otilde" unicode="&#xf5;" horiz-adv-x="911" 
d="M70 823q0 91 19 165.5t63.5 127.5t118.5 82t185 29q110 0 184 -29t118.5 -82t63.5 -127.5t19 -165.5v-442q0 -91 -18 -165.5t-62 -127.5t-117 -82t-184 -29t-185.5 29t-120 82t-65 127.5t-19.5 165.5v442zM456 920q-23 0 -36 -9t-20.5 -22.5t-9.5 -29t-2 -28.5v-456
q0 -13 2 -28.5t9.5 -28.5t20.5 -22t36 -9q22 0 35.5 9t20.5 22t9 28.5t2 28.5v456q0 13 -2 28.5t-9 29t-20.5 22.5t-35.5 9zM798 1547q-8 -55 -25.5 -104.5t-47.5 -86.5t-73.5 -59t-102.5 -22q-35 0 -62.5 9.5t-51 21.5t-44.5 21.5t-43 9.5q-32 0 -55 -15t-35 -59l-156 43
q9 53 26.5 101.5t47 85.5t72 59t100.5 22q38 0 66.5 -9.5t51.5 -21.5t43.5 -21.5t42.5 -9.5q35 0 56.5 16t32.5 58z" />
    <glyph glyph-name="aogonek" unicode="&#x105;" horiz-adv-x="931" 
d="M531 0v105q-23 -59 -61 -93.5t-99 -34.5q-87 0 -145.5 27.5t-93.5 78.5t-49.5 124t-14.5 164q0 93 14 157.5t48 105t92 59t145 18.5q54 0 93.5 -5t68.5 -11v136q0 13 -2 28.5t-9 29t-20.5 22.5t-35.5 9t-35.5 -9.5t-20.5 -23t-9.5 -29.5t-2.5 -29v-32h-316v26
q0 91 18.5 165.5t62.5 127.5t117.5 82t183.5 29q111 0 185 -29t118.5 -82t63.5 -127.5t19 -165.5v-823h-315zM453 284q22 0 36.5 12t23.5 29.5t12.5 36t3.5 31.5v38q-15 7 -39 13.5t-43 6.5q-21 0 -33.5 -7t-18.5 -19t-8 -28t-2 -34q0 -13 2.5 -27t9.5 -25.5t20.5 -19
t35.5 -7.5zM868 -417q-54 -60 -172 -60q-55 0 -105 13.5t-88.5 43.5t-61 77.5t-22.5 115.5q0 56 24.5 97t66.5 73t98 58.5t119 53.5l117 -55q-42 -26 -70.5 -49t-45 -46t-23.5 -48t-7 -55q0 -38 17 -56t45 -18q18 0 29.5 1t21 4t18.5 8t21 12z" />
    <glyph glyph-name="aring" unicode="&#xe5;" horiz-adv-x="931" 
d="M531 0v105q-23 -59 -61 -93.5t-99 -34.5q-87 0 -145.5 27.5t-93.5 78.5t-49.5 124t-14.5 164q0 93 14 157.5t48 105t92 59t145 18.5q54 0 93.5 -5t68.5 -11v136q0 13 -2 28.5t-9 29t-20.5 22.5t-35.5 9t-35.5 -9.5t-20.5 -23t-9.5 -29.5t-2.5 -29v-32h-316v26
q0 91 18.5 165.5t62.5 127.5t117.5 82t183.5 29q111 0 185 -29t118.5 -82t63.5 -127.5t19 -165.5v-823h-315zM453 284q22 0 36.5 12t23.5 29.5t12.5 36t3.5 31.5v38q-15 7 -39 13.5t-43 6.5q-21 0 -33.5 -7t-18.5 -19t-8 -28t-2 -34q0 -13 2.5 -27t9.5 -25.5t20.5 -19
t35.5 -7.5zM222 1492q0 124 62 180t192 56q132 0 194 -56t62 -180q0 -121 -61.5 -177.5t-194.5 -56.5q-131 0 -192.5 56.5t-61.5 177.5zM419 1493q0 -28 13.5 -41.5t44.5 -13.5q30 0 43.5 13.5t13.5 41.5q0 27 -13.5 39.5t-43.5 12.5q-31 0 -44.5 -12.5t-13.5 -39.5z" />
    <glyph glyph-name="agrave" unicode="&#xe0;" horiz-adv-x="931" 
d="M531 0v105q-23 -59 -61 -93.5t-99 -34.5q-87 0 -145.5 27.5t-93.5 78.5t-49.5 124t-14.5 164q0 93 14 157.5t48 105t92 59t145 18.5q54 0 93.5 -5t68.5 -11v136q0 13 -2 28.5t-9 29t-20.5 22.5t-35.5 9t-35.5 -9.5t-20.5 -23t-9.5 -29.5t-2.5 -29v-32h-316v26
q0 91 18.5 165.5t62.5 127.5t117.5 82t183.5 29q111 0 185 -29t118.5 -82t63.5 -127.5t19 -165.5v-823h-315zM453 284q22 0 36.5 12t23.5 29.5t12.5 36t3.5 31.5v38q-15 7 -39 13.5t-43 6.5q-21 0 -33.5 -7t-18.5 -19t-8 -28t-2 -34q0 -13 2.5 -27t9.5 -25.5t20.5 -19
t35.5 -7.5zM440 1572l132 -294h-215l-190 294h273z" />
    <glyph glyph-name="atilde" unicode="&#xe3;" horiz-adv-x="931" 
d="M531 0v105q-23 -59 -61 -93.5t-99 -34.5q-87 0 -145.5 27.5t-93.5 78.5t-49.5 124t-14.5 164q0 93 14 157.5t48 105t92 59t145 18.5q54 0 93.5 -5t68.5 -11v136q0 13 -2 28.5t-9 29t-20.5 22.5t-35.5 9t-35.5 -9.5t-20.5 -23t-9.5 -29.5t-2.5 -29v-32h-316v26
q0 91 18.5 165.5t62.5 127.5t117.5 82t183.5 29q111 0 185 -29t118.5 -82t63.5 -127.5t19 -165.5v-823h-315zM453 284q22 0 36.5 12t23.5 29.5t12.5 36t3.5 31.5v38q-15 7 -39 13.5t-43 6.5q-21 0 -33.5 -7t-18.5 -19t-8 -28t-2 -34q0 -13 2.5 -27t9.5 -25.5t20.5 -19
t35.5 -7.5zM825 1547q-8 -55 -25.5 -104.5t-47.5 -86.5t-73.5 -59t-102.5 -22q-35 0 -62.5 9.5t-51 21.5t-44.5 21.5t-43 9.5q-32 0 -55 -15t-35 -59l-156 43q9 53 26.5 101.5t47 85.5t72 59t100.5 22q38 0 66.5 -9.5t51.5 -21.5t43.5 -21.5t42.5 -9.5q35 0 56.5 16t32.5 58
z" />
    <glyph glyph-name="amacron" unicode="&#x101;" horiz-adv-x="931" 
d="M531 0v105q-23 -59 -61 -93.5t-99 -34.5q-87 0 -145.5 27.5t-93.5 78.5t-49.5 124t-14.5 164q0 93 14 157.5t48 105t92 59t145 18.5q54 0 93.5 -5t68.5 -11v136q0 13 -2 28.5t-9 29t-20.5 22.5t-35.5 9t-35.5 -9.5t-20.5 -23t-9.5 -29.5t-2.5 -29v-32h-316v26
q0 91 18.5 165.5t62.5 127.5t117.5 82t183.5 29q111 0 185 -29t118.5 -82t63.5 -127.5t19 -165.5v-823h-315zM453 284q22 0 36.5 12t23.5 29.5t12.5 36t3.5 31.5v38q-15 7 -39 13.5t-43 6.5q-21 0 -33.5 -7t-18.5 -19t-8 -28t-2 -34q0 -13 2.5 -27t9.5 -25.5t20.5 -19
t35.5 -7.5zM213 1311v233h527v-233h-527z" />
    <glyph glyph-name="adieresis" unicode="&#xe4;" horiz-adv-x="931" 
d="M531 0v105q-23 -59 -61 -93.5t-99 -34.5q-87 0 -145.5 27.5t-93.5 78.5t-49.5 124t-14.5 164q0 93 14 157.5t48 105t92 59t145 18.5q54 0 93.5 -5t68.5 -11v136q0 13 -2 28.5t-9 29t-20.5 22.5t-35.5 9t-35.5 -9.5t-20.5 -23t-9.5 -29.5t-2.5 -29v-32h-316v26
q0 91 18.5 165.5t62.5 127.5t117.5 82t183.5 29q111 0 185 -29t118.5 -82t63.5 -127.5t19 -165.5v-823h-315zM453 284q22 0 36.5 12t23.5 29.5t12.5 36t3.5 31.5v38q-15 7 -39 13.5t-43 6.5q-21 0 -33.5 -7t-18.5 -19t-8 -28t-2 -34q0 -13 2.5 -27t9.5 -25.5t20.5 -19
t35.5 -7.5zM179 1425q0 78 33 112t105 34t106 -34t34 -112q0 -75 -34 -109.5t-106 -34.5t-105 34.5t-33 109.5zM496 1425q0 78 33.5 112t104.5 34q73 0 106.5 -34t33.5 -112q0 -75 -33.5 -109.5t-106.5 -34.5q-71 0 -104.5 34.5t-33.5 109.5z" />
    <glyph glyph-name="acircumflex" unicode="&#xe2;" horiz-adv-x="931" 
d="M531 0v105q-23 -59 -61 -93.5t-99 -34.5q-87 0 -145.5 27.5t-93.5 78.5t-49.5 124t-14.5 164q0 93 14 157.5t48 105t92 59t145 18.5q54 0 93.5 -5t68.5 -11v136q0 13 -2 28.5t-9 29t-20.5 22.5t-35.5 9t-35.5 -9.5t-20.5 -23t-9.5 -29.5t-2.5 -29v-32h-316v26
q0 91 18.5 165.5t62.5 127.5t117.5 82t183.5 29q111 0 185 -29t118.5 -82t63.5 -127.5t19 -165.5v-823h-315zM453 284q22 0 36.5 12t23.5 29.5t12.5 36t3.5 31.5v38q-15 7 -39 13.5t-43 6.5q-21 0 -33.5 -7t-18.5 -19t-8 -28t-2 -34q0 -13 2.5 -27t9.5 -25.5t20.5 -19
t35.5 -7.5zM190 1279l139 249h295l139 -249h-248l-39 94l-38 -94h-248z" />
    <glyph glyph-name="e.fat" horiz-adv-x="897" 
d="M63 823q0 91 19 165.5t63.5 127.5t118.5 82t185 29q110 0 184 -29t118.5 -82t63.5 -127.5t19 -165.5v-442q0 -91 -18 -165.5t-62 -127.5t-117 -82t-184 -29t-185.5 29t-120 82t-65 127.5t-19.5 165.5v442zM449 920q-23 0 -37 -9.5t-21.5 -23t-10.5 -29.5t-3 -29v-124
l143 35v89q0 13 -3 29t-10.5 29.5t-21.5 23t-36 9.5zM449 287q22 0 36 9t21.5 22.5t10.5 29.5t3 29v85l-143 -30v-55q0 -13 3 -29t10.5 -29.5t21.5 -22.5t37 -9z" />
    <glyph glyph-name="ibreve" unicode="&#x12d;" horiz-adv-x="487" 
d="M85 0v1202h317v-1202h-317zM557 1585q0 -60 -15 -115.5t-51 -98t-96 -68t-150 -25.5q-92 0 -152 25.5t-96 68t-50.5 98t-14.5 115.5h172q3 -28 6 -52.5t15.5 -42.5t40 -28.5t79.5 -10.5q48 0 75 9.5t40.5 27.5t17.5 42.5t7 54.5h172z" />
    <glyph glyph-name="icircumflex" unicode="&#xee;" horiz-adv-x="487" 
d="M85 0v1202h317v-1202h-317zM-43 1279l139 249h295l139 -249h-248l-39 94l-38 -94h-248z" />
    <glyph glyph-name="idieresis" unicode="&#xef;" horiz-adv-x="487" 
d="M85 0v1202h317v-1202h-317zM-54 1425q0 78 33 112t105 34t106 -34t34 -112q0 -75 -34 -109.5t-106 -34.5t-105 34.5t-33 109.5zM263 1425q0 78 33.5 112t104.5 34q73 0 106.5 -34t33.5 -112q0 -75 -33.5 -109.5t-106.5 -34.5q-71 0 -104.5 34.5t-33.5 109.5z" />
    <glyph glyph-name="igrave" unicode="&#xec;" horiz-adv-x="487" 
d="M85 0v1202h317v-1202h-317zM220 1572l132 -294h-215l-190 294h273z" />
    <glyph glyph-name="ij" unicode="&#x133;" horiz-adv-x="990" 
d="M55 1430q0 80 44.5 116.5t138.5 36.5q96 0 140 -36.5t44 -116.5q0 -79 -44 -115.5t-140 -36.5q-94 0 -138.5 36.5t-44.5 115.5zM82 0v1202h317v-1202h-317zM537 1430q0 80 44.5 116.5t138.5 36.5q96 0 140 -36.5t44 -116.5q0 -79 -44 -115.5t-140 -36.5
q-94 0 -138.5 36.5t-44.5 115.5zM881 1202v-1210q0 -86 -13.5 -159t-49 -126t-97 -83t-156.5 -30q-43 0 -78 7t-64 18.5t-52.5 26.5t-42.5 30l16 266q11 -6 24.5 -14t32.5 -15.5t44.5 -12.5t60.5 -5q57 0 57 97v1210h318z" />
    <glyph glyph-name="imacron" unicode="&#x12b;" horiz-adv-x="487" 
d="M85 0v1202h317v-1202h-317zM-20 1311v233h527v-233h-527z" />
    <glyph glyph-name="iogonek" unicode="&#x12f;" horiz-adv-x="487" 
d="M58 1430q0 80 44.5 116.5t138.5 36.5q96 0 140 -36.5t44 -116.5q0 -79 -44 -115.5t-140 -36.5q-94 0 -138.5 36.5t-44.5 115.5zM85 0v1202h317v-1202h-317zM426 -417q-54 -60 -172 -60q-55 0 -105 13.5t-88.5 43.5t-61 77.5t-22.5 115.5q0 56 24.5 97t66.5 73t98 58.5
t119 53.5l117 -55q-42 -26 -70.5 -49t-45 -46t-23.5 -48t-7 -55q0 -38 17 -56t45 -18q18 0 29.5 1t21 4t18.5 8t21 12z" />
    <glyph glyph-name="itilde" unicode="&#x129;" horiz-adv-x="487" 
d="M85 0v1202h317v-1202h-317zM591 1547q-8 -55 -25.5 -104.5t-47.5 -86.5t-73.5 -59t-102.5 -22q-35 0 -62.5 9.5t-51 21.5t-44.5 21.5t-43 9.5q-32 0 -55 -15t-35 -59l-156 43q9 53 26.5 101.5t47 85.5t72 59t100.5 22q38 0 66.5 -9.5t51.5 -21.5t43.5 -21.5t42.5 -9.5
q35 0 56.5 16t32.5 58z" />
    <glyph glyph-name="jcircumflex" unicode="&#x135;" horiz-adv-x="489" 
d="M-47 1279l139 249h295l139 -249h-248l-39 94l-38 -94h-248zM403 1202v-1210q0 -86 -13.5 -159t-49 -126t-97 -83t-156.5 -30q-43 0 -78 7t-64 18.5t-52.5 26.5t-42.5 30l16 266q11 -6 24.5 -14t32.5 -15.5t44.5 -12.5t60.5 -5q57 0 57 97v1210h318z" />
    <glyph glyph-name="nacute" unicode="&#x144;" horiz-adv-x="938" 
d="M536 0v830q0 13 -2 28.5t-9.5 28.5t-21 22t-35.5 9t-35.5 -12t-20.5 -29.5t-9 -36t-2 -31.5v-809h-316v1202h316v-97q13 25 34 47t45.5 38.5t52.5 25.5t57 9q81 0 132 -29t80.5 -82t40 -127.5t10.5 -164.5v-822h-317zM776 1572l-200 -294h-225l132 294h293z" />
    <glyph glyph-name="ncaron" unicode="&#x148;" horiz-adv-x="938" 
d="M536 0v830q0 13 -2 28.5t-9.5 28.5t-21 22t-35.5 9t-35.5 -12t-20.5 -29.5t-9 -36t-2 -31.5v-809h-316v1202h316v-97q13 25 34 47t45.5 38.5t52.5 25.5t57 9q81 0 132 -29t80.5 -82t40 -127.5t10.5 -164.5v-822h-317zM422 1528l38 -94l39 94h248l-139 -249h-295l-139 249
h248z" />
    <glyph glyph-name="ntilde" unicode="&#xf1;" horiz-adv-x="938" 
d="M536 0v830q0 13 -2 28.5t-9.5 28.5t-21 22t-35.5 9t-35.5 -12t-20.5 -29.5t-9 -36t-2 -31.5v-809h-316v1202h316v-97q13 25 34 47t45.5 38.5t52.5 25.5t57 9q81 0 132 -29t80.5 -82t40 -127.5t10.5 -164.5v-822h-317zM827 1547q-8 -55 -25.5 -104.5t-47.5 -86.5
t-73.5 -59t-102.5 -22q-35 0 -62.5 9.5t-51 21.5t-44.5 21.5t-43 9.5q-32 0 -55 -15t-35 -59l-156 43q9 53 26.5 101.5t47 85.5t72 59t100.5 22q38 0 66.5 -9.5t51.5 -21.5t43.5 -21.5t42.5 -9.5q35 0 56.5 16t32.5 58z" />
    <glyph glyph-name="napostrophe" unicode="&#x149;" horiz-adv-x="1252" 
d="M871 0v830q0 13 -2 28.5t-9.5 28.5t-21 22t-35.5 9t-35.5 -12t-20.5 -29.5t-9 -36t-2 -31.5v-809h-316v1202h316v-97q13 25 34 47t45.5 38.5t52.5 25.5t57 9q81 0 132 -29t80.5 -82t40 -127.5t10.5 -164.5v-822h-317zM53 1099q0 71 35.5 99.5t109.5 28.5q78 0 113 -40
t35 -115q0 -63 -10 -111t-27 -85.5t-39 -65.5t-45 -49l-111 65q19 22 31 39.5t20 34t12.5 34t7.5 39.5q-68 0 -100 30t-32 96z" />
    <glyph glyph-name="ncommaaccent" unicode="&#x146;" horiz-adv-x="938" 
d="M536 0v830q0 13 -2 28.5t-9.5 28.5t-21 22t-35.5 9t-35.5 -12t-20.5 -29.5t-9 -36t-2 -31.5v-809h-316v1202h316v-97q13 25 34 47t45.5 38.5t52.5 25.5t57 9q81 0 132 -29t80.5 -82t40 -127.5t10.5 -164.5v-822h-317zM337 -182q0 71 35.5 99.5t109.5 28.5q78 0 113 -40
t35 -115q0 -63 -10 -111t-27 -85.5t-39 -65.5t-45 -49l-111 65q19 22 31 39.5t20 34t12.5 34t7.5 39.5q-68 0 -100 30t-32 96z" />
    <glyph glyph-name="iotadieresistonos" unicode="&#x390;" horiz-adv-x="487" 
d="M85 0v1202h317v-1202h-317zM372 1715l-38 -294h-185l-30 294h253zM-162 1404q0 78 33 112t105 34t106 -34t34 -112q0 -75 -34 -109.5t-106 -34.5t-105 34.5t-33 109.5zM362 1404q0 78 33.5 112t104.5 34q73 0 106.5 -34t33.5 -112q0 -75 -33.5 -109.5t-106.5 -34.5
q-71 0 -104.5 34.5t-33.5 109.5z" />
    <glyph glyph-name="iotatonos" unicode="&#x3af;" horiz-adv-x="487" 
d="M85 0v1202h317v-1202h-317zM396 1602l-38 -294h-195l-30 294h263z" />
    <glyph glyph-name="upsilondieresistonos" unicode="&#x3b0;" horiz-adv-x="907" 
d="M856 1202v-838q0 -91 -20 -162.5t-66 -121.5t-121 -76.5t-186 -26.5t-186 26.5t-121 76.5t-66 121.5t-20 162.5v838h323v-838q0 -13 2.5 -26t10 -23t21.5 -16.5t36 -6.5t36 6.5t21.5 16.5t10 23t2.5 26v838h323zM598 1715l-38 -294h-185l-30 294h253zM64 1404
q0 78 33 112t105 34t106 -34t34 -112q0 -75 -34 -109.5t-106 -34.5t-105 34.5t-33 109.5zM588 1404q0 78 33.5 112t104.5 34q73 0 106.5 -34t33.5 -112q0 -75 -33.5 -109.5t-106.5 -34.5q-71 0 -104.5 34.5t-33.5 109.5z" />
    <glyph glyph-name="afii10075" unicode="&#x439;" horiz-adv-x="952" 
d="M549 0v415l-140 -415h-324v1202h324v-398l140 395v3h1l265 2l-1 -2h59v-1202h-324zM805 1585q0 -60 -15 -115.5t-51 -98t-96 -68t-150 -25.5q-92 0 -152 25.5t-96 68t-50.5 98t-14.5 115.5h172q3 -28 6 -52.5t15.5 -42.5t40 -28.5t79.5 -10.5q48 0 75 9.5t40.5 27.5
t17.5 42.5t7 54.5h172z" />
    <glyph glyph-name="kcommaaccent" unicode="&#x137;" horiz-adv-x="927" 
d="M400 1569v-803h57l119 436h319l-192 -602l217 -600h-350l-119 451h-51v-451h-316v1569h316zM321 -182q0 71 35.5 99.5t109.5 28.5q78 0 113 -40t35 -115q0 -63 -10 -111t-27 -85.5t-39 -65.5t-45 -49l-111 65q19 22 31 39.5t20 34t12.5 34t7.5 39.5q-68 0 -100 30t-32 96
z" />
    <glyph glyph-name="ldot" unicode="&#x140;" horiz-adv-x="486" 
d="M62 1766q0 90 44 130t138 40q96 0 140.5 -40t44.5 -130q0 -88 -44.5 -128t-140.5 -40q-94 0 -138 40t-44 128zM85 0v1569h316v-1569h-316z" />
    <glyph glyph-name="lacute" unicode="&#x13a;" horiz-adv-x="486" 
d="M85 0v1569h316v-1569h-316zM556 1893l-200 -294h-225l132 294h293z" />
    <glyph glyph-name="lcaron" unicode="&#x13e;" horiz-adv-x="486" 
d="M203 1892l38 -94l39 94h248l-139 -249h-295l-139 249h248zM85 0v1569h316v-1569h-316z" />
    <glyph glyph-name="lcommaaccent" unicode="&#x13c;" horiz-adv-x="486" 
d="M85 0v1569h316v-1569h-316zM96 -182q0 71 35.5 99.5t109.5 28.5q78 0 113 -40t35 -115q0 -63 -10 -111t-27 -85.5t-39 -65.5t-45 -49l-111 65q19 22 31 39.5t20 34t12.5 34t7.5 39.5q-68 0 -100 30t-32 96z" />
    <glyph glyph-name="hbar" unicode="&#x127;" horiz-adv-x="938" 
d="M536 0v830q0 13 -2 28.5t-9.5 28.5t-21 22t-35.5 9t-35.5 -12t-20.5 -29.5t-9 -36t-2 -31.5v-809h-316v1567h316v-462q20 55 56 87.5t93 32.5q88 0 146 -29t93 -82t49.5 -127.5t14.5 -164.5v-822h-317zM17 1291v233h527v-233h-527z" />
    <glyph glyph-name="rcommaaccent" unicode="&#x157;" horiz-adv-x="648" 
d="M638 864q-2 1 -13 8t-30 15t-45 15t-59 7h-1h-1q-21 0 -37.5 -11t-27.5 -26.5t-16.5 -33.5t-6.5 -32v-806h-316v1202h316v-111q22 62 60 99t99 37v-3q0 1 0.5 1t0.5 1l1 1q11 0 34.5 -5.5t41.5 -21.5v-336zM98 -182q0 71 35.5 99.5t109.5 28.5q78 0 113 -40t35 -115
q0 -63 -10 -111t-27 -85.5t-39 -65.5t-45 -49l-111 65q19 22 31 39.5t20 34t12.5 34t7.5 39.5q-68 0 -100 30t-32 96z" />
    <glyph glyph-name="afii10109" unicode="&#x45c;" horiz-adv-x="899" 
d="M400 1201v-435h57l119 436h319l-192 -602l217 -600h-350l-119 451h-51v-451h-316v1201h316zM781 1572l-200 -294h-225l132 294h293z" />
    <glyph glyph-name="wacute" unicode="&#x1e83;" horiz-adv-x="1506" 
d="M7 1204h326l96 -888l97 888h450l96 -888l97 888h326l-172 -1204h-481l-91 830l-91 -830h-481zM985 1572l-200 -294h-225l132 294h293z" />
    <glyph glyph-name="wgrave" unicode="&#x1e81;" horiz-adv-x="1506" 
d="M7 1204h326l96 -888l97 888h450l96 -888l97 888h326l-172 -1204h-481l-91 830l-91 -830h-481zM645 1572l132 -294h-215l-190 294h273z" />
    <glyph glyph-name="wdieresis" unicode="&#x1e85;" horiz-adv-x="1506" 
d="M7 1204h326l96 -888l97 888h450l96 -888l97 888h326l-172 -1204h-481l-91 830l-91 -830h-481zM364 1425q0 78 33 112t105 34t106 -34t34 -112q0 -75 -34 -109.5t-106 -34.5t-105 34.5t-33 109.5zM681 1425q0 78 33.5 112t104.5 34q73 0 106.5 -34t33.5 -112
q0 -75 -33.5 -109.5t-106.5 -34.5q-71 0 -104.5 34.5t-33.5 109.5z" />
    <glyph glyph-name="wcircumflex" unicode="&#x175;" horiz-adv-x="1506" 
d="M7 1204h326l96 -888l97 888h450l96 -888l97 888h326l-172 -1204h-481l-91 830l-91 -830h-481zM376 1279l139 249h295l139 -249h-248l-39 94l-38 -94h-248z" />
    <glyph glyph-name="afii10062" unicode="&#x40e;" horiz-adv-x="899" 
d="M623 551l-159 -551h-315l147 508l-315 1014h356l117 -564l135 564h315zM769 1906q0 -60 -15 -115.5t-51 -98t-96 -68t-150 -25.5q-92 0 -152 25.5t-96 68t-50.5 98t-14.5 115.5h172q3 -28 6 -52.5t15.5 -42.5t40 -28.5t79.5 -10.5q48 0 75 9.5t40.5 27.5t17.5 42.5
t7 54.5h172z" />
    <glyph glyph-name="racute" unicode="&#x155;" horiz-adv-x="648" 
d="M638 864q-2 1 -13 8t-30 15t-45 15t-59 7h-1h-1q-21 0 -37.5 -11t-27.5 -26.5t-16.5 -33.5t-6.5 -32v-806h-316v1202h316v-111q22 62 60 99t99 37v-3q0 1 0.5 1t0.5 1l1 1q11 0 34.5 -5.5t41.5 -21.5v-336zM670 1572l-200 -294h-225l132 294h293z" />
    <glyph glyph-name="rcaron" unicode="&#x159;" horiz-adv-x="648" 
d="M638 864q-2 1 -13 8t-30 15t-45 15t-59 7h-1h-1q-21 0 -37.5 -11t-27.5 -26.5t-16.5 -33.5t-6.5 -32v-806h-316v1202h316v-111q22 62 60 99t99 37v-3q0 1 0.5 1t0.5 1l1 1q11 0 34.5 -5.5t41.5 -21.5v-336zM308 1528l38 -94l39 94h248l-139 -249h-295l-139 249h248z" />
    <glyph glyph-name="zacute" unicode="&#x17a;" horiz-adv-x="804" 
d="M41 0v270l342 637h-314v295h666v-268l-338 -629h340v-305h-696zM708 1572l-200 -294h-225l132 294h293z" />
    <glyph glyph-name="zcaron" unicode="&#x17e;" horiz-adv-x="804" 
d="M41 0v270l342 637h-314v295h666v-268l-338 -629h340v-305h-696zM351 1528l38 -94l39 94h248l-139 -249h-295l-139 249h248z" />
    <glyph glyph-name="zdotaccent" unicode="&#x17c;" horiz-adv-x="804" 
d="M41 0v270l342 637h-314v295h666v-268l-338 -629h340v-305h-696zM206 1410q0 90 44 130t138 40q96 0 140.5 -40t44.5 -130q0 -88 -44.5 -128t-140.5 -40q-94 0 -138 40t-44 128z" />
    <glyph glyph-name="scaron" unicode="&#x161;" horiz-adv-x="854" 
d="M805 381q0 -92 -17.5 -167t-60.5 -127.5t-115.5 -81t-183.5 -28.5q-114 0 -189 29.5t-119.5 85t-62.5 135t-18 179.5h318q0 -57 13 -88t54 -31q15 0 24 5.5t14 13.5t7 16.5t2 13.5q0 33 -31 61t-77.5 57.5t-100.5 63.5t-100.5 77.5t-77.5 100.5t-31 133q0 99 17.5 173.5
t61 124.5t116.5 75t184 25q76 0 142.5 -14t116 -57.5t78 -124t28.5 -214.5l-318 2v27t-4 33.5t-14 28.5t-29 12q-21 0 -32.5 -6t-17 -14t-6.5 -16.5t-1 -13.5q0 -27 32 -52.5t79.5 -54t103.5 -63t103.5 -79.5t79.5 -104t32 -136zM387 1528l38 -94l39 94h248l-139 -249h-295
l-139 249h248z" />
    <glyph glyph-name="scedilla" unicode="&#x15f;" horiz-adv-x="854" 
d="M805 381q0 -92 -17.5 -167t-60.5 -127.5t-115.5 -81t-183.5 -28.5q-114 0 -189 29.5t-119.5 85t-62.5 135t-18 179.5h318q0 -57 13 -88t54 -31q15 0 24 5.5t14 13.5t7 16.5t2 13.5q0 33 -31 61t-77.5 57.5t-100.5 63.5t-100.5 77.5t-77.5 100.5t-31 133q0 99 17.5 173.5
t61 124.5t116.5 75t184 25q76 0 142.5 -14t116 -57.5t78 -124t28.5 -214.5l-318 2v27t-4 33.5t-14 28.5t-29 12q-21 0 -32.5 -6t-17 -14t-6.5 -16.5t-1 -13.5q0 -27 32 -52.5t79.5 -54t103.5 -63t103.5 -79.5t79.5 -104t32 -136zM244 -283q19 -11 36.5 -20.5t38.5 -17
t48 -11.5t63 -4q38 0 65.5 15t27.5 50q0 15 -9.5 25t-24.5 16.5t-34.5 9.5t-39.5 3t-39 -2.5t-33 -7.5l2 272h149v-125q11 2 22 5q10 2 23 4t29 2q45 0 79.5 -16.5t57 -42.5t34 -60t11.5 -68q0 -54 -22 -95.5t-62.5 -69.5t-98 -42.5t-128.5 -14.5q-41 0 -77 8t-66.5 20.5
t-54.5 28t-41 30.5z" />
    <glyph glyph-name="scircumflex" unicode="&#x15d;" horiz-adv-x="854" 
d="M805 381q0 -92 -17.5 -167t-60.5 -127.5t-115.5 -81t-183.5 -28.5q-114 0 -189 29.5t-119.5 85t-62.5 135t-18 179.5h318q0 -57 13 -88t54 -31q15 0 24 5.5t14 13.5t7 16.5t2 13.5q0 33 -31 61t-77.5 57.5t-100.5 63.5t-100.5 77.5t-77.5 100.5t-31 133q0 99 17.5 173.5
t61 124.5t116.5 75t184 25q76 0 142.5 -14t116 -57.5t78 -124t28.5 -214.5l-318 2v27t-4 33.5t-14 28.5t-29 12q-21 0 -32.5 -6t-17 -14t-6.5 -16.5t-1 -13.5q0 -27 32 -52.5t79.5 -54t103.5 -63t103.5 -79.5t79.5 -104t32 -136zM139 1279l139 249h295l139 -249h-248l-39 94
l-38 -94h-248z" />
    <glyph glyph-name="scommaaccent" unicode="&#x219;" horiz-adv-x="854" 
d="M805 381q0 -92 -17.5 -167t-60.5 -127.5t-115.5 -81t-183.5 -28.5q-114 0 -189 29.5t-119.5 85t-62.5 135t-18 179.5h318q0 -57 13 -88t54 -31q15 0 24 5.5t14 13.5t7 16.5t2 13.5q0 33 -31 61t-77.5 57.5t-100.5 63.5t-100.5 77.5t-77.5 100.5t-31 133q0 99 17.5 173.5
t61 124.5t116.5 75t184 25q76 0 142.5 -14t116 -57.5t78 -124t28.5 -214.5l-318 2v27t-4 33.5t-14 28.5t-29 12q-21 0 -32.5 -6t-17 -14t-6.5 -16.5t-1 -13.5q0 -27 32 -52.5t79.5 -54t103.5 -63t103.5 -79.5t79.5 -104t32 -136zM279 -182q0 71 35.5 99.5t109.5 28.5
q78 0 113 -40t35 -115q0 -63 -10 -111t-27 -85.5t-39 -65.5t-45 -49l-111 65q19 22 31 39.5t20 34t12.5 34t7.5 39.5q-68 0 -100 30t-32 96z" />
    <glyph glyph-name="s.fat" horiz-adv-x="872" 
d="M815 381q0 -92 -17.5 -167t-60.5 -127.5t-115.5 -81t-183.5 -28.5q-114 0 -189 29.5t-119.5 85t-62.5 135t-18 179.5h318q0 -57 13 -88t54 -31q15 0 24 5.5t14 13.5t7 16.5t2 13.5q0 33 -31 61t-77.5 57.5t-100.5 63.5t-100.5 77.5t-77.5 100.5t-31 133q0 99 17.5 173.5
t61 124.5t116.5 75t184 25q76 0 142.5 -14t116 -57.5t78 -124t28.5 -214.5l-318 2v27t-4 33.5t-14 28.5t-29 12q-21 0 -32.5 -6t-17 -14t-6.5 -16.5t-1 -13.5q0 -27 32 -52.5t79.5 -54t103.5 -63t103.5 -79.5t79.5 -104t32 -136z" />
    <glyph glyph-name="greaterequal" unicode="&#x2265;" horiz-adv-x="898" 
d="M766.953 772v241l-661.96 441v-342l321.98 -220l-321.98 -219v-342zM779.952 -1v281h-691.958v-281h691.958z" />
    <glyph glyph-name="lessequal" unicode="&#x2264;" horiz-adv-x="898" 
d="M101 772v241l662 441v-342l-322 -220l322 -219v-342zM88 -1v281h692v-281h-692z" />
    <glyph glyph-name="Yacute" unicode="&#xdd;" horiz-adv-x="935" 
d="M638 518v-518h-323v518l-309 1004h356l117 -564l135 564h315zM798 1893l-200 -294h-225l132 294h293z" />
    <glyph glyph-name="Ygrave" unicode="&#x1ef2;" horiz-adv-x="935" 
d="M638 518v-518h-323v518l-309 1004h356l117 -564l135 564h315zM463 1873l132 -294h-215l-190 294h273z" />
    <glyph glyph-name="Ydieresis" unicode="&#x178;" horiz-adv-x="935" 
d="M638 518v-518h-323v518l-309 1004h356l117 -564l135 564h315zM182 1746q0 78 33 112t105 34t106 -34t34 -112q0 -75 -34 -109.5t-106 -34.5t-105 34.5t-33 109.5zM499 1746q0 78 33.5 112t104.5 34q73 0 106.5 -34t33.5 -112q0 -75 -33.5 -109.5t-106.5 -34.5
q-71 0 -104.5 34.5t-33.5 109.5z" />
    <glyph glyph-name="Ycircumflex" unicode="&#x176;" horiz-adv-x="935" 
d="M638 518v-518h-323v518l-309 1004h356l117 -564l135 564h315zM193 1600l139 249h295l139 -249h-248l-39 94l-38 -94h-248z" />
    <glyph glyph-name="Uhungarumlaut" unicode="&#x170;" horiz-adv-x="956" 
d="M871 1522v-1158q0 -91 -20 -162.5t-66 -121.5t-121 -76.5t-186 -26.5t-186 26.5t-121 76.5t-66 121.5t-20 162.5v1158h323v-1158q0 -13 2.5 -26t10 -23t21.5 -16.5t36 -6.5t36 6.5t21.5 16.5t10 23t2.5 26v1158h323zM622 1893l-190 -294h-215l132 294h273zM932 1893
l-190 -294h-215l132 294h273z" />
    <glyph glyph-name="Umacron" unicode="&#x16a;" horiz-adv-x="956" 
d="M871 1522v-1158q0 -91 -20 -162.5t-66 -121.5t-121 -76.5t-186 -26.5t-186 26.5t-121 76.5t-66 121.5t-20 162.5v1158h323v-1158q0 -13 2.5 -26t10 -23t21.5 -16.5t36 -6.5t36 6.5t21.5 16.5t10 23t2.5 26v1158h323zM214 1632v233h527v-233h-527z" />
    <glyph glyph-name="Zacute" unicode="&#x179;" horiz-adv-x="840" 
d="M60 0v293l348 913h-336v316h704v-269l-360 -938h364v-315h-720zM741 1893l-200 -294h-225l132 294h293z" />
    <glyph glyph-name="Zcaron" unicode="&#x17d;" horiz-adv-x="840" 
d="M60 0v293l348 913h-336v316h704v-269l-360 -938h364v-315h-720zM388 1849l38 -94l39 94h248l-139 -249h-295l-139 249h248z" />
    <glyph glyph-name="Zdotaccent" unicode="&#x17b;" horiz-adv-x="840" 
d="M60 0v293l348 913h-336v316h704v-269l-360 -938h364v-315h-720zM242 1731q0 90 44 130t138 40q96 0 140.5 -40t44.5 -130q0 -88 -44.5 -128t-140.5 -40q-94 0 -138 40t-44 128z" />
    <glyph glyph-name="lslash" unicode="&#x142;" horiz-adv-x="660" 
d="M85 360v283l663 490v-283zM259 0v1569h316v-1569h-316z" />
    <glyph glyph-name="afii10110" unicode="&#x45e;" horiz-adv-x="812" 
d="M798 1202l-223 -769v-433h-323v433l-235 769h310l89 -447l98 447h284zM729 1574q0 -60 -15 -115.5t-51 -98t-96 -68t-150 -25.5q-92 0 -152 25.5t-96 68t-50.5 98t-14.5 115.5h172q3 -28 6 -52.5t15.5 -42.5t40 -28.5t79.5 -10.5q48 0 75 9.5t40.5 27.5t17.5 42.5t7 54.5
h172z" />
    <glyph glyph-name="Aacute" unicode="&#xc1;" horiz-adv-x="944" 
d="M241 1523h421l232 -1523h-326l-23 199h-188l-22 -199h-326zM391 496h121l-61 541zM765 1893l-200 -294h-225l132 294h293z" />
    <glyph glyph-name="product" unicode="&#x220f;" horiz-adv-x="945" 
d="M82 -175v1698h781v-1698h-316v1390h-146v-1390h-319z" />
    <glyph glyph-name="uni00AD" unicode="&#xad;" horiz-adv-x="774" 
d="M76 -112v281h626v-281h-626z" />
    <glyph glyph-name="figuredash" unicode="&#x2012;" horiz-adv-x="774" 
d="M76 450v281h626v-281h-626z" />
    <glyph glyph-name="parenleftinferior" unicode="&#x208d;" horiz-adv-x="447" 
d="M418 -448q-91 0 -153.5 22t-103 57t-62 79.5t-31.5 90t-11.5 87.5t-1.5 72v329q0 30 1.5 72t12 87.5t32 89.5t62 79.5t102.5 57t153 21.5h13v-236h-13q-36 0 -54.5 -20.5t-26.5 -47.5t-9 -53t-1 -36v-366q0 -9 1.5 -33.5t10 -50t27 -45t52.5 -19.5h13v-237h-13z" />
    <glyph glyph-name="parenrightinferior.001" horiz-adv-x="541" 
d="M129.992 119q90.9941 0 153.49 22t102.994 57q40.4971 35 61.9961 79.5t31.498 90t11.499 87.5t1.5 72v329q0 30 -1.5 72t-11.999 87.5t-31.998 89.5t-61.9961 79.5q-40.498 35.5 -102.494 57t-152.99 21.5h-12.999v-236h12.999q35.998 0 54.4961 -20.5
q18.499 -20.5 26.499 -47.5q7.99902 -27 8.99902 -53t1 -36v-366q0 -9 -1.5 -33.5t-9.99902 -50q-8.5 -25.5 -26.998 -45q-18.499 -19.5 -52.4971 -19.5h-12.999v-237h12.999z" />
    <glyph glyph-name="approxequal" unicode="&#x2248;" horiz-adv-x="748" 
d="M711 1014q-8 -55 -25.5 -104.5t-47.5 -86.5t-73.5 -59t-102.5 -22q-35 0 -62.5 9.5t-51 21.5t-44.5 21.5t-43 9.5q-32 0 -55 -15t-35 -59l-156 43q9 53 26.5 101.5t47 85.5t72 59t100.5 22q38 0 66.5 -9.5t51.5 -21.5t43.5 -21.5t42.5 -9.5q35 0 56.5 16t32.5 58z
M711 636q-8 -55 -25.5 -104.5t-47.5 -86.5t-73.5 -59t-102.5 -22q-35 0 -62.5 9.5t-51 21.5t-44.5 21.5t-43 9.5q-32 0 -55 -15t-35 -59l-156 43q9 53 26.5 101.5t47 85.5t72 59t100.5 22q38 0 66.5 -9.5t51.5 -21.5t43.5 -21.5t42.5 -9.5q35 0 56.5 16t32.5 58z" />
    <glyph glyph-name="notequal" unicode="&#x2260;" horiz-adv-x="836" 
d="M628 1052h136v-281h-212l-38 -139h250v-281h-326l-43 -159l-229 61l26 98h-120v281h197l38 139h-235v281h311l43 158l229 -60z" />
    <glyph glyph-name="estimated" unicode="&#x212e;" horiz-adv-x="897" 
d="M834 420v-39q0 -91 -18 -165.5t-62 -127.5t-117 -82t-184 -29t-185.5 29t-120 82t-65 127.5t-19.5 165.5v442q0 91 19 165.5t63.5 127.5t118.5 82t185 29q110 0 184 -29t118.5 -82t63.5 -127.5t19 -165.5v-268l-504 2v-330q0 -21 4.5 -46.5t17 -48t35 -38t58.5 -16.5h5
q37 0 60 15t36 37.5t17.5 48.5t4.5 48v193h266zM330 666h238v313q0 22 -4.5 48t-17.5 49t-36 38.5t-60 15.5h-5q-36 -1 -58.5 -17t-35 -38.5t-17 -48.5t-4.5 -47v-313z" />
    <glyph glyph-name="partialdiff" unicode="&#x2202;" horiz-adv-x="868" 
d="M399 1545q9 1 18 1h19q111 0 184 -29.5t117 -83.5t62 -129t18 -165v-754q0 -91 -18.5 -166t-62.5 -129t-117.5 -83.5t-184.5 -29.5t-184.5 29.5t-117.5 83.5t-62.5 129t-18.5 166v221q0 91 9 166t40 129t89.5 83.5t156.5 29.5q48 0 85 -25.5t62 -74.5v200q0 28 -1.5 49.5
t-7 36.5t-17 23t-31.5 8h-5zM434 698q-21 0 -33 -8t-18 -23t-7.5 -36.5t-1.5 -48.5v-172q0 -22 2 -43t8 -37.5t18 -26.5t32 -10q23 0 35 9.5t17.5 25t6 37t0.5 45.5v172q0 27 -2 48.5t-8 36.5t-17.5 23t-31.5 8z" />
    <glyph glyph-name="sacute" unicode="&#x15b;" horiz-adv-x="854" 
d="M805 381q0 -92 -17.5 -167t-60.5 -127.5t-115.5 -81t-183.5 -28.5q-114 0 -189 29.5t-119.5 85t-62.5 135t-18 179.5h318q0 -57 13 -88t54 -31q15 0 24 5.5t14 13.5t7 16.5t2 13.5q0 33 -31 61t-77.5 57.5t-100.5 63.5t-100.5 77.5t-77.5 100.5t-31 133q0 99 17.5 173.5
t61 124.5t116.5 75t184 25q76 0 142.5 -14t116 -57.5t78 -124t28.5 -214.5l-318 2v27t-4 33.5t-14 28.5t-29 12q-21 0 -32.5 -6t-17 -14t-6.5 -16.5t-1 -13.5q0 -27 32 -52.5t79.5 -54t103.5 -63t103.5 -79.5t79.5 -104t32 -136zM742 1572l-200 -294h-225l132 294h293z" />
    <glyph glyph-name="tbar" unicode="&#x167;" horiz-adv-x="702" 
d="M457 1585v-383h166v-297h-166v-530q0 -97 57 -97q34 0 60 5t45 12.5t32.5 15.5t24.5 14l16 -266q-38 -31 -95 -56.5t-142 -25.5q-95 0 -156.5 30t-97 83t-49 126t-13.5 159v530h-129v297h129v383h318zM43 515v233h527v-233h-527z" />
    <glyph glyph-name="tcaron" unicode="&#x165;" horiz-adv-x="702" 
d="M457 1585v-383h166v-297h-166v-530q0 -97 57 -97q34 0 60 5t45 12.5t32.5 15.5t24.5 14l16 -266q-38 -31 -95 -56.5t-142 -25.5q-95 0 -156.5 30t-97 83t-49 126t-13.5 159v530h-129v297h129v383h318zM264 1891l38 -94l39 94h248l-139 -249h-295l-139 249h248z" />
    <glyph glyph-name="tcommaaccent" unicode="&#x163;" horiz-adv-x="702" 
d="M457 1585v-383h166v-297h-166v-530q0 -97 57 -97q34 0 60 5t45 12.5t32.5 15.5t24.5 14l16 -266q-38 -31 -95 -56.5t-142 -25.5q-95 0 -156.5 30t-97 83t-49 126t-13.5 159v530h-129v297h129v383h318zM299 -182q0 71 35.5 99.5t109.5 28.5q78 0 113 -40t35 -115
q0 -63 -10 -111t-27 -85.5t-39 -65.5t-45 -49l-111 65q19 22 31 39.5t20 34t12.5 34t7.5 39.5q-68 0 -100 30t-32 96z" />
    <glyph glyph-name="uacute" unicode="&#xfa;" horiz-adv-x="937" 
d="M402 1203v-830q0 -13 2 -28.5t9.5 -28.5t20.5 -22t36 -9q22 0 35.5 12t20.5 29.5t9 36t2 31.5v808h315v-1202h-315v98q-21 -55 -56.5 -87.5t-92.5 -32.5q-88 0 -146 29t-93 82t-49.5 127.5t-14.5 164.5v822h317zM782 1572l-200 -294h-225l132 294h293z" />
    <glyph glyph-name="ubreve" unicode="&#x16d;" horiz-adv-x="937" 
d="M402 1203v-830q0 -13 2 -28.5t9.5 -28.5t20.5 -22t36 -9q22 0 35.5 12t20.5 29.5t9 36t2 31.5v808h315v-1202h-315v98q-21 -55 -56.5 -87.5t-92.5 -32.5q-88 0 -146 29t-93 82t-49.5 127.5t-14.5 164.5v822h317zM781 1585q0 -60 -15 -115.5t-51 -98t-96 -68t-150 -25.5
q-92 0 -152 25.5t-96 68t-50.5 98t-14.5 115.5h172q3 -28 6 -52.5t15.5 -42.5t40 -28.5t79.5 -10.5q48 0 75 9.5t40.5 27.5t17.5 42.5t7 54.5h172z" />
    <glyph glyph-name="ucircumflex" unicode="&#xfb;" horiz-adv-x="937" 
d="M402 1203v-830q0 -13 2 -28.5t9.5 -28.5t20.5 -22t36 -9q22 0 35.5 12t20.5 29.5t9 36t2 31.5v808h315v-1202h-315v98q-21 -55 -56.5 -87.5t-92.5 -32.5q-88 0 -146 29t-93 82t-49.5 127.5t-14.5 164.5v822h317zM182 1279l139 249h295l139 -249h-248l-39 94l-38 -94h-248
z" />
    <glyph glyph-name="udieresis" unicode="&#xfc;" horiz-adv-x="937" 
d="M402 1203v-830q0 -13 2 -28.5t9.5 -28.5t20.5 -22t36 -9q22 0 35.5 12t20.5 29.5t9 36t2 31.5v808h315v-1202h-315v98q-21 -55 -56.5 -87.5t-92.5 -32.5q-88 0 -146 29t-93 82t-49.5 127.5t-14.5 164.5v822h317zM171 1425q0 78 33 112t105 34t106 -34t34 -112
q0 -75 -34 -109.5t-106 -34.5t-105 34.5t-33 109.5zM488 1425q0 78 33.5 112t104.5 34q73 0 106.5 -34t33.5 -112q0 -75 -33.5 -109.5t-106.5 -34.5q-71 0 -104.5 34.5t-33.5 109.5z" />
    <glyph glyph-name="uhungarumlaut" unicode="&#x171;" horiz-adv-x="937" 
d="M402 1203v-830q0 -13 2 -28.5t9.5 -28.5t20.5 -22t36 -9q22 0 35.5 12t20.5 29.5t9 36t2 31.5v808h315v-1202h-315v98q-21 -55 -56.5 -87.5t-92.5 -32.5q-88 0 -146 29t-93 82t-49.5 127.5t-14.5 164.5v822h317zM621 1572l-190 -294h-215l132 294h273zM931 1572
l-190 -294h-215l132 294h273z" />
    <glyph glyph-name="ugrave" unicode="&#xf9;" horiz-adv-x="937" 
d="M402 1203v-830q0 -13 2 -28.5t9.5 -28.5t20.5 -22t36 -9q22 0 35.5 12t20.5 29.5t9 36t2 31.5v808h315v-1202h-315v98q-21 -55 -56.5 -87.5t-92.5 -32.5q-88 0 -146 29t-93 82t-49.5 127.5t-14.5 164.5v822h317zM448 1572l132 -294h-215l-190 294h273z" />
    <glyph glyph-name="umacron" unicode="&#x16b;" horiz-adv-x="937" 
d="M402 1203v-830q0 -13 2 -28.5t9.5 -28.5t20.5 -22t36 -9q22 0 35.5 12t20.5 29.5t9 36t2 31.5v808h315v-1202h-315v98q-21 -55 -56.5 -87.5t-92.5 -32.5q-88 0 -146 29t-93 82t-49.5 127.5t-14.5 164.5v822h317zM205 1311v233h527v-233h-527z" />
    <glyph glyph-name="uogonek" unicode="&#x173;" horiz-adv-x="937" 
d="M402 1203v-830q0 -13 2 -28.5t9.5 -28.5t20.5 -22t36 -9q22 0 35.5 12t20.5 29.5t9 36t2 31.5v808h315v-1202h-315v98q-21 -55 -56.5 -87.5t-92.5 -32.5q-88 0 -146 29t-93 82t-49.5 127.5t-14.5 164.5v822h317zM876 -417q-54 -60 -172 -60q-55 0 -105 13.5t-88.5 43.5
t-61 77.5t-22.5 115.5q0 56 24.5 97t66.5 73t98 58.5t119 53.5l117 -55q-42 -26 -70.5 -49t-45 -46t-23.5 -48t-7 -55q0 -38 17 -56t45 -18q18 0 29.5 1t21 4t18.5 8t21 12z" />
    <glyph glyph-name="uring" unicode="&#x16f;" horiz-adv-x="937" 
d="M402 1203v-830q0 -13 2 -28.5t9.5 -28.5t20.5 -22t36 -9q22 0 35.5 12t20.5 29.5t9 36t2 31.5v808h315v-1202h-315v98q-21 -55 -56.5 -87.5t-92.5 -32.5q-88 0 -146 29t-93 82t-49.5 127.5t-14.5 164.5v822h317zM213 1492q0 124 62 180t192 56q132 0 194 -56t62 -180
q0 -121 -61.5 -177.5t-194.5 -56.5q-131 0 -192.5 56.5t-61.5 177.5zM410 1493q0 -28 13.5 -41.5t44.5 -13.5q30 0 43.5 13.5t13.5 41.5q0 27 -13.5 39.5t-43.5 12.5q-31 0 -44.5 -12.5t-13.5 -39.5z" />
    <glyph glyph-name="utilde" unicode="&#x169;" horiz-adv-x="937" 
d="M402 1203v-830q0 -13 2 -28.5t9.5 -28.5t20.5 -22t36 -9q22 0 35.5 12t20.5 29.5t9 36t2 31.5v808h315v-1202h-315v98q-21 -55 -56.5 -87.5t-92.5 -32.5q-88 0 -146 29t-93 82t-49.5 127.5t-14.5 164.5v822h317zM816 1547q-8 -55 -25.5 -104.5t-47.5 -86.5t-73.5 -59
t-102.5 -22q-35 0 -62.5 9.5t-51 21.5t-44.5 21.5t-43 9.5q-32 0 -55 -15t-35 -59l-156 43q9 53 26.5 101.5t47 85.5t72 59t100.5 22q38 0 66.5 -9.5t51.5 -21.5t43.5 -21.5t42.5 -9.5q35 0 56.5 16t32.5 58z" />
    <glyph glyph-name="yacute" unicode="&#xfd;" horiz-adv-x="887" 
d="M336 1204l108 -864l109 864h326q-33 -211 -67 -419.5t-67 -419.5l-63 -400q-12 -94 -47 -171.5t-83 -137t-104.5 -100t-113.5 -60.5l-136 228q27 11 57 26t57 41.5t48 69.5t31 110l4 29h-193l-192 1204h326zM761 1572l-200 -294h-225l132 294h293z" />
    <glyph glyph-name="ycircumflex" unicode="&#x177;" horiz-adv-x="887" 
d="M336 1204l108 -864l109 864h326q-33 -211 -67 -419.5t-67 -419.5l-63 -400q-12 -94 -47 -171.5t-83 -137t-104.5 -100t-113.5 -60.5l-136 228q27 11 57 26t57 41.5t48 69.5t31 110l4 29h-193l-192 1204h326zM166 1279l139 249h295l139 -249h-248l-39 94l-38 -94h-248z
" />
    <glyph glyph-name="ydieresis" unicode="&#xff;" horiz-adv-x="887" 
d="M336 1204l108 -864l109 864h326q-33 -211 -67 -419.5t-67 -419.5l-63 -400q-12 -94 -47 -171.5t-83 -137t-104.5 -100t-113.5 -60.5l-136 228q27 11 57 26t57 41.5t48 69.5t31 110l4 29h-193l-192 1204h326zM155 1425q0 78 33 112t105 34t106 -34t34 -112
q0 -75 -34 -109.5t-106 -34.5t-105 34.5t-33 109.5zM472 1425q0 78 33.5 112t104.5 34q73 0 106.5 -34t33.5 -112q0 -75 -33.5 -109.5t-106.5 -34.5q-71 0 -104.5 34.5t-33.5 109.5z" />
    <glyph glyph-name="ygrave" unicode="&#x1ef3;" horiz-adv-x="887" 
d="M336 1204l108 -864l109 864h326q-33 -211 -67 -419.5t-67 -419.5l-63 -400q-12 -94 -47 -171.5t-83 -137t-104.5 -100t-113.5 -60.5l-136 228q27 11 57 26t57 41.5t48 69.5t31 110l4 29h-193l-192 1204h326zM428 1572l132 -294h-215l-190 294h273z" />
    <glyph glyph-name="aeacute" unicode="&#x1fd;" horiz-adv-x="1379" 
d="M1294 406v-25q0 -91 -18 -165.5t-62 -127.5t-117 -82t-184 -29q-92 0 -153.5 19.5t-101.5 56.5q-48 -34 -110.5 -55t-138.5 -21q-99 0 -165.5 27.5t-106.5 78.5t-57 124t-17 164q0 93 14 157.5t48 105t92 59t145 18.5q54 0 93.5 -5t68.5 -11v136q0 13 -2 28.5t-9 29
t-20.5 22.5t-35.5 9t-35.5 -9.5t-20.5 -23t-9.5 -29.5t-2.5 -29v-32h-316v26q0 91 18.5 165.5t62.5 127.5t117.5 82t183.5 29q78 0 132.5 -14.5t92.5 -41.5q39 27 95 41.5t134 14.5q110 0 184 -29t118.5 -82t63.5 -127.5t19 -165.5v-295l-457 -96v-55q0 -13 3 -29
t10.5 -29.5t21.5 -22.5t37 -9q22 0 36 9t21.5 22.5t10.5 29.5t3 29v29h314zM909 920q-23 0 -37 -9.5t-21.5 -23t-10.5 -29.5t-3 -29v-124l143 35v89q0 13 -3 29t-10.5 29.5t-21.5 23t-36 9.5zM455 284q22 0 36.5 12t23.5 29.5t12.5 36t3.5 31.5v38q-15 7 -39 13.5t-43 6.5
q-21 0 -33.5 -7t-18.5 -19t-8 -28t-2 -34q0 -13 2.5 -27t9.5 -25.5t20.5 -19t35.5 -7.5zM981 1572l-200 -294h-225l132 294h293z" />
    <glyph glyph-name="commasuperior" unicode="&#xf6e2;" horiz-adv-x="427" 
d="M37 977q0 90 44 130t138 40q97 0 141 -55t44 -149q0 -78 -13 -142t-34 -114.5t-48.5 -88.5t-56.5 -65l-139 82q24 28 39.5 51.5t25.5 46t15.5 46t9.5 50.5q-85 0 -125.5 42.5t-40.5 125.5z" />
    <glyph glyph-name="periodinferior.001" horiz-adv-x="443" 
d="M37 145q0 90 44 130t138 40q96 0 140.5 -40t44.5 -130q0 -88 -44.5 -128t-140.5 -40q-94 0 -138 40t-44 128z" />
    <glyph glyph-name="commainferior.001" horiz-adv-x="427" 
d="M37 145q0 90 44 130t138 40q97 0 141 -55t44 -149q0 -78 -13 -142t-34 -114.5t-48.5 -88.5t-56.5 -65l-139 82q24 28 39.5 51.5t25.5 46t15.5 46t9.5 50.5q-85 0 -125.5 42.5t-40.5 125.5z" />
    <glyph glyph-name="periodsuperior" unicode="&#xf6e8;" horiz-adv-x="443" 
d="M37 967q0 90 44 130t138 40q96 0 140.5 -40t44.5 -130q0 -88 -44.5 -128t-140.5 -40q-94 0 -138 40t-44 128z" />
    <glyph glyph-name="oslash" unicode="&#xf8;" horiz-adv-x="911" 
d="M108 163q-20 46 -29 100.5t-9 117.5v442q0 91 19 165.5t63.5 127.5t118.5 82t185 29q108 0 184 -29l54 105l227 -2l-125 -244q24 -48 34.5 -107t10.5 -127v-442q0 -91 -18 -165.5t-62 -127.5t-117 -82t-184 -29q-118 0 -198 34l-64 -125l-231 2zM456 287q22 0 35.5 9
t20.5 22t9 28.5t2 28.5v147l-112 -220q8 -7 18.5 -11t26.5 -4zM456 920q-23 0 -36 -9t-20.5 -22.5t-9.5 -29t-2 -28.5v-124l104 203q-15 10 -36 10z" />
    <glyph glyph-name="Aacutesmall" unicode="&#xf7e1;" horiz-adv-x="905" 
d="M895 0h-326l-17 130h-200l-16 -130h-326l192 1204h501zM387 407h131l-62 490h-8zM761 1572l-200 -294h-225l132 294h293z" />
    <glyph glyph-name="Abrevesmall" horiz-adv-x="885" 
d="M755 1585q0 -60 -15 -115.5t-51 -98t-96 -68t-150 -25.5q-92 0 -152 25.5t-96 68t-50.5 98t-14.5 115.5h172q3 -28 6 -52.5t15.5 -42.5t40 -28.5t79.5 -10.5q48 0 75 9.5t40.5 27.5t17.5 42.5t7 54.5h172zM886 0h-326l-17 130h-200l-16 -130h-326l192 1204h501zM378 407
h131l-62 490h-8z" />
    <glyph glyph-name="Acircumflexsmall" unicode="&#xf7e2;" horiz-adv-x="905" 
d="M166 1279l139 249h295l139 -249h-248l-39 94l-38 -94h-248zM895 0h-326l-17 130h-200l-16 -130h-326l192 1204h501zM387 407h131l-62 490h-8z" />
    <glyph glyph-name="Adieresissmall" unicode="&#xf7e4;" horiz-adv-x="905" 
d="M155 1425q0 78 33 112t105 34t106 -34t34 -112q0 -75 -34 -109.5t-106 -34.5t-105 34.5t-33 109.5zM472 1425q0 78 33.5 112t104.5 34q73 0 106.5 -34t33.5 -112q0 -75 -33.5 -109.5t-106.5 -34.5q-71 0 -104.5 34.5t-33.5 109.5zM895 0h-326l-17 130h-200l-16 -130h-326
l192 1204h501zM387 407h131l-62 490h-8z" />
    <glyph glyph-name="Agravesmall" unicode="&#xf7e0;" horiz-adv-x="905" 
d="M436 1572l132 -294h-215l-190 294h273zM895 0h-326l-17 130h-200l-16 -130h-326l192 1204h501zM387 407h131l-62 490h-8z" />
    <glyph glyph-name="Amacron.small" horiz-adv-x="905" 
d="M191 1311v233h527v-233h-527zM895 0h-326l-17 130h-200l-16 -130h-326l192 1204h501zM387 407h131l-62 490h-8z" />
    <glyph glyph-name="Aogonek.small" horiz-adv-x="905" 
d="M916 -417q-54 -60 -172 -60q-55 0 -105 13.5t-88.5 43.5t-61 77.5t-22.5 115.5q0 56 24.5 97t66.5 73t98 58.5t119 53.5l117 -55q-42 -26 -70.5 -49t-45 -46t-23.5 -48t-7 -55q0 -38 17 -56t45 -18q18 0 29.5 1t21 4t18.5 8t21 12zM895 0h-326l-17 130h-200l-16 -130
h-326l192 1204h501zM387 407h131l-62 490h-8z" />
    <glyph glyph-name="Aringsmall" unicode="&#xf7e5;" horiz-adv-x="905" 
d="M197 1492q0 124 62 180t192 56q132 0 194 -56t62 -180q0 -121 -61.5 -177.5t-194.5 -56.5q-131 0 -192.5 56.5t-61.5 177.5zM394 1493q0 -28 13.5 -41.5t44.5 -13.5q30 0 43.5 13.5t13.5 41.5q0 27 -13.5 39.5t-43.5 12.5q-31 0 -44.5 -12.5t-13.5 -39.5zM895 0h-326
l-17 130h-200l-16 -130h-326l192 1204h501zM387 407h131l-62 490h-8z" />
    <glyph glyph-name="Atildesmall" unicode="&#xf7e3;" horiz-adv-x="905" 
d="M801 1547q-8 -55 -25.5 -104.5t-47.5 -86.5t-73.5 -59t-102.5 -22q-35 0 -62.5 9.5t-51 21.5t-44.5 21.5t-43 9.5q-32 0 -55 -15t-35 -59l-156 43q9 53 26.5 101.5t47 85.5t72 59t100.5 22q38 0 66.5 -9.5t51.5 -21.5t43.5 -21.5t42.5 -9.5q35 0 56.5 16t32.5 58zM895 0
h-326l-17 130h-200l-16 -130h-326l192 1204h501zM387 407h131l-62 490h-8z" />
    <glyph glyph-name="Cacute.small" horiz-adv-x="911" 
d="M759 1582l-200 -294h-225l132 294h293zM527 406h314v-25q0 -91 -18 -165.5t-62 -127.5t-117 -82t-184 -29t-185.5 29t-120 82t-65 127.5t-19.5 165.5v442q0 91 19 165.5t63.5 127.5t118.5 82t185 29q110 0 184 -29t118.5 -82t63.5 -127.5t19 -165.5v-26h-314v32
q0 13 -3 29t-10.5 29.5t-21.5 23t-36 9.5q-23 0 -36 -9t-20.5 -22.5t-9.5 -29t-2 -28.5v-456q0 -13 2 -28.5t9.5 -28.5t20.5 -22t36 -9q22 0 36 9t21.5 22.5t10.5 29.5t3 29v29z" />
    <glyph glyph-name="Ccaron.small" horiz-adv-x="911" 
d="M427 1528l38 -94l39 94h248l-139 -249h-295l-139 249h248zM527 406h314v-25q0 -91 -18 -165.5t-62 -127.5t-117 -82t-184 -29t-185.5 29t-120 82t-65 127.5t-19.5 165.5v442q0 91 19 165.5t63.5 127.5t118.5 82t185 29q110 0 184 -29t118.5 -82t63.5 -127.5t19 -165.5
v-26h-314v32q0 13 -3 29t-10.5 29.5t-21.5 23t-36 9.5q-23 0 -36 -9t-20.5 -22.5t-9.5 -29t-2 -28.5v-456q0 -13 2 -28.5t9.5 -28.5t20.5 -22t36 -9q22 0 36 9t21.5 22.5t10.5 29.5t3 29v29z" />
    <glyph glyph-name="Ccedillasmall" unicode="&#xf7e7;" horiz-adv-x="911" 
d="M258 -283q19 -11 36.5 -20.5t38.5 -17t48 -11.5t63 -4q38 0 65.5 15t27.5 50q0 15 -9.5 25t-24.5 16.5t-34.5 9.5t-39.5 3t-39 -2.5t-33 -7.5l2 272h149v-125q11 2 22 5q10 2 23 4t29 2q45 0 79.5 -16.5t57 -42.5t34 -60t11.5 -68q0 -54 -22 -95.5t-62.5 -69.5t-98 -42.5
t-128.5 -14.5q-41 0 -77 8t-66.5 20.5t-54.5 28t-41 30.5zM527 406h314v-25q0 -91 -18 -165.5t-62 -127.5t-117 -82t-184 -29t-185.5 29t-120 82t-65 127.5t-19.5 165.5v442q0 91 19 165.5t63.5 127.5t118.5 82t185 29q110 0 184 -29t118.5 -82t63.5 -127.5t19 -165.5v-26
h-314v32q0 13 -3 29t-10.5 29.5t-21.5 23t-36 9.5q-23 0 -36 -9t-20.5 -22.5t-9.5 -29t-2 -28.5v-456q0 -13 2 -28.5t9.5 -28.5t20.5 -22t36 -9q22 0 36 9t21.5 22.5t10.5 29.5t3 29v29z" />
    <glyph glyph-name="Ccircumflex.small" horiz-adv-x="911" 
d="M527 406h314v-25q0 -91 -18 -165.5t-62 -127.5t-117 -82t-184 -29t-185.5 29t-120 82t-65 127.5t-19.5 165.5v442q0 91 19 165.5t63.5 127.5t118.5 82t185 29q110 0 184 -29t118.5 -82t63.5 -127.5t19 -165.5v-26h-314v32q0 13 -3 29t-10.5 29.5t-21.5 23t-36 9.5
q-23 0 -36 -9t-20.5 -22.5t-9.5 -29t-2 -28.5v-456q0 -13 2 -28.5t9.5 -28.5t20.5 -22t36 -9q22 0 36 9t21.5 22.5t10.5 29.5t3 29v29zM169 1279l139 249h295l139 -249h-248l-39 94l-38 -94h-248z" />
    <glyph glyph-name="Cdotaccent.small" horiz-adv-x="911" 
d="M272 1410q0 90 44 130t138 40q96 0 140.5 -40t44.5 -130q0 -88 -44.5 -128t-140.5 -40q-94 0 -138 40t-44 128zM527 406h314v-25q0 -91 -18 -165.5t-62 -127.5t-117 -82t-184 -29t-185.5 29t-120 82t-65 127.5t-19.5 165.5v442q0 91 19 165.5t63.5 127.5t118.5 82t185 29
q110 0 184 -29t118.5 -82t63.5 -127.5t19 -165.5v-26h-314v32q0 13 -3 29t-10.5 29.5t-21.5 23t-36 9.5q-23 0 -36 -9t-20.5 -22.5t-9.5 -29t-2 -28.5v-456q0 -13 2 -28.5t9.5 -28.5t20.5 -22t36 -9q22 0 36 9t21.5 22.5t10.5 29.5t3 29v29z" />
    <glyph glyph-name="Eacutesmall" unicode="&#xf7e9;" horiz-adv-x="860" 
d="M85 0v1202h700v-317h-383v-119h246v-317h-246v-132h383v-317h-700zM716 1572l-200 -294h-225l132 294h293z" />
    <glyph glyph-name="Ebreve.small" horiz-adv-x="860" 
d="M737 1585q0 -60 -15 -115.5t-51 -98t-96 -68t-150 -25.5q-92 0 -152 25.5t-96 68t-50.5 98t-14.5 115.5h172q3 -28 6 -52.5t15.5 -42.5t40 -28.5t79.5 -10.5q48 0 75 9.5t40.5 27.5t17.5 42.5t7 54.5h172zM85 0v1202h700v-317h-383v-119h246v-317h-246v-132h383v-317
h-700z" />
    <glyph glyph-name="Ecaron.small" horiz-adv-x="860" 
d="M386 1528l38 -94l39 94h248l-139 -249h-295l-139 249h248zM85 0v1202h700v-317h-383v-119h246v-317h-246v-132h383v-317h-700z" />
    <glyph glyph-name="Ecircumflexsmall" unicode="&#xf7ea;" horiz-adv-x="860" 
d="M138 1279l139 249h295l139 -249h-248l-39 94l-38 -94h-248zM85 0v1202h700v-317h-383v-119h246v-317h-246v-132h383v-317h-700z" />
    </font>
</defs>
</svg>
