<?xml version="1.0" standalone="no"?>
<!DOCTYPE svg PUBLIC "-//W3C//DTD SVG 1.1//EN" "http://www.w3.org/Graphics/SVG/1.1/DTD/svg11.dtd" >
<svg xmlns="http://www.w3.org/2000/svg" xmlns:xlink="http://www.w3.org/1999/xlink" version="1.1">
<metadata>
Created by FontForge 20170910 at Tue Oct 10 16:14:15 2017
 By Jimmy Wärting
Copyright (c) 2017 by Studio Kmzero &#38; Zetafonts. All rights reserved.
</metadata>
<defs>
<font id="HeadingProTrial-ExtraLight" horiz-adv-x="2531" >
  <font-face 
    font-family="Heading Pro Trial"
    font-weight="250"
    font-stretch="normal"
    units-per-em="2048"
    panose-1="2 0 5 6 0 0 0 2 0 4"
    ascent="1638"
    descent="-410"
    x-height="1202"
    cap-height="1520"
    bbox="-163 -819 2479 1905"
    underline-thickness="102"
    underline-position="-205"
    unicode-range="U+000D-FB06"
  />
<missing-glyph horiz-adv-x="870" 
 />
    <glyph glyph-name="f_t" unicode="ft" horiz-adv-x="1109" 
d="M35 1204h120v8q0 97 5.5 171.5t29.5 125.5t72 77t133 26q25 0 48.5 -4t43.5 -10t35.5 -13t25.5 -13l-12 -70q-10 4 -25.5 10t-35 11t-41 8.5t-42.5 3.5q-56 -1 -87 -17t-46 -53.5t-18 -99.5t-3 -153v-8h446v392h84v-392h267v-76h-267v-744q0 -92 3 -153.5t17.5 -99
t45.5 -53.5t88 -17q21 0 42.5 3.5t40.5 8.5t35 10.5t25 10.5l12 -69q-20 -12 -61 -26.5t-92 -14.5q-85 0 -133 26t-72 77t-29.5 125.5t-5.5 171.5v744h-446v-1128h-83v1128h-120v76z" />
    <glyph glyph-name="ff" unicode="ff" horiz-adv-x="1064" 
d="M687 0v1128h-449v-1128h-83v1128h-120v76h120v8q0 97 5.5 171.5t29.5 125.5t72 77t133 26q25 0 48.5 -4t43.5 -10t35.5 -13t25.5 -13l-12 -70q-10 4 -25.5 10t-35 11t-41 8.5t-42.5 3.5q-56 -1 -87 -17t-46 -53.5t-18 -99.5t-3 -153v-8h449v8q0 97 5.5 171.5t29 125.5
t71.5 77t133 26q26 0 49.5 -4t43.5 -10t35.5 -13t25.5 -13l-13 -70q-9 4 -24.5 10t-35 11t-41 8.5t-42.5 3.5q-57 -1 -88 -17t-45.5 -53.5t-17.5 -99.5t-3 -153v-8h268v-76h-268v-1128h-83z" />
    <glyph glyph-name="ffi" unicode="ffi" horiz-adv-x="1454" 
d="M687 0v1128h-449v-1128h-83v1128h-120v76h120v8q0 97 5.5 171.5t29.5 125.5t72 77t133 26q25 0 48.5 -4t43.5 -10t35.5 -13t25.5 -13l-12 -70q-10 4 -25.5 10t-35 11t-41 8.5t-42.5 3.5q-56 -1 -87 -17t-46 -53.5t-18 -99.5t-3 -153v-8h449v8q0 97 5.5 171.5t29 125.5
t71.5 77t133 26q26 0 49.5 -4t43.5 -10t35.5 -13t25.5 -13l-13 -70q-9 4 -24.5 10t-35 11t-41 8.5t-42.5 3.5q-57 -1 -88 -17t-45.5 -53.5t-17.5 -99.5t-3 -153v-8h461v-2h69v-1202h-84v1128h-446v-1128h-83zM1203 1517q0 24 13.5 38.5t41.5 14.5q34 0 47 -14.5t13 -38.5
q0 -23 -13 -36.5t-47 -13.5q-28 0 -41.5 13.5t-13.5 36.5z" />
    <glyph glyph-name="ffl" unicode="ffl" horiz-adv-x="1455" 
d="M35 1204h120v8q0 97 5.5 171.5t29.5 125.5t72 77t133 26q25 0 48.5 -4t43.5 -10t35.5 -13t25.5 -13l-12 -70q-10 4 -25.5 10t-35 11t-41 8.5t-42.5 3.5q-56 -1 -87 -17t-46 -53.5t-18 -99.5t-3 -153v-8h449v8q0 97 5.5 171.5t29 125.5t71.5 77t133 26q26 0 49.5 -4
t43.5 -10t35.5 -13t25.5 -13l-13 -70q-9 4 -24.5 10t-35 11t-41 8.5t-42.5 3.5q-57 -1 -88 -17t-45.5 -53.5t-17.5 -99.5t-3 -153v-8h461v-76h-461v-1128h-83v1128h-449v-1128h-83v1128h-120v76zM1218 0v1567h84v-1567h-84z" />
    <glyph glyph-name="fi" unicode="fi" horiz-adv-x="859" 
d="M44 1204h120v8q0 97 5.5 171.5t29.5 125.5t72 77t133 26q51 0 86.5 -12t55.5 -24l-12 -70q-19 9 -55 19t-78 10q-56 -1 -87 -17t-45.5 -53.5t-17.5 -99.5t-3 -153v-8h446v-1204h-84v1128h-362v-1128h-84v1128h-120v76zM597 1517q0 24 13 38.5t42 14.5q34 0 47 -14.5
t13 -38.5q0 -23 -13 -36.5t-47 -13.5q-29 0 -42 13.5t-13 36.5z" />
    <glyph glyph-name="f_j" unicode="fj" horiz-adv-x="923" 
d="M35 1204h120v8q0 97 5.5 171.5t29.5 125.5t72 77t133 26q25 0 48.5 -4t43.5 -10t35.5 -13t25.5 -13l-12 -70q-10 4 -25.5 10t-35 11t-41 8.5t-42.5 3.5q-56 -1 -87 -17t-46 -53.5t-18 -99.5t-3 -153v-8h465v-2h67v-1212q0 -97 -5.5 -171.5t-29.5 -125.5t-72 -77t-133 -26
q-26 0 -49 4t-43 10t-35.5 13t-25.5 13l12 70q10 -5 25.5 -10.5t35 -10.5t41 -8.5t42.5 -3.5q56 1 87 17t45.5 53.5t17.5 99t3 153.5v1138h-448v-1128h-83v1128h-120v76zM670 1517q0 24 13 38.5t41 14.5q35 0 48 -14.5t13 -38.5q0 -23 -13 -36.5t-48 -13.5q-28 0 -41 13.5
t-13 36.5z" />
    <glyph glyph-name="fl" unicode="fl" horiz-adv-x="879" 
d="M658 0v1515q-39 9 -89 16.5t-104 7.5q-73 0 -116 -17t-65.5 -55t-29 -101t-6.5 -154v-8h265v-76h-265v-1128h-84v1128h-120v76h120v8q0 97 9.5 172t41 126t92 77.5t162.5 26.5q44 0 88 -5.5t80.5 -13.5t64 -16.5t38.5 -14.5h2v-1564h-84z" />
    <glyph glyph-name=".notdef" horiz-adv-x="870" 
 />
    <glyph glyph-name="space" unicode=" " horiz-adv-x="398" 
 />
    <glyph glyph-name="exclam" unicode="!" horiz-adv-x="409" 
d="M168 366l-11 1154h95l-11 -1154h-73zM142 45q0 29 13.5 46t45.5 17q38 0 51 -17t13 -46q0 -27 -13 -43.5t-51 -16.5q-32 0 -45.5 16.5t-13.5 43.5z" />
    <glyph glyph-name="quotedbl" unicode="&#x22;" horiz-adv-x="579" 
d="M127 1151l-4 369h85l-3 -369h-78zM361 1151l-3 369h84l-4 -369h-77z" />
    <glyph glyph-name="numbersign" unicode="#" horiz-adv-x="996" 
d="M811 496h-156l-56 -496h-78l56 496h-224l-57 -496h-78l56 496h-148l1 69h155l50 435h-151l1 69h158l51 451h79l-52 -451h224l51 451h79l-51 -451h146l-1 -69h-153l-50 -435h149zM361 565h224l49 435h-224z" />
    <glyph glyph-name="percent" unicode="%" horiz-adv-x="1304" 
d="M104 1218q0 62 3.5 118t23 98.5t61 67.5t117.5 25q75 0 116.5 -25t61 -67t23.5 -98t4 -119v-274q0 -63 -4 -119t-24 -98.5t-61.5 -67t-115.5 -24.5q-59 0 -98.5 17t-63 48t-33.5 73.5t-10 92.5v352zM309 707q36 0 60 11.5t38.5 32.5t20.5 50.5t6 64.5v353q0 46 -1.5 89
t-12.5 75t-36.5 51.5t-74.5 19.5q-45 0 -70 -14.5t-37.5 -40t-15.5 -59.5t-3 -73v-47v-276q0 -47 1.5 -90t13 -75.5t37 -52t74.5 -19.5zM447 0h-85l490 1520h83zM790 567q0 62 3.5 118t23 98.5t61 67.5t117.5 25q75 0 116.5 -24.5t61 -67t23.5 -98.5t4 -119v-273
q0 -63 -4 -119t-24 -98.5t-61.5 -67t-115.5 -24.5q-60 0 -99.5 17t-63 48t-33 73.5t-9.5 92.5v351zM995 57q36 0 60 11.5t38.5 32.5t20.5 50.5t6 64.5v352q0 46 -1.5 89t-12.5 75.5t-36.5 52t-74.5 19.5q-44 0 -69 -14.5t-37.5 -39.5t-15.5 -58.5t-3 -71.5v-51v-275
q0 -47 1.5 -90t12.5 -75.5t37 -52t74 -19.5z" />
    <glyph glyph-name="ampersand" unicode="&#x26;" horiz-adv-x="893" 
d="M767 827h55v-75h-55v-360q0 -78 -9.5 -151t-41.5 -130t-93 -91.5t-164 -34.5q-101 0 -162 33.5t-93.5 89.5t-42.5 130.5t-10 155.5v95q0 58 15 108.5t42 90.5t64.5 66.5t83.5 35.5q-50 12 -83.5 39t-54 66t-29.5 88.5t-9 105.5v99q0 92 22 155.5t61 102.5t92.5 56.5
t116.5 17.5h189v-77h-188q-59 0 -99 -21.5t-64.5 -57t-35.5 -82t-11 -96.5v-100q0 -62 12 -110.5t38.5 -81.5t69 -50.5t103.5 -17.5h198v120h83v-119zM235 398q0 -76 6.5 -138t30 -106t67.5 -68t119 -24q82 0 127.5 29t67.5 76.5t26.5 107t4.5 121.5v355h-211
q-54 0 -97.5 -20.5t-74.5 -56t-48.5 -83.5t-17.5 -102v-91z" />
    <glyph glyph-name="quoteright" unicode="&#x2019;" horiz-adv-x="201" 
d="M58 1234q11 38 16.5 70.5t5.5 55.5q0 24 -7 37.5t-22 13.5h-16v115h119v-111q0 -10 -1.5 -31.5t-6 -49t-11.5 -58.5t-17 -59z" />
    <glyph glyph-name="parenleft" unicode="(" horiz-adv-x="547" 
d="M401 -83q-77 0 -124 31t-72.5 81t-34.5 114.5t-9 131.5v969q0 24 1 60t8 75.5t21 79.5t41 71.5t68 51.5t101 20h26v-75h-26q-39 0 -66 -16.5t-44.5 -43t-27 -59t-14 -64t-5 -58t-0.5 -41.5v-971q0 -60 8 -111.5t26 -89t48 -59t75 -21.5h26v-76h-26z" />
    <glyph glyph-name="parenright" unicode=")" horiz-adv-x="534" 
d="M119 -83v76h26q45 0 75.5 21.5t48.5 59t26 89t8 111.5v971q0 15 -0.5 41.5t-5 58t-14 64t-27 59t-45 43t-66.5 16.5h-26v75h26q60 0 101 -20t68 -51.5t41 -71.5t21 -79.5t8 -75.5t1 -60v-969q0 -67 -9 -131.5t-34.5 -114.5t-73 -81t-123.5 -31h-26z" />
    <glyph glyph-name="asterisk" unicode="*" horiz-adv-x="851" 
d="M459 1206l297 102l27 -77l-300 -94l187 -250l-64 -48l-182 254l-181 -254l-65 46l185 252l-297 92l22 76l298 -99l-4 314h82z" />
    <glyph glyph-name="plus" unicode="+" horiz-adv-x="830" 
d="M378 664h-264v77h264v263h75v-263h264v-77h-264v-262h-75v262z" />
    <glyph glyph-name="comma" unicode="," horiz-adv-x="379" 
d="M129 45q0 30 15 46.5t44 16.5q37 0 51.5 -22.5t14.5 -52.5q0 -34 -5.5 -63t-13.5 -53t-17.5 -44t-17.5 -35l-46 21q19 38 27 66t12 60q-64 0 -64 60z" />
    <glyph glyph-name="hyphen" unicode="-" horiz-adv-x="409" 
d="M0 552v77h409v-77h-409z" />
    <glyph glyph-name="period" unicode="." horiz-adv-x="386" 
d="M129 45q0 29 14 46t45 17q38 0 51 -17t13 -46q0 -27 -13 -43.5t-51 -16.5q-31 0 -45 16.5t-14 43.5z" />
    <glyph glyph-name="slash" unicode="/" horiz-adv-x="708" 
d="M152 -80h-84l490 1679h82z" />
    <glyph glyph-name="colon" unicode=":" horiz-adv-x="279" 
d="M78 45q0 29 14 46t45 17q38 0 51 -17t13 -46q0 -27 -13 -43.5t-51 -16.5q-31 0 -45 16.5t-14 43.5zM78 1147q0 29 14 46t45 17q38 0 51 -17t13 -46q0 -27 -13 -43.5t-51 -16.5q-31 0 -45 16.5t-14 43.5z" />
    <glyph glyph-name="less" unicode="&#x3c;" horiz-adv-x="596" 
d="M53 666v73l435 334v-100l-351 -271l351 -270v-100z" />
    <glyph glyph-name="equal" unicode="=" horiz-adv-x="830" 
d="M114 854v77h603v-77h-603zM114 482v77h603v-77h-603z" />
    <glyph glyph-name="greater" unicode="&#x3e;" horiz-adv-x="596" 
d="M547.967 666v73l-434.974 334v-100l350.979 -271l-350.979 -270v-100z" />
    <glyph glyph-name="question" unicode="?" horiz-adv-x="807" 
d="M686 1159q0 -74 -20 -136.5t-50.5 -118t-66 -106.5t-66 -103.5t-51 -108t-20.5 -119.5v-101h-73v101q0 74 19.5 135t48.5 115t63 104.5t63.5 103t49 110t19.5 126.5q0 145 -50.5 218.5t-164.5 73.5q-47 0 -83 -13.5t-60.5 -37.5t-39 -56.5t-17.5 -71.5l-13 -142h-79
l-1 71q0 70 17.5 130t53.5 103.5t91 68t131 24.5q144 0 221.5 -88.5t77.5 -281.5zM314 45q0 29 13.5 46t44.5 17q38 0 51 -17t13 -46q0 -27 -13 -43.5t-51 -16.5q-31 0 -44.5 16.5t-13.5 43.5z" />
    <glyph glyph-name="A" unicode="A" horiz-adv-x="778" 
d="M680 0l-79 393h-431l-78 -393h-86l309 1520h141l310 -1520h-86zM185 469h401l-194 975h-12z" />
    <glyph glyph-name="B" unicode="B" horiz-adv-x="865" 
d="M680 489q0 54 -17.5 102t-48.5 83.5t-74.5 56t-97.5 20.5h-211v-672h214q49 0 93 8t76.5 39t50.5 92.5t15 168.5v102zM652 1186q0 50 -11 96.5t-35.5 82t-65 57t-98.5 21.5h-211v-617h196q61 0 104 17.5t70 50.5t39 81.5t12 110.5v100zM764 387q0 -107 -17 -180.5
t-55 -119t-99 -65.5t-149 -20h-296v1518h295q63 0 116.5 -17.5t92.5 -56.5t61 -102.5t22 -155.5v-99q0 -56 -9 -105.5t-29.5 -88.5t-54 -66t-83.5 -39q46 -9 83.5 -35.5t64.5 -66.5t42 -90.5t15 -108.5v-102z" />
    <glyph glyph-name="C" unicode="C" horiz-adv-x="819" 
d="M742 430v-14q0 -45 -3 -94.5t-14 -97.5t-31.5 -91t-56.5 -76t-88.5 -52.5t-127.5 -19.5q-77 0 -131 20t-89.5 54t-56 80t-30.5 97t-12.5 105.5t-2.5 106.5v622q0 54 3 109.5t13.5 107t31 97t56 79t88.5 53t129 19.5h1q77 0 130.5 -20t89 -53.5t56 -77.5t30.5 -91.5
t12.5 -96t2.5 -91.5v-15h-84v15q0 72 -7 136t-32 112.5t-72 76.5t-126 28q-80 0 -127.5 -29.5t-72 -82t-31.5 -123.5t-7 -155v-618q0 -79 5.5 -149.5t29.5 -123.5t71.5 -84t131.5 -31q76 0 122.5 27t72 74.5t34 112.5t8.5 141v13h84z" />
    <glyph glyph-name="D" unicode="D" horiz-adv-x="867" 
d="M450 1518q73 0 125.5 -18t88 -50t57 -75.5t32.5 -93.5t14.5 -105.5t3.5 -110.5v-611q0 -56 -3.5 -111t-14.5 -105.5t-32.5 -94t-57 -75.5t-88 -50t-125.5 -18h-1h-303v1518h304zM230 77h217h3q64 0 109.5 20t74.5 65t42 117t13 176v608q0 100 -12 171t-39 116t-70 66.5
t-105 23.5h-233v-1363z" />
    <glyph glyph-name="E" unicode="E" horiz-adv-x="722" 
d="M140 0v1518l542 2v-78l-459 -2v-617h390v-77h-390v-669h459v-77h-542z" />
    <glyph glyph-name="F" unicode="F" horiz-adv-x="707" 
d="M231 1440v-658h381v-77h-381v-705h-84v1518h533v-78h-449z" />
    <glyph glyph-name="G" unicode="G" horiz-adv-x="832" 
d="M408 744h333v-328q0 -45 -3 -94.5t-14 -97t-31.5 -91t-56.5 -76.5t-88.5 -52.5t-127.5 -19.5q-77 0 -131 20t-89.5 54t-56 80t-30.5 97t-12.5 105.5t-2.5 106.5v622q0 54 3 109.5t13.5 107t31 97t56 79t88.5 53t129 19.5h1q77 0 130.5 -20t89 -53.5t56 -77.5t30.5 -91.5
t12.5 -96t2.5 -91.5v-15h-84v15q0 72 -7 136t-32 112.5t-72 76.5t-126 28q-80 0 -127.5 -29.5t-72 -82t-31.5 -123.5t-7 -155v-618q0 -79 5.5 -149.5t29.5 -123.5t71.5 -84t131.5 -31q76 0 122.5 27t72 74.5t34 112.5t8.5 141v250h-249v77z" />
    <glyph glyph-name="H" unicode="H" horiz-adv-x="918" 
d="M148 0v1520h84v-716h456v716h84v-1520h-84v726h-456v-726h-84z" />
    <glyph glyph-name="I" unicode="I" horiz-adv-x="383" 
d="M150 0v1520h84v-1520h-84z" />
    <glyph glyph-name="K" unicode="K" horiz-adv-x="836" 
d="M147 0v1520h84v-716h154l324 714h93l-340 -750l373 -768h-93l-355 726h-156v-726h-84z" />
    <glyph glyph-name="L" unicode="L" horiz-adv-x="692" 
d="M146 0v1520h84v-1442h449v-78h-533z" />
    <glyph glyph-name="M" unicode="M" horiz-adv-x="1182" 
d="M237 1444h-6l3 -1444h-84v1520h148l297 -1169l297 1169h149v-1520h-84l3 1444h-8l-304 -1193h-106z" />
    <glyph glyph-name="O" unicode="O" horiz-adv-x="847" 
d="M424 1535q77 0 130.5 -20t89.5 -54t56 -79.5t30 -97t12.5 -106t2.5 -106.5v-622q0 -54 -3 -109.5t-13.5 -107.5t-31 -97t-56 -78.5t-89 -53t-128.5 -19.5h-1q-77 0 -130.5 20t-89.5 54t-56 80t-30 97t-12.5 105.5t-2.5 106.5v622q0 54 3 109.5t13.5 107.5t31 97t56 78.5
t88.5 53t129 19.5h1zM424 62q80 0 127 29.5t71.5 82t31.5 123.5t7 155v618q0 79 -5.5 149.5t-29 123.5t-71 84t-131.5 31h-1q-80 0 -127 -29.5t-71.5 -82t-31.5 -123.5t-7 -155v-618q0 -79 5.5 -149.5t29 -123.5t71 -84t131.5 -31h1z" />
    <glyph glyph-name="P" unicode="P" horiz-adv-x="836" 
d="M756 976q0 -106 -21 -174.5t-63 -108t-104 -54.5t-143 -15h-191v-624h-83v1520h292q72 0 130 -17.5t98.5 -58t62.5 -107t22 -164.5v-197zM672 1173q0 66 -12 115.5t-39 83.5t-70 51t-106 17h-211v-739h193q67 0 113.5 14t75.5 46t42.5 85t13.5 130v197z" />
    <glyph glyph-name="Q" unicode="Q" horiz-adv-x="847" 
d="M387 -13q-68 5 -116 27t-79.5 56.5t-49.5 79.5t-27 94.5t-11 101.5t-2 102v622q0 54 3 109.5t13.5 107.5t31 97t56 78.5t88.5 53t129 19.5h1q77 0 130.5 -20t89.5 -54t56 -79.5t30 -97t12.5 -106t2.5 -106.5v-622q0 -52 -2.5 -105t-12 -102.5t-27.5 -93.5t-49 -78
t-77 -56.5t-111 -27.5v-122h-79v122zM423 1458q-80 0 -127 -29.5t-71.5 -82t-31.5 -123.5t-7 -155v-618q0 -79 5.5 -149.5t29 -123.5t71 -84t131.5 -31h1q80 0 127 29.5t71.5 82t31.5 123.5t7 155v618q0 79 -5.5 149.5t-29 123.5t-71 84t-131.5 31h-1z" />
    <glyph glyph-name="R" unicode="R" horiz-adv-x="871" 
d="M149 0v1518h296q88 0 149 -20t99 -65.5t55 -119t17 -180.5v-140q0 -56 -14 -105.5t-40 -90.5t-64.5 -72t-87.5 -49q38 -23 66.5 -51t48.5 -63t32.5 -78.5t18.5 -97.5l28 -223q5 -43 17.5 -85.5t28.5 -77.5h-90q-14 35 -24 75t-16 85l-28 224q-9 70 -32.5 121t-55 84
t-67 49t-67.5 16h-187v-654h-83zM681 1133q0 107 -18 168.5t-50 92t-75 38.5t-92 8h-214v-708h211q53 0 96.5 20.5t75 55.5t48.5 83t18 102v140z" />
    <glyph glyph-name="S" unicode="S" horiz-adv-x="771" 
d="M706 376q0 -90 -17.5 -162.5t-55.5 -123.5t-98.5 -78t-146.5 -27q-111 0 -174.5 31t-96 85t-40.5 126t-8 155v48h82v-40q0 -84 8.5 -146t34 -102.5t72 -60t122.5 -19.5q66 0 111 23.5t72 65t39 98.5t12 124v10q0 61 -12.5 108.5t-36 85.5t-58 67.5t-78.5 54.5l-148 84
q-54 30 -93.5 65t-65.5 80t-39 103t-13 135v16q0 81 19.5 146t59 111t98 71t136.5 25q84 0 143.5 -28t97 -76.5t55 -115t17.5 -142.5v-83h-84l-2 118q-2 51 -15.5 96.5t-41.5 79.5t-70.5 54t-100.5 20q-65 0 -110 -24t-72 -65.5t-37.5 -95.5t-8.5 -114l2 -38q1 -47 15.5 -87
t39.5 -74t59 -62.5t74 -51.5l148 -83q103 -59 152 -151t54 -223v-13z" />
    <glyph glyph-name="T" unicode="T" horiz-adv-x="687" 
d="M384 1440v-1440h-84v1440h-288v78h660v-78h-288z" />
    <glyph glyph-name="U" unicode="U" horiz-adv-x="888" 
d="M767 1518v-1138q0 -84 -9 -156t-41.5 -125t-96.5 -83.5t-174 -30.5h-1q-73 0 -125 14t-87.5 39t-56.5 61t-32 79.5t-14.5 94.5t-3.5 107v1138h83v-1129q0 -75 5 -135t28 -102.5t70 -66t131 -23.5h3q85 0 133 23t71.5 65.5t28.5 103t5 135.5v1129h83z" />
    <glyph glyph-name="V" unicode="V" horiz-adv-x="779" 
d="M778 1520l-319 -1520h-141l-318 1520h86l296 -1444h13l297 1444h86z" />
    <glyph glyph-name="W" unicode="W" horiz-adv-x="1286" 
d="M29 1520h86l221 -1444h6l223 1444h147l223 -1444h6l221 1444h87l-240 -1520h-140l-231 1472l-230 -1472h-139z" />
    <glyph glyph-name="X" unicode="X" horiz-adv-x="749" 
d="M652 0l-280 703l-275 -703h-96l316 793l-291 727h91l258 -646l257 646h91l-296 -730l321 -790h-96z" />
    <glyph glyph-name="Y" unicode="Y" horiz-adv-x="697" 
d="M388 623v-623h-83v623l-304 895h89l259 -767l258 767h91z" />
    <glyph glyph-name="Z" unicode="Z" horiz-adv-x="695" 
d="M45 0v74l523 1366h-492v78h585v-74l-525 -1367h519v-77h-610z" />
    <glyph glyph-name="bracketleft" unicode="[" horiz-adv-x="546" 
d="M161 -83v1685h266v-75h-183v-1534h183v-76h-266z" />
    <glyph glyph-name="bracketright" unicode="]" horiz-adv-x="546" 
d="M119 -83v76h184v1534h-184v75h266v-1685h-266z" />
    <glyph glyph-name="asciicircum" unicode="^" horiz-adv-x="910" 
d="M798 862h-90l-247 662h-12l-247 -662h-90l278 737h130z" />
    <glyph glyph-name="underscore" unicode="_" horiz-adv-x="806" 
d="M41 -100v73h730v-73h-730z" />
    <glyph glyph-name="quoteleft" unicode="&#x2018;" horiz-adv-x="201" 
d="M121.992 1518.91q-10.999 -37.998 -16.499 -70.4961q-5.49902 -32.4971 -5.49902 -55.4961q0 -23.999 6.99902 -37.498q7 -13.499 21.999 -13.499h15.999v-114.993h-118.993v110.993q0 10 1.5 31.498q1.5 21.499 6 48.9971q4.5 27.499 11.499 58.4971
q7 30.998 16.999 58.9961z" />
    <glyph glyph-name="b" unicode="b" horiz-adv-x="855" 
d="M146 0v1567h83v-515q12 36 30.5 66.5t45.5 52.5t64 34.5t86 12.5h1q76 0 128 -21t85 -56t51 -82t26 -99.5t9 -107.5t1 -107v-286q0 -54 -1.5 -110.5t-10 -109t-26.5 -99t-51 -81t-84.5 -54.5t-125.5 -20q-49 0 -86.5 12t-65 33t-46 50t-30.5 64v-144h-83zM451 1140
q-71 0 -113.5 -28.5t-66.5 -77.5t-32.5 -113t-9.5 -136v-398q2 -65 11 -123.5t32.5 -103.5t66.5 -71.5t112 -26.5q80 0 124.5 31t66 84.5t26 126.5t4.5 157v283q0 79 -3.5 150.5t-24 126t-65.5 87t-128 32.5z" />
    <glyph glyph-name="f.001" horiz-adv-x="532" 
d="M35 1204h120v8q0 97 5.5 171.5t29.5 125.5t72 77t133 26q25 0 48.5 -4t43.5 -10t35.5 -13t25.5 -13l-12 -70q-10 4 -25.5 10t-35 11t-41 8.5t-42.5 3.5q-56 -1 -87 -17t-46 -53.5t-18 -99.5t-3 -153v-8h268v-76h-268v-1128h-83v1128h-120v76z" />
    <glyph glyph-name="g" unicode="g" horiz-adv-x="855" 
d="M710 1202v-1212q0 -97 -11.5 -171.5t-42.5 -125.5t-85 -77t-139 -26q-31 0 -64.5 2.5t-65 7t-59.5 12t-48 17.5l13 71q19 -9 46.5 -15.5t58.5 -10.5t62.5 -5.5t58.5 -1.5q57 0 94 16t58.5 54t30.5 99.5t9 153.5v159q-12 -36 -30.5 -66.5t-46 -52t-64.5 -34t-86 -12.5h-1
q-76 0 -127.5 21t-84.5 56t-50.5 82t-25.5 99.5t-9 107.5t-1 107v286q0 54 1.5 110.5t10 109t26.5 98.5t51 80.5t84 55t125 20.5h1q49 0 86 -12t64.5 -33t46 -50.5t30.5 -64.5v145h84zM405 62q70 0 112.5 28.5t66 77.5t32 113t10.5 136v397q-2 64 -11 123t-32.5 104t-66 72
t-111.5 27q-80 0 -125 -31t-66.5 -84.5t-26 -126t-4.5 -156.5v-283q0 -79 3.5 -151t24 -126.5t65.5 -87t129 -32.5z" />
    <glyph glyph-name="i" unicode="i" horiz-adv-x="374" 
d="M134 1517q0 24 13 38.5t42 14.5q34 0 47 -14.5t13 -38.5q0 -23 -13 -36.5t-47 -13.5q-29 0 -42 13.5t-13 36.5zM147 0v1202h84v-1202h-84z" />
    <glyph glyph-name="k" unicode="k" horiz-adv-x="786" 
d="M229 1567v-928h116l307 563h90l-330 -600l373 -602h-93l-351 561h-112v-561h-84v1567h84z" />
    <glyph glyph-name="l" unicode="l" horiz-adv-x="377" 
d="M145 0v1567h84v-1567h-84z" />
    <glyph glyph-name="m" unicode="m" horiz-adv-x="1412" 
d="M675 0v744v89q0 64 -5 120t-25.5 97.5t-61 65.5t-112.5 24q-77 0 -123.5 -33.5t-72 -89.5t-34.5 -129.5t-10 -152.5v-735h-84v1202h84v-151q16 36 38 66.5t52.5 52.5t70 34.5t89.5 12.5q64 0 109 -15t76 -42t49 -63t27 -78q14 42 36 78t54 63t74.5 42t98.5 15
q65 0 111.5 -15.5t77.5 -43t49 -65t27 -80.5t11.5 -90t2.5 -94v-84v-745h-83v744v93q0 63 -5 118t-25.5 96.5t-61.5 65t-112 23.5q-80 0 -127.5 -37t-72.5 -98t-32.5 -140t-7.5 -163v-702h-82z" />
    <glyph glyph-name="r" unicode="r" horiz-adv-x="535" 
d="M532 1129q-15 3 -33.5 6.5t-40.5 4.5h-3q-74 0 -118 -32t-67 -85.5t-30 -124t-8 -147.5v-751h-84v1202h84v-152q12 36 30.5 67t46 53.5t64.5 35t86 12.5h1q18 0 36 -2.5t34 -6.5z" />
    <glyph glyph-name="s" unicode="s" horiz-adv-x="720" 
d="M655 297q0 -70 -19 -127.5t-57 -98.5t-95 -63.5t-133 -22.5q-87 0 -144 28t-90 76.5t-46.5 114.5t-13.5 142h82q0 -50 9.5 -101t33.5 -91.5t65 -66t104 -25.5q109 0 164.5 59.5t55.5 172.5q0 60 -21.5 103.5t-57 77t-81 59.5t-92.5 51.5t-92.5 54t-81 66t-57 88
t-21.5 120.5q0 69 18 125.5t54.5 96t91 61t126.5 21.5q76 0 130.5 -22.5t89.5 -65.5t51 -106t16 -144h-82q0 60 -10.5 108t-34.5 81.5t-63.5 52t-96.5 18.5q-47 0 -85 -17t-65.5 -46.5t-42.5 -70t-15 -88.5q0 -58 21.5 -100.5t57.5 -75t81.5 -59t92.5 -53t92.5 -56t81.5 -68
t57.5 -89t21.5 -120.5z" />
    <glyph glyph-name="v" unicode="v" horiz-adv-x="669" 
d="M659 1202l-253 -1202h-145l-253 1202h86l230 -1126h18l231 1126h86z" />
    <glyph glyph-name="w" unicode="w" horiz-adv-x="1087" 
d="M28 1202h86l176 -1126h14l175 1126h144l175 -1126h14l175 1126h86l-193 -1202h-150l-177 1126h-5l-177 -1126h-150z" />
    <glyph glyph-name="x" unicode="x" horiz-adv-x="689" 
d="M600 0l-257 554l-253 -554h-87l292 625l-274 577h88l239 -510l237 510h84l-273 -577l292 -625h-88z" />
    <glyph glyph-name="y" unicode="y" horiz-adv-x="665" 
d="M94 1202l230 -1128h14l51 231q45 226 91 448.5t92 448.5h86q-42 -202 -83.5 -402t-83.5 -402l-83 -400q-19 -71 -36.5 -127t-39 -99.5t-51 -76t-72.5 -56.5l-41 51q31 20 53.5 49t40 66t31 80.5t25.5 93.5l4 21h-64l-250 1202h86z" />
    <glyph glyph-name="z" unicode="z" horiz-adv-x="677" 
d="M47 0v72l492 1054h-463v76h555v-72l-494 -1054h488v-76h-578z" />
    <glyph glyph-name="braceleft" unicode="{" horiz-adv-x="606" 
d="M56 801q50 9 81 24t48.5 44t24 77t8.5 122q2 44 2.5 88.5t0.5 87.5q0 88 5.5 155t29 112t71 68t131.5 23h31v-75h-26q-63 0 -95.5 -17t-46 -48t-14.5 -74t-2 -95l-4 -237q-1 -59 -6 -108.5t-19 -87t-39.5 -63t-66.5 -37.5q42 -12 67.5 -36t39.5 -61t18.5 -86.5
t5.5 -112.5l4 -291q1 -41 5 -74t20 -56.5t47 -36.5t86 -13h26v-76h-31q-84 0 -131.5 23t-70.5 68.5t-29 112.5t-6 155l-3 176q-1 74 -7.5 121.5t-24.5 77t-49 44.5t-81 24v82v0z" />
    <glyph glyph-name="bar" unicode="|" horiz-adv-x="515" 
d="M163 -82v1684h84v-1684h-84z" />
    <glyph glyph-name="braceright" unicode="}" horiz-adv-x="604" 
d="M550 719q-50 -9 -81.5 -24t-49.5 -44.5t-24.5 -77t-7.5 -121.5l-1 -176q-1 -88 -6.5 -155t-29 -112.5t-71 -68.5t-131.5 -23h-31v76h26q54 0 85 13t47 36.5t20.5 56.5t5.5 74l4 291q1 63 5.5 112.5t18.5 86.5t39.5 61t67.5 36q-41 12 -66.5 37.5t-39.5 63t-19 87
t-6 108.5l-4 237q-1 52 -2.5 95t-15 74t-45.5 48t-95 17h-26v75h31q84 0 131.5 -23t71 -68t29 -112t6.5 -155l1 -176q1 -74 7.5 -122t24.5 -77t49.5 -44t81.5 -24v-82z" />
    <glyph glyph-name="asciitilde" unicode="~" horiz-adv-x="830" 
d="M729 720q-30 -56 -73.5 -77.5t-91.5 -21.5q-44 0 -85 14t-79.5 30.5t-72.5 30.5t-63 14q-19 0 -34.5 -3.5t-30 -12t-28 -22t-28.5 -34.5l-45 47q31 59 76 79t97 20q34 0 75 -14t81 -30.5t77 -30t64 -13.5q34 0 60.5 15t55.5 57z" />
    <glyph glyph-name="exclamdown" unicode="&#xa1;" horiz-adv-x="421" 
d="M173.989 857.947l10.999 -1153.93h-94.9941l11 1153.93h72.9951zM199.988 1178.93q0 -28.998 -13.5 -45.9971q-13.499 -16.999 -45.4971 -16.999q-37.9971 0 -50.9971 16.999q-12.999 16.999 -12.999 45.9971q0 26.999 12.999 43.498q13 16.499 50.9971 16.499
q31.998 0 45.4971 -16.499q13.5 -16.499 13.5 -43.498z" />
    <glyph glyph-name="cent" unicode="&#xa2;" horiz-adv-x="893" 
d="M669 386h83v-66q-2 -55 -11 -111.5t-37 -104t-79.5 -79.5t-138.5 -38v-158h-79v158q-67 6 -113 29t-75.5 58.5t-45 81.5t-22.5 96t-8 102.5t-1 102.5v286q0 52 1.5 105.5t9 104t23.5 96t45.5 81t74.5 58t111 28.5v160h79v-160q60 -4 102.5 -21t72 -43t47.5 -59.5
t27.5 -70t12.5 -74.5t4 -73v-59h-83v9q0 45 -2.5 89t-13.5 81q-8 30 -21 57.5t-35 49t-53.5 36t-76.5 19.5q-2 -17 -20 -17q-80 0 -125 -30.5t-66.5 -84.5t-26 -126.5t-4.5 -156.5v-283q0 -52 1 -102t7 -94t19 -81t38 -63.5t63 -41.5t94 -15q11 0 16 -6t5 -15q28 3 51 11.5
t41.5 21.5t33 28.5t26.5 30.5q18 22 28 50.5t14.5 60.5t5.5 67t1 70v5z" />
    <glyph glyph-name="sterling" unicode="&#xa3;" horiz-adv-x="876" 
d="M163 715h106q-11 58 -25 119t-26.5 121.5t-21 118.5t-8.5 110q0 76 16.5 139t52.5 109t92.5 71.5t136.5 25.5q73 0 123.5 -23.5t82 -66t47 -102t19.5 -130.5l-82 -1q-3 43 -12.5 87t-30.5 79.5t-56 57.5t-89 22q-59 0 -100 -20.5t-67 -57t-38 -85.5t-12 -106t9 -116
t21.5 -118t27 -118t25.5 -116h275v-76h-263q6 -47 6 -92q0 -56 -5.5 -121t-18 -128.5t-32 -121t-47.5 -98.5q43 10 88 10q62 0 121.5 -10.5t119.5 -10.5q43 0 73.5 4t65.5 14l17 -71q-27 -10 -64.5 -17.5t-87.5 -7.5q-38 0 -72.5 4t-69 8.5t-70.5 8.5t-75 4q-17 0 -41 -2.5
t-47 -5.5q-26 -4 -55 -7v84q26 25 47.5 76.5t37 116t24 135.5t8.5 136q0 21 -2 44t-5 48h-119v76z" />
    <glyph glyph-name="fraction" unicode="&#x2044;" horiz-adv-x="521" 
d="M7 -55l-75 18l564 1594l72 -17z" />
    <glyph glyph-name="yen" unicode="&#xa5;" horiz-adv-x="857" 
d="M477 721h178v-60h-199l-13 -38v-153h212v-60h-212v-410h-83v410h-205v60h205v153l-13 38h-192v60h171l-270 797h89l259 -767l258 767h91z" />
    <glyph glyph-name="section" unicode="&#xa7;" horiz-adv-x="812" 
d="M107 602q0 134 65 213t202 85q-48 26 -94 54.5t-82.5 66.5t-58.5 89t-22 122q0 69 18 125.5t54.5 96t91 61t126.5 21.5q76 0 130.5 -22.5t89.5 -65.5t51 -106t16 -144h-82q0 59 -10.5 107.5t-34.5 82.5t-63.5 52.5t-96.5 18.5q-47 0 -85 -17t-65.5 -47t-42.5 -70.5
t-15 -88.5q0 -58 21.5 -100.5t57.5 -75t81.5 -59t92.5 -53t92.5 -56t81.5 -68t57.5 -89t21.5 -120.5q0 -134 -65.5 -213t-201.5 -86q48 -26 94 -54t82 -66t58 -89t22 -121t-18 -126t-54.5 -95.5t-90.5 -61t-126 -21.5q-77 0 -131.5 22.5t-89.5 65.5t-51 105.5t-16 143.5h83
q0 -59 10.5 -107t34.5 -82t63 -52.5t97 -18.5q46 0 84.5 17t66 47t42.5 70.5t15 87.5q0 58 -21.5 100.5t-57.5 75.5t-81.5 59.5t-92.5 53t-92.5 55.5t-81.5 67.5t-57.5 89.5t-21.5 120zM190 605q0 -71 29 -118.5t74 -82.5q20 -11 48.5 -17.5t58.5 -6.5q110 0 165 60t55 172
q0 36 -8 65t-22 54t-33.5 45.5t-42.5 38.5q-20 11 -47 17t-56 6q-110 0 -165.5 -60t-55.5 -173z" />
    <glyph glyph-name="currency" unicode="&#xa4;" horiz-adv-x="741" 
d="M151 700q0 35 10.5 67.5t30.5 59.5l-63 64l54 54l64 -64q26 18 57 28t66 10t67 -10.5t59 -29.5l64 66l54 -52l-66 -66q20 -27 31 -59.5t11 -67.5t-10.5 -66.5t-29.5 -58.5l64 -63l-54 -54l-64 63q-27 -19 -59 -29.5t-67 -10.5t-67 10.5t-59 29.5l-61 -61l-52 52l61 61
q-20 27 -30.5 59.5t-10.5 67.5zM218 700q0 -31 12 -58.5t33 -48t48.5 -32.5t58.5 -12t58.5 12t48.5 32.5t33 48t12 58.5t-12 58.5t-33 48.5t-48.5 33t-58.5 12t-58.5 -12t-48.5 -33t-33 -48.5t-12 -58.5z" />
    <glyph glyph-name="quotesingle" unicode="'" horiz-adv-x="332" 
d="M127 1151l-4 369h85l-3 -369h-78z" />
    <glyph glyph-name="quotedblleft" unicode="&#x201c;" horiz-adv-x="502" 
d="M166.99 1518.91q-11 -37.998 -16.499 -70.4961q-5.5 -32.4971 -5.5 -55.4961q0 -23.999 6.99902 -37.498q7 -13.499 21.999 -13.499h15.999v-114.993h-118.992v110.993q0 10 1.49902 31.498q1.5 21.499 6 48.9971q4.5 27.499 11.499 58.4971q7 30.998 16.999 58.9961z
M385.977 1518.91q-10.999 -37.998 -16.499 -70.4961q-5.5 -32.4971 -5.5 -55.4961q0 -23.999 7 -37.498q6.99902 -13.499 21.998 -13.499h15.999v-114.993h-118.992v110.993q0 10 1.5 31.498q1.5 21.499 5.99902 48.9971q4.5 27.499 11.5 58.4971
q6.99902 30.998 16.999 58.9961z" />
    <glyph glyph-name="guillemotleft" unicode="&#xab;" horiz-adv-x="684" 
d="M254 190l-189 401l189 404h87l-190 -404l190 -401h-87zM529 190l-189 401l189 404h87l-190 -404l190 -401h-87z" />
    <glyph glyph-name="guilsinglright" unicode="&#x203a;" horiz-adv-x="368" 
d="M155.99 189l188.988 401l-188.988 404h-86.9941l189.988 -404l-189.988 -401h86.9941z" />
    <glyph glyph-name="endash" unicode="&#x2013;" horiz-adv-x="740" 
d="M44 552v76h668v-76h-668z" />
    <glyph glyph-name="dagger" unicode="&#x2020;" horiz-adv-x="942" 
d="M512 995v-1088h-82v1088h-310v78h310v447h82v-447h312v-78h-312z" />
    <glyph glyph-name="periodcentered" unicode="&#xb7;" horiz-adv-x="367" 
d="M121 588q0 29 14 46t45 17q38 0 51 -17t13 -46q0 -27 -13 -43.5t-51 -16.5q-31 0 -45 16.5t-14 43.5z" />
    <glyph glyph-name="paragraph" unicode="&#xb6;" horiz-adv-x="927" 
d="M412 -369v1093q-92 3 -155.5 32.5t-103.5 80.5t-58 119.5t-18 149.5q0 93 16.5 169.5t55 131t103 84t160.5 29.5h80v-1889h-80zM703 -369v1889h81v-1889h-81z" />
    <glyph glyph-name="bullet" unicode="&#x2022;" horiz-adv-x="563" 
d="M449 702q0 -35 -13 -65t-35.5 -52.5t-53 -35.5t-66.5 -13q-34 0 -64 13t-52.5 35.5t-35.5 52.5t-13 65t13 66t35.5 54t52.5 36t64 13q36 0 66.5 -13t53 -36t35.5 -54t13 -66z" />
    <glyph glyph-name="quotesinglbase" unicode="&#x201a;" horiz-adv-x="356" 
d="M112 -176q11 38 16.5 70.5t5.5 55.5q0 24 -7 37.5t-22 13.5h-16v115h119v-111q0 -10 -1.5 -31.5t-6 -49t-11.5 -58.5t-17 -59z" />
    <glyph glyph-name="quotedblbase" unicode="&#x201e;" horiz-adv-x="526" 
d="M112 -176q11 38 16.5 70.5t5.5 55.5q0 24 -7 37.5t-22 13.5h-16v115h119v-111q0 -10 -1.5 -31.5t-6 -49t-11.5 -58.5t-17 -59zM332 -176q11 38 16.5 70.5t5.5 55.5q0 24 -7 37.5t-22 13.5h-16v115h119v-111q0 -10 -1.5 -31.5t-6 -49t-11.5 -58.5t-17 -59z" />
    <glyph glyph-name="quotedblright" unicode="&#x201d;" horiz-adv-x="492" 
d="M322 1227q11 38 16.5 70.5t5.5 55.5q0 24 -7 37.5t-22 13.5h-16v115h119v-111q0 -10 -1.5 -31.5t-6 -49t-11.5 -58.5t-17 -59zM103 1227q11 38 16.5 70.5t5.5 55.5q0 24 -7 37.5t-22 13.5h-16v115h119v-111q0 -10 -1.5 -31.5t-6 -49t-11.5 -58.5t-17 -59z" />
    <glyph glyph-name="perthousand" unicode="&#x2030;" horiz-adv-x="1836" 
d="M104 1218q0 62 3.5 118t23 98.5t61 67.5t116.5 25t117 -25t61.5 -67t23.5 -98t4 -119v-254q0 -63 -4 -119.5t-24 -99t-61.5 -67.5t-116.5 -25q-59 0 -98.5 17.5t-63 48.5t-33 74t-9.5 93v332zM308 727q36 0 60 11.5t38.5 32t20.5 49.5t6 65v334v31q0 42 -2.5 79t-15 64.5
t-37.5 44t-70 16.5q-44 0 -69 -14.5t-37.5 -40t-15.5 -59.5t-3 -73v-47v-257q0 -47 1.5 -89.5t12.5 -75t37 -52t74 -19.5zM446 0h-84l489 1520h83zM787 534q0 62 3.5 118.5t23 99t61.5 67.5t118 25q75 0 116 -25t60.5 -67t23.5 -98.5t4 -119.5v-240q0 -63 -4 -119
t-23.5 -98.5t-61 -67t-115.5 -24.5q-60 0 -99.5 17t-63 48t-33.5 73.5t-10 92.5v318zM993 57q36 0 60 11.5t38.5 32.5t20.5 50.5t6 64.5v319q0 46 -1.5 89t-12.5 75.5t-37 52t-74 19.5q-44 0 -69 -14.5t-37.5 -39t-15.5 -58t-3 -71.5v-51v-243q0 -47 1 -90t12.5 -75.5
t37 -52t74.5 -19.5zM1308 534q0 62 3.5 118.5t23 99t61.5 67.5t118 25q75 0 116.5 -25t61 -67t23.5 -98.5t4 -119.5v-240q0 -63 -4 -119t-24 -98.5t-61.5 -67t-115.5 -24.5q-60 0 -99.5 17t-63 48t-33.5 73.5t-10 92.5v318zM1514 57q36 0 60 11.5t38.5 32.5t20.5 50.5
t6 64.5v319q0 46 -1.5 89t-12.5 75.5t-37 52t-74 19.5q-44 0 -69 -14.5t-37.5 -39t-15.5 -58t-3 -71.5v-51v-243q0 -47 1.5 -90t12.5 -75.5t37 -52t74 -19.5z" />
    <glyph glyph-name="grave" unicode="`" horiz-adv-x="468" 
d="M216 1525l127 -238h-76l-143 238h92z" />
    <glyph glyph-name="acute" unicode="&#xb4;" horiz-adv-x="595" 
d="M412 1525l-144 -238h-77l128 238h93z" />
    <glyph glyph-name="circumflex" unicode="&#x2c6;" horiz-adv-x="660" 
d="M148 1286l136 226h90l136 -226h-88l-93 165l-92 -165h-89z" />
    <glyph glyph-name="tilde" unicode="&#x2dc;" horiz-adv-x="676" 
d="M568 1451q-32 -46 -62.5 -68.5t-65.5 -22.5q-32 0 -58 11.5t-49 25t-45.5 25t-46.5 11.5q-25 0 -46.5 -14.5t-45.5 -46.5l-45 35q36 51 67 72.5t68 21.5q30 0 56.5 -11.5t50.5 -26t47 -26t47 -11.5q20 0 39.5 15.5t43.5 44.5z" />
    <glyph glyph-name="macron" unicode="&#xaf;" horiz-adv-x="665" 
d="M140 1401v76h382v-76h-382z" />
    <glyph glyph-name="breve" unicode="&#x2d8;" horiz-adv-x="620" 
d="M513 1483q-8 -94 -62.5 -145.5t-156.5 -51.5q-106 0 -160.5 53.5t-59.5 143.5h66q6 -67 45.5 -101t108.5 -34q68 0 107.5 33.5t45.5 101.5h66z" />
    <glyph glyph-name="dotaccent" unicode="&#x2d9;" horiz-adv-x="525" 
d="M120 1403q0 30 14 47t45 17q38 0 51 -17t13 -47q0 -26 -13 -42.5t-51 -16.5q-31 0 -45 16.5t-14 42.5z" />
    <glyph glyph-name="dieresis" unicode="&#xa8;" horiz-adv-x="580" 
d="M110 1405q0 28 13.5 44.5t42.5 16.5q37 0 49 -16.5t12 -44.5q0 -26 -12 -42t-49 -16q-29 0 -42.5 16t-13.5 42zM281 1405q0 28 13.5 44.5t42.5 16.5q37 0 49 -16.5t12 -44.5q0 -26 -12 -42t-49 -16q-29 0 -42.5 16t-13.5 42z" />
    <glyph glyph-name="ring" unicode="&#x2da;" horiz-adv-x="369" 
d="M50 1431q0 63 30 100t98 37q42 0 68.5 -9.5t42 -27.5t21.5 -43.5t6 -56.5q0 -28 -6 -51.5t-21.5 -40.5t-42 -26.5t-68.5 -9.5q-68 0 -98 35.5t-30 92.5zM117 1433q0 -28 15 -46.5t48 -18.5q42 0 56 18.5t14 46.5q0 32 -14 50.5t-56 18.5q-33 0 -48 -18.5t-15 -50.5z" />
    <glyph glyph-name="cedilla" unicode="&#xb8;" horiz-adv-x="465" 
d="M110 -190q24 -19 46 -29t61 -10q38 0 59.5 16.5t21.5 46.5q0 13 -7.5 23t-19.5 16t-26.5 9t-29.5 3q-20 0 -32 -4l-2 138h67l-2 -83q4 0 9 1q5 0 10 0.5t13 0.5q14 0 30.5 -6.5t30.5 -19t23.5 -32t9.5 -45.5q0 -34 -13.5 -58t-35.5 -39t-49.5 -21.5t-55.5 -6.5
q-45 0 -78 13t-53 41z" />
    <glyph glyph-name="hungarumlaut" unicode="&#x2dd;" horiz-adv-x="437" 
d="M248 1525l-142 -238h-77l127 238h92zM419 1525l-143 -238h-76l127 238h92z" />
    <glyph glyph-name="ogonek" unicode="&#x2db;" horiz-adv-x="620" 
d="M432 -336q-15 -13 -43 -21.5t-66 -8.5q-32 0 -61 9.5t-51.5 30.5t-36 54t-13.5 81t12 84t31 61.5t41 42.5t43 28l55 -25q-18 -12 -36 -28.5t-33 -39.5t-24 -52.5t-9 -67.5q0 -51 22.5 -79.5t73.5 -28.5q32 0 53 6t35 14z" />
    <glyph glyph-name="caron" unicode="&#x2c7;" horiz-adv-x="681" 
d="M247 1512l92 -165l93 165h88l-136 -226h-90l-136 226h89z" />
    <glyph glyph-name="emdash" unicode="&#x2014;" horiz-adv-x="1269" 
d="M125 551v77h1017v-77h-1017z" />
    <glyph glyph-name="AE" unicode="&#xc6;" horiz-adv-x="992" 
d="M20 0l440 1518h65l434 2v-78l-350 -2v-617h281v-77h-281v-669h350v-77h-434v393h-313l-112 -393h-80zM234 469h291v975h-11z" />
    <glyph glyph-name="Lslash" unicode="&#x141;" horiz-adv-x="692" 
d="M249 0v521l-103 -97v99l103 97v900h83v-821l200 190v-100l-200 -189v-522h450v-78h-533z" />
    <glyph glyph-name="OE" unicode="&#x152;" horiz-adv-x="1248" 
d="M631 0v70q-16 -16 -32 -31t-36.5 -27t-47.5 -19t-66 -7q-72 0 -124 18t-87 50t-56 75t-32 93t-14.5 105t-3.5 111v641q0 56 3.5 111t14.5 105.5t32 94t56 75.5t86.5 50t123.5 18q38 0 66 -6.5t49 -17t37.5 -25t30.5 -30.5v65l541 1v-77l-458 -2v-618h389v-77h-389v-669
h458v-77h-541zM459 63q58 0 101 30.5t71 80.5v1170q-29 50 -73.5 81t-103.5 31q-68 0 -113 -22t-73 -68q-29 -48 -41 -121.5t-12 -179.5v-611q0 -108 13 -181.5t42 -120.5q29 -48 75.5 -68.5t113.5 -20.5z" />
    <glyph glyph-name="ordmasculine" unicode="&#xba;" horiz-adv-x="618" 
d="M104 1218q0 62 3.5 118t23 98.5t61 67.5t117.5 25q75 0 116.5 -25t61 -67t23.5 -98t4 -119v-129q0 -63 -4 -119.5t-24 -98.5t-61.5 -67t-115.5 -25q-60 0 -99.5 17.5t-63 48.5t-33 73.5t-9.5 92.5v207zM309 849q36 0 60.5 11.5t39.5 32t21 49.5t6 64v215q0 47 -1.5 90
t-12.5 75.5t-37.5 52t-75.5 19.5q-45 0 -71 -14.5t-38.5 -40t-15.5 -60t-3 -73.5v-47v-137q0 -48 1.5 -91t13 -75.5t37.5 -51.5t76 -19zM103 709h410v-69h-410v69z" />
    <glyph glyph-name="dotlessi" unicode="&#x131;" horiz-adv-x="374" 
d="M147 0v1202h84v-1202h-84z" />
    <glyph glyph-name="Euro" unicode="&#x20ac;" horiz-adv-x="947" 
d="M692 1090v15q0 72 -7 136t-31.5 112.5t-71.5 76.5t-127 28t-127 -29.5t-71.5 -82t-31.5 -123.5t-7 -155v-144h486l-9 -70h-477v-194h441l-9 -69h-432v-141q0 -79 5.5 -149.5t29 -123.5t71 -84t131.5 -31q76 0 122.5 27t72 74.5t34 112.5t8.5 141v13h85v-14
q0 -45 -3 -94.5t-14 -97.5t-31.5 -91t-56.5 -76t-89 -52.5t-128 -19.5q-77 0 -130.5 20t-89.5 54t-56 80t-30 97t-12.5 105.5t-2.5 106.5v143h-85l9 69h76v194h-85l9 70h76v146q0 54 3 109.5t13.5 107t31 97t56 79t88.5 53t128 19.5h1q77 0 130.5 -20t89.5 -53.5t56.5 -77.5
t30.5 -91.5t12.5 -96t2.5 -91.5v-15h-85z" />
    <glyph glyph-name="trademark" unicode="&#x2122;" horiz-adv-x="1205" 
d="M581 1315h-1l2 -730h-78v935h96l202 -688h10l203 688h93v-935h-78l2 730h-1l-168 -572h-112zM280 1446v-861h-79v861h-169v74h417v-74h-169z" />
    <glyph glyph-name="copyright" unicode="&#xa9;" horiz-adv-x="1314" 
d="M1226 412q0 -165 -45.5 -281t-124.5 -188.5t-184 -106t-225 -33.5q-119 0 -223.5 34t-182.5 107.5t-123 189t-45 280.5v536q0 166 45.5 281.5t124 188.5t183.5 106t225 33q119 -1 223.5 -34.5t182.5 -107t123.5 -189t45.5 -280.5v-536zM645 1487q-97 -1 -186 -27.5
t-157.5 -88.5t-109 -165t-40.5 -257v-533q0 -156 40.5 -260t108.5 -166t158 -88.5t188 -26.5h3h3q96 1 185.5 27.5t157.5 88.5t109 165t41 257v533q0 154 -41.5 258t-110.5 166.5t-157.5 89t-182.5 27.5h-3h-3h-3zM866 460h80v-9q0 -40 -1.5 -84t-10 -87t-27 -82.5t-52 -69
t-84.5 -47.5t-126 -18q-76 0 -128 20.5t-85.5 55t-51.5 81t-26.5 98.5t-9.5 106.5t-1 106.5v275v54.5t1 54.5q2 70 13.5 136.5t44 118.5t90.5 83t153 31q76 0 128 -18.5t85.5 -49t51.5 -70.5t26 -83t9 -86t1 -80v-11h-80v9q0 57 -3.5 113.5t-24 101t-65.5 72t-128 27.5
q-53 0 -90.5 -14t-62 -39.5t-38.5 -61.5t-21 -80t-8.5 -95t-1.5 -107v-268q0 -55 1 -106.5t6 -98.5q6 -44 19 -81t38 -64t63.5 -42t94.5 -15q79 0 123 25.5t66 69t27 101t5 120.5v7z" />
    <glyph glyph-name="minus" unicode="&#x2212;" horiz-adv-x="830" 
d="M114 664v77h603v-77h-603z" />
    <glyph glyph-name="degree" unicode="&#xb0;" horiz-adv-x="515" 
d="M455 1325q0 -44 -14.5 -81.5t-40.5 -65.5t-62.5 -44t-79.5 -16q-44 0 -79.5 16t-61.5 44t-40 65.5t-14 81.5q0 43 14 80.5t40 66t61.5 45t79.5 16.5q43 0 79.5 -16.5t62.5 -45t40.5 -66t14.5 -80.5zM386 1325q0 30 -9 55.5t-25.5 44t-40.5 29t-53 10.5q-60 0 -93 -39.5
t-33 -99.5t33 -99t93 -39q29 0 53 10.5t40.5 29t25.5 43.5t9 55z" />
    <glyph glyph-name="plusminus" unicode="&#xb1;" horiz-adv-x="830" 
d="M378 810h-264v77h264v263h75v-263h264v-77h-264v-262h-75v262zM114 350v77h603v-77h-603z" />
    <glyph glyph-name="onehalf" unicode="&#xbd;" horiz-adv-x="1341" 
d="M79 1661q51 30 94 71.5t72 87.5h75v-935h-79v821q-32 -42 -73 -72.5t-89 -54.5v82zM805 302v73q2 70 27.5 127.5t63 107t80.5 94.5t79.5 91.5t61 97.5t24.5 113q0 88 -32 130t-95 42q-41 0 -65.5 -16t-38 -41.5t-18 -57t-4.5 -63.5v-47h-78v51q0 52 9 97t32 78.5
t62.5 52.5t100.5 19q99 0 152 -59t53 -184q0 -75 -23.5 -133t-59.5 -106.5t-78 -92t-79 -89t-63 -96.5t-29 -116h335v-73h-417zM331 -55l-75 18l564 1594l72 -17z" />
    <glyph glyph-name="Eth" unicode="&#xd0;" horiz-adv-x="903" 
d="M408 664h-375v77h375v-77zM448 1518q73 0 125.5 -18t88 -50t57 -75.5t32.5 -93.5t14.5 -105.5t3.5 -110.5v-611q0 -56 -3.5 -111t-14.5 -105.5t-32.5 -94t-57 -75.5t-88 -50t-125.5 -18h-1h-303v1518h304zM228 77h217h3q64 0 109.5 20t74.5 65t42 117t13 176v608
q0 100 -12 171t-39 116t-70 66.5t-105 23.5h-233v-1363z" />
    <glyph glyph-name="multiply" unicode="&#xd7;" horiz-adv-x="832" 
d="M364 701l-188 188l54 54l188 -188l186 186l53 -52l-187 -187l189 -188l-54 -52l-188 187l-189 -189l-52 52z" />
    <glyph glyph-name="eth" unicode="&#xf0;" horiz-adv-x="880" 
d="M495 1427q-28 25 -54 41t-46.5 24.5t-33 11.5t-13.5 3l35 60q1 0 17 -2.5t40.5 -11.5t55.5 -27t64 -49l109 86l41 -49l-108 -85q28 -37 53.5 -87.5t45 -118t31.5 -153.5t13 -194v-444q0 -54 -2.5 -108.5t-12.5 -104t-29.5 -92.5t-53 -74.5t-84.5 -49.5t-123 -18h-1
q-77 0 -129.5 21t-86 56t-52 81.5t-26.5 99t-9 107.5t-1 107v281q0 54 1.5 110.5t9.5 109t26 98.5t51 80.5t84 55t125 20.5h1q47 0 83 -11t63 -30.5t46 -46.5t31 -60q-14 113 -46.5 189.5t-71.5 126.5l-114 -89l-41 48zM440 62q80 0 125 30t66.5 86.5t26 137.5t4.5 183v200
q0 53 -1 106t-7 101.5t-19.5 90.5t-38 73t-62.5 48.5t-94 17.5q-80 0 -125 -31t-66.5 -84.5t-26 -126.5t-4.5 -157v-278q0 -79 3.5 -151t24 -126.5t65.5 -87t129 -32.5z" />
    <glyph glyph-name="divide" unicode="&#xf7;" horiz-adv-x="830" 
d="M114 664v77h603v-77h-603zM363 954q0 29 14 46t45 17q38 0 51 -17t13 -46q0 -27 -13 -43.5t-51 -16.5q-31 0 -45 16.5t-14 43.5zM363 448q0 29 14 46t45 17q38 0 51 -17t13 -46q0 -27 -13 -43.5t-51 -16.5q-31 0 -45 16.5t-14 43.5z" />
    <glyph glyph-name="thorn" unicode="&#xfe;" horiz-adv-x="914" 
d="M154 -365v1885h83v-468q12 36 30.5 66.5t45.5 52.5t64 34.5t86 12.5h1q76 0 128 -21t85 -56t51 -82t26 -99.5t9 -107.5t1 -107v-286q0 -54 -1.5 -110.5t-10 -109t-26.5 -99t-51 -81t-84.5 -54.5t-125.5 -20q-49 0 -86.5 12t-65 33t-46 50t-30.5 64v-509h-83zM459 1140
q-71 0 -113.5 -28.5t-66.5 -77.5t-32.5 -113t-9.5 -136v-398q2 -65 11 -123.5t32.5 -103.5t66.5 -71.5t112 -26.5q80 0 124.5 31t66 84.5t26 126.5t4.5 157v283q0 79 -3.5 150.5t-24 126t-65.5 87t-128 32.5z" />
    <glyph glyph-name=".DOT" horiz-adv-x="46" 
d="M207 384v4q1 11 9 19q0 1 1 2q2 2 3 2l5 3q2 2 4 2l1 1q3 0 5 1q2 0 5 0.5t6 0.5q7 0 11 -1q2 0 3.5 -0.5t3.5 -0.5l2 -1q7 -2 11 -6l3 -3l3 -3l3 -6q2 -4 2 -5q1 -2 1 -5q0 -1 0.5 -2t0.5 -2v-5q0 -17 -10.5 -27.5t-33.5 -10.5q-34 0 -39 30v3v5v5z" />
    <glyph glyph-name="p" unicode="p" horiz-adv-x="859" 
d="M146 -365v1567h84v-150q12 36 30.5 66.5t45.5 52.5t64 34.5t86 12.5h1q76 0 127.5 -21t85 -56t51 -82t25.5 -99.5t9 -107.5t1 -107v-286q0 -54 -1.5 -110.5t-9.5 -109t-26 -98.5t-51.5 -80.5t-84.5 -55t-126 -20.5h-1q-48 0 -85 12t-64.5 33t-46 50t-30.5 64v-509h-84z
M451 62q80 0 125 31t66.5 84.5t26 126.5t4.5 157v283q0 79 -3.5 150.5t-24 126t-65.5 87t-129 32.5q-70 0 -113 -28.5t-66.5 -77.5t-32 -113t-9.5 -136v-398q2 -65 11 -123.5t32.5 -103.5t66 -71.5t111.5 -26.5z" />
    <glyph glyph-name="q" unicode="q" horiz-adv-x="859" 
d="M630 -365v514q-12 -36 -30.5 -66.5t-46 -52t-64.5 -34t-86 -12.5h-1q-76 0 -127.5 21t-84.5 56t-51 82t-26 99.5t-9 107.5t-1 107v286q0 54 1.5 110.5t10 109t26.5 99t51 81t84 54.5t126 20q49 0 86 -12t64.5 -33t46.5 -50.5t31 -64.5v145h83v-1567h-83zM408 62
q70 0 113 28.5t66.5 77.5t32 113t10.5 136v397q-2 64 -11 123t-33 104t-66.5 72t-111.5 27q-80 0 -124.5 -31t-66 -84.5t-26 -126t-4.5 -156.5v-283q0 -79 3.5 -151t24 -126.5t65.5 -87t128 -32.5z" />
    <glyph glyph-name="e" unicode="e" horiz-adv-x="807" 
d="M711 406v-19q0 -45 -1.5 -92t-10.5 -91.5t-27.5 -84.5t-52.5 -69.5t-86 -47t-127 -17.5q-77 0 -130 20.5t-86.5 56t-51.5 82t-26.5 99t-9.5 107.5t-1 107v286q0 54 1.5 110.5t10 109t27 99t52.5 81.5t86 55t128 20q77 0 129.5 -19t86.5 -50t52 -72.5t26.5 -87t9.5 -92.5
t1 -89v-167l-528 -83v-99q0 -79 3.5 -151t24 -126.5t66 -87t129.5 -32.5q80 0 124.5 25t66 68.5t26 103.5t4.5 129v18h84zM406 1140q-81 0 -125.5 -31t-66.5 -84.5t-26.5 -126t-4.5 -156.5v-110l444 70v105q0 64 -3.5 124t-24 106.5t-65.5 74.5t-128 28z" />
    <glyph glyph-name="a" unicode="a" horiz-adv-x="857" 
d="M633 0v151q-12 -36 -30.5 -66.5t-46 -53t-65 -35t-86.5 -12.5q-96 0 -155.5 31.5t-92.5 83t-44.5 116t-11.5 130.5q0 37 2 76t10.5 76t27.5 69.5t52.5 57t85 39t125.5 14.5q43 0 77 -3.5t61.5 -9.5t49 -14t41.5 -17v109q0 84 -4.5 156.5t-26.5 126.5t-66.5 84.5
t-124.5 30.5q-72 0 -114.5 -27.5t-64 -72.5t-27.5 -101.5t-6 -113.5v-9h-84v11q0 38 2.5 81.5t12 87t28 83.5t51.5 71t82.5 49.5t119.5 18.5q96 0 156 -31.5t93 -83.5t45 -119.5t12 -138.5v-845h-84zM411 62q70 0 113.5 28.5t67.5 77.5t32.5 113.5t8.5 135.5v133
q-18 14 -38.5 24t-46.5 17t-59 10t-78 3q-80 0 -125.5 -23.5t-68 -60.5t-28 -83t-5.5 -91q0 -60 9.5 -112t35 -90.5t69.5 -60t113 -21.5z" />
    <glyph glyph-name="u" unicode="u" horiz-adv-x="891" 
d="M745 1202v-1202h-83v154q-12 -37 -30.5 -68t-46 -53.5t-65 -35t-86.5 -12.5q-76 0 -127.5 20.5t-84.5 56t-51 82t-26 99t-9 107.5t-1 107v745h83v-743q0 -79 3.5 -151t24 -126.5t65.5 -87t129 -32.5q74 0 118 32t66.5 85.5t29.5 123.5t8 147v752h83z" />
    <glyph glyph-name="n" unicode="n" horiz-adv-x="883" 
d="M675 0v744v50q0 70 -4.5 132.5t-25.5 110t-64 75.5t-120 28q-51 0 -88 -17.5t-62.5 -48t-41 -72t-24 -91t-11.5 -104t-3 -110.5v-697h-84v1202h84v-161q12 36 34 68t53 56t71.5 38t89.5 14q66 0 112.5 -17t77.5 -46.5t48.5 -69t26.5 -85t11 -95t2 -97.5v-62v-745h-82z
" />
    <glyph glyph-name="h" unicode="h" horiz-adv-x="883" 
d="M675 0v744q0 78 -3.5 149.5t-24 126t-66 87.5t-129.5 33q-51 0 -87 -17.5t-61 -48t-39 -72t-22 -91t-10 -104t-2 -110.5v-697h-84v1567h84v-517q12 36 31.5 66.5t49 53t68 35t87.5 12.5q74 0 124 -20.5t82.5 -56t49.5 -82t24.5 -99t8.5 -107.5t1 -107v-745h-82z" />
    <glyph glyph-name="d" unicode="d" horiz-adv-x="852" 
d="M624 0v149q-12 -36 -30.5 -66.5t-46 -52t-64.5 -34t-86 -12.5q-76 0 -127.5 20.5t-85 56t-51 82.5t-25.5 99.5t-9 107.5t-1 107v286q0 54 1.5 110.5t10 109t26.5 98.5t51 80.5t84 55t125 20.5h1q49 0 86 -12t64.5 -33t46 -50.5t30.5 -64.5v510h84v-1567h-84zM403 62
q70 0 112.5 28.5t66 77.5t32 113t10.5 136v397q-2 64 -10.5 123t-32.5 104t-66.5 72t-111.5 27q-80 0 -124.5 -31t-66.5 -84.5t-26.5 -126t-4.5 -156.5v-283q0 -79 3.5 -151t24 -126.5t65.5 -87t129 -32.5z" />
    <glyph glyph-name="t" unicode="t" horiz-adv-x="590" 
d="M249 1596v-392h264v-76h-264v-744q0 -92 3 -153.5t17.5 -99t45.5 -53.5t87 -17q21 0 43 3.5t41 8.5t35 10.5t25 10.5l12 -69q-20 -12 -61 -26.5t-92 -14.5q-85 0 -133 26t-72 77t-29.5 125.5t-5.5 171.5v744h-120v76h120v392h84z" />
    <glyph glyph-name="j" unicode="j" horiz-adv-x="377" 
d="M130 1517q0 24 13 38.5t41 14.5q34 0 47.5 -14.5t13.5 -38.5q0 -23 -13.5 -36.5t-47.5 -13.5q-28 0 -41 13.5t-13 36.5zM230 1202v-1212q0 -97 -5.5 -171.5t-29.5 -125.5t-72 -77t-133 -26q-26 0 -49 4t-43 10t-35.5 13t-25.5 13l12 70q10 -5 25.5 -10.5t35 -10.5
t41 -8.5t42.5 -3.5q56 1 87 17t45.5 53.5t17.5 99t3 153.5v1212h84z" />
    <glyph glyph-name="ae" unicode="&#xe6;" horiz-adv-x="1404" 
d="M1269 406v-19q0 -45 -1.5 -92t-10 -91.5t-27 -84.5t-52.5 -69.5t-86 -47t-128 -17.5h-1q-62 0 -107.5 13.5t-77.5 38t-52 57.5t-32 72q-11 -40 -35.5 -73.5t-59.5 -57.5t-78 -37.5t-90 -13.5q-97 0 -157 31.5t-93.5 83t-45.5 116t-12 130.5q0 37 2 76t11 76t27.5 69.5
t52.5 57t85.5 39t125.5 14.5q43 0 77 -3.5t61.5 -9.5t49 -14t41.5 -17v109q0 84 -4.5 156.5t-26.5 126.5t-66.5 84.5t-124.5 30.5q-72 0 -114.5 -27.5t-64 -72.5t-27.5 -101.5t-6 -113.5v-9h-84v11q0 38 2.5 81.5t12 87t28 83.5t51.5 71t82.5 49.5t119.5 18.5q57 0 101 -12
t76.5 -33t55 -50t36.5 -64q13 35 34 64t52 50t74 33t100 12h1q77 0 129.5 -19t86.5 -50t52 -72.5t26.5 -87t9.5 -92.5t1 -89v-167l-528 -83v-99q0 -79 3.5 -151t24 -126.5t66 -87t129.5 -32.5q80 0 124.5 25t66.5 68.5t26.5 103.5t4.5 129v18h83zM435 62q70 0 113.5 28.5
t67.5 77.5t32.5 113.5t8.5 135.5v133q-18 14 -38.5 24t-46.5 17t-59.5 10t-78.5 3q-80 0 -125 -23.5t-67.5 -60.5t-28 -83t-5.5 -91q0 -60 9.5 -112t34.5 -90.5t69.5 -60t113.5 -21.5zM964 1140q-81 0 -125.5 -31t-66.5 -84.5t-26.5 -126t-4.5 -156.5v-110l445 71v104
q0 64 -3.5 124t-24 106.5t-65.5 74.5t-129 28z" />
    <glyph glyph-name="Thorn" unicode="&#xde;" horiz-adv-x="892" 
d="M235 1520v-343h208q73 0 131 -17.5t98.5 -58t62.5 -107t22 -164.5v-157q0 -106 -21 -174t-63 -107.5t-104 -54.5t-143 -15h-191v-322h-83v1520h83zM673 830q0 66 -12 116t-39 83.5t-70.5 51t-106.5 17.5h-210v-700h192q67 0 114 14t76 46t42.5 85t13.5 130v157z" />
    <glyph glyph-name="semicolon" unicode=";" horiz-adv-x="281" 
d="M79 45q0 30 15 46.5t44 16.5q37 0 51.5 -22.5t14.5 -52.5q0 -34 -5.5 -63t-13.5 -53t-17.5 -44t-17.5 -35l-46 21q19 38 27 66t12 60q-64 0 -64 60zM79 1147q0 29 14 46t45 17q38 0 51 -17t13 -46q0 -27 -13 -43.5t-51 -16.5q-31 0 -45 16.5t-14 43.5z" />
    <glyph glyph-name="backslash" unicode="\" horiz-adv-x="708" 
d="M68 1599h82l490 -1679h-85z" />
    <glyph glyph-name="oe" unicode="&#x153;" horiz-adv-x="1406" 
d="M1271 406v-19q0 -45 -1.5 -92t-10 -91.5t-27 -84t-52.5 -69.5t-86 -47.5t-128 -17.5q-56 0 -98.5 11t-74.5 30.5t-54 46.5t-37 60q-15 -33 -37 -60t-53.5 -46.5t-74 -30.5t-97.5 -11h-1q-77 0 -129.5 21t-86.5 56t-52 81.5t-26.5 99t-9.5 107.5t-1 107v286
q0 54 1.5 110.5t10.5 109t27.5 99t52 81t85.5 55t127 20.5h1q56 0 98.5 -11t74.5 -31t54 -47.5t37 -60.5q15 33 37 60.5t53.5 47.5t74 31t98.5 11q77 0 129.5 -19t86.5 -50t52 -72.5t26.5 -87t9.5 -92.5t1 -89v-167l-527 -83v-99v-42.5t-1 -43.5q1 -65 9 -121.5t31.5 -98.5
t67 -66.5t115.5 -24.5q80 0 124.5 25t66.5 68.5t26.5 103.5t4.5 129v18h83zM439 1140q-80 0 -125 -30.5t-66.5 -84.5t-26 -126.5t-4.5 -156.5v-283q0 -79 3.5 -151t24 -126.5t65.5 -87t129 -32.5q79 0 124 30.5t66.5 83.5t26.5 125.5t5 155.5v286v1q0 79 -3.5 150.5t-24 126
t-65.5 87t-129 32.5zM966 1140q-71 0 -114 -24.5t-66.5 -68t-32 -102.5t-9.5 -129v-71v-113l444 71v104q0 64 -3.5 124t-24 106.5t-65.5 74.5t-129 28z" />
    <glyph glyph-name="questiondown" unicode="&#xbf;" horiz-adv-x="847" 
d="M148.991 46.9971q0 73.9951 19.998 136.492q19.999 62.4961 50.4971 117.992q30.498 55.4971 65.9961 106.493q35.498 50.9971 65.9961 103.494t50.9971 107.993q20.499 55.4971 20.499 119.493v100.994h72.9951v-100.994q0 -73.9961 -19.499 -134.992t-48.4971 -114.993
q-28.998 -53.9961 -62.9961 -104.493t-63.4961 -102.994q-29.498 -52.4961 -48.9971 -109.993q-19.499 -57.4961 -19.499 -126.492q0 -144.991 50.4971 -218.486q50.4971 -73.4961 164.49 -73.4961q46.9971 0 82.9951 13.5q35.998 13.499 60.4961 37.4971
q24.499 23.999 38.998 56.4971t17.499 71.4951l12.999 141.991h78.9951l1 -70.9951q0 -69.9961 -17.499 -129.992t-53.4971 -103.494q-35.998 -43.4971 -90.9941 -67.9951q-54.9971 -24.499 -130.992 -24.499q-143.991 0 -221.486 88.4951
q-77.4951 88.4941 -77.4951 281.482zM520.968 1160.93q0 -28.998 -13.499 -45.9971t-44.4971 -16.999q-37.998 0 -50.9971 16.999t-12.999 45.9971q0 26.999 12.999 43.498t50.9971 16.499q30.998 0 44.4971 -16.499t13.499 -43.498z" />
    <glyph glyph-name="brokenbar" unicode="&#xa6;" horiz-adv-x="515" 
d="M163 835v767h84v-767h-84zM247 696v-778h-84v778h84z" />
    <glyph glyph-name="Oslash" unicode="&#xd8;" horiz-adv-x="847" 
d="M424 1535q77 0 130.5 -20t89.5 -54t56 -79.5t30 -97t12.5 -106t2.5 -106.5v-622q0 -54 -3 -109.5t-13.5 -107.5t-31 -97t-56 -78.5t-89 -53t-128.5 -19.5h-1q-77 0 -130.5 20t-89.5 54t-56 80t-30 97t-12.5 105.5t-2.5 106.5v622q0 54 3 109.5t13.5 107.5t31 97t56 78.5
t88.5 53t129 19.5h1zM424 62q80 0 127 29.5t71.5 82t31.5 123.5t7 155v618q0 79 -5.5 149.5t-29 123.5t-71 84t-131.5 31h-1q-80 0 -127 -29.5t-71.5 -82t-31.5 -123.5t-7 -155v-618q0 -79 5.5 -149.5t29 -123.5t71 -84t131.5 -31h1zM220 -80h-84l490 1679h82z" />
    <glyph glyph-name="germandbls" unicode="&#xdf;" horiz-adv-x="819" 
d="M360 931h60q71 1 113 23.5t64.5 57.5t29 77t6.5 83v23q0 36 -6 81.5t-28 86t-65.5 68.5t-118.5 28q-80 0 -126.5 -31t-70.5 -85t-30.5 -126.5t-6.5 -156.5v-1060h-83v1061q0 54 2.5 110.5t12.5 109t30 98.5t55 80.5t87.5 55t128.5 20.5h1q72 0 122.5 -19.5t84 -50.5
t52.5 -69t28.5 -75.5t11.5 -71t2 -53.5v-25q0 -30 -4.5 -69t-19.5 -78t-45 -73.5t-81 -56.5q59 -24 92.5 -65.5t50.5 -94.5t21.5 -114t4.5 -122v-33q0 -54 -2.5 -110.5t-13 -109t-31 -99t-56 -81t-89 -54.5t-128.5 -20v76q80 0 127 31t71.5 84.5t31.5 126.5t7 157v30
q0 79 -6 144.5t-29.5 113t-71 74t-130.5 26.5h-55v77z" />
    <glyph glyph-name="Germandbls" unicode="&#x1e9e;" horiz-adv-x="879" 
d="M425 930l248 526h-216q-80 0 -126.5 -31t-70.5 -85t-30.5 -126.5t-6.5 -156.5v-1057h-83v1059q0 54 2.5 110.5t12.5 109t30 99t55 81t88 54.5t129 20h300v-77l-256 -530q97 -8 152.5 -48.5t83 -100.5t34.5 -133t7 -146v-33q0 -54 -3 -110.5t-13.5 -109t-31 -99t-56 -81
t-89 -54.5t-128.5 -20v77q80 0 127 31t71.5 84.5t31.5 126.5t7 157v29q0 78 -5.5 143.5t-29 113t-70 74t-127.5 27.5h-37v76z" />
    <glyph glyph-name="guilsinglleft" unicode="&#x2039;" horiz-adv-x="433" 
d="M260 189l-189 401l189 404h87l-190 -404l190 -401h-87z" />
    <glyph glyph-name="guillemotright" unicode="&#xbb;" horiz-adv-x="641" 
d="M153.99 189l188.989 401l-188.989 404h-86.9941l189.988 -404l-189.988 -401h86.9941zM428.974 189l188.988 401l-188.988 404h-86.9941l189.988 -404l-189.988 -401h86.9941z" />
    <glyph glyph-name="logicalnot" unicode="&#xac;" horiz-adv-x="830" 
d="M642 664h-528v77h603v-339h-75v262z" />
    <glyph glyph-name="ellipsis" unicode="&#x2026;" horiz-adv-x="1027" 
d="M129 45q0 29 14 46t45 17q38 0 51 -17t13 -46q0 -27 -13 -43.5t-51 -16.5q-31 0 -45 16.5t-14 43.5zM451 45q0 29 13.5 46t44.5 17q38 0 51 -17t13 -46q0 -27 -13 -43.5t-51 -16.5q-31 0 -44.5 16.5t-13.5 43.5zM771 45q0 29 13.5 46t44.5 17q38 0 51 -17t13 -46
q0 -27 -13 -43.5t-51 -16.5q-31 0 -44.5 16.5t-13.5 43.5z" />
    <glyph glyph-name="Lambda" unicode="&#x39b;" horiz-adv-x="841" 
d="M118 0h-86l306 1520h164l306 -1520h-86l-287 1442h-30z" />
    <glyph glyph-name="Csmall" unicode="&#xf763;" horiz-adv-x="793" 
d="M629 386h84v-9q0 -40 -1.5 -84.5t-10.5 -88t-27.5 -83.5t-52.5 -70t-86 -48t-127 -18q-77 0 -129.5 20.5t-86.5 55.5t-52 81.5t-26.5 99t-9.5 108t-1 107.5v388q2 71 14 138.5t44.5 119.5t91.5 83.5t155 31.5q77 0 129.5 -18.5t86.5 -49.5t52 -71t26.5 -83.5t9.5 -87
t1 -81.5v-11h-84v9q0 57 -3.5 113.5t-24 101.5t-65.5 72.5t-128 27.5q-80 0 -125 -30.5t-67 -84.5t-26.5 -126.5t-4.5 -156.5v-271q0 -55 1 -107t7 -99q6 -44 19 -81.5t38 -64.5t63 -42t95 -15q79 0 123.5 26t66 69.5t26.5 101t5 120.5v7z" />
    <glyph glyph-name="cacute" unicode="&#x107;" horiz-adv-x="793" 
d="M601 1569l-144 -238h-77l128 238h93zM629 386h84v-9q0 -40 -1.5 -84.5t-10.5 -88t-27.5 -83.5t-52.5 -70t-86 -48t-127 -18q-77 0 -129.5 20.5t-86.5 55.5t-52 81.5t-26.5 99t-9.5 108t-1 107.5v388q2 71 14 138.5t44.5 119.5t91.5 83.5t155 31.5q77 0 129.5 -18.5
t86.5 -49.5t52 -71t26.5 -83.5t9.5 -87t1 -81.5v-11h-84v9q0 57 -3.5 113.5t-24 101.5t-65.5 72.5t-128 27.5q-80 0 -125 -30.5t-67 -84.5t-26.5 -126.5t-4.5 -156.5v-271q0 -55 1 -107t7 -99q6 -44 19 -81.5t38 -64.5t63 -42t95 -15q79 0 123.5 26t66 69.5t26.5 101
t5 120.5v7z" />
    <glyph glyph-name="Alpha" unicode="&#x391;" horiz-adv-x="778" 
d="M680 0l-79 393h-431l-78 -393h-86l309 1520h141l310 -1520h-86zM185 469h401l-194 975h-12z" />
    <glyph glyph-name="afii10017" unicode="&#x410;" horiz-adv-x="778" 
d="M680 0l-79 393h-431l-78 -393h-86l309 1520h141l310 -1520h-86zM185 469h401l-194 975h-12z" />
    <glyph glyph-name="ccedilla" unicode="&#xe7;" horiz-adv-x="793" 
d="M290 -190q24 -19 46 -29t61 -10q38 0 59.5 16.5t21.5 46.5q0 13 -7.5 23t-19.5 16t-26.5 9t-29.5 3q-20 0 -32 -4l-2 138h67l-2 -83q4 0 9 1q5 0 10 0.5t13 0.5q14 0 30.5 -6.5t30.5 -19t23.5 -32t9.5 -45.5q0 -34 -13.5 -58t-35.5 -39t-49.5 -21.5t-55.5 -6.5
q-45 0 -78 13t-53 41zM629 386h84v-9q0 -40 -1.5 -84.5t-10.5 -88t-27.5 -83.5t-52.5 -70t-86 -48t-127 -18q-77 0 -129.5 20.5t-86.5 55.5t-52 81.5t-26.5 99t-9.5 108t-1 107.5v388q2 71 14 138.5t44.5 119.5t91.5 83.5t155 31.5q77 0 129.5 -18.5t86.5 -49.5t52 -71
t26.5 -83.5t9.5 -87t1 -81.5v-11h-84v9q0 57 -3.5 113.5t-24 101.5t-65.5 72.5t-128 27.5q-80 0 -125 -30.5t-67 -84.5t-26.5 -126.5t-4.5 -156.5v-271q0 -55 1 -107t7 -99q6 -44 19 -81.5t38 -64.5t63 -42t95 -15q79 0 123.5 26t66 69.5t26.5 101t5 120.5v7z" />
    <glyph glyph-name="ccaron" unicode="&#x10d;" horiz-adv-x="793" 
d="M315 1512l92 -165l93 165h88l-136 -226h-90l-136 226h89zM629 386h84v-9q0 -40 -1.5 -84.5t-10.5 -88t-27.5 -83.5t-52.5 -70t-86 -48t-127 -18q-77 0 -129.5 20.5t-86.5 55.5t-52 81.5t-26.5 99t-9.5 108t-1 107.5v388q2 71 14 138.5t44.5 119.5t91.5 83.5t155 31.5
q77 0 129.5 -18.5t86.5 -49.5t52 -71t26.5 -83.5t9.5 -87t1 -81.5v-11h-84v9q0 57 -3.5 113.5t-24 101.5t-65.5 72.5t-128 27.5q-80 0 -125 -30.5t-67 -84.5t-26.5 -126.5t-4.5 -156.5v-271q0 -55 1 -107t7 -99q6 -44 19 -81.5t38 -64.5t63 -42t95 -15q79 0 123.5 26
t66 69.5t26.5 101t5 120.5v7z" />
    <glyph glyph-name="cdotaccent" unicode="&#x10b;" horiz-adv-x="793" 
d="M346 1403q0 30 14 47t45 17q38 0 51 -17t13 -47q0 -26 -13 -42.5t-51 -16.5q-31 0 -45 16.5t-14 42.5zM629 386h84v-9q0 -40 -1.5 -84.5t-10.5 -88t-27.5 -83.5t-52.5 -70t-86 -48t-127 -18q-77 0 -129.5 20.5t-86.5 55.5t-52 81.5t-26.5 99t-9.5 108t-1 107.5v388
q2 71 14 138.5t44.5 119.5t91.5 83.5t155 31.5q77 0 129.5 -18.5t86.5 -49.5t52 -71t26.5 -83.5t9.5 -87t1 -81.5v-11h-84v9q0 57 -3.5 113.5t-24 101.5t-65.5 72.5t-128 27.5q-80 0 -125 -30.5t-67 -84.5t-26.5 -126.5t-4.5 -156.5v-271q0 -55 1 -107t7 -99q6 -44 19 -81.5
t38 -64.5t63 -42t95 -15q79 0 123.5 26t66 69.5t26.5 101t5 120.5v7z" />
    <glyph glyph-name="dollar" unicode="$" horiz-adv-x="872" 
d="M751 376q0 -84 -15 -153t-48 -119t-85 -80t-126 -37v-100h-84v100q-97 6 -152.5 38.5t-83.5 85.5t-35.5 122.5t-7.5 148.5v43h83v-35q0 -84 8.5 -146t34 -102.5t71.5 -60t122 -19.5q66 0 111 23.5t72 65t39 98.5t12 124v10q0 61 -12 108.5t-35.5 85.5t-58 67.5
t-79.5 54.5l-148 84q-54 30 -93.5 65t-65.5 80t-39 103t-13 135v16q0 75 17 136.5t51 106.5t84.5 72.5t117.5 34.5v101h84v-100q73 -7 123.5 -37.5t82.5 -78t46.5 -110t14.5 -134.5v-79h-84l-1 114q-1 51 -14 96.5t-40 79.5t-69 54t-100 20q-66 0 -110.5 -24t-71.5 -65.5
t-38 -95.5t-9 -114l2 -38q5 -94 56.5 -161.5t132.5 -113.5l148 -83q103 -59 152 -151t53 -223v-13z" />
    <glyph glyph-name="a.end" horiz-adv-x="915" 
d="M669 0v152q-12 -36 -30.5 -67t-46 -53.5t-65 -35t-86.5 -12.5h-1q-75 0 -126.5 21t-85 56t-51 82t-25.5 99.5t-9 107.5t-1 107v286q0 54 1.5 110.5t10 109t26.5 99t51 81t84 54.5t126 20q49 0 86.5 -12.5t65 -34t46 -51.5t30.5 -65v148h83v-1202h-83zM447 62
q53 0 90.5 17t62 47t38.5 71t21 90t8.5 103t1.5 110v267q-1 71 -7.5 138t-29 119.5t-66.5 84t-119 31.5q-80 0 -124.5 -31t-66 -84.5t-26 -126t-4.5 -156.5v-283q0 -79 3 -151t23.5 -126.5t65.5 -87t129 -32.5z" />
    <glyph glyph-name="kgreenlandic" unicode="&#x138;" horiz-adv-x="786" 
d="M229 1201v-562h116l307 563h90l-330 -600l373 -602h-93l-351 561h-112v-561h-84v1201h84z" />
    <glyph glyph-name="Ksmall" unicode="&#xf76b;" horiz-adv-x="786" 
d="M229 1201v-562h116l307 563h90l-330 -600l373 -602h-93l-351 561h-112v-561h-84v1201h84z" />
    <glyph glyph-name="Vsmall" unicode="&#xf776;" horiz-adv-x="669" 
d="M659 1202l-253 -1202h-145l-253 1202h86l230 -1126h18l231 1126h86z" />
    <glyph glyph-name="Asmall" unicode="&#xf761;" horiz-adv-x="673" 
d="M654 0h-86l-62 303h-346l-61 -303h-86l249 1202h142zM175 377h316l-153 749h-11z" />
    <glyph glyph-name="mu" unicode="&#xb5;" horiz-adv-x="915" 
d="M773 1202v-745q0 -52 -1 -107t-9 -107.5t-25 -99t-49 -82t-82.5 -56t-123.5 -20.5q-49 0 -87.5 12.5t-68 35t-49.5 53t-32 66.5v-517h-83v1567h83v-702q0 -84 6 -163t28.5 -140t66.5 -98t121 -37q84 0 129 33t65.5 87.5t24 126t3.5 149.5v744h83z" />
    <glyph glyph-name="Beta" unicode="&#x392;" horiz-adv-x="865" 
d="M680 489q0 54 -17.5 102t-48.5 83.5t-74.5 56t-97.5 20.5h-211v-672h214q49 0 93 8t76.5 39t50.5 92.5t15 168.5v102zM652 1186q0 50 -11 96.5t-35.5 82t-65 57t-98.5 21.5h-211v-617h196q61 0 104 17.5t70 50.5t39 81.5t12 110.5v100zM764 387q0 -107 -17 -180.5
t-55 -119t-99 -65.5t-149 -20h-296v1518h295q63 0 116.5 -17.5t92.5 -56.5t61 -102.5t22 -155.5v-99q0 -56 -9 -105.5t-29.5 -88.5t-54 -66t-83.5 -39q46 -9 83.5 -35.5t64.5 -66.5t42 -90.5t15 -108.5v-102z" />
    <glyph glyph-name="Epsilon" unicode="&#x395;" horiz-adv-x="722" 
d="M140 0v1518l542 2v-78l-459 -2v-617h390v-77h-390v-669h459v-77h-542z" />
    <glyph glyph-name="Osmall" unicode="&#xf76f;" horiz-adv-x="810" 
d="M404 1218q77 0 129.5 -21t86.5 -56t52 -82t26.5 -99.5t9.5 -107.5t1 -107v-286q0 -54 -1.5 -110.5t-10 -109t-27 -98.5t-52.5 -80.5t-86 -55t-128 -20.5q-77 0 -130 20.5t-86.5 56t-51.5 82t-26.5 99t-9.5 107.5t-1 107v286q0 54 1.5 110.5t10 109t27 99t52.5 81t85.5 55
t127.5 20.5h1zM404 1140q-80 0 -125 -30.5t-66.5 -84.5t-26 -126.5t-4.5 -156.5v-283q0 -52 1 -102t7 -94t19 -81t38 -63.5t63 -41.5t94 -15q80 0 124.5 31t66 84.5t26 126.5t4.5 157v283q0 79 -3 150.5t-23.5 126t-65.5 87t-129 32.5z" />
    <glyph glyph-name="afii10019" unicode="&#x412;" horiz-adv-x="865" 
d="M680 489q0 54 -17.5 102t-48.5 83.5t-74.5 56t-97.5 20.5h-211v-672h214q49 0 93 8t76.5 39t50.5 92.5t15 168.5v102zM652 1186q0 50 -11 96.5t-35.5 82t-65 57t-98.5 21.5h-211v-617h196q61 0 104 17.5t70 50.5t39 81.5t12 110.5v100zM764 387q0 -107 -17 -180.5
t-55 -119t-99 -65.5t-149 -20h-296v1518h295q63 0 116.5 -17.5t92.5 -56.5t61 -102.5t22 -155.5v-99q0 -56 -9 -105.5t-29.5 -88.5t-54 -66t-83.5 -39q46 -9 83.5 -35.5t64.5 -66.5t42 -90.5t15 -108.5v-102z" />
    <glyph glyph-name="Gamma" unicode="&#x393;" horiz-adv-x="685" 
d="M236 1441v-1441h-83v1519h532v-78h-449z" />
    <glyph glyph-name="Zeta" unicode="&#x396;" horiz-adv-x="695" 
d="M45 0v74l523 1366h-492v78h585v-74l-525 -1367h519v-77h-610z" />
    <glyph glyph-name="Eta" unicode="&#x397;" horiz-adv-x="918" 
d="M148 0v1520h84v-716h456v716h84v-1520h-84v726h-456v-726h-84z" />
    <glyph glyph-name="Iota" unicode="&#x399;" horiz-adv-x="383" 
d="M150 0v1520h84v-1520h-84z" />
    <glyph glyph-name="Kappa" unicode="&#x39a;" horiz-adv-x="836" 
d="M147 0v1520h84v-716h154l324 714h93l-340 -750l373 -768h-93l-355 726h-156v-726h-84z" />
    <glyph glyph-name="Mu" unicode="&#x39c;" horiz-adv-x="1182" 
d="M237 1444h-6l3 -1444h-84v1520h148l297 -1169l297 1169h149v-1520h-84l3 1444h-8l-304 -1193h-106z" />
    <glyph glyph-name="Omicron" unicode="&#x39f;" horiz-adv-x="810" 
d="M422 1535q77 0 130.5 -20t89.5 -54t56 -79.5t30 -97t12.5 -106t2.5 -106.5v-622q0 -54 -3 -109.5t-13.5 -107.5t-31 -97t-56 -78.5t-89 -53t-128.5 -19.5h-1q-77 0 -130.5 20t-89.5 54t-56 80t-30 97t-12.5 105.5t-2.5 106.5v622q0 54 3 109.5t13.5 107.5t31 97t56 78.5
t88.5 53t129 19.5h1zM422 62q80 0 127 29.5t71.5 82t31.5 123.5t7 155v618q0 79 -5.5 149.5t-29 123.5t-71 84t-131.5 31h-1q-80 0 -127 -29.5t-71.5 -82t-31.5 -123.5t-7 -155v-618q0 -79 5.5 -149.5t29 -123.5t71 -84t131.5 -31h1z" />
    <glyph glyph-name="Rho" unicode="&#x3a1;" horiz-adv-x="911" 
d="M758 976q0 -106 -21 -174.5t-63 -108t-104 -54.5t-143 -15h-191v-624h-83v1520h292q72 0 130 -17.5t98.5 -58t62.5 -107t22 -164.5v-197zM674 1173q0 66 -12 115.5t-39 83.5t-70 51t-106 17h-211v-739h193q67 0 113.5 14t75.5 46t42.5 85t13.5 130v197z" />
    <glyph glyph-name="Tau" unicode="&#x3a4;" horiz-adv-x="687" 
d="M384 1440v-1440h-84v1440h-288v78h660v-78h-288z" />
    <glyph glyph-name="Upsilon" unicode="&#x3a5;" horiz-adv-x="697" 
d="M388 623v-623h-83v623l-304 895h89l259 -767l258 767h91z" />
    <glyph glyph-name="Chi" unicode="&#x3a7;" horiz-adv-x="812" 
d="M684 0l-280 703l-275 -703h-96l316 793l-291 727h91l258 -646l257 646h91l-296 -730l321 -790h-96z" />
    <glyph glyph-name="Pi" unicode="&#x3a0;" horiz-adv-x="928" 
d="M153 0v1520h623v-1520h-84v1442h-455v-1442h-84z" />
    <glyph glyph-name="Xi" unicode="&#x39e;" horiz-adv-x="811" 
d="M134 1519l543 1v-77l-543 -2v78zM202 823h406v-77h-406v77zM134 77h543v-77h-543v77z" />
    <glyph glyph-name="registered" unicode="&#xae;" horiz-adv-x="1314" 
d="M646 -197q-119 1 -223 34.5t-182 107t-123 189t-45 280.5v536q0 165 45 280.5t123 188.5t182.5 106.5t223.5 33.5h1h3q119 -1 223.5 -34.5t182.5 -107t123.5 -189t45.5 -280.5v-536q0 -165 -45.5 -281t-124.5 -188.5t-184 -106t-225 -33.5h-1zM653 -125q96 1 185.5 27.5
t157.5 88.5t109 165t41 257v533q0 155 -42 259t-111 166.5t-158.5 89t-183.5 26.5h-3h-3q-97 -1 -186 -27.5t-157.5 -88.5t-109 -165t-40.5 -257v-533q0 -156 41 -260.5t109.5 -166.5t158.5 -88t189 -26h3zM367 91v1192h272q87 0 146 -21t94.5 -60.5t51 -97.5t15.5 -132v-38
q0 -111 -50.5 -192.5t-147.5 -113.5q37 -20 67 -44t51.5 -56.5t34 -77t15.5 -106.5l12 -253h-81l-11 241q-3 75 -25 124.5t-54 81t-70 47.5t-72 24h-168v-518h-80zM866 973q0 70 -16.5 116t-46.5 72t-71.5 36.5t-90.5 10.5h-194v-524h190q107 0 167 63.5t62 186.5v39z" />
    <glyph glyph-name="Xsmall" unicode="&#xf778;" horiz-adv-x="751" 
d="M631 0l-256 554l-254 -554h-86l292 625l-275 577h89l238 -510l238 510h84l-274 -577l292 -625h-88z" />
    <glyph glyph-name="Rsmall" unicode="&#xf772;" horiz-adv-x="851" 
d="M145 0v1202h275q88 0 147.5 -21t96 -61.5t52 -98.5t15.5 -133v-39q0 -111 -51 -193t-148 -115q37 -21 65 -44.5t48.5 -56.5t33.5 -78t22 -107l12 -95q6 -43 17.5 -84t27.5 -76h-89q-14 35 -23 73.5t-15 84.5l-13 94q-10 74 -33 122.5t-53.5 78.5t-65.5 45t-70 23h-168
v-521h-83zM648 888q0 71 -17 117t-47 72.5t-71.5 37t-90.5 10.5h-194v-527h190q108 0 168 64t62 187v39z" />
    <glyph glyph-name="ordfeminine" unicode="&#xaa;" horiz-adv-x="658" 
d="M459 786v98q-17 -51 -50 -82t-93 -31t-100.5 18t-65 49.5t-34.5 73.5t-10 91v223q0 62 5.5 118t27 98.5t63.5 67.5t114 25q60 0 93 -29t50 -77v91h80v-734h-80zM321 845q73 0 105 41t32 113v229q0 48 -3.5 90.5t-17.5 74.5t-41.5 50.5t-74.5 18.5q-49 0 -76.5 -18.5
t-41 -50t-17 -73.5t-3.5 -90v-151q0 -48 4 -90.5t18 -74.5t41.5 -50.5t74.5 -18.5zM128 709h409v-69h-409v69z" />
    <glyph glyph-name="zeroinferior" unicode="&#x2080;" horiz-adv-x="631" 
d="M111 233q0 62 4.5 118t25 98.5t61.5 67.5t114 25q72 0 113.5 -24.5t61.5 -67t25 -98.5t5 -119v-346q0 -65 -4 -121.5t-24 -98.5t-61.5 -66t-115.5 -24q-61 0 -100.5 18t-63 49.5t-32.5 73.5t-9 91v424zM316 -350q36 0 60.5 10.5t39.5 30.5t21 48.5t6 64.5v431
q0 48 -2 90.5t-14 74.5t-38 50.5t-73 18.5q-49 0 -75 -18.5t-38 -50t-13.5 -73.5t-1.5 -90v-353q0 -47 2.5 -89.5t14.5 -74.5t38 -51t73 -19z" />
    <glyph glyph-name="Delta" unicode="&#x394;" horiz-adv-x="778" 
d="M8 0l306 1520h164l306 -1520h-776zM109 78h572l-271 1364h-29z" />
    <glyph glyph-name="Bsmall" unicode="&#xf762;" horiz-adv-x="867" 
d="M408 1202q88 0 147.5 -21t96 -61t52 -98.5t15.5 -132.5v-7q0 -103 -43 -170.5t-126 -99.5q92 -32 140 -107t48 -184v-7q0 -75 -15.5 -133t-51.5 -98.5t-95.5 -61.5t-147.5 -21h-275v1202h255zM655 321q-2 123 -62 187t-168 64h-190v-495h194q49 0 90.5 10.5t71.5 37
t47 72.5t17 117v7zM635 889q0 71 -17 116.5t-47 72t-71.5 37t-90.5 10.5h-174v-477h170q109 0 168.5 55.5t61.5 178.5v7z" />
    <glyph glyph-name="Psmall" unicode="&#xf770;" horiz-adv-x="800" 
d="M648 888q0 71 -17 117t-47 72.5t-71.5 37t-90.5 10.5h-194v-567h190q108 0 168 64t62 187v79zM145 0v1202h275q88 0 147.5 -21t96 -61.5t52 -98.5t15.5 -133v-79q0 -74 -21.5 -134.5t-63 -103.5t-102.5 -66.5t-140 -23.5h-176v-481h-83z" />
    <glyph glyph-name="afii10067" unicode="&#x432;" horiz-adv-x="867" 
d="M408 1202q88 0 147.5 -21t96 -61t52 -98.5t15.5 -132.5v-7q0 -103 -43 -170.5t-126 -99.5q92 -32 140 -107t48 -184v-7q0 -75 -15.5 -133t-51.5 -98.5t-95.5 -61.5t-147.5 -21h-275v1202h255zM655 321q-2 123 -62 187t-168 64h-190v-495h194q49 0 90.5 10.5t71.5 37
t47 72.5t17 117v7zM635 889q0 71 -17 116.5t-47 72t-71.5 37t-90.5 10.5h-174v-477h170q109 0 168.5 55.5t61.5 178.5v7z" />
    <glyph glyph-name="commaaccent" unicode="&#xf6c3;" horiz-adv-x="426" 
d="M153 -120q0 60 56 60q36 0 50 -21t14 -50q0 -66 -18 -112t-34 -76l-44 20q18 38 26 64.5t11 58.5q-61 0 -61 56z" />
    <glyph glyph-name="Kcommaaccent" unicode="&#x136;" horiz-adv-x="836" 
d="M147 0v1520h84v-716h154l324 714h93l-340 -750l373 -768h-93l-355 726h-156v-726h-84zM419 -120q0 60 56 60q36 0 50 -21t14 -50q0 -66 -18 -112t-34 -76l-44 20q18 38 26 64.5t11 58.5q-61 0 -61 56z" />
    <glyph glyph-name="Lcommaaccent" unicode="&#x13b;" horiz-adv-x="692" 
d="M146 0v1520h84v-1442h449v-78h-533zM345 -120q0 60 56 60q36 0 50 -21t14 -50q0 -66 -18 -112t-34 -76l-44 20q18 38 26 64.5t11 58.5q-61 0 -61 56z" />
    <glyph glyph-name="daggerdbl" unicode="&#x2021;" horiz-adv-x="943" 
d="M430 422v573h-310v78h310v447h82v-447h312v-78h-312v-573h312v-77h-312v-438h-82v438h-310v77h310z" />
    <glyph glyph-name="Theta" unicode="&#x398;" horiz-adv-x="847" 
d="M424 1535q77 0 130.5 -20t89.5 -54t56 -79.5t30 -97t12.5 -106t2.5 -106.5v-622q0 -54 -3 -109.5t-13.5 -107.5t-31 -97t-56 -78.5t-89 -53t-128.5 -19.5h-1q-77 0 -130.5 20t-89.5 54t-56 80t-30 97t-12.5 105.5t-2.5 106.5v622q0 54 3 109.5t13.5 107.5t31 97t56 78.5
t88.5 53t129 19.5h1zM423 1458q-80 0 -127 -29.5t-71.5 -82t-31.5 -123.5t-7 -155v-274h475v276q0 79 -5.5 149.5t-29 123.5t-71 84t-131.5 31h-1zM424 62q80 0 127 29.5t71.5 82t31.5 123.5t7 155v265h-475v-267q0 -79 5.5 -149.5t29 -123.5t71 -84t131.5 -31h1z" />
    <glyph glyph-name="Tsmall" unicode="&#xf774;" horiz-adv-x="573" 
d="M328 1125v-1125h-82v1125h-245v77h572v-77h-245z" />
    <glyph glyph-name="Ssmall" unicode="&#xf773;" horiz-adv-x="720" 
d="M655 297q0 -70 -19 -127.5t-57 -98.5t-95 -63.5t-133 -22.5q-87 0 -144 28t-90 76.5t-46.5 114.5t-13.5 142h82q0 -50 9.5 -101t33.5 -91.5t65 -66t104 -25.5q109 0 164.5 59.5t55.5 172.5q0 60 -21.5 103.5t-57 77t-81 59.5t-92.5 51.5t-92.5 54t-81 66t-57 88
t-21.5 120.5q0 69 18 125.5t54.5 96t91 61t126.5 21.5q76 0 130.5 -22.5t89.5 -65.5t51 -106t16 -144h-82q0 60 -10.5 108t-34.5 81.5t-63.5 52t-96.5 18.5q-47 0 -85 -17t-65.5 -46.5t-42.5 -70t-15 -88.5q0 -58 21.5 -100.5t57.5 -75t81.5 -59t92.5 -53t92.5 -56t81.5 -68
t57.5 -89t21.5 -120.5z" />
    <glyph glyph-name="Ismall" unicode="&#xf769;" horiz-adv-x="374" 
d="M147 0v1202h84v-1202h-84z" />
    <glyph glyph-name="Zsmall" unicode="&#xf77a;" horiz-adv-x="677" 
d="M47 0v72l492 1054h-463v76h555v-72l-494 -1054h488v-76h-578z" />
    <glyph glyph-name="Iotadieresis" unicode="&#x3aa;" horiz-adv-x="383" 
d="M150 0v1520h84v-1520h-84zM35 1723q0 28 13.5 44.5t42.5 16.5q37 0 49 -16.5t12 -44.5q0 -26 -12 -42t-49 -16q-29 0 -42.5 16t-13.5 42zM206 1723q0 28 13.5 44.5t42.5 16.5q37 0 49 -16.5t12 -44.5q0 -26 -12 -42t-49 -16q-29 0 -42.5 16t-13.5 42z" />
    <glyph glyph-name="Etatonos" unicode="&#x389;" horiz-adv-x="918" 
d="M148 0v1520h84v-716h456v716h84v-1520h-84v726h-456v-726h-84zM69 1521l-11 -238h-75l-5 238h91z" />
    <glyph glyph-name="Iotatonos" unicode="&#x38a;" horiz-adv-x="383" 
d="M150 0v1520h84v-1520h-84zM225 1891l-11 -238h-75l-5 238h91z" />
    <glyph glyph-name="Epsilontonos" unicode="&#x388;" horiz-adv-x="722" 
d="M140 0v1518l542 2v-78l-459 -2v-617h390v-77h-390v-669h459v-77h-542zM61 1522l-11 -238h-75l-5 238h91z" />
    <glyph glyph-name="Alphatonos" unicode="&#x386;" horiz-adv-x="778" 
d="M680 0l-79 393h-431l-78 -393h-86l309 1520h141l310 -1520h-86zM185 469h401l-194 975h-12zM214 1521l-11 -238h-75l-5 238h91z" />
    <glyph glyph-name="Phi" unicode="&#x3a6;" horiz-adv-x="994" 
d="M456 0v125q-77 0 -131 19t-89.5 52.5t-56 77.5t-30.5 94.5t-12.5 104.5t-2.5 106v360q0 54 3 109t13.5 105.5t31 94.5t56.5 77t89 51.5t129 18.5v125h84v-125q77 0 130.5 -19.5t89 -52.5t55.5 -77.5t30 -94.5t12.5 -104t2.5 -106v-360q0 -54 -3 -109t-13.5 -105.5
t-31 -94.5t-56 -77t-88.5 -51.5t-128 -18.5v-125h-84zM456 1318q-80 0 -127.5 -28t-72 -78.5t-31.5 -120.5t-7 -153v-357q0 -79 5.5 -148t29.5 -120.5t71.5 -81t131.5 -29.5v1116zM776 939q0 78 -5.5 147t-29 120.5t-71 81.5t-130.5 30v-1116q79 0 126 28t71.5 78.5
t31.5 120.5t7 154v356z" />
    <glyph glyph-name="Upsilondieresis" unicode="&#x3ab;" horiz-adv-x="697" 
d="M388 623v-623h-83v623l-304 895h89l259 -767l258 767h91zM204 1723q0 28 13.5 44.5t42.5 16.5q37 0 49 -16.5t12 -44.5q0 -26 -12 -42t-49 -16q-29 0 -42.5 16t-13.5 42zM375 1723q0 28 13.5 44.5t42.5 16.5q37 0 49 -16.5t12 -44.5q0 -26 -12 -42t-49 -16
q-29 0 -42.5 16t-13.5 42z" />
    <glyph glyph-name="Upsilontonos" unicode="&#x38e;" horiz-adv-x="909" 
d="M546 623v-623h-83v623l-304 895h89l259 -767l258 767h91zM97 1524l-11 -238h-75l-5 238h91z" />
    <glyph glyph-name="Sigma" unicode="&#x3a3;" horiz-adv-x="820" 
d="M486 754l-294 -677h519v-77h-610v74l294 686l-293 687v73h599v-77h-508l293 -677v-12z" />
    <glyph glyph-name="afii10020" unicode="&#x413;" horiz-adv-x="724" 
d="M236 1441v-1441h-83v1519h532v-78h-449z" />
    <glyph glyph-name="lira" unicode="&#x20a4;" horiz-adv-x="876" 
d="M162 852h78q-20 87 -36 172t-16 160q0 76 16.5 139t52.5 109t92.5 71.5t136.5 25.5q73 0 123.5 -23.5t82 -66t47 -102t19.5 -130.5l-82 -1q-3 43 -12.5 87t-30.5 79.5t-56 57.5t-89 22q-59 0 -100 -20.5t-67 -57t-38 -85.5t-12 -106q0 -81 16.5 -164t36.5 -167h304v-72
h-288q10 -46 18 -90.5t11 -88.5h259v-72h-256q-1 -56 -7 -118.5t-18.5 -123.5t-31.5 -115.5t-46 -93.5q43 10 88 10q62 0 121.5 -10.5t119.5 -10.5q43 0 73.5 4t65.5 14l17 -71q-27 -10 -64.5 -17.5t-87.5 -7.5q-38 0 -72.5 4t-69 8.5t-70.5 8.5t-75 4q-17 0 -41 -2.5
t-47 -5.5q-26 -4 -55 -7v84q25 24 46 73t36.5 110.5t24.5 130t10 132.5h-127v72h124q-4 42 -12 86.5t-18 92.5h-94v72z" />
    <glyph glyph-name="Omega" unicode="&#x3a9;" horiz-adv-x="911" 
d="M148 0v78h180l-1 208q-66 15 -104.5 52.5t-58.5 89.5t-25.5 113t-5.5 123q0 32 0.5 63.5t0.5 60.5v282q0 54 3 109.5t13.5 107.5t31 97t56.5 78.5t89 53t129 19.5h1q77 0 130.5 -20t89.5 -54t56 -79.5t30 -97t12.5 -106t2.5 -106.5v-283q0 -26 0.5 -54t0.5 -57
q0 -64 -5.5 -127.5t-25 -117.5t-58 -93t-105.5 -54l-1 -208h180v-78h-259v355q65 0 103 25t57.5 68.5t24.5 101.5t5 124q0 29 -0.5 58t-0.5 59v279q0 79 -5.5 149.5t-29 123.5t-71 84t-131.5 31h-1q-80 0 -127.5 -29.5t-72 -82t-31.5 -123.5t-7 -155v-279q0 -36 -1 -72
t-1 -71q0 -59 6 -112t25.5 -92.5t57.5 -63t102 -23.5v-355h-259z" />
    <glyph glyph-name="Psi" unicode="&#x3a8;" horiz-adv-x="994" 
d="M456 0v411q-77 0 -131 19t-89.5 52.5t-56 77.5t-30.5 94.5t-12.5 104.5t-2.5 106v655l84 -2v-652q0 -78 5.5 -147t29.5 -120.5t71.5 -81t131.5 -29.5v1032h84v-1032q79 0 126 28t71.5 78.5t31.5 120t7 153.5v652l84 2v-656q0 -54 -3 -108.5t-13.5 -105.5t-31 -94.5
t-56 -76.5t-88.5 -51.5t-128 -18.5v-411h-84z" />
    <glyph glyph-name="Omicrontonos" unicode="&#x38c;" horiz-adv-x="810" 
d="M422 1535q77 0 130.5 -20t89.5 -54t56 -79.5t30 -97t12.5 -106t2.5 -106.5v-622q0 -54 -3 -109.5t-13.5 -107.5t-31 -97t-56 -78.5t-89 -53t-128.5 -19.5h-1q-77 0 -130.5 20t-89.5 54t-56 80t-30 97t-12.5 105.5t-2.5 106.5v622q0 54 3 109.5t13.5 107.5t31 97t56 78.5
t88.5 53t129 19.5h1zM422 62q80 0 127 29.5t71.5 82t31.5 123.5t7 155v618q0 79 -5.5 149.5t-29 123.5t-71 84t-131.5 31h-1q-80 0 -127 -29.5t-71.5 -82t-31.5 -123.5t-7 -155v-618q0 -79 5.5 -149.5t29 -123.5t71 -84t131.5 -31h1zM91 1525l-11 -238h-75l-5 238h91z" />
    <glyph glyph-name="afii10022" unicode="&#x415;" horiz-adv-x="722" 
d="M140 0v1518l542 2v-78l-459 -2v-617h390v-77h-390v-669h459v-77h-542z" />
    <glyph glyph-name="afii10025.001" horiz-adv-x="871" 
d="M744 449q0 -127 -14.5 -215.5t-49.5 -143.5t-95 -80t-150 -25q-80 0 -137 25.5t-93.5 73.5t-54 117t-17.5 156v69h81v-110q0 -57 15.5 -104t44 -80t69.5 -51.5t92 -18.5q55 0 97.5 14t71 51t43 101t14.5 164v110q0 84 -18.5 132.5t-49.5 73.5t-71.5 32t-84.5 7h-82v76h83
q43 0 82 12.5t68.5 41t47 75.5t17.5 117v79q0 84 -12 142.5t-38 96t-67.5 54.5t-100.5 17t-100 -16t-67 -51t-38 -90t-12 -133v-76h-84v73q0 78 12.5 146t45.5 117.5t91.5 78t151.5 28.5q78 0 134.5 -22t93.5 -69.5t55 -123t18 -182.5q0 -89 -12.5 -151.5t-35 -104.5
t-54 -65.5t-68.5 -32.5q46 -4 79.5 -23.5t55.5 -59t32.5 -101.5t10.5 -151z" />
    <glyph glyph-name="afii10028" unicode="&#x41a;" horiz-adv-x="836" 
d="M147 0v1520h84v-716h154l324 714h93l-340 -750l373 -768h-93l-355 726h-156v-726h-84z" />
    <glyph glyph-name="afii10030" unicode="&#x41c;" horiz-adv-x="1182" 
d="M237 1444h-6l3 -1444h-84v1520h148l297 -1169l297 1169h149v-1520h-84l3 1444h-8l-304 -1193h-106z" />
    <glyph glyph-name="afii10031" unicode="&#x41d;" horiz-adv-x="918" 
d="M148 0v1520h84v-716h456v716h84v-1520h-84v726h-456v-726h-84z" />
    <glyph glyph-name="afii10032" unicode="&#x41e;" horiz-adv-x="847" 
d="M424 1535q77 0 130.5 -20t89.5 -54t56 -79.5t30 -97t12.5 -106t2.5 -106.5v-622q0 -54 -3 -109.5t-13.5 -107.5t-31 -97t-56 -78.5t-89 -53t-128.5 -19.5h-1q-77 0 -130.5 20t-89.5 54t-56 80t-30 97t-12.5 105.5t-2.5 106.5v622q0 54 3 109.5t13.5 107.5t31 97t56 78.5
t88.5 53t129 19.5h1zM424 62q80 0 127 29.5t71.5 82t31.5 123.5t7 155v618q0 79 -5.5 149.5t-29 123.5t-71 84t-131.5 31h-1q-80 0 -127 -29.5t-71.5 -82t-31.5 -123.5t-7 -155v-618q0 -79 5.5 -149.5t29 -123.5t71 -84t131.5 -31h1z" />
    <glyph glyph-name="afii10033" unicode="&#x41f;" horiz-adv-x="925" 
d="M152 0v1520h623v-1520h-84v1442h-455v-1442h-84z" />
    <glyph glyph-name="afii10034" unicode="&#x420;" horiz-adv-x="867" 
d="M758 976q0 -106 -21 -174.5t-63 -108t-104 -54.5t-143 -15h-191v-624h-83v1520h292q72 0 130 -17.5t98.5 -58t62.5 -107t22 -164.5v-197zM674 1173q0 66 -12 115.5t-39 83.5t-70 51t-106 17h-211v-739h193q67 0 113.5 14t75.5 46t42.5 85t13.5 130v197z" />
    <glyph glyph-name="afii10035" unicode="&#x421;" horiz-adv-x="819" 
d="M742 430v-14q0 -45 -3 -94.5t-14 -97.5t-31.5 -91t-56.5 -76t-88.5 -52.5t-127.5 -19.5q-77 0 -131 20t-89.5 54t-56 80t-30.5 97t-12.5 105.5t-2.5 106.5v622q0 54 3 109.5t13.5 107t31 97t56 79t88.5 53t129 19.5h1q77 0 130.5 -20t89 -53.5t56 -77.5t30.5 -91.5
t12.5 -96t2.5 -91.5v-15h-84v15q0 72 -7 136t-32 112.5t-72 76.5t-126 28q-80 0 -127.5 -29.5t-72 -82t-31.5 -123.5t-7 -155v-618q0 -79 5.5 -149.5t29.5 -123.5t71.5 -84t131.5 -31q76 0 122.5 27t72 74.5t34 112.5t8.5 141v13h84z" />
    <glyph glyph-name="afii10036" unicode="&#x422;" horiz-adv-x="687" 
d="M384 1440v-1440h-84v1440h-288v78h660v-78h-288z" />
    <glyph glyph-name="afii10038" unicode="&#x424;" horiz-adv-x="994" 
d="M456 0v125q-77 0 -131 19t-89.5 52.5t-56 77.5t-30.5 94.5t-12.5 104.5t-2.5 106v360q0 54 3 109t13.5 105.5t31 94.5t56.5 77t89 51.5t129 18.5v125h84v-125q77 0 130.5 -19.5t89 -52.5t55.5 -77.5t30 -94.5t12.5 -104t2.5 -106v-360q0 -54 -3 -109t-13.5 -105.5
t-31 -94.5t-56 -77t-88.5 -51.5t-128 -18.5v-125h-84zM456 1318q-80 0 -127.5 -28t-72 -78.5t-31.5 -120.5t-7 -153v-357q0 -79 5.5 -148t29.5 -120.5t71.5 -81t131.5 -29.5v1116zM776 939q0 78 -5.5 147t-29 120.5t-71 81.5t-130.5 30v-1116q79 0 126 28t71.5 78.5
t31.5 120.5t7 154v356z" />
    <glyph glyph-name="afii10039" unicode="&#x425;" horiz-adv-x="810" 
d="M682 0l-280 703l-275 -703h-96l316 793l-291 727h91l258 -646l257 646h91l-296 -730l321 -790h-96z" />
    <glyph glyph-name="afii10023" unicode="&#x401;" horiz-adv-x="722" 
d="M140 0v1518l542 2v-78l-459 -2v-617h390v-77h-390v-669h459v-77h-542zM259 1723q0 28 13.5 44.5t42.5 16.5q37 0 49 -16.5t12 -44.5q0 -26 -12 -42t-49 -16q-29 0 -42.5 16t-13.5 42zM430 1723q0 28 13.5 44.5t42.5 16.5q37 0 49 -16.5t12 -44.5q0 -26 -12 -42t-49 -16
q-29 0 -42.5 16t-13.5 42z" />
    <glyph glyph-name="afii10054" unicode="&#x405;" horiz-adv-x="893" 
d="M759 376q0 -90 -17.5 -162.5t-55.5 -123.5t-98.5 -78t-146.5 -27q-111 0 -174.5 31t-96 85t-40.5 126t-8 155v48h82v-40q0 -84 8.5 -146t34 -102.5t72 -60t122.5 -19.5q66 0 111 23.5t72 65t39 98.5t12 124v10q0 61 -12.5 108.5t-36 85.5t-58 67.5t-78.5 54.5l-148 84
q-54 30 -93.5 65t-65.5 80t-39 103t-13 135v16q0 81 19.5 146t59 111t98 71t136.5 25q84 0 143.5 -28t97 -76.5t55 -115t17.5 -142.5v-83h-84l-2 118q-2 51 -15.5 96.5t-41.5 79.5t-70.5 54t-100.5 20q-65 0 -110 -24t-72 -65.5t-37.5 -95.5t-8.5 -114l2 -38q1 -47 15.5 -87
t39.5 -74t59 -62.5t74 -51.5l148 -83q103 -59 152 -151t54 -223v-13z" />
    <glyph glyph-name="omicron" unicode="&#x3bf;" horiz-adv-x="810" 
d="M404 1218q77 0 129.5 -21t86.5 -56t52 -82t26.5 -99.5t9.5 -107.5t1 -107v-286q0 -54 -1.5 -110.5t-10 -109t-27 -98.5t-52.5 -80.5t-86 -55t-128 -20.5q-77 0 -130 20.5t-86.5 56t-51.5 82t-26.5 99t-9.5 107.5t-1 107v286q0 54 1.5 110.5t10 109t27 99t52.5 81t85.5 55
t127.5 20.5h1zM404 1140q-80 0 -125 -30.5t-66.5 -84.5t-26 -126.5t-4.5 -156.5v-283q0 -52 1 -102t7 -94t19 -81t38 -63.5t63 -41.5t94 -15q80 0 124.5 31t66 84.5t26 126.5t4.5 157v283q0 79 -3 150.5t-23.5 126t-65.5 87t-129 32.5z" />
    <glyph glyph-name="rho" unicode="&#x3c1;" horiz-adv-x="859" 
d="M146 -365v1051h1v57q0 54 1.5 110t10.5 109t27 99.5t52 81t85.5 55t126.5 20.5h1q76 0 128 -20.5t86 -56t52.5 -82.5t27 -99.5t10 -107.5t1.5 -107v-286q0 -54 -1.5 -110.5t-9.5 -109t-26 -99t-51.5 -81t-84.5 -54.5t-126 -20q-49 0 -86 12t-64.5 33t-46 50t-30.5 64
v-509h-84zM451 62q80 0 125 31t66.5 84.5t26 126.5t4.5 157v283q0 52 -1 102t-7 94t-19.5 80.5t-38 63t-62.5 41.5t-94 15q-80 0 -124.5 -31t-66 -84.5t-26 -126t-4.5 -156.5v-355q2 -65 11 -123.5t32.5 -103.5t66 -71.5t111.5 -26.5z" />
    <glyph glyph-name="afii10024" unicode="&#x416;" horiz-adv-x="1355" 
d="M635 0v726h-156l-354 -726h-93l374 768l-341 750h93l323 -714h154v716h84v-716h154l324 714h93l-341 -750l374 -768h-93l-356 726h-155v-726h-84z" />
    <glyph glyph-name="afii10049" unicode="&#x42f;" horiz-adv-x="796" 
d="M623.962 0v1518h-295.981q-87.9951 0 -148.991 -20t-98.9941 -65.5t-54.9971 -119q-16.998 -73.5 -16.998 -180.5v-140q0 -56 13.999 -105.5t39.9971 -90.5t64.4961 -72t87.4951 -49q-37.998 -23 -66.4961 -51t-48.4971 -63t-32.498 -78.5t-18.499 -97.5l-27.998 -223
q-5 -43 -17.499 -85.5t-28.498 -77.5h89.9941q13.999 35 23.998 75q10 40 16 85l27.998 224q8.99902 70 32.498 121q23.498 51 54.9961 84t66.9961 49t67.4961 16h186.988v-654h82.9951zM91.9941 1133q0 107 17.999 168.5t49.9971 92t74.9951 38.5q42.998 8 91.9951 8
h213.986v-708h-210.987q-52.9961 0 -96.4941 20.5q-43.4971 20.5 -74.9951 55.5t-48.4971 83t-17.999 102v140z" />
    <glyph glyph-name="afii10055" unicode="&#x406;" horiz-adv-x="383" 
d="M150 0v1520h84v-1520h-84z" />
    <glyph glyph-name="afii10056" unicode="&#x407;" horiz-adv-x="383" 
d="M150 0v1520h84v-1520h-84zM35 1723q0 28 13.5 44.5t42.5 16.5q37 0 49 -16.5t12 -44.5q0 -26 -12 -42t-49 -16q-29 0 -42.5 16t-13.5 42zM206 1723q0 28 13.5 44.5t42.5 16.5q37 0 49 -16.5t12 -44.5q0 -26 -12 -42t-49 -16q-29 0 -42.5 16t-13.5 42z" />
    <glyph glyph-name="afii10057" unicode="&#x408;" horiz-adv-x="587" 
d="M459 1518v-1138q0 -55 -2 -106t-10.5 -95t-26.5 -79.5t-49.5 -60.5t-79 -39t-115.5 -14h-1q-62 0 -100.5 10t-71.5 36l35 67q14 -9 28 -16t30 -11.5t35 -6.5t45 -2h3q57 0 95.5 12.5t61 48.5t32 100t9.5 166v1128h82z" />
    <glyph glyph-name="afii10018" unicode="&#x411;" horiz-adv-x="865" 
d="M754 347q0 -98 -22 -164.5t-62.5 -107t-98.5 -58t-131 -17.5h-292v1520h533v-78h-450v-546h192q81 0 143 -15t103.5 -54.5t63 -108t21.5 -174.5v-197zM670 544q0 77 -13.5 129.5t-43 85t-76 46.5t-113.5 14h-193v-739h211q63 0 106.5 17t70.5 51t39 84t12 115v197z" />
    <glyph glyph-name="afii10046" unicode="&#x42c;" horiz-adv-x="884" 
d="M758 543.967q0 105.993 -21 174.489t-63 107.993q-42 39.498 -104 54.4971t-143 14.999h-191v623.962h-83v-1519.91h292q72 0 130 17.499t98.5 57.9961q40.5 40.498 62.5 106.994q22 66.4951 22 164.489v196.988zM674 346.979q0 -65.9961 -12 -115.492
q-12 -49.4971 -39 -83.4951t-70 -50.9971t-106 -16.999h-211v738.955h193q67 0 113.5 -13.999t75.5 -45.9971t42.5 -84.9951t13.5 -129.992v-196.988z" />
    <glyph glyph-name="kappa" unicode="&#x3ba;" horiz-adv-x="826" 
d="M236 1201v-562h116l307 563h90l-330 -600l373 -602h-93l-351 561h-112v-561h-84v1201h84z" />
    <glyph glyph-name="nu" unicode="&#x3bd;" horiz-adv-x="669" 
d="M659 1202l-253 -1202h-145l-253 1202h86l230 -1126h18l231 1126h86z" />
    <glyph glyph-name="eta" unicode="&#x3b7;" horiz-adv-x="883" 
d="M675 -365v1109v50q0 70 -4.5 132.5t-25.5 110t-64 75.5t-120 28q-51 0 -88 -17.5t-62.5 -48t-41 -72t-24 -91t-11.5 -104t-3 -110.5v-697h-84v1202h84v-161q12 36 34 68t53 56t71.5 38t89.5 14q66 0 112.5 -17t77.5 -46.5t48.5 -69t26.5 -85t11 -95t2 -97.5v-62v-1110
h-82z" />
    <glyph glyph-name="theta" unicode="&#x3b8;" horiz-adv-x="810" 
d="M99 438v641q0 54 1.5 109t9.5 105.5t26 94.5t51.5 76.5t85 51.5t126.5 19h1q73 0 124 -17.5t84.5 -48t52 -71t27.5 -87.5t11 -98t2 -101v-31v-641q0 -54 -1.5 -109t-9.5 -105.5t-26 -94.5t-51.5 -76.5t-85.5 -51t-127 -18.5q-77 0 -129 19t-85.5 52.5t-51.5 77.5
t-25.5 94.5t-8.5 104t-1 105.5zM400 1458q-80 0 -124 -28t-64.5 -78.5t-24.5 -120t-4 -153.5v-284h435v285q0 79 -2.5 148t-22.5 120.5t-64.5 81t-128.5 29.5zM400 62q80 0 124 28t65 78.5t25 120t4 153.5v275h-435v-277q0 -53 0.5 -101t6.5 -90t18.5 -76.5t36.5 -59
t61.5 -38t93.5 -13.5z" />
    <glyph glyph-name="beta" unicode="&#x3b2;" horiz-adv-x="862" 
d="M745 449q0 -127 -14.5 -215.5t-49.5 -143.5t-95 -80t-150 -25h-33v77h33q55 0 97.5 14t71 51t43 101t14.5 164v110q0 84 -20 132.5t-52.5 73.5t-74.5 32t-86 7h-210v-1110h-84v1528q0 78 10.5 146t42 117.5t88.5 78t150 28.5q78 0 134.5 -22t93.5 -69.5t55 -123
t18 -182.5q0 -89 -12.5 -151.5t-35 -104.5t-53.5 -65.5t-68 -32.5q45 -4 80 -23.5t59 -59t36 -101.5t12 -151zM219 823h210q43 0 81.5 12.5t68 41t47 75.5t17.5 117v79q0 84 -12 142.5t-38 96t-67 54.5t-100 17t-99 -16t-64 -51t-34 -90t-10 -133v-345z" />
    <glyph glyph-name="c" unicode="c" horiz-adv-x="793" 
d="M629 386h84v-9q0 -40 -1.5 -84.5t-10.5 -88t-27.5 -83.5t-52.5 -70t-86 -48t-127 -18q-77 0 -129.5 20.5t-86.5 55.5t-52 81.5t-26.5 99t-9.5 108t-1 107.5v388q2 71 14 138.5t44.5 119.5t91.5 83.5t155 31.5q77 0 129.5 -18.5t86.5 -49.5t52 -71t26.5 -83.5t9.5 -87
t1 -81.5v-11h-84v9q0 57 -3.5 113.5t-24 101.5t-65.5 72.5t-128 27.5q-80 0 -125 -30.5t-67 -84.5t-26.5 -126.5t-4.5 -156.5v-271q0 -55 1 -107t7 -99q6 -44 19 -81.5t38 -64.5t63 -42t95 -15q79 0 123.5 26t66 69.5t26.5 101t5 120.5v7z" />
    <glyph glyph-name="afii10029" unicode="&#x41b;" horiz-adv-x="989" 
d="M753 0v1442h-456v-1002q0 -129 -10 -216.5t-38.5 -141t-80.5 -76t-137 -22.5v78q63 0 99.5 19.5t54.5 64t23 117t5 179.5v1078h624v-1520h-84z" />
    <glyph glyph-name="afii10053" unicode="&#x404;" horiz-adv-x="912" 
d="M693 1090v15q0 72 -7 136t-32 112.5t-72 76.5t-126 28q-80 0 -127.5 -29.5t-72 -82t-31.5 -123.5t-7 -155v-245h408v-77h-408v-296q0 -79 5.5 -149.5t29.5 -123.5t71.5 -84t131.5 -31q76 0 122.5 27t72 74.5t34 112.5t8.5 141v13h84v-14q0 -45 -3 -94.5t-14 -97.5
t-31.5 -91t-56.5 -76t-88.5 -52.5t-127.5 -19.5h-1q-77 0 -130.5 20t-89 54.5t-56 80t-30.5 97t-12.5 105.5t-2.5 106v622q0 54 3 109.5t13.5 107.5t31 97t56.5 78.5t89 53t129 19.5q77 0 130.5 -20t89 -53.5t56 -77.5t30.5 -91.5t12.5 -96t2.5 -91.5v-15h-84z" />
    <glyph glyph-name="afii10047" unicode="&#x42d;" horiz-adv-x="912" 
d="M152.99 1090v15q0 72 7 136t31.998 112.5t71.9961 76.5q46.9971 28 125.992 28q79.9951 0 127.492 -29.5t71.9951 -82q24.499 -52.5 31.498 -123.5q7 -71 7 -155v-245h-407.976v-77h407.976v-296q0 -79 -5.5 -149.5t-29.498 -123.5q-23.999 -53 -71.4961 -84
t-131.491 -31q-75.9961 0 -122.493 27t-71.9951 74.5q-25.499 47.5 -33.998 112.5q-8.5 65 -8.5 141v13h-83.9941v-14q0 -45 3 -94.5q2.99902 -49.5 13.999 -97.5q10.999 -48 31.498 -91q20.498 -43 56.4961 -76t88.4951 -52.5q52.4961 -19.5 127.492 -19.5h1
q76.9951 0 130.491 20q53.4971 20 88.9951 54.5t55.9961 80q20.499 45.5 30.498 97q10 51.5 12.5 105.5t2.5 106v622q0 54 -3 109.5t-13.499 107.5q-10.5 52 -30.999 97q-20.498 45 -56.4961 78.5t-88.9941 53q-52.9971 19.5 -128.992 19.5q-76.9961 0 -130.492 -20
q-53.4971 -20 -88.9951 -53.5q-35.4971 -33.5 -55.9961 -77.5t-30.498 -91.5q-10 -47.5 -12.499 -96q-2.5 -48.5 -2.5 -91.5v-15h83.9941z" />
    <glyph glyph-name="afii10085" unicode="&#x443;" horiz-adv-x="665" 
d="M435 134l-46 -231q-19 -98 -63 -163t-108 -101l-41 51q47 30 82 89t51 135l45 226zM657 1202l-253 -1202h-145l-253 1202h86l230 -1126h18l231 1126h86z" />
    <glyph glyph-name="afii10048" unicode="&#x42e;" horiz-adv-x="1253" 
d="M153 0v1520h84v-726h237v276q0 54 3 109.5t13.5 107.5t31 97t56.5 78.5t89 53t129 19.5h1q77 0 130.5 -20t89.5 -54t56 -79.5t30 -97t12.5 -106t2.5 -106.5v-622q0 -54 -3 -109.5t-13.5 -107.5t-31 -97t-56 -78.5t-89 -53t-128.5 -19.5h-1q-77 0 -131 20t-89.5 54t-56 80
t-30.5 97t-12.5 105.5t-2.5 106.5v269h-237v-717h-84zM796 1458q-80 0 -127.5 -29.5t-72 -82t-31.5 -123.5t-7 -155v-618q0 -79 5.5 -149.5t29.5 -123.5t71.5 -84t131.5 -31h1q80 0 127 29.5t71.5 82t31.5 123.5t7 155v618q0 79 -5.5 149.5t-29 123.5t-71 84t-131.5 31h-1z
" />
    <glyph glyph-name="afii10040" unicode="&#x426;" horiz-adv-x="936" 
d="M777 1520v-1442h113v-253h-84v175h-652v1520h84v-1442h455v1442h84z" />
    <glyph glyph-name="afii10070" unicode="&#x435;" horiz-adv-x="807" 
d="M711 406v-19q0 -45 -1.5 -92t-10.5 -91.5t-27.5 -84.5t-52.5 -69.5t-86 -47t-127 -17.5q-77 0 -130 20.5t-86.5 56t-51.5 82t-26.5 99t-9.5 107.5t-1 107v286q0 54 1.5 110.5t10 109t27 99t52.5 81.5t86 55t128 20q77 0 129.5 -19t86.5 -50t52 -72.5t26.5 -87t9.5 -92.5
t1 -89v-167l-528 -83v-99q0 -79 3.5 -151t24 -126.5t66 -87t129.5 -32.5q80 0 124.5 25t66 68.5t26 103.5t4.5 129v18h84zM406 1140q-81 0 -125.5 -31t-66.5 -84.5t-26.5 -126t-4.5 -156.5v-110l444 70v105q0 64 -3.5 124t-24 106.5t-65.5 74.5t-128 28z" />
    <glyph glyph-name="afii10071" unicode="&#x451;" horiz-adv-x="807" 
d="M711 406v-19q0 -45 -1.5 -92t-10.5 -91.5t-27.5 -84.5t-52.5 -69.5t-86 -47t-127 -17.5q-77 0 -130 20.5t-86.5 56t-51.5 82t-26.5 99t-9.5 107.5t-1 107v286q0 54 1.5 110.5t10 109t27 99t52.5 81.5t86 55t128 20q77 0 129.5 -19t86.5 -50t52 -72.5t26.5 -87t9.5 -92.5
t1 -89v-167l-528 -83v-99q0 -79 3.5 -151t24 -126.5t66 -87t129.5 -32.5q80 0 124.5 25t66 68.5t26 103.5t4.5 129v18h84zM406 1140q-81 0 -125.5 -31t-66.5 -84.5t-26.5 -126t-4.5 -156.5v-110l444 70v105q0 64 -3.5 124t-24 106.5t-65.5 74.5t-128 28zM261 1405
q0 28 13.5 44.5t42.5 16.5q37 0 49 -16.5t12 -44.5q0 -26 -12 -42t-49 -16q-29 0 -42.5 16t-13.5 42zM432 1405q0 28 13.5 44.5t42.5 16.5q37 0 49 -16.5t12 -44.5q0 -26 -12 -42t-49 -16q-29 0 -42.5 16t-13.5 42z" />
    <glyph glyph-name="uni2206" unicode="&#x2206;" horiz-adv-x="842" 
d="M135 78h544l13 -78h-658l306 1520h164l306 -1520h-87l-285 1433h-33z" />
    <glyph glyph-name="Ohm" unicode="&#x2126;" horiz-adv-x="910" 
d="M148 0v78h180l-1 208q-66 15 -104.5 52.5t-58.5 89.5t-25.5 113t-5.5 123q0 32 0.5 63.5t0.5 60.5v282q0 54 3 109.5t13.5 107.5t31 97t56 78.5t88.5 53t129 19.5h1q77 0 131 -20t89.5 -54t56 -79.5t30.5 -97t12.5 -106t2.5 -106.5v-283q0 -26 0.5 -52.5t0.5 -54.5
q0 -65 -5.5 -129.5t-25 -118.5t-58.5 -93.5t-106 -54.5v-208h179v-78h-258v355q65 0 102.5 25t57 67.5t24.5 100t5 122.5q0 29 -0.5 59.5t-0.5 61.5v279q0 79 -5.5 149.5t-29 123.5t-71 84t-131.5 31h-1q-80 0 -127 -29.5t-71.5 -82t-31.5 -123.5t-7 -155v-279
q0 -37 -1 -73.5t-1 -72.5q0 -59 6 -111t25.5 -91.5t57.5 -62.5t102 -23v-355h-259z" />
    <glyph glyph-name="summation" unicode="&#x2211;" horiz-adv-x="866" 
d="M518 754l-294 -677h519v-77h-610v74l294 686l-294 687v73h600v-77h-509l294 -677v-12z" />
    <glyph glyph-name="iota" unicode="&#x3b9;" horiz-adv-x="374" 
d="M134 1517q0 24 13 38.5t42 14.5q34 0 47 -14.5t13 -38.5q0 -23 -13 -36.5t-47 -13.5q-29 0 -42 13.5t-13 36.5zM147 0v1202h84v-1202h-84z" />
    <glyph glyph-name="afii10065" unicode="&#x430;" horiz-adv-x="857" 
d="M633 0v151q-12 -36 -30.5 -66.5t-46 -53t-65 -35t-86.5 -12.5q-96 0 -155.5 31.5t-92.5 83t-44.5 116t-11.5 130.5q0 37 2 76t10.5 76t27.5 69.5t52.5 57t85 39t125.5 14.5q43 0 77 -3.5t61.5 -9.5t49 -14t41.5 -17v109q0 84 -4.5 156.5t-26.5 126.5t-66.5 84.5
t-124.5 30.5q-72 0 -114.5 -27.5t-64 -72.5t-27.5 -101.5t-6 -113.5v-9h-84v11q0 38 2.5 81.5t12 87t28 83.5t51.5 71t82.5 49.5t119.5 18.5q96 0 156 -31.5t93 -83.5t45 -119.5t12 -138.5v-845h-84zM411 62q70 0 113.5 28.5t67.5 77.5t32.5 113.5t8.5 135.5v133
q-18 14 -38.5 24t-46.5 17t-59 10t-78 3q-80 0 -125.5 -23.5t-68 -60.5t-28 -83t-5.5 -91q0 -60 9.5 -112t35 -90.5t69.5 -60t113 -21.5z" />
    <glyph glyph-name="a.alt" horiz-adv-x="915" 
d="M669 0v150q-12 -36 -30.5 -66.5t-46 -52.5t-65 -34.5t-86.5 -12.5q-64 0 -110.5 15t-79.5 41t-53.5 61.5t-32 77t-16.5 87t-6 92.5q-1 27 -1 54v53v270v54.5t1 55.5q2 71 13.5 138t43 118.5t89 83.5t151.5 32q49 0 86.5 -12t65 -33.5t46.5 -51t31 -63.5v145h83v-1202h-83
zM447 62q53 0 90 16.5t61.5 46t38.5 70t21 88.5q5 33 7.5 68.5t3.5 73.5v384q-3 64 -12 123.5t-32 105.5t-65.5 74t-112.5 28q-49 0 -84 -12t-59 -33.5t-39 -52t-24 -67.5q-11 -51 -13 -112.5t-2 -130.5v-264q0 -48 0.5 -94t4.5 -87t13.5 -77.5t26.5 -64.5q23 -38 65 -60.5
t111 -22.5z" />
    <glyph glyph-name="alpha" unicode="&#x3b1;" horiz-adv-x="857" 
d="M646 0v150q-12 -36 -30.5 -66.5t-46 -52.5t-65 -34.5t-86.5 -12.5q-64 0 -110.5 15t-79.5 41t-53.5 61.5t-32 77t-16.5 87t-6 92.5q-1 27 -1 54v53v270v54.5t1 55.5q2 71 13.5 138t43 118.5t89 83.5t151.5 32q49 0 86.5 -12t65 -33.5t46.5 -51t31 -63.5v145h83v-1202h-83
zM424 62q53 0 90 16.5t61.5 46t38.5 70t21 88.5q5 33 7.5 68.5t3.5 73.5v384q-3 64 -12 123.5t-32 105.5t-65.5 74t-112.5 28q-49 0 -84 -12t-59 -33.5t-39 -52t-24 -67.5q-11 -51 -13 -112.5t-2 -130.5v-264q0 -48 0.5 -94t4.5 -87t13.5 -77.5t26.5 -64.5q23 -38 65 -60.5
t111 -22.5z" />
    <glyph glyph-name="alphatonos" unicode="&#x3ac;" horiz-adv-x="857" 
d="M646 0v150q-12 -36 -30.5 -66.5t-46 -52.5t-65 -34.5t-86.5 -12.5q-64 0 -110.5 15t-79.5 41t-53.5 61.5t-32 77t-16.5 87t-6 92.5q-1 27 -1 54v53v270v54.5t1 55.5q2 71 13.5 138t43 118.5t89 83.5t151.5 32q49 0 86.5 -12t65 -33.5t46.5 -51t31 -63.5v145h83v-1202h-83
zM424 62q53 0 90 16.5t61.5 46t38.5 70t21 88.5q5 33 7.5 68.5t3.5 73.5v384q-3 64 -12 123.5t-32 105.5t-65.5 74t-112.5 28q-49 0 -84 -12t-59 -33.5t-39 -52t-24 -67.5q-11 -51 -13 -112.5t-2 -130.5v-264q0 -48 0.5 -94t4.5 -87t13.5 -77.5t26.5 -64.5q23 -38 65 -60.5
t111 -22.5zM477 1525l-11 -238h-75l-5 238h91z" />
    <glyph glyph-name="parenleftsuperior" unicode="&#x207d;" horiz-adv-x="349" 
d="M332 801q-75 0 -121.5 30.5t-72 80.5t-34 114t-8.5 131v386q0 23 1 59t7.5 75.5t21 79t40.5 71t66.5 51.5t99.5 20h26v-72h-26q-39 0 -65.5 -17t-44 -43.5t-27 -59t-14 -64t-5 -58t-0.5 -41.5v-388q0 -60 8 -111.5t26 -89.5t48 -59.5t74 -21.5h26v-73h-26z" />
    <glyph glyph-name="parenrightsuperior" unicode="&#x207e;" horiz-adv-x="348" 
d="M56.9961 794q74.9961 0 121.493 30.5t71.9951 80.5q25.499 50 33.998 114q8.5 64 8.5 131v386q0 23 -1 59t-7.5 75.5q-6.49902 39.5 -20.998 79q-14.5 39.5 -40.498 71t-66.4961 51.5q-40.4971 20 -99.4941 20h-25.998v-72h25.998q38.998 0 65.4961 -17
q26.499 -17 43.998 -43.5q17.498 -26.5 26.998 -59q9.49902 -32.5 13.999 -64t5 -58t0.5 -41.5v-388q0 -60 -8 -111.5q-7.99902 -51.5 -25.998 -89.5t-47.9971 -59.5t-73.9961 -21.5h-25.998v-73h25.998z" />
    <glyph glyph-name="eng" unicode="&#x14b;" horiz-adv-x="883" 
d="M675 744q0 78 -3.5 149.5t-24 126t-66 87.5t-129.5 33q-51 0 -87 -17.5t-61 -48t-39 -72t-22 -91t-10 -104t-2 -110.5v-697h-84v1202h84v-152q12 36 31.5 66.5t49 53t68 35t87.5 12.5q74 0 124 -20.5t82.5 -56t49.5 -82t24.5 -99t8.5 -107.5t1 -107v-754
q0 -97 -5.5 -171.5t-29.5 -125.5t-72 -77t-133 -26q-51 0 -92 14t-61 26l12 69q10 -5 25.5 -10.5t35 -10t41 -8t42.5 -3.5q56 0 87.5 16t46.5 53.5t18 99.5t3 154v753v0z" />
    <glyph glyph-name="Eng" unicode="&#x14a;" horiz-adv-x="918" 
d="M148 0v1520h84v-2h16l466 -1287v1289h84v-1533q0 -84 -7.5 -156.5t-36.5 -126t-87.5 -84t-161.5 -30.5q-63 0 -101.5 10t-71.5 37l35 67q14 -9 28 -16t30 -11.5t35 -7t45 -2.5q58 0 96.5 12.5t61.5 48.5t32 100t9 166v6l-472 1288v-1288h-84z" />
    <glyph glyph-name="iacute" unicode="&#xed;" horiz-adv-x="374" 
d="M147 0v1202h84v-1202h-84zM367 1525l-144 -238h-77l128 238h93z" />
    <glyph glyph-name="afii61352" unicode="&#x2116;" horiz-adv-x="1754" 
d="M1297 1528q77 0 129.5 -21t86.5 -56t52 -82t26.5 -99.5t9.5 -107.5t1 -107v-185q0 -54 -1.5 -110.5t-10 -109t-27 -99t-52.5 -81t-86 -54.5t-127 -20q-77 0 -130 20.5t-87 56t-52 82t-26.5 99t-9.5 107.5t-1 107v185q0 54 1.5 110.5t10.5 109t27.5 99t52.5 81.5t85.5 55
t127.5 20zM1297 1451q-80 0 -125 -31t-66.5 -84.5t-26 -126.5t-4.5 -157v-182q0 -79 3.5 -151t24 -126.5t65.5 -87t129 -32.5q80 0 125 31t66.5 84.5t26 126t4.5 156.5v183q0 79 -3.5 151t-24 126.5t-65.5 87t-129 32.5zM153 0v1520h84v-2h15l466 -1299v1301h84v-1520h-93
l-472 1316v-1316h-84zM1058 231v77h479v-77h-479z" />
    <glyph glyph-name="N" unicode="N" horiz-adv-x="918" 
d="M148 0v1520h157l404 -1445h9l-2 1445h84l8 -1520h-158l-410 1445h-9l1 -1445h-84z" />
    <glyph glyph-name="J" unicode="J" horiz-adv-x="587" 
d="M118 1518h341v-1138q0 -55 -2 -106t-10.5 -95t-26.5 -79.5t-49.5 -60.5t-79 -39t-115.5 -14q-63 0 -101.5 10t-71.5 36l35 67q14 -9 28 -16t30 -11.5t35 -6.5t45 -2h3q57 0 95.5 12.5t61 48.5t32 100t9.5 166v1050h-259v78z" />
    <glyph glyph-name="Jcircumflex" unicode="&#x134;" horiz-adv-x="587" 
d="M118 1518h341v-1138q0 -55 -2 -106t-10.5 -95t-26.5 -79.5t-49.5 -60.5t-79 -39t-115.5 -14q-63 0 -101.5 10t-71.5 36l35 67q14 -9 28 -16t30 -11.5t35 -6.5t45 -2h3q57 0 95.5 12.5t61 48.5t32 100t9.5 166v1050h-259v78zM108 1603l136 226h90l136 -226h-88l-93 165
l-92 -165h-89z" />
    <glyph glyph-name="afii10076" unicode="&#x43a;" horiz-adv-x="826" 
d="M237 1201v-562h116l307 563h90l-330 -600l373 -602h-93l-351 561h-112v-561h-84v1201h84z" />
    <glyph glyph-name="o" unicode="o" horiz-adv-x="810" 
d="M404 1218q77 0 129.5 -21t86.5 -56t52 -82t26.5 -99.5t9.5 -107.5t1 -107v-286q0 -54 -1.5 -110.5t-10 -109t-27 -98.5t-52.5 -80.5t-86 -55t-128 -20.5q-77 0 -130 20.5t-86.5 56t-51.5 82t-26.5 99t-9.5 107.5t-1 107v286q0 54 1.5 110.5t10 109t27 99t52.5 81t85.5 55
t127.5 20.5h1zM404 1140q-80 0 -125 -30.5t-66.5 -84.5t-26 -126.5t-4.5 -156.5v-283q0 -52 1 -102t7 -94t19 -81t38 -63.5t63 -41.5t94 -15q80 0 124.5 31t66 84.5t26 126.5t4.5 157v283q0 79 -3 150.5t-23.5 126t-65.5 87t-129 32.5z" />
    <glyph glyph-name="afii10096" unicode="&#x44e;" horiz-adv-x="1206" 
d="M153 0v1202h83v-585h262v-77h-262v-540h-83zM785 1218q77 0 129.5 -21t86.5 -56t52 -82t26.5 -99.5t9.5 -107.5t1 -107v-286q0 -54 -1.5 -110.5t-10 -109t-27 -98.5t-52.5 -80.5t-86 -55t-128 -20.5q-77 0 -130 20.5t-86.5 56t-51.5 82t-26.5 99t-9.5 107.5t-1 107v286
q0 54 1.5 110.5t10 109t27 99t52.5 81t85.5 55t127.5 20.5h1zM785 1140q-80 0 -125 -30.5t-66.5 -84.5t-26 -126.5t-4.5 -156.5v-283q0 -52 1 -102t7 -94t19 -81t38 -63.5t63 -41.5t94 -15q80 0 124.5 31t66 84.5t26 126.5t4.5 157v283q0 79 -3 150.5t-23.5 126t-65.5 87
t-129 32.5z" />
    <glyph glyph-name="afii10080" unicode="&#x43e;" horiz-adv-x="810" 
d="M404 1218q77 0 129.5 -21t86.5 -56t52 -82t26.5 -99.5t9.5 -107.5t1 -107v-286q0 -54 -1.5 -110.5t-10 -109t-27 -98.5t-52.5 -80.5t-86 -55t-128 -20.5q-77 0 -130 20.5t-86.5 56t-51.5 82t-26.5 99t-9.5 107.5t-1 107v286q0 54 1.5 110.5t10 109t27 99t52.5 81t85.5 55
t127.5 20.5h1zM404 1140q-80 0 -125 -30.5t-66.5 -84.5t-26 -126.5t-4.5 -156.5v-283q0 -52 1 -102t7 -94t19 -81t38 -63.5t63 -41.5t94 -15q80 0 124.5 31t66 84.5t26 126.5t4.5 157v283q0 79 -3 150.5t-23.5 126t-65.5 87t-129 32.5z" />
    <glyph glyph-name="Pallino" horiz-adv-x="46" 
d="M345 516q0 14 9 23t23 9t23.5 -9t9.5 -23t-9.5 -23.5t-23.5 -9.5t-23 9.5t-9 23.5z" />
    <glyph glyph-name="afii10068" unicode="&#x433;" horiz-adv-x="611" 
d="M133 0v1202h482v-83h-398v-1119h-84z" />
    <glyph glyph-name="afii10082" unicode="&#x440;" horiz-adv-x="859" 
d="M146 -365v1567h84v-150q12 36 30.5 66.5t46 52.5t64.5 34.5t86 12.5q76 0 127.5 -21t85 -56t51 -82t25.5 -99.5t9 -107.5t1 -107v-286q0 -54 -1.5 -110.5t-9.5 -109t-26 -99t-51.5 -81t-84.5 -54.5t-126 -20q-49 0 -86 12t-64.5 33t-46 50t-30.5 64v-509h-84zM451 1140
q-70 0 -113 -28.5t-66.5 -77.5t-32 -113t-9.5 -136v-398q2 -65 11 -123.5t32.5 -103.5t66 -71.5t111.5 -26.5q80 0 125 31t66.5 84.5t26 126.5t4.5 157v283q0 79 -3.5 150.5t-24 126t-65.5 87t-129 32.5z" />
    <glyph glyph-name="afii10074" unicode="&#x438;" horiz-adv-x="900" 
d="M295.982 0l366.978 1113h6.99902v-1113h83.9951l9.99902 1202h-152.99l-365.978 -1098h-14.999v1098h-83.9951v-1202h149.991z" />
    <glyph glyph-name="afii10098" unicode="&#x491;" horiz-adv-x="771" 
d="M235 1125v-1125h-82v1202h437v170h78v-247h-433z" />
    <glyph glyph-name="afii10051" unicode="&#x402;" horiz-adv-x="1068" 
d="M406 1440v-399q12 37 30.5 68t45.5 53.5t64.5 35t86.5 12.5h1q76 0 127.5 -21t85 -56t51 -82t25.5 -99.5t9 -107.5t1 -107v-278q0 -54 -1.5 -110.5t-9.5 -109t-26 -99t-51.5 -81t-84.5 -54.5t-126 -20h-1q-49 0 -86.5 12t-64.5 33.5t-45.5 51.5t-30.5 65v-147h-83v1440
h-289v78h660v-78h-288zM628 1133q-74 0 -117.5 -32t-66.5 -85.5t-30 -124t-8 -147.5v-246q0 -52 1 -105t7 -101.5t19.5 -90.5t38 -73t62.5 -48.5t94 -17.5q80 0 125 31t66.5 84.5t26 126.5t4.5 157v275q0 79 -3.5 151t-24 126.5t-65.5 87t-129 32.5z" />
    <glyph glyph-name="afii10050" unicode="&#x490;" horiz-adv-x="844" 
d="M236 1442v-1442h-83v1520h494v173h77v-251h-488z" />
    <glyph glyph-name="afii10042" unicode="&#x428;" horiz-adv-x="1135" 
d="M982 1518v-1518h-829v1518h84v-1440h300v1430h84v-1430h277v1440h84z" />
    <glyph glyph-name="afii10090" unicode="&#x448;" horiz-adv-x="1122" 
d="M975 1202v-1202h-830v1202h84v-1125h300v1115h84v-1115h278v1125h84z" />
    <glyph glyph-name="afii10091" unicode="&#x449;" horiz-adv-x="1143" 
d="M981 1202v-1125h84v-252h-83v175h-830v1202h84v-1125h300v1115h84v-1115h277v1125h84z" />
    <glyph glyph-name="afii10079" unicode="&#x43d;" horiz-adv-x="900" 
d="M145 0v1202h84v-574h442v574h83v-1202h-83v545h-442v-545h-84z" />
    <glyph glyph-name="afii10081" unicode="&#x43f;" horiz-adv-x="900" 
d="M145 0v1202h610v-1202h-83v1125h-443v-1125h-84z" />
    <glyph glyph-name="afii10088" unicode="&#x446;" horiz-adv-x="924" 
d="M237 1202v-1125h441v1125h84v-1125h120v-252h-84v175h-645v1202h84z" />
    <glyph glyph-name="afii10083" unicode="&#x441;" horiz-adv-x="793" 
d="M629 386h84v-9q0 -40 -1.5 -84.5t-10.5 -88t-27.5 -83.5t-52.5 -70t-86 -48t-127 -18q-77 0 -129.5 20.5t-86.5 55.5t-52 81.5t-26.5 99t-9.5 108t-1 107.5v388q2 71 14 138.5t44.5 119.5t91.5 83.5t155 31.5q77 0 129.5 -18.5t86.5 -49.5t52 -71t26.5 -83.5t9.5 -87
t1 -81.5v-11h-84v9q0 57 -3.5 113.5t-24 101.5t-65.5 72.5t-128 27.5q-80 0 -125 -30.5t-67 -84.5t-26.5 -126.5t-4.5 -156.5v-271q0 -55 1 -107t7 -99q6 -44 19 -81.5t38 -64.5t63 -42t95 -15q79 0 123.5 26t66 69.5t26.5 101t5 120.5v7z" />
    <glyph glyph-name="afii10087" unicode="&#x445;" horiz-adv-x="750" 
d="M631 0l-257 554l-253 -554h-87l292 625l-274 577h88l239 -510l237 510h84l-273 -577l292 -625h-88z" />
    <glyph glyph-name="afii10078" unicode="&#x43c;" horiz-adv-x="1090" 
d="M256 1106h-16l1 -1106h-84v1202h147l238 -843h22l246 843h147v-1202h-83l1 1106h-16l-242 -848h-127z" />
    <glyph glyph-name="afii10102" unicode="&#x455;" horiz-adv-x="842" 
d="M719 297q0 -70 -19 -127.5t-57 -98.5t-95 -63.5t-133 -22.5q-87 0 -144 28t-90 76.5t-46.5 114.5t-13.5 142h82q0 -50 9.5 -101t33.5 -91.5t65 -66t104 -25.5q109 0 164.5 59.5t55.5 172.5q0 60 -21.5 103.5t-57 77t-81 59.5t-92.5 51.5t-92.5 54t-81 66t-57 88
t-21.5 120.5q0 69 18 125.5t54.5 96t91 61t126.5 21.5q76 0 130.5 -22.5t89.5 -65.5t51 -106t16 -144h-82q0 60 -10.5 108t-34.5 81.5t-63.5 52t-96.5 18.5q-47 0 -85 -17t-65.5 -46.5t-42.5 -70t-15 -88.5q0 -58 21.5 -100.5t57.5 -75t81.5 -59t92.5 -53t92.5 -56t81.5 -68
t57.5 -89t21.5 -120.5z" />
    <glyph glyph-name="afii10100" unicode="&#x453;" horiz-adv-x="689" 
d="M116 0v1202h481v-83h-398v-1119h-83zM523 1569l-144 -238h-77l128 238h93z" />
    <glyph glyph-name="afii10089" unicode="&#x447;" horiz-adv-x="915" 
d="M235 1202v-379q0 -78 3.5 -149.5t24 -126t66 -87.5t129.5 -33q76 0 120.5 37.5t66.5 100t28 142t6 163.5v332h84v-1202h-84v517q-12 -36 -32 -66.5t-49 -53t-67.5 -35t-87.5 -12.5q-74 0 -124 20.5t-82.5 56t-49.5 82t-24.5 99t-8.5 107.5t-1 107v380h82z" />
    <glyph glyph-name="afii10103" unicode="&#x456;" horiz-adv-x="374" 
d="M134 1517q0 24 13 38.5t42 14.5q34 0 47 -14.5t13 -38.5q0 -23 -13 -36.5t-47 -13.5q-29 0 -42 13.5t-13 36.5zM147 0v1202h84v-1202h-84z" />
    <glyph glyph-name="afii10106" unicode="&#x459;" horiz-adv-x="914" 
d="M259 762h191q81 0 143 -15t103.5 -54.5t63 -107.5t21.5 -174v-64q0 -98 -22 -164.5t-62.5 -107t-98.5 -58t-131 -17.5h-291v1125h-143v77h226v-440zM697 411q0 77 -13.5 129.5t-43 85t-76 46.5t-113.5 14h-192v-606h210q63 0 106.5 17t70.5 51t39 84t12 115v64z" />
    <glyph glyph-name="afii10108" unicode="&#x45b;" horiz-adv-x="868" 
d="M189 959v-274q12 36 32 66.5t49.5 53t68 35t87.5 12.5q73 0 123.5 -20.5t82.5 -56t49 -82t25 -99t9 -107.5t1 -107v-380h-83v379q0 78 -3.5 149.5t-24 126t-65.5 87.5t-129 33q-77 0 -121 -37.5t-66.5 -100t-28.5 -142t-6 -163.5v-332h-83v959h-73v78h73v165h83v-165h81
v-78h-81z" />
    <glyph glyph-name="afii10045" unicode="&#x42b;" horiz-adv-x="1197" 
d="M758 347q0 -98 -22 -164.5t-62.5 -107t-98.5 -58t-131 -17.5h-291v1520h83v-624h191q81 0 143 -15t104 -54.5t63 -108t21 -174.5v-197zM674 544q0 77 -13.5 129.5t-43 85t-76 46.5t-113.5 14h-192v-739h210q63 0 106.5 17t70.5 51t39 84t12 115v197zM1059 0v1520h-84
v-1520h84z" />
    <glyph glyph-name="afii10092" unicode="&#x44a;" horiz-adv-x="913" 
d="M781 347q0 -98 -22 -164.5t-62.5 -107t-99 -58t-130.5 -17.5h-292v1121h-142v81h225v-440h191q81 0 143 -15t104 -54.5t63.5 -107.5t21.5 -174v-64zM696 411q0 77 -13.5 129.5t-42.5 85t-75.5 46.5t-113.5 14h-193v-606h211q63 0 106.5 17t70 51t38.5 84t12 115v64z" />
    <glyph glyph-name="afii10043" unicode="&#x429;" horiz-adv-x="1147" 
d="M983 1518v-1441h96v-252h-83v175h-842v1518h84v-1440h300v1430h84v-1430h277v1440h84z" />
    <glyph glyph-name="afii10099" unicode="&#x452;" horiz-adv-x="866" 
d="M189 1343v-290q12 36 32 66.5t49.5 53t68 35t87.5 12.5q73 0 123.5 -20.5t82.5 -56t49 -82t25 -99t9 -107.5t1 -107v-732q0 -83 -6 -155t-33.5 -125t-84.5 -83.5t-160 -30.5h-1q-62 0 -100 10t-71 36l35 67q14 -9 27.5 -16t29.5 -11.5t35 -6.5t45 -2h3q56 0 94 12.5
t60.5 46t32.5 93t11 155.5v741q0 78 -3.5 149.5t-24 126t-65.5 87.5t-129 33q-77 0 -121 -37.5t-66.5 -100t-28.5 -142t-6 -163.5v-700h-83v1343h-73v77h73v163h83v-163h81v-77h-81z" />
    <glyph glyph-name="afii10846" unicode="&#x4d9;" horiz-adv-x="893" 
d="M158.99 796.951v18.999q0 44.9971 1.5 91.9941t10.499 91.4951q9 44.4971 27.499 84.4941q18.498 39.998 52.4961 69.4961t85.9951 46.9971t126.992 17.499q76.9951 0 129.992 -20.499t86.4941 -55.9961q33.498 -35.498 51.4971 -81.9951t26.499 -98.9941
q8.49902 -52.4971 9.49902 -107.493q1 -54.9971 1 -106.994v-285.982q0 -53.9961 -1.5 -110.493q-1.5 -56.4961 -9.99902 -108.993q-8.5 -52.4971 -26.999 -98.9941q-18.498 -46.4971 -52.4961 -81.4951t-85.9951 -54.9961q-51.9971 -19.999 -127.992 -19.999
q-76.9951 0 -129.492 18.999t-86.4951 49.9971q-33.9971 30.998 -51.9961 72.4951q-17.999 41.498 -26.499 86.9951q-8.49902 45.4971 -9.49902 92.4941t-1 88.9941v166.99l527.968 82.9951v98.9941q0 78.9951 -3.5 150.99q-3.49902 71.9961 -23.998 126.492
q-20.499 54.4971 -65.9961 86.9951t-129.492 32.498q-79.9951 0 -124.492 -24.999q-44.4971 -24.998 -65.9961 -68.4951q-21.499 -43.498 -25.998 -103.494q-4.5 -59.9961 -4.5 -128.992v-17.999h-83.9951zM463.972 62.9961q80.9951 0 125.492 30.998t66.4961 84.4951
t26.498 125.992q4.5 72.4951 4.5 156.49v109.993l-443.973 -69.9951v-104.994q0 -63.9961 3.5 -123.992q3.49902 -59.9961 23.998 -106.493t65.4961 -74.4961q44.9971 -27.998 127.992 -27.998z" />
    <glyph glyph-name="iotadieresis" unicode="&#x3ca;" horiz-adv-x="374" 
d="M147 0v1202h84v-1202h-84zM46 1510q0 28 13.5 44.5t42.5 16.5q37 0 49 -16.5t12 -44.5q0 -26 -12 -42t-49 -16q-29 0 -42.5 16t-13.5 42zM217 1510q0 28 13.5 44.5t42.5 16.5q37 0 49 -16.5t12 -44.5q0 -26 -12 -42t-49 -16q-29 0 -42.5 16t-13.5 42z" />
    <glyph glyph-name="afii10104" unicode="&#x457;" horiz-adv-x="374" 
d="M147 0v1202h84v-1202h-84zM47 1510q0 28 13.5 44.5t42.5 16.5q37 0 49 -16.5t12 -44.5q0 -26 -12 -42t-49 -16q-29 0 -42.5 16t-13.5 42zM218 1510q0 28 13.5 44.5t42.5 16.5q37 0 49 -16.5t12 -44.5q0 -26 -12 -42t-49 -16q-29 0 -42.5 16t-13.5 42z" />
    <glyph glyph-name="afii10084" unicode="&#x442;" horiz-adv-x="581" 
d="M331 1125v-1124h-81v1124h-227v77h535v-77h-227z" />
    <glyph glyph-name="Nu" unicode="&#x39d;" horiz-adv-x="918" 
d="M148 0v1520h157l404 -1445h9l-2 1445h84l8 -1520h-158l-410 1445h-9l1 -1445h-84z" />
    <glyph glyph-name="afii10044" unicode="&#x42a;" horiz-adv-x="956" 
d="M33 1519h165v1h83v-624h191q81 0 143 -15t104 -54.5t63 -108t21 -174.5v-197q0 -98 -22 -164.5t-62.5 -107t-98.5 -58t-131 -17.5h-291v1442h-165v77zM719 544q0 77 -13.5 129.5t-42.5 85t-76 46.5t-114 14h-192v-739h210q63 0 106.5 17t70.5 51t39 84t12 115v197z" />
    <glyph glyph-name="afii10026" unicode="&#x418;" horiz-adv-x="918" 
d="M804.951 0v1520h-156.99l-403.976 -1445h-9l2 1445h-83.9951l-7.99902 -1520h157.99l409.975 1445h9l-1 -1445h83.9951z" />
    <glyph glyph-name="afii10037" unicode="&#x423;" horiz-adv-x="758" 
d="M414 550l-159 -550h-86l163 559l-300 959h89l255 -832l262 832h88z" />
    <glyph glyph-name="afii10105" unicode="&#x458;" horiz-adv-x="377" 
d="M130 1517q0 24 13 38.5t41 14.5q34 0 47.5 -14.5t13.5 -38.5q0 -23 -13.5 -36.5t-47.5 -13.5q-28 0 -41 13.5t-13 36.5zM230 1202v-1212q0 -97 -5.5 -171.5t-29.5 -125.5t-72 -77t-133 -26q-26 0 -49 4t-43 10t-35.5 13t-25.5 13l12 70q10 -5 25.5 -10.5t35 -10.5
t41 -8.5t42.5 -3.5q56 1 87 17t45.5 53.5t17.5 99t3 153.5v1212h84z" />
    <glyph glyph-name="afii10097" unicode="&#x44f;" horiz-adv-x="797" 
d="M593.964 0v1202h-274.983q-87.9941 0 -147.491 -21q-59.4961 -21 -95.9941 -61.5q-36.4971 -40.5 -51.9961 -98.5t-15.499 -133v-39q0 -111 50.9961 -193q50.9971 -82 147.991 -115q-36.998 -21 -64.9961 -44.5t-48.4971 -56.5t-33.498 -78t-21.998 -107l-12 -95
q-5.99902 -43 -17.499 -84q-11.499 -41 -27.498 -76h88.9951q13.999 35 22.998 73.5q9 38.5 14.999 84.5l12.999 94q10 74 32.998 122.5q22.999 48.5 53.4971 78.5t65.4961 45t69.9961 23h167.989v-521h82.9951zM90.9941 888q0 71 16.999 117t46.9971 72.5t71.4961 37
q41.4971 10.5 90.4941 10.5h193.988v-527h-189.988q-107.993 0 -167.99 64q-59.9961 64 -61.9961 187v39z" />
    <glyph glyph-name="Dsmall" unicode="&#xf764;" horiz-adv-x="867" 
d="M153 1202h263q73 0 125.5 -18t88 -50t57 -75.5t32.5 -94t14.5 -105.5t3.5 -111v-294q0 -56 -3.5 -111t-14.5 -105.5t-32.5 -94t-57 -75.5t-88 -50t-125.5 -18h-1h-262v1202zM416 1124h-180v-1047h192q61 2 104 23.5t70.5 66.5t40 116t12.5 172v292q0 103 -12.5 175
t-41 117t-74 65t-111.5 20z" />
    <glyph glyph-name="Esmall" unicode="&#xf765;" horiz-adv-x="705" 
d="M145 0v1202h504v-78h-421v-463h347v-78h-347v-505h421v-78h-504z" />
    <glyph glyph-name="Fsmall" unicode="&#xf766;" horiz-adv-x="672" 
d="M145 0v1202h505v-83h-422v-460h349v-82h-349v-577h-83z" />
    <glyph glyph-name="Gsmall" unicode="&#xf767;" horiz-adv-x="797" 
d="M399 598h309l-3 -10h4v-211q0 -40 -1.5 -84.5t-10 -88t-27 -83.5t-52.5 -70t-86 -48t-128 -18q-77 0 -129.5 20.5t-86.5 55.5t-52 81.5t-26.5 99t-9.5 108t-1 107.5v278v54.5t1 55.5q2 71 13.5 138.5t44 119.5t91.5 83.5t155 31.5q77 0 129.5 -18.5t86.5 -49.5t52 -71
t26.5 -83.5t9.5 -87t1 -81.5v-11h-83v9q0 57 -3.5 113.5t-24 101.5t-65.5 72.5t-129 27.5q-80 0 -125 -30.5t-66.5 -84.5t-26 -126.5t-4.5 -156.5v-271q0 -55 1 -107t6 -99q6 -44 19 -81.5t38 -64.5t63.5 -42t94.5 -15q79 0 123.5 26t66.5 69.5t27 101t5 120.5v147h-227v72z
" />
    <glyph glyph-name="Hsmall" unicode="&#xf768;" horiz-adv-x="900" 
d="M145 0v1202h84v-574h442v574h83v-1202h-83v545h-442v-545h-84z" />
    <glyph glyph-name="Jsmall" unicode="&#xf76a;" horiz-adv-x="561" 
d="M15 98q15 -9 29 -16t30 -11.5t35 -6.5t44 -2q58 0 97 12.5t61.5 48.5t32 100t9.5 167v812h83v-822q0 -84 -6 -156t-33.5 -125t-84.5 -83.5t-160 -30.5q-63 0 -101 10t-71 37z" />
    <glyph glyph-name="Lsmall" unicode="&#xf76c;" horiz-adv-x="663" 
d="M228 1202v-1119h422v-83h-505v1202h83z" />
    <glyph glyph-name="Msmall" unicode="&#xf76d;" horiz-adv-x="1078" 
d="M244 1106h-16l1 -1106h-84v1202h147l238 -843h22l246 843h147v-1202h-83l1 1106h-16l-242 -848h-127z" />
    <glyph glyph-name="Nsmall" unicode="&#xf76e;" horiz-adv-x="907" 
d="M604 0l-367 1113h-7v-1113h-84l-10 1202h153l366 -1098h15v1098h84v-1202h-150z" />
    <glyph glyph-name="Qsmall" unicode="&#xf771;" horiz-adv-x="810" 
d="M364 -13q-67 6 -113 29t-75.5 58.5t-45 81.5t-22.5 96t-8 102.5t-1 102.5v286q0 54 1.5 110.5t10 109t27 99t52.5 81.5t86 55t128 20q77 0 129.5 -21t86.5 -56t52 -82t26.5 -99.5t9.5 -107.5t1 -107v-286q0 -52 -1.5 -105.5t-9 -104t-23.5 -96t-45.5 -80.5t-74.5 -58
t-111 -28v-122h-80v122zM404 1140q-80 0 -125 -30.5t-66.5 -84.5t-26 -126.5t-4.5 -156.5v-283q0 -52 1 -102t7 -94t19 -81t38 -63.5t63 -41.5t94 -15q80 0 124.5 31t66 84.5t26 126.5t4.5 157v283q0 79 -3 150.5t-23.5 126t-65.5 87t-129 32.5z" />
    <glyph glyph-name="Usmall" unicode="&#xf775;" horiz-adv-x="877" 
d="M746 1202v-822q0 -81 -8 -151t-37.5 -122.5t-87.5 -84.5t-157 -36q0 -1 -1 -1q-4 0 -7.5 0.5t-7.5 0.5t-7 -0.5t-7 -0.5q-1 0 -2 1q-99 4 -157 36t-87.5 84.5t-37.5 122.5t-8 151v822h83v-813q0 -73 4.5 -132.5t26.5 -102t66 -66.5t124 -26q81 1 126 25t67 66.5t27 102
t5 133.5v813h83z" />
    <glyph glyph-name="Wsmall" unicode="&#xf777;" horiz-adv-x="1087" 
d="M28 1202h86l176 -1126h14l175 1126h144l175 -1126h14l175 1126h86l-193 -1202h-150l-177 1126h-5l-177 -1126h-150z" />
    <glyph glyph-name="Ysmall" unicode="&#xf779;" horiz-adv-x="646" 
d="M642 1202l-277 -723v-479h-83v479l-280 723h88l234 -613l231 613h87z" />
    <glyph glyph-name="epsilon" unicode="&#x3b5;" horiz-adv-x="877" 
d="M660 386h83v-9q0 -40 -1.5 -84.5t-10 -88t-27 -83.5t-52.5 -70t-86 -48t-127 -18q-77 0 -129.5 20.5t-86.5 55.5t-52.5 81.5t-26.5 99t-9.5 108t-1.5 107.5v278v54.5t1 55.5q2 71 14 138.5t44.5 119.5t91 83.5t154.5 31.5q77 0 129.5 -18.5t86.5 -49.5t52 -71t26.5 -83.5
t9.5 -87t1 -81.5v-11h-83v9q0 57 -3.5 113.5t-24 101.5t-65.5 72.5t-129 27.5q-80 0 -124.5 -30.5t-66.5 -84.5t-26.5 -126.5t-4.5 -156.5v-96l395 2v-78l-395 -1v-98q0 -55 1 -107t6 -99q6 -44 19 -81.5t38 -64.5t63.5 -42t94.5 -15q79 0 124 26t66.5 69.5t26.5 101
t5 120.5v7z" />
    <glyph glyph-name="afii10095" unicode="&#x44d;" horiz-adv-x="868" 
d="M148.991 386h-82.9951v-9q0 -40 1.5 -84.5t9.99902 -88q8.5 -43.5 26.998 -83.5q18.499 -40 52.4971 -70t85.9951 -48t126.992 -18q76.9951 0 129.492 20.5t86.4941 55.5q33.998 35 52.4971 81.5t26.498 99q8 52.5 9.5 108t1.5 107.5v278v54.5t-1 55.5
q-2 71 -13.999 138.5q-12 67.5 -44.498 119.5q-32.4971 52 -90.9941 83.5q-58.4961 31.5 -154.49 31.5q-76.9951 0 -129.492 -18.5t-86.4951 -49.5t-51.9961 -71q-17.999 -40 -26.499 -83.5q-8.49902 -43.5 -9.49902 -87t-1 -81.5v-11h82.9951v9q0 57 3.49902 113.5
q3.5 56.5 23.999 101.5t65.4961 72.5t128.992 27.5q79.9951 0 124.492 -30.5t66.4961 -84.5t26.498 -126.5q4.5 -72.5 4.5 -156.5v-96l-394.976 2v-78l394.976 -1v-98q0 -55 -1 -107t-6 -99q-5.99902 -44 -18.998 -81.5q-13 -37.5 -37.998 -64.5q-24.999 -27 -63.4961 -42
q-38.498 -15 -94.4941 -15q-78.9951 0 -123.992 26q-44.998 26 -66.4961 69.5q-21.499 43.5 -26.499 101q-4.99902 57.5 -4.99902 120.5v7z" />
    <glyph glyph-name="afii10101" unicode="&#x454;" horiz-adv-x="876" 
d="M660 386h83v-9q0 -40 -1.5 -84.5t-10 -88t-27 -83.5t-52.5 -70t-86 -48t-127 -18q-77 0 -129.5 20.5t-86.5 55.5t-52.5 81.5t-26.5 99t-9.5 108t-1.5 107.5v278v54.5t1 55.5q2 71 14 138.5t44.5 119.5t91 83.5t154.5 31.5q77 0 129.5 -18.5t86.5 -49.5t52 -71t26.5 -83.5
t9.5 -87t1 -81.5v-11h-83v9q0 57 -3.5 113.5t-24 101.5t-65.5 72.5t-129 27.5q-80 0 -124.5 -30.5t-66.5 -84.5t-26.5 -126.5t-4.5 -156.5v-96l395 2v-78l-395 -1v-98q0 -55 1 -107t6 -99q6 -44 19 -81.5t38 -64.5t63.5 -42t94.5 -15q79 0 124 26t66.5 69.5t26.5 101
t5 120.5v7z" />
    <glyph glyph-name="afii10061" unicode="&#x40c;" horiz-adv-x="836" 
d="M147 0v1520h84v-716h154l324 714h93l-340 -750l373 -768h-93l-355 726h-156v-726h-84zM621 1843l-144 -238h-77l128 238h93z" />
    <glyph glyph-name="tau" unicode="&#x3c4;" horiz-adv-x="573" 
d="M328 1125v-1125h-82v1125h-245v77h572v-77h-245z" />
    <glyph glyph-name="spessoresmall" horiz-adv-x="745" 
d="M384 631h171v-65h-171v65zM432 850l12 159l60 -5l-12 -159z" />
    <glyph glyph-name="afii10041" unicode="&#x427;" horiz-adv-x="928" 
d="M237 1519v-476q0 -78 5 -150t27.5 -126.5t69 -87.5t130.5 -33q77 0 121.5 37.5t67 100t28.5 142t6 163.5v430h84v-1519h-84v736q-23 -72 -81 -119t-155 -47q-74 0 -125 20.5t-84.5 55.5t-52 82t-27.5 99.5t-11 107.5t-2 107v477h83z" />
    <glyph glyph-name="afii10052" unicode="&#x403;" horiz-adv-x="723" 
d="M154 1519.91v-1519.91h84v1441.91h449v77.9951h-533zM628 1839l-144 -238h-77l128 238h93z" />
    <glyph glyph-name="afii10093" unicode="&#x44b;" horiz-adv-x="1219" 
d="M983 0v1202h84v-1202h-84zM758 347q0 -98 -22 -164.5t-62.5 -107t-98.5 -58t-131 -17.5h-291v1202h83v-440h191q81 0 143 -15t104 -54.5t63 -107.5t21 -174v-64zM674 411q0 77 -13.5 129.5t-43 85t-76 46.5t-113.5 14h-192v-606h210q63 0 106.5 17t70.5 51t39 84t12 115
v64z" />
    <glyph glyph-name="afii10094" unicode="&#x44c;" horiz-adv-x="889" 
d="M758 347q0 -98 -22 -164.5t-62.5 -107t-98.5 -58t-130 -17.5h-292v1202h83v-440h191q81 0 143 -15t104 -54.5t63 -107.5t21 -174v-64zM674 411q0 77 -13.5 129.5t-42.5 85t-75.5 46.5t-113.5 14h-193v-606h210q63 0 106.5 17t70.5 51t39 84t12 115v64z" />
    <glyph glyph-name="afii10069" unicode="&#x434;" horiz-adv-x="890" 
d="M740 1202v-1125h117v-252h-83v175h-656v-175h-84v252h2q48 0 86 65t65 182t41 279t14 356v243h498zM325 935q0 -134 -7.5 -265t-25.5 -245t-48.5 -204.5t-76.5 -143.5h490v1048h-332v-190z" />
    <glyph glyph-name="afii10021" unicode="&#x414;" horiz-adv-x="975" 
d="M826 79h116v-254h-85v176h-741v-176h-84v254h3q43 0 75 43.5t54.5 114.5t37.5 162t23.5 187t11.5 189t3 167v577h586v-1440zM324 940q0 -137 -8 -269.5t-26 -246.5t-46.5 -203.5t-69.5 -141.5h568v1362h-418v-501z" />
    <glyph glyph-name="afii10058" unicode="&#x409;" horiz-adv-x="1496" 
d="M1362 347q0 -98 -22 -164.5t-62.5 -107t-98.5 -58t-131 -17.5h-291v1442h-457v-1002q0 -129 -10 -216.5t-38.5 -141t-81 -76t-137.5 -22.5v78q63 0 99.5 19.5t55 64t23.5 117t5 179.5v1078h625v-624h190q81 0 143 -15t103.5 -54.5t63 -108t21.5 -174.5v-197zM1278 544
q0 77 -13.5 129.5t-43 85t-76 46.5t-113.5 14h-191v-739h209q63 0 106.5 17t70.5 51t39 84t12 115v197z" />
    <glyph glyph-name="afii10059" unicode="&#x40a;" horiz-adv-x="1432" 
d="M153 0v1520h84v-670h455v670h84v-670h191q81 0 143 -15.5t104 -55t63 -107.5t21 -174v-151q0 -98 -22 -164.5t-62.5 -107t-98.5 -58t-130 -17.5h-293v773h-455v-773h-84zM1214 498q0 77 -13.5 129.5t-42.5 85t-75.5 46.5t-113.5 14h-193v-692h210q63 0 106.5 17
t70.5 50.5t39 83.5t12 115v151z" />
    <glyph glyph-name="afii10060" unicode="&#x40b;" horiz-adv-x="1063" 
d="M847 0v565q0 78 -3.5 150t-24 126.5t-65.5 87.5t-129 33q-77 0 -121 -37.5t-66.5 -100t-28.5 -142t-6 -163.5v-519h-82v1388h82v-517q12 36 32 67t49.5 53t68 34.5t87.5 12.5q74 0 124 -20.5t82.5 -55.5t49.5 -82t24.5 -99.5t8.5 -107.5t1 -107v-566h-83zM404 1440v-1440
h-84v1440h-288v78h660v-78h-288z" />
    <glyph glyph-name="afii10072" unicode="&#x436;" horiz-adv-x="1112" 
d="M597 1201v-562h42l307 563h90l-330 -600l373 -602h-93l-351 561h-38v-561h-84v561h-36l-350 -561h-93l373 602l-330 600h89l307 -563h40v562h84z" />
    <glyph glyph-name="afii10077" unicode="&#x43b;" horiz-adv-x="973" 
d="M754 0v1125h-456v-685q0 -129 -10 -216.5t-38.5 -141t-80.5 -76t-136 -22.5v78q63 0 99.5 19.5t54.5 63.5t23 116.5t5 179.5v761h623v-1202h-84z" />
    <glyph glyph-name="afii10107" unicode="&#x45a;" horiz-adv-x="1412" 
d="M1279 347q0 -98 -22 -164.5t-62.5 -107t-98.5 -58t-130 -17.5h-292v663h-441v-663h-83v1202h83v-462h441v462h84v-462h190q81 0 143 -15t104 -54.5t63 -108t21 -174.5v-41zM1195 388q0 77 -13.5 129.5t-42.5 85t-75.5 46.5t-113.5 14h-192v-583h209q63 0 106.5 17
t70.5 51t39 84t12 115v41z" />
    <glyph glyph-name="i.trk" horiz-adv-x="409" 
d="M145 1517q0 24 13 38.5t42 14.5q34 0 47 -14.5t13 -38.5q0 -23 -13 -36.5t-47 -13.5q-29 0 -42 13.5t-13 36.5zM158 0v1202h84v-1202h-84z" />
    <glyph glyph-name="zero.slash" horiz-adv-x="871" 
d="M134 438v641q0 54 1.5 109t9.5 105.5t26 94.5t51.5 77t85.5 51.5t127 18.5q73 0 124 -17.5t84.5 -48t52 -71t27.5 -87.5t11 -98t2 -101v-31v-641q0 -54 -1.5 -109t-9.5 -105.5t-26 -94.5t-51.5 -76.5t-85 -51t-127.5 -18.5q-77 0 -129 19t-85.5 52.5t-51.5 77.5
t-25.5 94.5t-8.5 104t-1 105.5zM435 1458q-80 0 -124 -28t-64.5 -78.5t-24.5 -120t-4 -153.5v-580l435 659q-1 64 -7.5 119.5t-29 95.5t-65.5 63t-116 23zM435 62q80 0 124 28t65 78.5t25 120t4 153.5v582l-435 -666q1 -64 7.5 -118t29 -93.5t65.5 -62t115 -22.5z" />
    <glyph glyph-name="afii10066" unicode="&#x431;" horiz-adv-x="878" 
d="M685 1567q-19 -37 -42.5 -65.5t-56.5 -48t-78 -29.5t-107 -10q-75 0 -122 -27.5t-74 -77.5t-38 -119.5t-14 -152.5q12 39 32 72t48.5 57.5t67 38t89.5 13.5q76 0 127.5 -21t84.5 -56t51 -82t25.5 -99.5t8.5 -107.5t1 -107v-286q0 -55 -1.5 -111.5t-10 -109t-27 -98.5
t-52.5 -80.5t-86 -54.5t-128 -20h-1h-1q-77 0 -129 21t-86 56t-52 81.5t-26.5 99t-9.5 107.5t-1 107v389q0 86 2.5 166.5t12.5 151t29 129.5t52 101.5t82.5 66.5t119.5 24q76 0 120.5 12.5t68 28t30 28.5t7.5 13h84zM383 62q80 0 124.5 31t66 84.5t26 126.5t4.5 157v283
q0 79 -3.5 150.5t-24 126t-65.5 87t-128 32.5h-3q-47 0 -81 -13.5t-58 -37.5t-39 -57t-24 -73q-10 -45 -13.5 -97t-4.5 -107v-296q0 -79 3.5 -151t24 -126.5t66 -87t129.5 -32.5z" />
    <glyph glyph-name="afii10073" unicode="&#x437;" horiz-adv-x="863" 
d="M436 639q46 0 87 11.5t71.5 36t48 64t17.5 95.5v37q0 136 -60 198t-171 62q-51 0 -91 -18t-68 -51.5t-42.5 -80t-14.5 -103.5v-93h-81v51q0 87 16.5 156t52.5 117t92.5 73.5t135.5 25.5q91 0 151.5 -26.5t96.5 -72t51 -107t15 -130.5q0 -62 -12 -112.5t-35 -87.5t-56 -58
t-74 -24q44 -3 77.5 -25t55.5 -59.5t33 -88t11 -110.5q0 -72 -15 -133t-51 -106t-96.5 -70.5t-151.5 -25.5q-79 0 -135.5 25.5t-92.5 73.5t-52.5 117t-16.5 156v50h81v-91q0 -57 14.5 -104t42.5 -80t68 -51.5t91 -18.5q55 0 98.5 16t72.5 51t44.5 90.5t15.5 133.5
q0 36 -12.5 74t-39.5 69.5t-69.5 51.5t-102.5 20h-90v71z" />
    <glyph glyph-name="afii10086" unicode="&#x444;" horiz-adv-x="1336" 
d="M626 -370v446q-29 -42 -75.5 -66.5t-118.5 -24.5q-74 0 -125.5 20t-84.5 54.5t-51 81t-26.5 99t-10 109t-1.5 110.5v286q0 52 1 107t9 107.5t26 99.5t51 82.5t85 56t128 20.5q72 0 118 -25.5t75 -68.5v396h83v-397q29 43 75 69t118 26h1q76 0 128 -20.5t85 -56t51 -82.5
t26 -99.5t9 -107.5t1 -107v-286q0 -54 -1.5 -110.5t-10 -109t-26.5 -98.5t-51 -80.5t-84.5 -55t-125.5 -20.5q-72 0 -119 25t-76 67v-447h-83zM898 1140q-78 0 -122.5 -35t-66.5 -94v-829q22 -54 66.5 -87t122.5 -33q80 0 124.5 31t66 84.5t26 126.5t4.5 157v283
q0 79 -3.5 150.5t-24 126t-65.5 87t-128 32.5zM438 62q77 0 121 32t67 86v834q-23 57 -66.5 91.5t-121.5 34.5q-83 0 -128 -32.5t-65.5 -87t-24 -126t-3.5 -150.5v-283q0 -84 4.5 -157t26 -126.5t66 -84.5t124.5 -31z" />
    <glyph glyph-name="gamma" unicode="&#x3b3;" horiz-adv-x="717" 
d="M319 -366v392h83v-392h-83zM685 1202l-253 -1202h-145l-253 1202h86l230 -1126h18l231 1126h86z" />
    <glyph glyph-name="pi" unicode="&#x3c0;" horiz-adv-x="1059" 
d="M835 1125v-1125h-81v1125h-453v-1125h-82v1125h-185v77h986v-77h-185z" />
    <glyph glyph-name="uni03BC" unicode="&#x3bc;" horiz-adv-x="915" 
d="M773 1202v-745q0 -52 -1 -107t-9 -107.5t-25 -99t-49 -82t-82.5 -56t-123.5 -20.5q-49 0 -87.5 12.5t-68 35t-49.5 53t-32 66.5v-517h-83v1567h83v-702q0 -84 6 -163t28.5 -140t66.5 -98t121 -37q84 0 129 33t65.5 87.5t24 126t3.5 149.5v744h83z" />
    <glyph glyph-name="phi" unicode="&#x3c6;" horiz-adv-x="898" 
d="M406 -365v351q-69 5 -116 27.5t-77.5 58t-46.5 81.5t-23.5 97t-8.5 104t-1 103v286q0 52 1.5 106.5t9.5 105.5t24.5 96.5t47 81t76.5 57.5t114 27v350h84v-350q69 -4 116 -27t77.5 -59t47 -82t24 -97t8.5 -104t1 -103v-286q0 -52 -1.5 -106.5t-9 -105.5t-24.5 -96.5
t-47.5 -81t-77 -57.5t-114.5 -26v-351h-84zM681 744q0 75 -3 143.5t-20.5 122t-56.5 88t-111 40.5v-1075q69 6 107 39t57 86.5t23 123t4 149.5v283zM216 459q0 -75 3 -143.5t20.5 -122.5t56 -88.5t110.5 -41.5v1075q-69 -6 -107 -39t-56.5 -86t-22.5 -122.5t-4 -148.5v-283z
" />
    <glyph glyph-name="sigma" unicode="&#x3c3;" horiz-adv-x="810" 
d="M758 1140l-150 4q38 -34 58.5 -81t30 -100.5t11 -110.5t1.5 -111v-282q0 -54 -1.5 -110.5t-10 -109t-27 -99t-52.5 -81t-86 -54.5t-128 -20q-77 0 -130 20.5t-86.5 56t-51.5 82t-26.5 99t-9.5 107.5t-1 107v286q0 54 1.5 110.5t10 109t27 99t52.5 81.5t86 55t128 20l2 -2
v2h352v-78zM404 1140q-80 0 -125 -30.5t-66.5 -84.5t-26 -126.5t-4.5 -156.5v-283q0 -52 1 -102t7 -94t19 -81t38 -63.5t63 -41.5t94 -15q80 0 124.5 31t66 84.5t26 126.5t4.5 157v283q0 79 -3 150.5t-23.5 126t-65.5 87t-129 32.5z" />
    <glyph glyph-name="upsilon" unicode="&#x3c5;" horiz-adv-x="877" 
d="M746 1202v-822q0 -81 -8 -151t-37.5 -122.5t-87.5 -84.5t-157 -36q0 -1 -1 -1q-4 0 -7.5 0.5t-7.5 0.5t-7 -0.5t-7 -0.5q-1 0 -2 1q-99 4 -157 36t-87.5 84.5t-37.5 122.5t-8 151v822h83v-813q0 -73 4.5 -132.5t26.5 -102t66 -66.5t124 -26q81 1 126 25t67 66.5t27 102
t5 133.5v813h83z" />
    <glyph glyph-name="psi" unicode="&#x3c8;" horiz-adv-x="898" 
d="M217 1202v-813q0 -69 4 -125.5t22 -98.5t55.5 -68t104.5 -33v1503h84v-1504q69 6 108 31.5t58 67.5t23.5 99.5t4.5 127.5v813h83v-822q0 -80 -8 -149t-36 -121t-83.5 -84.5t-149.5 -38.5v-352h-84v353q-92 7 -145.5 40t-81 85t-35 120.5t-7.5 146.5v822h83z" />
    <glyph glyph-name="lambda" unicode="&#x3bb;" horiz-adv-x="715" 
d="M33 0l249 1202h70l-18 90q-16 77 -51.5 136t-82.5 89l42 50q64 -35 107.5 -100t63.5 -163l20 -102h1l248 -1202h-86l-216 1066h-1l-12 60h-19l-229 -1126h-86z" />
    <glyph glyph-name="omicrontonos" unicode="&#x3cc;" horiz-adv-x="810" 
d="M444 1525l-10 -238h-77l-6 238h93zM404 1218q77 0 129.5 -21t86.5 -56t52 -82t26.5 -99.5t9.5 -107.5t1 -107v-286q0 -54 -1.5 -110.5t-10 -109t-27 -98.5t-52.5 -80.5t-86 -55t-128 -20.5q-77 0 -130 20.5t-86.5 56t-51.5 82t-26.5 99t-9.5 107.5t-1 107v286
q0 54 1.5 110.5t10 109t27 99t52.5 81t85.5 55t127.5 20.5h1zM404 1140q-80 0 -125 -30.5t-66.5 -84.5t-26 -126.5t-4.5 -156.5v-283q0 -52 1 -102t7 -94t19 -81t38 -63.5t63 -41.5t94 -15q80 0 124.5 31t66 84.5t26 126.5t4.5 157v283q0 79 -3 150.5t-23.5 126t-65.5 87
t-129 32.5z" />
    <glyph glyph-name="etatonos" unicode="&#x3ae;" horiz-adv-x="883" 
d="M512 1525l-11 -238h-75l-5 238h91zM675 -365v1109v50q0 70 -4.5 132.5t-25.5 110t-64 75.5t-120 28q-51 0 -88 -17.5t-62.5 -48t-41 -72t-24 -91t-11.5 -104t-3 -110.5v-697h-84v1202h84v-161q12 36 34 68t53 56t71.5 38t89.5 14q66 0 112.5 -17t77.5 -46.5t48.5 -69
t26.5 -85t11 -95t2 -97.5v-62v-1110h-82z" />
    <glyph glyph-name="chi" unicode="&#x3c7;" horiz-adv-x="749" 
d="M629 0l-257 554l-253 -554h-87l292 625l-274 577h88l239 -510l237 510h84l-273 -577l292 -625h-88z" />
    <glyph glyph-name="omega" unicode="&#x3c9;" horiz-adv-x="1268" 
d="M676 779v-297v-19q1 -90 10.5 -163.5t33 -125t63 -80t99.5 -28.5q55 0 88.5 24t52 72t24.5 119t6 164v285q0 85 -5.5 158.5t-27.5 127.5t-66 86t-121 34l2 77q73 -2 123.5 -22.5t83.5 -55.5t52 -81.5t28 -99.5t11 -109.5t2 -112.5v-274q0 -49 -1 -103.5t-8 -107
t-22.5 -100.5t-43.5 -84t-71 -57.5t-106 -21.5q-52 0 -92 14.5t-70 40t-51.5 60t-35.5 74.5q-15 -40 -36.5 -74.5t-51.5 -60t-69.5 -40t-90.5 -14.5q-63 0 -106 21.5t-71 57.5t-43 84t-22.5 100.5t-8.5 107t-1 103.5v274q0 56 2 112.5t11 109.5t28 99.5t52 81.5t83.5 55.5
t123.5 22.5l2 -77q-77 -2 -120.5 -34t-65.5 -86t-27.5 -127.5t-5.5 -158.5v-285q0 -93 6 -164t24 -119t51.5 -72t89.5 -24q60 0 99 28.5t62.5 80t33 125t10.5 163.5v19v297h83z" />
    <glyph glyph-name="omegatonos" unicode="&#x3ce;" horiz-adv-x="1374" 
d="M645 1525l-8 -238h-77l-8 238h93zM642 779v-297v-19q1 -90 10.5 -163.5t33 -125t63 -80t99.5 -28.5q55 0 88.5 24t52 72t24.5 119t6 164v285q0 85 -5.5 158.5t-27.5 127.5t-66 86t-121 34l2 77q73 -2 123.5 -22.5t83.5 -55.5t52 -81.5t28 -99.5t11 -109.5t2 -112.5v-274
q0 -49 -1 -103.5t-8 -107t-22.5 -100.5t-43.5 -84t-71 -57.5t-106 -21.5q-52 0 -92 14.5t-70 40t-51.5 60t-35.5 74.5q-15 -40 -36.5 -74.5t-51.5 -60t-69.5 -40t-90.5 -14.5q-63 0 -106 21.5t-71 57.5t-43 84t-22.5 100.5t-8.5 107t-1 103.5v274q0 56 2 112.5t11 109.5
t28 99.5t52 81.5t83.5 55.5t123.5 22.5l2 -77q-77 -2 -120.5 -34t-65.5 -86t-27.5 -127.5t-5.5 -158.5v-285q0 -93 6 -164t24 -119t51.5 -72t89.5 -24q60 0 99 28.5t62.5 80t33 125t10.5 163.5v19v297h83z" />
    <glyph glyph-name="epsilontonos" unicode="&#x3ad;" horiz-adv-x="877" 
d="M660 386h83v-9q0 -40 -1.5 -84.5t-10 -88t-27 -83.5t-52.5 -70t-86 -48t-127 -18q-77 0 -129.5 20.5t-86.5 55.5t-52.5 81.5t-26.5 99t-9.5 108t-1.5 107.5v278v54.5t1 55.5q2 71 14 138.5t44.5 119.5t91 83.5t154.5 31.5q77 0 129.5 -18.5t86.5 -49.5t52 -71t26.5 -83.5
t9.5 -87t1 -81.5v-11h-83v9q0 57 -3.5 113.5t-24 101.5t-65.5 72.5t-129 27.5q-80 0 -124.5 -30.5t-66.5 -84.5t-26.5 -126.5t-4.5 -156.5v-96l395 2v-78l-395 -1v-98q0 -55 1 -107t6 -99q6 -44 19 -81.5t38 -64.5t63.5 -42t94.5 -15q79 0 124 26t66.5 69.5t26.5 101
t5 120.5v7zM479 1525l-11 -238h-75l-5 238h91z" />
    <glyph glyph-name="xi" unicode="&#x3be;" horiz-adv-x="950" 
d="M241 1061q0 -68 17 -114t46.5 -73.5t68 -39t81.5 -11.5h193v-77h-193q-44 0 -86 -7t-74.5 -32t-52.5 -73.5t-20 -132.5v-109q0 -100 14.5 -164t43.5 -100.5t71 -50.5t98 -14l29 -4l83 -74h-113q-90 0 -150 24.5t-95 79.5t-49.5 143.5t-14.5 215.5q0 89 12.5 151t36.5 102
t59 59.5t80 23.5q-37 9 -68 30.5t-53.5 56.5t-35 82.5t-12.5 109.5v8q0 54 2.5 109.5t13 107t31 96.5t56 78.5t88 53t128.5 19.5h1q77 0 130.5 -20t89 -53.5t55.5 -77.5t30 -91.5t12.5 -96t2.5 -91.5v-10h-84v10q0 72 -7 136t-31.5 112.5t-71.5 76.5t-126 28
q-80 0 -127 -29.5t-71 -82t-31 -123.5t-7 -155v-7zM635 -365l2 19q8 52 13 94.5t5 77.5q0 41 -9.5 71t-32.5 49.5t-62.5 29t-99.5 9.5q-11 0 -15.5 6t-4.5 15t3 19t6.5 18.5t7 14t4.5 5.5q84 0 139 -17t87 -48.5t45 -76.5t13 -101q0 -38 -4 -79.5t-12 -86.5l-4 -19h-81z" />
    <glyph glyph-name="upsilondieresis" unicode="&#x3cb;" horiz-adv-x="877" 
d="M746 1202v-822q0 -81 -8 -151t-37.5 -122.5t-87.5 -84.5t-157 -36q0 -1 -1 -1q-4 0 -7.5 0.5t-7.5 0.5t-7 -0.5t-7 -0.5q-1 0 -2 1q-99 4 -157 36t-87.5 84.5t-37.5 122.5t-8 151v822h83v-813q0 -73 4.5 -132.5t26.5 -102t66 -66.5t124 -26q81 1 126 25t67 66.5t27 102
t5 133.5v813h83zM299 1438q0 28 13.5 44.5t42.5 16.5q37 0 49 -16.5t12 -44.5q0 -26 -12 -42t-49 -16q-29 0 -42.5 16t-13.5 42zM470 1438q0 28 13.5 44.5t42.5 16.5q37 0 49 -16.5t12 -44.5q0 -26 -12 -42t-49 -16q-29 0 -42.5 16t-13.5 42z" />
    <glyph glyph-name="upsilontonos" unicode="&#x3cd;" horiz-adv-x="877" 
d="M488 1525l-8 -238h-78l-7 238h93zM746 1202v-822q0 -81 -8 -151t-37.5 -122.5t-87.5 -84.5t-157 -36q0 -1 -1 -1q-4 0 -7.5 0.5t-7.5 0.5t-7 -0.5t-7 -0.5q-1 0 -2 1q-99 4 -157 36t-87.5 84.5t-37.5 122.5t-8 151v822h83v-813q0 -73 4.5 -132.5t26.5 -102t66 -66.5
t124 -26q81 1 126 25t67 66.5t27 102t5 133.5v813h83z" />
    <glyph glyph-name="uni03C2" unicode="&#x3c2;" horiz-adv-x="877" 
d="M439 -15q-77 0 -129.5 20.5t-86.5 55.5t-52.5 81.5t-26.5 99t-9.5 108t-1.5 107.5v278v54.5t1 55.5q2 71 14 138.5t44.5 119.5t91 83.5t154.5 31.5q77 0 129.5 -18.5t86.5 -49.5t52 -71t26.5 -83.5t9.5 -87t1 -81.5v-11h-83v9q0 57 -3.5 113.5t-24 101.5t-65.5 72.5
t-129 27.5q-80 0 -124.5 -30.5t-66.5 -84.5t-26.5 -126.5t-4.5 -156.5v-271q0 -55 1 -107t6 -99q6 -44 19 -81t37.5 -64t63 -42t96.5 -15v-78zM622 -365l2 19q8 52 13 94.5t5 77.5q0 41 -9.5 71t-32.5 49.5t-62.5 29t-99.5 9.5q-11 0 -15.5 6t-4.5 15t3 19t6.5 18.5t7 14
t4.5 5.5q84 0 139 -17t87 -48.5t45 -76.5t13 -101q0 -38 -4 -79.5t-12 -86.5l-4 -19h-81z" />
    <glyph glyph-name="zeta" unicode="&#x3b6;" horiz-adv-x="666" 
d="M32 1202h472v-84l-282 -638q-39 -89 -39 -169q0 -51 16 -95.5t47.5 -77.5t78 -53t107.5 -23h15h7q4 0 5 -1q70 -5 116.5 -23t73.5 -48.5t38 -72t11 -92.5q0 -38 -4.5 -80.5t-12.5 -90.5l-4 -19h-81l2 19q8 51 13 93t5 77q0 42 -9.5 72t-33 50t-63 30t-99.5 10
q-81 1 -141.5 27t-101 68.5t-60.5 98t-20 117.5q0 87 38 175l282 646h-376v84z" />
    <glyph glyph-name="delta" unicode="&#x3b4;" horiz-adv-x="810" 
d="M193 1567h514v-79h-402q-1 -1 12.5 -16t35.5 -39.5t50.5 -55.5t58.5 -64q70 -77 160 -173h-1q33 -36 51 -82.5t26.5 -99t9.5 -107.5t1 -106v-286q0 -54 -1.5 -110.5t-10 -109t-27 -99t-52.5 -81t-86 -54.5t-128 -20h-1q-77 0 -129.5 21t-86 56t-52 81.5t-26.5 99
t-9 107.5t-1 107v286q0 54 1.5 110.5t10 109t27 99t52.5 81.5t86 55t128 20q11 0 20.5 -0.5t18.5 -1.5l-250 272v79zM404 1140q-80 0 -125 -30.5t-66.5 -84.5t-26 -126.5t-4.5 -156.5v-283q0 -52 1 -102t7 -94t19 -81t38 -63.5t63 -41.5t94 -15q80 0 124.5 31t66 84.5
t26 126.5t4.5 157v283q0 79 -3 150.5t-23.5 126t-65.5 87t-129 32.5z" />
    <glyph glyph-name="_480" horiz-adv-x="893" 
d="M631 -365l2 19q8 52 13 94.5t5 77.5q0 41 -9.5 71t-32.5 49.5t-62.5 29t-99.5 9.5q-11 0 -15.5 6t-4.5 15t3 19t6.5 18.5t7 14t4.5 5.5q84 0 139 -17t87 -48.5t45 -76.5t13 -101q0 -38 -4 -79.5t-12 -86.5l-4 -19h-81z" />
    <glyph glyph-name="aacute" unicode="&#xe1;" horiz-adv-x="857" 
d="M633 0v151q-12 -36 -30.5 -66.5t-46 -53t-65 -35t-86.5 -12.5q-96 0 -155.5 31.5t-92.5 83t-44.5 116t-11.5 130.5q0 37 2 76t10.5 76t27.5 69.5t52.5 57t85 39t125.5 14.5q43 0 77 -3.5t61.5 -9.5t49 -14t41.5 -17v109q0 84 -4.5 156.5t-26.5 126.5t-66.5 84.5
t-124.5 30.5q-72 0 -114.5 -27.5t-64 -72.5t-27.5 -101.5t-6 -113.5v-9h-84v11q0 38 2.5 81.5t12 87t28 83.5t51.5 71t82.5 49.5t119.5 18.5q96 0 156 -31.5t93 -83.5t45 -119.5t12 -138.5v-845h-84zM411 62q70 0 113.5 28.5t67.5 77.5t32.5 113.5t8.5 135.5v133
q-18 14 -38.5 24t-46.5 17t-59 10t-78 3q-80 0 -125.5 -23.5t-68 -60.5t-28 -83t-5.5 -91q0 -60 9.5 -112t35 -90.5t69.5 -60t113 -21.5zM595 1525l-144 -238h-77l128 238h93z" />
    <glyph glyph-name="abreve" unicode="&#x103;" horiz-adv-x="857" 
d="M633 0v151q-12 -36 -30.5 -66.5t-46 -53t-65 -35t-86.5 -12.5q-96 0 -155.5 31.5t-92.5 83t-44.5 116t-11.5 130.5q0 37 2 76t10.5 76t27.5 69.5t52.5 57t85 39t125.5 14.5q43 0 77 -3.5t61.5 -9.5t49 -14t41.5 -17v109q0 84 -4.5 156.5t-26.5 126.5t-66.5 84.5
t-124.5 30.5q-72 0 -114.5 -27.5t-64 -72.5t-27.5 -101.5t-6 -113.5v-9h-84v11q0 38 2.5 81.5t12 87t28 83.5t51.5 71t82.5 49.5t119.5 18.5q96 0 156 -31.5t93 -83.5t45 -119.5t12 -138.5v-845h-84zM411 62q70 0 113.5 28.5t67.5 77.5t32.5 113.5t8.5 135.5v133
q-18 14 -38.5 24t-46.5 17t-59 10t-78 3q-80 0 -125.5 -23.5t-68 -60.5t-28 -83t-5.5 -91q0 -60 9.5 -112t35 -90.5t69.5 -60t113 -21.5zM634 1483q-8 -94 -62.5 -145.5t-156.5 -51.5q-106 0 -160.5 53.5t-59.5 143.5h66q6 -67 45.5 -101t108.5 -34q68 0 107.5 33.5
t45.5 101.5h66z" />
    <glyph glyph-name="Aogonek" unicode="&#x104;" horiz-adv-x="778" 
d="M680 0l-79 393h-431l-78 -393h-86l309 1520h141l310 -1520h-86zM185 469h401l-194 975h-12zM874 -336q-15 -13 -43 -21.5t-66 -8.5q-32 0 -61 9.5t-51.5 30.5t-36 54t-13.5 81t12 84t31 61.5t41 42.5t43 28l55 -25q-18 -12 -36 -28.5t-33 -39.5t-24 -52.5t-9 -67.5
q0 -51 22.5 -79.5t73.5 -28.5q32 0 53 6t35 14z" />
    <glyph glyph-name="Aring" unicode="&#xc5;" horiz-adv-x="778" 
d="M680 0l-79 393h-431l-78 -393h-86l309 1520h141l310 -1520h-86zM185 469h401l-194 975h-12zM264 1749q0 63 30 100t98 37q42 0 68.5 -9.5t42 -27.5t21.5 -43.5t6 -56.5q0 -28 -6 -51.5t-21.5 -40.5t-42 -26.5t-68.5 -9.5q-68 0 -98 35.5t-30 92.5zM331 1751
q0 -28 15 -46.5t48 -18.5q42 0 56 18.5t14 46.5q0 32 -14 50.5t-56 18.5q-33 0 -48 -18.5t-15 -50.5z" />
    <glyph glyph-name="Abreve" unicode="&#x102;" horiz-adv-x="778" 
d="M680 0l-79 393h-431l-78 -393h-86l309 1520h141l310 -1520h-86zM185 469h401l-194 975h-12zM617 1801q-8 -94 -62.5 -145.5t-156.5 -51.5q-106 0 -160.5 53.5t-59.5 143.5h66q6 -67 45.5 -101t108.5 -34q68 0 107.5 33.5t45.5 101.5h66z" />
    <glyph glyph-name="Agrave" unicode="&#xc0;" horiz-adv-x="778" 
d="M680 0l-79 393h-431l-78 -393h-86l309 1520h141l310 -1520h-86zM185 469h401l-194 975h-12zM307 1843l127 -238h-76l-143 238h92z" />
    <glyph glyph-name="Atilde" unicode="&#xc3;" horiz-adv-x="778" 
d="M680 0l-79 393h-431l-78 -393h-86l309 1520h141l310 -1520h-86zM185 469h401l-194 975h-12zM629 1769q-32 -46 -62.5 -68.5t-65.5 -22.5q-32 0 -58 11.5t-49 25t-45.5 25t-46.5 11.5q-25 0 -46.5 -14.5t-45.5 -46.5l-45 35q36 51 67 72.5t68 21.5q30 0 56.5 -11.5
t50.5 -26t47 -26t47 -11.5q20 0 39.5 15.5t43.5 44.5z" />
    <glyph glyph-name="Amacron" unicode="&#x100;" horiz-adv-x="778" 
d="M680 0l-79 393h-431l-78 -393h-86l309 1520h141l310 -1520h-86zM185 469h401l-194 975h-12zM206 1719v76h382v-76h-382z" />
    <glyph glyph-name="Adieresis" unicode="&#xc4;" horiz-adv-x="778" 
d="M680 0l-79 393h-431l-78 -393h-86l309 1520h141l310 -1520h-86zM185 469h401l-194 975h-12zM253 1723q0 28 13.5 44.5t42.5 16.5q37 0 49 -16.5t12 -44.5q0 -26 -12 -42t-49 -16q-29 0 -42.5 16t-13.5 42zM424 1723q0 28 13.5 44.5t42.5 16.5q37 0 49 -16.5t12 -44.5
q0 -26 -12 -42t-49 -16q-29 0 -42.5 16t-13.5 42z" />
    <glyph glyph-name="Acircumflex" unicode="&#xc2;" horiz-adv-x="778" 
d="M680 0l-79 393h-431l-78 -393h-86l309 1520h141l310 -1520h-86zM185 469h401l-194 975h-12zM216 1604l136 226h90l136 -226h-88l-93 165l-92 -165h-89z" />
    <glyph glyph-name="A.fat" horiz-adv-x="853" 
d="M649 393h-446l-78 -393h-87l306 1520h165l306 -1520h-87zM218 469h416l-192 964h-32z" />
    <glyph glyph-name="AEacute" unicode="&#x1fc;" horiz-adv-x="1294" 
d="M753 1843l-144 -238h-77l128 238h93zM20 0l440 1518h65l434 2v-78l-350 -2v-617h281v-77h-281v-669h350v-77h-434v393h-313l-112 -393h-80zM234 469h291v975h-11z" />
    <glyph glyph-name="Hbar" unicode="&#x126;" horiz-adv-x="918" 
d="M148 0v1520h84v-716h456v716h84v-1520h-84v726h-456v-726h-84zM269 1719v76h382v-76h-382z" />
    <glyph glyph-name="Ncommaaccent" unicode="&#x145;" horiz-adv-x="918" 
d="M148 0v1520h157l404 -1445h9l-2 1445h84l8 -1520h-158l-410 1445h-9l1 -1445h-84zM415 -120q0 60 56 60q36 0 50 -21t14 -50q0 -66 -18 -112t-34 -76l-44 20q18 38 26 64.5t11 58.5q-61 0 -61 56z" />
    <glyph glyph-name="Nacute" unicode="&#x143;" horiz-adv-x="918" 
d="M148 0v1520h157l404 -1445h9l-2 1445h84l8 -1520h-158l-410 1445h-9l1 -1445h-84zM653 1843l-144 -238h-77l128 238h93z" />
    <glyph glyph-name="Ncaron" unicode="&#x147;" horiz-adv-x="918" 
d="M148 0v1520h157l404 -1445h9l-2 1445h84l8 -1520h-158l-410 1445h-9l1 -1445h-84zM393 1830l92 -165l93 165h88l-136 -226h-90l-136 226h89z" />
    <glyph glyph-name="Ntilde" unicode="&#xd1;" horiz-adv-x="918" 
d="M720 1769q-32 -46 -62.5 -68.5t-65.5 -22.5q-32 0 -58 11.5t-49 25t-45.5 25t-46.5 11.5q-25 0 -46.5 -14.5t-45.5 -46.5l-45 35q36 51 67 72.5t68 21.5q30 0 56.5 -11.5t50.5 -26t47 -26t47 -11.5q20 0 39.5 15.5t43.5 44.5zM148 0v1520h157l404 -1445h9l-2 1445h84
l8 -1520h-158l-410 1445h-9l1 -1445h-84z" />
    <glyph glyph-name="Hcircumflex" unicode="&#x124;" horiz-adv-x="918" 
d="M148 0v1520h84v-716h456v716h84v-1520h-84v726h-456v-726h-84zM279 1604l136 226h90l136 -226h-88l-93 165l-92 -165h-89z" />
    <glyph glyph-name="Icircumflex" unicode="&#xce;" horiz-adv-x="383" 
d="M150 0v1520h84v-1520h-84zM-3 1604l136 226h90l136 -226h-88l-93 165l-92 -165h-89z" />
    <glyph glyph-name="Imacron" unicode="&#x12a;" horiz-adv-x="383" 
d="M150 0v1520h84v-1520h-84zM-12 1719v76h382v-76h-382z" />
    <glyph glyph-name="Iogonek" unicode="&#x12e;" horiz-adv-x="383" 
d="M150 0v1520h84v-1520h-84zM309 -336q-15 -13 -43 -21.5t-66 -8.5q-32 0 -61 9.5t-51.5 30.5t-36 54t-13.5 81t12 84t31 61.5t41 42.5t43 28l55 -25q-18 -12 -36 -28.5t-33 -39.5t-24 -52.5t-9 -67.5q0 -51 22.5 -79.5t73.5 -28.5q32 0 53 6t35 14z" />
    <glyph glyph-name="Iacute" unicode="&#xcd;" horiz-adv-x="383" 
d="M150 0v1520h84v-1520h-84zM357 1843l-144 -238h-77l128 238h93z" />
    <glyph glyph-name="Ibreve" unicode="&#x12c;" horiz-adv-x="383" 
d="M150 0v1520h84v-1520h-84zM399 1801q-8 -94 -62.5 -145.5t-156.5 -51.5q-106 0 -160.5 53.5t-59.5 143.5h66q6 -67 45.5 -101t108.5 -34q68 0 107.5 33.5t45.5 101.5h66z" />
    <glyph glyph-name="Igrave" unicode="&#xcc;" horiz-adv-x="383" 
d="M150 0v1520h84v-1520h-84zM88 1843l127 -238h-76l-143 238h92z" />
    <glyph glyph-name="Itilde" unicode="&#x128;" horiz-adv-x="383" 
d="M150 0v1520h84v-1520h-84zM411 1769q-32 -46 -62.5 -68.5t-65.5 -22.5q-32 0 -58 11.5t-49 25t-45.5 25t-46.5 11.5q-25 0 -46.5 -14.5t-45.5 -46.5l-45 35q36 51 67 72.5t68 21.5q30 0 56.5 -11.5t50.5 -26t47 -26t47 -11.5q20 0 39.5 15.5t43.5 44.5z" />
    <glyph glyph-name="Idieresis" unicode="&#xcf;" horiz-adv-x="383" 
d="M150 0v1520h84v-1520h-84zM35 1723q0 28 13.5 44.5t42.5 16.5q37 0 49 -16.5t12 -44.5q0 -26 -12 -42t-49 -16q-29 0 -42.5 16t-13.5 42zM206 1723q0 28 13.5 44.5t42.5 16.5q37 0 49 -16.5t12 -44.5q0 -26 -12 -42t-49 -16q-29 0 -42.5 16t-13.5 42z" />
    <glyph glyph-name="afii10027" unicode="&#x419;" horiz-adv-x="918" 
d="M721 0l1 1445h-9l-409 -1445h-158l7 1520h84l-1 -1445h9l403 1445h157v-1520h-84zM716 1801q-7 -94 -62 -145t-157 -51q-106 0 -160.5 53.5t-59.5 142.5h66q6 -67 45.5 -101t108.5 -34q68 0 107.5 34t45.5 101h66z" />
    <glyph glyph-name="Idotaccent" unicode="&#x130;" horiz-adv-x="383" 
d="M150 0v1520h84v-1520h-84zM116 1721q0 30 14 47t45 17q38 0 51 -17t13 -47q0 -26 -13 -42.5t-51 -16.5q-31 0 -45 16.5t-14 42.5z" />
    <glyph glyph-name="Emacron" unicode="&#x112;" horiz-adv-x="722" 
d="M140 0v1518l542 2v-78l-459 -2v-617h390v-77h-390v-669h459v-77h-542zM212 1719v76h382v-76h-382z" />
    <glyph glyph-name="Eogonek" unicode="&#x118;" horiz-adv-x="722" 
d="M140 0v1518l542 2v-78l-459 -2v-617h390v-77h-390v-669h459v-77h-542zM771 -336q-15 -13 -43 -21.5t-66 -8.5q-32 0 -61 9.5t-51.5 30.5t-36 54t-13.5 81t12 84t31 61.5t41 42.5t43 28l55 -25q-18 -12 -36 -28.5t-33 -39.5t-24 -52.5t-9 -67.5q0 -51 22.5 -79.5
t73.5 -28.5q32 0 53 6t35 14z" />
    <glyph glyph-name="Rcommaaccent" unicode="&#x156;" horiz-adv-x="871" 
d="M149 0v1518h296q88 0 149 -20t99 -65.5t55 -119t17 -180.5v-140q0 -56 -14 -105.5t-40 -90.5t-64.5 -72t-87.5 -49q38 -23 66.5 -51t48.5 -63t32.5 -78.5t18.5 -97.5l28 -223q5 -43 17.5 -85.5t28.5 -77.5h-90q-14 35 -24 75t-16 85l-28 224q-9 70 -32.5 121t-55 84
t-67 49t-67.5 16h-187v-654h-83zM681 1133q0 107 -18 168.5t-50 92t-75 38.5t-92 8h-214v-708h211q53 0 96.5 20.5t75 55.5t48.5 83t18 102v140zM400 -120q0 60 56 60q36 0 50 -21t14 -50q0 -66 -18 -112t-34 -76l-44 20q18 38 26 64.5t11 58.5q-61 0 -61 56z" />
    <glyph glyph-name="Dcaron" unicode="&#x10e;" horiz-adv-x="867" 
d="M450 1518q73 0 125.5 -18t88 -50t57 -75.5t32.5 -93.5t14.5 -105.5t3.5 -110.5v-611q0 -56 -3.5 -111t-14.5 -105.5t-32.5 -94t-57 -75.5t-88 -50t-125.5 -18h-1h-303v1518h304zM230 77h217h3q64 0 109.5 20t74.5 65t42 117t13 176v608q0 100 -12 171t-39 116t-70 66.5
t-105 23.5h-233v-1363zM335 1830l92 -165l93 165h88l-136 -226h-90l-136 226h89z" />
    <glyph glyph-name="Edotaccent" unicode="&#x116;" horiz-adv-x="722" 
d="M140 0v1518l542 2v-78l-459 -2v-617h390v-77h-390v-669h459v-77h-542zM348 1721q0 30 14 47t45 17q38 0 51 -17t13 -47q0 -26 -13 -42.5t-51 -16.5q-31 0 -45 16.5t-14 42.5z" />
    <glyph glyph-name="Eacute" unicode="&#xc9;" horiz-adv-x="722" 
d="M140 0v1518l542 2v-78l-459 -2v-617h390v-77h-390v-669h459v-77h-542zM586 1843l-144 -238h-77l128 238h93z" />
    <glyph glyph-name="Ebreve" unicode="&#x114;" horiz-adv-x="722" 
d="M140 0v1518l542 2v-78l-459 -2v-617h390v-77h-390v-669h459v-77h-542zM622 1801q-8 -94 -62.5 -145.5t-156.5 -51.5q-106 0 -160.5 53.5t-59.5 143.5h66q6 -67 45.5 -101t108.5 -34q68 0 107.5 33.5t45.5 101.5h66z" />
    <glyph glyph-name="Ecaron" unicode="&#x11a;" horiz-adv-x="722" 
d="M140 0v1518l542 2v-78l-459 -2v-617h390v-77h-390v-669h459v-77h-542zM310 1830l92 -165l93 165h88l-136 -226h-90l-136 226h89z" />
    <glyph glyph-name="Egrave" unicode="&#xc8;" horiz-adv-x="722" 
d="M140 0v1518l542 2v-78l-459 -2v-617h390v-77h-390v-669h459v-77h-542zM317 1843l127 -238h-76l-143 238h92z" />
    <glyph glyph-name="Lacute" unicode="&#x139;" horiz-adv-x="692" 
d="M146 0v1520h84v-1442h449v-78h-533zM367 1843l-144 -238h-77l128 238h93z" />
    <glyph glyph-name="Lcaron" unicode="&#x13d;" horiz-adv-x="692" 
d="M146 0v1520h84v-1442h449v-78h-533zM98 1824l92 -165l93 165h88l-136 -226h-90l-136 226h89z" />
    <glyph glyph-name="Racute" unicode="&#x154;" horiz-adv-x="871" 
d="M149 0v1518h296q88 0 149 -20t99 -65.5t55 -119t17 -180.5v-140q0 -56 -14 -105.5t-40 -90.5t-64.5 -72t-87.5 -49q38 -23 66.5 -51t48.5 -63t32.5 -78.5t18.5 -97.5l28 -223q5 -43 17.5 -85.5t28.5 -77.5h-90q-14 35 -24 75t-16 85l-28 224q-9 70 -32.5 121t-55 84
t-67 49t-67.5 16h-187v-654h-83zM681 1133q0 107 -18 168.5t-50 92t-75 38.5t-92 8h-214v-708h211q53 0 96.5 20.5t75 55.5t48.5 83t18 102v140zM580 1843l-144 -238h-77l128 238h93z" />
    <glyph glyph-name="Rcaron" unicode="&#x158;" horiz-adv-x="871" 
d="M149 0v1518h296q88 0 149 -20t99 -65.5t55 -119t17 -180.5v-140q0 -56 -14 -105.5t-40 -90.5t-64.5 -72t-87.5 -49q38 -23 66.5 -51t48.5 -63t32.5 -78.5t18.5 -97.5l28 -223q5 -43 17.5 -85.5t28.5 -77.5h-90q-14 35 -24 75t-16 85l-28 224q-9 70 -32.5 121t-55 84
t-67 49t-67.5 16h-187v-654h-83zM681 1133q0 107 -18 168.5t-50 92t-75 38.5t-92 8h-214v-708h211q53 0 96.5 20.5t75 55.5t48.5 83t18 102v140zM320 1830l92 -165l93 165h88l-136 -226h-90l-136 226h89z" />
    <glyph glyph-name="Edieresis" unicode="&#xcb;" horiz-adv-x="722" 
d="M140 0v1518l542 2v-78l-459 -2v-617h390v-77h-390v-669h459v-77h-542zM264 1723q0 28 13.5 44.5t42.5 16.5q37 0 49 -16.5t12 -44.5q0 -26 -12 -42t-49 -16q-29 0 -42.5 16t-13.5 42zM435 1723q0 28 13.5 44.5t42.5 16.5q37 0 49 -16.5t12 -44.5q0 -26 -12 -42t-49 -16
q-29 0 -42.5 16t-13.5 42z" />
    <glyph glyph-name="Ecircumflex" unicode="&#xca;" horiz-adv-x="722" 
d="M140 0v1518l542 2v-78l-459 -2v-617h390v-77h-390v-669h459v-77h-542zM221 1604l136 226h90l136 -226h-88l-93 165l-92 -165h-89z" />
    <glyph glyph-name="Ldot" unicode="&#x13f;" horiz-adv-x="692" 
d="M505 714q0 29 14 46t45 17q38 0 51 -17t13 -46q0 -26 -13 -42.5t-51 -16.5q-31 0 -45 16.5t-14 42.5zM146 0v1520h84v-1442h449v-78h-533z" />
    <glyph glyph-name="Cacute" unicode="&#x106;" horiz-adv-x="819" 
d="M742 430v-14q0 -45 -3 -94.5t-14 -97.5t-31.5 -91t-56.5 -76t-88.5 -52.5t-127.5 -19.5q-77 0 -131 20t-89.5 54t-56 80t-30.5 97t-12.5 105.5t-2.5 106.5v622q0 54 3 109.5t13.5 107t31 97t56 79t88.5 53t129 19.5h1q77 0 130.5 -20t89 -53.5t56 -77.5t30.5 -91.5
t12.5 -96t2.5 -91.5v-15h-84v15q0 72 -7 136t-32 112.5t-72 76.5t-126 28q-80 0 -127.5 -29.5t-72 -82t-31.5 -123.5t-7 -155v-618q0 -79 5.5 -149.5t29.5 -123.5t71.5 -84t131.5 -31q76 0 122.5 27t72 74.5t34 112.5t8.5 141v13h84zM575 1843l-144 -238h-77l128 238h93z
" />
    <glyph glyph-name="Ccaron" unicode="&#x10c;" horiz-adv-x="819" 
d="M742 430v-14q0 -45 -3 -94.5t-14 -97.5t-31.5 -91t-56.5 -76t-88.5 -52.5t-127.5 -19.5q-77 0 -131 20t-89.5 54t-56 80t-30.5 97t-12.5 105.5t-2.5 106.5v622q0 54 3 109.5t13.5 107t31 97t56 79t88.5 53t129 19.5h1q77 0 130.5 -20t89 -53.5t56 -77.5t30.5 -91.5
t12.5 -96t2.5 -91.5v-15h-84v15q0 72 -7 136t-32 112.5t-72 76.5t-126 28q-80 0 -127.5 -29.5t-72 -82t-31.5 -123.5t-7 -155v-618q0 -79 5.5 -149.5t29.5 -123.5t71.5 -84t131.5 -31q76 0 122.5 27t72 74.5t34 112.5t8.5 141v13h84zM306 1830l92 -165l93 165h88l-136 -226
h-90l-136 226h89z" />
    <glyph glyph-name="Ccedilla" unicode="&#xc7;" horiz-adv-x="819" 
d="M742 430v-14q0 -45 -3 -94.5t-14 -97.5t-31.5 -91t-56.5 -76t-88.5 -52.5t-127.5 -19.5q-77 0 -131 20t-89.5 54t-56 80t-30.5 97t-12.5 105.5t-2.5 106.5v622q0 54 3 109.5t13.5 107t31 97t56 79t88.5 53t129 19.5h1q77 0 130.5 -20t89 -53.5t56 -77.5t30.5 -91.5
t12.5 -96t2.5 -91.5v-15h-84v15q0 72 -7 136t-32 112.5t-72 76.5t-126 28q-80 0 -127.5 -29.5t-72 -82t-31.5 -123.5t-7 -155v-618q0 -79 5.5 -149.5t29.5 -123.5t71.5 -84t131.5 -31q76 0 122.5 27t72 74.5t34 112.5t8.5 141v13h84zM282 -190q24 -19 46 -29t61 -10
q38 0 59.5 16.5t21.5 46.5q0 13 -7.5 23t-19.5 16t-26.5 9t-29.5 3q-20 0 -32 -4l-2 138h67l-2 -83q4 0 9 1q5 0 10 0.5t13 0.5q14 0 30.5 -6.5t30.5 -19t23.5 -32t9.5 -45.5q0 -34 -13.5 -58t-35.5 -39t-49.5 -21.5t-55.5 -6.5q-45 0 -78 13t-53 41z" />
    <glyph glyph-name="Ccircumflex" unicode="&#x108;" horiz-adv-x="819" 
d="M742 430v-14q0 -45 -3 -94.5t-14 -97.5t-31.5 -91t-56.5 -76t-88.5 -52.5t-127.5 -19.5q-77 0 -131 20t-89.5 54t-56 80t-30.5 97t-12.5 105.5t-2.5 106.5v622q0 54 3 109.5t13.5 107t31 97t56 79t88.5 53t129 19.5h1q77 0 130.5 -20t89 -53.5t56 -77.5t30.5 -91.5
t12.5 -96t2.5 -91.5v-15h-84v15q0 72 -7 136t-32 112.5t-72 76.5t-126 28q-80 0 -127.5 -29.5t-72 -82t-31.5 -123.5t-7 -155v-618q0 -79 5.5 -149.5t29.5 -123.5t71.5 -84t131.5 -31q76 0 122.5 27t72 74.5t34 112.5t8.5 141v13h84zM217 1604l136 226h90l136 -226h-88
l-93 165l-92 -165h-89z" />
    <glyph glyph-name="Cdotaccent" unicode="&#x10a;" horiz-adv-x="819" 
d="M742 430v-14q0 -45 -3 -94.5t-14 -97.5t-31.5 -91t-56.5 -76t-88.5 -52.5t-127.5 -19.5q-77 0 -131 20t-89.5 54t-56 80t-30.5 97t-12.5 105.5t-2.5 106.5v622q0 54 3 109.5t13.5 107t31 97t56 79t88.5 53t129 19.5h1q77 0 130.5 -20t89 -53.5t56 -77.5t30.5 -91.5
t12.5 -96t2.5 -91.5v-15h-84v15q0 72 -7 136t-32 112.5t-72 76.5t-126 28q-80 0 -127.5 -29.5t-72 -82t-31.5 -123.5t-7 -155v-618q0 -79 5.5 -149.5t29.5 -123.5t71.5 -84t131.5 -31q76 0 122.5 27t72 74.5t34 112.5t8.5 141v13h84zM338 1721q0 30 14 47t45 17q38 0 51 -17
t13 -47q0 -26 -13 -42.5t-51 -16.5q-31 0 -45 16.5t-14 42.5z" />
    <glyph glyph-name="Gbreve" unicode="&#x11e;" horiz-adv-x="832" 
d="M408 744h333v-328q0 -45 -3 -94.5t-14 -97t-31.5 -91t-56.5 -76.5t-88.5 -52.5t-127.5 -19.5q-77 0 -131 20t-89.5 54t-56 80t-30.5 97t-12.5 105.5t-2.5 106.5v622q0 54 3 109.5t13.5 107t31 97t56 79t88.5 53t129 19.5h1q77 0 130.5 -20t89 -53.5t56 -77.5t30.5 -91.5
t12.5 -96t2.5 -91.5v-15h-84v15q0 72 -7 136t-32 112.5t-72 76.5t-126 28q-80 0 -127.5 -29.5t-72 -82t-31.5 -123.5t-7 -155v-618q0 -79 5.5 -149.5t29.5 -123.5t71.5 -84t131.5 -31q76 0 122.5 27t72 74.5t34 112.5t8.5 141v250h-249v77zM640 1801q-8 -94 -62.5 -145.5
t-156.5 -51.5q-106 0 -160.5 53.5t-59.5 143.5h66q6 -67 45.5 -101t108.5 -34q68 0 107.5 33.5t45.5 101.5h66z" />
    <glyph glyph-name="Gcircumflex" unicode="&#x11c;" horiz-adv-x="832" 
d="M408 744h333v-328q0 -45 -3 -94.5t-14 -97t-31.5 -91t-56.5 -76.5t-88.5 -52.5t-127.5 -19.5q-77 0 -131 20t-89.5 54t-56 80t-30.5 97t-12.5 105.5t-2.5 106.5v622q0 54 3 109.5t13.5 107t31 97t56 79t88.5 53t129 19.5h1q77 0 130.5 -20t89 -53.5t56 -77.5t30.5 -91.5
t12.5 -96t2.5 -91.5v-15h-84v15q0 72 -7 136t-32 112.5t-72 76.5t-126 28q-80 0 -127.5 -29.5t-72 -82t-31.5 -123.5t-7 -155v-618q0 -79 5.5 -149.5t29.5 -123.5t71.5 -84t131.5 -31q76 0 122.5 27t72 74.5t34 112.5t8.5 141v250h-249v77zM239 1604l136 226h90l136 -226
h-88l-93 165l-92 -165h-89z" />
    <glyph glyph-name="Gcommaaccent" unicode="&#x122;" horiz-adv-x="832" 
d="M408 744h333v-328q0 -45 -3 -94.5t-14 -97t-31.5 -91t-56.5 -76.5t-88.5 -52.5t-127.5 -19.5q-77 0 -131 20t-89.5 54t-56 80t-30.5 97t-12.5 105.5t-2.5 106.5v622q0 54 3 109.5t13.5 107t31 97t56 79t88.5 53t129 19.5h1q77 0 130.5 -20t89 -53.5t56 -77.5t30.5 -91.5
t12.5 -96t2.5 -91.5v-15h-84v15q0 72 -7 136t-32 112.5t-72 76.5t-126 28q-80 0 -127.5 -29.5t-72 -82t-31.5 -123.5t-7 -155v-618q0 -79 5.5 -149.5t29.5 -123.5t71.5 -84t131.5 -31q76 0 122.5 27t72 74.5t34 112.5t8.5 141v250h-249v77zM359 -120q0 60 56 60q36 0 50 -21
t14 -50q0 -66 -18 -112t-34 -76l-44 20q18 38 26 64.5t11 58.5q-61 0 -61 56z" />
    <glyph glyph-name="Gdotaccent" unicode="&#x120;" horiz-adv-x="832" 
d="M408 744h333v-328q0 -45 -3 -94.5t-14 -97t-31.5 -91t-56.5 -76.5t-88.5 -52.5t-127.5 -19.5q-77 0 -131 20t-89.5 54t-56 80t-30.5 97t-12.5 105.5t-2.5 106.5v622q0 54 3 109.5t13.5 107t31 97t56 79t88.5 53t129 19.5h1q77 0 130.5 -20t89 -53.5t56 -77.5t30.5 -91.5
t12.5 -96t2.5 -91.5v-15h-84v15q0 72 -7 136t-32 112.5t-72 76.5t-126 28q-80 0 -127.5 -29.5t-72 -82t-31.5 -123.5t-7 -155v-618q0 -79 5.5 -149.5t29.5 -123.5t71.5 -84t131.5 -31q76 0 122.5 27t72 74.5t34 112.5t8.5 141v250h-249v77zM358 1721q0 30 14 47t45 17
q38 0 51 -17t13 -47q0 -26 -13 -42.5t-51 -16.5q-31 0 -45 16.5t-14 42.5z" />
    <glyph glyph-name="Oacute" unicode="&#xd3;" horiz-adv-x="847" 
d="M424 1535q77 0 130.5 -20t89.5 -54t56 -79.5t30 -97t12.5 -106t2.5 -106.5v-622q0 -54 -3 -109.5t-13.5 -107.5t-31 -97t-56 -78.5t-89 -53t-128.5 -19.5h-1q-77 0 -130.5 20t-89.5 54t-56 80t-30 97t-12.5 105.5t-2.5 106.5v622q0 54 3 109.5t13.5 107.5t31 97t56 78.5
t88.5 53t129 19.5h1zM424 62q80 0 127 29.5t71.5 82t31.5 123.5t7 155v618q0 79 -5.5 149.5t-29 123.5t-71 84t-131.5 31h-1q-80 0 -127 -29.5t-71.5 -82t-31.5 -123.5t-7 -155v-618q0 -79 5.5 -149.5t29 -123.5t71 -84t131.5 -31h1zM599 1843l-144 -238h-77l128 238h93z
" />
    <glyph glyph-name="Obreve" unicode="&#x14e;" horiz-adv-x="847" 
d="M424 1535q77 0 130.5 -20t89.5 -54t56 -79.5t30 -97t12.5 -106t2.5 -106.5v-622q0 -54 -3 -109.5t-13.5 -107.5t-31 -97t-56 -78.5t-89 -53t-128.5 -19.5h-1q-77 0 -130.5 20t-89.5 54t-56 80t-30 97t-12.5 105.5t-2.5 106.5v622q0 54 3 109.5t13.5 107.5t31 97t56 78.5
t88.5 53t129 19.5h1zM424 62q80 0 127 29.5t71.5 82t31.5 123.5t7 155v618q0 79 -5.5 149.5t-29 123.5t-71 84t-131.5 31h-1q-80 0 -127 -29.5t-71.5 -82t-31.5 -123.5t-7 -155v-618q0 -79 5.5 -149.5t29 -123.5t71 -84t131.5 -31h1zM644 1801q-8 -94 -62.5 -145.5
t-156.5 -51.5q-106 0 -160.5 53.5t-59.5 143.5h66q6 -67 45.5 -101t108.5 -34q68 0 107.5 33.5t45.5 101.5h66z" />
    <glyph glyph-name="Ocircumflex" unicode="&#xd4;" horiz-adv-x="847" 
d="M424 1535q77 0 130.5 -20t89.5 -54t56 -79.5t30 -97t12.5 -106t2.5 -106.5v-622q0 -54 -3 -109.5t-13.5 -107.5t-31 -97t-56 -78.5t-89 -53t-128.5 -19.5h-1q-77 0 -130.5 20t-89.5 54t-56 80t-30 97t-12.5 105.5t-2.5 106.5v622q0 54 3 109.5t13.5 107.5t31 97t56 78.5
t88.5 53t129 19.5h1zM424 62q80 0 127 29.5t71.5 82t31.5 123.5t7 155v618q0 79 -5.5 149.5t-29 123.5t-71 84t-131.5 31h-1q-80 0 -127 -29.5t-71.5 -82t-31.5 -123.5t-7 -155v-618q0 -79 5.5 -149.5t29 -123.5t71 -84t131.5 -31h1zM242 1604l136 226h90l136 -226h-88
l-93 165l-92 -165h-89z" />
    <glyph glyph-name="Odieresis" unicode="&#xd6;" horiz-adv-x="847" 
d="M424 1535q77 0 130.5 -20t89.5 -54t56 -79.5t30 -97t12.5 -106t2.5 -106.5v-622q0 -54 -3 -109.5t-13.5 -107.5t-31 -97t-56 -78.5t-89 -53t-128.5 -19.5h-1q-77 0 -130.5 20t-89.5 54t-56 80t-30 97t-12.5 105.5t-2.5 106.5v622q0 54 3 109.5t13.5 107.5t31 97t56 78.5
t88.5 53t129 19.5h1zM424 62q80 0 127 29.5t71.5 82t31.5 123.5t7 155v618q0 79 -5.5 149.5t-29 123.5t-71 84t-131.5 31h-1q-80 0 -127 -29.5t-71.5 -82t-31.5 -123.5t-7 -155v-618q0 -79 5.5 -149.5t29 -123.5t71 -84t131.5 -31h1zM280 1723q0 28 13.5 44.5t42.5 16.5
q37 0 49 -16.5t12 -44.5q0 -26 -12 -42t-49 -16q-29 0 -42.5 16t-13.5 42zM451 1723q0 28 13.5 44.5t42.5 16.5q37 0 49 -16.5t12 -44.5q0 -26 -12 -42t-49 -16q-29 0 -42.5 16t-13.5 42z" />
    <glyph glyph-name="Ograve" unicode="&#xd2;" horiz-adv-x="847" 
d="M424 1535q77 0 130.5 -20t89.5 -54t56 -79.5t30 -97t12.5 -106t2.5 -106.5v-622q0 -54 -3 -109.5t-13.5 -107.5t-31 -97t-56 -78.5t-89 -53t-128.5 -19.5h-1q-77 0 -130.5 20t-89.5 54t-56 80t-30 97t-12.5 105.5t-2.5 106.5v622q0 54 3 109.5t13.5 107.5t31 97t56 78.5
t88.5 53t129 19.5h1zM424 62q80 0 127 29.5t71.5 82t31.5 123.5t7 155v618q0 79 -5.5 149.5t-29 123.5t-71 84t-131.5 31h-1q-80 0 -127 -29.5t-71.5 -82t-31.5 -123.5t-7 -155v-618q0 -79 5.5 -149.5t29 -123.5t71 -84t131.5 -31h1zM341 1843l127 -238h-76l-143 238h92z
" />
    <glyph glyph-name="Ohungarumlaut" unicode="&#x150;" horiz-adv-x="847" 
d="M424 1535q77 0 130.5 -20t89.5 -54t56 -79.5t30 -97t12.5 -106t2.5 -106.5v-622q0 -54 -3 -109.5t-13.5 -107.5t-31 -97t-56 -78.5t-89 -53t-128.5 -19.5h-1q-77 0 -130.5 20t-89.5 54t-56 80t-30 97t-12.5 105.5t-2.5 106.5v622q0 54 3 109.5t13.5 107.5t31 97t56 78.5
t88.5 53t129 19.5h1zM424 62q80 0 127 29.5t71.5 82t31.5 123.5t7 155v618q0 79 -5.5 149.5t-29 123.5t-71 84t-131.5 31h-1q-80 0 -127 -29.5t-71.5 -82t-31.5 -123.5t-7 -155v-618q0 -79 5.5 -149.5t29 -123.5t71 -84t131.5 -31h1zM507 1843l-142 -238h-77l127 238h92z
M678 1843l-143 -238h-76l127 238h92z" />
    <glyph glyph-name="Omacron" unicode="&#x14c;" horiz-adv-x="847" 
d="M424 1535q77 0 130.5 -20t89.5 -54t56 -79.5t30 -97t12.5 -106t2.5 -106.5v-622q0 -54 -3 -109.5t-13.5 -107.5t-31 -97t-56 -78.5t-89 -53t-128.5 -19.5h-1q-77 0 -130.5 20t-89.5 54t-56 80t-30 97t-12.5 105.5t-2.5 106.5v622q0 54 3 109.5t13.5 107.5t31 97t56 78.5
t88.5 53t129 19.5h1zM424 62q80 0 127 29.5t71.5 82t31.5 123.5t7 155v618q0 79 -5.5 149.5t-29 123.5t-71 84t-131.5 31h-1q-80 0 -127 -29.5t-71.5 -82t-31.5 -123.5t-7 -155v-618q0 -79 5.5 -149.5t29 -123.5t71 -84t131.5 -31h1zM234 1719v76h382v-76h-382z" />
    <glyph glyph-name="Otilde" unicode="&#xd5;" horiz-adv-x="847" 
d="M424 1535q77 0 130.5 -20t89.5 -54t56 -79.5t30 -97t12.5 -106t2.5 -106.5v-622q0 -54 -3 -109.5t-13.5 -107.5t-31 -97t-56 -78.5t-89 -53t-128.5 -19.5h-1q-77 0 -130.5 20t-89.5 54t-56 80t-30 97t-12.5 105.5t-2.5 106.5v622q0 54 3 109.5t13.5 107.5t31 97t56 78.5
t88.5 53t129 19.5h1zM424 62q80 0 127 29.5t71.5 82t31.5 123.5t7 155v618q0 79 -5.5 149.5t-29 123.5t-71 84t-131.5 31h-1q-80 0 -127 -29.5t-71.5 -82t-31.5 -123.5t-7 -155v-618q0 -79 5.5 -149.5t29 -123.5t71 -84t131.5 -31h1zM657 1769q-32 -46 -62.5 -68.5
t-65.5 -22.5q-32 0 -58 11.5t-49 25t-45.5 25t-46.5 11.5q-25 0 -46.5 -14.5t-45.5 -46.5l-45 35q36 51 67 72.5t68 21.5q30 0 56.5 -11.5t50.5 -26t47 -26t47 -11.5q20 0 39.5 15.5t43.5 44.5z" />
    <glyph glyph-name="Oslashacute" unicode="&#x1fe;" horiz-adv-x="847" 
d="M424 1535q77 0 130.5 -20t89.5 -54t56 -79.5t30 -97t12.5 -106t2.5 -106.5v-622q0 -54 -3 -109.5t-13.5 -107.5t-31 -97t-56 -78.5t-89 -53t-128.5 -19.5h-1q-77 0 -130.5 20t-89.5 54t-56 80t-30 97t-12.5 105.5t-2.5 106.5v622q0 54 3 109.5t13.5 107.5t31 97t56 78.5
t88.5 53t129 19.5h1zM424 62q80 0 127 29.5t71.5 82t31.5 123.5t7 155v618q0 79 -5.5 149.5t-29 123.5t-71 84t-131.5 31h-1q-80 0 -127 -29.5t-71.5 -82t-31.5 -123.5t-7 -155v-618q0 -79 5.5 -149.5t29 -123.5t71 -84t131.5 -31h1zM220 -80h-84l490 1679h82zM593 1843
l-144 -238h-77l128 238h93z" />
    <glyph glyph-name="Omegatonos" unicode="&#x38f;" horiz-adv-x="911" 
d="M148 0v78h180l-1 208q-66 15 -104.5 52.5t-58.5 89.5t-25.5 113t-5.5 123q0 32 0.5 63.5t0.5 60.5v282q0 54 3 109.5t13.5 107.5t31 97t56.5 78.5t89 53t129 19.5h1q77 0 130.5 -20t89.5 -54t56 -79.5t30 -97t12.5 -106t2.5 -106.5v-283q0 -26 0.5 -54t0.5 -57
q0 -64 -5.5 -127.5t-25 -117.5t-58 -93t-105.5 -54l-1 -208h180v-78h-259v355q65 0 103 25t57.5 68.5t24.5 101.5t5 124q0 29 -0.5 58t-0.5 59v279q0 79 -5.5 149.5t-29 123.5t-71 84t-131.5 31h-1q-80 0 -127.5 -29.5t-72 -82t-31.5 -123.5t-7 -155v-279q0 -36 -1 -72
t-1 -71q0 -59 6 -112t25.5 -92.5t57.5 -63t102 -23.5v-355h-259zM51 1525l-11 -238h-75l-5 238h91z" />
    <glyph glyph-name="Oslash.fat" horiz-adv-x="910" 
d="M217 -58l-64 10l550 1621l62 -8z" />
    <glyph glyph-name="Dcroat" unicode="&#x110;" horiz-adv-x="903" 
d="M449 1518q73 0 125.5 -18t88 -50t57 -75.5t32.5 -93.5t14.5 -105.5t3.5 -110.5v-611q0 -56 -3.5 -111t-14.5 -105.5t-32.5 -94t-57 -75.5t-88 -50t-125.5 -18h-1h-303v1518h304zM229 77h217h3q64 0 109.5 20t74.5 65t42 117t13 176v608q0 100 -12 171t-39 116t-70 66.5
t-105 23.5h-233v-1363zM-1 692v76h382v-76h-382z" />
    <glyph glyph-name="Wacute" unicode="&#x1e82;" horiz-adv-x="1286" 
d="M29 1520h86l221 -1444h6l223 1444h147l223 -1444h6l221 1444h87l-240 -1520h-140l-231 1472l-230 -1472h-139zM821 1843l-144 -238h-77l128 238h93z" />
    <glyph glyph-name="Wgrave" unicode="&#x1e80;" horiz-adv-x="1286" 
d="M29 1520h86l221 -1444h6l223 1444h147l223 -1444h6l221 1444h87l-240 -1520h-140l-231 1472l-230 -1472h-139zM540 1843l127 -238h-76l-143 238h92z" />
    <glyph glyph-name="Wdieresis" unicode="&#x1e84;" horiz-adv-x="1286" 
d="M29 1520h86l221 -1444h6l223 1444h147l223 -1444h6l221 1444h87l-240 -1520h-140l-231 1472l-230 -1472h-139zM501 1723q0 28 13.5 44.5t42.5 16.5q37 0 49 -16.5t12 -44.5q0 -26 -12 -42t-49 -16q-29 0 -42.5 16t-13.5 42zM672 1723q0 28 13.5 44.5t42.5 16.5
q37 0 49 -16.5t12 -44.5q0 -26 -12 -42t-49 -16q-29 0 -42.5 16t-13.5 42z" />
    <glyph glyph-name="Wcircumflex" unicode="&#x174;" horiz-adv-x="1286" 
d="M29 1520h86l221 -1444h6l223 1444h147l223 -1444h6l221 1444h87l-240 -1520h-140l-231 1472l-230 -1472h-139zM463 1604l136 226h90l136 -226h-88l-93 165l-92 -165h-89z" />
    <glyph glyph-name="afii10148" unicode="&#x474;" horiz-adv-x="19" 
 />
    <glyph glyph-name="Tcommaaccent" unicode="&#x162;" horiz-adv-x="687" 
d="M384 1440v-1440h-84v1440h-288v78h660v-78h-288zM282 -120q0 60 56 60q36 0 50 -21t14 -50q0 -66 -18 -112t-34 -76l-44 20q18 38 26 64.5t11 58.5q-61 0 -61 56z" />
    <glyph glyph-name="Tbar" unicode="&#x166;" horiz-adv-x="687" 
d="M384 1440v-1440h-84v1440h-288v78h660v-78h-288zM151 1719v76h382v-76h-382z" />
    <glyph glyph-name="Tcaron" unicode="&#x164;" horiz-adv-x="687" 
d="M384 1440v-1440h-84v1440h-288v78h660v-78h-288zM249 1830l92 -165l93 165h88l-136 -226h-90l-136 226h89z" />
    <glyph glyph-name="Sacute" unicode="&#x15a;" horiz-adv-x="771" 
d="M706 376q0 -90 -17.5 -162.5t-55.5 -123.5t-98.5 -78t-146.5 -27q-111 0 -174.5 31t-96 85t-40.5 126t-8 155v48h82v-40q0 -84 8.5 -146t34 -102.5t72 -60t122.5 -19.5q66 0 111 23.5t72 65t39 98.5t12 124v10q0 61 -12.5 108.5t-36 85.5t-58 67.5t-78.5 54.5l-148 84
q-54 30 -93.5 65t-65.5 80t-39 103t-13 135v16q0 81 19.5 146t59 111t98 71t136.5 25q84 0 143.5 -28t97 -76.5t55 -115t17.5 -142.5v-83h-84l-2 118q-2 51 -15.5 96.5t-41.5 79.5t-70.5 54t-100.5 20q-65 0 -110 -24t-72 -65.5t-37.5 -95.5t-8.5 -114l2 -38q1 -47 15.5 -87
t39.5 -74t59 -62.5t74 -51.5l148 -83q103 -59 152 -151t54 -223v-13zM573 1843l-144 -238h-77l128 238h93z" />
    <glyph glyph-name="Scaron" unicode="&#x160;" horiz-adv-x="771" 
d="M706 376q0 -90 -17.5 -162.5t-55.5 -123.5t-98.5 -78t-146.5 -27q-111 0 -174.5 31t-96 85t-40.5 126t-8 155v48h82v-40q0 -84 8.5 -146t34 -102.5t72 -60t122.5 -19.5q66 0 111 23.5t72 65t39 98.5t12 124v10q0 61 -12.5 108.5t-36 85.5t-58 67.5t-78.5 54.5l-148 84
q-54 30 -93.5 65t-65.5 80t-39 103t-13 135v16q0 81 19.5 146t59 111t98 71t136.5 25q84 0 143.5 -28t97 -76.5t55 -115t17.5 -142.5v-83h-84l-2 118q-2 51 -15.5 96.5t-41.5 79.5t-70.5 54t-100.5 20q-65 0 -110 -24t-72 -65.5t-37.5 -95.5t-8.5 -114l2 -38q1 -47 15.5 -87
t39.5 -74t59 -62.5t74 -51.5l148 -83q103 -59 152 -151t54 -223v-13zM300 1830l92 -165l93 165h88l-136 -226h-90l-136 226h89z" />
    <glyph glyph-name="Scedilla" unicode="&#x15e;" horiz-adv-x="771" 
d="M706 376q0 -90 -17.5 -162.5t-55.5 -123.5t-98.5 -78t-146.5 -27q-111 0 -174.5 31t-96 85t-40.5 126t-8 155v48h82v-40q0 -84 8.5 -146t34 -102.5t72 -60t122.5 -19.5q66 0 111 23.5t72 65t39 98.5t12 124v10q0 61 -12.5 108.5t-36 85.5t-58 67.5t-78.5 54.5l-148 84
q-54 30 -93.5 65t-65.5 80t-39 103t-13 135v16q0 81 19.5 146t59 111t98 71t136.5 25q84 0 143.5 -28t97 -76.5t55 -115t17.5 -142.5v-83h-84l-2 118q-2 51 -15.5 96.5t-41.5 79.5t-70.5 54t-100.5 20q-65 0 -110 -24t-72 -65.5t-37.5 -95.5t-8.5 -114l2 -38q1 -47 15.5 -87
t39.5 -74t59 -62.5t74 -51.5l148 -83q103 -59 152 -151t54 -223v-13zM276 -190q24 -19 46 -29t61 -10q38 0 59.5 16.5t21.5 46.5q0 13 -7.5 23t-19.5 16t-26.5 9t-29.5 3q-20 0 -32 -4l-2 138h67l-2 -83q4 0 9 1q5 0 10 0.5t13 0.5q14 0 30.5 -6.5t30.5 -19t23.5 -32
t9.5 -45.5q0 -34 -13.5 -58t-35.5 -39t-49.5 -21.5t-55.5 -6.5q-45 0 -78 13t-53 41z" />
    <glyph glyph-name="Scircumflex" unicode="&#x15c;" horiz-adv-x="771" 
d="M706 376q0 -90 -17.5 -162.5t-55.5 -123.5t-98.5 -78t-146.5 -27q-111 0 -174.5 31t-96 85t-40.5 126t-8 155v48h82v-40q0 -84 8.5 -146t34 -102.5t72 -60t122.5 -19.5q66 0 111 23.5t72 65t39 98.5t12 124v10q0 61 -12.5 108.5t-36 85.5t-58 67.5t-78.5 54.5l-148 84
q-54 30 -93.5 65t-65.5 80t-39 103t-13 135v16q0 81 19.5 146t59 111t98 71t136.5 25q84 0 143.5 -28t97 -76.5t55 -115t17.5 -142.5v-83h-84l-2 118q-2 51 -15.5 96.5t-41.5 79.5t-70.5 54t-100.5 20q-65 0 -110 -24t-72 -65.5t-37.5 -95.5t-8.5 -114l2 -38q1 -47 15.5 -87
t39.5 -74t59 -62.5t74 -51.5l148 -83q103 -59 152 -151t54 -223v-13zM211 1604l136 226h90l136 -226h-88l-93 165l-92 -165h-89z" />
    <glyph glyph-name="Scommaaccent" unicode="&#x218;" horiz-adv-x="771" 
d="M706 376q0 -90 -17.5 -162.5t-55.5 -123.5t-98.5 -78t-146.5 -27q-111 0 -174.5 31t-96 85t-40.5 126t-8 155v48h82v-40q0 -84 8.5 -146t34 -102.5t72 -60t122.5 -19.5q66 0 111 23.5t72 65t39 98.5t12 124v10q0 61 -12.5 108.5t-36 85.5t-58 67.5t-78.5 54.5l-148 84
q-54 30 -93.5 65t-65.5 80t-39 103t-13 135v16q0 81 19.5 146t59 111t98 71t136.5 25q84 0 143.5 -28t97 -76.5t55 -115t17.5 -142.5v-83h-84l-2 118q-2 51 -15.5 96.5t-41.5 79.5t-70.5 54t-100.5 20q-65 0 -110 -24t-72 -65.5t-37.5 -95.5t-8.5 -114l2 -38q1 -47 15.5 -87
t39.5 -74t59 -62.5t74 -51.5l148 -83q103 -59 152 -151t54 -223v-13zM351 -138q0 60 56 60q36 0 50 -21t14 -50q0 -66 -18 -112t-34 -76l-44 20q18 38 26 64.5t11 58.5q-61 0 -61 56z" />
    <glyph glyph-name="Uogonek" unicode="&#x172;" horiz-adv-x="888" 
d="M767 1518v-1138q0 -84 -9 -156t-41.5 -125t-96.5 -83.5t-174 -30.5h-1q-73 0 -125 14t-87.5 39t-56.5 61t-32 79.5t-14.5 94.5t-3.5 107v1138h83v-1129q0 -75 5 -135t28 -102.5t70 -66t131 -23.5h3q85 0 133 23t71.5 65.5t28.5 103t5 135.5v1129h83zM715 -317
q-15 -13 -43 -21.5t-66 -8.5q-32 0 -61 9.5t-51.5 30.5t-36 54t-13.5 81t12 84t31 61.5t41 42.5t43 28l55 -25q-18 -12 -36 -28.5t-33 -39.5t-24 -52.5t-9 -67.5q0 -51 22.5 -79.5t73.5 -28.5q32 0 53 6t35 14z" />
    <glyph glyph-name="Uring" unicode="&#x16e;" horiz-adv-x="888" 
d="M767 1518v-1138q0 -84 -9 -156t-41.5 -125t-96.5 -83.5t-174 -30.5h-1q-73 0 -125 14t-87.5 39t-56.5 61t-32 79.5t-14.5 94.5t-3.5 107v1138h83v-1129q0 -75 5 -135t28 -102.5t70 -66t131 -23.5h3q85 0 133 23t71.5 65.5t28.5 103t5 135.5v1129h83zM313 1749
q0 63 30 100t98 37q42 0 68.5 -9.5t42 -27.5t21.5 -43.5t6 -56.5q0 -28 -6 -51.5t-21.5 -40.5t-42 -26.5t-68.5 -9.5q-68 0 -98 35.5t-30 92.5zM380 1751q0 -28 15 -46.5t48 -18.5q42 0 56 18.5t14 46.5q0 32 -14 50.5t-56 18.5q-33 0 -48 -18.5t-15 -50.5z" />
    <glyph glyph-name="Uacute" unicode="&#xda;" horiz-adv-x="888" 
d="M767 1518v-1138q0 -84 -9 -156t-41.5 -125t-96.5 -83.5t-174 -30.5h-1q-73 0 -125 14t-87.5 39t-56.5 61t-32 79.5t-14.5 94.5t-3.5 107v1138h83v-1129q0 -75 5 -135t28 -102.5t70 -66t131 -23.5h3q85 0 133 23t71.5 65.5t28.5 103t5 135.5v1129h83zM619 1843l-144 -238
h-77l128 238h93z" />
    <glyph glyph-name="Ubreve" unicode="&#x16c;" horiz-adv-x="888" 
d="M767 1518v-1138q0 -84 -9 -156t-41.5 -125t-96.5 -83.5t-174 -30.5h-1q-73 0 -125 14t-87.5 39t-56.5 61t-32 79.5t-14.5 94.5t-3.5 107v1138h83v-1129q0 -75 5 -135t28 -102.5t70 -66t131 -23.5h3q85 0 133 23t71.5 65.5t28.5 103t5 135.5v1129h83zM662 1801
q-8 -94 -62.5 -145.5t-156.5 -51.5q-106 0 -160.5 53.5t-59.5 143.5h66q6 -67 45.5 -101t108.5 -34q68 0 107.5 33.5t45.5 101.5h66z" />
    <glyph glyph-name="Ugrave" unicode="&#xd9;" horiz-adv-x="888" 
d="M767 1518v-1138q0 -84 -9 -156t-41.5 -125t-96.5 -83.5t-174 -30.5h-1q-73 0 -125 14t-87.5 39t-56.5 61t-32 79.5t-14.5 94.5t-3.5 107v1138h83v-1129q0 -75 5 -135t28 -102.5t70 -66t131 -23.5h3q85 0 133 23t71.5 65.5t28.5 103t5 135.5v1129h83zM358 1843l127 -238
h-76l-143 238h92z" />
    <glyph glyph-name="Utilde" unicode="&#x168;" horiz-adv-x="888" 
d="M767 1518v-1138q0 -84 -9 -156t-41.5 -125t-96.5 -83.5t-174 -30.5h-1q-73 0 -125 14t-87.5 39t-56.5 61t-32 79.5t-14.5 94.5t-3.5 107v1138h83v-1129q0 -75 5 -135t28 -102.5t70 -66t131 -23.5h3q85 0 133 23t71.5 65.5t28.5 103t5 135.5v1129h83zM678 1769
q-32 -46 -62.5 -68.5t-65.5 -22.5q-32 0 -58 11.5t-49 25t-45.5 25t-46.5 11.5q-25 0 -46.5 -14.5t-45.5 -46.5l-45 35q36 51 67 72.5t68 21.5q30 0 56.5 -11.5t50.5 -26t47 -26t47 -11.5q20 0 39.5 15.5t43.5 44.5z" />
    <glyph glyph-name="Udieresis" unicode="&#xdc;" horiz-adv-x="888" 
d="M767 1518v-1138q0 -84 -9 -156t-41.5 -125t-96.5 -83.5t-174 -30.5h-1q-73 0 -125 14t-87.5 39t-56.5 61t-32 79.5t-14.5 94.5t-3.5 107v1138h83v-1129q0 -75 5 -135t28 -102.5t70 -66t131 -23.5h3q85 0 133 23t71.5 65.5t28.5 103t5 135.5v1129h83zM302 1723
q0 28 13.5 44.5t42.5 16.5q37 0 49 -16.5t12 -44.5q0 -26 -12 -42t-49 -16q-29 0 -42.5 16t-13.5 42zM473 1723q0 28 13.5 44.5t42.5 16.5q37 0 49 -16.5t12 -44.5q0 -26 -12 -42t-49 -16q-29 0 -42.5 16t-13.5 42z" />
    <glyph glyph-name="Ucircumflex" unicode="&#xdb;" horiz-adv-x="888" 
d="M767 1518v-1138q0 -84 -9 -156t-41.5 -125t-96.5 -83.5t-174 -30.5h-1q-73 0 -125 14t-87.5 39t-56.5 61t-32 79.5t-14.5 94.5t-3.5 107v1138h83v-1129q0 -75 5 -135t28 -102.5t70 -66t131 -23.5h3q85 0 133 23t71.5 65.5t28.5 103t5 135.5v1129h83zM265 1604l136 226h90
l136 -226h-88l-93 165l-92 -165h-89z" />
    <glyph glyph-name="ccircumflex" unicode="&#x109;" horiz-adv-x="793" 
d="M629 386h84v-9q0 -40 -1.5 -84.5t-10.5 -88t-27.5 -83.5t-52.5 -70t-86 -48t-127 -18q-77 0 -129.5 20.5t-86.5 55.5t-52 81.5t-26.5 99t-9.5 108t-1 107.5v388q2 71 14 138.5t44.5 119.5t91.5 83.5t155 31.5q77 0 129.5 -18.5t86.5 -49.5t52 -71t26.5 -83.5t9.5 -87
t1 -81.5v-11h-84v9q0 57 -3.5 113.5t-24 101.5t-65.5 72.5t-128 27.5q-80 0 -125 -30.5t-67 -84.5t-26.5 -126.5t-4.5 -156.5v-271q0 -55 1 -107t7 -99q6 -44 19 -81.5t38 -64.5t63 -42t95 -15q79 0 123.5 26t66 69.5t26.5 101t5 120.5v7zM226 1286l136 226h90l136 -226h-88
l-93 165l-92 -165h-89z" />
    <glyph glyph-name="eacute" unicode="&#xe9;" horiz-adv-x="807" 
d="M711 406v-19q0 -45 -1.5 -92t-10.5 -91.5t-27.5 -84.5t-52.5 -69.5t-86 -47t-127 -17.5q-77 0 -130 20.5t-86.5 56t-51.5 82t-26.5 99t-9.5 107.5t-1 107v286q0 54 1.5 110.5t10 109t27 99t52.5 81.5t86 55t128 20q77 0 129.5 -19t86.5 -50t52 -72.5t26.5 -87t9.5 -92.5
t1 -89v-167l-528 -83v-99q0 -79 3.5 -151t24 -126.5t66 -87t129.5 -32.5q80 0 124.5 25t66 68.5t26 103.5t4.5 129v18h84zM406 1140q-81 0 -125.5 -31t-66.5 -84.5t-26.5 -126t-4.5 -156.5v-110l444 70v105q0 64 -3.5 124t-24 106.5t-65.5 74.5t-128 28zM580 1525l-144 -238
h-77l128 238h93z" />
    <glyph glyph-name="ebreve" unicode="&#x115;" horiz-adv-x="807" 
d="M711 406v-19q0 -45 -1.5 -92t-10.5 -91.5t-27.5 -84.5t-52.5 -69.5t-86 -47t-127 -17.5q-77 0 -130 20.5t-86.5 56t-51.5 82t-26.5 99t-9.5 107.5t-1 107v286q0 54 1.5 110.5t10 109t27 99t52.5 81.5t86 55t128 20q77 0 129.5 -19t86.5 -50t52 -72.5t26.5 -87t9.5 -92.5
t1 -89v-167l-528 -83v-99q0 -79 3.5 -151t24 -126.5t66 -87t129.5 -32.5q80 0 124.5 25t66 68.5t26 103.5t4.5 129v18h84zM406 1140q-81 0 -125.5 -31t-66.5 -84.5t-26.5 -126t-4.5 -156.5v-110l444 70v105q0 64 -3.5 124t-24 106.5t-65.5 74.5t-128 28zM618 1483
q-8 -94 -62.5 -145.5t-156.5 -51.5q-106 0 -160.5 53.5t-59.5 143.5h66q6 -67 45.5 -101t108.5 -34q68 0 107.5 33.5t45.5 101.5h66z" />
    <glyph glyph-name="ecaron" unicode="&#x11b;" horiz-adv-x="807" 
d="M711 406v-19q0 -45 -1.5 -92t-10.5 -91.5t-27.5 -84.5t-52.5 -69.5t-86 -47t-127 -17.5q-77 0 -130 20.5t-86.5 56t-51.5 82t-26.5 99t-9.5 107.5t-1 107v286q0 54 1.5 110.5t10 109t27 99t52.5 81.5t86 55t128 20q77 0 129.5 -19t86.5 -50t52 -72.5t26.5 -87t9.5 -92.5
t1 -89v-167l-528 -83v-99q0 -79 3.5 -151t24 -126.5t66 -87t129.5 -32.5q80 0 124.5 25t66 68.5t26 103.5t4.5 129v18h84zM406 1140q-81 0 -125.5 -31t-66.5 -84.5t-26.5 -126t-4.5 -156.5v-110l444 70v105q0 64 -3.5 124t-24 106.5t-65.5 74.5t-128 28zM313 1512l92 -165
l93 165h88l-136 -226h-90l-136 226h89z" />
    <glyph glyph-name="ecircumflex" unicode="&#xea;" horiz-adv-x="807" 
d="M711 406v-19q0 -45 -1.5 -92t-10.5 -91.5t-27.5 -84.5t-52.5 -69.5t-86 -47t-127 -17.5q-77 0 -130 20.5t-86.5 56t-51.5 82t-26.5 99t-9.5 107.5t-1 107v286q0 54 1.5 110.5t10 109t27 99t52.5 81.5t86 55t128 20q77 0 129.5 -19t86.5 -50t52 -72.5t26.5 -87t9.5 -92.5
t1 -89v-167l-528 -83v-99q0 -79 3.5 -151t24 -126.5t66 -87t129.5 -32.5q80 0 124.5 25t66 68.5t26 103.5t4.5 129v18h84zM406 1140q-81 0 -125.5 -31t-66.5 -84.5t-26.5 -126t-4.5 -156.5v-110l444 70v105q0 64 -3.5 124t-24 106.5t-65.5 74.5t-128 28zM224 1286l136 226
h90l136 -226h-88l-93 165l-92 -165h-89z" />
    <glyph glyph-name="edieresis" unicode="&#xeb;" horiz-adv-x="807" 
d="M711 406v-19q0 -45 -1.5 -92t-10.5 -91.5t-27.5 -84.5t-52.5 -69.5t-86 -47t-127 -17.5q-77 0 -130 20.5t-86.5 56t-51.5 82t-26.5 99t-9.5 107.5t-1 107v286q0 54 1.5 110.5t10 109t27 99t52.5 81.5t86 55t128 20q77 0 129.5 -19t86.5 -50t52 -72.5t26.5 -87t9.5 -92.5
t1 -89v-167l-528 -83v-99q0 -79 3.5 -151t24 -126.5t66 -87t129.5 -32.5q80 0 124.5 25t66 68.5t26 103.5t4.5 129v18h84zM406 1140q-81 0 -125.5 -31t-66.5 -84.5t-26.5 -126t-4.5 -156.5v-110l444 70v105q0 64 -3.5 124t-24 106.5t-65.5 74.5t-128 28zM261 1405
q0 28 13.5 44.5t42.5 16.5q37 0 49 -16.5t12 -44.5q0 -26 -12 -42t-49 -16q-29 0 -42.5 16t-13.5 42zM432 1405q0 28 13.5 44.5t42.5 16.5q37 0 49 -16.5t12 -44.5q0 -26 -12 -42t-49 -16q-29 0 -42.5 16t-13.5 42z" />
    <glyph glyph-name="edotaccent" unicode="&#x117;" horiz-adv-x="807" 
d="M711 406v-19q0 -45 -1.5 -92t-10.5 -91.5t-27.5 -84.5t-52.5 -69.5t-86 -47t-127 -17.5q-77 0 -130 20.5t-86.5 56t-51.5 82t-26.5 99t-9.5 107.5t-1 107v286q0 54 1.5 110.5t10 109t27 99t52.5 81.5t86 55t128 20q77 0 129.5 -19t86.5 -50t52 -72.5t26.5 -87t9.5 -92.5
t1 -89v-167l-528 -83v-99q0 -79 3.5 -151t24 -126.5t66 -87t129.5 -32.5q80 0 124.5 25t66 68.5t26 103.5t4.5 129v18h84zM406 1140q-81 0 -125.5 -31t-66.5 -84.5t-26.5 -126t-4.5 -156.5v-110l444 70v105q0 64 -3.5 124t-24 106.5t-65.5 74.5t-128 28zM344 1403
q0 30 14 47t45 17q38 0 51 -17t13 -47q0 -26 -13 -42.5t-51 -16.5q-31 0 -45 16.5t-14 42.5z" />
    <glyph glyph-name="egrave" unicode="&#xe8;" horiz-adv-x="807" 
d="M711 406v-19q0 -45 -1.5 -92t-10.5 -91.5t-27.5 -84.5t-52.5 -69.5t-86 -47t-127 -17.5q-77 0 -130 20.5t-86.5 56t-51.5 82t-26.5 99t-9.5 107.5t-1 107v286q0 54 1.5 110.5t10 109t27 99t52.5 81.5t86 55t128 20q77 0 129.5 -19t86.5 -50t52 -72.5t26.5 -87t9.5 -92.5
t1 -89v-167l-528 -83v-99q0 -79 3.5 -151t24 -126.5t66 -87t129.5 -32.5q80 0 124.5 25t66 68.5t26 103.5t4.5 129v18h84zM406 1140q-81 0 -125.5 -31t-66.5 -84.5t-26.5 -126t-4.5 -156.5v-110l444 70v105q0 64 -3.5 124t-24 106.5t-65.5 74.5t-128 28zM316 1525l127 -238
h-76l-143 238h92z" />
    <glyph glyph-name="emacron" unicode="&#x113;" horiz-adv-x="807" 
d="M711 406v-19q0 -45 -1.5 -92t-10.5 -91.5t-27.5 -84.5t-52.5 -69.5t-86 -47t-127 -17.5q-77 0 -130 20.5t-86.5 56t-51.5 82t-26.5 99t-9.5 107.5t-1 107v286q0 54 1.5 110.5t10 109t27 99t52.5 81.5t86 55t128 20q77 0 129.5 -19t86.5 -50t52 -72.5t26.5 -87t9.5 -92.5
t1 -89v-167l-528 -83v-99q0 -79 3.5 -151t24 -126.5t66 -87t129.5 -32.5q80 0 124.5 25t66 68.5t26 103.5t4.5 129v18h84zM406 1140q-81 0 -125.5 -31t-66.5 -84.5t-26.5 -126t-4.5 -156.5v-110l444 70v105q0 64 -3.5 124t-24 106.5t-65.5 74.5t-128 28zM214 1401v76h382
v-76h-382z" />
    <glyph glyph-name="eogonek" unicode="&#x119;" horiz-adv-x="807" 
d="M711 406v-19q0 -45 -1.5 -92t-10.5 -91.5t-27.5 -84.5t-52.5 -69.5t-86 -47t-127 -17.5q-77 0 -130 20.5t-86.5 56t-51.5 82t-26.5 99t-9.5 107.5t-1 107v286q0 54 1.5 110.5t10 109t27 99t52.5 81.5t86 55t128 20q77 0 129.5 -19t86.5 -50t52 -72.5t26.5 -87t9.5 -92.5
t1 -89v-167l-528 -83v-99q0 -79 3.5 -151t24 -126.5t66 -87t129.5 -32.5q80 0 124.5 25t66 68.5t26 103.5t4.5 129v18h84zM406 1140q-81 0 -125.5 -31t-66.5 -84.5t-26.5 -126t-4.5 -156.5v-110l444 70v105q0 64 -3.5 124t-24 106.5t-65.5 74.5t-128 28zM720 -276
q-15 -13 -43 -21.5t-66 -8.5q-32 0 -61 9.5t-51.5 30.5t-36 54t-13.5 81t12 84t31 61.5t41 42.5t43 28l55 -25q-18 -12 -36 -28.5t-33 -39.5t-24 -52.5t-9 -67.5q0 -51 22.5 -79.5t73.5 -28.5q32 0 53 6t35 14z" />
    <glyph glyph-name="oacute" unicode="&#xf3;" horiz-adv-x="810" 
d="M404 1218q77 0 129.5 -21t86.5 -56t52 -82t26.5 -99.5t9.5 -107.5t1 -107v-286q0 -54 -1.5 -110.5t-10 -109t-27 -98.5t-52.5 -80.5t-86 -55t-128 -20.5q-77 0 -130 20.5t-86.5 56t-51.5 82t-26.5 99t-9.5 107.5t-1 107v286q0 54 1.5 110.5t10 109t27 99t52.5 81t85.5 55
t127.5 20.5h1zM404 1140q-80 0 -125 -30.5t-66.5 -84.5t-26 -126.5t-4.5 -156.5v-283q0 -52 1 -102t7 -94t19 -81t38 -63.5t63 -41.5t94 -15q80 0 124.5 31t66 84.5t26 126.5t4.5 157v283q0 79 -3 150.5t-23.5 126t-65.5 87t-129 32.5zM576 1525l-144 -238h-77l128 238h93z
" />
    <glyph glyph-name="obreve" unicode="&#x14f;" horiz-adv-x="810" 
d="M404 1218q77 0 129.5 -21t86.5 -56t52 -82t26.5 -99.5t9.5 -107.5t1 -107v-286q0 -54 -1.5 -110.5t-10 -109t-27 -98.5t-52.5 -80.5t-86 -55t-128 -20.5q-77 0 -130 20.5t-86.5 56t-51.5 82t-26.5 99t-9.5 107.5t-1 107v286q0 54 1.5 110.5t10 109t27 99t52.5 81t85.5 55
t127.5 20.5h1zM404 1140q-80 0 -125 -30.5t-66.5 -84.5t-26 -126.5t-4.5 -156.5v-283q0 -52 1 -102t7 -94t19 -81t38 -63.5t63 -41.5t94 -15q80 0 124.5 31t66 84.5t26 126.5t4.5 157v283q0 79 -3 150.5t-23.5 126t-65.5 87t-129 32.5zM613 1483q-8 -94 -62.5 -145.5
t-156.5 -51.5q-106 0 -160.5 53.5t-59.5 143.5h66q6 -67 45.5 -101t108.5 -34q68 0 107.5 33.5t45.5 101.5h66z" />
    <glyph glyph-name="ocircumflex" unicode="&#xf4;" horiz-adv-x="810" 
d="M404 1218q77 0 129.5 -21t86.5 -56t52 -82t26.5 -99.5t9.5 -107.5t1 -107v-286q0 -54 -1.5 -110.5t-10 -109t-27 -98.5t-52.5 -80.5t-86 -55t-128 -20.5q-77 0 -130 20.5t-86.5 56t-51.5 82t-26.5 99t-9.5 107.5t-1 107v286q0 54 1.5 110.5t10 109t27 99t52.5 81t85.5 55
t127.5 20.5h1zM404 1140q-80 0 -125 -30.5t-66.5 -84.5t-26 -126.5t-4.5 -156.5v-283q0 -52 1 -102t7 -94t19 -81t38 -63.5t63 -41.5t94 -15q80 0 124.5 31t66 84.5t26 126.5t4.5 157v283q0 79 -3 150.5t-23.5 126t-65.5 87t-129 32.5zM212 1286l136 226h90l136 -226h-88
l-93 165l-92 -165h-89z" />
    <glyph glyph-name="odieresis" unicode="&#xf6;" horiz-adv-x="810" 
d="M404 1218q77 0 129.5 -21t86.5 -56t52 -82t26.5 -99.5t9.5 -107.5t1 -107v-286q0 -54 -1.5 -110.5t-10 -109t-27 -98.5t-52.5 -80.5t-86 -55t-128 -20.5q-77 0 -130 20.5t-86.5 56t-51.5 82t-26.5 99t-9.5 107.5t-1 107v286q0 54 1.5 110.5t10 109t27 99t52.5 81t85.5 55
t127.5 20.5h1zM404 1140q-80 0 -125 -30.5t-66.5 -84.5t-26 -126.5t-4.5 -156.5v-283q0 -52 1 -102t7 -94t19 -81t38 -63.5t63 -41.5t94 -15q80 0 124.5 31t66 84.5t26 126.5t4.5 157v283q0 79 -3 150.5t-23.5 126t-65.5 87t-129 32.5zM239 1405q0 28 13.5 44.5t42.5 16.5
q37 0 49 -16.5t12 -44.5q0 -26 -12 -42t-49 -16q-29 0 -42.5 16t-13.5 42zM410 1405q0 28 13.5 44.5t42.5 16.5q37 0 49 -16.5t12 -44.5q0 -26 -12 -42t-49 -16q-29 0 -42.5 16t-13.5 42z" />
    <glyph glyph-name="ograve" unicode="&#xf2;" horiz-adv-x="810" 
d="M404 1218q77 0 129.5 -21t86.5 -56t52 -82t26.5 -99.5t9.5 -107.5t1 -107v-286q0 -54 -1.5 -110.5t-10 -109t-27 -98.5t-52.5 -80.5t-86 -55t-128 -20.5q-77 0 -130 20.5t-86.5 56t-51.5 82t-26.5 99t-9.5 107.5t-1 107v286q0 54 1.5 110.5t10 109t27 99t52.5 81t85.5 55
t127.5 20.5h1zM404 1140q-80 0 -125 -30.5t-66.5 -84.5t-26 -126.5t-4.5 -156.5v-283q0 -52 1 -102t7 -94t19 -81t38 -63.5t63 -41.5t94 -15q80 0 124.5 31t66 84.5t26 126.5t4.5 157v283q0 79 -3 150.5t-23.5 126t-65.5 87t-129 32.5zM308 1525l127 -238h-76l-143 238h92z
" />
    <glyph glyph-name="ohungarumlaut" unicode="&#x151;" horiz-adv-x="810" 
d="M404 1218q77 0 129.5 -21t86.5 -56t52 -82t26.5 -99.5t9.5 -107.5t1 -107v-286q0 -54 -1.5 -110.5t-10 -109t-27 -98.5t-52.5 -80.5t-86 -55t-128 -20.5q-77 0 -130 20.5t-86.5 56t-51.5 82t-26.5 99t-9.5 107.5t-1 107v286q0 54 1.5 110.5t10 109t27 99t52.5 81t85.5 55
t127.5 20.5h1zM404 1140q-80 0 -125 -30.5t-66.5 -84.5t-26 -126.5t-4.5 -156.5v-283q0 -52 1 -102t7 -94t19 -81t38 -63.5t63 -41.5t94 -15q80 0 124.5 31t66 84.5t26 126.5t4.5 157v283q0 79 -3 150.5t-23.5 126t-65.5 87t-129 32.5zM422 1525l-142 -238h-77l127 238h92z
M593 1525l-143 -238h-76l127 238h92z" />
    <glyph glyph-name="omacron" unicode="&#x14d;" horiz-adv-x="810" 
d="M404 1218q77 0 129.5 -21t86.5 -56t52 -82t26.5 -99.5t9.5 -107.5t1 -107v-286q0 -54 -1.5 -110.5t-10 -109t-27 -98.5t-52.5 -80.5t-86 -55t-128 -20.5q-77 0 -130 20.5t-86.5 56t-51.5 82t-26.5 99t-9.5 107.5t-1 107v286q0 54 1.5 110.5t10 109t27 99t52.5 81t85.5 55
t127.5 20.5h1zM404 1140q-80 0 -125 -30.5t-66.5 -84.5t-26 -126.5t-4.5 -156.5v-283q0 -52 1 -102t7 -94t19 -81t38 -63.5t63 -41.5t94 -15q80 0 124.5 31t66 84.5t26 126.5t4.5 157v283q0 79 -3 150.5t-23.5 126t-65.5 87t-129 32.5zM204 1401v76h382v-76h-382z" />
    <glyph glyph-name="otilde" unicode="&#xf5;" horiz-adv-x="810" 
d="M404 1218q77 0 129.5 -21t86.5 -56t52 -82t26.5 -99.5t9.5 -107.5t1 -107v-286q0 -54 -1.5 -110.5t-10 -109t-27 -98.5t-52.5 -80.5t-86 -55t-128 -20.5q-77 0 -130 20.5t-86.5 56t-51.5 82t-26.5 99t-9.5 107.5t-1 107v286q0 54 1.5 110.5t10 109t27 99t52.5 81t85.5 55
t127.5 20.5h1zM404 1140q-80 0 -125 -30.5t-66.5 -84.5t-26 -126.5t-4.5 -156.5v-283q0 -52 1 -102t7 -94t19 -81t38 -63.5t63 -41.5t94 -15q80 0 124.5 31t66 84.5t26 126.5t4.5 157v283q0 79 -3 150.5t-23.5 126t-65.5 87t-129 32.5zM626 1451q-32 -46 -62.5 -68.5
t-65.5 -22.5q-32 0 -58 11.5t-49 25t-45.5 25t-46.5 11.5q-25 0 -46.5 -14.5t-45.5 -46.5l-45 35q36 51 67 72.5t68 21.5q30 0 56.5 -11.5t50.5 -26t47 -26t47 -11.5q20 0 39.5 15.5t43.5 44.5z" />
    <glyph glyph-name="aogonek" unicode="&#x105;" horiz-adv-x="857" 
d="M633 0v151q-12 -36 -30.5 -66.5t-46 -53t-65 -35t-86.5 -12.5q-96 0 -155.5 31.5t-92.5 83t-44.5 116t-11.5 130.5q0 37 2 76t10.5 76t27.5 69.5t52.5 57t85 39t125.5 14.5q43 0 77 -3.5t61.5 -9.5t49 -14t41.5 -17v109q0 84 -4.5 156.5t-26.5 126.5t-66.5 84.5
t-124.5 30.5q-72 0 -114.5 -27.5t-64 -72.5t-27.5 -101.5t-6 -113.5v-9h-84v11q0 38 2.5 81.5t12 87t28 83.5t51.5 71t82.5 49.5t119.5 18.5q96 0 156 -31.5t93 -83.5t45 -119.5t12 -138.5v-845h-84zM411 62q70 0 113.5 28.5t67.5 77.5t32.5 113.5t8.5 135.5v133
q-18 14 -38.5 24t-46.5 17t-59 10t-78 3q-80 0 -125.5 -23.5t-68 -60.5t-28 -83t-5.5 -91q0 -60 9.5 -112t35 -90.5t69.5 -60t113 -21.5zM806 -336q-15 -13 -43 -21.5t-66 -8.5q-32 0 -61 9.5t-51.5 30.5t-36 54t-13.5 81t12 84t31 61.5t41 42.5t43 28l55 -25
q-18 -12 -36 -28.5t-33 -39.5t-24 -52.5t-9 -67.5q0 -51 22.5 -79.5t73.5 -28.5q32 0 53 6t35 14z" />
    <glyph glyph-name="aring" unicode="&#xe5;" horiz-adv-x="857" 
d="M633 0v151q-12 -36 -30.5 -66.5t-46 -53t-65 -35t-86.5 -12.5q-96 0 -155.5 31.5t-92.5 83t-44.5 116t-11.5 130.5q0 37 2 76t10.5 76t27.5 69.5t52.5 57t85 39t125.5 14.5q43 0 77 -3.5t61.5 -9.5t49 -14t41.5 -17v109q0 84 -4.5 156.5t-26.5 126.5t-66.5 84.5
t-124.5 30.5q-72 0 -114.5 -27.5t-64 -72.5t-27.5 -101.5t-6 -113.5v-9h-84v11q0 38 2.5 81.5t12 87t28 83.5t51.5 71t82.5 49.5t119.5 18.5q96 0 156 -31.5t93 -83.5t45 -119.5t12 -138.5v-845h-84zM411 62q70 0 113.5 28.5t67.5 77.5t32.5 113.5t8.5 135.5v133
q-18 14 -38.5 24t-46.5 17t-59 10t-78 3q-80 0 -125.5 -23.5t-68 -60.5t-28 -83t-5.5 -91q0 -60 9.5 -112t35 -90.5t69.5 -60t113 -21.5zM289 1431q0 63 30 100t98 37q42 0 68.5 -9.5t42 -27.5t21.5 -43.5t6 -56.5q0 -28 -6 -51.5t-21.5 -40.5t-42 -26.5t-68.5 -9.5
q-68 0 -98 35.5t-30 92.5zM356 1433q0 -28 15 -46.5t48 -18.5q42 0 56 18.5t14 46.5q0 32 -14 50.5t-56 18.5q-33 0 -48 -18.5t-15 -50.5z" />
    <glyph glyph-name="agrave" unicode="&#xe0;" horiz-adv-x="857" 
d="M633 0v151q-12 -36 -30.5 -66.5t-46 -53t-65 -35t-86.5 -12.5q-96 0 -155.5 31.5t-92.5 83t-44.5 116t-11.5 130.5q0 37 2 76t10.5 76t27.5 69.5t52.5 57t85 39t125.5 14.5q43 0 77 -3.5t61.5 -9.5t49 -14t41.5 -17v109q0 84 -4.5 156.5t-26.5 126.5t-66.5 84.5
t-124.5 30.5q-72 0 -114.5 -27.5t-64 -72.5t-27.5 -101.5t-6 -113.5v-9h-84v11q0 38 2.5 81.5t12 87t28 83.5t51.5 71t82.5 49.5t119.5 18.5q96 0 156 -31.5t93 -83.5t45 -119.5t12 -138.5v-845h-84zM411 62q70 0 113.5 28.5t67.5 77.5t32.5 113.5t8.5 135.5v133
q-18 14 -38.5 24t-46.5 17t-59 10t-78 3q-80 0 -125.5 -23.5t-68 -60.5t-28 -83t-5.5 -91q0 -60 9.5 -112t35 -90.5t69.5 -60t113 -21.5zM331 1525l127 -238h-76l-143 238h92z" />
    <glyph glyph-name="atilde" unicode="&#xe3;" horiz-adv-x="857" 
d="M633 0v151q-12 -36 -30.5 -66.5t-46 -53t-65 -35t-86.5 -12.5q-96 0 -155.5 31.5t-92.5 83t-44.5 116t-11.5 130.5q0 37 2 76t10.5 76t27.5 69.5t52.5 57t85 39t125.5 14.5q43 0 77 -3.5t61.5 -9.5t49 -14t41.5 -17v109q0 84 -4.5 156.5t-26.5 126.5t-66.5 84.5
t-124.5 30.5q-72 0 -114.5 -27.5t-64 -72.5t-27.5 -101.5t-6 -113.5v-9h-84v11q0 38 2.5 81.5t12 87t28 83.5t51.5 71t82.5 49.5t119.5 18.5q96 0 156 -31.5t93 -83.5t45 -119.5t12 -138.5v-845h-84zM411 62q70 0 113.5 28.5t67.5 77.5t32.5 113.5t8.5 135.5v133
q-18 14 -38.5 24t-46.5 17t-59 10t-78 3q-80 0 -125.5 -23.5t-68 -60.5t-28 -83t-5.5 -91q0 -60 9.5 -112t35 -90.5t69.5 -60t113 -21.5zM654 1451q-32 -46 -62.5 -68.5t-65.5 -22.5q-32 0 -58 11.5t-49 25t-45.5 25t-46.5 11.5q-25 0 -46.5 -14.5t-45.5 -46.5l-45 35
q36 51 67 72.5t68 21.5q30 0 56.5 -11.5t50.5 -26t47 -26t47 -11.5q20 0 39.5 15.5t43.5 44.5z" />
    <glyph glyph-name="amacron" unicode="&#x101;" horiz-adv-x="857" 
d="M633 0v151q-12 -36 -30.5 -66.5t-46 -53t-65 -35t-86.5 -12.5q-96 0 -155.5 31.5t-92.5 83t-44.5 116t-11.5 130.5q0 37 2 76t10.5 76t27.5 69.5t52.5 57t85 39t125.5 14.5q43 0 77 -3.5t61.5 -9.5t49 -14t41.5 -17v109q0 84 -4.5 156.5t-26.5 126.5t-66.5 84.5
t-124.5 30.5q-72 0 -114.5 -27.5t-64 -72.5t-27.5 -101.5t-6 -113.5v-9h-84v11q0 38 2.5 81.5t12 87t28 83.5t51.5 71t82.5 49.5t119.5 18.5q96 0 156 -31.5t93 -83.5t45 -119.5t12 -138.5v-845h-84zM411 62q70 0 113.5 28.5t67.5 77.5t32.5 113.5t8.5 135.5v133
q-18 14 -38.5 24t-46.5 17t-59 10t-78 3q-80 0 -125.5 -23.5t-68 -60.5t-28 -83t-5.5 -91q0 -60 9.5 -112t35 -90.5t69.5 -60t113 -21.5zM231 1401v76h382v-76h-382z" />
    <glyph glyph-name="adieresis" unicode="&#xe4;" horiz-adv-x="857" 
d="M633 0v151q-12 -36 -30.5 -66.5t-46 -53t-65 -35t-86.5 -12.5q-96 0 -155.5 31.5t-92.5 83t-44.5 116t-11.5 130.5q0 37 2 76t10.5 76t27.5 69.5t52.5 57t85 39t125.5 14.5q43 0 77 -3.5t61.5 -9.5t49 -14t41.5 -17v109q0 84 -4.5 156.5t-26.5 126.5t-66.5 84.5
t-124.5 30.5q-72 0 -114.5 -27.5t-64 -72.5t-27.5 -101.5t-6 -113.5v-9h-84v11q0 38 2.5 81.5t12 87t28 83.5t51.5 71t82.5 49.5t119.5 18.5q96 0 156 -31.5t93 -83.5t45 -119.5t12 -138.5v-845h-84zM411 62q70 0 113.5 28.5t67.5 77.5t32.5 113.5t8.5 135.5v133
q-18 14 -38.5 24t-46.5 17t-59 10t-78 3q-80 0 -125.5 -23.5t-68 -60.5t-28 -83t-5.5 -91q0 -60 9.5 -112t35 -90.5t69.5 -60t113 -21.5zM277 1405q0 28 13.5 44.5t42.5 16.5q37 0 49 -16.5t12 -44.5q0 -26 -12 -42t-49 -16q-29 0 -42.5 16t-13.5 42zM448 1405
q0 28 13.5 44.5t42.5 16.5q37 0 49 -16.5t12 -44.5q0 -26 -12 -42t-49 -16q-29 0 -42.5 16t-13.5 42z" />
    <glyph glyph-name="acircumflex" unicode="&#xe2;" horiz-adv-x="857" 
d="M633 0v151q-12 -36 -30.5 -66.5t-46 -53t-65 -35t-86.5 -12.5q-96 0 -155.5 31.5t-92.5 83t-44.5 116t-11.5 130.5q0 37 2 76t10.5 76t27.5 69.5t52.5 57t85 39t125.5 14.5q43 0 77 -3.5t61.5 -9.5t49 -14t41.5 -17v109q0 84 -4.5 156.5t-26.5 126.5t-66.5 84.5
t-124.5 30.5q-72 0 -114.5 -27.5t-64 -72.5t-27.5 -101.5t-6 -113.5v-9h-84v11q0 38 2.5 81.5t12 87t28 83.5t51.5 71t82.5 49.5t119.5 18.5q96 0 156 -31.5t93 -83.5t45 -119.5t12 -138.5v-845h-84zM411 62q70 0 113.5 28.5t67.5 77.5t32.5 113.5t8.5 135.5v133
q-18 14 -38.5 24t-46.5 17t-59 10t-78 3q-80 0 -125.5 -23.5t-68 -60.5t-28 -83t-5.5 -91q0 -60 9.5 -112t35 -90.5t69.5 -60t113 -21.5zM241 1286l136 226h90l136 -226h-88l-93 165l-92 -165h-89z" />
    <glyph glyph-name="e.fat" horiz-adv-x="893" 
d="M447 1218q77 0 129.5 -19t86.5 -50t52 -72.5t26.5 -87t9.5 -92.5t1 -89v-412q0 -45 -1.5 -92.5t-10 -93t-27 -86.5t-52.5 -72t-86 -49t-128 -18q-77 0 -130 20.5t-86.5 56t-51.5 82t-26.5 99t-9.5 107.5t-1 107v286q0 54 1.5 110.5t10.5 109t27.5 99t52 81t85.5 55
t127 20.5h1zM447 62q80 0 125 26.5t66.5 72t26 106.5t4.5 130v231l-445 -70v-99q0 -79 3.5 -151t24 -126.5t66 -87t129.5 -32.5zM447 1140q-80 0 -125 -31t-67 -84.5t-26.5 -126t-4.5 -156.5v-110l445 71v104q0 64 -3.5 124t-24 106.5t-65.5 74.5t-129 28z" />
    <glyph glyph-name="ibreve" unicode="&#x12d;" horiz-adv-x="374" 
d="M147 0v1202h84v-1202h-84zM411 1483q-8 -94 -62.5 -145.5t-156.5 -51.5q-106 0 -160.5 53.5t-59.5 143.5h66q6 -67 45.5 -101t108.5 -34q68 0 107.5 33.5t45.5 101.5h66z" />
    <glyph glyph-name="icircumflex" unicode="&#xee;" horiz-adv-x="374" 
d="M147 0v1202h84v-1202h-84zM9 1286l136 226h90l136 -226h-88l-93 165l-92 -165h-89z" />
    <glyph glyph-name="idieresis" unicode="&#xef;" horiz-adv-x="374" 
d="M147 0v1202h84v-1202h-84zM46 1405q0 28 13.5 44.5t42.5 16.5q37 0 49 -16.5t12 -44.5q0 -26 -12 -42t-49 -16q-29 0 -42.5 16t-13.5 42zM217 1405q0 28 13.5 44.5t42.5 16.5q37 0 49 -16.5t12 -44.5q0 -26 -12 -42t-49 -16q-29 0 -42.5 16t-13.5 42z" />
    <glyph glyph-name="igrave" unicode="&#xec;" horiz-adv-x="374" 
d="M147 0v1202h84v-1202h-84zM99 1525l127 -238h-76l-143 238h92z" />
    <glyph glyph-name="ij" unicode="&#x133;" horiz-adv-x="744" 
d="M145 1517q0 24 13 38.5t42 14.5q34 0 47 -14.5t13 -38.5q0 -23 -13 -36.5t-47 -13.5q-29 0 -42 13.5t-13 36.5zM158 0v1202h84v-1202h-84zM480 1517q0 24 13 38.5t42 14.5q34 0 47 -14.5t13 -38.5q0 -23 -13 -36.5t-47 -13.5q-29 0 -42 13.5t-13 36.5zM581 1202v-1212
q0 -97 -5.5 -171.5t-29.5 -125.5t-72 -77t-133 -26q-52 0 -92.5 14.5t-60.5 25.5l12 70q9 -5 25 -10.5t35 -10.5t40.5 -8.5t42.5 -3.5q57 1 88 17t45.5 53.5t17.5 99t3 153.5v1212h84z" />
    <glyph glyph-name="imacron" unicode="&#x12b;" horiz-adv-x="374" 
d="M147 0v1202h84v-1202h-84zM0 1401v76h382v-76h-382z" />
    <glyph glyph-name="iogonek" unicode="&#x12f;" horiz-adv-x="374" 
d="M134 1517q0 24 13 38.5t42 14.5q34 0 47 -14.5t13 -38.5q0 -23 -13 -36.5t-47 -13.5q-29 0 -42 13.5t-13 36.5zM147 0v1202h84v-1202h-84zM321 -336q-15 -13 -43 -21.5t-66 -8.5q-32 0 -61 9.5t-51.5 30.5t-36 54t-13.5 81t12 84t31 61.5t41 42.5t43 28l55 -25
q-18 -12 -36 -28.5t-33 -39.5t-24 -52.5t-9 -67.5q0 -51 22.5 -79.5t73.5 -28.5q32 0 53 6t35 14z" />
    <glyph glyph-name="itilde" unicode="&#x129;" horiz-adv-x="374" 
d="M147 0v1202h84v-1202h-84zM423 1451q-32 -46 -62.5 -68.5t-65.5 -22.5q-32 0 -58 11.5t-49 25t-45.5 25t-46.5 11.5q-25 0 -46.5 -14.5t-45.5 -46.5l-45 35q36 51 67 72.5t68 21.5q30 0 56.5 -11.5t50.5 -26t47 -26t47 -11.5q20 0 39.5 15.5t43.5 44.5z" />
    <glyph glyph-name="jcircumflex" unicode="&#x135;" horiz-adv-x="377" 
d="M9 1286l136 226h90l136 -226h-88l-93 165l-92 -165h-89zM231 1202v-1212q0 -97 -5.5 -171.5t-29 -125.5t-71.5 -77t-133 -26q-26 0 -49.5 4t-43.5 10t-35.5 13t-25.5 13l13 70q9 -5 24.5 -10.5t35 -10.5t41 -8.5t42.5 -3.5q57 1 88 17t45.5 53.5t17.5 99t3 153.5v1212h83
z" />
    <glyph glyph-name="nacute" unicode="&#x144;" horiz-adv-x="883" 
d="M675 0v744v50q0 70 -4.5 132.5t-25.5 110t-64 75.5t-120 28q-51 0 -88 -17.5t-62.5 -48t-41 -72t-24 -91t-11.5 -104t-3 -110.5v-697h-84v1202h84v-161q12 36 34 68t53 56t71.5 38t89.5 14q66 0 112.5 -17t77.5 -46.5t48.5 -69t26.5 -85t11 -95t2 -97.5v-62v-745h-82z
M634 1525l-144 -238h-77l128 238h93z" />
    <glyph glyph-name="ncaron" unicode="&#x148;" horiz-adv-x="883" 
d="M675 0v744v50q0 70 -4.5 132.5t-25.5 110t-64 75.5t-120 28q-51 0 -88 -17.5t-62.5 -48t-41 -72t-24 -91t-11.5 -104t-3 -110.5v-697h-84v1202h84v-161q12 36 34 68t53 56t71.5 38t89.5 14q66 0 112.5 -17t77.5 -46.5t48.5 -69t26.5 -85t11 -95t2 -97.5v-62v-745h-82z
M377 1512l92 -165l93 165h88l-136 -226h-90l-136 226h89z" />
    <glyph glyph-name="ntilde" unicode="&#xf1;" horiz-adv-x="883" 
d="M675 0v744v50q0 70 -4.5 132.5t-25.5 110t-64 75.5t-120 28q-51 0 -88 -17.5t-62.5 -48t-41 -72t-24 -91t-11.5 -104t-3 -110.5v-697h-84v1202h84v-161q12 36 34 68t53 56t71.5 38t89.5 14q66 0 112.5 -17t77.5 -46.5t48.5 -69t26.5 -85t11 -95t2 -97.5v-62v-745h-82z
M691 1451q-32 -46 -62.5 -68.5t-65.5 -22.5q-32 0 -58 11.5t-49 25t-45.5 25t-46.5 11.5q-25 0 -46.5 -14.5t-45.5 -46.5l-45 35q36 51 67 72.5t68 21.5q30 0 56.5 -11.5t50.5 -26t47 -26t47 -11.5q20 0 39.5 15.5t43.5 44.5z" />
    <glyph glyph-name="napostrophe" unicode="&#x149;" horiz-adv-x="938" 
d="M713 0v744v50q0 70 -4.5 132.5t-25.5 110t-64 75.5t-120 28q-51 0 -88 -17.5t-62.5 -48t-41 -72t-24 -91t-11.5 -104t-3 -110.5v-697h-84v1202h84v-161q12 36 34 68t53 56t71.5 38t89.5 14q66 0 112.5 -17t77.5 -46.5t48.5 -69t26.5 -85t11 -95t2 -97.5v-62v-745h-82z
M-10 1157q0 60 56 60q36 0 50 -21t14 -50q0 -66 -18 -112t-34 -76l-44 20q18 38 26 64.5t11 58.5q-61 0 -61 56z" />
    <glyph glyph-name="ncommaaccent" unicode="&#x146;" horiz-adv-x="883" 
d="M675 0v744v50q0 70 -4.5 132.5t-25.5 110t-64 75.5t-120 28q-51 0 -88 -17.5t-62.5 -48t-41 -72t-24 -91t-11.5 -104t-3 -110.5v-697h-84v1202h84v-161q12 36 34 68t53 56t71.5 38t89.5 14q66 0 112.5 -17t77.5 -46.5t48.5 -69t26.5 -85t11 -95t2 -97.5v-62v-745h-82z
M399 -120q0 60 56 60q36 0 50 -21t14 -50q0 -66 -18 -112t-34 -76l-44 20q18 38 26 64.5t11 58.5q-61 0 -61 56z" />
    <glyph glyph-name="iotadieresistonos" unicode="&#x390;" horiz-adv-x="374" 
d="M147 0v1202h84v-1202h-84zM237 1596l-10 -238h-74l-6 238h90zM0 1394q0 28 13.5 44.5t42.5 16.5q37 0 49 -16.5t12 -44.5q0 -26 -12 -42t-49 -16q-29 0 -42.5 16t-13.5 42zM260 1394q0 28 13.5 44.5t42.5 16.5q37 0 49 -16.5t12 -44.5q0 -26 -12 -42t-49 -16
q-29 0 -42.5 16t-13.5 42z" />
    <glyph glyph-name="iotatonos" unicode="&#x3af;" horiz-adv-x="374" 
d="M147 0v1202h84v-1202h-84zM239 1527l-11 -238h-75l-5 238h91z" />
    <glyph glyph-name="upsilondieresistonos" unicode="&#x3b0;" horiz-adv-x="877" 
d="M746 1202v-822q0 -81 -8 -151t-37.5 -122.5t-87.5 -84.5t-157 -36q0 -1 -1 -1q-4 0 -7.5 0.5t-7.5 0.5t-7 -0.5t-7 -0.5q-1 0 -2 1q-99 4 -157 36t-87.5 84.5t-37.5 122.5t-8 151v822h83v-813q0 -73 4.5 -132.5t26.5 -102t66 -66.5t124 -26q81 1 126 25t67 66.5t27 102
t5 133.5v813h83zM494 1596l-10 -238h-74l-6 238h90zM257 1394q0 28 13.5 44.5t42.5 16.5q37 0 49 -16.5t12 -44.5q0 -26 -12 -42t-49 -16q-29 0 -42.5 16t-13.5 42zM517 1394q0 28 13.5 44.5t42.5 16.5q37 0 49 -16.5t12 -44.5q0 -26 -12 -42t-49 -16q-29 0 -42.5 16
t-13.5 42z" />
    <glyph glyph-name="afii10075" unicode="&#x439;" horiz-adv-x="900" 
d="M145 0v1202h85v-1098h14l366 1098h153l-9 -1202h-84v1113h-8l-366 -1113h-151zM685 1483q-7 -94 -62 -145.5t-157 -51.5q-106 0 -160.5 53.5t-59.5 143.5h66q6 -67 45.5 -101t108.5 -34q68 0 107.5 33.5t45.5 101.5h66z" />
    <glyph glyph-name="kcommaaccent" unicode="&#x137;" horiz-adv-x="786" 
d="M229 1567v-928h116l307 563h90l-330 -600l373 -602h-93l-351 561h-112v-561h-84v1567h84zM398 -120q0 60 56 60q36 0 50 -21t14 -50q0 -66 -18 -112t-34 -76l-44 20q18 38 26 64.5t11 58.5q-61 0 -61 56z" />
    <glyph glyph-name="ldot" unicode="&#x140;" horiz-adv-x="377" 
d="M126 1841q0 30 14 47t45 17q38 0 51 -17t13 -47q0 -26 -13 -42.5t-51 -16.5q-31 0 -45 16.5t-14 42.5zM145 0v1567h84v-1567h-84z" />
    <glyph glyph-name="lacute" unicode="&#x13a;" horiz-adv-x="377" 
d="M145 0v1567h84v-1567h-84zM373 1892l-144 -238h-77l128 238h93z" />
    <glyph glyph-name="lcaron" unicode="&#x13e;" horiz-adv-x="377" 
d="M98 1892l92 -165l93 165h88l-136 -226h-90l-136 226h89zM145 0v1567h84v-1567h-84z" />
    <glyph glyph-name="lcommaaccent" unicode="&#x13c;" horiz-adv-x="377" 
d="M145 0v1567h84v-1567h-84zM129 -120q0 60 56 60q36 0 50 -21t14 -50q0 -66 -18 -112t-34 -76l-44 20q18 38 26 64.5t11 58.5q-61 0 -61 56z" />
    <glyph glyph-name="hbar" unicode="&#x127;" horiz-adv-x="883" 
d="M675 0v744q0 78 -3.5 149.5t-24 126t-66 87.5t-129.5 33q-51 0 -87 -17.5t-61 -48t-39 -72t-22 -91t-10 -104t-2 -110.5v-697h-84v1567h84v-517q12 36 31.5 66.5t49 53t68 35t87.5 12.5q74 0 124 -20.5t82.5 -56t49.5 -82t24.5 -99t8.5 -107.5t1 -107v-745h-82zM63 1369
v76h382v-76h-382z" />
    <glyph glyph-name="rcommaaccent" unicode="&#x157;" horiz-adv-x="535" 
d="M532 1129q-15 3 -33.5 6.5t-40.5 4.5h-3q-74 0 -118 -32t-67 -85.5t-30 -124t-8 -147.5v-751h-84v1202h84v-152q12 36 30.5 67t46 53.5t64.5 35t86 12.5h1q18 0 36 -2.5t34 -6.5zM132 -120q0 60 56 60q36 0 50 -21t14 -50q0 -66 -18 -112t-34 -76l-44 20q18 38 26 64.5
t11 58.5q-61 0 -61 56z" />
    <glyph glyph-name="afii10109" unicode="&#x45c;" horiz-adv-x="810" 
d="M201 1201v-562h116l307 563h90l-330 -600l373 -602h-93l-351 561h-112v-561h-84v1201h84zM569 1525l-144 -238h-77l128 238h93z" />
    <glyph glyph-name="wacute" unicode="&#x1e83;" horiz-adv-x="1087" 
d="M28 1202h86l176 -1126h14l175 1126h144l175 -1126h14l175 1126h86l-193 -1202h-150l-177 1126h-5l-177 -1126h-150zM753 1525l-144 -238h-77l128 238h93z" />
    <glyph glyph-name="wgrave" unicode="&#x1e81;" horiz-adv-x="1087" 
d="M28 1202h86l176 -1126h14l175 1126h144l175 -1126h14l175 1126h86l-193 -1202h-150l-177 1126h-5l-177 -1126h-150zM482 1525l127 -238h-76l-143 238h92z" />
    <glyph glyph-name="wdieresis" unicode="&#x1e85;" horiz-adv-x="1087" 
d="M28 1202h86l176 -1126h14l175 1126h144l175 -1126h14l175 1126h86l-193 -1202h-150l-177 1126h-5l-177 -1126h-150zM423 1405q0 28 13.5 44.5t42.5 16.5q37 0 49 -16.5t12 -44.5q0 -26 -12 -42t-49 -16q-29 0 -42.5 16t-13.5 42zM594 1405q0 28 13.5 44.5t42.5 16.5
q37 0 49 -16.5t12 -44.5q0 -26 -12 -42t-49 -16q-29 0 -42.5 16t-13.5 42z" />
    <glyph glyph-name="wcircumflex" unicode="&#x175;" horiz-adv-x="1087" 
d="M28 1202h86l176 -1126h14l175 1126h144l175 -1126h14l175 1126h86l-193 -1202h-150l-177 1126h-5l-177 -1126h-150zM387 1286l136 226h90l136 -226h-88l-93 165l-92 -165h-89z" />
    <glyph glyph-name="afii10062" unicode="&#x40e;" horiz-adv-x="806" 
d="M439 550l-159 -550h-86l163 559l-300 959h89l255 -832l262 832h88zM623 1801q-8 -94 -62.5 -145.5t-156.5 -51.5q-106 0 -160.5 53.5t-59.5 143.5h66q6 -67 45.5 -101t108.5 -34q68 0 107.5 33.5t45.5 101.5h66z" />
    <glyph glyph-name="racute" unicode="&#x155;" horiz-adv-x="535" 
d="M532 1129q-15 3 -33.5 6.5t-40.5 4.5h-3q-74 0 -118 -32t-67 -85.5t-30 -124t-8 -147.5v-751h-84v1202h84v-152q12 36 30.5 67t46 53.5t64.5 35t86 12.5h1q18 0 36 -2.5t34 -6.5zM495 1525l-144 -238h-77l128 238h93z" />
    <glyph glyph-name="rcaron" unicode="&#x159;" horiz-adv-x="535" 
d="M532 1129q-15 3 -33.5 6.5t-40.5 4.5h-3q-74 0 -118 -32t-67 -85.5t-30 -124t-8 -147.5v-751h-84v1202h84v-152q12 36 30.5 67t46 53.5t64.5 35t86 12.5h1q18 0 36 -2.5t34 -6.5zM242 1512l92 -165l93 165h88l-136 -226h-90l-136 226h89z" />
    <glyph glyph-name="zacute" unicode="&#x17a;" horiz-adv-x="677" 
d="M47 0v72l492 1054h-463v76h555v-72l-494 -1054h488v-76h-578zM525 1525l-144 -238h-77l128 238h93z" />
    <glyph glyph-name="zcaron" unicode="&#x17e;" horiz-adv-x="677" 
d="M47 0v72l492 1054h-463v76h555v-72l-494 -1054h488v-76h-578zM264 1512l92 -165l93 165h88l-136 -226h-90l-136 226h89z" />
    <glyph glyph-name="zdotaccent" unicode="&#x17c;" horiz-adv-x="677" 
d="M47 0v72l492 1054h-463v76h555v-72l-494 -1054h488v-76h-578zM279 1403q0 30 14 47t45 17q38 0 51 -17t13 -47q0 -26 -13 -42.5t-51 -16.5q-31 0 -45 16.5t-14 42.5z" />
    <glyph glyph-name="scaron" unicode="&#x161;" horiz-adv-x="720" 
d="M655 297q0 -70 -19 -127.5t-57 -98.5t-95 -63.5t-133 -22.5q-87 0 -144 28t-90 76.5t-46.5 114.5t-13.5 142h82q0 -50 9.5 -101t33.5 -91.5t65 -66t104 -25.5q109 0 164.5 59.5t55.5 172.5q0 60 -21.5 103.5t-57 77t-81 59.5t-92.5 51.5t-92.5 54t-81 66t-57 88
t-21.5 120.5q0 69 18 125.5t54.5 96t91 61t126.5 21.5q76 0 130.5 -22.5t89.5 -65.5t51 -106t16 -144h-82q0 60 -10.5 108t-34.5 81.5t-63.5 52t-96.5 18.5q-47 0 -85 -17t-65.5 -46.5t-42.5 -70t-15 -88.5q0 -58 21.5 -100.5t57.5 -75t81.5 -59t92.5 -53t92.5 -56t81.5 -68
t57.5 -89t21.5 -120.5zM262 1512l92 -165l93 165h88l-136 -226h-90l-136 226h89z" />
    <glyph glyph-name="scedilla" unicode="&#x15f;" horiz-adv-x="720" 
d="M655 297q0 -70 -19 -127.5t-57 -98.5t-95 -63.5t-133 -22.5q-87 0 -144 28t-90 76.5t-46.5 114.5t-13.5 142h82q0 -50 9.5 -101t33.5 -91.5t65 -66t104 -25.5q109 0 164.5 59.5t55.5 172.5q0 60 -21.5 103.5t-57 77t-81 59.5t-92.5 51.5t-92.5 54t-81 66t-57 88
t-21.5 120.5q0 69 18 125.5t54.5 96t91 61t126.5 21.5q76 0 130.5 -22.5t89.5 -65.5t51 -106t16 -144h-82q0 60 -10.5 108t-34.5 81.5t-63.5 52t-96.5 18.5q-47 0 -85 -17t-65.5 -46.5t-42.5 -70t-15 -88.5q0 -58 21.5 -100.5t57.5 -75t81.5 -59t92.5 -53t92.5 -56t81.5 -68
t57.5 -89t21.5 -120.5zM238 -190q24 -19 46 -29t61 -10q38 0 59.5 16.5t21.5 46.5q0 13 -7.5 23t-19.5 16t-26.5 9t-29.5 3q-20 0 -32 -4l-2 138h67l-2 -83q4 0 9 1q5 0 10 0.5t13 0.5q14 0 30.5 -6.5t30.5 -19t23.5 -32t9.5 -45.5q0 -34 -13.5 -58t-35.5 -39t-49.5 -21.5
t-55.5 -6.5q-45 0 -78 13t-53 41z" />
    <glyph glyph-name="scircumflex" unicode="&#x15d;" horiz-adv-x="720" 
d="M655 297q0 -70 -19 -127.5t-57 -98.5t-95 -63.5t-133 -22.5q-87 0 -144 28t-90 76.5t-46.5 114.5t-13.5 142h82q0 -50 9.5 -101t33.5 -91.5t65 -66t104 -25.5q109 0 164.5 59.5t55.5 172.5q0 60 -21.5 103.5t-57 77t-81 59.5t-92.5 51.5t-92.5 54t-81 66t-57 88
t-21.5 120.5q0 69 18 125.5t54.5 96t91 61t126.5 21.5q76 0 130.5 -22.5t89.5 -65.5t51 -106t16 -144h-82q0 60 -10.5 108t-34.5 81.5t-63.5 52t-96.5 18.5q-47 0 -85 -17t-65.5 -46.5t-42.5 -70t-15 -88.5q0 -58 21.5 -100.5t57.5 -75t81.5 -59t92.5 -53t92.5 -56t81.5 -68
t57.5 -89t21.5 -120.5zM173 1286l136 226h90l136 -226h-88l-93 165l-92 -165h-89z" />
    <glyph glyph-name="scommaaccent" unicode="&#x219;" horiz-adv-x="720" 
d="M655 297q0 -70 -19 -127.5t-57 -98.5t-95 -63.5t-133 -22.5q-87 0 -144 28t-90 76.5t-46.5 114.5t-13.5 142h82q0 -50 9.5 -101t33.5 -91.5t65 -66t104 -25.5q109 0 164.5 59.5t55.5 172.5q0 60 -21.5 103.5t-57 77t-81 59.5t-92.5 51.5t-92.5 54t-81 66t-57 88
t-21.5 120.5q0 69 18 125.5t54.5 96t91 61t126.5 21.5q76 0 130.5 -22.5t89.5 -65.5t51 -106t16 -144h-82q0 60 -10.5 108t-34.5 81.5t-63.5 52t-96.5 18.5q-47 0 -85 -17t-65.5 -46.5t-42.5 -70t-15 -88.5q0 -58 21.5 -100.5t57.5 -75t81.5 -59t92.5 -53t92.5 -56t81.5 -68
t57.5 -89t21.5 -120.5zM295 -120q0 60 56 60q36 0 50 -21t14 -50q0 -66 -18 -112t-34 -76l-44 20q18 38 26 64.5t11 58.5q-61 0 -61 56z" />
    <glyph glyph-name="s.fat" horiz-adv-x="813" 
d="M707 297q0 -70 -19 -127.5t-57 -98.5t-95 -63.5t-133 -22.5q-87 0 -144 28t-90 76.5t-46.5 114.5t-13.5 142h82q0 -50 9.5 -101t33.5 -91.5t65 -66t103 -25.5q109 0 164.5 59.5t55.5 172.5q0 60 -21.5 103.5t-57 77t-80.5 59.5t-92.5 51.5t-92.5 54t-80.5 66t-57 88
t-21.5 120.5q0 69 18 125.5t54.5 96t91 61t126.5 21.5q76 0 130.5 -22.5t89 -65.5t51 -106t16.5 -144h-82q0 60 -10.5 108t-34.5 81.5t-63.5 52t-96.5 18.5q-47 0 -85 -17t-65.5 -46.5t-42.5 -70t-15 -88.5q0 -58 21.5 -100.5t57.5 -75t81.5 -59t92.5 -53t92.5 -56t81.5 -68
t57.5 -89t21.5 -120.5z" />
    <glyph glyph-name="greaterequal" unicode="&#x2265;" horiz-adv-x="626" 
d="M501.97 729v74l-434.974 334v-100l350.979 -271l-350.979 -271v-100zM508.969 263v77h-459.972v-77h459.972z" />
    <glyph glyph-name="lessequal" unicode="&#x2264;" horiz-adv-x="656" 
d="M102 729v74l435 334v-100l-351 -271l351 -271v-100zM95 263v77h460v-77h-460z" />
    <glyph glyph-name="Yacute" unicode="&#xdd;" horiz-adv-x="697" 
d="M388 623v-623h-83v623l-304 895h89l259 -767l258 767h91zM533 1843l-144 -238h-77l128 238h93z" />
    <glyph glyph-name="Ygrave" unicode="&#x1ef2;" horiz-adv-x="697" 
d="M388 623v-623h-83v623l-304 895h89l259 -767l258 767h91zM269 1842l127 -238h-76l-143 238h92z" />
    <glyph glyph-name="Ydieresis" unicode="&#x178;" horiz-adv-x="697" 
d="M388 623v-623h-83v623l-304 895h89l259 -767l258 767h91zM205 1723q0 28 13.5 44.5t42.5 16.5q37 0 49 -16.5t12 -44.5q0 -26 -12 -42t-49 -16q-29 0 -42.5 16t-13.5 42zM376 1723q0 28 13.5 44.5t42.5 16.5q37 0 49 -16.5t12 -44.5q0 -26 -12 -42t-49 -16
q-29 0 -42.5 16t-13.5 42z" />
    <glyph glyph-name="Ycircumflex" unicode="&#x176;" horiz-adv-x="697" 
d="M388 623v-623h-83v623l-304 895h89l259 -767l258 767h91zM168 1604l136 226h90l136 -226h-88l-93 165l-92 -165h-89z" />
    <glyph glyph-name="Uhungarumlaut" unicode="&#x170;" horiz-adv-x="888" 
d="M767 1518v-1138q0 -84 -9 -156t-41.5 -125t-96.5 -83.5t-174 -30.5h-1q-73 0 -125 14t-87.5 39t-56.5 61t-32 79.5t-14.5 94.5t-3.5 107v1138h83v-1129q0 -75 5 -135t28 -102.5t70 -66t131 -23.5h3q85 0 133 23t71.5 65.5t28.5 103t5 135.5v1129h83zM524 1843l-142 -238
h-77l127 238h92zM695 1843l-143 -238h-76l127 238h92z" />
    <glyph glyph-name="Umacron" unicode="&#x16a;" horiz-adv-x="888" 
d="M767 1518v-1138q0 -84 -9 -156t-41.5 -125t-96.5 -83.5t-174 -30.5h-1q-73 0 -125 14t-87.5 39t-56.5 61t-32 79.5t-14.5 94.5t-3.5 107v1138h83v-1129q0 -75 5 -135t28 -102.5t70 -66t131 -23.5h3q85 0 133 23t71.5 65.5t28.5 103t5 135.5v1129h83zM255 1719v76h382v-76
h-382z" />
    <glyph glyph-name="Zacute" unicode="&#x179;" horiz-adv-x="695" 
d="M45 0v74l523 1366h-492v78h585v-74l-525 -1367h519v-77h-610zM555 1843l-144 -238h-77l128 238h93z" />
    <glyph glyph-name="Zcaron" unicode="&#x17d;" horiz-adv-x="695" 
d="M45 0v74l523 1366h-492v78h585v-74l-525 -1367h519v-77h-610zM283 1830l92 -165l93 165h88l-136 -226h-90l-136 226h89z" />
    <glyph glyph-name="Zdotaccent" unicode="&#x17b;" horiz-adv-x="695" 
d="M45 0v74l523 1366h-492v78h585v-74l-525 -1367h519v-77h-610zM314 1721q0 30 14 47t45 17q38 0 51 -17t13 -47q0 -26 -13 -42.5t-51 -16.5q-31 0 -45 16.5t-14 42.5z" />
    <glyph glyph-name="lslash" unicode="&#x142;" horiz-adv-x="389" 
d="M2 544v94l394 374v-96zM157 0v1567h84v-1567h-84z" />
    <glyph glyph-name="afii10110" unicode="&#x45e;" horiz-adv-x="646" 
d="M642 1202l-277 -723v-479h-83v479l-280 723h88l234 -613l231 613h87zM566 1522q-8 -94 -62.5 -145.5t-156.5 -51.5q-106 0 -160.5 53.5t-59.5 143.5h66q6 -67 45.5 -101t108.5 -34q68 0 107.5 33.5t45.5 101.5h66z" />
    <glyph glyph-name="Aacute" unicode="&#xc1;" horiz-adv-x="778" 
d="M680 0l-79 393h-431l-78 -393h-86l309 1520h141l310 -1520h-86zM185 469h401l-194 975h-12zM575 1843l-144 -238h-77l128 238h93z" />
    <glyph glyph-name="product" unicode="&#x220f;" horiz-adv-x="845" 
d="M153 -175v1693h540v-1693h-84v1616h-373v-1616h-83z" />
    <glyph glyph-name="uni00AD" unicode="&#xad;" horiz-adv-x="553" 
d="M99 -111v77h409v-77h-409z" />
    <glyph glyph-name="figuredash" unicode="&#x2012;" horiz-adv-x="553" 
d="M79 552v77h409v-77h-409z" />
    <glyph glyph-name="parenleftinferior" unicode="&#x208d;" horiz-adv-x="349" 
d="M332 -491q-75 0 -121.5 30.5t-72 80.5t-34 114t-8.5 131v386q0 23 1 59t7.5 75.5t21 79t40.5 71t66.5 51.5t99.5 20h26v-72h-26q-39 0 -65.5 -17t-44 -43.5t-27 -59t-14 -64t-5 -58t-0.5 -41.5v-388q0 -60 8 -111.5t26 -89.5t48 -59.5t74 -21.5h26v-73h-26z" />
    <glyph glyph-name="parenrightinferior.001" horiz-adv-x="534" 
d="M184.988 132q74.9961 0 121.493 30.5t71.9951 80.5q25.499 50 33.998 114q8.5 64 8.5 131v386q0 23 -1 59t-7.5 75.5q-6.49902 39.5 -20.998 79q-14.5 39.5 -40.498 71t-66.4961 51.5q-40.4971 20 -99.4941 20h-25.998v-72h25.998q38.998 0 65.4961 -17
q26.499 -17 43.998 -43.5q17.498 -26.5 26.998 -59q9.49902 -32.5 13.999 -64t5 -58t0.5 -41.5v-388q0 -60 -8 -111.5q-7.99902 -51.5 -25.998 -89.5t-47.9971 -59.5t-73.9961 -21.5h-25.998v-73h25.998z" />
    <glyph glyph-name="approxequal" unicode="&#x2248;" horiz-adv-x="702" 
d="M583 898q-32 -46 -62.5 -68.5t-65.5 -22.5q-32 0 -58 11.5t-49 25t-45.5 25t-46.5 11.5q-25 0 -46.5 -14.5t-45.5 -46.5l-45 35q36 51 67 72.5t68 21.5q30 0 56.5 -11.5t50.5 -26t47 -26t47 -11.5q20 0 39.5 15.5t43.5 44.5zM583 561q-32 -46 -62.5 -68.5t-65.5 -22.5
q-32 0 -58 11.5t-49 25t-45.5 25t-46.5 11.5q-25 0 -46.5 -14.5t-45.5 -46.5l-45 35q36 51 67 72.5t68 21.5q30 0 56.5 -11.5t50.5 -26t47 -26t47 -11.5q20 0 39.5 15.5t43.5 44.5z" />
    <glyph glyph-name="notequal" unicode="&#x2260;" horiz-adv-x="830" 
d="M499 792h218v-77h-238l-45 -165h283v-76h-303l-36 -133l-71 19l30 114h-223v76h244l44 165h-288v77h309l42 154l71 -19z" />
    <glyph glyph-name="estimated" unicode="&#x212e;" horiz-adv-x="893" 
d="M752 413v-17q0 -45 -1.5 -92.5t-10 -93t-27 -86.5t-52.5 -72t-86 -49t-128 -18q-77 0 -130 20.5t-86.5 56t-51.5 82t-26.5 99t-9.5 107.5t-1 107v286q0 54 1.5 110.5t10.5 109t27.5 99t52 81t85.5 55t127 20.5h1q77 0 129.5 -19t86.5 -50t52 -72.5t26.5 -87t9.5 -92.5
t1 -89v-166l-503 -72v-401q10 -28 26.5 -50.5t40.5 -38.5t56 -24.5t75 -8.5q81 0 126.5 27t67 73.5t26.5 108t5 131.5v26h80zM447 1155q-85 0 -131 -33.5t-67 -93.5v-394l395 56v362q-21 46 -67 74.5t-130 28.5z" />
    <glyph glyph-name="partialdiff" unicode="&#x2202;" horiz-adv-x="869" 
d="M394 1534q8 1 17.5 1h18.5q75 -1 126.5 -20.5t85 -53.5t51.5 -79.5t26 -97.5t9.5 -108t1.5 -110v-608q0 -52 -1 -107.5t-9 -108t-25.5 -99t-51 -82t-86 -56t-129.5 -20.5q-75 0 -127 20t-85.5 55t-51.5 81t-26 99t-9.5 109t-1.5 110v41q0 52 2 107.5t10 108t25.5 100
t48.5 82.5t77.5 55.5t114.5 20.5q57 0 98 -13t69.5 -36t46 -55t27.5 -69v262q0 75 -4 146.5t-24.5 126.5t-64.5 88.5t-124 33.5q-9 0 -16 -0.5t-15 -1.5zM409 896q-50 0 -84 -18t-56.5 -48.5t-34 -71t-17 -85t-6.5 -90.5t-1 -87v-33q0 -50 1 -99.5t7.5 -94t20 -82.5
t37.5 -66t61 -43.5t91 -15.5q52 0 88 14.5t60 39.5t38 58t21 71t9 78.5t2 79.5v58v33q0 75 -7 147.5t-31.5 129t-71.5 91t-127 34.5z" />
    <glyph glyph-name="sacute" unicode="&#x15b;" horiz-adv-x="720" 
d="M655 297q0 -70 -19 -127.5t-57 -98.5t-95 -63.5t-133 -22.5q-87 0 -144 28t-90 76.5t-46.5 114.5t-13.5 142h82q0 -50 9.5 -101t33.5 -91.5t65 -66t104 -25.5q109 0 164.5 59.5t55.5 172.5q0 60 -21.5 103.5t-57 77t-81 59.5t-92.5 51.5t-92.5 54t-81 66t-57 88
t-21.5 120.5q0 69 18 125.5t54.5 96t91 61t126.5 21.5q76 0 130.5 -22.5t89.5 -65.5t51 -106t16 -144h-82q0 60 -10.5 108t-34.5 81.5t-63.5 52t-96.5 18.5q-47 0 -85 -17t-65.5 -46.5t-42.5 -70t-15 -88.5q0 -58 21.5 -100.5t57.5 -75t81.5 -59t92.5 -53t92.5 -56t81.5 -68
t57.5 -89t21.5 -120.5zM523 1525l-144 -238h-77l128 238h93z" />
    <glyph glyph-name="tbar" unicode="&#x167;" horiz-adv-x="590" 
d="M249 1596v-392h264v-76h-264v-744q0 -92 3 -153.5t17.5 -99t45.5 -53.5t87 -17q21 0 43 3.5t41 8.5t35 10.5t25 10.5l12 -69q-20 -12 -61 -26.5t-92 -14.5q-85 0 -133 26t-72 77t-29.5 125.5t-5.5 171.5v744h-120v76h120v392h84zM45 670v76h382v-76h-382z" />
    <glyph glyph-name="tcaron" unicode="&#x165;" horiz-adv-x="590" 
d="M249 1596v-392h264v-76h-264v-744q0 -92 3 -153.5t17.5 -99t45.5 -53.5t87 -17q21 0 43 3.5t41 8.5t35 10.5t25 10.5l12 -69q-20 -12 -61 -26.5t-92 -14.5q-85 0 -133 26t-72 77t-29.5 125.5t-5.5 171.5v744h-120v76h120v392h84zM115 1891l92 -165l93 165h88l-136 -226
h-90l-136 226h89z" />
    <glyph glyph-name="tcommaaccent" unicode="&#x163;" horiz-adv-x="590" 
d="M249 1596v-392h264v-76h-264v-744q0 -92 3 -153.5t17.5 -99t45.5 -53.5t87 -17q21 0 43 3.5t41 8.5t35 10.5t25 10.5l12 -69q-20 -12 -61 -26.5t-92 -14.5q-85 0 -133 26t-72 77t-29.5 125.5t-5.5 171.5v744h-120v76h120v392h84zM307 -120q0 60 56 60q36 0 50 -21t14 -50
q0 -66 -18 -112t-34 -76l-44 20q18 38 26 64.5t11 58.5q-61 0 -61 56z" />
    <glyph glyph-name="uacute" unicode="&#xfa;" horiz-adv-x="891" 
d="M745 1202v-1202h-83v154q-12 -37 -30.5 -68t-46 -53.5t-65 -35t-86.5 -12.5q-76 0 -127.5 20.5t-84.5 56t-51 82t-26 99t-9 107.5t-1 107v745h83v-743q0 -79 3.5 -151t24 -126.5t65.5 -87t129 -32.5q74 0 118 32t66.5 85.5t29.5 123.5t8 147v752h83zM609 1525l-144 -238
h-77l128 238h93z" />
    </font>
</defs>
</svg>
