<?xml version="1.0" standalone="no"?>
<!DOCTYPE svg PUBLIC "-//W3C//DTD SVG 1.1//EN" "http://www.w3.org/Graphics/SVG/1.1/DTD/svg11.dtd" >
<svg xmlns="http://www.w3.org/2000/svg" xmlns:xlink="http://www.w3.org/1999/xlink" version="1.1">
<metadata>
Created by FontForge 20170910 at Tue Oct 10 16:14:26 2017
 By Jimmy Wärting
Copyright (c) 2017 by Studio Kmzero &#38; Zetafonts. All rights reserved.
</metadata>
<defs>
<font id="HeadingProTrial-HeavyItalic" horiz-adv-x="2531" >
  <font-face 
    font-family="Heading Pro Trial"
    font-weight="900"
    font-style="italic"
    font-stretch="normal"
    units-per-em="2048"
    panose-1="2 0 5 6 0 0 0 2 0 4"
    ascent="1638"
    descent="-410"
    x-height="1202"
    cap-height="1522"
    bbox="-222 -977 2479 2052"
    underline-thickness="102"
    underline-position="-205"
    slope="-12"
    unicode-range="U+000D-FB06"
  />
<missing-glyph horiz-adv-x="1676" 
 />
    <glyph glyph-name="f_t" unicode="ft" horiz-adv-x="1323" 
d="M229 1202h137l2 8q18 86 47.5 159t76.5 126t115 83t163 30q43 0 77 -7t61 -18.5t47.5 -26.5t36.5 -31l-74 -270q-10 6 -22 14t-29 15.5t-41.5 12.5t-59.5 5q-55 0 -75 -92l-2 -8h204l-64 -302h-204l-191 -900h-323l191 900h-137zM1427 1585l-82 -383h206l-64 -302h-206
l-111 -525q-2 -12 -3.5 -22t-1.5 -19q0 -51 41 -51q35 0 61.5 5t47 12.5t36 15.5t27.5 14l-41 -270q-46 -32 -108.5 -57.5t-148.5 -25.5q-71 0 -119.5 17t-78 48t-42.5 74.5t-13 96.5q0 73 20 162l111 525h-128l64 302h128l82 383h323z" />
    <glyph glyph-name="ff" unicode="ff" horiz-adv-x="1308" 
d="M1497 1290q-21 7 -42 12t-53 5q-57 0 -78 -97l-2 -8h155l-62 -303h-158l-193 -899h-1l-1 -8q-20 -86 -50.5 -159t-78 -126t-116 -83t-163.5 -30q-69 0 -122.5 17t-93.5 40t-67 48t-43 42q-49 -69 -122.5 -108t-183.5 -39q-42 0 -75 7t-59 18.5t-46 26.5t-35 30l76 266
q10 -6 22 -14t29 -15.5t41 -12.5t58 -5q56 0 79 97l195 907h-95l62 303h98l2 8q20 86 50.5 159t78 126t115.5 83t163 30q28 0 57.5 -5.5t56.5 -14.5t49.5 -19t37.5 -19l-117 -260q-21 7 -42 12t-53 5q-57 0 -78 -97l-2 -8h314l2 8q20 86 50.5 159t78 126t115.5 83t163 30
q28 0 57.5 -5.5t56.5 -14.5t49.5 -19t37.5 -19zM625 -105q18 0 37 6t35.5 18.5t28.5 30.5t18 42l195 907h-314l-193 -899h-1l-1 -8l-4 -14q10 -13 24.5 -27.5t37.5 -27t56 -20.5t81 -8z" />
    <glyph glyph-name="ffi" unicode="ffi" horiz-adv-x="1796" 
d="M855 1290q-21 7 -42 12t-53 5q-57 0 -78 -97l-2 -8h314l2 8q20 86 50.5 159t78 126t115.5 83t163 30q28 0 57.5 -5.5t56.5 -14.5t49.5 -19t37.5 -19l-117 -260q-21 7 -42 12t-53 5q-57 0 -78 -97l-2 -8h625l-256 -1202h-322l191 899h-303l-193 -899h-1l-1 -8
q-20 -86 -50.5 -159t-78 -126t-116 -83t-163.5 -30q-69 0 -122.5 17t-93.5 40t-67 48t-43 42q-49 -69 -122.5 -108t-183.5 -39q-42 0 -75 7t-59 18.5t-46 26.5t-35 30l76 266q10 -6 22 -14t29 -15.5t41 -12.5t58 -5q56 0 79 97l195 907h-95l62 303h98l2 8q20 86 50.5 159
t78 126t115.5 83t163 30q28 0 57.5 -5.5t56.5 -14.5t49.5 -19t37.5 -19zM615 -105q18 0 37 6t35.5 18.5t28.5 30.5t18 42l195 907h-314l-193 -899h-1l-1 -8l-4 -14q10 -13 24.5 -27.5t37.5 -27t56 -20.5t81 -8zM1630 1390q0 94 52.5 143.5t171.5 49.5q81 0 120 -28t39 -88
q0 -93 -51.5 -143t-172.5 -50q-159 0 -159 116z" />
    <glyph glyph-name="ffl" unicode="ffl" horiz-adv-x="1800" 
d="M274 1202h98l2 8q20 86 50.5 159t78 126t115.5 83t163 30q28 0 57.5 -5.5t56.5 -14.5t49.5 -19t37.5 -19l-117 -260q-21 7 -42 12t-53 5q-57 0 -78 -97l-2 -8h319l2 8q20 86 68 161.5t116.5 131.5t154.5 89.5t181 36.5q12 0 24 0.5t23 0.5q79 0 153.5 -6t134.5 -15
t101.5 -19.5t55.5 -18.5l-2 -2h1l-333 -1569h-321l288 1359q-29 6 -67 6t-79 -7q-35 -6 -66 -21t-54.5 -35t-39.5 -44t-21 -48l-2 -8h155l-62 -303h-158l-193 -899h-1l-1 -8q-20 -86 -50.5 -159t-78 -126t-116 -83t-163.5 -30q-42 0 -75 7t-59 18.5t-46 26.5t-35 30l76 266
q10 -6 22 -14t29 -15.5t41 -12.5t58 -5q56 0 79 97l195 907h-319l-193 -899h-1l-1 -8q-20 -86 -50.5 -159t-78 -126t-116 -83t-163.5 -30q-42 0 -75 7t-59 18.5t-46 26.5t-35 30l76 266q10 -6 22 -14t29 -15.5t41 -12.5t58 -5q56 0 79 97l195 907h-95z" />
    <glyph glyph-name="f_j" unicode="fj" horiz-adv-x="1123" 
d="M857 1290q-21 7 -42 12t-53 5q-57 0 -78 -97l-2 -8h616l-257 -1210q-18 -86 -47.5 -159t-76.5 -126t-115 -83t-163 -30q-43 0 -77 7t-61 18.5t-47 26.5t-36 31l73 270q10 -6 22 -14t29 -15.5t41.5 -12.5t59.5 -5q55 0 75 92l192 907h-293l-193 -899h-1l-1 -8
q-20 -86 -50.5 -159t-78 -126t-116 -83t-163.5 -30q-42 0 -75 7t-59 18.5t-46 26.5t-35 30l76 266q10 -6 22 -14t29 -15.5t41 -12.5t58 -5q56 0 79 97l195 907h-95l62 303h98l2 8q20 86 50.5 159t78 126t115.5 83t163 30q28 0 57.5 -5.5t56.5 -14.5t49.5 -19t37.5 -19z
M992 1390q0 94 52 143.5t172 49.5q81 0 120 -28t39 -88q0 -93 -52 -143t-173 -50q-158 0 -158 116z" />
    <glyph glyph-name="fl" unicode="fl" horiz-adv-x="1142" 
d="M1384 1569h1l-333 -1569h-321l288 1359q-29 6 -67 6t-79 -7q-35 -6 -66 -21t-54.5 -35t-39.5 -44t-21 -48l-2 -8h155l-62 -303h-158l-193 -899h-1l-1 -8q-20 -86 -50.5 -159t-78 -126t-116 -83t-163.5 -30q-42 0 -75 7t-59 18.5t-46 26.5t-35 30l76 266q10 -6 22 -14
t29 -15.5t41 -12.5t58 -5q56 0 79 97l195 907h-95l62 303h98l2 8q20 86 68 161.5t116.5 131.5t154.5 89.5t181 36.5q12 0 24 0.5t23 0.5q79 0 153.5 -6t134.5 -15t101.5 -19.5t55.5 -18.5z" />
    <glyph glyph-name="fi" unicode="fi" horiz-adv-x="1132" 
d="M865 1290q-21 7 -42 12t-53 5q-57 0 -78 -97l-2 -8h614l-256 -1202h-322l191 899h-292l-193 -899h-1l-1 -8q-20 -86 -50.5 -159t-78 -126t-116 -83t-163.5 -30q-42 0 -75 7t-59 18.5t-46 26.5t-35 30l76 266q10 -6 22 -14t29 -15.5t41 -12.5t58 -5q56 0 79 97l195 907
h-95l62 303h98l2 8q20 86 50.5 159t78 126t115.5 83t163 30q28 0 57.5 -5.5t56.5 -14.5t49.5 -19t37.5 -19zM997 1390q0 94 52.5 143.5t171.5 49.5q81 0 120 -28t39 -88q0 -93 -51.5 -143t-172.5 -50q-159 0 -159 116z" />
    <glyph glyph-name=".notdef" horiz-adv-x="1676" 
 />
    <glyph glyph-name="space" unicode=" " horiz-adv-x="353" 
 />
    <glyph glyph-name="exclam" unicode="!" horiz-adv-x="506" 
d="M205 419l184 1103h372l-280 -1103h-276zM91 102q0 51 12 91.5t39 68.5t70.5 42.5t106.5 14.5q80 0 118 -30t38 -95q0 -51 -12.5 -91.5t-39.5 -68.5t-70.5 -42.5t-106.5 -14.5q-155 0 -155 125z" />
    <glyph glyph-name="quotedbl" unicode="&#x22;" horiz-adv-x="730" 
d="M295 1065l72 457h291l-125 -457h-238zM647 1065l72 457h291l-124 -457h-239z" />
    <glyph glyph-name="numbersign" unicode="#" horiz-adv-x="783" 
d="M821 412h-100l-138 -412h-260l137 412h-60l-139 -412h-260l137 412h-74l56 205h87l110 330h-74l56 206h86l125 373h265l-126 -373h58l125 373h264l-126 -373h86l-56 -206h-99l-111 -330h87zM529 617l110 330h-59l-111 -330h60z" />
    <glyph glyph-name="percent" unicode="%" horiz-adv-x="1759" 
d="M311 1181q20 94 49.5 162.5t76.5 113.5t114 67t162 22q72 0 121.5 -12.5t81 -38t45.5 -64.5t14 -92q0 -65 -20 -157l-50 -236q-20 -95 -49.5 -164.5t-75.5 -115t-112.5 -67.5t-160.5 -22q-72 0 -123 13t-82.5 39t-46 66t-14.5 94q0 65 20 159zM561 832q10 0 19 4t17.5 16
t15.5 33.5t15 56.5l51 243q10 44 10 70q0 24 -8 31t-22 7q-11 0 -20.5 -3.5t-18 -15t-16.5 -33t-15 -56.5l-52 -245q-9 -44 -9 -67q0 -26 9 -33.5t24 -7.5zM835 0h-308l728 1522h310zM1178 572q20 93 49.5 162t76 114t113.5 67t162 22q72 0 121.5 -12.5t81 -38.5t45.5 -65.5
t14 -92.5q0 -65 -20 -157l-49 -234q-20 -95 -49.5 -165t-76 -115.5t-113 -67.5t-160.5 -22q-72 0 -122.5 13t-82 39t-46 66t-14.5 94q0 35 5 74.5t15 85.5zM1427 222q10 0 19 4t17.5 16t15.5 33.5t15 56.5l51 243q10 46 10 70t-8 31t-22 7q-11 0 -20.5 -3.5t-18.5 -15
t-17 -32.5t-15 -57l-51 -244q-9 -44 -9 -67q0 -26 9 -34t24 -8z" />
    <glyph glyph-name="ampersand" unicode="&#x26;" horiz-adv-x="951" 
d="M926 456q4 -8 5.5 -16t3.5 -17l4 -38q-20 -91 -57 -166t-96.5 -129t-143 -83.5t-194.5 -29.5q-90 0 -153 19.5t-102.5 55t-58 86.5t-18.5 114q0 31 4 64t12 69l25 118l14 66q22 102 67.5 163t111.5 82q-38 14 -57.5 49.5t-19.5 95.5q0 51 15 126l17 82q16 76 51 141
t92 112.5t139 74.5t192 27h221l-63 -304h-212q-42 0 -62.5 -17.5t-31.5 -62.5l-21 -88q-7 -28 -7 -50q0 -29 15 -40t47 -11h64l24 111l329 -1l-24 -111h82l-63 -297h-82l-42 -199zM466 410q-6 -26 -6 -46q0 -30 12.5 -48t40.5 -18q43 0 67.5 32.5t34.5 79.5l20 95l9 43v1
l22 100h-77q-45 0 -63.5 -23t-25.5 -57l-15 -69z" />
    <glyph glyph-name="quoteright" unicode="&#x2019;" horiz-adv-x="456" 
d="M256 883q19 45 38.5 91t35.5 87t26 75.5t10 57.5q0 33 -24 33h-51l63 295l328 3l-59 -278q-12 -57 -51.5 -151.5t-119.5 -240.5z" />
    <glyph glyph-name="parenleft" unicode="(" horiz-adv-x="540" 
d="M460 -118q-111 0 -180.5 23.5t-108.5 61.5t-53.5 86t-14.5 97q0 45 7.5 87t14.5 74l191 898q8 35 19.5 80.5t33.5 93t57 93.5t90 81.5t132.5 57.5t184.5 22h14l-61 -291h-15q-41 0 -66 -16.5t-39 -38.5t-20 -44t-8 -34l-195 -918q-2 -7 -4 -18t-2 -25t3.5 -27.5t13 -25
t26 -18.5t42.5 -7h14l-62 -292h-14z" />
    <glyph glyph-name="parenright" unicode=")" horiz-adv-x="541" 
d="M8 -118l62 292h14q40 0 64.5 15t39 35.5t20 40.5t7.5 30l196 918q2 8 4.5 22t2.5 31q0 14 -3.5 28.5t-13 26t-26 18.5t-42.5 7h-14l62 291h14q111 0 180.5 -23.5t108.5 -62t53 -86.5t14 -97q0 -44 -7 -85t-14 -73l-191 -898q-7 -35 -18.5 -80.5t-33.5 -93t-57 -94
t-90 -82.5t-133 -58t-185 -22h-14z" />
    <glyph glyph-name="asterisk" unicode="*" horiz-adv-x="874" 
d="M802 1275l248 100l25 -230l-253 -52l126 -186l-226 -143l-79 216l-172 -214l-165 141l207 187l-231 53l124 228l205 -100l28 247h241z" />
    <glyph glyph-name="plus" unicode="+" horiz-adv-x="836" 
d="M396 561h-206l61 285h205l44 204h284l-43 -204h204l-61 -285h-204l-44 -206h-284z" />
    <glyph glyph-name="comma" unicode="," horiz-adv-x="458" 
d="M74 102q0 52 12.5 92t40 68t70.5 42.5t105 14.5q79 0 115 -40.5t36 -109.5q0 -74 -21.5 -143.5t-56.5 -130t-80 -111t-92 -86.5l-123 83q30 28 50.5 52t35.5 46.5t26 46t20 51.5q-71 0 -104.5 32t-33.5 93z" />
    <glyph glyph-name="hyphen" unicode="-" horiz-adv-x="776" 
d="M167 448l61 285h630l-60 -285h-631z" />
    <glyph glyph-name="period" unicode="." horiz-adv-x="474" 
d="M74 102q0 104 52.5 160.5t175.5 56.5q80 0 118.5 -30t38.5 -96q0 -103 -53 -159.5t-177 -56.5q-155 0 -155 125z" />
    <glyph glyph-name="slash" unicode="/" horiz-adv-x="695" 
d="M285 -80h-316l760 1679h319z" />
    <glyph glyph-name="colon" unicode=":" horiz-adv-x="477" 
d="M74 102q0 104 52.5 160.5t175.5 56.5q80 0 118.5 -30t38.5 -96q0 -103 -53 -159.5t-177 -56.5q-155 0 -155 125zM268 1009q0 104 52.5 160.5t175.5 56.5q80 0 118.5 -30t38.5 -96q0 -103 -53 -159.5t-177 -56.5q-155 0 -155 125z" />
    <glyph glyph-name="less" unicode="&#x3c;" horiz-adv-x="792" 
d="M172 580l52 245l761 443l-74 -347l-368 -219l275 -218l-73 -347z" />
    <glyph glyph-name="equal" unicode="=" horiz-adv-x="836" 
d="M235 769l61 285h694l-61 -285h-694zM146 350l61 285h694l-61 -285h-694z" />
    <glyph glyph-name="greater" unicode="&#x3e;" horiz-adv-x="792" 
d="M108 141l79 342l373 219l-272 220l79 342l560 -441l-55 -241z" />
    <glyph glyph-name="question" unicode="?" horiz-adv-x="891" 
d="M1081 1257q0 -106 -25.5 -189t-64.5 -149.5t-86.5 -121.5t-91.5 -104.5t-78.5 -98.5t-48.5 -104l-18 -71h-278l14 76q17 91 48.5 160t69 124.5t77 102.5t71.5 92.5t52.5 94.5t20.5 110q0 20 -8 31.5t-30 11.5q-20 0 -32 -6t-19.5 -17t-12 -27t-8.5 -36l-20 -94h-316
l18 95q17 87 47 162t82.5 130t132 86t193.5 31q72 0 129.5 -15t98 -49.5t62 -89.5t21.5 -135zM278 102q0 51 12 91.5t39 68.5t70.5 42.5t106.5 14.5q80 0 118.5 -30t38.5 -96q0 -103 -53 -159.5t-177 -56.5q-155 0 -155 125z" />
    <glyph glyph-name="at.001" horiz-adv-x="1323" 
d="M1144 -277h-416q-130 0 -234.5 25t-177.5 81.5t-112 148t-39 223.5q0 57 7 121t23 137l71 335q31 146 76.5 258t102 195.5t123.5 139.5t141.5 90.5t154 49.5t162.5 15q106 0 183.5 -25t127.5 -72.5t74.5 -115.5t24.5 -154q0 -38 -5 -80.5t-14 -87.5l-1 -2l-183 -864h-284
l17 80q-29 -47 -66 -73.5t-88 -26.5q-57 0 -97.5 14.5t-65.5 41.5t-36.5 66t-11.5 88q0 67 18 148l65 303q17 80 43.5 146t67 113.5t97 73.5t134.5 26q51 0 77.5 -28.5t34.5 -77.5q6 36 6 65q0 45 -13.5 75.5t-37.5 49t-56.5 26t-70.5 7.5q-88 0 -154.5 -31.5t-116 -91.5
t-84 -146t-57.5 -195l-72 -336q-19 -91 -19 -161q0 -68 16 -117t42 -81.5t60 -52t70 -29.5t71 -13t65 -3h417zM946 398q16 0 28.5 8.5t21.5 20.5t15 26t9 26l52 245l10 45q2 7 3 16t1 19q0 20 -8 37.5t-34 17.5q-19 0 -32 -7.5t-21 -18.5t-12.5 -24t-6.5 -23l-67 -316
q-2 -11 -3 -23.5t2.5 -23t13 -18t28.5 -7.5zM1417 1005l-4 -17l3 17h1z" />
    <glyph glyph-name="A" unicode="A" horiz-adv-x="947" 
d="M563 1523h427l-93 -1523h-331l20 195h-183l-63 -195h-331zM616 497l54 525l-170 -525h116z" />
    <glyph glyph-name="B" unicode="B" horiz-adv-x="980" 
d="M698 568q2 8 3 16t1 16q0 22 -12.5 35.5t-47.5 13.5h-76l-70 -329h76q23 0 38.5 5.5t25.5 15t15 21.5t8 25zM809 1138q3 18 3 30q0 27 -15 38.5t-48 11.5h-62l-57 -269h44q29 0 49 5t34 16.5t22.5 31t13.5 48.5zM990 393q-44 -207 -165.5 -300t-316.5 -93h-409l324 1522
h401q91 0 154.5 -19t103.5 -52.5t58 -80.5t18 -103q0 -46 -11 -99l-18 -83q-26 -122 -69.5 -186t-107.5 -85q86 -32 86 -152q0 -21 -3 -44.5t-8 -49.5z" />
    <glyph glyph-name="C" unicode="C" horiz-adv-x="934" 
d="M974 513l-29 -135q-19 -90 -55.5 -163.5t-94 -126t-139 -81.5t-190.5 -29q-1 0 -1 -1q-89 0 -150.5 19t-100.5 54t-56.5 85.5t-17.5 112.5q0 32 4 65.5t12 70.5l160 756q19 90 55 165t94 128t139.5 83t191.5 30l1 1q88 0 150 -19t101 -54t57 -85t18 -112q0 -31 -4 -65
t-12 -70l-28 -131h-330l28 130q3 13 3 29q0 20 -10 37.5t-40 18.5q-21 0 -36 -9t-24.5 -22.5t-15 -28t-8.5 -26.5l-161 -756q-2 -7 -3 -14.5t-1 -15.5q0 -21 10.5 -38.5t41.5 -17.5q20 0 34.5 8.5t24.5 20.5t15.5 26t8.5 26l28 134h330z" />
    <glyph glyph-name="D" unicode="D" horiz-adv-x="962" 
d="M423 1522h392q88 0 149.5 -19t100.5 -54t56.5 -85t17.5 -112q0 -32 -4 -66t-12 -71l-150 -708q-20 -91 -56 -166t-93.5 -128.5t-139 -83t-192.5 -29.5h-393zM683 1201l-187 -881h64q21 0 36.5 9.5t25.5 23t15.5 28.5t7.5 26l150 708q2 6 3 13.5t1 15.5q0 20 -10.5 38.5
t-41.5 18.5h-64z" />
    <glyph glyph-name="E" unicode="E" horiz-adv-x="888" 
d="M99 0l324 1522h703l-68 -321h-375l-58 -273h306l-69 -321h-305l-61 -287h374l-68 -320h-703z" />
    <glyph glyph-name="F" unicode="F" horiz-adv-x="879" 
d="M683 1201l-67 -316h300l-69 -321h-299l-120 -564h-329l324 1522h703l-68 -321h-375z" />
    <glyph glyph-name="G" unicode="G" horiz-adv-x="938" 
d="M647 860h401l-103 -482q-19 -90 -55.5 -163.5t-94 -126t-139 -81.5t-190.5 -29q-1 0 -1 -1q-89 0 -150.5 19t-100.5 54t-56.5 85.5t-17.5 112.5q0 32 4 65.5t12 70.5l160 756q19 90 55 165t94 128t139.5 83t191.5 30l1 1q88 0 150 -19t101 -54t57 -85t18 -112
q0 -31 -4 -65t-12 -70l-28 -131h-330l28 130q3 13 3 29q0 20 -10 37.5t-40 18.5q-21 0 -36 -9t-24.5 -22.5t-15 -28t-8.5 -26.5l-161 -756q-2 -7 -3 -14.5t-1 -15.5q0 -20 10.5 -38t40.5 -18q20 0 35 8.5t25 20.5t15.5 26t8.5 26l35 165h-72z" />
    <glyph glyph-name="H" unicode="H" horiz-adv-x="1032" 
d="M99 0l324 1522h329l-126 -593h176l126 593h329l-324 -1522h-329l129 608h-176l-129 -608h-329z" />
    <glyph glyph-name="I" unicode="I" horiz-adv-x="527" 
d="M99 0l324 1522h329l-324 -1522h-329z" />
    <glyph glyph-name="K" unicode="K" horiz-adv-x="993" 
d="M99 0l324 1522h329l-126 -593h49l286 593h349l-369 -740l57 -782h-349l-33 605l2 3h-61l-129 -608h-329z" />
    <glyph glyph-name="L" unicode="L" horiz-adv-x="790" 
d="M99 0l324 1522h329l-257 -1206h352l-67 -316h-681z" />
    <glyph glyph-name="M" unicode="M" horiz-adv-x="1286" 
d="M857 0l179 731l-228 -577h-263l18 598l-135 -752h-329l324 1522h402l-12 -726l297 726h400l-324 -1522h-329z" />
    <glyph glyph-name="O" unicode="O" horiz-adv-x="930" 
d="M311 1140q19 91 55.5 165.5t94 128t139.5 83t193 29.5q88 0 150 -19t101 -54.5t56.5 -85.5t17.5 -112q0 -32 -4 -65.5t-12 -70.5l-161 -756q-19 -91 -55 -165.5t-94 -128t-139.5 -83t-192.5 -29.5q-89 0 -150.5 19t-100.5 54t-56.5 85.5t-17.5 112.5q0 32 4 65.5t12 70.5
zM725 1226q-21 0 -36 -9t-25 -22t-15.5 -28t-7.5 -26l-161 -757q-2 -7 -3 -14.5t-1 -15.5q0 -21 10.5 -38.5t41.5 -17.5q21 0 36 9t24.5 22t15 27.5t8.5 26.5l161 756q2 7 3 14.5t1 15.5q0 21 -10.5 39t-41.5 18z" />
    <glyph glyph-name="P" unicode="P" horiz-adv-x="954" 
d="M1068 862q-24 -113 -69 -189t-107 -122.5t-140.5 -66t-168.5 -19.5h-56l-99 -465h-329l324 1522h382q76 0 137.5 -14t105.5 -45.5t68 -82t24 -123.5q0 -28 -3 -58t-11 -65zM796 1134q7 33 -5 50t-54 17h-54l-88 -418h50q44 0 64.5 19.5t28.5 60.5z" />
    <glyph glyph-name="Q" unicode="Q" horiz-adv-x="930" 
d="M331 -10q-105 25 -150.5 92t-45.5 165q0 32 4 66t12 71l160 756q19 91 55.5 165.5t94 128t139.5 83t193 29.5q88 0 150 -19t101 -54.5t56.5 -85.5t17.5 -112q0 -32 -4 -65.5t-12 -70.5l-161 -756q-15 -73 -41 -135.5t-65 -112t-92.5 -85t-123.5 -54.5l-27 -127h-286z
M528 298q1 0 1.5 -0.5t1.5 -0.5q20 1 34.5 10t24 22t14.5 27.5t8 26.5l161 756q3 12 3 29q0 21 -10 39t-41 18q-3 0 -4 1q-20 -1 -34 -10.5t-23.5 -22.5t-15 -27t-7.5 -25l-161 -757q-2 -7 -3 -14.5t-1 -15.5q0 -21 10.5 -38.5t41.5 -17.5z" />
    <glyph glyph-name="R" unicode="R" horiz-adv-x="981" 
d="M99 0l324 1522h409q160 0 244.5 -63t84.5 -201q0 -57 -15 -129l-38 -179q-19 -88 -70 -158t-119 -121q15 -14 26.5 -27t18.5 -28t10.5 -34t3.5 -44q0 -26 -3.5 -59.5t-10.5 -78.5l-31 -202q-2 -17 -3.5 -32t-1.5 -29q0 -46 8.5 -78.5t16.5 -58.5h-339q-1 2 -3.5 13
t-5.5 28t-5.5 40t-2.5 49q0 14 1 29t3 30l32 204q3 18 4 33.5t1 29.5q0 30 -6 48.5t-16 28.5t-23.5 13.5t-29.5 2.5h-18l-117 -549h-329zM818 1133q3 13 2.5 25t-6.5 21.5t-19 15.5t-35 6h-77l-70 -331h76q46 0 64 22.5t26 57.5z" />
    <glyph glyph-name="S" unicode="S" horiz-adv-x="938" 
d="M947 365q-41 -193 -158 -290.5t-323 -97.5q-173 0 -252.5 63.5t-79.5 195.5q0 63 16 139l29 138h328l-29 -138q-8 -35 3 -56t49 -21q44 0 63.5 19t24.5 51l2 13q5 32 10.5 57.5t5.5 47.5q0 23 -9 44t-34 41l-120 98q-49 40 -82 75.5t-53 69.5t-28.5 67.5t-8.5 70.5
t6.5 78t17.5 91l7 33q23 109 65 184t102 121t138 66.5t173 20.5q157 0 236.5 -57.5t79.5 -191.5q0 -59 -17 -142l-31 -144h-327l30 143q5 22 5 34q0 20 -11 29t-37 9q-34 0 -51.5 -17t-25.5 -54l-5 -25q-6 -27 -6 -57q0 -27 8 -52t30 -41l103 -72q52 -37 88.5 -74.5
t58.5 -77t32 -82t10 -88.5q0 -35 -5 -71.5t-13 -77.5z" />
    <glyph glyph-name="T" unicode="T" horiz-adv-x="802" 
d="M822 1201l-255 -1201h-331l255 1201h-225l68 321h782l-68 -321h-226z" />
    <glyph glyph-name="U" unicode="U" horiz-adv-x="958" 
d="M1197 1522l-246 -1158q-20 -91 -55 -162.5t-92 -121.5t-138 -76.5t-192 -26.5q-89 0 -151.5 17t-101.5 49.5t-57 80t-18 108.5q0 30 4 63t12 69l246 1158h328l-246 -1159q-3 -12 -3 -23.5t5.5 -21t17 -15.5t32.5 -6t35 6t23 15.5t14 21t8 23.5l246 1159h329z" />
    <glyph glyph-name="V" unicode="V" horiz-adv-x="907" 
d="M1220 1523l-554 -1523h-427l94 1523h331l-105 -1021l330 1021h331z" />
    <glyph glyph-name="W" unicode="W" horiz-adv-x="1374" 
d="M361 1523h331l-115 -814l242 814h385l-104 -810l230 810h331l-494 -1523h-407l95 791l-240 -791h-407z" />
    <glyph glyph-name="X" unicode="X" horiz-adv-x="997" 
d="M625 0l-37 454l-216 -454h-364l438 786l-91 736h362l25 -399l193 399h360l-412 -736l106 -786h-364z" />
    <glyph glyph-name="Y" unicode="Y" horiz-adv-x="940" 
d="M753 516l-110 -516h-328l110 516l-96 1006h362l-5 -560l251 560h320z" />
    <glyph glyph-name="Z" unicode="Z" horiz-adv-x="843" 
d="M60 0l63 298l537 903h-333l68 321h707l-58 -273l-554 -929h360l-68 -320h-722z" />
    <glyph glyph-name="bracketleft" unicode="[" horiz-adv-x="532" 
d="M34 -118l373 1755h441l-62 -291h-120l-249 -1172h120l-62 -292h-441z" />
    <glyph glyph-name="bracketright" unicode="]" horiz-adv-x="532" 
d="M8 -118l62 292h120l249 1172h-120l62 291h440l-373 -1755h-440z" />
    <glyph glyph-name="asciicircum" unicode="^" horiz-adv-x="1101" 
d="M1204 840h-334l-21 464h-44l-219 -464h-332l396 759h480z" />
    <glyph glyph-name="underscore" unicode="_" horiz-adv-x="861" 
d="M-49 -311l56 264h826l-56 -264h-826z" />
    <glyph glyph-name="quoteleft" unicode="&#x2018;" horiz-adv-x="456" 
d="M651.96 1514.91q-18.999 -44.9971 -38.4971 -90.9941q-19.499 -45.9971 -35.498 -86.9951q-15.999 -40.9971 -25.998 -75.4951q-10 -34.498 -10 -57.4961q0 -32.998 23.999 -32.998h50.9961l-62.9961 -294.982l-327.979 -3l58.9961 277.983
q11.999 56.9961 51.4971 151.491q39.4971 94.4941 119.493 240.485z" />
    <glyph glyph-name="b" unicode="b" horiz-adv-x="947" 
d="M99 0l334 1569h321l-97 -456q32 53 74 83.5t99 30.5q65 0 110.5 -16t74 -46.5t41.5 -74.5t13 -99q0 -37 -5.5 -79t-15.5 -88l-95 -445q-20 -91 -49.5 -165.5t-75 -127t-109 -81t-150.5 -28.5q-59 0 -88.5 32t-39.5 88l-21 -97h-321zM680 915q-21 0 -36 -11.5t-25 -28
t-16 -33.5t-9 -29l-89 -420q-2 -8 -3 -18t-1 -21t2 -22t7 -20t14.5 -14.5t23.5 -5.5q21 0 35 8.5t24 20.5t15 26t8 26l97 460q2 7 3 14t1 15q0 20 -10.5 36.5t-40.5 16.5z" />
    <glyph glyph-name="f.001" horiz-adv-x="640" 
d="M229 1202h137l2 8q18 86 47.5 159t76.5 126t115 83t163 30q43 0 77 -7t61 -18.5t47.5 -26.5t36.5 -31l-74 -270q-10 6 -22 14t-29 15.5t-41.5 12.5t-59.5 5q-55 0 -75 -92l-2 -8h205l-64 -302h-205l-191 -900h-323l191 900h-137z" />
    <glyph glyph-name="g" unicode="g" horiz-adv-x="912" 
d="M1099 1202l-257 -1210q-18 -86 -50.5 -159t-83.5 -126t-122 -83t-166 -30q-120 0 -193 18t-116 45l75 270q15 -6 40.5 -11t58 -8t68.5 -5t71 -2q27 0 56 23t39 68l20 97q-32 -52 -73.5 -82t-98.5 -30q-65 0 -110 16t-73.5 46.5t-41.5 74.5t-13 99q0 38 5.5 79.5
t15.5 87.5l94 445q19 91 49 165.5t75.5 127t109.5 81t151 28.5q57 0 87 -32t40 -86l20 93h323zM517 289q21 0 36 11.5t25.5 27.5t16.5 33.5t8 28.5l68 320l22 101q2 8 3 17t1 20q0 12 -2 23.5t-7.5 20.5t-14.5 14.5t-23 5.5q-21 0 -35.5 -8.5t-24 -20.5t-15 -26t-7.5 -26
l-98 -460q-3 -12 -3.5 -26t4 -26.5t15 -21t31.5 -8.5z" />
    <glyph glyph-name="i" unicode="i" horiz-adv-x="489" 
d="M354 1390q0 94 52.5 143.5t171.5 49.5q81 0 120 -28t39 -88q0 -93 -51.5 -143t-172.5 -50q-159 0 -159 116zM83 0l256 1202h322l-256 -1202h-322z" />
    <glyph glyph-name="k" unicode="k" horiz-adv-x="930" 
d="M738 1569l-171 -800h56l207 433h324l-317 -602l86 -600h-355l-20 449h-49l-95 -449h-321l334 1569h321z" />
    <glyph glyph-name="l" unicode="l" horiz-adv-x="489" 
d="M84 0l334 1569h321l-334 -1569h-321z" />
    <glyph glyph-name="m" unicode="m" horiz-adv-x="1391" 
d="M533 0l177 832q2 7 3 14t1 15q0 20 -10.5 36t-41.5 16q-19 0 -33 -10t-24 -24.5t-16.5 -31t-9.5 -28.5l-78 -367l-96 -452h-321l255 1202h321l-19 -90q53 53 113 83t120 30q61 0 99.5 -26t57.5 -74q54 54 122 77t141 23q57 0 97 -15.5t65 -44t36.5 -70.5t11.5 -94
q0 -39 -5.5 -83.5t-16.5 -93.5l-175 -824h-322l177 832q3 12 3.5 26t-4 26t-15.5 20.5t-32 8.5t-36 -11.5t-25 -28t-15.5 -33.5t-8.5 -29l-76 -360l-2 3l-96 -454h-322z" />
    <glyph glyph-name="r" unicode="r" horiz-adv-x="651" 
d="M823 858q-2 1 -11 8t-26.5 15.5t-42.5 15.5t-59 7h-1h-1q-21 0 -39.5 -11.5t-32.5 -27.5t-23 -33t-11 -29l-2 -4l-169 -799h-321l255 1202h321l-24 -114q35 63 80.5 101t106.5 38v-3q0 1 0.5 1t0.5 1l1 1q11 0 33.5 -5.5t37.5 -21.5z" />
    <glyph glyph-name="s" unicode="s" horiz-adv-x="857" 
d="M896 435q0 -112 -32 -197.5t-92.5 -143.5t-148 -87.5t-198.5 -29.5q-89 0 -150 17.5t-98.5 51.5t-54.5 83t-17 112q0 72 20 166h323q-4 -19 -6.5 -34.5t-2.5 -28.5q0 -26 11 -39t37 -13q15 0 25.5 6.5t17 15.5t9.5 18t3 15q0 28 -24 53t-59.5 52t-77 57.5t-77 69
t-59.5 87t-24 110.5q0 118 32 203.5t93 140.5t149 81t199 26q63 0 117.5 -8.5t95 -35t64 -75t23.5 -127.5q0 -35 -4.5 -76t-15.5 -89l-323 2q2 9 5.5 25t3.5 32t-6.5 28t-25.5 12q-20 0 -32.5 -6t-19.5 -14t-9.5 -17t-2.5 -16q0 -23 24.5 -45.5t61.5 -49t80 -57.5t80 -70.5
t61.5 -90t24.5 -114.5z" />
    <glyph glyph-name="v" unicode="v" horiz-adv-x="908" 
d="M1155 1204l-487 -1204h-427l24 1204h332l-59 -809l286 809h331z" />
    <glyph glyph-name="w" unicode="w" horiz-adv-x="1515" 
d="M262 1204h332l-93 -879l282 879h456l-93 -881l283 881h331l-428 -1204h-488l85 819l-263 -819h-488z" />
    <glyph glyph-name="x" unicode="x" horiz-adv-x="867" 
d="M525 0l-31 319l-175 -319h-312l358 625l-91 577h338l21 -290l159 290h312l-336 -577l93 -625h-336z" />
    <glyph glyph-name="y" unicode="y" horiz-adv-x="892" 
d="M597 1204l-76 -854q72 215 143.5 427t143.5 427h332q-78 -211 -156 -420t-156 -420l-148 -400q-32 -95 -83.5 -172.5t-113 -137.5t-127.5 -100.5t-127 -60.5l-89 232q30 11 63 25.5t65.5 41t63 69t54.5 110.5l10 29h-195l65 1204h331z" />
    <glyph glyph-name="z" unicode="z" horiz-adv-x="807" 
d="M41 0l58 274l473 628h-311l63 300h669l-58 -272l-466 -620h336l-65 -310h-699z" />
    <glyph glyph-name="braceleft" unicode="{" horiz-adv-x="568" 
d="M199 913q38 0 63.5 12t43 36.5t29.5 62.5t23 91q11 51 20.5 101t19.5 101q14 76 44.5 129.5t70 89t83.5 55.5t86.5 30.5t79.5 13t61 2.5h81l-61 -291h-40q-22 0 -37.5 -6.5t-27.5 -21.5t-21 -39t-17 -59l-66 -293q-11 -46 -28 -77.5t-39 -51t-48.5 -28.5t-55.5 -10
q48 -2 77 -26t29 -83q0 -25 -6 -58l-58 -291q-4 -21 -6.5 -38.5t-2.5 -31.5q0 -32 13.5 -45t44.5 -13h39l-62 -292h-81q-21 0 -52 2t-64 9.5t-66 22t-59 40t-42 63t-16 91.5q0 21 2.5 44t8.5 49l45 202q8 37 13 66t5 52q0 43 -20 63t-71 20l65 307v0z" />
    <glyph glyph-name="bar" unicode="|" horiz-adv-x="1012" 
d="M73 -82l358 1686h330l-359 -1686h-329z" />
    <glyph glyph-name="braceright" unicode="}" horiz-adv-x="570" 
d="M692 606q-38 0 -63.5 -11.5t-43 -36.5t-29.5 -63t-22 -90l-40 -202q-15 -76 -45.5 -129.5t-70 -89t-83.5 -56t-86.5 -31t-79.5 -13t-61 -2.5h-81l62 292h39q22 0 38 7t28 22t21 39.5t17 59.5l66 291q21 91 66.5 128t103.5 39q-47 2 -76 26.5t-29 83.5q0 24 6 57l58 293
q4 21 6 37.5t2 30.5q0 31 -13 44.5t-45 13.5h-39l62 291h81q22 0 52.5 -2t64 -9.5t66 -22t59 -40t42.5 -63t16 -91.5q0 -21 -2.5 -44t-8.5 -49l-45 -201q-8 -37 -13 -66t-5 -52q0 -43 20 -63.5t71 -20.5z" />
    <glyph glyph-name="asciitilde" unicode="~" horiz-adv-x="836" 
d="M949 631q-18 -22 -41.5 -42.5t-53.5 -36t-66.5 -25t-81.5 -9.5q-48 0 -86 15.5t-72 33.5t-67 33.5t-70 15.5q-21 0 -44.5 -3t-45 -9t-40.5 -15.5t-32 -23.5l3 221q16 21 39 41t52 36t65.5 26t79.5 10q47 0 86.5 -15.5t75 -33.5t69.5 -33.5t70 -15.5q21 0 43.5 2.5
t44.5 8.5t41 15.5t34 24.5z" />
    <glyph glyph-name="exclamdown" unicode="&#xa1;" horiz-adv-x="546" 
d="M556.966 787.952l-183.988 -1102.93h-371.978l279.982 1102.93h275.983zM670.959 1104.93q0 -50.9971 -11.999 -91.4941q-11.999 -40.498 -38.998 -68.4961q-26.998 -27.998 -70.4951 -42.4971q-43.498 -14.5 -106.494 -14.5q-79.9951 0 -117.992 29.999
q-37.998 29.998 -37.998 94.9941q0 50.9971 12.499 91.4941t39.498 68.4961q26.998 27.998 70.4951 42.4971q43.498 14.499 106.494 14.499q154.99 0 154.99 -124.992z" />
    <glyph glyph-name="cent" unicode="&#xa2;" horiz-adv-x="897" 
d="M603 406h319l-5 -24q-16 -76 -42 -140.5t-65.5 -114.5t-94.5 -85t-129 -51l-33 -155h-283l33 158q-95 26 -136 90t-41 157q0 32 4 66.5t12 72.5l94 445q15 74 41 137t65.5 112.5t93.5 84.5t126 52l35 167h284l-36 -166q98 -26 139.5 -90.5t41.5 -159.5q0 -32 -4 -67
t-12 -73l-5 -25h-319l7 32q2 12 2.5 26.5t-3.5 27.5t-14 22.5t-28 11.5q-4 -2 -7 -2q-21 0 -35.5 -8.5t-24 -21t-14.5 -26.5t-8 -26l-98 -460q-2 -7 -3 -14t-1 -15q0 -20 10.5 -36t41.5 -16q2 0 4 -2q27 2 44 17.5t26 35t12.5 38t5.5 26.5v-1z" />
    <glyph glyph-name="sterling" unicode="&#xa3;" horiz-adv-x="838" 
d="M173 774h117q-11 82 -22.5 162.5t-11.5 158.5q0 57 8 114.5t28 110.5t54.5 99t88.5 80t129.5 53.5t176.5 19.5q83 0 142 -18.5t96.5 -55t54.5 -90.5t17 -124q0 -69 -15 -152t-42 -182l-323 -2q0 13 8 41t17.5 62.5t17.5 71t8 66.5t-11 49t-39 19q-17 0 -33.5 -6t-30 -24
t-22 -51.5t-8.5 -88.5q0 -60 13.5 -141t24.5 -172h252l-62 -294h-184q-9 -46 -24.5 -78.5t-34 -54t-37.5 -32t-34 -12.5q16 -1 36.5 -2.5t40.5 -3.5t38 -3.5t30 -1.5q19 0 37.5 1t38 6.5t40 17t44.5 31.5l58 -267q-56 -55 -113.5 -77t-119.5 -22q-40 0 -92 4t-106.5 8.5
t-108 8.5t-96.5 4q-32 0 -71 -3t-74 -7q-40 -4 -82 -9l65 307q67 8 112.5 20t74 33t42.5 53t19 79h-195z" />
    <glyph glyph-name="fraction" unicode="&#x2044;" horiz-adv-x="639" 
d="M234 -50l-268 51l726 1520l260 -50z" />
    <glyph glyph-name="yen" unicode="&#xa5;" horiz-adv-x="849" 
d="M788 643h192l-39 -184h-228l-14 -62h229l-39 -184h-229l-45 -213h-328l45 213h-223l39 184h223l14 62h-224l40 184h184l-83 879h361l-5 -560l252 560h319z" />
    <glyph glyph-name="section" unicode="&#xa7;" horiz-adv-x="873" 
d="M176 581q0 134 51.5 215t150.5 120q-34 38 -55.5 84t-21.5 106q0 118 32 203t93 140t149 81t199 26q63 0 117.5 -8.5t95 -35t63.5 -74.5t23 -127q0 -35 -4.5 -76t-15.5 -89l-323 2q2 9 6 24.5t4 31.5t-7 28t-26 12q-20 0 -32.5 -5.5t-19.5 -14t-9.5 -17t-2.5 -14.5
q0 -23 24.5 -46t61.5 -49t80.5 -57t80.5 -71t61.5 -90t24.5 -114q0 -134 -52 -215.5t-151 -120.5q33 -38 55 -84t22 -106q0 -118 -32 -203.5t-92.5 -140.5t-148.5 -81t-199 -26q-62 0 -116.5 9t-95 35t-64 74.5t-23.5 127.5q0 35 4.5 76t15.5 90l322 -2q-2 -9 -5.5 -25
t-3.5 -32q0 -17 6.5 -29t25.5 -12q20 0 32.5 6t19.5 14t9.5 17t2.5 15q0 23 -24.5 46.5t-61.5 49.5t-80 57t-80 71t-61.5 90t-24.5 114zM530 670q0 -23 19 -48q5 -1 18 -1q15 0 25.5 6.5t17 15.5t9 18.5t2.5 15.5q0 22 -19 46q-10 2 -17 2q-15 0 -25.5 -6.5t-17 -15.5
t-9.5 -18t-3 -15z" />
    <glyph glyph-name="currency" unicode="&#xa4;" horiz-adv-x="833" 
d="M256 649q0 77 37 146l-73 94l244 201l79 -99q42 12 87 12q44 0 84 -14l122 101l160 -201l-123 -103q1 -8 1.5 -17t0.5 -17q0 -37 -9 -72.5t-25 -67.5l76 -96l-246 -202l-75 97q-48 -14 -95 -14q-45 0 -85 14l-117 -97l-159 202l118 96q-1 9 -1.5 18t-0.5 19zM492 688
q0 -26 16 -42.5t42 -16.5q17 0 33 6.5t28.5 18t20 27t7.5 32.5q0 25 -16 42t-42 17q-17 0 -33 -7t-28.5 -18.5t-20 -26.5t-7.5 -32z" />
    <glyph glyph-name="quotesingle" unicode="'" horiz-adv-x="378" 
d="M295 1065l72 457h291l-125 -457h-238z" />
    <glyph glyph-name="quotedblleft" unicode="&#x201c;" horiz-adv-x="942" 
d="M679.959 1513.91q-18.999 -44.9971 -38.498 -90.9941t-35.498 -86.9951q-15.999 -40.9971 -25.998 -75.4951q-10 -34.498 -10 -57.4961q0 -32.998 23.999 -32.998h50.9971l-62.9961 -294.982l-327.98 -2.99902l58.9961 277.982q12 56.9971 51.4971 151.491
q39.498 94.4941 119.493 240.485zM1120.93 1509.91q-18.999 -44.998 -38.498 -90.9951q-19.498 -45.9971 -35.4971 -86.9941q-15.999 -40.998 -25.999 -75.4961q-9.99902 -34.4971 -9.99902 -57.4961q0 -32.998 23.998 -32.998h50.9971l-62.9961 -294.981l-327.979 -3
l58.9961 277.982q11.999 56.9971 51.4971 151.491q39.4971 94.4941 119.492 240.485z" />
    <glyph glyph-name="guillemotleft" unicode="&#xab;" horiz-adv-x="1017" 
d="M231 187l-82 403l253 404h320l-265 -404l94 -403h-320zM711 187l-82 403l253 404h320l-265 -404l94 -403h-320z" />
    <glyph glyph-name="guilsinglright" unicode="&#x203a;" horiz-adv-x="536" 
d="M66 187l273 403l-87 404h315l75 -404l-261 -403h-315z" />
    <glyph glyph-name="endash" unicode="&#x2013;" horiz-adv-x="957" 
d="M171 445l61 285h804l-61 -285h-804z" />
    <glyph glyph-name="dagger" unicode="&#x2020;" horiz-adv-x="785" 
d="M728 811l-265 -1246h-322l265 1246h-237l68 317h236l85 398h322l-85 -398h235l-68 -317h-234z" />
    <glyph glyph-name="periodcentered" unicode="&#xb7;" horiz-adv-x="475" 
d="M169 543q0 104 52.5 160.5t175.5 56.5q80 0 118.5 -30t38.5 -96q0 -103 -53 -159.5t-177 -56.5q-155 0 -155 125z" />
    <glyph glyph-name="paragraph" unicode="&#xb6;" horiz-adv-x="1236" 
d="M444 -369l194 914q-188 4 -284.5 90t-96.5 264q0 142 31 257t100.5 196.5t182 125.5t275.5 44h288l-402 -1891h-288zM807 -369l402 1891h286l-402 -1891h-286z" />
    <glyph glyph-name="bullet" unicode="&#x2022;" horiz-adv-x="948" 
d="M1030 774q0 -63 -18.5 -122t-51.5 -111t-79 -95t-100 -73.5t-114.5 -47.5t-123.5 -17q-71 0 -131 25t-103 69.5t-67 104.5t-24 129q0 63 19.5 122t53.5 110.5t81 94t102 73t115 47t122 16.5q72 0 131 -24.5t100.5 -68t64.5 -103t23 -129.5z" />
    <glyph glyph-name="quotesinglbase" unicode="&#x201a;" horiz-adv-x="453" 
d="M9 -325q19 45 38.5 91t35.5 87t26 75.5t10 57.5q0 33 -24 33h-51l63 295l328 3l-59 -278q-12 -57 -51.5 -151.5t-119.5 -240.5z" />
    <glyph glyph-name="quotedblbase" unicode="&#x201e;" horiz-adv-x="942" 
d="M9 -325q19 45 38.5 91t35.5 87t26 75.5t10 57.5q0 33 -24 33h-51l63 295l328 3l-59 -278q-12 -57 -51.5 -151.5t-119.5 -240.5zM511 -325q19 45 38.5 91t35.5 87t26 75.5t10 57.5q0 33 -24 33h-51l63 295l328 3l-59 -278q-12 -57 -51.5 -151.5t-119.5 -240.5z" />
    <glyph glyph-name="quotedblright" unicode="&#x201d;" horiz-adv-x="942" 
d="M247 884q19 45 38.5 91t35.5 87t26 75.5t10 57.5q0 33 -24 33h-51l63 295l328 3l-59 -278q-12 -57 -51.5 -151.5t-119.5 -240.5zM749 884q19 45 38.5 91t35.5 87t26 75.5t10 57.5q0 33 -24 33h-51l63 295l328 3l-59 -278q-12 -57 -51.5 -151.5t-119.5 -240.5z" />
    <glyph glyph-name="perthousand" unicode="&#x2030;" horiz-adv-x="2455" 
d="M309 1181q20 94 49.5 162.5t76.5 113.5t114 67t162 22q72 0 121.5 -12.5t81 -38t45.5 -64.5t14 -92q0 -65 -20 -157l-50 -236q-20 -95 -49.5 -165t-75.5 -115.5t-112.5 -67.5t-160.5 -22q-72 0 -123 12.5t-82.5 39t-46 66.5t-14.5 94q0 66 20 160zM559 831q10 0 19 4
t17.5 16t15.5 33.5t15 57.5l51 243q10 44 10 70q0 24 -8 31t-22 7q-11 0 -20.5 -3.5t-18 -15t-16.5 -33t-15 -56.5l-52 -245q-9 -44 -9 -67q0 -26 9 -34t24 -8zM827 0h-308l728 1522h310zM1098 364q19 93 48.5 162t76 114t114 67t162.5 22q71 0 121.5 -13t82 -39t46 -65
t14.5 -92q0 -67 -21 -157l-6 -26q-21 -95 -51 -164.5t-76 -115.5t-112 -68t-160 -22q-72 0 -122.5 13t-82 39t-45.5 66t-14 94q0 35 5.5 74.5t14.5 85.5zM1391 222q10 0 19.5 4t17.5 16t15.5 33.5t14.5 56.5l7 35q9 48 9 70q0 24 -7.5 31t-21.5 7q-11 0 -20 -3.5t-17.5 -15
t-16.5 -33t-16 -56.5l-8 -36q-9 -42 -9 -65q0 -27 9.5 -35.5t23.5 -8.5zM1798 363q22 93 52 162t76 114t112.5 67.5t161.5 22.5q71 0 121 -12.5t81.5 -38.5t45.5 -65t14 -92q0 -65 -20 -157l-6 -27q-21 -95 -50.5 -164.5t-75.5 -115.5t-112 -68t-160 -22q-144 0 -206.5 52
t-62.5 159q0 35 6 74.5t17 86.5zM2092 222q10 0 19 4t17.5 16t16 33.5t14.5 56.5l7 35q9 46 9 69q0 25 -8 32t-21 7q-11 0 -20.5 -3.5t-18 -15t-16.5 -32.5t-15 -56l-8 -37q-9 -44 -9 -67q0 -26 9 -34t24 -8z" />
    <glyph glyph-name="grave" unicode="`" horiz-adv-x="421" 
d="M614 1573l69 -295h-218l-128 295h277z" />
    <glyph glyph-name="acute" unicode="&#xb4;" horiz-adv-x="489" 
d="M795 1573l-264 -295h-228l195 295h297z" />
    <glyph glyph-name="circumflex" unicode="&#x2c6;" horiz-adv-x="370" 
d="M179 1279l192 249h300l86 -249h-252l-18 92l-57 -92h-251z" />
    <glyph glyph-name="tilde" unicode="&#x2dc;" horiz-adv-x="358" 
d="M843 1549q-19 -56 -47.5 -106t-66.5 -88t-87 -60t-109 -22q-35 0 -60.5 9.5t-46.5 21.5t-40 21.5t-41 9.5q-32 0 -58.5 -15t-47.5 -59l-149 43q20 53 48.5 102.5t66 87t85 60t106.5 22.5q38 0 64.5 -9.5t47.5 -21.5t39 -21.5t40 -9.5q35 0 60.5 16t44.5 58z" />
    <glyph glyph-name="macron" unicode="&#xaf;" horiz-adv-x="365" 
d="M199 1309l50 236h530l-50 -236h-530z" />
    <glyph glyph-name="breve" unicode="&#x2d8;" horiz-adv-x="763" 
d="M1022 1587q-13 -61 -40 -117t-72.5 -98.5t-111.5 -68t-156 -25.5q-74 0 -123.5 16.5t-80 45.5t-43.5 68t-13 84q0 43 11 95h174q-2 -17 -4 -31.5t-2 -28.5q0 -16 4.5 -29.5t17.5 -23.5t36 -15.5t60 -5.5q49 0 77.5 9.5t45.5 27.5t26.5 42.5t18.5 54.5h175z" />
    <glyph glyph-name="dotaccent" unicode="&#x2d9;" horiz-adv-x="467" 
d="M343 1365q0 104 52.5 160.5t175.5 56.5q80 0 119 -30t39 -96q0 -103 -53.5 -159.5t-177.5 -56.5q-155 0 -155 125z" />
    <glyph glyph-name="dieresis" unicode="&#xa8;" horiz-adv-x="427" 
d="M205 1383q0 43 9 78.5t29.5 60t54.5 38t84 13.5q59 0 88 -25t29 -79q0 -88 -40.5 -138.5t-138.5 -50.5q-59 0 -87 24.5t-28 78.5zM525 1383q0 44 9 79.5t30 60t55 37.5t83 13q60 0 88.5 -24.5t28.5 -78.5q0 -44 -9 -79t-30 -59.5t-55.5 -38t-84.5 -13.5q-58 0 -86.5 24.5
t-28.5 78.5z" />
    <glyph glyph-name="ring" unicode="&#x2da;" horiz-adv-x="444" 
d="M265 1431q0 72 17.5 128t55.5 94t98 58t145 20q110 0 163.5 -41.5t53.5 -132.5q0 -71 -17.5 -126.5t-55.5 -94t-98.5 -59t-146.5 -20.5q-109 0 -162 42.5t-53 131.5zM471 1479q0 -39 49 -39q40 0 55 19t15 49q0 38 -48 38q-41 0 -56 -17.5t-15 -49.5z" />
    <glyph glyph-name="cedilla" unicode="&#xb8;" horiz-adv-x="712" 
d="M64 -285q16 -11 32 -20.5t35.5 -17t45.5 -11.5t63 -4q21 0 40.5 4t34.5 13t24 22.5t9 31.5q0 13 -8.5 22t-22.5 15t-32 8.5t-37 2.5q-20 0 -39 -2.5t-34 -7.5l61 275h150l-26 -126q11 2 23 5q11 2 24.5 4t29.5 2q39 0 67 -13t46 -34.5t26.5 -49t8.5 -56.5
q0 -61 -26.5 -109.5t-74.5 -82t-115.5 -51t-149.5 -17.5q-41 0 -75.5 8t-63 20.5t-49.5 28.5t-35 31z" />
    <glyph glyph-name="hungarumlaut" unicode="&#x2dd;" horiz-adv-x="389" 
d="M585 1573l-254 -295h-218l195 295h277zM898 1573l-254 -295h-218l195 295h277z" />
    <glyph glyph-name="ogonek" unicode="&#x2db;" horiz-adv-x="410" 
d="M264 -419q-68 -60 -187 -60q-48 0 -90.5 11t-74 34.5t-50 61t-18.5 90.5q0 72 30 122.5t81.5 88t121 67.5t147.5 60l106 -56q-48 -27 -84 -50.5t-60 -48.5t-36 -54t-12 -66q0 -27 13 -39.5t36 -12.5q18 0 29.5 1t21.5 4t20 7.5t24 12.5z" />
    <glyph glyph-name="caron" unicode="&#x2c7;" horiz-adv-x="683" 
d="M625 1528l18 -92l57 92h252l-193 -249h-299l-86 249h251z" />
    <glyph glyph-name="emdash" unicode="&#x2014;" horiz-adv-x="1335" 
d="M170 446l61 285h1168l-61 -285h-1168z" />
    <glyph glyph-name="AE" unicode="&#xc6;" horiz-adv-x="1169" 
d="M-62 0l689 1522h812l-69 -321h-295l-58 -273h226l-68 -321h-226l-61 -287h295l-68 -320h-624l41 195h-182l-81 -195h-331zM597 497l124 582l-244 -582h120z" />
    <glyph glyph-name="Lslash" unicode="&#x141;" horiz-adv-x="790" 
d="M200 0l82 386l-116 -70l76 357l115 70l166 779h330l-117 -550l144 87l-75 -358l-146 -88l-63 -297h352l-67 -316h-681z" />
    <glyph glyph-name="OE" unicode="&#x152;" horiz-adv-x="1347" 
d="M544 0l14 70q-27 -34 -65.5 -61t-93.5 -27q-73 0 -123.5 17t-82 49.5t-45.5 78.5t-14 103q0 36 5 75t14 83l159 752q19 90 51.5 165t82.5 128.5t120 83t165 29.5q41 0 75.5 -20t52.5 -43l9 43h703l-67 -319h-375l-59 -279h305l-68 -321h-305l-61 -287h374l-68 -320h-703z
M530 302q32 0 54 16t33 30l177 833q-5 14 -20 29.5t-48 15.5q-22 0 -37.5 -9.5t-25.5 -23.5t-15.5 -30t-8.5 -29l-18 -90t-19 -89l-76 -358q-9 -45 -19 -89.5t-20 -89.5q-4 -17 -6.5 -32.5t-2.5 -29.5q0 -25 11.5 -39.5t40.5 -14.5z" />
    <glyph glyph-name="ordmasculine" unicode="&#xba;" horiz-adv-x="761" 
d="M309 1181q20 94 50 162.5t76.5 113.5t113.5 67t162 22q72 0 121.5 -12.5t80.5 -38.5t45 -65t14 -92q0 -34 -5 -72.5t-14 -83.5l-15 -72q-20 -95 -49.5 -165t-75.5 -115.5t-112.5 -67.5t-160.5 -22q-72 0 -123 13t-83 39t-46.5 66t-14.5 94q0 35 5.5 74.5t15.5 85.5z
M594 996q10 0 19 3t16.5 13.5t14.5 31.5t15 56l20 91q9 45 9 66q0 24 -8.5 30t-22.5 6q-11 0 -20.5 -2.5t-17.5 -13t-16 -30.5t-15 -55l-20 -94q-9 -42 -9 -63q0 -26 10 -32.5t25 -6.5zM225 686h604l-54 -254h-604z" />
    <glyph glyph-name="dotlessi" unicode="&#x131;" horiz-adv-x="490" 
d="M84 0l255 1202h323l-256 -1202h-322z" />
    <glyph glyph-name="Euro" unicode="&#x20ac;" horiz-adv-x="943" 
d="M736 1011l28 130q3 13 3 29q0 20 -10 37.5t-40 18.5q-21 0 -36 -9t-24.5 -22.5t-15 -28t-8.5 -26.5l-36 -168h320l-61 -196h-301l-7 -33h298l-62 -196h-278l-34 -163q-2 -7 -3 -14.5t-1 -15.5q0 -20 10.5 -38t40.5 -18q20 0 35 8.5t25 20.5t15.5 26t8.5 26l28 134h330
l-29 -135q-19 -90 -55.5 -163.5t-94 -126t-139 -81.5t-190.5 -29q-1 0 -1 -1q-89 0 -150.5 19t-100.5 54t-56.5 85.5t-17.5 112.5q0 32 4 65.5t12 70.5l34 163h-64l62 196h44l7 33h-65l62 196h44l36 168q19 90 55 165t94 128t139.5 83t191.5 30l1 1q88 0 150 -19t101 -54
t57 -85t18 -112q0 -31 -4 -65t-12 -70l-28 -131h-330z" />
    <glyph glyph-name="trademark" unicode="&#x2122;" horiz-adv-x="1731" 
d="M1209 936h-6l-68 -413h-277l213 1003h341l17 -460h4l213 460h339l-213 -1003h-275l107 413h-6l-168 -349h-201zM775 1258l-157 -735h-277l156 735h-190l57 266h656l-57 -266h-188z" />
    <glyph glyph-name="copyright" unicode="&#xa9;" horiz-adv-x="1586" 
d="M1606 506q-45 -212 -123 -352.5t-186.5 -225t-246 -119.5t-300.5 -35q-135 0 -242 23t-182 77.5t-114.5 144t-39.5 222.5q0 117 33 272l71 332q45 209 122 348.5t185 223.5t245.5 119t302.5 35q135 0 242 -23t181.5 -77.5t114 -144.5t39.5 -223q0 -113 -32 -267zM803 23
q130 0 221 31.5t152.5 92t99.5 149t62 201.5l74 347q11 55 17.5 103.5t6.5 91.5q0 69 -18.5 122t-60.5 89t-110.5 54.5t-168.5 18.5q-129 0 -220 -31.5t-153 -92t-100 -148t-62 -198.5l-74 -347q-12 -56 -18.5 -104.5t-6.5 -92.5q0 -70 19 -123.5t61.5 -89.5t111 -54.5
t167.5 -18.5zM965 501h274l-5 -22q-18 -80 -47.5 -145t-77 -111t-115.5 -71.5t-163 -25.5q-75 0 -127.5 16t-85.5 46t-48 72.5t-15 95.5q0 54 14 121l62 291l10 48l10 48q17 79 47.5 144.5t79 112t118 72t164.5 25.5q74 0 125.5 -15.5t84 -45t47.5 -71.5t15 -94
q0 -29 -4 -61t-12 -67l-5 -22h-273l6 28q2 10 2.5 23t-4 24t-14 19t-26.5 8q-18 0 -30.5 -7.5t-21 -18t-13 -23t-6.5 -22.5l-51 -240l-34 -157q-2 -11 -3 -23.5t2.5 -24t13 -19t27.5 -7.5t30.5 7.5t21.5 18.5t14.5 23.5t7.5 23.5z" />
    <glyph glyph-name="minus" unicode="&#x2212;" horiz-adv-x="836" 
d="M190 561l61 285h694l-61 -285h-694z" />
    <glyph glyph-name="degree" unicode="&#xb0;" horiz-adv-x="474" 
d="M758 1349q0 -57 -21.5 -109.5t-60.5 -93t-94.5 -64.5t-124.5 -24q-48 0 -84 15t-60.5 41.5t-36.5 61.5t-12 75q0 56 21.5 109.5t61 95t94 67t120.5 25.5q50 0 87 -16t61.5 -43t36.5 -63.5t12 -76.5zM578 1322q0 25 -12.5 39.5t-40.5 14.5q-35 0 -58 -26.5t-23 -68.5
q0 -25 12 -43t35 -18q22 0 38.5 9t27 23.5t16 33t5.5 36.5z" />
    <glyph glyph-name="plusminus" unicode="&#xb1;" horiz-adv-x="836" 
d="M436 746h-206l61 285h205l44 204h284l-43 -204h204l-61 -285h-204l-44 -206h-284zM106 161l61 285h694l-61 -285h-694z" />
    <glyph glyph-name="onehalf" unicode="&#xbd;" horiz-adv-x="1668" 
d="M389 1698q54 25 107 57.5t89 66.5h225l-213 -999h-278l144 677q-9 -10 -23.5 -18.5t-31.5 -15.5t-35.5 -11t-36.5 -5zM1029 301l56 264q25 41 69 83t95 82t103.5 78.5t95.5 74t70 67.5t27 59q0 16 -7 31.5t-28 15.5q-27 0 -40 -23.5t-19 -52.5l-4 -19h-278l11 51
q16 74 48.5 132.5t81.5 99t114.5 61.5t148.5 21q132 0 195 -64.5t63 -184.5q0 -73 -26 -134t-66.5 -111t-89 -90t-94 -72.5t-81.5 -57.5t-51 -45h292l-57 -266h-629zM648 -50l-268 51l726 1520l260 -50z" />
    <glyph glyph-name="Eth" unicode="&#xd0;" horiz-adv-x="941" 
d="M607 561h-488l61 285h488zM399 1522h392q88 0 149.5 -19t100.5 -54t56.5 -85t17.5 -112q0 -32 -4 -66t-12 -71l-150 -708q-20 -91 -56 -166t-93.5 -128.5t-139 -83t-192.5 -29.5h-393zM659 1201l-187 -881h64q21 0 36.5 9.5t25.5 23t15.5 28.5t7.5 26l150 708q2 6 3 13.5
t1 15.5q0 20 -10.5 38.5t-41.5 18.5h-64z" />
    <glyph glyph-name="multiply" unicode="&#xd7;" horiz-adv-x="836" 
d="M365 703l-130 165l245 202l130 -166l201 166l158 -202l-200 -166l130 -164l-244 -203l-131 165l-200 -165l-159 203z" />
    <glyph glyph-name="eth" unicode="&#xf0;" horiz-adv-x="913" 
d="M596 1315q-28 6 -53 6.5t-42 2.5l198 270q21 -3 50.5 -9t63.5 -17l61 70l107 -84l-47 -54q28 -23 52 -54.5t42 -73.5t28.5 -95.5t10.5 -120.5q0 -49 -6 -105t-20 -122l-1 -1l-116 -546q-20 -91 -53.5 -165.5t-88.5 -128t-135 -82.5t-192 -29q-89 0 -150 18.5t-99.5 52.5
t-55.5 83t-17 110q0 62 17 141l79 373q19 91 47 164t71.5 124t105 78t148.5 27q66 0 99 -34.5t43 -96.5q3 30 3 57q0 57 -10.5 97.5t-27.5 67.5l-51 -59l-108 81zM518 292q21 0 35.5 8.5t24 20.5t14.5 26t7 26l79 369q2 8 3 18t1 21q0 23 -9 43t-37 20q-21 0 -36 -8.5
t-24.5 -21t-14.5 -27t-8 -26.5l-82 -388q-2 -7 -3 -14t-1 -15q0 -20 10.5 -36t40.5 -16z" />
    <glyph glyph-name="divide" unicode="&#xf7;" horiz-adv-x="836" 
d="M190 561l61 285h694l-61 -285h-694zM443 1007q0 104 52.5 160.5t175.5 56.5q80 0 118.5 -30t38.5 -96q0 -103 -53 -159.5t-177 -56.5q-155 0 -155 125zM294 307q0 104 52.5 160.5t175.5 56.5q80 0 118.5 -30t38.5 -96q0 -103 -53 -159.5t-177 -56.5q-155 0 -155 125z" />
    <glyph glyph-name="thorn" unicode="&#xfe;" horiz-adv-x="934" 
d="M2 -367l402 1889h321l-87 -408q32 52 74 82.5t99 30.5q65 0 110.5 -16t74 -46.5t41.5 -74.5t13 -99q0 -37 -5.5 -79t-15.5 -88l-95 -445q-20 -91 -49.5 -165.5t-75 -127t-109 -81t-150.5 -28.5q-60 0 -89.5 32.5t-38.5 89.5l-99 -466h-321zM661 915q-21 0 -36 -11.5
t-25 -28t-16 -33.5t-9 -29l-89 -420q-2 -8 -3 -18t-1 -21t2 -22t7 -20t14.5 -14.5t23.5 -5.5q21 0 35 8.5t24 20.5t15 26t8 26l97 460q2 7 3 14t1 15q0 20 -10.5 36.5t-40.5 16.5z" />
    <glyph glyph-name=".DOT" horiz-adv-x="-1" 
d="M63 385q0 82 39.5 120t122.5 38q84 0 123 -38t39 -120t-39 -120t-123 -38q-83 0 -122.5 38t-39.5 120z" />
    <glyph glyph-name="p" unicode="p" horiz-adv-x="932" 
d="M6 -367l334 1569h321l-19 -90q32 54 74 84.5t99 30.5q65 0 110.5 -16t74 -46.5t41.5 -74t13 -98.5q0 -37 -5.5 -79t-15.5 -88l-95 -446q-20 -91 -49.5 -165t-75 -126.5t-109 -81.5t-150.5 -29q-59 0 -89 32t-39 88l-99 -464h-321zM533 292q21 0 35 8.5t24 20.5t15 26
t8 26l97 459q2 7 3 14.5t1 15.5q0 20 -10.5 36.5t-40.5 16.5q-21 0 -36 -11.5t-25.5 -28t-16.5 -33.5t-8 -29l-90 -421q-2 -7 -3 -16t-1 -20q0 -23 9.5 -43.5t38.5 -20.5z" />
    <glyph glyph-name="q" unicode="q" horiz-adv-x="923" 
d="M442 -367l97 455q-32 -52 -73.5 -81.5t-98.5 -29.5q-65 0 -110 16t-73.5 46.5t-41.5 74.5t-13 99q0 38 5.5 79.5t15.5 87.5l94 445q19 91 49 165.5t75.5 127t109.5 81t151 28.5q57 0 87 -32t40 -86l20 93h320l-334 -1569h-320zM517 289q21 0 36 11.5t25.5 27.5t16.5 33.5
t8 28.5l52 242l39 185v3q1 7 1.5 14t0.5 15q0 23 -9 43t-37 20q-21 0 -35.5 -8.5t-24.5 -20.5t-15 -26.5t-8 -26.5l-97 -459q-3 -12 -3.5 -26t4 -26.5t15 -21t31.5 -8.5z" />
    <glyph glyph-name="e" unicode="e" horiz-adv-x="913" 
d="M929 406l-5 -25q-19 -92 -53 -166.5t-89.5 -127t-135 -81.5t-190.5 -29q-88 0 -149.5 18.5t-99.5 52.5t-55.5 83t-17.5 111q0 65 16 138l94 445q19 91 54 165.5t91.5 127t137 81t191.5 28.5q87 0 147.5 -18t98 -52t54.5 -82.5t17 -109.5q0 -63 -17 -142l-2 -6h1l-62 -291
l-476 -97l-11 -54q-3 -12 -3 -26t4.5 -27t16.5 -21.5t33 -8.5t36 9t25 21.5t16 27.5t9 27l6 29h318zM651 915q-21 0 -36 -9t-25.5 -21.5t-16.5 -27.5t-9 -27l-26 -123l144 33l19 89q3 12 3 27t-4.5 28t-16 22t-32.5 9z" />
    <glyph glyph-name="a" unicode="a" horiz-adv-x="932" 
d="M529 0l22 106q-33 -57 -75.5 -93t-99.5 -36q-65 0 -110 16t-73.5 46.5t-41.5 74.5t-13 99q0 38 5.5 79.5t15.5 87.5l94 445q21 101 51.5 176.5t76 125.5t108.5 75t150 25q57 0 85.5 -37.5t36.5 -97.5l24 110h320l-256 -1202h-320zM518 289q19 0 34.5 9t27 22.5t19 29.5
t11.5 31l94 443q3 15 3 35q0 22 -8 39.5t-34 17.5q-21 0 -36.5 -9t-26.5 -22t-17 -28t-9 -27l-97 -459q-3 -14 -5 -25.5t-2 -21.5q0 -17 9.5 -26t36.5 -9z" />
    <glyph glyph-name="u" unicode="u" horiz-adv-x="938" 
d="M790 1202h320l-256 -1202h-320l20 96q-32 -54 -74 -86t-98 -32q-65 0 -110.5 16t-74 46.5t-41 74t-12.5 98.5q0 72 20 166l175 824h323l-177 -832q-2 -7 -3 -14t-1 -15q0 -20 10.5 -36t40.5 -16q21 0 36 11.5t25 28t16 33.5t8 29l77 360z" />
    <glyph glyph-name="n" unicode="n" horiz-adv-x="940" 
d="M533 0l177 832q2 7 3 14t1 15q0 20 -10.5 36t-40.5 16q-21 0 -36 -11.5t-25.5 -28t-16 -33.5t-8.5 -29l-172 -811h-321l255 1202h321l-20 -96q19 25 44 47t53.5 38t58 25t57.5 9q56 0 94.5 -14t62.5 -41t34.5 -65.5t10.5 -87.5q0 -42 -7 -90.5t-18 -102.5l-175 -824h-322
z" />
    <glyph glyph-name="h" unicode="h" horiz-adv-x="940" 
d="M533 0l177 832q2 7 3 14t1 15q0 20 -10.5 36t-40.5 16q-21 0 -36 -11.5t-25.5 -28t-16 -33.5t-8.5 -29l-172 -811h-321l333 1567h321l-98 -461q32 55 74 87t99 32q65 0 110 -16t73.5 -46t41 -73.5t12.5 -98.5q0 -73 -20 -167l-175 -824h-322z" />
    <glyph glyph-name="d" unicode="d" horiz-adv-x="940" 
d="M962 477h1l-20 -93l-1 -4q-27 -123 -71 -201t-105 -123t-138.5 -62t-170.5 -17q-161 0 -233.5 61t-72.5 188q0 34 5 72t14 82l94 445q22 103 52 178.5t75 125t108 74t150 24.5q57 0 85.5 -38t37.5 -101l102 481h320zM537 289q18 0 33 11.5t26 27.5t17.5 33t9.5 29l90 421
q2 12 1 30t-6 35t-13.5 29t-21.5 12q-21 0 -36 -9t-25 -22.5t-16 -28t-8 -26.5l-98 -460q-3 -13 -5 -24.5t-2 -20.5q0 -17 11 -27t43 -10z" />
    <glyph glyph-name="t" unicode="t" horiz-adv-x="704" 
d="M798 1585l-28 -133h-1l-53 -250h164l-64 -302h-164l-111 -525q-2 -12 -3.5 -22.5t-1.5 -19.5q0 -50 40 -50q35 0 61.5 5t47.5 12.5t36.5 15.5t27.5 14l-42 -270q-45 -32 -107.5 -57.5t-148.5 -25.5q-71 0 -119.5 16.5t-78 47.5t-42.5 74.5t-13 96.5q0 72 20 163l111 525
h-129l64 302h129l82 383h323z" />
    <glyph glyph-name="j" unicode="j" horiz-adv-x="491" 
d="M356 1390q0 94 52.5 143.5t171.5 49.5q81 0 120 -28t39 -88q0 -93 -52 -143t-173 -50q-158 0 -158 116zM662 1202l-257 -1210q-18 -86 -47.5 -159t-76.5 -126t-114.5 -83t-163.5 -30q-43 0 -77 7t-60.5 18.5t-47 26.5t-36.5 31l74 270l21 -14t29.5 -15.5t42 -12.5
t59.5 -5q54 0 74 92l257 1210h323z" />
    <glyph glyph-name="ae" unicode="&#xe6;" horiz-adv-x="1379" 
d="M516 0l21 93q-33 -54 -76 -85t-101 -31q-64 0 -108.5 16t-72.5 45.5t-40.5 72t-12.5 95.5q0 39 6 82.5t17 92.5l102 442q21 91 52 165.5t77.5 127.5t111 82t151.5 29q58 0 87.5 -32t38.5 -86l22 93h315l-18 -79q34 46 76 73.5t93 27.5q71 0 119 -15t77.5 -42.5t42 -67.5
t12.5 -90q0 -41 -7 -87t-19 -99l-2 -8h1l-66 -287l-479 -96l-13 -55q-2 -7 -3 -15t-1 -16q0 -22 11.5 -40.5t44.5 -18.5q22 0 38 9t26.5 22.5t17 29.5t9.5 29l7 29h314l-7 -25q-21 -91 -48 -164.5t-74 -125.5t-119 -80.5t-183 -28.5q-46 0 -71 29t-35 74l-19 -85h-315z
M512 284q22 0 38.5 12t27.5 29.5t17.5 36t9.5 31.5l94 410l4 17q3 16 3 35q0 23 -9.5 42.5t-38.5 19.5q-22 0 -37.5 -9t-25.5 -22t-16 -28.5t-9 -28.5l-105 -456q-5 -18 -5 -36q0 -21 10.5 -37t41.5 -16zM1120 920q-23 0 -39 -9.5t-27 -23t-17.5 -29.5t-9.5 -29l-29 -124
l151 34l21 90q2 8 3 16t1 16q0 22 -11 40.5t-43 18.5z" />
    <glyph glyph-name="Thorn" unicode="&#xde;" horiz-adv-x="948" 
d="M734 1522l-57 -265h54q76 0 137.5 -14t105.5 -45.5t68 -82t24 -123.5q0 -27 -3 -57.5t-11 -65.5l-51 -237q-24 -113 -69 -189t-107.5 -122.5t-140.5 -66.5t-168 -20h-56l-50 -234h-329l324 1522h329zM721 869q7 33 -4.5 50.5t-53.5 17.5h-54l-82 -385h51q44 0 64 19
t29 61z" />
    <glyph glyph-name="semicolon" unicode=";" horiz-adv-x="477" 
d="M74 102q0 52 12.5 92t40 68t70.5 42.5t105 14.5q79 0 115 -40.5t36 -109.5q0 -74 -21.5 -143.5t-56.5 -130t-80 -111t-92 -86.5l-123 83q30 28 50.5 52t35.5 46.5t26 46t20 51.5q-71 0 -104.5 32t-33.5 93zM268 1009q0 104 52.5 160.5t175.5 56.5q80 0 118.5 -30
t38.5 -96q0 -103 -53 -159.5t-177 -56.5q-155 0 -155 125z" />
    <glyph glyph-name="backslash" unicode="\" horiz-adv-x="695" 
d="M326 1599h318l47 -1679h-317z" />
    <glyph glyph-name="oe" unicode="&#x153;" horiz-adv-x="1383" 
d="M1385 406l-5 -25q-19 -92 -53 -166.5t-89.5 -127t-135.5 -81.5t-191 -29q-72 0 -126 12.5t-92 35.5q-48 -23 -106.5 -35.5t-130.5 -12.5q-88 0 -149.5 18.5t-99.5 52.5t-55.5 83t-17.5 111q0 32 4 66t12 71l94 446q19 91 54 165.5t91.5 127t137 81t191.5 28.5
q72 0 125 -12.5t91 -36.5q48 24 107 36.5t132 12.5q87 0 147.5 -18.5t98.5 -52.5t55 -82.5t17 -109.5q0 -62 -17 -141l-2 -6h1l-62 -291l-476 -97l-11 -50q-2 -6 -2 -9q-2 -12 -1.5 -25.5t5.5 -25.5t16.5 -19.5t31.5 -7.5q21 0 36 9t25.5 21.5t16 27.5t8.5 27l6 29h319z
M651 915q-21 0 -35.5 -8.5t-24 -21t-14.5 -27t-8 -26.5l-98 -459q-2 -7 -3 -14t-1 -15q0 -20 10.5 -36t41.5 -16q21 0 35 8.5t23.5 20.5t14.5 26t8 26l97 460q2 7 3 14.5t1 15.5q0 20 -10 36t-40 16zM1107 915q-20 0 -35 -8t-25 -19.5t-16.5 -25.5t-9.5 -26q0 -2 -0.5 -3.5
t-0.5 -3.5l-26 -122l143 33l19 89q3 12 3 27t-4.5 28t-15.5 22t-32 9z" />
    <glyph glyph-name="questiondown" unicode="&#xbf;" horiz-adv-x="890" 
d="M67.9961 -48.9971q0 105.993 25.498 188.988q25.499 82.9951 64.4961 149.491q38.998 66.4961 86.4951 121.492q47.4971 54.9971 91.4941 104.494t78.4951 98.4941t48.4971 103.993l17.999 70.9961h277.983l-14 -75.9961q-16.999 -90.9941 -48.4971 -159.99
q-31.498 -68.9951 -68.9951 -124.492q-37.498 -55.4961 -76.9951 -102.493q-39.498 -46.9971 -71.4961 -92.4951q-31.998 -45.4971 -52.4971 -94.4941q-20.498 -48.9971 -20.498 -109.993q0 -19.999 7.99902 -31.498q8 -11.499 29.998 -11.499q19.999 0 31.998 5.99902
q12 6 19.499 16.999q7.5 11 11.999 26.999q4.5 15.999 8.5 35.998l19.998 93.9941h315.981l-17.999 -94.9941q-16.999 -86.9951 -46.9971 -161.99q-29.998 -74.9961 -82.4951 -129.992q-52.4971 -54.9971 -131.992 -85.9951t-193.488 -30.998q-71.9951 0 -129.492 14.999
q-57.4961 14.999 -97.9932 49.4971q-40.498 34.498 -61.9971 89.4951q-21.498 54.9961 -21.498 134.991zM870.947 1105.93q0 -50.9971 -12 -91.4941q-11.999 -40.498 -38.9971 -68.4961q-26.999 -27.998 -70.4961 -42.4971q-43.4971 -14.5 -106.493 -14.5
q-79.9951 0 -118.493 29.999q-38.4971 29.998 -38.4971 95.9941q0 102.993 52.9961 159.49q52.9971 56.4961 176.989 56.4961q154.991 0 154.991 -124.992z" />
    <glyph glyph-name="brokenbar" unicode="&#xa6;" horiz-adv-x="1012" 
d="M264 817l167 787h330l-168 -787h-329zM572 717l-170 -799h-329l170 799h329z" />
    <glyph glyph-name="Oslash" unicode="&#xd8;" horiz-adv-x="930" 
d="M311 1140q19 91 55.5 165.5t94 128t139.5 83t193 29.5q88 0 150 -19t101 -54.5t56.5 -85.5t17.5 -112q0 -32 -4 -65.5t-12 -70.5l-161 -756q-19 -91 -55 -165.5t-94 -128t-139.5 -83t-192.5 -29.5q-89 0 -150.5 19t-100.5 54t-56.5 85.5t-17.5 112.5q0 32 4 65.5t12 70.5
zM725 1226q-21 0 -36 -9t-25 -22t-15.5 -28t-7.5 -26l-161 -757q-2 -7 -3 -14.5t-1 -15.5q0 -21 10.5 -38.5t41.5 -17.5q21 0 36 9t24.5 22t15 27.5t8.5 26.5l161 756q2 7 3 14.5t1 15.5q0 21 -10.5 39t-41.5 18zM401 -80h-316l760 1679h319z" />
    <glyph glyph-name="germandbls" unicode="&#xdf;" horiz-adv-x="928" 
d="M655 978h22q20 1 34 10t23.5 22.5t15 28.5t8.5 27l17 82q3 13 3 31q0 22 -10 39.5t-41 17.5q-21 0 -35.5 -9t-24.5 -22t-15.5 -27.5t-8.5 -26.5l-244 -1149l-329 -2l242 1141q19 90 55 165t94 128t139.5 82.5t192.5 29.5q87 0 148 -18t99 -52t55 -83t17 -111
q0 -33 -4.5 -69t-12.5 -76l-13 -64q-20 -97 -63.5 -157t-107.5 -94q38 -26 59 -66.5t21 -99.5q0 -37 -9 -80l-36 -167q-20 -91 -56 -166t-93.5 -128.5t-139 -83t-192.5 -29.5l66 310q21 0 36.5 9t26.5 22.5t17.5 28t8.5 25.5l39 187q3 11 3 26t-5.5 28.5t-17 22.5t-32.5 9
h-17z" />
    <glyph glyph-name="Germandbls" unicode="&#x1e9e;" horiz-adv-x="939" 
d="M665 957l117 244h-47q-21 0 -36 -9t-24.5 -21.5t-15 -27t-8.5 -26.5l-237 -1115l-333 -2l237 1117q19 91 56 166t95.5 128.5t141 83t193.5 29.5l374 -2l-70 -327l-189 -340q44 -32 68.5 -80.5t24.5 -114.5q0 -39 -9 -84l-36 -167q-20 -91 -57 -166t-95.5 -128.5t-141 -83
t-193.5 -29.5l68 318q21 0 36.5 9t26 22.5t17 28.5t9.5 26l37 178q3 11 3 26t-5.5 28.5t-17 22.5t-32.5 9h-18z" />
    <glyph glyph-name="zerooldstyle.001" horiz-adv-x="907" 
d="M150 383l93 437q19 91 54 166t91 128.5t136 83t191 29.5q87 0 147 -18.5t97.5 -52.5t54 -82.5t16.5 -109.5q0 -64 -17 -144l-93 -436q-20 -91 -54.5 -166t-90 -128.5t-135.5 -83t-191 -29.5q-87 0 -147.5 18.5t-98 52.5t-54 82.5t-16.5 109.5q0 64 17 143zM517 298
q19 0 32.5 9t22 22.5t13 28t7.5 26.5l14 68l5 22l-126 -62l-6.5 -26t-4.5 -38t8.5 -35t34.5 -15zM646 906q-19 0 -32 -9t-21 -22.5t-12.5 -28t-7.5 -26.5l-14 -64l-5 -21l125 57l6.5 26t4.5 37q0 20 -9 35.5t-35 15.5z" />
    <glyph glyph-name="guilsinglleft" unicode="&#x2039;" horiz-adv-x="538" 
d="M231 187l-82 403l253 404h320l-265 -404l94 -403h-320z" />
    <glyph glyph-name="guillemotright" unicode="&#xbb;" horiz-adv-x="1018" 
d="M69 187l273 403l-87 404h315l75 -404l-261 -403h-315zM544 187l273 403l-87 404h315l75 -404l-261 -403h-315z" />
    <glyph glyph-name="logicalnot" unicode="&#xac;" horiz-adv-x="836" 
d="M598 561h-408l61 285h694l-105 -491h-285z" />
    <glyph glyph-name="ellipsis" unicode="&#x2026;" horiz-adv-x="1427" 
d="M74 102q0 104 52.5 160.5t175.5 56.5q80 0 118.5 -30t38.5 -96q0 -103 -53 -159.5t-177 -56.5q-155 0 -155 125zM550 102q0 52 12.5 92t40 68t71 42.5t105.5 14.5q80 0 118.5 -30t38.5 -95q0 -51 -12.5 -91.5t-40 -68.5t-71 -42.5t-106.5 -14.5q-156 0 -156 125z
M1026 102q0 52 12.5 92t40 68t71 42.5t105.5 14.5q80 0 118.5 -30t38.5 -95q0 -51 -12.5 -91.5t-40 -68.5t-71 -42.5t-106.5 -14.5q-156 0 -156 125z" />
    <glyph glyph-name="Lambda" unicode="&#x39b;" horiz-adv-x="890" 
d="M552 0l111 1013l-327 -1013h-336l537 1522h468l-116 -1522h-337z" />
    <glyph glyph-name="Csmall" unicode="&#xf763;" horiz-adv-x="913" 
d="M611 406h318l-5 -25q-19 -92 -53 -166.5t-89.5 -127t-135 -81.5t-190.5 -29q-88 0 -149.5 18.5t-99.5 52.5t-55.5 83t-17.5 110q0 65 16 138l71 334q5 28 11 55t12 55q19 91 54 165.5t91.5 127.5t137 82t191.5 29q87 0 147.5 -18t98.5 -52t55 -82.5t17 -108.5
q0 -65 -18 -143l-6 -26h-318l7 32q3 12 3 27t-4.5 28t-16 22t-32.5 9t-35.5 -8.5t-24 -21t-14.5 -26.5t-8 -26l-58 -275l-39 -181q-2 -8 -3 -16.5t-1 -16.5q0 -20 10 -36t41 -16q21 0 36 9t25 21.5t16 27.5t9 27z" />
    <glyph glyph-name="cacute" unicode="&#x107;" horiz-adv-x="913" 
d="M1099 1582l-264 -295h-228l195 295h297zM611 406h318l-5 -25q-19 -92 -53 -166.5t-89.5 -127t-135 -81.5t-190.5 -29q-88 0 -149.5 18.5t-99.5 52.5t-55.5 83t-17.5 110q0 65 16 138l71 334q5 28 11 55t12 55q19 91 54 165.5t91.5 127.5t137 82t191.5 29q87 0 147.5 -18
t98.5 -52t55 -82.5t17 -108.5q0 -65 -18 -143l-6 -26h-318l7 32q3 12 3 27t-4.5 28t-16 22t-32.5 9t-35.5 -8.5t-24 -21t-14.5 -26.5t-8 -26l-58 -275l-39 -181q-2 -8 -3 -16.5t-1 -16.5q0 -20 10 -36t41 -16q21 0 36 9t25 21.5t16 27.5t9 27z" />
    <glyph glyph-name="Alpha" unicode="&#x391;" horiz-adv-x="947" 
d="M563 1523h427l-93 -1523h-331l20 195h-183l-63 -195h-331zM616 497l54 525l-170 -525h116z" />
    <glyph glyph-name="afii10017" unicode="&#x410;" horiz-adv-x="947" 
d="M563 1523h427l-93 -1523h-331l20 195h-183l-63 -195h-331zM616 497l54 525l-170 -525h116z" />
    <glyph glyph-name="ccedilla" unicode="&#xe7;" horiz-adv-x="913" 
d="M207 -285q16 -11 32 -20.5t35.5 -17t45.5 -11.5t63 -4q21 0 40.5 4t34.5 13t24 22.5t9 31.5q0 13 -8.5 22t-22.5 15t-32 8.5t-37 2.5q-20 0 -39 -2.5t-34 -7.5l61 275h150l-26 -126q11 2 23 5q11 2 24.5 4t29.5 2q39 0 67 -13t46 -34.5t26.5 -49t8.5 -56.5
q0 -61 -26.5 -109.5t-74.5 -82t-115.5 -51t-149.5 -17.5q-41 0 -75.5 8t-63 20.5t-49.5 28.5t-35 31zM611 406h318l-5 -25q-19 -92 -53 -166.5t-89.5 -127t-135 -81.5t-190.5 -29q-88 0 -149.5 18.5t-99.5 52.5t-55.5 83t-17.5 110q0 65 16 138l71 334q5 28 11 55t12 55
q19 91 54 165.5t91.5 127.5t137 82t191.5 29q87 0 147.5 -18t98.5 -52t55 -82.5t17 -108.5q0 -65 -18 -143l-6 -26h-318l7 32q3 12 3 27t-4.5 28t-16 22t-32.5 9t-35.5 -8.5t-24 -21t-14.5 -26.5t-8 -26l-58 -275l-39 -181q-2 -8 -3 -16.5t-1 -16.5q0 -20 10 -36t41 -16
q21 0 36 9t25 21.5t16 27.5t9 27z" />
    <glyph glyph-name="ccaron" unicode="&#x10d;" horiz-adv-x="913" 
d="M743 1528l18 -92l57 92h252l-193 -249h-299l-86 249h251zM611 406h318l-5 -25q-19 -92 -53 -166.5t-89.5 -127t-135 -81.5t-190.5 -29q-88 0 -149.5 18.5t-99.5 52.5t-55.5 83t-17.5 110q0 65 16 138l71 334q5 28 11 55t12 55q19 91 54 165.5t91.5 127.5t137 82t191.5 29
q87 0 147.5 -18t98.5 -52t55 -82.5t17 -108.5q0 -65 -18 -143l-6 -26h-318l7 32q3 12 3 27t-4.5 28t-16 22t-32.5 9t-35.5 -8.5t-24 -21t-14.5 -26.5t-8 -26l-58 -275l-39 -181q-2 -8 -3 -16.5t-1 -16.5q0 -20 10 -36t41 -16q21 0 36 9t25 21.5t16 27.5t9 27z" />
    <glyph glyph-name="cdotaccent" unicode="&#x10b;" horiz-adv-x="913" 
d="M563 1365q0 104 52.5 160.5t175.5 56.5q80 0 119 -30t39 -96q0 -103 -53.5 -159.5t-177.5 -56.5q-155 0 -155 125zM611 406h318l-5 -25q-19 -92 -53 -166.5t-89.5 -127t-135 -81.5t-190.5 -29q-88 0 -149.5 18.5t-99.5 52.5t-55.5 83t-17.5 110q0 65 16 138l71 334
q5 28 11 55t12 55q19 91 54 165.5t91.5 127.5t137 82t191.5 29q87 0 147.5 -18t98.5 -52t55 -82.5t17 -108.5q0 -65 -18 -143l-6 -26h-318l7 32q3 12 3 27t-4.5 28t-16 22t-32.5 9t-35.5 -8.5t-24 -21t-14.5 -26.5t-8 -26l-58 -275l-39 -181q-2 -8 -3 -16.5t-1 -16.5
q0 -20 10 -36t41 -16q21 0 36 9t25 21.5t16 27.5t9 27z" />
    <glyph glyph-name="dollar" unicode="$" horiz-adv-x="862" 
d="M902 365q-32 -152 -109.5 -244t-208.5 -125l-25 -118h-329l25 120q-86 26 -126.5 84t-40.5 153q0 60 17 140l20 93h328l-20 -93q-8 -35 3 -56t49 -21q45 0 64 19.5t24 51.5l2 12q6 32 11.5 57t5.5 47q0 23 -9.5 44t-34.5 42l-120 98q-49 40 -82 75.5t-53.5 69t-29 67.5
t-8.5 71t7 78.5t18 91.5l7 32q34 158 107.5 246t185.5 122l26 122h329l-24 -114q85 -23 127.5 -78.5t42.5 -155.5q0 -59 -17 -141l-19 -89l-327 2l18 86q2 10 3 18.5t1 15.5q0 20 -10.5 29t-36.5 9q-34 0 -51.5 -17t-25.5 -54l-5 -25q-6 -27 -6 -57q0 -27 8 -52t30 -41
l103 -72q52 -37 88.5 -74.5t58.5 -77t32 -82t10 -88.5q0 -35 -5 -71.5t-13 -77.5z" />
    <glyph glyph-name="a.end" horiz-adv-x="926" 
d="M512 0l18 88q-32 -52 -73 -81.5t-98 -29.5q-65 0 -110 16t-73.5 46.5t-41.5 74.5t-13 99q0 38 5.5 79.5t15.5 87.5l94 445q19 91 49 165.5t75.5 127t109.5 81t151 28.5q57 0 87 -32t40 -86l20 93h320l-256 -1202h-320zM509 289q19 0 33 9.5t24 23t16.5 29t9.5 28.5
l94 442q2 13 2 28.5t-4 29.5t-14 23.5t-28 9.5q-21 0 -35.5 -8.5t-24.5 -20.5t-15 -26.5t-8 -26.5l-97 -459q-3 -12 -3.5 -26t4 -26.5t15 -21t31.5 -8.5z" />
    <glyph glyph-name="kgreenlandic" unicode="&#x138;" horiz-adv-x="930" 
d="M659 1201l-92 -432h56l207 433h324l-317 -602l86 -600h-355l-20 449h-49l-95 -449h-321l255 1201h321z" />
    <glyph glyph-name="Ksmall" unicode="&#xf76b;" horiz-adv-x="930" 
d="M659 1201l-92 -432h56l207 433h324l-317 -602l86 -600h-355l-20 449h-49l-95 -449h-321l255 1201h321z" />
    <glyph glyph-name="Vsmall" unicode="&#xf776;" horiz-adv-x="908" 
d="M1155 1204l-487 -1204h-427l24 1204h332l-59 -809l286 809h331z" />
    <glyph glyph-name="Asmall" unicode="&#xf761;" horiz-adv-x="910" 
d="M900 0h-331l11 126h-197l-42 -126h-331l447 1204h508zM478 408h127l43 484h-7z" />
    <glyph glyph-name="mu" unicode="&#xb5;" horiz-adv-x="926" 
d="M1119 1202l-175 -824q-19 -91 -49.5 -165t-76.5 -126.5t-110.5 -81t-151.5 -28.5q-57 0 -85.5 32t-36.5 87l-98 -461h-321l333 1567h321l-172 -811q-2 -8 -3.5 -18.5t-1.5 -21.5q0 -23 9.5 -42.5t37.5 -19.5q21 0 35.5 8.5t24 20.5t14.5 26t8 26l177 832h321z" />
    <glyph glyph-name="Beta" unicode="&#x392;" horiz-adv-x="980" 
d="M698 568q2 8 3 16t1 16q0 22 -12.5 35.5t-47.5 13.5h-76l-70 -329h76q23 0 38.5 5.5t25.5 15t15 21.5t8 25zM809 1138q3 18 3 30q0 27 -15 38.5t-48 11.5h-62l-57 -269h44q29 0 49 5t34 16.5t22.5 31t13.5 48.5zM990 393q-44 -207 -165.5 -300t-316.5 -93h-409l324 1522
h401q91 0 154.5 -19t103.5 -52.5t58 -80.5t18 -103q0 -46 -11 -99l-18 -83q-26 -122 -69.5 -186t-107.5 -85q86 -32 86 -152q0 -21 -3 -44.5t-8 -49.5z" />
    <glyph glyph-name="Epsilon" unicode="&#x395;" horiz-adv-x="888" 
d="M99 0l324 1522h703l-68 -321h-375l-58 -273h306l-69 -321h-305l-61 -287h374l-68 -320h-703z" />
    <glyph glyph-name="Osmall" unicode="&#xf76f;" horiz-adv-x="912" 
d="M244 825q19 91 54 165.5t91.5 127t137 81t191.5 28.5q87 0 147.5 -18t98.5 -52t55 -82.5t17 -109.5q0 -63 -17 -140l-95 -446q-20 -91 -54 -165.5t-89 -127t-134.5 -81t-190.5 -28.5q-88 0 -149.5 18.5t-99.5 52.5t-55.5 83t-17.5 111q0 32 4 66t12 71zM651 915
q-21 0 -35.5 -8.5t-24 -21t-14.5 -27t-8 -26.5l-98 -459q-2 -7 -3 -14t-1 -15q0 -20 10.5 -36t41.5 -16q21 0 35 8.5t23.5 20.5t14.5 26t8 26l97 460q2 7 3 14.5t1 15.5q0 20 -10 36t-40 16z" />
    <glyph glyph-name="afii10019" unicode="&#x412;" horiz-adv-x="980" 
d="M698 568q2 8 3 16t1 16q0 22 -12.5 35.5t-47.5 13.5h-76l-70 -329h76q23 0 38.5 5.5t25.5 15t15 21.5t8 25zM809 1138q3 18 3 30q0 27 -15 38.5t-48 11.5h-62l-57 -269h44q29 0 49 5t34 16.5t22.5 31t13.5 48.5zM990 393q-44 -207 -165.5 -300t-316.5 -93h-409l324 1522
h401q91 0 154.5 -19t103.5 -52.5t58 -80.5t18 -103q0 -46 -11 -99l-18 -83q-26 -122 -69.5 -186t-107.5 -85q86 -32 86 -152q0 -21 -3 -44.5t-8 -49.5z" />
    <glyph glyph-name="Gamma" unicode="&#x393;" horiz-adv-x="783" 
d="M666 1207l-257 -1207h-329l325 1528h703l-68 -321h-374z" />
    <glyph glyph-name="Zeta" unicode="&#x396;" horiz-adv-x="843" 
d="M60 0l63 298l537 903h-333l68 321h707l-58 -273l-554 -929h360l-68 -320h-722z" />
    <glyph glyph-name="Eta" unicode="&#x397;" horiz-adv-x="1032" 
d="M99 0l324 1522h329l-126 -593h176l126 593h329l-324 -1522h-329l129 608h-176l-129 -608h-329z" />
    <glyph glyph-name="Iota" unicode="&#x399;" horiz-adv-x="527" 
d="M99 0l324 1522h329l-324 -1522h-329z" />
    <glyph glyph-name="Kappa" unicode="&#x39a;" horiz-adv-x="993" 
d="M99 0l324 1522h329l-126 -593h49l286 593h349l-369 -740l57 -782h-349l-33 605l2 3h-61l-129 -608h-329z" />
    <glyph glyph-name="Mu" unicode="&#x39c;" horiz-adv-x="1286" 
d="M857 0l179 731l-228 -577h-263l18 598l-135 -752h-329l324 1522h402l-12 -726l297 726h400l-324 -1522h-329z" />
    <glyph glyph-name="Omicron" unicode="&#x39f;" horiz-adv-x="913" 
d="M311 1140q19 91 55.5 165.5t94 128t139.5 83t193 29.5q88 0 150 -19t101 -54.5t56.5 -85.5t17.5 -112q0 -32 -4 -65.5t-12 -70.5l-161 -756q-19 -91 -55 -165.5t-94 -128t-139.5 -83t-192.5 -29.5q-89 0 -150.5 19t-100.5 54t-56.5 85.5t-17.5 112.5q0 32 4 65.5t12 70.5
zM725 1226q-21 0 -36 -9t-25 -22t-15.5 -28t-7.5 -26l-161 -757q-2 -7 -3 -14.5t-1 -15.5q0 -21 10.5 -38.5t41.5 -17.5q21 0 36 9t24.5 22t15 27.5t8.5 26.5l161 756q2 7 3 14.5t1 15.5q0 21 -10.5 39t-41.5 18z" />
    <glyph glyph-name="Rho" unicode="&#x3a1;" horiz-adv-x="947" 
d="M1050 862q-24 -113 -69 -189t-107 -122.5t-140.5 -66t-168.5 -19.5h-56l-99 -465h-329l324 1522h382q76 0 137.5 -14t105.5 -45.5t68 -82t24 -123.5q0 -28 -3 -58t-11 -65zM778 1134q7 33 -5 50t-54 17h-54l-88 -418h50q44 0 64.5 19.5t28.5 60.5z" />
    <glyph glyph-name="Tau" unicode="&#x3a4;" horiz-adv-x="802" 
d="M822 1201l-255 -1201h-331l255 1201h-225l68 321h782l-68 -321h-226z" />
    <glyph glyph-name="Upsilon" unicode="&#x3a5;" horiz-adv-x="940" 
d="M753 516l-110 -516h-328l110 516l-96 1006h362l-5 -560l251 560h320z" />
    <glyph glyph-name="Chi" unicode="&#x3a7;" horiz-adv-x="980" 
d="M617 0l-37 454l-216 -454h-364l438 786l-91 736h362l25 -399l193 399h360l-412 -736l106 -786h-364z" />
    <glyph glyph-name="Pi" unicode="&#x3a0;" horiz-adv-x="994" 
d="M80 0l324 1522h834l-324 -1522h-329l255 1201h-176l-255 -1201h-329z" />
    <glyph glyph-name="Xi" unicode="&#x39e;" horiz-adv-x="853" 
d="M393 1526h714l-68 -319h-713zM333 928h578l-68 -321h-578zM135 320h716l-68 -320h-714z" />
    <glyph glyph-name="registered" unicode="&#xae;" horiz-adv-x="1586" 
d="M1606 506q-45 -212 -123 -352.5t-186.5 -225t-246 -119.5t-300.5 -35q-135 0 -242 23t-182 77.5t-114.5 144t-39.5 222.5q0 117 33 272l71 332q45 209 122 348.5t185 223.5t245.5 119t302.5 35q135 0 242 -23t181.5 -77.5t114 -144.5t39.5 -223q0 -113 -32 -267zM803 23
q130 0 221 31.5t152.5 92t99.5 149t62 201.5l74 347q11 55 17.5 103.5t6.5 91.5q0 69 -18.5 122t-60.5 89t-110.5 54.5t-168.5 18.5q-129 0 -220 -31.5t-153 -92t-100 -148t-62 -198.5l-74 -347q-12 -56 -18.5 -104.5t-6.5 -92.5q0 -70 19 -123.5t61.5 -89.5t111 -54.5
t167.5 -18.5zM496 148l224 1053h338q137 0 207.5 -53.5t70.5 -172.5q0 -48 -12 -108l-11 -54q-16 -75 -59.5 -134t-101.5 -102q28 -23 43 -47.5t15 -67.5q0 -38 -13 -96l-48 -218h-276l41 212q7 35 7 60q0 30 -9.5 40.5t-26.5 12.5h-14h-24l-69 -325h-282zM1045 871
q2 11 2 21t-5 18t-16.5 13t-30.5 5h-52l-38 -182h52q38 0 54 19.5t22 47.5z" />
    <glyph glyph-name="Xsmall" unicode="&#xf778;" horiz-adv-x="862" 
d="M522 0l-31 319l-175 -319h-312l358 625l-91 577h338l21 -290l159 290h312l-336 -577l93 -625h-336z" />
    <glyph glyph-name="Rsmall" unicode="&#xf772;" horiz-adv-x="913" 
d="M84 0l255 1202h385q157 0 238 -61t81 -195q0 -56 -15 -125l-13 -61q-18 -85 -68 -152t-116 -117q16 -14 27.5 -26t18.5 -25.5t10.5 -31.5t3.5 -44q0 -21 -2 -49t-6 -65l-9 -89q-3 -35 -3 -58q0 -36 5.5 -57t13.5 -46h-330q-1 5 -6 32t-5 73q0 11 0.5 22t1.5 24l7 91
q2 16 2 29v24q0 24 -2.5 38.5t-7.5 23t-13 11.5t-18 4h-7h-29l-79 -372h-320zM710 825q3 13 2.5 25t-6 21t-18 14.5t-34.5 5.5h-61l-44 -208h60q22 0 37 6t25 16.5t16 24.5t10 31z" />
    <glyph glyph-name="ordfeminine" unicode="&#xaa;" horiz-adv-x="815" 
d="M615 771l18 87q-35 -58 -74.5 -85t-77.5 -27q-60 0 -100.5 10.5t-65 31.5t-35.5 53.5t-11 76.5q0 40 7.5 89.5t20.5 109.5l14 64q20 93 44.5 162t62.5 114t94 67t139 22q38 0 66 -26t40 -82l18 84h277l-160 -751h-277zM259 686h604l-54 -254h-604zM607 1002q10 0 20.5 3
t20 13.5t18 31t16.5 55.5l18 85q7 34 7 56q0 30 -11.5 37.5t-26.5 7.5q-11 0 -22 -2.5t-21 -13t-19.5 -30.5t-16.5 -54l-19 -87q-7 -31 -7 -54q0 -32 13 -40t30 -8z" />
    <glyph glyph-name="Delta" unicode="&#x394;" horiz-adv-x="947" 
d="M15 0l537 1522h468l-116 -1522h-889zM602 321l76 693l-224 -693h148z" />
    <glyph glyph-name="Bsmall" unicode="&#xf762;" horiz-adv-x="917" 
d="M698 1202q77 0 139.5 -15t106 -45.5t67 -77.5t23.5 -110q0 -57 -19 -124l-2 -6q-21 -73 -60 -123.5t-89 -84.5q32 -29 51.5 -70t19.5 -98q0 -14 -1 -29t-4 -31l-1 -7q-17 -101 -57 -173.5t-99.5 -118.5t-138 -67.5t-172.5 -21.5h-384l255 1202h365zM611 388
q7 33 -3.5 55.5t-50.5 22.5h-60l-33 -155h60q41 0 60.5 20.5t24.5 46.5zM686 835q5 26 -8.5 41t-49.5 15h-41l-28 -135h40q24 0 39 4.5t24 13t14 21t8 29.5z" />
    <glyph glyph-name="Psmall" unicode="&#xf770;" horiz-adv-x="893" 
d="M710 825q3 13 2.5 25t-6 21t-18 14.5t-34.5 5.5h-61l-52 -248h60q44 0 62 22.5t25 55.5zM84 0l255 1202h385q156 0 237.5 -61t81.5 -195q0 -56 -15 -126l-21 -100q-26 -125 -83.5 -201.5t-129 -118t-148.5 -55t-143 -13.5h-28l-71 -332h-320z" />
    <glyph glyph-name="afii10067" unicode="&#x432;" horiz-adv-x="917" 
d="M698 1202q77 0 139.5 -15t106 -45.5t67 -77.5t23.5 -110q0 -57 -19 -124l-2 -6q-21 -73 -60 -123.5t-89 -84.5q32 -29 51.5 -70t19.5 -98q0 -14 -1 -29t-4 -31l-1 -7q-17 -101 -57 -173.5t-99.5 -118.5t-138 -67.5t-172.5 -21.5h-384l255 1202h365zM611 388
q7 33 -3.5 55.5t-50.5 22.5h-60l-33 -155h60q41 0 60.5 20.5t24.5 46.5zM686 835q5 26 -8.5 41t-49.5 15h-41l-28 -135h40q24 0 39 4.5t24 13t14 21t8 29.5z" />
    <glyph glyph-name="commaaccent" unicode="&#xf6c3;" horiz-adv-x="352" 
d="M-16 -218q0 42 9.5 72.5t30.5 51t55 30.5t84 10q63 0 93 -29.5t30 -84.5q0 -60 -16.5 -112.5t-43.5 -97t-62 -81t-73 -65.5l-99 66q24 22 40 39.5t27.5 34t19.5 34t16 39.5q-111 0 -111 93z" />
    <glyph glyph-name="Kcommaaccent" unicode="&#x136;" horiz-adv-x="993" 
d="M99 0l324 1522h329l-126 -593h49l286 593h349l-369 -740l57 -782h-349l-33 605l2 3h-61l-129 -608h-329zM350 -218q0 42 9.5 72.5t30.5 51t55 30.5t84 10q63 0 93 -29.5t30 -84.5q0 -60 -16.5 -112.5t-43.5 -97t-62 -81t-73 -65.5l-99 66q24 22 40 39.5t27.5 34t19.5 34
t16 39.5q-111 0 -111 93z" />
    <glyph glyph-name="Lcommaaccent" unicode="&#x13b;" horiz-adv-x="790" 
d="M99 0l324 1522h329l-257 -1206h352l-67 -316h-681zM253 -218q0 42 9.5 72.5t30.5 51t55 30.5t84 10q63 0 93 -29.5t30 -84.5q0 -60 -16.5 -112.5t-43.5 -97t-62 -81t-73 -65.5l-99 66q24 22 40 39.5t27.5 34t19.5 34t16 39.5q-111 0 -111 93z" />
    <glyph glyph-name="daggerdbl" unicode="&#x2021;" horiz-adv-x="789" 
d="M294 280l113 531h-237l68 317h236l85 398h322l-85 -398h235l-68 -317h-234l-113 -531h234l-67 -317h-235l-84 -398h-322l84 398h-236l67 317h237z" />
    <glyph glyph-name="Theta" unicode="&#x398;" horiz-adv-x="930" 
d="M311 1140q19 91 55.5 165.5t94 128t139.5 83t193 29.5q88 0 150 -19t101 -54.5t56.5 -85.5t17.5 -112q0 -32 -4 -65.5t-12 -70.5l-161 -756q-19 -91 -55 -165.5t-94 -128t-139.5 -83t-192.5 -29.5q-89 0 -150.5 19t-100.5 54t-56.5 85.5t-17.5 112.5q0 32 4 65.5t12 70.5
zM594 919h132l47 220q3 12 3 29q0 21 -10 39t-41 18q-3 0 -4 1q-20 -1 -34 -10.5t-23.5 -22.5t-15 -27t-7.5 -25zM528 298q1 0 1.5 -0.5t1.5 -0.5q20 1 34.5 10t24 22t14.5 27.5t8 26.5l45 214h-132l-45 -213q-2 -7 -3 -14.5t-1 -15.5q0 -21 10.5 -38.5t41.5 -17.5z" />
    <glyph glyph-name="Tsmall" unicode="&#xf774;" horiz-adv-x="754" 
d="M727 889l-189 -890h-320l189 890h-208l67 313h733l-67 -313h-205z" />
    <glyph glyph-name="Ssmall" unicode="&#xf773;" horiz-adv-x="857" 
d="M896 435q0 -112 -32 -197.5t-92.5 -143.5t-148 -87.5t-198.5 -29.5q-89 0 -150 17.5t-98.5 51.5t-54.5 83t-17 112q0 72 20 166h323q-4 -19 -6.5 -34.5t-2.5 -28.5q0 -26 11 -39t37 -13q15 0 25.5 6.5t17 15.5t9.5 18t3 15q0 28 -24 53t-59.5 52t-77 57.5t-77 69
t-59.5 87t-24 110.5q0 118 32 203.5t93 140.5t149 81t199 26q63 0 117.5 -8.5t95 -35t64 -75t23.5 -127.5q0 -35 -4.5 -76t-15.5 -89l-323 2q2 9 5.5 25t3.5 32t-6.5 28t-25.5 12q-20 0 -32.5 -6t-19.5 -14t-9.5 -17t-2.5 -16q0 -23 24.5 -45.5t61.5 -49t80 -57.5t80 -70.5
t61.5 -90t24.5 -114.5z" />
    <glyph glyph-name="Ismall" unicode="&#xf769;" horiz-adv-x="490" 
d="M84 0l255 1202h323l-256 -1202h-322z" />
    <glyph glyph-name="Zsmall" unicode="&#xf77a;" horiz-adv-x="807" 
d="M41 0l58 274l473 628h-311l63 300h669l-58 -272l-466 -620h336l-65 -310h-699z" />
    <glyph glyph-name="Iotadieresis" unicode="&#x3aa;" horiz-adv-x="527" 
d="M99 0l324 1522h329l-324 -1522h-329zM327 1703q0 43 9 78.5t29.5 60t54.5 38t84 13.5q59 0 88 -25t29 -79q0 -88 -40.5 -138.5t-138.5 -50.5q-59 0 -87 24.5t-28 78.5zM647 1703q0 44 9 79.5t30 60t55 37.5t83 13q60 0 88.5 -24.5t28.5 -78.5q0 -44 -9 -79t-30 -59.5
t-55.5 -38t-84.5 -13.5q-58 0 -86.5 24.5t-28.5 78.5z" />
    <glyph glyph-name="Etatonos" unicode="&#x389;" horiz-adv-x="1032" 
d="M99 0l324 1522h329l-126 -593h176l126 593h329l-324 -1522h-329l129 608h-176l-129 -608h-329zM397 1519l-101 -295h-198l32 295h267z" />
    <glyph glyph-name="Iotatonos" unicode="&#x38a;" horiz-adv-x="527" 
d="M99 0l324 1522h329l-324 -1522h-329zM813 1892l-101 -295h-198l32 295h267z" />
    <glyph glyph-name="Epsilontonos" unicode="&#x388;" horiz-adv-x="888" 
d="M99 0l324 1522h703l-68 -321h-375l-58 -273h306l-69 -321h-305l-61 -287h374l-68 -320h-703zM390 1525l-101 -295h-198l32 295h267z" />
    <glyph glyph-name="Alphatonos" unicode="&#x386;" horiz-adv-x="947" 
d="M563 1523h427l-93 -1523h-331l20 195h-183l-63 -195h-331zM616 497l54 525l-170 -525h116zM496 1523l-101 -295h-198l32 295h267z" />
    <glyph glyph-name="Phi" unicode="&#x3a6;" horiz-adv-x="1258" 
d="M464 0l25 117q-89 0 -151 19t-101 54t-56.5 85.5t-17.5 112.5q0 31 4 65t12 70l102 477q19 91 55.5 165.5t94 128t139.5 83t192 29.5l25 116h329l-25 -117l1 1q88 0 150 -19t101 -54.5t56.5 -85.5t17.5 -112q0 -31 -4 -65t-12 -70l-101 -477q-19 -91 -55.5 -165.5
t-94 -128t-139.5 -83t-193 -29.5l-25 -117h-329zM886 437q21 0 36 9t25 22.5t15.5 28t8.5 26.5l101 476q3 12 3 29q0 21 -10 39t-41 18h-1zM509 524q-2 -7 -3 -14.5t-1 -15.5q0 -21 10.5 -38.5t41.5 -17.5l137 648q-21 0 -36 -9.5t-24.5 -22.5t-15 -27.5t-8.5 -26.5z" />
    <glyph glyph-name="Upsilondieresis" unicode="&#x3ab;" horiz-adv-x="940" 
d="M753 516l-110 -516h-328l110 516l-96 1006h362l-5 -560l251 560h320zM546 1703q0 43 9 78.5t29.5 60t54.5 38t84 13.5q59 0 88 -25t29 -79q0 -88 -40.5 -138.5t-138.5 -50.5q-59 0 -87 24.5t-28 78.5zM866 1703q0 44 9 79.5t30 60t55 37.5t83 13q60 0 88.5 -24.5
t28.5 -78.5q0 -44 -9 -79t-30 -59.5t-55.5 -38t-84.5 -13.5q-58 0 -86.5 24.5t-28.5 78.5z" />
    <glyph glyph-name="Upsilontonos" unicode="&#x38e;" horiz-adv-x="1268" 
d="M1092 516l-110 -516h-328l110 516l-96 1006h362l-5 -560l251 560h320zM602 1573l-101 -295h-198l32 295h267z" />
    <glyph glyph-name="Sigma" unicode="&#x3a3;" horiz-adv-x="765" 
d="M744 700l-293 -380h360l-68 -320h-722l63 298l332 463l-125 463l64 298h702l-68 -320h-341l122 -380z" />
    <glyph glyph-name="afii10020" unicode="&#x413;" horiz-adv-x="866" 
d="M666 1207l-257 -1207h-329l325 1528h703l-68 -321h-374z" />
    <glyph glyph-name="lira" unicode="&#x20a4;" horiz-adv-x="838" 
d="M188 896h84q-7 51 -11.5 100.5t-4.5 98.5q0 57 8 114.5t28 110.5t54.5 99t88.5 80t129.5 53.5t176.5 19.5q83 0 142 -18.5t96.5 -55t54.5 -90.5t17 -124q0 -69 -15 -152t-42 -182l-323 -2q0 13 8 41t17.5 62.5t17.5 71t8 66.5t-11 49t-39 19q-17 0 -33.5 -6t-30 -24
t-22 -51.5t-8.5 -88.5q0 -39 6.5 -87.5t14.5 -103.5h289l-51 -240h-209l2 -40h199l-51 -239h-193q-23 -37 -48 -54.5t-45 -19.5q16 -1 36.5 -2.5t40.5 -3.5t38 -3.5t30 -1.5q19 0 37.5 1t38 6.5t40 17t44.5 31.5l58 -267q-56 -55 -113.5 -77t-119.5 -22q-40 0 -92 4
t-106.5 8.5t-108 8.5t-96.5 4q-32 0 -71 -3t-74 -7q-40 -4 -82 -9l65 307q87 10 138 28.5t77 53.5h-194l51 239h177l-3 40h-166z" />
    <glyph glyph-name="Omega" unicode="&#x3a9;" horiz-adv-x="930" 
d="M86 0l67 316h82l14 79q-25 31 -36 71t-11 89q0 35 5.5 75t14.5 83l90 427q19 91 55.5 165.5t94 128t139.5 83t193 29.5q88 0 150 -19t101 -54t56.5 -85t17.5 -112q0 -32 -4 -65.5t-12 -70.5l-91 -428q-22 -103 -59.5 -183.5t-103.5 -134.5l-19 -78h82l-67 -316h-350
l65 308l30 140l32 150l7 30q13 0 22.5 9t15.5 21.5t9.5 27.5t6.5 27l91 426q3 12 3 29q0 21 -10 39t-41 18q-3 0 -4 1q-20 -1 -34.5 -10.5t-24 -22t-14.5 -27t-8 -26.5l-90 -427q-2 -11 -4.5 -24.5t-2.5 -25.5q0 -15 5 -25t20 -10l-7 -30h1l-127 -598h-350z" />
    <glyph glyph-name="Psi" unicode="&#x3a8;" horiz-adv-x="1259" 
d="M465 0l87 412q-88 0 -149.5 19t-100.5 54t-56.5 85t-17.5 112q0 32 4 66t12 71l150 705h329l-150 -705q-2 -7 -3 -14.5t-1 -15.5q0 -21 10.5 -38.5t41.5 -17.5l168 789h329l-168 -790q21 0 36 9t25 22.5t15.5 28t8.5 26.5l150 705h329l-150 -705q-19 -91 -55.5 -165.5
t-94 -128t-139.5 -83t-193 -29.5l-88 -412h-329z" />
    <glyph glyph-name="Omicrontonos" unicode="&#x38c;" horiz-adv-x="913" 
d="M311 1140q19 91 55.5 165.5t94 128t139.5 83t193 29.5q88 0 150 -19t101 -54.5t56.5 -85.5t17.5 -112q0 -32 -4 -65.5t-12 -70.5l-161 -756q-19 -91 -55 -165.5t-94 -128t-139.5 -83t-192.5 -29.5q-89 0 -150.5 19t-100.5 54t-56.5 85.5t-17.5 112.5q0 32 4 65.5t12 70.5
zM725 1226q-21 0 -36 -9t-25 -22t-15.5 -28t-7.5 -26l-161 -757q-2 -7 -3 -14.5t-1 -15.5q0 -21 10.5 -38.5t41.5 -17.5q21 0 36 9t24.5 22t15 27.5t8.5 26.5l161 756q2 7 3 14.5t1 15.5q0 21 -10.5 39t-41.5 18zM422 1599l-101 -295h-198l32 295h267z" />
    <glyph glyph-name="afii10022" unicode="&#x415;" horiz-adv-x="888" 
d="M99 0l324 1522h703l-68 -321h-375l-58 -273h306l-69 -321h-305l-61 -287h374l-68 -320h-703z" />
    <glyph glyph-name="afii10028" unicode="&#x41a;" horiz-adv-x="993" 
d="M99 0l324 1522h329l-126 -593h49l286 593h349l-369 -740l57 -782h-349l-33 605l2 3h-61l-129 -608h-329z" />
    <glyph glyph-name="afii10030" unicode="&#x41c;" horiz-adv-x="1286" 
d="M857 0l179 731l-228 -577h-263l18 598l-135 -752h-329l324 1522h402l-12 -726l297 726h400l-324 -1522h-329z" />
    <glyph glyph-name="afii10031" unicode="&#x41d;" horiz-adv-x="1032" 
d="M99 0l324 1522h329l-126 -593h176l126 593h329l-324 -1522h-329l129 608h-176l-129 -608h-329z" />
    <glyph glyph-name="afii10032" unicode="&#x41e;" horiz-adv-x="930" 
d="M311 1140q19 91 55.5 165.5t94 128t139.5 83t193 29.5q88 0 150 -19t101 -54.5t56.5 -85.5t17.5 -112q0 -32 -4 -65.5t-12 -70.5l-161 -756q-19 -91 -55 -165.5t-94 -128t-139.5 -83t-192.5 -29.5q-89 0 -150.5 19t-100.5 54t-56.5 85.5t-17.5 112.5q0 32 4 65.5t12 70.5
zM725 1226q-21 0 -36 -9t-25 -22t-15.5 -28t-7.5 -26l-161 -757q-2 -7 -3 -14.5t-1 -15.5q0 -21 10.5 -38.5t41.5 -17.5q21 0 36 9t24.5 22t15 27.5t8.5 26.5l161 756q2 7 3 14.5t1 15.5q0 21 -10.5 39t-41.5 18z" />
    <glyph glyph-name="afii10033" unicode="&#x41f;" horiz-adv-x="995" 
d="M80 0l324 1522h834l-324 -1522h-329l255 1201h-176l-255 -1201h-329z" />
    <glyph glyph-name="afii10034" unicode="&#x420;" horiz-adv-x="921" 
d="M1050 862q-24 -113 -69 -189t-107 -122.5t-140.5 -66t-168.5 -19.5h-56l-99 -465h-329l324 1522h382q76 0 137.5 -14t105.5 -45.5t68 -82t24 -123.5q0 -28 -3 -58t-11 -65zM778 1134q7 33 -5 50t-54 17h-54l-88 -418h50q44 0 64.5 19.5t28.5 60.5z" />
    <glyph glyph-name="afii10035" unicode="&#x421;" horiz-adv-x="934" 
d="M974 513l-29 -135q-19 -90 -55.5 -163.5t-94 -126t-139 -81.5t-190.5 -29q-1 0 -1 -1q-89 0 -150.5 19t-100.5 54t-56.5 85.5t-17.5 112.5q0 32 4 65.5t12 70.5l160 756q19 90 55 165t94 128t139.5 83t191.5 30l1 1q88 0 150 -19t101 -54t57 -85t18 -112q0 -31 -4 -65
t-12 -70l-28 -131h-330l28 130q3 13 3 29q0 20 -10 37.5t-40 18.5q-21 0 -36 -9t-24.5 -22.5t-15 -28t-8.5 -26.5l-161 -756q-2 -7 -3 -14.5t-1 -15.5q0 -21 10.5 -38.5t41.5 -17.5q20 0 34.5 8.5t24.5 20.5t15.5 26t8.5 26l28 134h330z" />
    <glyph glyph-name="afii10036" unicode="&#x422;" horiz-adv-x="802" 
d="M822 1201l-255 -1201h-331l255 1201h-225l68 321h782l-68 -321h-226z" />
    <glyph glyph-name="afii10038" unicode="&#x424;" horiz-adv-x="1258" 
d="M464 0l25 117q-89 0 -151 19t-101 54t-56.5 85.5t-17.5 112.5q0 31 4 65t12 70l102 477q19 91 55.5 165.5t94 128t139.5 83t192 29.5l25 116h329l-25 -117l1 1q88 0 150 -19t101 -54.5t56.5 -85.5t17.5 -112q0 -31 -4 -65t-12 -70l-101 -477q-19 -91 -55.5 -165.5
t-94 -128t-139.5 -83t-193 -29.5l-25 -117h-329zM886 437q21 0 36 9t25 22.5t15.5 28t8.5 26.5l101 476q3 12 3 29q0 21 -10 39t-41 18h-1zM509 524q-2 -7 -3 -14.5t-1 -15.5q0 -21 10.5 -38.5t41.5 -17.5l137 648q-21 0 -36 -9.5t-24.5 -22.5t-15 -27.5t-8.5 -26.5z" />
    <glyph glyph-name="afii10039" unicode="&#x425;" horiz-adv-x="981" 
d="M616 0l-37 454l-216 -454h-364l438 786l-91 736h362l25 -399l193 399h360l-412 -736l106 -786h-364z" />
    <glyph glyph-name="afii10023" unicode="&#x401;" horiz-adv-x="888" 
d="M99 0l324 1522h703l-68 -321h-375l-58 -273h306l-69 -321h-305l-61 -287h374l-68 -320h-703zM504 1703q0 43 9 78.5t29.5 60t54.5 38t84 13.5q59 0 88 -25t29 -79q0 -88 -40.5 -138.5t-138.5 -50.5q-59 0 -87 24.5t-28 78.5zM824 1703q0 44 9 79.5t30 60t55 37.5t83 13
q60 0 88.5 -24.5t28.5 -78.5q0 -44 -9 -79t-30 -59.5t-55.5 -38t-84.5 -13.5q-58 0 -86.5 24.5t-28.5 78.5z" />
    <glyph glyph-name="afii10054" unicode="&#x405;" horiz-adv-x="913" 
d="M908 365q-41 -193 -158 -290.5t-323 -97.5q-173 0 -252.5 63.5t-79.5 195.5q0 63 16 139l29 138h328l-29 -138q-8 -35 3 -56t49 -21q44 0 63.5 19t24.5 51l2 13q5 32 10.5 57.5t5.5 47.5q0 23 -9 44t-34 41l-120 98q-49 40 -82 75.5t-53 69.5t-28.5 67.5t-8.5 70.5
t6.5 78t17.5 91l7 33q23 109 65 184t102 121t138 66.5t173 20.5q157 0 236.5 -57.5t79.5 -191.5q0 -59 -17 -142l-31 -144h-327l30 143q5 22 5 34q0 20 -11 29t-37 9q-34 0 -51.5 -17t-25.5 -54l-5 -25q-6 -27 -6 -57q0 -27 8 -52t30 -41l103 -72q52 -37 88.5 -74.5
t58.5 -77t32 -82t10 -88.5q0 -35 -5 -71.5t-13 -77.5z" />
    <glyph glyph-name="omicron" unicode="&#x3bf;" horiz-adv-x="912" 
d="M244 825q19 91 54 165.5t91.5 127t137 81t191.5 28.5q87 0 147.5 -18t98.5 -52t55 -82.5t17 -109.5q0 -63 -17 -140l-95 -446q-20 -91 -54 -165.5t-89 -127t-134.5 -81t-190.5 -28.5q-88 0 -149.5 18.5t-99.5 52.5t-55.5 83t-17.5 111q0 32 4 66t12 71zM651 915
q-21 0 -35.5 -8.5t-24 -21t-14.5 -27t-8 -26.5l-98 -459q-2 -7 -3 -14t-1 -15q0 -20 10.5 -36t41.5 -16q21 0 35 8.5t23.5 20.5t14.5 26t8 26l97 460q2 7 3 14.5t1 15.5q0 20 -10 36t-40 16z" />
    <glyph glyph-name="rho" unicode="&#x3c1;" horiz-adv-x="932" 
d="M6 -367l207 975h-2l46 217q19 91 54 165.5t91.5 127t137 81t191.5 28.5v-3q0 1 0.5 1t0.5 1l1 1q73 0 131 -20.5t98 -59t61.5 -93.5t21.5 -123q0 -51 -12 -106l-95 -446q-20 -91 -49.5 -165.5t-75 -127t-109 -81t-150.5 -28.5q-59 0 -89 32t-39 88l-99 -464h-321z
M533 292q21 0 35 8.5t24 20.5t15 26t8 26l97 460q2 7 3 14t1 15q0 20 -10.5 36.5t-40.5 16.5h-1q-21 0 -35.5 -8.5t-24 -21t-14.5 -26.5t-8 -26l-11 -49h1l-29 -136h1l-54 -255q-2 -8 -3 -18t-1 -21t2 -22t7 -20t14.5 -14.5t23.5 -5.5z" />
    <glyph glyph-name="afii10024" unicode="&#x416;" horiz-adv-x="1469" 
d="M573 0l139 610h-63l2 -2l-305 -608h-344l405 783l-44 739h344l27 -596h51l137 596h324l-137 -596h51l301 596h344l-385 -739l48 -783h-344l-27 608q0 1 0.5 1t0.5 1h-62l-139 -610h-324z" />
    <glyph glyph-name="afii10049" unicode="&#x42f;" horiz-adv-x="1000" 
d="M554 0l126 551h-34q-18 -1 -35.5 -8.5t-34 -25t-31.5 -48t-28 -76.5l-60 -205q-10 -35 -25.5 -67.5t-30.5 -58t-26 -42.5t-13 -20h-334q13 17 27 36.5t28 43.5t27 52.5t24 64.5l59 203q19 65 35 108t34.5 72.5t41.5 50t56 40.5q-35 39 -56 88.5t-21 110.5q0 20 2.5 40
t7.5 41l40 178q48 207 170.5 300t316.5 93h407l-349 -1522h-324zM617 951q-5 -20 -5 -34q0 -23 13.5 -36.5t48.5 -13.5h79l78 339h-79q-23 0 -39.5 -6t-27 -16t-17 -23t-10.5 -28z" />
    <glyph glyph-name="afii10055" unicode="&#x406;" horiz-adv-x="527" 
d="M99 0l324 1522h329l-324 -1522h-329z" />
    <glyph glyph-name="afii10056" unicode="&#x407;" horiz-adv-x="527" 
d="M99 0l324 1522h329l-324 -1522h-329zM329 1703q0 43 9 78.5t29.5 60t54.5 38t84 13.5q59 0 88 -25t29 -79q0 -88 -40.5 -138.5t-138.5 -50.5q-59 0 -87 24.5t-28 78.5zM649 1703q0 44 9 79.5t30 60t55 37.5t83 13q60 0 88.5 -24.5t28.5 -78.5q0 -44 -9 -79t-30 -59.5
t-55.5 -38t-84.5 -13.5q-58 0 -86.5 24.5t-28.5 78.5z" />
    <glyph glyph-name="afii10057" unicode="&#x408;" horiz-adv-x="713" 
d="M937 1522l-245 -1153q-20 -91 -56 -162.5t-94.5 -121.5t-140.5 -76.5t-193 -26.5q-63 0 -109.5 16t-78.5 47l147 284q9 -6 18 -11t21 -8.5t29 -5.5t41 -2q22 0 37.5 7t26.5 18t17 24t8 24l244 1147h328z" />
    <glyph glyph-name="afii10018" unicode="&#x411;" horiz-adv-x="981" 
d="M967 388q-23 -109 -68 -183t-107.5 -119.5t-141 -65.5t-168.5 -20h-383l324 1522h681l-68 -316h-351l-32 -149h56q75 0 136.5 -13.5t105 -44.5t67 -82t23.5 -125q0 -60 -16 -133zM695 659q2 9 3 16.5t1 14.5q0 25 -14.5 37t-49.5 12h-50l-89 -418h54q42 0 61 17t26 50z
" />
    <glyph glyph-name="afii10046" unicode="&#x42c;" horiz-adv-x="947" 
d="M952 387q-25 -108 -71 -182t-109 -119.5t-141 -65.5t-168 -20h-381l349 1522h324l-107 -468h59q74 0 134 -13.5t102.5 -43.5t65.5 -79t23 -121q0 -61 -18 -140zM689 657q2 10 3.5 18t1.5 16q0 26 -15.5 38t-50.5 12h-53l-97 -425h57q43 0 63.5 18t28.5 53z" />
    <glyph glyph-name="kappa" unicode="&#x3ba;" horiz-adv-x="920" 
d="M657 1201l-92 -432h56l207 433h324l-317 -602l86 -600h-355l-20 449h-49l-95 -449h-321l255 1201h321z" />
    <glyph glyph-name="nu" unicode="&#x3bd;" horiz-adv-x="908" 
d="M1155 1204l-487 -1204h-427l24 1204h332l-59 -809l286 809h331z" />
    <glyph glyph-name="eta" unicode="&#x3b7;" horiz-adv-x="940" 
d="M455 -367l255 1199q2 7 3 14t1 15q0 20 -10.5 36t-40.5 16q-21 0 -36 -11.5t-25.5 -28t-16 -33.5t-8.5 -29l-172 -811h-321l255 1202h321l-20 -96q19 25 44 47t53.5 38t58 25t57.5 9q56 0 94.5 -14t62.5 -41t34.5 -65.5t10.5 -87.5q0 -42 -7 -90.5t-18 -102.5l-253 -1191
h-322z" />
    <glyph glyph-name="theta" unicode="&#x3b8;" horiz-adv-x="913" 
d="M151 384l160 757q19 90 53.5 165t90.5 128t136.5 82.5t190.5 29.5q87 0 147 -18.5t97.5 -52.5t54.5 -82.5t17 -109.5q0 -64 -17 -143l-161 -756q-20 -91 -54.5 -166t-90 -128.5t-135.5 -83t-191 -29.5q-87 0 -147 18.5t-97.5 52.5t-54 82.5t-16.5 108.5q0 65 17 145z
M714 1226q-19 0 -32 -9t-21 -22.5t-12.5 -28t-7.5 -26.5l-47 -221h112l47 222q2 8 3 17t1 19q0 19 -8.5 34t-34.5 15zM517 298q19 0 32.5 9t22 22.5t13 28t7.5 26.5l45 213h-112l-45 -214q-2 -8 -3.5 -17.5t-1.5 -19.5q0 -19 8.5 -33.5t33.5 -14.5z" />
    <glyph glyph-name="beta" unicode="&#x3b2;" horiz-adv-x="885" 
d="M931 418q-28 -123 -71.5 -207.5t-104 -136t-139 -74.5t-175.5 -23h-21l73 316h21q29 0 51.5 19.5t33.5 66.5l35 149q4 16 4 33q0 31 -17 48.5t-55 17.5h-28l6 32l-235 -1025h-322l344 1509q25 106 65 182.5t97 125.5t132.5 72t171.5 23q151 0 223.5 -62t72.5 -193
q0 -36 -5.5 -77.5t-16.5 -89.5q-18 -80 -36.5 -136.5t-41.5 -96t-52.5 -64.5t-69.5 -41q50 -22 69.5 -65.5t19.5 -103.5q0 -44 -8 -94.5t-21 -104.5zM607 932h32q21 0 35 7t25.5 25.5t21 50t20.5 79.5l9 43q3 11 6.5 25.5t3.5 28.5q0 17 -8.5 28.5t-34.5 11.5q-15 0 -25 -7
t-16.5 -17.5t-10 -23t-5.5 -22.5z" />
    <glyph glyph-name="c" unicode="c" horiz-adv-x="913" 
d="M611 406h318l-5 -25q-19 -92 -53 -166.5t-89.5 -127t-135 -81.5t-190.5 -29q-88 0 -149.5 18.5t-99.5 52.5t-55.5 83t-17.5 110q0 65 16 138l71 334q5 28 11 55t12 55q19 91 54 165.5t91.5 127.5t137 82t191.5 29q87 0 147.5 -18t98.5 -52t55 -82.5t17 -108.5
q0 -65 -18 -143l-6 -26h-318l7 32q3 12 3 27t-4.5 28t-16 22t-32.5 9t-35.5 -8.5t-24 -21t-14.5 -26.5t-8 -26l-58 -275l-39 -181q-2 -8 -3 -16.5t-1 -16.5q0 -20 10 -36t41 -16q21 0 36 9t25 21.5t16 27.5t9 27z" />
    <glyph glyph-name="afii10029" unicode="&#x41b;" horiz-adv-x="995" 
d="M584 0l255 1201h-179l-173 -817q-19 -90 -56.5 -165t-97.5 -128.5t-143.5 -83.5t-194.5 -30l68 321q20 0 36.5 9t29 22.5t20.5 28.5t10 26l242 1140l318 -2h518l-324 -1522h-329z" />
    <glyph glyph-name="afii10053" unicode="&#x404;" horiz-adv-x="928" 
d="M744 1011l28 130q3 13 3 29q0 21 -10 38.5t-41 17.5q-21 0 -35.5 -9.5t-24.5 -22.5t-15.5 -27.5t-7.5 -25.5l-46 -213h325l-69 -321h-324l-47 -223q-2 -7 -3 -14.5t-1 -15.5q0 -20 10.5 -38t40.5 -18q20 0 35 8.5t25 20.5t15.5 26t8.5 26l28 134h330l-29 -135
q-19 -90 -55.5 -163.5t-94 -126t-139 -81.5t-190.5 -29q-1 0 -1 -1q-89 0 -150.5 19t-100.5 54t-56.5 85.5t-17.5 112.5q0 32 4 65.5t12 70.5l160 756q19 90 55 165t94 128t139.5 83t191.5 30l1 1q88 0 150 -19t101 -54t57 -85t18 -112q0 -31 -4 -65t-12 -70l-28 -131h-330z
" />
    <glyph glyph-name="afii10047" unicode="&#x42d;" horiz-adv-x="928" 
d="M289 1013l29 128q21 90 58.5 165t96 128.5t141 83t192.5 29.5v-1q86 0 146.5 -19t98.5 -53t55.5 -82.5t17.5 -108.5q0 -33 -5 -69t-14 -75l-174 -754q-21 -91 -58 -166t-95.5 -129t-140.5 -83.5t-193 -29.5v1q-86 0 -147 18.5t-99 52.5t-55.5 82t-17.5 108q0 65 18 140
l30 132h324l-30 -131q-3 -13 -3 -28.5t4.5 -28.5t16.5 -21.5t33 -8.5q22 0 37.5 9.5t26 23.5t16.5 30t9 29l52 225h-326l73 316h326l49 213q2 8 3 17t1 18q0 22 -10.5 39.5t-42.5 17.5q-22 0 -38 -9.5t-26.5 -23t-16.5 -29.5t-9 -29l-29 -127h-324z" />
    <glyph glyph-name="afii10085" unicode="&#x443;" horiz-adv-x="892" 
d="M823 370l-139 -404q-33 -95 -84.5 -173.5t-113 -138.5t-127.5 -100.5t-127 -60.5l-89 232q30 11 64.5 26t67.5 41.5t63 69t52 110.5l131 398h302zM1132 1204l-487 -1204h-427l24 1204h332l-59 -809l286 809h331z" />
    <glyph glyph-name="afii10048" unicode="&#x42e;" horiz-adv-x="1431" 
d="M79 0l324 1522h329l-129 -603h154l47 221q19 91 55.5 165.5t94 128t139.5 83t193 29.5q88 0 150 -19t101 -54.5t56.5 -85.5t17.5 -112q0 -32 -4 -65.5t-12 -70.5l-161 -756q-19 -91 -55.5 -165.5t-94 -128t-139.5 -83t-193 -29.5q-89 0 -150.5 19t-100.5 54t-56.5 85
t-17.5 112q0 32 4 65.5t12 70.5l45 214h-153l-127 -597h-329zM1020 298q1 0 1.5 -0.5t1.5 -0.5q20 1 34.5 10t24 22t15 27.5t8.5 26.5l161 756q3 12 3 29q0 21 -10.5 39t-41.5 18q-3 0 -4 1q-20 -1 -34 -10.5t-23.5 -22.5t-14.5 -27.5t-8 -25.5l-161 -756q-3 -12 -3 -29
q0 -21 10 -39t41 -18z" />
    <glyph glyph-name="afii10040" unicode="&#x426;" horiz-adv-x="1056" 
d="M1238 1522l-256 -1201h148l-105 -496h-329l37 175h-653l324 1522h329l-256 -1201h176l256 1201h329z" />
    <glyph glyph-name="afii10070" unicode="&#x435;" horiz-adv-x="913" 
d="M929 406l-5 -25q-19 -92 -53 -166.5t-89.5 -127t-135 -81.5t-190.5 -29q-88 0 -149.5 18.5t-99.5 52.5t-55.5 83t-17.5 111q0 65 16 138l94 445q19 91 54 165.5t91.5 127t137 81t191.5 28.5q87 0 147.5 -18t98 -52t54.5 -82.5t17 -109.5q0 -63 -17 -142l-2 -6h1l-62 -291
l-476 -97l-11 -54q-3 -12 -3 -26t4.5 -27t16.5 -21.5t33 -8.5t36 9t25 21.5t16 27.5t9 27l6 29h318zM651 915q-21 0 -36 -9t-25.5 -21.5t-16.5 -27.5t-9 -27l-26 -123l144 33l19 89q3 12 3 27t-4.5 28t-16 22t-32.5 9z" />
    <glyph glyph-name="afii10071" unicode="&#x451;" horiz-adv-x="913" 
d="M929 406l-5 -25q-19 -92 -53 -166.5t-89.5 -127t-135 -81.5t-190.5 -29q-88 0 -149.5 18.5t-99.5 52.5t-55.5 83t-17.5 111q0 65 16 138l94 445q19 91 54 165.5t91.5 127t137 81t191.5 28.5q87 0 147.5 -18t98 -52t54.5 -82.5t17 -109.5q0 -63 -17 -142l-2 -6h1l-62 -291
l-476 -97l-11 -54q-3 -12 -3 -26t4.5 -27t16.5 -21.5t33 -8.5t36 9t25 21.5t16 27.5t9 27l6 29h318zM651 915q-21 0 -36 -9t-25.5 -21.5t-16.5 -27.5t-9 -27l-26 -123l144 33l19 89q3 12 3 27t-4.5 28t-16 22t-32.5 9zM453 1383q0 43 9 78.5t29.5 60t54.5 38t84 13.5
q59 0 88 -25t29 -79q0 -88 -40.5 -138.5t-138.5 -50.5q-59 0 -87 24.5t-28 78.5zM773 1383q0 44 9 79.5t30 60t55 37.5t83 13q60 0 88.5 -24.5t28.5 -78.5q0 -44 -9 -79t-30 -59.5t-55.5 -38t-84.5 -13.5q-58 0 -86.5 24.5t-28.5 78.5z" />
    <glyph glyph-name="uni2206" unicode="&#x2206;" horiz-adv-x="890" 
d="M524 0h-524l537 1522h468l-116 -1522h-337l121 1063l-235 -742h120z" />
    <glyph glyph-name="Ohm" unicode="&#x2126;" horiz-adv-x="914" 
d="M78 0l67 316h82l14 79q-25 31 -36 71t-11 89q0 35 5.5 75t14.5 83l90 427q19 91 55.5 165.5t94 128t139.5 83t193 29.5q88 0 150 -19t101 -54t56.5 -85t17.5 -112q0 -32 -4 -65.5t-12 -70.5l-91 -428q-22 -103 -59.5 -183.5t-103.5 -134.5l-19 -78h82l-67 -316h-350
l65 308l30 140l32 150l7 30q13 0 22.5 9t15.5 21.5t9.5 27.5t6.5 27l91 426q3 12 3 29q0 21 -10 39t-41 18q-3 0 -4 1q-20 -1 -34.5 -10.5t-24 -22t-14.5 -27t-8 -26.5l-90 -427q-2 -11 -4.5 -24.5t-2.5 -25.5q0 -15 5 -25t20 -10l-7 -30h1l-127 -598h-350z" />
    <glyph glyph-name="summation" unicode="&#x2211;" horiz-adv-x="841" 
d="M782 700l-293 -380h360l-68 -320h-722l63 298l332 463l-125 463l64 298h702l-68 -320h-341l122 -380z" />
    <glyph glyph-name="iota" unicode="&#x3b9;" horiz-adv-x="489" 
d="M354 1390q0 94 52.5 143.5t171.5 49.5q81 0 120 -28t39 -88q0 -93 -51.5 -143t-172.5 -50q-159 0 -159 116zM83 0l256 1202h322l-256 -1202h-322z" />
    <glyph glyph-name="afii10065" unicode="&#x430;" horiz-adv-x="932" 
d="M529 0l22 106q-33 -57 -75.5 -93t-99.5 -36q-65 0 -110 16t-73.5 46.5t-41.5 74.5t-13 99q0 38 5.5 79.5t15.5 87.5l94 445q21 101 51.5 176.5t76 125.5t108.5 75t150 25q57 0 85.5 -37.5t36.5 -97.5l24 110h320l-256 -1202h-320zM518 289q19 0 34.5 9t27 22.5t19 29.5
t11.5 31l94 443q3 15 3 35q0 22 -8 39.5t-34 17.5q-21 0 -36.5 -9t-26.5 -22t-17 -28t-9 -27l-97 -459q-3 -14 -5 -25.5t-2 -21.5q0 -17 9.5 -26t36.5 -9z" />
    <glyph glyph-name="a.alt" horiz-adv-x="927" 
d="M513 0l19 89q-32 -52 -73.5 -82t-98.5 -30q-65 0 -110 16t-73.5 46.5t-41.5 74t-13 98.5q0 76 21 169l23 111l47 221l24 110q19 91 49 165.5t75.5 127.5t109.5 82t151 29q58 0 87 -32t40 -87l20 94h320l-256 -1202h-320zM510 289q19 0 34 10t25 25t16.5 32t9.5 30l27 124
l51 244q1 4 4 14.5t6 23.5t5 28t2 30q0 25 -9.5 43.5t-38.5 18.5q-21 0 -36 -8.5t-24.5 -21.5t-14.5 -28t-8 -28l-27 -128l-41 -194l-28 -126q-2 -8 -3 -17t-1 -18q0 -21 10 -37.5t41 -16.5z" />
    <glyph glyph-name="alpha" unicode="&#x3b1;" horiz-adv-x="933" 
d="M529 0l19 89q-32 -52 -73.5 -82t-98.5 -30q-65 0 -110 16t-73.5 46.5t-41.5 74t-13 98.5q0 76 21 169l23 111l47 221l24 110q19 91 49 165.5t75.5 127.5t109.5 82t151 29q58 0 87 -32t40 -87l20 94h320l-256 -1202h-320zM526 289q19 0 34 10t25 25t16.5 32t9.5 30l27 124
l51 244q1 4 4 14.5t6 23.5t5 28t2 30q0 25 -9.5 43.5t-38.5 18.5q-21 0 -36 -8.5t-24.5 -21.5t-14.5 -28t-8 -28l-27 -128l-41 -194l-28 -126q-2 -8 -3 -17t-1 -18q0 -21 10 -37.5t41 -16.5z" />
    <glyph glyph-name="alphatonos" unicode="&#x3ac;" horiz-adv-x="933" 
d="M529 0l19 89q-32 -52 -73.5 -82t-98.5 -30q-65 0 -110 16t-73.5 46.5t-41.5 74t-13 98.5q0 76 21 169l23 111l47 221l24 110q19 91 49 165.5t75.5 127.5t109.5 82t151 29q58 0 87 -32t40 -87l20 94h320l-256 -1202h-320zM526 289q19 0 34 10t25 25t16.5 32t9.5 30l27 124
l51 244q1 4 4 14.5t6 23.5t5 28t2 30q0 25 -9.5 43.5t-38.5 18.5q-21 0 -36 -8.5t-24.5 -21.5t-14.5 -28t-8 -28l-27 -128l-41 -194l-28 -126q-2 -8 -3 -17t-1 -18q0 -21 10 -37.5t41 -16.5zM989 1573l-101 -295h-198l32 295h267z" />
    <glyph glyph-name="parenleftsuperior" unicode="&#x207d;" horiz-adv-x="450" 
d="M580 750q-93 0 -151.5 22t-91.5 58t-45 81t-12 91q0 45 7.5 86.5t13.5 70.5l69 328q6 30 17 72.5t30.5 87.5t51 89.5t80 80t115.5 57t159 21.5h13l-51 -240h-13q-35 0 -58 -20.5t-36.5 -46.5t-19.5 -51.5t-8 -34.5l-78 -366q-2 -7 -5 -24t-3 -37q0 -15 3 -30t10.5 -27.5
t20.5 -20t33 -7.5h12l-51 -240h-12z" />
    <glyph glyph-name="parenrightsuperior" unicode="&#x207e;" horiz-adv-x="452" 
d="M451 1895q90 0 147 -21t89.5 -55.5t44.5 -78t12 -88.5q0 -47 -8.5 -90t-16.5 -75l-75 -329q-7 -30 -18.5 -72t-31.5 -87.5t-52 -89.5t-80.5 -79.5t-115.5 -57t-158 -21.5h-13l54 236h13q36 0 59 20.5t37.5 47.5t21 53t8.5 36l85 366q2 8 5 26t3 39q0 15 -2.5 30t-10 26.5
t-20.5 19t-33 7.5h-13l56 237h13z" />
    <glyph glyph-name="eng" unicode="&#x14b;" horiz-adv-x="940" 
d="M710 832q2 7 3 14t1 15q0 20 -10.5 36t-40.5 16q-21 0 -36 -11.5t-25.5 -28t-16 -33.5t-8.5 -29l-172 -811h-321l255 1202h321l-20 -96q32 55 74 87t99 32q65 0 110 -16t73.5 -46t41 -73.5t12.5 -98.5q0 -73 -20 -167l-175 -824v-1q-18 -86 -47.5 -159t-76.5 -126
t-114.5 -83t-163.5 -30q-43 0 -77 7t-60.5 19t-47 27t-36.5 30l72 264q10 -6 22 -13t30 -13.5t42.5 -10.5t59.5 -4q55 0 75 92v1l55 258l9 43z" />
    <glyph glyph-name="Eng" unicode="&#x14a;" horiz-adv-x="1033" 
d="M99 0l324 1522h361l49 -480l102 480h330l-321 -1506h1l-7 -31q-22 -98 -57 -175t-92 -131t-140 -82.5t-201 -28.5q-63 0 -109.5 16t-78.5 47l147 283q9 -6 18 -11t21 -8t29 -5t41 -2q22 0 37.5 7t26.5 17.5t17 23.5t8 24l8 40l-69 548l-116 -548h-329z" />
    <glyph glyph-name="iacute" unicode="&#xed;" horiz-adv-x="490" 
d="M84 0l255 1202h323l-256 -1202h-322zM895 1573l-264 -295h-228l195 295h297z" />
    <glyph glyph-name="afii61352" unicode="&#x2116;" horiz-adv-x="1892" 
d="M82 0l324 1522h361l27 -582l124 582h330l-324 -1522h-329l-25 748l-159 -748h-329zM1278 1139q19 91 54 165.5t91.5 127t137 81t191.5 28.5q87 0 147.5 -18t98.5 -52t55 -82.5t17 -109.5q0 -62 -17 -141l-72 -335q-20 -91 -54 -165t-89 -127t-134.5 -82t-190.5 -29
q-88 0 -149 18.5t-99.5 53t-56 83.5t-17.5 111q0 32 4 65.5t12 70.5zM1129 60l60 286h629l-60 -286h-629zM1685 1229q-21 0 -35.5 -8.5t-24 -21t-14.5 -26.5t-8 -26l-74 -351q-2 -7 -3 -14t-1 -15q0 -20 10.5 -36t40.5 -16q21 0 35.5 8.5t24 20.5t14.5 26t7 26l75 351
q2 7 3 14t1 15q0 20 -10.5 36.5t-40.5 16.5z" />
    <glyph glyph-name="N" unicode="N" horiz-adv-x="1032" 
d="M99 0l324 1522h380l42 -656l131 656h329l-323 -1522h-348l-62 723l-144 -723h-329z" />
    <glyph glyph-name="J" unicode="J" horiz-adv-x="713" 
d="M443 1522h494l-245 -1153q-20 -91 -56 -162.5t-94.5 -121.5t-140.5 -76.5t-193 -26.5q-63 0 -109.5 16t-78.5 47l147 284q9 -6 18 -11t21 -8.5t29 -5.5t41 -2q22 0 37.5 7t26.5 18t17 24t8 24l175 826h-165z" />
    <glyph glyph-name="Jcircumflex" unicode="&#x134;" horiz-adv-x="713" 
d="M443 1522h494l-245 -1153q-20 -91 -56 -162.5t-94.5 -121.5t-140.5 -76.5t-193 -26.5q-63 0 -109.5 16t-78.5 47l147 284q9 -6 18 -11t21 -8.5t29 -5.5t41 -2q22 0 37.5 7t26.5 18t17 24t8 24l175 826h-165zM412 1580l192 249h300l86 -249h-252l-18 92l-57 -92h-251z" />
    <glyph glyph-name="afii10076" unicode="&#x43a;" horiz-adv-x="918" 
d="M655 1201l-92 -432h56l207 433h324l-317 -602l86 -600h-355l-20 449h-49l-95 -449h-321l255 1201h321z" />
    <glyph glyph-name="o" unicode="o" horiz-adv-x="912" 
d="M244 825q19 91 54 165.5t91.5 127t137 81t191.5 28.5q87 0 147.5 -18t98.5 -52t55 -82.5t17 -109.5q0 -63 -17 -140l-95 -446q-20 -91 -54 -165.5t-89 -127t-134.5 -81t-190.5 -28.5q-88 0 -149.5 18.5t-99.5 52.5t-55.5 83t-17.5 111q0 32 4 66t12 71zM651 915
q-21 0 -35.5 -8.5t-24 -21t-14.5 -27t-8 -26.5l-98 -459q-2 -7 -3 -14t-1 -15q0 -20 10.5 -36t41.5 -16q21 0 35 8.5t23.5 20.5t14.5 26t8 26l97 460q2 7 3 14.5t1 15.5q0 20 -10 36t-40 16z" />
    <glyph glyph-name="afii10096" unicode="&#x44e;" horiz-adv-x="1369" 
d="M80 0l255 1202h323l-103 -482h147l-61 -285h-147l-92 -435h-322zM715 825q19 91 54 165.5t91.5 127t137 81t191.5 28.5q87 0 147.5 -18t98.5 -52t55 -82.5t17 -109.5q0 -63 -17 -140l-95 -446q-20 -91 -54 -165.5t-89 -127t-134.5 -81t-190.5 -28.5q-88 0 -149.5 18.5
t-99.5 52.5t-55.5 83t-17.5 111q0 32 4 66t12 71zM1122 915q-21 0 -35.5 -8.5t-24 -21t-14.5 -27t-8 -26.5l-98 -459q-2 -7 -3 -14t-1 -15q0 -20 10.5 -36t41.5 -16q21 0 35 8.5t23.5 20.5t14.5 26t8 26l97 460q2 7 3 14.5t1 15.5q0 20 -10 36t-40 16z" />
    <glyph glyph-name="afii10080" unicode="&#x43e;" horiz-adv-x="912" 
d="M244 825q19 91 54 165.5t91.5 127t137 81t191.5 28.5q87 0 147.5 -18t98.5 -52t55 -82.5t17 -109.5q0 -63 -17 -140l-95 -446q-20 -91 -54 -165.5t-89 -127t-134.5 -81t-190.5 -28.5q-88 0 -149.5 18.5t-99.5 52.5t-55.5 83t-17.5 111q0 32 4 66t12 71zM651 915
q-21 0 -35.5 -8.5t-24 -21t-14.5 -27t-8 -26.5l-98 -459q-2 -7 -3 -14t-1 -15q0 -20 10.5 -36t41.5 -16q21 0 35 8.5t23.5 20.5t14.5 26t8 26l97 460q2 7 3 14.5t1 15.5q0 20 -10 36t-40 16z" />
    <glyph glyph-name="Pallino" horiz-adv-x="-2" 
d="M555 -205q0 16 12.5 27t27.5 11q12 0 19 -8t7 -19q0 -15 -12.5 -26.5t-27.5 -11.5q-12 0 -19 8t-7 19z" />
    <glyph glyph-name="afii10068" unicode="&#x433;" horiz-adv-x="744" 
d="M81 0l255 1202h655l-68 -320h-333l-187 -882h-322z" />
    <glyph glyph-name="afii10082" unicode="&#x440;" horiz-adv-x="932" 
d="M6 -367l334 1569h321l-19 -88q32 53 74 83t99 30q65 0 110.5 -16.5t74 -47t41.5 -74t13 -98.5q0 -37 -5.5 -78.5t-15.5 -87.5l-95 -446q-20 -91 -49.5 -165.5t-75 -127t-109 -81t-150.5 -28.5q-60 0 -89.5 32.5t-38.5 88.5l-99 -465h-321zM665 915q-21 0 -36 -11.5
t-25 -28t-16 -33.5t-9 -29l-89 -420q-2 -8 -3 -18t-1 -21t2 -22t7 -20t14.5 -14.5t23.5 -5.5q21 0 35 8.5t24 20.5t15 26t8 26l97 460q2 7 3 14t1 15q0 20 -10.5 36.5t-40.5 16.5z" />
    <glyph glyph-name="afii10074" unicode="&#x438;" horiz-adv-x="922" 
d="M518 0l95 414l-235 -414h-324l275 1202h324l-91 -398l230 395l1 3h28l239 2l-1 -2h58l-275 -1202h-324z" />
    <glyph glyph-name="afii10098" unicode="&#x491;" horiz-adv-x="855" 
d="M589 889l-189 -889h-320l255 1202h374l36 169l320 -3l-103 -479h-373z" />
    <glyph glyph-name="afii10051" unicode="&#x402;" horiz-adv-x="1076" 
d="M811 1201l-43 -200q32 52 74 82.5t99 30.5q65 0 110.5 -16t74 -46.5t41.5 -74.5t13 -99q0 -37 -5.5 -79t-15.5 -88l-71 -332q-20 -91 -49.5 -165.5t-75 -127t-109 -81t-150.5 -28.5q-58 0 -88 31.5t-40 86.5l-20 -95h-331l255 1201h-225l68 321h782l-68 -321h-226z
M791 802q-21 0 -36 -11.5t-25 -28t-16 -33.5t-9 -29l-65 -307q-2 -8 -3 -18t-1 -21t2 -22t7 -20t14.5 -14.5t23.5 -5.5q21 0 35.5 8.5t24 20.5t14.5 26t8 26l74 347q3 12 3.5 26t-4 26.5t-15.5 21t-32 8.5z" />
    <glyph glyph-name="afii10050" unicode="&#x490;" horiz-adv-x="892" 
d="M665 1202l-256 -1202h-329l324 1523h410l38 179h321l-106 -500h-402z" />
    <glyph glyph-name="afii10042" unicode="&#x428;" horiz-adv-x="1367" 
d="M735 1518l-255 -1197h109l253 1187h329l-253 -1187h107l254 1197h330l-323 -1518h-1203l323 1518h329z" />
    <glyph glyph-name="afii10090" unicode="&#x448;" horiz-adv-x="1369" 
d="M667 1202l-190 -889h109l188 879h329l-188 -879h107l189 889h329l-255 -1202h-1203l255 1202h330z" />
    <glyph glyph-name="afii10091" unicode="&#x449;" horiz-adv-x="1444" 
d="M1540 1202l-189 -889h162l-104 -488h-320l38 175h-1045l255 1202h330l-190 -889h109l188 879h329l-188 -879h107l189 889h329z" />
    <glyph glyph-name="afii10079" unicode="&#x43d;" horiz-adv-x="953" 
d="M84 0l255 1202h323l-94 -442h141l94 442h322l-255 -1202h-322l93 441h-141l-94 -441h-322z" />
    <glyph glyph-name="afii10081" unicode="&#x43f;" horiz-adv-x="953" 
d="M84 0l255 1202h785l-255 -1202h-321l189 889h-140l-189 -889h-324z" />
    <glyph glyph-name="afii10088" unicode="&#x446;" horiz-adv-x="1085" 
d="M665 1202l-189 -889h133l189 889h329l-189 -889h154l-104 -488h-320l38 175h-626l255 1202h330z" />
    <glyph glyph-name="afii10083" unicode="&#x441;" horiz-adv-x="913" 
d="M611 406h318l-5 -25q-19 -92 -53 -166.5t-89.5 -127t-135 -81.5t-190.5 -29q-88 0 -149.5 18.5t-99.5 52.5t-55.5 83t-17.5 110q0 65 16 138l71 334q5 28 11 55t12 55q19 91 54 165.5t91.5 127.5t137 82t191.5 29q87 0 147.5 -18t98.5 -52t55 -82.5t17 -108.5
q0 -65 -18 -143l-6 -26h-318l7 32q3 12 3 27t-4.5 28t-16 22t-32.5 9t-35.5 -8.5t-24 -21t-14.5 -26.5t-8 -26l-58 -275l-39 -181q-2 -8 -3 -16.5t-1 -16.5q0 -20 10 -36t41 -16q21 0 36 9t25 21.5t16 27.5t9 27z" />
    <glyph glyph-name="afii10087" unicode="&#x445;" horiz-adv-x="858" 
d="M525 0l-31 319l-175 -319h-312l358 625l-91 577h338l21 -290l159 290h312l-336 -577l93 -625h-336z" />
    <glyph glyph-name="afii10078" unicode="&#x43c;" horiz-adv-x="1252" 
d="M541 654l-128 -654h-329l256 1205h405l24 -545l256 545h404l-256 -1205h-328l148 651l-205 -469h-241z" />
    <glyph glyph-name="afii10102" unicode="&#x455;" horiz-adv-x="883" 
d="M911 435q0 -112 -32 -197.5t-92.5 -143.5t-148 -87.5t-198.5 -29.5q-89 0 -150 17.5t-98.5 51.5t-54.5 83t-17 112q0 72 20 166h323q-4 -19 -6.5 -34.5t-2.5 -28.5q0 -26 11 -39t37 -13q15 0 25.5 6.5t17 15.5t9.5 18t3 15q0 28 -24 53t-59.5 52t-77 57.5t-77 69
t-59.5 87t-24 110.5q0 118 32 203.5t93 140.5t149 81t199 26q63 0 117.5 -8.5t95 -35t64 -75t23.5 -127.5q0 -35 -4.5 -76t-15.5 -89l-323 2q2 9 5.5 25t3.5 32t-6.5 28t-25.5 12q-20 0 -32.5 -6t-19.5 -14t-9.5 -17t-2.5 -16q0 -23 24.5 -45.5t61.5 -49t80 -57.5t80 -70.5
t61.5 -90t24.5 -114.5z" />
    <glyph glyph-name="afii10100" unicode="&#x453;" horiz-adv-x="813" 
d="M82 0l255 1202h655l-68 -320h-333l-187 -882h-322zM1006 1573l-264 -295h-228l195 295h297z" />
    <glyph glyph-name="afii10089" unicode="&#x447;" horiz-adv-x="932" 
d="M658 1202l-99 -467q-2 -7 -3 -14t-1 -15q0 -20 10.5 -36t40.5 -16q21 0 36 11.5t25 28t15.5 33.5t8.5 29l95 446h321l-255 -1202h-321l98 461q-32 -55 -74 -87t-99 -32q-65 0 -110.5 16t-74 46.5t-41 74t-12.5 98.5q0 72 20 166l98 459h322z" />
    <glyph glyph-name="afii10103" unicode="&#x456;" horiz-adv-x="489" 
d="M354 1390q0 94 52.5 143.5t171.5 49.5q81 0 120 -28t39 -88q0 -93 -51.5 -143t-172.5 -50q-159 0 -159 116zM83 0l256 1202h322l-256 -1202h-322z" />
    <glyph glyph-name="afii10106" unicode="&#x459;" horiz-adv-x="997" 
d="M661 891h56q75 0 136 -13.5t104.5 -44.5t67 -82t23.5 -125q0 -61 -16 -134l-22 -104q-23 -109 -68 -183t-107.5 -119.5t-141 -65.5t-168.5 -20h-383l188 889h-141l67 313h471zM702 493q2 9 3 16.5t1 14.5q0 25 -14.5 37t-48.5 12h-50l-54 -252h54q42 0 61 17t26 50z" />
    <glyph glyph-name="afii10108" unicode="&#x45b;" horiz-adv-x="927" 
d="M582 871l-27 -130q32 55 73.5 87t98.5 32q65 0 110.5 -16t74 -46.5t41 -74t12.5 -98.5q0 -72 -20 -166l-98 -459h-321l99 467q2 7 3 14t1 15q0 20 -10.5 36t-41.5 16q-21 0 -36 -11.5t-25 -28t-15.5 -33.5t-8.5 -29l-95 -446h-321l185 871h-77l52 245h77l18 86h321
l-18 -86h84l-52 -245h-84z" />
    <glyph glyph-name="afii10045" unicode="&#x42b;" horiz-adv-x="1412" 
d="M948 388q-23 -109 -68 -183t-107.5 -119.5t-141 -65.5t-168.5 -20h-383l324 1522h329l-99 -465h56q75 0 136.5 -13.5t105 -44.5t67 -82t23.5 -125q0 -60 -16 -133zM676 659q2 9 3 16.5t1 14.5q0 25 -14.5 37t-49.5 12h-50l-89 -418h54q42 0 61 17t26 50zM1330 0l324 1522
h-329l-324 -1522h329z" />
    <glyph glyph-name="afii10092" unicode="&#x44a;" horiz-adv-x="1034" 
d="M1047 388q-24 -108 -69 -182.5t-107.5 -120t-140.5 -65.5t-168 -20h-383l192 905h-179l63 297h509l-66 -311h56q75 0 136.5 -13.5t104.5 -45t66.5 -82.5t23.5 -125q0 -59 -15 -132zM739 493q2 9 3 16.5t1 14.5q0 25 -14.5 37t-48.5 12h-50l-54 -252h54q42 0 61 17t26 49z
" />
    <glyph glyph-name="afii10043" unicode="&#x429;" horiz-adv-x="1534" 
d="M1606 1518l-257 -1205h206l-104 -488h-320l37 175h-1088l323 1518h329l-255 -1197h109l253 1187h329l-253 -1187h107l254 1197h330z" />
    <glyph glyph-name="afii10099" unicode="&#x452;" horiz-adv-x="925" 
d="M682 1261l-35 -153q33 55 76.5 87.5t100.5 32.5q64 0 108.5 -16t72 -45t40 -71.5t12.5 -94.5q0 -76 -23 -176l-189 -825l-15 -61q-21 -91 -58.5 -162.5t-96 -121.5t-140.5 -76.5t-193 -26.5q-63 0 -108.5 16t-77.5 47l150 279q8 -6 17 -11t21 -8.5t29 -5.5t41 -2
q22 0 39.5 7.5t30 18.5t20.5 25t11 27l13 55l191 833q2 8 3.5 17t1.5 18q0 20 -10.5 36.5t-42.5 16.5q-22 0 -38 -12t-27 -29.5t-17.5 -36t-9.5 -31.5l-186 -812h-316l290 1261h-77l53 233h77l16 68h316l-16 -68h84l-53 -233h-85z" />
    <glyph glyph-name="afii10846" unicode="&#x4d9;" horiz-adv-x="897" 
d="M217.986 797.951l5 24.999q18.999 91.9941 52.9971 166.489q33.998 74.4961 89.4941 126.992q55.4971 52.4971 134.992 81.4951t190.488 28.998q87.9941 0 149.49 -18.499q61.4971 -18.498 99.4941 -52.4961q37.998 -33.998 55.4971 -82.9951t17.499 -110.993
q0 -64.9961 -15.999 -137.992l-93.9941 -444.973q-18.999 -90.9941 -53.9971 -165.489q-34.998 -74.4961 -91.4941 -126.992q-56.4971 -52.4971 -136.992 -80.9951q-80.4951 -28.499 -191.488 -28.499q-86.9941 0 -147.491 17.999q-60.4961 17.999 -97.9932 51.9971
q-37.498 33.998 -54.4971 82.4951t-16.999 109.493q0 62.9961 16.999 141.991l2 6h-1l61.9961 290.982l475.971 96.9941l11 53.9961q2.99902 11.999 2.99902 25.999q0 13.999 -4.49902 26.998q-4.5 12.999 -16.499 21.499q-12 8.49902 -32.998 8.49902
q-20.999 0 -35.998 -8.99902q-14.999 -9 -24.998 -21.499q-10 -12.499 -15.999 -27.498q-6 -14.999 -9 -26.999l-6 -28.998h-317.98zM495.97 288.982q20.999 0 35.998 8.99902q14.999 9 25.498 21.499t16.499 27.498t9 26.999l25.998 122.992l-143.991 -32.998
l-18.999 -88.9941q-3 -12 -3 -26.999t4.5 -27.998t15.999 -21.999q11.499 -8.99902 32.498 -8.99902z" />
    <glyph glyph-name="iotadieresis" unicode="&#x3ca;" horiz-adv-x="490" 
d="M84 0l255 1202h323l-256 -1202h-322zM240 1387q0 43 9 78.5t29.5 60t54.5 38t84 13.5q59 0 88 -25t29 -79q0 -88 -40.5 -138.5t-138.5 -50.5q-59 0 -87 24.5t-28 78.5zM560 1387q0 44 9 79.5t30 60t55 37.5t83 13q60 0 88.5 -24.5t28.5 -78.5q0 -44 -9 -79t-30 -59.5
t-55.5 -38t-84.5 -13.5q-58 0 -86.5 24.5t-28.5 78.5z" />
    <glyph glyph-name="afii10104" unicode="&#x457;" horiz-adv-x="490" 
d="M84 0l255 1202h323l-256 -1202h-322zM253 1383q0 43 9 78.5t29.5 60t54.5 38t84 13.5q59 0 88 -25t29 -79q0 -88 -40.5 -138.5t-138.5 -50.5q-59 0 -87 24.5t-28 78.5zM573 1383q0 44 9 79.5t30 60t55 37.5t83 13q60 0 88.5 -24.5t28.5 -78.5q0 -44 -9 -79t-30 -59.5
t-55.5 -38t-84.5 -13.5q-58 0 -86.5 24.5t-28.5 78.5z" />
    <glyph glyph-name="afii10084" unicode="&#x442;" horiz-adv-x="733" 
d="M717 889l-190 -890h-320l190 890h-209l67 313h734l-67 -313h-205z" />
    <glyph glyph-name="Nu" unicode="&#x39d;" horiz-adv-x="1032" 
d="M99 0l324 1522h380l42 -656l131 656h329l-323 -1522h-348l-62 723l-144 -723h-329z" />
    <glyph glyph-name="afii10044" unicode="&#x42a;" horiz-adv-x="993" 
d="M323 1522h457l-99 -465h56q75 0 136.5 -13.5t105 -44.5t67 -82t23.5 -125q0 -60 -16 -133l-58 -271q-23 -109 -68 -183t-107.5 -119.5t-141 -65.5t-168.5 -20h-383l255 1201h-127zM723 659q2 9 3 16.5t1 14.5q0 25 -14.5 37t-49.5 12h-50l-89 -418h54q42 0 61 17t26 50z
" />
    <glyph glyph-name="afii10026" unicode="&#x418;" horiz-adv-x="1032" 
d="M653 0l162 721l-368 -721h-348l323 1522h330l-148 -655l320 655h381l-323 -1522h-329z" />
    <glyph glyph-name="afii10037" unicode="&#x423;" horiz-adv-x="924" 
d="M763 551l-276 -551h-320l254 507l-99 1015h362l-5 -558l251 558h320z" />
    <glyph glyph-name="afii10105" unicode="&#x458;" horiz-adv-x="491" 
d="M356 1390q0 94 52.5 143.5t171.5 49.5q81 0 120 -28t39 -88q0 -93 -52 -143t-173 -50q-158 0 -158 116zM662 1202l-257 -1210q-18 -86 -47.5 -159t-76.5 -126t-114.5 -83t-163.5 -30q-43 0 -77 7t-60.5 18.5t-47 26.5t-36.5 31l74 270l21 -14t29.5 -15.5t42 -12.5
t59.5 -5q54 0 74 92l257 1210h323z" />
    <glyph glyph-name="afii10097" unicode="&#x44f;" horiz-adv-x="884" 
d="M478 0l83 372h-29h-7q-13 -1 -24 -6t-22.5 -19t-23 -39t-26.5 -66l-33 -91q-12 -33 -24.5 -59.5t-23 -46t-18 -31t-8.5 -14.5h-330q12 16 23 30.5t21 32t20 40.5t22 58l30 89q21 63 36.5 101t31.5 62.5t36.5 41t51.5 35.5q-34 38 -54.5 86t-20.5 108q0 37 9 76l14 61
q45 201 163.5 291t306.5 90h385l-269 -1202h-320zM517 761q-4 -15 -4 -31q0 -21 12.5 -34t45.5 -13h60l46 208h-61q-22 0 -36.5 -5.5t-24.5 -14.5t-15 -21t-8 -25z" />
    <glyph glyph-name="Dsmall" unicode="&#xf764;" horiz-adv-x="917" 
d="M472 0h-394l255 1202h394q88 0 150 -19t100.5 -54.5t56 -85.5t17.5 -112q0 -32 -4 -65.5t-12 -70.5l-82 -388q-19 -91 -55 -166t-94 -128.5t-139.5 -83t-192.5 -29.5zM659 881h-65l-119 -561h64h1q21 0 36 9.5t25 23t16 28.5t8 26l82 388q2 11 3 26t-3.5 28.5t-15.5 22.5
t-32 9z" />
    <glyph glyph-name="Esmall" unicode="&#xf765;" horiz-adv-x="864" 
d="M84 0l255 1202h705l-69 -322h-382l-24 -112h244l-68 -322h-244l-26 -124h382l-69 -322h-704z" />
    <glyph glyph-name="Fsmall" unicode="&#xf766;" horiz-adv-x="808" 
d="M84 0l255 1202h705l-69 -322h-382l-35 -163h254l-68 -322h-254l-83 -395h-323z" />
    <glyph glyph-name="Gsmall" unicode="&#xf767;" horiz-adv-x="908" 
d="M587 665h398l-54 -254h-1l-6 -30q-20 -92 -54 -166.5t-89 -127t-134.5 -81.5t-190.5 -29q-88 0 -149.5 18.5t-99.5 52.5t-55.5 83t-17.5 111q0 32 4 66t12 71l70 333l24 111q19 91 54 165.5t91.5 127.5t137 82t191.5 29q87 0 147.5 -18t98.5 -52t55 -82.5t17 -108.5
q0 -65 -18 -143l-6 -26h-318l7 32q3 12 3 27t-4.5 28t-16 22t-32.5 9t-35.5 -8.5t-24 -21t-14.5 -26.5t-8 -26l-58 -275l-39 -181q-2 -8 -3 -16.5t-1 -16.5q0 -20 10 -36t41 -16q21 0 36 9t25 21.5t16 27.5t9 27l7 34h-79z" />
    <glyph glyph-name="Hsmall" unicode="&#xf768;" horiz-adv-x="953" 
d="M84 0l255 1202h323l-94 -442h141l94 442h322l-255 -1202h-322l93 441h-141l-94 -441h-322z" />
    <glyph glyph-name="Jsmall" unicode="&#xf76a;" horiz-adv-x="672" 
d="M156 321q52 -23 114 -23q18 0 32.5 8t25.5 20t18 25.5t9 24.5l176 826h323l-175 -820h-1l-3 -17q-19 -91 -55.5 -163t-94.5 -121.5t-140.5 -76t-193.5 -26.5q-63 0 -109.5 16t-78.5 47z" />
    <glyph glyph-name="Lsmall" unicode="&#xf76c;" horiz-adv-x="798" 
d="M663 1202l-189 -880h383l-69 -322h-704l255 1202h324z" />
    <glyph glyph-name="Msmall" unicode="&#xf76d;" horiz-adv-x="1257" 
d="M541 654l-128 -654h-329l256 1205h405l24 -545l256 545h404l-256 -1205h-328l148 651l-205 -469h-241z" />
    <glyph glyph-name="Nsmall" unicode="&#xf76e;" horiz-adv-x="961" 
d="M668 1202h3l-2 -9l53 -375l82 384h329l-255 -1202h-329v3l-49 397l-85 -400h-329l256 1202h58v2z" />
    <glyph glyph-name="Qsmall" unicode="&#xf771;" horiz-adv-x="912" 
d="M311 -6q-95 26 -136 90t-41 157q0 32 4 66t12 72l94 446q19 91 54 165.5t91.5 127t137 81t191.5 28.5q87 0 147.5 -18t98.5 -52t55 -82.5t17 -109.5q0 -63 -17 -140l-95 -446q-16 -75 -42 -138.5t-65 -113.5t-93 -84.5t-127 -50.5l-26 -123h-286zM651 915
q-21 0 -35.5 -8.5t-24 -21t-14.5 -27t-8 -26.5l-98 -459q-2 -7 -3 -14t-1 -15q0 -20 10.5 -36t41.5 -16q21 0 35 8.5t23.5 20.5t14.5 26t8 26l97 460q2 7 3 14.5t1 15.5q0 20 -10 36t-40 16z" />
    <glyph glyph-name="Usmall" unicode="&#xf775;" horiz-adv-x="907" 
d="M1113 1202l-178 -838q-20 -91 -55 -162.5t-92 -121.5t-138 -76.5t-192 -26.5q-89 0 -151.5 17t-101.5 49.5t-57 80t-18 108.5q0 30 4 63t12 69l178 838h328l-178 -839q-3 -12 -3 -23.5t5.5 -21t17 -15.5t32.5 -6h1q21 0 35 6t23 15.5t14 21t8 23.5l178 839h328z" />
    <glyph glyph-name="Wsmall" unicode="&#xf777;" horiz-adv-x="1515" 
d="M262 1204h332l-93 -879l282 879h456l-93 -881l283 881h331l-428 -1204h-488l85 819l-263 -819h-488z" />
    <glyph glyph-name="Ysmall" unicode="&#xf779;" horiz-adv-x="815" 
d="M1056 1202l-385 -770l-92 -432h-328l92 432l-71 770h315l-8 -443l189 443h288z" />
    <glyph glyph-name="epsilon" unicode="&#x3b5;" horiz-adv-x="911" 
d="M611 406h318l-5 -25q-19 -92 -53 -166.5t-89.5 -127t-135 -81.5t-190.5 -29q-88 0 -149.5 18.5t-99.5 52.5t-55.5 83t-17.5 111q0 32 4 66t12 71l70 333l24 111q19 91 54 165.5t91.5 127.5t137 82t191.5 29q87 0 147.5 -18t98.5 -52t55 -82.5t17 -108.5q0 -65 -18 -143
l-6 -26h-318l7 32q3 12 3 27t-4.5 28t-16 22t-32.5 9t-35.5 -8.5t-24 -21t-14.5 -26.5t-8 -26l-20 -94l292 7l-62 -291l-290 5l-17 -83q-2 -8 -3 -16.5t-1 -16.5q0 -20 10 -36t41 -16q21 0 36 9t25 21.5t16 27.5t9 27z" />
    <glyph glyph-name="afii10095" unicode="&#x44d;" horiz-adv-x="909" 
d="M474 377q-3 -14 -3 -31q0 -23 11 -41t43 -18q22 0 37.5 9t26 22t16 28.5t8.5 28.5l18 87l-294 -5l60 287l291 -7l20 94q2 8 3 16.5t1 16.5q0 22 -11 39t-43 17q-22 0 -38 -9.5t-26.5 -23t-16.5 -29.5t-9 -29l-6 -32h-314l6 26q19 91 53 165.5t90 127.5t136 82t190 29
q88 0 148.5 -18.5t98 -53t54.5 -83.5t17 -110q0 -32 -4 -66.5t-12 -72.5q-7 -28 -12.5 -55t-11.5 -55l-69 -332q-19 -91 -54 -165.5t-92 -127.5t-137.5 -82t-191.5 -29q-87 0 -146.5 18t-96.5 51.5t-53.5 81.5t-16.5 108q0 65 17 145l4 25h314z" />
    <glyph glyph-name="afii10101" unicode="&#x454;" horiz-adv-x="909" 
d="M611 406h318l-5 -25q-19 -92 -53 -166.5t-89.5 -127t-135 -81.5t-190.5 -29q-88 0 -149.5 18.5t-99.5 52.5t-55.5 83t-17.5 111q0 32 4 66t12 71l70 333l24 111q19 91 54 165.5t91.5 127.5t137 82t191.5 29q87 0 147.5 -18t98.5 -52t55 -82.5t17 -108.5q0 -65 -18 -143
l-6 -26h-318l7 32q3 12 3 27t-4.5 28t-16 22t-32.5 9t-35.5 -8.5t-24 -21t-14.5 -26.5t-8 -26l-20 -94l292 7l-62 -291l-290 5l-17 -83q-2 -8 -3 -16.5t-1 -16.5q0 -20 10 -36t41 -16q21 0 36 9t25 21.5t16 27.5t9 27z" />
    <glyph glyph-name="afii10061" unicode="&#x40c;" horiz-adv-x="993" 
d="M99 0l324 1522h329l-126 -593h49l286 593h349l-369 -740l57 -782h-349l-33 605l2 3h-61l-129 -608h-329zM1239 1893l-264 -295h-228l195 295h297z" />
    <glyph glyph-name="tau" unicode="&#x3c4;" horiz-adv-x="754" 
d="M727 889l-189 -890h-320l189 890h-208l67 313h733l-67 -313h-205z" />
    <glyph glyph-name="spessoresmall" horiz-adv-x="846" 
d="M1069 1210h1l1 4h171l-2 -8h3l-15 -66l-174 3z" />
    <glyph glyph-name="afii10041" unicode="&#x427;" horiz-adv-x="995" 
d="M734 1523l-169 -794q-3 -12 0.5 -26t13.5 -26t25.5 -20t36.5 -8t38.5 11.5t31.5 28t22.5 33.5t11.5 29l164 772h330l-324 -1523h-329l97 456q-32 -54 -75.5 -86.5t-100.5 -32.5q-71 0 -124.5 19.5t-89 55.5t-53 87.5t-17.5 115.5q0 56 14 124l167 784h330z" />
    <glyph glyph-name="afii10052" unicode="&#x403;" horiz-adv-x="839" 
d="M1109 1522l-71 -311h-354l-278 -1211h-324l349 1522h678zM1151 1892l-269 -294h-225l201 294h293z" />
    <glyph glyph-name="afii10093" unicode="&#x44b;" horiz-adv-x="1418" 
d="M1015 0l256 1202h322l-256 -1202h-322zM947 388q-24 -108 -69 -182.5t-107.5 -120t-140.5 -65.5t-168 -20h-383l255 1202h330l-66 -311h56q75 0 136.5 -13.5t104.5 -45t66.5 -82.5t23.5 -125q0 -59 -15 -132zM639 493q2 9 3 16.5t1 14.5q0 25 -14.5 37t-48.5 12h-50
l-54 -252h54q42 0 61 17t26 49z" />
    <glyph glyph-name="afii10094" unicode="&#x44c;" horiz-adv-x="925" 
d="M938 388q-23 -109 -68 -183t-107.5 -119.5t-141 -65.5t-168.5 -20h-383l255 1202h330l-66 -311h56q75 0 136 -13.5t104.5 -44.5t67 -82t23.5 -125q0 -61 -16 -134zM630 493q2 9 3 16.5t1 14.5q0 25 -14.5 37t-48.5 12h-50l-54 -252h54q42 0 61 17t26 49z" />
    <glyph glyph-name="afii10069" unicode="&#x434;" horiz-adv-x="1095" 
d="M731 1202h462l-189 -889h155l-103 -488h-320l37 175h-454l-37 -175h-319l104 488h13q25 0 56.5 27t66.5 93t71.5 177t72.5 279l67 315zM660 853q-21 -98 -42 -179.5t-46.5 -148.5t-56.5 -120t-71 -92h240l122 576h-139z" />
    <glyph glyph-name="afii10021" unicode="&#x414;" horiz-adv-x="1151" 
d="M1071 321h150l-106 -496h-329l37 175h-495l-37 -175h-329l105 496h36q20 0 42.5 28t46 76t47 111.5t46 134t43 144.5t38.5 142.5t31.5 127t22.5 99.5l72 340l313 -2h521zM749 1184q-36 -168 -67 -304t-65 -243t-75 -185.5t-97 -130.5h297l187 880h-177z" />
    <glyph glyph-name="afii10058" unicode="&#x409;" horiz-adv-x="1455" 
d="M1469 388q-23 -109 -68 -183t-108 -119.5t-141.5 -65.5t-168.5 -20h-383l255 1201h-197l-173 -817q-19 -90 -56.5 -165t-97.5 -128.5t-143.5 -83.5t-194.5 -30l68 321q20 0 36.5 9t29 22.5t20.5 28.5t10 26l242 1140l317 -2h537l-99 -465h56q75 0 136.5 -13.5t105 -44.5
t67 -82t23.5 -125q0 -60 -16 -133zM1196 659q2 9 3 16.5t1 14.5q0 25 -14.5 37t-48.5 12h-50l-89 -418h54q41 0 60 17t26 49z" />
    <glyph glyph-name="afii10059" unicode="&#x40a;" horiz-adv-x="1436" 
d="M78 0l324 1522h329l-99 -464h175l99 464h330l-99 -464h56q75 0 136.5 -13.5t104.5 -45t66.5 -82t23.5 -125.5q0 -58 -15 -131l-59 -273q-23 -108 -68 -182.5t-107.5 -120t-141 -65.5t-168.5 -20h-383l157 740h-175l-157 -740h-329zM1178 660q2 9 3 16.5t1 14.5
q0 25 -14.5 37t-48.5 12h-50l-89 -419h53q42 0 61 17t26 49z" />
    <glyph glyph-name="afii10060" unicode="&#x40b;" horiz-adv-x="1081" 
d="M684 0l137 645q2 7 3 14.5t1 15.5q0 20 -10 35.5t-41 15.5q-21 0 -36 -11.5t-25 -28t-16 -33.5t-8 -29l-133 -624h-321l293 1380h321l-98 -461q32 55 77 87t102 32q65 0 110.5 -16t74 -46.5t41 -74t12.5 -98.5q0 -73 -20 -167l-135 -636h-329zM811 1201l-255 -1201h-331
l255 1201h-225l68 321h782l-68 -321h-226z" />
    <glyph glyph-name="afii10072" unicode="&#x436;" horiz-adv-x="1298" 
d="M1064 1201l-92 -432h28l207 433h324l-317 -602l86 -600h-355l-20 449h-21l-95 -449h-321l95 449h-18l-209 -449h-356l341 600l-61 602h324l23 -433h24l92 432h321z" />
    <glyph glyph-name="afii10077" unicode="&#x43b;" horiz-adv-x="981" 
d="M583 0l189 889h-187l-107 -505q-19 -90 -58.5 -165t-100 -128.5t-142 -83.5t-183.5 -30l67 313q19 0 36 9t29.5 22.5t20.5 28.5t10 26l176 828l316 -2h509l-255 -1202h-320z" />
    <glyph glyph-name="afii10107" unicode="&#x45a;" horiz-adv-x="1392" 
d="M1406 388q-23 -109 -68 -183t-108 -119.5t-141 -65.5t-168 -20h-376l108 512h-141l-109 -512h-322l255 1202h323l-80 -372h142l79 372h320l-79 -372h58q75 0 136.5 -13.5t105 -45t67 -82.5t23.5 -125q0 -60 -16 -133zM1085 432q2 9 3 16.5t1 14.5q0 25 -14.5 37t-48.5 12
h-52l-42 -191h57q41 0 60 17t27 49z" />
    <glyph glyph-name="i.trk" horiz-adv-x="510" 
d="M351 1390q0 94 52.5 143.5t171.5 49.5q81 0 120 -28t39 -88q0 -93 -51.5 -143t-172.5 -50q-159 0 -159 116zM80 0l256 1202h322l-256 -1202h-322z" />
    <glyph glyph-name="zero.slash" horiz-adv-x="908" 
d="M151 384l160 757q19 90 53.5 165t90.5 128t136.5 82.5t190.5 29.5q87 0 147 -18.5t97.5 -52.5t54.5 -82.5t17 -109.5q0 -64 -17 -143l-161 -756q-20 -91 -54.5 -166t-90 -128.5t-135.5 -83t-191 -29.5q-87 0 -147 18.5t-97.5 52.5t-54 82.5t-16.5 108.5q0 65 17 145z
M714 1226q-19 0 -32 -9t-21 -22.5t-12.5 -28t-7.5 -26.5l-56 -261l138 120l30 142q2 8 3 17t1 19q0 19 -8.5 34t-34.5 15zM517 298q19 0 32.5 9t22 22.5t13 28t7.5 26.5l53 252l-138 -127l-27 -126q-2 -8 -3.5 -17.5t-1.5 -19.5q0 -19 8.5 -33.5t33.5 -14.5z" />
    <glyph glyph-name="afii10066" unicode="&#x431;" horiz-adv-x="912" 
d="M1261 1572q-11 -36 -22.5 -71t-29.5 -67t-46.5 -59t-73.5 -47t-110.5 -31.5t-157.5 -11.5q-38 0 -67 -12.5t-50.5 -34.5t-37.5 -51t-27 -62q52 48 106.5 75t103.5 27q59 0 99.5 -13.5t65 -39t35 -62t10.5 -82.5q0 -45 -8 -96.5t-22 -110.5l-102 -442q-24 -107 -58 -183
t-88.5 -125.5t-135 -72.5t-197.5 -23q-85 1 -144 19t-96 51.5t-54 81t-17 106.5q0 33 5 69.5t14 76.5l108 470h1l16 70q32 139 82 250.5t117.5 190.5t152 122.5t184.5 47.5q45 1 77.5 4.5t57 9t41.5 12.5t31 15zM565 777l-92 -402q-2 -8 -3 -16.5t-1 -17.5q0 -21 10.5 -37.5
t42.5 -16.5q22 0 37.5 9t25.5 22t15.5 28.5t8.5 28.5l105 456q5 18 5 36q0 21 -10.5 37t-41.5 16q-26 0 -44 -16.5t-29 -37.5q-4 -7 -8.5 -20t-8.5 -26.5t-7 -25.5t-4 -17h-1z" />
    <glyph glyph-name="afii10073" unicode="&#x437;" horiz-adv-x="869" 
d="M370 738l209 2q48 1 75 27t34 56l1 1q4 17 4 34q0 28 -14 40t-37 12q-31 0 -52 -19.5t-32 -64.5l-7 -29h-324l7 31q26 114 73 190.5t110 122.5t138.5 65.5t159.5 19.5q156 0 235.5 -61t79.5 -196q0 -65 -20 -153q-12 -50 -35.5 -87t-50.5 -63.5t-53 -42.5t-42 -24
q21 -4 36.5 -18.5t26 -37t16 -50.5t5.5 -58q0 -36 -8 -76q-20 -84 -60 -154.5t-100.5 -121t-140 -78.5t-176.5 -28q-69 0 -127 13t-100 43.5t-65.5 80t-23.5 122.5q0 59 18 139l8 31h324l-7 -29q-5 -22 -5 -35q0 -26 13.5 -37.5t37.5 -11.5q29 0 51.5 19.5t33.5 66.5
q3 12 4 22t1 18q0 29 -17 40.5t-55 11.5l-210 -1l22 97l13 56z" />
    <glyph glyph-name="afii10086" unicode="&#x444;" horiz-adv-x="1324" 
d="M423 -368l89 421q-29 -36 -65.5 -56t-82.5 -20q-65 0 -109.5 16t-72.5 46t-40.5 73t-12.5 97q0 38 5.5 80.5t15.5 89.5l95 446q19 91 50 165.5t77 127t110.5 81t151.5 28.5q45 0 72.5 -15t43.5 -43l75 354h321l-76 -355q27 29 62 44t80 15q65 0 110.5 -16t74 -46.5
t41.5 -74.5t13 -99q0 -37 -5.5 -79t-15.5 -88l-95 -445q-20 -91 -49.5 -165.5t-75.5 -127t-109.5 -81t-150.5 -28.5q-47 0 -74.5 20.5t-41.5 57.5l-90 -423h-321zM1062 915q-17 0 -29 -7t-22 -18l-125 -590q13 -8 44 -8q21 0 35 8.5t24 20.5t15 26t8 26l97 460q2 7 3 14
t1 15q0 20 -10.5 36.5t-40.5 16.5zM519 292q31 0 46 7l126 592q-5 11 -14.5 17.5t-25.5 6.5q-21 0 -35 -8.5t-24 -21t-15 -26.5t-8 -26l-98 -460q-3 -12 -3.5 -26t4 -26t15.5 -20.5t32 -8.5z" />
    <glyph glyph-name="gamma" unicode="&#x3b3;" horiz-adv-x="887" 
d="M196 -376l85 402h323l-86 -402h-322zM1144 1204l-487 -1204h-427l24 1204h332l-59 -809l286 809h331z" />
    <glyph glyph-name="pi" unicode="&#x3c0;" horiz-adv-x="1150" 
d="M1124 889l-189 -890h-320l189 890h-127l-189 -890h-320l189 890h-148l66 313h1061l-66 -313h-146z" />
    <glyph glyph-name="uni03BC" unicode="&#x3bc;" horiz-adv-x="926" 
d="M1119 1202l-175 -824q-19 -91 -49.5 -165t-76.5 -126.5t-110.5 -81t-151.5 -28.5q-57 0 -85.5 32t-36.5 87l-98 -461h-321l333 1567h321l-172 -811q-2 -8 -3.5 -18.5t-1.5 -21.5q0 -23 9.5 -42.5t37.5 -19.5q21 0 35.5 8.5t24 20.5t14.5 26t8 26l177 832h321z" />
    <glyph glyph-name="phi" unicode="&#x3c6;" horiz-adv-x="1217" 
d="M369 -367l73 345q-84 1 -143 20t-96 53t-53.5 82t-16.5 108q0 65 16 138l94 446q19 90 53 163.5t89.5 126t135 82t187.5 30.5l73 342h322l-73 -342q85 -1 144.5 -19.5t96.5 -53t53.5 -83t16.5 -108.5q0 -66 -16 -139l-95 -445q-20 -91 -54 -165t-89 -126.5t-134 -81.5
t-189 -29l-73 -344h-322zM1003 833q3 13 3 29q0 19 -8.5 34.5t-34.5 17.5l-132 -622q19 1 32 10t21.5 21t13.5 25.5t8 24.5zM470 373q-2 -7 -3 -14.5t-1 -15.5q0 -18 8.5 -33t34.5 -18l133 622q-19 -2 -32 -10.5t-21.5 -20.5t-13.5 -26t-7 -25z" />
    <glyph glyph-name="sigma" unicode="&#x3c3;" horiz-adv-x="913" 
d="M1101 913l-82 24q2 -11 3 -22.5t1 -23.5q0 -26 -4 -55.5t-11 -63.5l-84 -393q-20 -91 -54 -165.5t-89 -127t-134.5 -81t-190.5 -28.5q-88 0 -149.5 18.5t-99.5 52.5t-55.5 83t-17.5 111q0 32 4 66t12 71l94 446q19 90 53 163.5t89.5 125.5t134 81t186.5 31v1h461z
M651 915q-21 0 -35.5 -8.5t-24 -21t-14.5 -27t-8 -26.5l-98 -459q-2 -7 -3 -14t-1 -15q0 -20 10.5 -36t41.5 -16q21 0 35 8.5t23.5 20.5t14.5 26t8 26l97 460q2 7 3 14.5t1 15.5q0 20 -10 36t-40 16z" />
    <glyph glyph-name="upsilon" unicode="&#x3c5;" horiz-adv-x="907" 
d="M1113 1202l-178 -838q-20 -91 -55 -162.5t-92 -121.5t-138 -76.5t-192 -26.5q-89 0 -151.5 17t-101.5 49.5t-57 80t-18 108.5q0 30 4 63t12 69l178 838h328l-178 -839q-3 -12 -3 -23.5t5.5 -21t17 -15.5t32.5 -6h1q21 0 35 6t23 15.5t14 21t8 23.5l178 839h328z" />
    <glyph glyph-name="psi" unicode="&#x3c8;" horiz-adv-x="1191" 
d="M652 1202l-178 -839q-5 -19 -1.5 -36.5t24.5 -25.5l270 1268h322l-270 -1268q26 8 36.5 25.5t15.5 36.5l178 839h328l-178 -838q-19 -88 -53 -158t-87.5 -119.5t-129.5 -77.5t-179 -31l-73 -346h-322l73 346q-81 3 -137.5 21t-92 50.5t-52 78.5t-16.5 104q0 30 4 63
t12 69l178 838h328z" />
    <glyph glyph-name="lambda" unicode="&#x3bb;" horiz-adv-x="892" 
d="M1 0l447 1204h204q-8 32 -23 53.5t-33.5 36.5t-38.5 25t-39 18l187 232q45 -17 87 -49t76 -78.5t57 -106t30 -131.5h1v-4q1 -13 1.5 -25.5t0.5 -25.5t-0.5 -26t-1.5 -27l-17 -211l-48 -885h-331l61 692l7 75l11 125h-7l-300 -892h-331z" />
    <glyph glyph-name="omicrontonos" unicode="&#x3cc;" horiz-adv-x="912" 
d="M935 1573l-102 -295h-228l32 295h298zM244 825q19 91 54 165.5t91.5 127t137 81t191.5 28.5q87 0 147.5 -18t98.5 -52t55 -82.5t17 -109.5q0 -63 -17 -140l-95 -446q-20 -91 -54 -165.5t-89 -127t-134.5 -81t-190.5 -28.5q-88 0 -149.5 18.5t-99.5 52.5t-55.5 83
t-17.5 111q0 32 4 66t12 71zM651 915q-21 0 -35.5 -8.5t-24 -21t-14.5 -27t-8 -26.5l-98 -459q-2 -7 -3 -14t-1 -15q0 -20 10.5 -36t41.5 -16q21 0 35 8.5t23.5 20.5t14.5 26t8 26l97 460q2 7 3 14.5t1 15.5q0 20 -10 36t-40 16z" />
    <glyph glyph-name="etatonos" unicode="&#x3ae;" horiz-adv-x="940" 
d="M946 1573l-101 -295h-198l32 295h267zM455 -367l255 1199q2 7 3 14t1 15q0 20 -10.5 36t-40.5 16q-21 0 -36 -11.5t-25.5 -28t-16 -33.5t-8.5 -29l-172 -811h-321l255 1202h321l-20 -96q19 25 44 47t53.5 38t58 25t57.5 9q56 0 94.5 -14t62.5 -41t34.5 -65.5t10.5 -87.5
q0 -42 -7 -90.5t-18 -102.5l-253 -1191h-322z" />
    <glyph glyph-name="chi" unicode="&#x3c7;" horiz-adv-x="849" 
d="M517 0l-31 319l-175 -319h-312l358 625l-91 577h338l21 -290l159 290h312l-336 -577l93 -625h-336z" />
    <glyph glyph-name="omega" unicode="&#x3c9;" horiz-adv-x="1411" 
d="M1031 779l-63 -295q-10 -48 -19 -83.5t-9 -59.5q0 -26 14 -38.5t52 -12.5q31 0 49 9t28.5 29t18 52.5t17.5 80.5l58 270q3 14 4 25.5t1 22.5q0 38 -13.5 63.5t-33 41t-41.5 22t-38 6.5l67 313q90 -2 163 -20t124.5 -56.5t79.5 -100t28 -150.5q0 -37 -4.5 -78t-15.5 -88
l-59 -271q-11 -49 -25 -104t-37 -109t-57.5 -103t-86.5 -86.5t-124 -59.5t-169 -22q-82 0 -136 28.5t-88 75.5q-52 -48 -115.5 -76t-139.5 -28q-98 0 -160.5 22t-98.5 59.5t-50 87t-14 103.5t9 108.5t20 104.5l56 270q28 137 82 230.5t129.5 151.5t169.5 84t204 29l-65 -313
q-19 0 -48.5 -9t-59 -30t-55 -56t-36.5 -88l-57 -271q-9 -42 -15 -72t-6 -50q0 -26 13 -37t48 -11q37 0 57 12.5t30.5 36.5t17 60.5t16.5 84.5l17 81q2 11 3.5 16.5t1.5 7.5l41 190h320z" />
    <glyph glyph-name="omegatonos" unicode="&#x3ce;" horiz-adv-x="1404" 
d="M1174 1573l-100 -295h-228l30 295h298zM1027 779l-63 -295q-10 -48 -19 -83.5t-9 -59.5q0 -26 14 -38.5t52 -12.5q31 0 49 9t28.5 29t18 52.5t17.5 80.5l58 270q3 14 4 25.5t1 22.5q0 38 -13.5 63.5t-33 41t-41.5 22t-38 6.5l67 313q90 -2 163 -20t124.5 -56.5t79.5 -100
t28 -150.5q0 -37 -4.5 -78t-15.5 -88l-59 -271q-11 -49 -25 -104t-37 -109t-57.5 -103t-86.5 -86.5t-124 -59.5t-169 -22q-82 0 -136 28.5t-88 75.5q-52 -48 -115.5 -76t-139.5 -28q-98 0 -160.5 22t-98.5 59.5t-50 87t-14 103.5t9 108.5t20 104.5l56 270q28 137 82 230.5
t129.5 151.5t169.5 84t204 29l-65 -313q-19 0 -48.5 -9t-59 -30t-55 -56t-36.5 -88l-57 -271q-9 -42 -15 -72t-6 -50q0 -26 13 -37t48 -11q37 0 57 12.5t30.5 36.5t17 60.5t16.5 84.5l17 81q2 11 3.5 16.5t1.5 7.5l41 190h320z" />
    <glyph glyph-name="epsilontonos" unicode="&#x3ad;" horiz-adv-x="911" 
d="M611 406h318l-5 -25q-19 -92 -53 -166.5t-89.5 -127t-135 -81.5t-190.5 -29q-88 0 -149.5 18.5t-99.5 52.5t-55.5 83t-17.5 111q0 32 4 66t12 71l70 333l24 111q19 91 54 165.5t91.5 127.5t137 82t191.5 29q87 0 147.5 -18t98.5 -52t55 -82.5t17 -108.5q0 -65 -18 -143
l-6 -26h-318l7 32q3 12 3 27t-4.5 28t-16 22t-32.5 9t-35.5 -8.5t-24 -21t-14.5 -26.5t-8 -26l-20 -94l292 7l-62 -291l-290 5l-17 -83q-2 -8 -3 -16.5t-1 -16.5q0 -20 10 -36t41 -16q21 0 36 9t25 21.5t16 27.5t9 27zM936 1573l-101 -295h-198l32 295h267z" />
    <glyph glyph-name="xi" unicode="&#x3be;" horiz-adv-x="916" 
d="M629 1031l-10.5 -45.5t-4.5 -31.5q0 -14 8.5 -20.5t30.5 -6.5h145l-66 -310h-143q-47 0 -73 -26.5t-35 -69.5l-31 -149q-5 -22 -1.5 -38t12.5 -27t21.5 -16.5t26.5 -5.5l147 -68l-53 -240h-175q-78 0 -137.5 15.5t-100 50t-61 91t-20.5 137.5q0 115 21 201.5t57 148
t83.5 100t99.5 58.5q-46 22 -63.5 63t-17.5 92q0 45 11 97l23 109q19 90 52.5 165t88 128t133.5 83t189 30l1 1q85 0 144.5 -18t96 -51t53 -80.5t16.5 -106.5q0 -34 -5 -71t-14 -78l-13 -59h-328l12 58q2 10 4 21t2 22q0 17 -7 29t-28 13q-21 0 -33.5 -9t-19 -22t-9 -27.5
t-5.5 -26.5l-23 -110h-1zM395 -367l89 279q2 11 1.5 22.5t-6 21t-17 15.5t-31.5 6q-10 0 -9 23t9.5 57t21 74t24.5 74t21 57t10 23q84 0 144.5 -18t99.5 -50.5t57.5 -77.5t18.5 -98q0 -30 -5.5 -62.5t-16.5 -66.5l-90 -279h-321z" />
    <glyph glyph-name="upsilondieresis" unicode="&#x3cb;" horiz-adv-x="907" 
d="M1113 1202l-178 -838q-20 -91 -55 -162.5t-92 -121.5t-138 -76.5t-192 -26.5q-89 0 -151.5 17t-101.5 49.5t-57 80t-18 108.5q0 30 4 63t12 69l178 838h328l-178 -839q-3 -12 -3 -23.5t5.5 -21t17 -15.5t32.5 -6h1q21 0 35 6t23 15.5t14 21t8 23.5l178 839h328zM461 1389
q0 43 9 78.5t29.5 60t54.5 38t84 13.5q59 0 88 -25t29 -79q0 -88 -40.5 -138.5t-138.5 -50.5q-59 0 -87 24.5t-28 78.5zM781 1389q0 44 9 79.5t30 60t55 37.5t83 13q60 0 88.5 -24.5t28.5 -78.5q0 -44 -9 -79t-30 -59.5t-55.5 -38t-84.5 -13.5q-58 0 -86.5 24.5t-28.5 78.5z
" />
    <glyph glyph-name="upsilontonos" unicode="&#x3cd;" horiz-adv-x="907" 
d="M954 1573l-100 -295h-228l30 295h298zM1113 1202l-178 -838q-20 -91 -55 -162.5t-92 -121.5t-138 -76.5t-192 -26.5q-89 0 -151.5 17t-101.5 49.5t-57 80t-18 108.5q0 30 4 63t12 69l178 838h328l-178 -839q-3 -12 -3 -23.5t5.5 -21t17 -15.5t32.5 -6h1q21 0 35 6
t23 15.5t14 21t8 23.5l178 839h328z" />
    <glyph glyph-name="uni03C2" unicode="&#x3c2;" horiz-adv-x="911" 
d="M455 -22q-88 0 -149.5 18t-99.5 52.5t-55.5 83t-17.5 110.5q0 32 4 66t12 71l70 333l24 111q19 91 54 165.5t91.5 127.5t137 82t191.5 29q87 0 147.5 -18t98.5 -52t55 -82.5t17 -108.5q0 -65 -18 -143l-6 -26h-318l7 32q3 12 3 27t-4.5 28t-16 22t-32.5 9t-35.5 -8.5
t-24 -21t-14.5 -26.5t-8 -26l-58 -275l-39 -181q-3 -12 -2 -28t8 -30.5t20 -24t34 -9.5zM419 -367l89 279q2 11 1.5 22.5t-6 21t-17 15.5t-31.5 6q-11 0 -9.5 23t10 57t21 74t24.5 74t21 57t10 23q84 0 144.5 -18t99.5 -50.5t57.5 -77.5t18.5 -98q0 -30 -5.5 -62.5
t-16.5 -66.5l-90 -279h-321z" />
    <glyph glyph-name="zeta" unicode="&#x3b6;" horiz-adv-x="758" 
d="M664 1202h174l-68 -322l-332 -484q-33 -48 -33 -87q0 -24 12 -40t34 -21v-1l1 1q80 -14 138 -33t95.5 -44.5t55 -59.5t17.5 -79q0 -26 -5.5 -55.5t-16.5 -64.5l-90 -279h-321l89 279q5 22 -16 41t-58 27v-1q-141 25 -219 81t-78 148q0 45 20 98.5t64 116.5l314 457h-256
l69 322h409l1 1v-1z" />
    <glyph glyph-name="delta" unicode="&#x3b4;" horiz-adv-x="913" 
d="M870 1305q0 -1 12.5 -20t29.5 -45t36 -54t32 -47q29 -33 42.5 -77t13.5 -98q0 -62 -17 -139l-95 -446q-20 -91 -54 -165.5t-89 -127t-134.5 -81t-190.5 -28.5q-88 0 -149.5 18.5t-99.5 52.5t-55.5 83t-17.5 111q0 32 4 66t12 71l94 446q15 70 38.5 130.5t59.5 109
t85 83.5t114 55l-53 102l26 123l30 141h633l-56 -264h-251zM651 915q-21 0 -35.5 -8.5t-24 -21t-14.5 -27t-8 -26.5l-98 -459q-2 -7 -3 -14t-1 -15q0 -20 10.5 -36t41.5 -16q21 0 35 8.5t23.5 20.5t14.5 26t8 26l97 460q2 7 3 14.5t1 15.5q0 20 -10 36t-40 16z" />
    <glyph glyph-name="_480" horiz-adv-x="897" 
d="M412 -367l89 279q2 11 1.5 22.5t-6 21t-17 15.5t-31.5 6q-11 0 -9.5 23t10 57t21 74t24.5 74t21 57t10 23q84 0 144.5 -18t99.5 -50.5t57.5 -77.5t18.5 -98q0 -30 -5.5 -62.5t-16.5 -66.5l-90 -279h-321z" />
    <glyph glyph-name="aacute" unicode="&#xe1;" horiz-adv-x="932" 
d="M529 0l22 106q-33 -57 -75.5 -93t-99.5 -36q-65 0 -110 16t-73.5 46.5t-41.5 74.5t-13 99q0 38 5.5 79.5t15.5 87.5l94 445q21 101 51.5 176.5t76 125.5t108.5 75t150 25q57 0 85.5 -37.5t36.5 -97.5l24 110h320l-256 -1202h-320zM518 289q19 0 34.5 9t27 22.5t19 29.5
t11.5 31l94 443q3 15 3 35q0 22 -8 39.5t-34 17.5q-21 0 -36.5 -9t-26.5 -22t-17 -28t-9 -27l-97 -459q-3 -14 -5 -25.5t-2 -21.5q0 -17 9.5 -26t36.5 -9zM1108 1573l-264 -295h-228l195 295h297z" />
    <glyph glyph-name="abreve" unicode="&#x103;" horiz-adv-x="932" 
d="M529 0l22 106q-33 -57 -75.5 -93t-99.5 -36q-65 0 -110 16t-73.5 46.5t-41.5 74.5t-13 99q0 38 5.5 79.5t15.5 87.5l94 445q21 101 51.5 176.5t76 125.5t108.5 75t150 25q57 0 85.5 -37.5t36.5 -97.5l24 110h320l-256 -1202h-320zM518 289q19 0 34.5 9t27 22.5t19 29.5
t11.5 31l94 443q3 15 3 35q0 22 -8 39.5t-34 17.5q-21 0 -36.5 -9t-26.5 -22t-17 -28t-9 -27l-97 -459q-3 -14 -5 -25.5t-2 -21.5q0 -17 9.5 -26t36.5 -9zM1130 1587q-13 -61 -40 -117t-72.5 -98.5t-111.5 -68t-156 -25.5q-74 0 -123.5 16.5t-80 45.5t-43.5 68t-13 84
q0 43 11 95h174q-2 -17 -4 -31.5t-2 -28.5q0 -16 4.5 -29.5t17.5 -23.5t36 -15.5t60 -5.5q49 0 77.5 9.5t45.5 27.5t26.5 42.5t18.5 54.5h175z" />
    <glyph glyph-name="Aogonek" unicode="&#x104;" horiz-adv-x="947" 
d="M563 1523h427l-93 -1523h-331l20 195h-183l-63 -195h-331zM616 497l54 525l-170 -525h116zM832 -419q-68 -60 -187 -60q-48 0 -90.5 11t-74 34.5t-50 61t-18.5 90.5q0 72 30 122.5t81.5 88t121 67.5t147.5 60l106 -56q-48 -27 -84 -50.5t-60 -48.5t-36 -54t-12 -66
q0 -27 13 -39.5t36 -12.5q18 0 29.5 1t21.5 4t20 7.5t24 12.5z" />
    <glyph glyph-name="Aring" unicode="&#xc5;" horiz-adv-x="947" 
d="M563 1523h427l-93 -1523h-331l20 195h-183l-63 -195h-331zM616 497l54 525l-170 -525h116zM575 1752q0 72 17.5 128t55.5 94t98 58t145 20q110 0 163.5 -41.5t53.5 -132.5q0 -71 -17.5 -126.5t-55.5 -94t-98.5 -59t-146.5 -20.5q-109 0 -162 42.5t-53 131.5zM781 1800
q0 -39 49 -39q40 0 55 19t15 49q0 38 -48 38q-41 0 -56 -17.5t-15 -49.5z" />
    <glyph glyph-name="Abreve" unicode="&#x102;" horiz-adv-x="947" 
d="M563 1523h427l-93 -1523h-331l20 195h-183l-63 -195h-331zM616 497l54 525l-170 -525h116zM1174 1908q-13 -61 -40 -117t-72.5 -98.5t-111.5 -68t-156 -25.5q-74 0 -123.5 16.5t-80 45.5t-43.5 68t-13 84q0 43 11 95h174q-2 -17 -4 -31.5t-2 -28.5q0 -16 4.5 -29.5
t17.5 -23.5t36 -15.5t60 -5.5q49 0 77.5 9.5t45.5 27.5t26.5 42.5t18.5 54.5h175z" />
    <glyph glyph-name="Agrave" unicode="&#xc0;" horiz-adv-x="947" 
d="M563 1523h427l-93 -1523h-331l20 195h-183l-63 -195h-331zM616 497l54 525l-170 -525h116zM835 1894l69 -295h-218l-128 295h277z" />
    <glyph glyph-name="Atilde" unicode="&#xc3;" horiz-adv-x="947" 
d="M563 1523h427l-93 -1523h-331l20 195h-183l-63 -195h-331zM616 497l54 525l-170 -525h116zM1203 1870q-19 -56 -47.5 -106t-66.5 -88t-87 -60t-109 -22q-35 0 -60.5 9.5t-46.5 21.5t-40 21.5t-41 9.5q-32 0 -58.5 -15t-47.5 -59l-149 43q20 53 48.5 102.5t66 87t85 60
t106.5 22.5q38 0 64.5 -9.5t47.5 -21.5t39 -21.5t40 -9.5q35 0 60.5 16t44.5 58z" />
    <glyph glyph-name="Amacron" unicode="&#x100;" horiz-adv-x="947" 
d="M563 1523h427l-93 -1523h-331l20 195h-183l-63 -195h-331zM616 497l54 525l-170 -525h116zM537 1630l50 236h530l-50 -236h-530z" />
    <glyph glyph-name="Adieresis" unicode="&#xc4;" horiz-adv-x="947" 
d="M563 1523h427l-93 -1523h-331l20 195h-183l-63 -195h-331zM616 497l54 525l-170 -525h116zM520 1704q0 43 9 78.5t29.5 60t54.5 38t84 13.5q59 0 88 -25t29 -79q0 -88 -40.5 -138.5t-138.5 -50.5q-59 0 -87 24.5t-28 78.5zM840 1704q0 44 9 79.5t30 60t55 37.5t83 13
q60 0 88.5 -24.5t28.5 -78.5q0 -44 -9 -79t-30 -59.5t-55.5 -38t-84.5 -13.5q-58 0 -86.5 24.5t-28.5 78.5z" />
    <glyph glyph-name="Acircumflex" unicode="&#xc2;" horiz-adv-x="947" 
d="M563 1523h427l-93 -1523h-331l20 195h-183l-63 -195h-331zM616 497l54 525l-170 -525h116zM505 1600l192 249h300l86 -249h-252l-18 92l-57 -92h-251z" />
    <glyph glyph-name="A.fat" horiz-adv-x="890" 
d="M552 0l22 195h-176l-62 -195h-336l537 1522h468l-116 -1522h-337zM609 497l64 566l-179 -566h115z" />
    <glyph glyph-name="AEacute" unicode="&#x1fc;" horiz-adv-x="1335" 
d="M1455 1894l-264 -295h-228l195 295h297zM-62 0l689 1522h812l-69 -321h-295l-58 -273h226l-68 -321h-226l-61 -287h295l-68 -320h-624l41 195h-182l-81 -195h-331zM597 497l124 582l-244 -582h120z" />
    <glyph glyph-name="Hbar" unicode="&#x126;" horiz-adv-x="1032" 
d="M99 0l324 1522h329l-126 -593h176l126 593h329l-324 -1522h-329l129 608h-176l-129 -608h-329zM597 1630l50 236h530l-50 -236h-530z" />
    <glyph glyph-name="Ncommaaccent" unicode="&#x145;" horiz-adv-x="1032" 
d="M99 0l324 1522h380l42 -656l131 656h329l-323 -1522h-348l-62 723l-144 -723h-329zM353 -218q0 42 9.5 72.5t30.5 51t55 30.5t84 10q63 0 93 -29.5t30 -84.5q0 -60 -16.5 -112.5t-43.5 -97t-62 -81t-73 -65.5l-99 66q24 22 40 39.5t27.5 34t19.5 34t16 39.5
q-111 0 -111 93z" />
    <glyph glyph-name="Nacute" unicode="&#x143;" horiz-adv-x="1032" 
d="M99 0l324 1522h380l42 -656l131 656h329l-323 -1522h-348l-62 723l-144 -723h-329zM1242 1893l-264 -295h-228l195 295h297z" />
    <glyph glyph-name="Ncaron" unicode="&#x147;" horiz-adv-x="1032" 
d="M99 0l324 1522h380l42 -656l131 656h329l-323 -1522h-348l-62 723l-144 -723h-329zM910 1849l18 -92l57 92h252l-193 -249h-299l-86 249h251z" />
    <glyph glyph-name="Ntilde" unicode="&#xd1;" horiz-adv-x="1032" 
d="M1292 1870q-19 -56 -47.5 -106t-66.5 -88t-87 -60t-109 -22q-35 0 -60.5 9.5t-46.5 21.5t-40 21.5t-41 9.5q-32 0 -58.5 -15t-47.5 -59l-149 43q20 53 48.5 102.5t66 87t85 60t106.5 22.5q38 0 64.5 -9.5t47.5 -21.5t39 -21.5t40 -9.5q35 0 60.5 16t44.5 58zM99 0
l324 1522h380l42 -656l131 656h329l-323 -1522h-348l-62 723l-144 -723h-329z" />
    <glyph glyph-name="Hcircumflex" unicode="&#x124;" horiz-adv-x="1032" 
d="M99 0l324 1522h329l-126 -593h176l126 593h329l-324 -1522h-329l129 608h-176l-129 -608h-329zM567 1600l192 249h300l86 -249h-252l-18 92l-57 -92h-251z" />
    <glyph glyph-name="Icircumflex" unicode="&#xce;" horiz-adv-x="527" 
d="M99 0l324 1522h329l-324 -1522h-329zM316 1600l192 249h300l86 -249h-252l-18 92l-57 -92h-251z" />
    <glyph glyph-name="Imacron" unicode="&#x12a;" horiz-adv-x="527" 
d="M99 0l324 1522h329l-324 -1522h-329zM346 1630l50 236h530l-50 -236h-530z" />
    <glyph glyph-name="Iogonek" unicode="&#x12e;" horiz-adv-x="527" 
d="M99 0l324 1522h329l-324 -1522h-329zM362 -419q-68 -60 -187 -60q-48 0 -90.5 11t-74 34.5t-50 61t-18.5 90.5q0 72 30 122.5t81.5 88t121 67.5t147.5 60l106 -56q-48 -27 -84 -50.5t-60 -48.5t-36 -54t-12 -66q0 -27 13 -39.5t36 -12.5q18 0 29.5 1t21.5 4t20 7.5
t24 12.5z" />
    <glyph glyph-name="Iacute" unicode="&#xcd;" horiz-adv-x="527" 
d="M99 0l324 1522h329l-324 -1522h-329zM977 1894l-264 -295h-228l195 295h297z" />
    <glyph glyph-name="Ibreve" unicode="&#x12c;" horiz-adv-x="527" 
d="M99 0l324 1522h329l-324 -1522h-329zM986 1908q-13 -61 -40 -117t-72.5 -98.5t-111.5 -68t-156 -25.5q-74 0 -123.5 16.5t-80 45.5t-43.5 68t-13 84q0 43 11 95h174q-2 -17 -4 -31.5t-2 -28.5q0 -16 4.5 -29.5t17.5 -23.5t36 -15.5t60 -5.5q49 0 77.5 9.5t45.5 27.5
t26.5 42.5t18.5 54.5h175z" />
    <glyph glyph-name="Igrave" unicode="&#xcc;" horiz-adv-x="527" 
d="M99 0l324 1522h329l-324 -1522h-329zM642 1894l69 -295h-218l-128 295h277z" />
    <glyph glyph-name="Itilde" unicode="&#x128;" horiz-adv-x="527" 
d="M99 0l324 1522h329l-324 -1522h-329zM1012 1870q-19 -56 -47.5 -106t-66.5 -88t-87 -60t-109 -22q-35 0 -60.5 9.5t-46.5 21.5t-40 21.5t-41 9.5q-32 0 -58.5 -15t-47.5 -59l-149 43q20 53 48.5 102.5t66 87t85 60t106.5 22.5q38 0 64.5 -9.5t47.5 -21.5t39 -21.5
t40 -9.5q35 0 60.5 16t44.5 58z" />
    <glyph glyph-name="Idieresis" unicode="&#xcf;" horiz-adv-x="527" 
d="M99 0l324 1522h329l-324 -1522h-329zM329 1704q0 43 9 78.5t29.5 60t54.5 38t84 13.5q59 0 88 -25t29 -79q0 -88 -40.5 -138.5t-138.5 -50.5q-59 0 -87 24.5t-28 78.5zM649 1704q0 44 9 79.5t30 60t55 37.5t83 13q60 0 88.5 -24.5t28.5 -78.5q0 -44 -9 -79t-30 -59.5
t-55.5 -38t-84.5 -13.5q-58 0 -86.5 24.5t-28.5 78.5z" />
    <glyph glyph-name="afii10027" unicode="&#x419;" horiz-adv-x="1033" 
d="M653 0l162 721l-368 -721h-348l323 1522h330l-148 -655l320 655h381l-323 -1522h-329zM1312 1908q-13 -61 -40 -117t-72.5 -98.5t-111.5 -68t-156 -25.5q-74 0 -123.5 16.5t-80 45.5t-43.5 68t-13 84q0 43 11 95h174q-2 -17 -4 -31.5t-2 -28.5q0 -16 4.5 -29.5
t17.5 -23.5t36 -15.5t60 -5.5q49 0 77.5 9.5t45.5 27.5t26.5 42.5t18.5 54.5h175z" />
    <glyph glyph-name="Idotaccent" unicode="&#x130;" horiz-adv-x="527" 
d="M99 0l324 1522h329l-324 -1522h-329zM439 1686q0 104 52.5 160.5t175.5 56.5q80 0 119 -30t39 -96q0 -103 -53.5 -159.5t-177.5 -56.5q-155 0 -155 125z" />
    <glyph glyph-name="Emacron" unicode="&#x112;" horiz-adv-x="888" 
d="M99 0l324 1522h703l-68 -321h-375l-58 -273h306l-69 -321h-305l-61 -287h374l-68 -320h-703zM522 1630l50 236h530l-50 -236h-530z" />
    <glyph glyph-name="Eogonek" unicode="&#x118;" horiz-adv-x="888" 
d="M99 0l324 1522h703l-68 -321h-375l-58 -273h306l-69 -321h-305l-61 -287h374l-68 -320h-703zM736 -419q-68 -60 -187 -60q-48 0 -90.5 11t-74 34.5t-50 61t-18.5 90.5q0 72 30 122.5t81.5 88t121 67.5t147.5 60l106 -56q-48 -27 -84 -50.5t-60 -48.5t-36 -54t-12 -66
q0 -27 13 -39.5t36 -12.5q18 0 29.5 1t21.5 4t20 7.5t24 12.5z" />
    <glyph glyph-name="Rcommaaccent" unicode="&#x156;" horiz-adv-x="981" 
d="M99 0l324 1522h409q160 0 244.5 -63t84.5 -201q0 -57 -15 -129l-38 -179q-19 -88 -70 -158t-119 -121q15 -14 26.5 -27t18.5 -28t10.5 -34t3.5 -44q0 -26 -3.5 -59.5t-10.5 -78.5l-31 -202q-2 -17 -3.5 -32t-1.5 -29q0 -46 8.5 -78.5t16.5 -58.5h-339q-1 2 -3.5 13
t-5.5 28t-5.5 40t-2.5 49q0 14 1 29t3 30l32 204q3 18 4 33.5t1 29.5q0 30 -6 48.5t-16 28.5t-23.5 13.5t-29.5 2.5h-18l-117 -549h-329zM818 1133q3 13 2.5 25t-6.5 21.5t-19 15.5t-35 6h-77l-70 -331h76q46 0 64 22.5t26 57.5zM319 -218q0 42 9.5 72.5t30.5 51t55 30.5
t84 10q63 0 93 -29.5t30 -84.5q0 -60 -16.5 -112.5t-43.5 -97t-62 -81t-73 -65.5l-99 66q24 22 40 39.5t27.5 34t19.5 34t16 39.5q-111 0 -111 93z" />
    <glyph glyph-name="Dcaron" unicode="&#x10e;" horiz-adv-x="962" 
d="M423 1522h392q88 0 149.5 -19t100.5 -54t56.5 -85t17.5 -112q0 -32 -4 -66t-12 -71l-150 -708q-20 -91 -56 -166t-93.5 -128.5t-139 -83t-192.5 -29.5h-393zM683 1201l-187 -881h64q21 0 36.5 9.5t25.5 23t15.5 28.5t7.5 26l150 708q2 6 3 13.5t1 15.5q0 20 -10.5 38.5
t-41.5 18.5h-64zM794 1849l18 -92l57 92h252l-193 -249h-299l-86 249h251z" />
    <glyph glyph-name="Edotaccent" unicode="&#x116;" horiz-adv-x="888" 
d="M99 0l324 1522h703l-68 -321h-375l-58 -273h306l-69 -321h-305l-61 -287h374l-68 -320h-703zM621 1686q0 104 52.5 160.5t175.5 56.5q80 0 119 -30t39 -96q0 -103 -53.5 -159.5t-177.5 -56.5q-155 0 -155 125z" />
    <glyph glyph-name="Eacute" unicode="&#xc9;" horiz-adv-x="888" 
d="M99 0l324 1522h703l-68 -321h-375l-58 -273h306l-69 -321h-305l-61 -287h374l-68 -320h-703zM1153 1894l-264 -295h-228l195 295h297z" />
    <glyph glyph-name="Ebreve" unicode="&#x114;" horiz-adv-x="888" 
d="M99 0l324 1522h703l-68 -321h-375l-58 -273h306l-69 -321h-305l-61 -287h374l-68 -320h-703zM1161 1908q-13 -61 -40 -117t-72.5 -98.5t-111.5 -68t-156 -25.5q-74 0 -123.5 16.5t-80 45.5t-43.5 68t-13 84q0 43 11 95h174q-2 -17 -4 -31.5t-2 -28.5q0 -16 4.5 -29.5
t17.5 -23.5t36 -15.5t60 -5.5q49 0 77.5 9.5t45.5 27.5t26.5 42.5t18.5 54.5h175z" />
    <glyph glyph-name="Ecaron" unicode="&#x11a;" horiz-adv-x="888" 
d="M99 0l324 1522h703l-68 -321h-375l-58 -273h306l-69 -321h-305l-61 -287h374l-68 -320h-703zM796 1849l18 -92l57 92h252l-193 -249h-299l-86 249h251z" />
    <glyph glyph-name="Egrave" unicode="&#xc8;" horiz-adv-x="888" 
d="M99 0l324 1522h703l-68 -321h-375l-58 -273h306l-69 -321h-305l-61 -287h374l-68 -320h-703zM836 1894l69 -295h-218l-128 295h277z" />
    <glyph glyph-name="Lacute" unicode="&#x139;" horiz-adv-x="790" 
d="M99 0l324 1522h329l-257 -1206h352l-67 -316h-681zM980 1894l-264 -295h-228l195 295h297z" />
    <glyph glyph-name="Lcaron" unicode="&#x13d;" horiz-adv-x="790" 
d="M99 0l324 1522h329l-257 -1206h352l-67 -316h-681zM618 1847l18 -92l57 92h252l-193 -249h-299l-86 249h251z" />
    <glyph glyph-name="Racute" unicode="&#x154;" horiz-adv-x="981" 
d="M99 0l324 1522h409q160 0 244.5 -63t84.5 -201q0 -57 -15 -129l-38 -179q-19 -88 -70 -158t-119 -121q15 -14 26.5 -27t18.5 -28t10.5 -34t3.5 -44q0 -26 -3.5 -59.5t-10.5 -78.5l-31 -202q-2 -17 -3.5 -32t-1.5 -29q0 -46 8.5 -78.5t16.5 -58.5h-339q-1 2 -3.5 13
t-5.5 28t-5.5 40t-2.5 49q0 14 1 29t3 30l32 204q3 18 4 33.5t1 29.5q0 30 -6 48.5t-16 28.5t-23.5 13.5t-29.5 2.5h-18l-117 -549h-329zM818 1133q3 13 2.5 25t-6.5 21.5t-19 15.5t-35 6h-77l-70 -331h76q46 0 64 22.5t26 57.5zM1148 1894l-264 -295h-228l195 295h297z" />
    <glyph glyph-name="Rcaron" unicode="&#x158;" horiz-adv-x="981" 
d="M99 0l324 1522h409q160 0 244.5 -63t84.5 -201q0 -57 -15 -129l-38 -179q-19 -88 -70 -158t-119 -121q15 -14 26.5 -27t18.5 -28t10.5 -34t3.5 -44q0 -26 -3.5 -59.5t-10.5 -78.5l-31 -202q-2 -17 -3.5 -32t-1.5 -29q0 -46 8.5 -78.5t16.5 -58.5h-339q-1 2 -3.5 13
t-5.5 28t-5.5 40t-2.5 49q0 14 1 29t3 30l32 204q3 18 4 33.5t1 29.5q0 30 -6 48.5t-16 28.5t-23.5 13.5t-29.5 2.5h-18l-117 -549h-329zM818 1133q3 13 2.5 25t-6.5 21.5t-19 15.5t-35 6h-77l-70 -331h76q46 0 64 22.5t26 57.5zM794 1849l18 -92l57 92h252l-193 -249h-299
l-86 249h251z" />
    <glyph glyph-name="Edieresis" unicode="&#xcb;" horiz-adv-x="888" 
d="M99 0l324 1522h703l-68 -321h-375l-58 -273h306l-69 -321h-305l-61 -287h374l-68 -320h-703zM504 1704q0 43 9 78.5t29.5 60t54.5 38t84 13.5q59 0 88 -25t29 -79q0 -88 -40.5 -138.5t-138.5 -50.5q-59 0 -87 24.5t-28 78.5zM824 1704q0 44 9 79.5t30 60t55 37.5t83 13
q60 0 88.5 -24.5t28.5 -78.5q0 -44 -9 -79t-30 -59.5t-55.5 -38t-84.5 -13.5q-58 0 -86.5 24.5t-28.5 78.5z" />
    <glyph glyph-name="Ecircumflex" unicode="&#xca;" horiz-adv-x="888" 
d="M99 0l324 1522h703l-68 -321h-375l-58 -273h306l-69 -321h-305l-61 -287h374l-68 -320h-703zM492 1600l192 249h300l86 -249h-252l-18 92l-57 -92h-251z" />
    <glyph glyph-name="Ldot" unicode="&#x13f;" horiz-adv-x="790" 
d="M631 706q0 52 12.5 92t40 68t70.5 42.5t105 14.5q80 0 118.5 -30t38.5 -96q0 -51 -12.5 -91.5t-40 -68.5t-71.5 -42.5t-106 -14.5q-155 0 -155 126zM99 0l324 1522h329l-257 -1206h352l-67 -316h-681z" />
    <glyph glyph-name="Cacute" unicode="&#x106;" horiz-adv-x="934" 
d="M974 513l-29 -135q-19 -90 -55.5 -163.5t-94 -126t-139 -81.5t-190.5 -29q-1 0 -1 -1q-89 0 -150.5 19t-100.5 54t-56.5 85.5t-17.5 112.5q0 32 4 65.5t12 70.5l160 756q19 90 55 165t94 128t139.5 83t191.5 30l1 1q88 0 150 -19t101 -54t57 -85t18 -112q0 -31 -4 -65
t-12 -70l-28 -131h-330l28 130q3 13 3 29q0 20 -10 37.5t-40 18.5q-21 0 -36 -9t-24.5 -22.5t-15 -28t-8.5 -26.5l-161 -756q-2 -7 -3 -14.5t-1 -15.5q0 -21 10.5 -38.5t41.5 -17.5q20 0 34.5 8.5t24.5 20.5t15.5 26t8.5 26l28 134h330zM1183 1894l-264 -295h-228l195 295
h297z" />
    <glyph glyph-name="Ccaron" unicode="&#x10c;" horiz-adv-x="934" 
d="M974 513l-29 -135q-19 -90 -55.5 -163.5t-94 -126t-139 -81.5t-190.5 -29q-1 0 -1 -1q-89 0 -150.5 19t-100.5 54t-56.5 85.5t-17.5 112.5q0 32 4 65.5t12 70.5l160 756q19 90 55 165t94 128t139.5 83t191.5 30l1 1q88 0 150 -19t101 -54t57 -85t18 -112q0 -31 -4 -65
t-12 -70l-28 -131h-330l28 130q3 13 3 29q0 20 -10 37.5t-40 18.5q-21 0 -36 -9t-24.5 -22.5t-15 -28t-8.5 -26.5l-161 -756q-2 -7 -3 -14.5t-1 -15.5q0 -21 10.5 -38.5t41.5 -17.5q20 0 34.5 8.5t24.5 20.5t15.5 26t8.5 26l28 134h330zM825 1849l18 -92l57 92h252
l-193 -249h-299l-86 249h251z" />
    <glyph glyph-name="Ccedilla" unicode="&#xc7;" horiz-adv-x="934" 
d="M974 513l-29 -135q-19 -90 -55.5 -163.5t-94 -126t-139 -81.5t-190.5 -29q-1 0 -1 -1q-89 0 -150.5 19t-100.5 54t-56.5 85.5t-17.5 112.5q0 32 4 65.5t12 70.5l160 756q19 90 55 165t94 128t139.5 83t191.5 30l1 1q88 0 150 -19t101 -54t57 -85t18 -112q0 -31 -4 -65
t-12 -70l-28 -131h-330l28 130q3 13 3 29q0 20 -10 37.5t-40 18.5q-21 0 -36 -9t-24.5 -22.5t-15 -28t-8.5 -26.5l-161 -756q-2 -7 -3 -14.5t-1 -15.5q0 -21 10.5 -38.5t41.5 -17.5q20 0 34.5 8.5t24.5 20.5t15.5 26t8.5 26l28 134h330zM226 -285q16 -11 32 -20.5t35.5 -17
t45.5 -11.5t63 -4q21 0 40.5 4t34.5 13t24 22.5t9 31.5q0 13 -8.5 22t-22.5 15t-32 8.5t-37 2.5q-20 0 -39 -2.5t-34 -7.5l61 275h150l-26 -126q11 2 23 5q11 2 24.5 4t29.5 2q39 0 67 -13t46 -34.5t26.5 -49t8.5 -56.5q0 -61 -26.5 -109.5t-74.5 -82t-115.5 -51
t-149.5 -17.5q-41 0 -75.5 8t-63 20.5t-49.5 28.5t-35 31z" />
    <glyph glyph-name="Ccircumflex" unicode="&#x108;" horiz-adv-x="934" 
d="M974 513l-29 -135q-19 -90 -55.5 -163.5t-94 -126t-139 -81.5t-190.5 -29q-1 0 -1 -1q-89 0 -150.5 19t-100.5 54t-56.5 85.5t-17.5 112.5q0 32 4 65.5t12 70.5l160 756q19 90 55 165t94 128t139.5 83t191.5 30l1 1q88 0 150 -19t101 -54t57 -85t18 -112q0 -31 -4 -65
t-12 -70l-28 -131h-330l28 130q3 13 3 29q0 20 -10 37.5t-40 18.5q-21 0 -36 -9t-24.5 -22.5t-15 -28t-8.5 -26.5l-161 -756q-2 -7 -3 -14.5t-1 -15.5q0 -21 10.5 -38.5t41.5 -17.5q20 0 34.5 8.5t24.5 20.5t15.5 26t8.5 26l28 134h330zM521 1600l192 249h300l86 -249h-252
l-18 92l-57 -92h-251z" />
    <glyph glyph-name="Cdotaccent" unicode="&#x10a;" horiz-adv-x="934" 
d="M974 513l-29 -135q-19 -90 -55.5 -163.5t-94 -126t-139 -81.5t-190.5 -29q-1 0 -1 -1q-89 0 -150.5 19t-100.5 54t-56.5 85.5t-17.5 112.5q0 32 4 65.5t12 70.5l160 756q19 90 55 165t94 128t139.5 83t191.5 30l1 1q88 0 150 -19t101 -54t57 -85t18 -112q0 -31 -4 -65
t-12 -70l-28 -131h-330l28 130q3 13 3 29q0 20 -10 37.5t-40 18.5q-21 0 -36 -9t-24.5 -22.5t-15 -28t-8.5 -26.5l-161 -756q-2 -7 -3 -14.5t-1 -15.5q0 -21 10.5 -38.5t41.5 -17.5q20 0 34.5 8.5t24.5 20.5t15.5 26t8.5 26l28 134h330zM645 1686q0 104 52.5 160.5
t175.5 56.5q80 0 119 -30t39 -96q0 -103 -53.5 -159.5t-177.5 -56.5q-155 0 -155 125z" />
    <glyph glyph-name="Gbreve" unicode="&#x11e;" horiz-adv-x="938" 
d="M647 860h401l-103 -482q-19 -90 -55.5 -163.5t-94 -126t-139 -81.5t-190.5 -29q-1 0 -1 -1q-89 0 -150.5 19t-100.5 54t-56.5 85.5t-17.5 112.5q0 32 4 65.5t12 70.5l160 756q19 90 55 165t94 128t139.5 83t191.5 30l1 1q88 0 150 -19t101 -54t57 -85t18 -112
q0 -31 -4 -65t-12 -70l-28 -131h-330l28 130q3 13 3 29q0 20 -10 37.5t-40 18.5q-21 0 -36 -9t-24.5 -22.5t-15 -28t-8.5 -26.5l-161 -756q-2 -7 -3 -14.5t-1 -15.5q0 -20 10.5 -38t40.5 -18q20 0 35 8.5t25 20.5t15.5 26t8.5 26l35 165h-72zM1190 1908q-13 -61 -40 -117
t-72.5 -98.5t-111.5 -68t-156 -25.5q-74 0 -123.5 16.5t-80 45.5t-43.5 68t-13 84q0 43 11 95h174q-2 -17 -4 -31.5t-2 -28.5q0 -16 4.5 -29.5t17.5 -23.5t36 -15.5t60 -5.5q49 0 77.5 9.5t45.5 27.5t26.5 42.5t18.5 54.5h175z" />
    <glyph glyph-name="Gcircumflex" unicode="&#x11c;" horiz-adv-x="938" 
d="M647 860h401l-103 -482q-19 -90 -55.5 -163.5t-94 -126t-139 -81.5t-190.5 -29q-1 0 -1 -1q-89 0 -150.5 19t-100.5 54t-56.5 85.5t-17.5 112.5q0 32 4 65.5t12 70.5l160 756q19 90 55 165t94 128t139.5 83t191.5 30l1 1q88 0 150 -19t101 -54t57 -85t18 -112
q0 -31 -4 -65t-12 -70l-28 -131h-330l28 130q3 13 3 29q0 20 -10 37.5t-40 18.5q-21 0 -36 -9t-24.5 -22.5t-15 -28t-8.5 -26.5l-161 -756q-2 -7 -3 -14.5t-1 -15.5q0 -20 10.5 -38t40.5 -18q20 0 35 8.5t25 20.5t15.5 26t8.5 26l35 165h-72zM521 1600l192 249h300l86 -249
h-252l-18 92l-57 -92h-251z" />
    <glyph glyph-name="Gcommaaccent" unicode="&#x122;" horiz-adv-x="938" 
d="M647 860h401l-103 -482q-19 -90 -55.5 -163.5t-94 -126t-139 -81.5t-190.5 -29q-1 0 -1 -1q-89 0 -150.5 19t-100.5 54t-56.5 85.5t-17.5 112.5q0 32 4 65.5t12 70.5l160 756q19 90 55 165t94 128t139.5 83t191.5 30l1 1q88 0 150 -19t101 -54t57 -85t18 -112
q0 -31 -4 -65t-12 -70l-28 -131h-330l28 130q3 13 3 29q0 20 -10 37.5t-40 18.5q-21 0 -36 -9t-24.5 -22.5t-15 -28t-8.5 -26.5l-161 -756q-2 -7 -3 -14.5t-1 -15.5q0 -20 10.5 -38t40.5 -18q20 0 35 8.5t25 20.5t15.5 26t8.5 26l35 165h-72zM277 -218q0 42 9.5 72.5
t30.5 51t55 30.5t84 10q63 0 93 -29.5t30 -84.5q0 -60 -16.5 -112.5t-43.5 -97t-62 -81t-73 -65.5l-99 66q24 22 40 39.5t27.5 34t19.5 34t16 39.5q-111 0 -111 93z" />
    <glyph glyph-name="Gdotaccent" unicode="&#x120;" horiz-adv-x="938" 
d="M647 860h401l-103 -482q-19 -90 -55.5 -163.5t-94 -126t-139 -81.5t-190.5 -29q-1 0 -1 -1q-89 0 -150.5 19t-100.5 54t-56.5 85.5t-17.5 112.5q0 32 4 65.5t12 70.5l160 756q19 90 55 165t94 128t139.5 83t191.5 30l1 1q88 0 150 -19t101 -54t57 -85t18 -112
q0 -31 -4 -65t-12 -70l-28 -131h-330l28 130q3 13 3 29q0 20 -10 37.5t-40 18.5q-21 0 -36 -9t-24.5 -22.5t-15 -28t-8.5 -26.5l-161 -756q-2 -7 -3 -14.5t-1 -15.5q0 -20 10.5 -38t40.5 -18q20 0 35 8.5t25 20.5t15.5 26t8.5 26l35 165h-72zM644 1686q0 104 52.5 160.5
t175.5 56.5q80 0 119 -30t39 -96q0 -103 -53.5 -159.5t-177.5 -56.5q-155 0 -155 125z" />
    <glyph glyph-name="Oacute" unicode="&#xd3;" horiz-adv-x="930" 
d="M311 1140q19 91 55.5 165.5t94 128t139.5 83t193 29.5q88 0 150 -19t101 -54.5t56.5 -85.5t17.5 -112q0 -32 -4 -65.5t-12 -70.5l-161 -756q-19 -91 -55 -165.5t-94 -128t-139.5 -83t-192.5 -29.5q-89 0 -150.5 19t-100.5 54t-56.5 85.5t-17.5 112.5q0 32 4 65.5t12 70.5
zM725 1226q-21 0 -36 -9t-25 -22t-15.5 -28t-7.5 -26l-161 -757q-2 -7 -3 -14.5t-1 -15.5q0 -21 10.5 -38.5t41.5 -17.5q21 0 36 9t24.5 22t15 27.5t8.5 26.5l161 756q2 7 3 14.5t1 15.5q0 21 -10.5 39t-41.5 18zM1172 1894l-264 -295h-228l195 295h297z" />
    <glyph glyph-name="Obreve" unicode="&#x14e;" horiz-adv-x="930" 
d="M311 1140q19 91 55.5 165.5t94 128t139.5 83t193 29.5q88 0 150 -19t101 -54.5t56.5 -85.5t17.5 -112q0 -32 -4 -65.5t-12 -70.5l-161 -756q-19 -91 -55 -165.5t-94 -128t-139.5 -83t-192.5 -29.5q-89 0 -150.5 19t-100.5 54t-56.5 85.5t-17.5 112.5q0 32 4 65.5t12 70.5
zM725 1226q-21 0 -36 -9t-25 -22t-15.5 -28t-7.5 -26l-161 -757q-2 -7 -3 -14.5t-1 -15.5q0 -21 10.5 -38.5t41.5 -17.5q21 0 36 9t24.5 22t15 27.5t8.5 26.5l161 756q2 7 3 14.5t1 15.5q0 21 -10.5 39t-41.5 18zM1184 1908q-13 -61 -40 -117t-72.5 -98.5t-111.5 -68
t-156 -25.5q-74 0 -123.5 16.5t-80 45.5t-43.5 68t-13 84q0 43 11 95h174q-2 -17 -4 -31.5t-2 -28.5q0 -16 4.5 -29.5t17.5 -23.5t36 -15.5t60 -5.5q49 0 77.5 9.5t45.5 27.5t26.5 42.5t18.5 54.5h175z" />
    <glyph glyph-name="Ocircumflex" unicode="&#xd4;" horiz-adv-x="930" 
d="M311 1140q19 91 55.5 165.5t94 128t139.5 83t193 29.5q88 0 150 -19t101 -54.5t56.5 -85.5t17.5 -112q0 -32 -4 -65.5t-12 -70.5l-161 -756q-19 -91 -55 -165.5t-94 -128t-139.5 -83t-192.5 -29.5q-89 0 -150.5 19t-100.5 54t-56.5 85.5t-17.5 112.5q0 32 4 65.5t12 70.5
zM725 1226q-21 0 -36 -9t-25 -22t-15.5 -28t-7.5 -26l-161 -757q-2 -7 -3 -14.5t-1 -15.5q0 -21 10.5 -38.5t41.5 -17.5q21 0 36 9t24.5 22t15 27.5t8.5 26.5l161 756q2 7 3 14.5t1 15.5q0 21 -10.5 39t-41.5 18zM515 1600l192 249h300l86 -249h-252l-18 92l-57 -92h-251z
" />
    <glyph glyph-name="Odieresis" unicode="&#xd6;" horiz-adv-x="930" 
d="M311 1140q19 91 55.5 165.5t94 128t139.5 83t193 29.5q88 0 150 -19t101 -54.5t56.5 -85.5t17.5 -112q0 -32 -4 -65.5t-12 -70.5l-161 -756q-19 -91 -55 -165.5t-94 -128t-139.5 -83t-192.5 -29.5q-89 0 -150.5 19t-100.5 54t-56.5 85.5t-17.5 112.5q0 32 4 65.5t12 70.5
zM725 1226q-21 0 -36 -9t-25 -22t-15.5 -28t-7.5 -26l-161 -757q-2 -7 -3 -14.5t-1 -15.5q0 -21 10.5 -38.5t41.5 -17.5q21 0 36 9t24.5 22t15 27.5t8.5 26.5l161 756q2 7 3 14.5t1 15.5q0 21 -10.5 39t-41.5 18zM528 1704q0 43 9 78.5t29.5 60t54.5 38t84 13.5q59 0 88 -25
t29 -79q0 -88 -40.5 -138.5t-138.5 -50.5q-59 0 -87 24.5t-28 78.5zM848 1704q0 44 9 79.5t30 60t55 37.5t83 13q60 0 88.5 -24.5t28.5 -78.5q0 -44 -9 -79t-30 -59.5t-55.5 -38t-84.5 -13.5q-58 0 -86.5 24.5t-28.5 78.5z" />
    <glyph glyph-name="Ograve" unicode="&#xd2;" horiz-adv-x="930" 
d="M311 1140q19 91 55.5 165.5t94 128t139.5 83t193 29.5q88 0 150 -19t101 -54.5t56.5 -85.5t17.5 -112q0 -32 -4 -65.5t-12 -70.5l-161 -756q-19 -91 -55 -165.5t-94 -128t-139.5 -83t-192.5 -29.5q-89 0 -150.5 19t-100.5 54t-56.5 85.5t-17.5 112.5q0 32 4 65.5t12 70.5
zM725 1226q-21 0 -36 -9t-25 -22t-15.5 -28t-7.5 -26l-161 -757q-2 -7 -3 -14.5t-1 -15.5q0 -21 10.5 -38.5t41.5 -17.5q21 0 36 9t24.5 22t15 27.5t8.5 26.5l161 756q2 7 3 14.5t1 15.5q0 21 -10.5 39t-41.5 18zM848 1894l69 -295h-218l-128 295h277z" />
    <glyph glyph-name="Ohungarumlaut" unicode="&#x150;" horiz-adv-x="930" 
d="M311 1140q19 91 55.5 165.5t94 128t139.5 83t193 29.5q88 0 150 -19t101 -54.5t56.5 -85.5t17.5 -112q0 -32 -4 -65.5t-12 -70.5l-161 -756q-19 -91 -55 -165.5t-94 -128t-139.5 -83t-192.5 -29.5q-89 0 -150.5 19t-100.5 54t-56.5 85.5t-17.5 112.5q0 32 4 65.5t12 70.5
zM725 1226q-21 0 -36 -9t-25 -22t-15.5 -28t-7.5 -26l-161 -757q-2 -7 -3 -14.5t-1 -15.5q0 -21 10.5 -38.5t41.5 -17.5q21 0 36 9t24.5 22t15 27.5t8.5 26.5l161 756q2 7 3 14.5t1 15.5q0 21 -10.5 39t-41.5 18zM1003 1894l-254 -295h-218l195 295h277zM1316 1894
l-254 -295h-218l195 295h277z" />
    <glyph glyph-name="Omacron" unicode="&#x14c;" horiz-adv-x="930" 
d="M311 1140q19 91 55.5 165.5t94 128t139.5 83t193 29.5q88 0 150 -19t101 -54.5t56.5 -85.5t17.5 -112q0 -32 -4 -65.5t-12 -70.5l-161 -756q-19 -91 -55 -165.5t-94 -128t-139.5 -83t-192.5 -29.5q-89 0 -150.5 19t-100.5 54t-56.5 85.5t-17.5 112.5q0 32 4 65.5t12 70.5
zM725 1226q-21 0 -36 -9t-25 -22t-15.5 -28t-7.5 -26l-161 -757q-2 -7 -3 -14.5t-1 -15.5q0 -21 10.5 -38.5t41.5 -17.5q21 0 36 9t24.5 22t15 27.5t8.5 26.5l161 756q2 7 3 14.5t1 15.5q0 21 -10.5 39t-41.5 18zM545 1630l50 236h530l-50 -236h-530z" />
    <glyph glyph-name="Otilde" unicode="&#xd5;" horiz-adv-x="930" 
d="M311 1140q19 91 55.5 165.5t94 128t139.5 83t193 29.5q88 0 150 -19t101 -54.5t56.5 -85.5t17.5 -112q0 -32 -4 -65.5t-12 -70.5l-161 -756q-19 -91 -55 -165.5t-94 -128t-139.5 -83t-192.5 -29.5q-89 0 -150.5 19t-100.5 54t-56.5 85.5t-17.5 112.5q0 32 4 65.5t12 70.5
zM725 1226q-21 0 -36 -9t-25 -22t-15.5 -28t-7.5 -26l-161 -757q-2 -7 -3 -14.5t-1 -15.5q0 -21 10.5 -38.5t41.5 -17.5q21 0 36 9t24.5 22t15 27.5t8.5 26.5l161 756q2 7 3 14.5t1 15.5q0 21 -10.5 39t-41.5 18zM1211 1870q-19 -56 -47.5 -106t-66.5 -88t-87 -60t-109 -22
q-35 0 -60.5 9.5t-46.5 21.5t-40 21.5t-41 9.5q-32 0 -58.5 -15t-47.5 -59l-149 43q20 53 48.5 102.5t66 87t85 60t106.5 22.5q38 0 64.5 -9.5t47.5 -21.5t39 -21.5t40 -9.5q35 0 60.5 16t44.5 58z" />
    <glyph glyph-name="Oslashacute" unicode="&#x1fe;" horiz-adv-x="930" 
d="M311 1140q19 91 55.5 165.5t94 128t139.5 83t193 29.5q88 0 150 -19t101 -54.5t56.5 -85.5t17.5 -112q0 -32 -4 -65.5t-12 -70.5l-161 -756q-19 -91 -55 -165.5t-94 -128t-139.5 -83t-192.5 -29.5q-89 0 -150.5 19t-100.5 54t-56.5 85.5t-17.5 112.5q0 32 4 65.5t12 70.5
zM725 1226q-21 0 -36 -9t-25 -22t-15.5 -28t-7.5 -26l-161 -757q-2 -7 -3 -14.5t-1 -15.5q0 -21 10.5 -38.5t41.5 -17.5q21 0 36 9t24.5 22t15 27.5t8.5 26.5l161 756q2 7 3 14.5t1 15.5q0 21 -10.5 39t-41.5 18zM401 -80h-316l760 1679h319zM1079 1894l-264 -295h-228
l195 295h297z" />
    <glyph glyph-name="Omegatonos" unicode="&#x38f;" horiz-adv-x="930" 
d="M86 0l67 316h82l14 79q-25 31 -36 71t-11 89q0 35 5.5 75t14.5 83l90 427q19 91 55.5 165.5t94 128t139.5 83t193 29.5q88 0 150 -19t101 -54t56.5 -85t17.5 -112q0 -32 -4 -65.5t-12 -70.5l-91 -428q-22 -103 -59.5 -183.5t-103.5 -134.5l-19 -78h82l-67 -316h-350
l65 308l30 140l32 150l7 30q13 0 22.5 9t15.5 21.5t9.5 27.5t6.5 27l91 426q3 12 3 29q0 21 -10 39t-41 18q-3 0 -4 1q-20 -1 -34.5 -10.5t-24 -22t-14.5 -27t-8 -26.5l-90 -427q-2 -11 -4.5 -24.5t-2.5 -25.5q0 -15 5 -25t20 -10l-7 -30h1l-127 -598h-350zM464 1573
l-101 -295h-198l32 295h267z" />
    <glyph glyph-name="Oslash.fat" horiz-adv-x="914" 
d="M174 -99l-125 60l1027 1668l120 -60z" />
    <glyph glyph-name="Dcroat" unicode="&#x110;" horiz-adv-x="941" 
d="M400 1522h392q88 0 149.5 -19t100.5 -54t56.5 -85t17.5 -112q0 -32 -4 -66t-12 -71l-150 -708q-20 -91 -56 -166t-93.5 -128.5t-139 -83t-192.5 -29.5h-393zM660 1201l-187 -881h64q21 0 36.5 9.5t25.5 23t15.5 28.5t7.5 26l150 708q2 6 3 13.5t1 15.5q0 20 -10.5 38.5
t-41.5 18.5h-64zM95 627l50 236h530l-50 -236h-530z" />
    <glyph glyph-name="Wacute" unicode="&#x1e82;" horiz-adv-x="1374" 
d="M361 1523h331l-115 -814l242 814h385l-104 -810l230 810h331l-494 -1523h-407l95 791l-240 -791h-407zM1401 1894l-264 -295h-228l195 295h297z" />
    <glyph glyph-name="Wgrave" unicode="&#x1e80;" horiz-adv-x="1374" 
d="M361 1523h331l-115 -814l242 814h385l-104 -810l230 810h331l-494 -1523h-407l95 791l-240 -791h-407zM1054 1894l69 -295h-218l-128 295h277z" />
    <glyph glyph-name="Wdieresis" unicode="&#x1e84;" horiz-adv-x="1374" 
d="M361 1523h331l-115 -814l242 814h385l-104 -810l230 810h331l-494 -1523h-407l95 791l-240 -791h-407zM752 1704q0 43 9 78.5t29.5 60t54.5 38t84 13.5q59 0 88 -25t29 -79q0 -88 -40.5 -138.5t-138.5 -50.5q-59 0 -87 24.5t-28 78.5zM1072 1704q0 44 9 79.5t30 60
t55 37.5t83 13q60 0 88.5 -24.5t28.5 -78.5q0 -44 -9 -79t-30 -59.5t-55.5 -38t-84.5 -13.5q-58 0 -86.5 24.5t-28.5 78.5z" />
    <glyph glyph-name="Wcircumflex" unicode="&#x174;" horiz-adv-x="1374" 
d="M361 1523h331l-115 -814l242 814h385l-104 -810l230 810h331l-494 -1523h-407l95 791l-240 -791h-407zM739 1600l192 249h300l86 -249h-252l-18 92l-57 -92h-251z" />
    <glyph glyph-name="afii10148" unicode="&#x474;" horiz-adv-x="0" 
 />
    <glyph glyph-name="Tcommaaccent" unicode="&#x162;" horiz-adv-x="802" 
d="M822 1201l-255 -1201h-331l255 1201h-225l68 321h782l-68 -321h-226zM208 -218q0 42 9.5 72.5t30.5 51t55 30.5t84 10q63 0 93 -29.5t30 -84.5q0 -60 -16.5 -112.5t-43.5 -97t-62 -81t-73 -65.5l-99 66q24 22 40 39.5t27.5 34t19.5 34t16 39.5q-111 0 -111 93z" />
    <glyph glyph-name="Tbar" unicode="&#x166;" horiz-adv-x="802" 
d="M822 1201l-255 -1201h-331l255 1201h-225l68 321h782l-68 -321h-226zM482 1630l50 236h530l-50 -236h-530z" />
    <glyph glyph-name="Tcaron" unicode="&#x164;" horiz-adv-x="802" 
d="M822 1201l-255 -1201h-331l255 1201h-225l68 321h782l-68 -321h-226zM756 1849l18 -92l57 92h252l-193 -249h-299l-86 249h251z" />
    <glyph glyph-name="Sacute" unicode="&#x15a;" horiz-adv-x="938" 
d="M947 365q-41 -193 -158 -290.5t-323 -97.5q-173 0 -252.5 63.5t-79.5 195.5q0 63 16 139l29 138h328l-29 -138q-8 -35 3 -56t49 -21q44 0 63.5 19t24.5 51l2 13q5 32 10.5 57.5t5.5 47.5q0 23 -9 44t-34 41l-120 98q-49 40 -82 75.5t-53 69.5t-28.5 67.5t-8.5 70.5
t6.5 78t17.5 91l7 33q23 109 65 184t102 121t138 66.5t173 20.5q157 0 236.5 -57.5t79.5 -191.5q0 -59 -17 -142l-31 -144h-327l30 143q5 22 5 34q0 20 -11 29t-37 9q-34 0 -51.5 -17t-25.5 -54l-5 -25q-6 -27 -6 -57q0 -27 8 -52t30 -41l103 -72q52 -37 88.5 -74.5
t58.5 -77t32 -82t10 -88.5q0 -35 -5 -71.5t-13 -77.5zM1192 1894l-264 -295h-228l195 295h297z" />
    <glyph glyph-name="Scaron" unicode="&#x160;" horiz-adv-x="938" 
d="M947 365q-41 -193 -158 -290.5t-323 -97.5q-173 0 -252.5 63.5t-79.5 195.5q0 63 16 139l29 138h328l-29 -138q-8 -35 3 -56t49 -21q44 0 63.5 19t24.5 51l2 13q5 32 10.5 57.5t5.5 47.5q0 23 -9 44t-34 41l-120 98q-49 40 -82 75.5t-53 69.5t-28.5 67.5t-8.5 70.5
t6.5 78t17.5 91l7 33q23 109 65 184t102 121t138 66.5t173 20.5q157 0 236.5 -57.5t79.5 -191.5q0 -59 -17 -142l-31 -144h-327l30 143q5 22 5 34q0 20 -11 29t-37 9q-34 0 -51.5 -17t-25.5 -54l-5 -25q-6 -27 -6 -57q0 -27 8 -52t30 -41l103 -72q52 -37 88.5 -74.5
t58.5 -77t32 -82t10 -88.5q0 -35 -5 -71.5t-13 -77.5zM852 1849l18 -92l57 92h252l-193 -249h-299l-86 249h251z" />
    <glyph glyph-name="Scedilla" unicode="&#x15e;" horiz-adv-x="938" 
d="M947 365q-41 -193 -158 -290.5t-323 -97.5q-173 0 -252.5 63.5t-79.5 195.5q0 63 16 139l29 138h328l-29 -138q-8 -35 3 -56t49 -21q44 0 63.5 19t24.5 51l2 13q5 32 10.5 57.5t5.5 47.5q0 23 -9 44t-34 41l-120 98q-49 40 -82 75.5t-53 69.5t-28.5 67.5t-8.5 70.5
t6.5 78t17.5 91l7 33q23 109 65 184t102 121t138 66.5t173 20.5q157 0 236.5 -57.5t79.5 -191.5q0 -59 -17 -142l-31 -144h-327l30 143q5 22 5 34q0 20 -11 29t-37 9q-34 0 -51.5 -17t-25.5 -54l-5 -25q-6 -27 -6 -57q0 -27 8 -52t30 -41l103 -72q52 -37 88.5 -74.5
t58.5 -77t32 -82t10 -88.5q0 -35 -5 -71.5t-13 -77.5zM264 -285q16 -11 32 -20.5t35.5 -17t45.5 -11.5t63 -4q21 0 40.5 4t34.5 13t24 22.5t9 31.5q0 13 -8.5 22t-22.5 15t-32 8.5t-37 2.5q-20 0 -39 -2.5t-34 -7.5l61 275h150l-26 -126q11 2 23 5q11 2 24.5 4t29.5 2
q39 0 67 -13t46 -34.5t26.5 -49t8.5 -56.5q0 -61 -26.5 -109.5t-74.5 -82t-115.5 -51t-149.5 -17.5q-41 0 -75.5 8t-63 20.5t-49.5 28.5t-35 31z" />
    <glyph glyph-name="Scircumflex" unicode="&#x15c;" horiz-adv-x="938" 
d="M947 365q-41 -193 -158 -290.5t-323 -97.5q-173 0 -252.5 63.5t-79.5 195.5q0 63 16 139l29 138h328l-29 -138q-8 -35 3 -56t49 -21q44 0 63.5 19t24.5 51l2 13q5 32 10.5 57.5t5.5 47.5q0 23 -9 44t-34 41l-120 98q-49 40 -82 75.5t-53 69.5t-28.5 67.5t-8.5 70.5
t6.5 78t17.5 91l7 33q23 109 65 184t102 121t138 66.5t173 20.5q157 0 236.5 -57.5t79.5 -191.5q0 -59 -17 -142l-31 -144h-327l30 143q5 22 5 34q0 20 -11 29t-37 9q-34 0 -51.5 -17t-25.5 -54l-5 -25q-6 -27 -6 -57q0 -27 8 -52t30 -41l103 -72q52 -37 88.5 -74.5
t58.5 -77t32 -82t10 -88.5q0 -35 -5 -71.5t-13 -77.5zM548 1600l192 249h300l86 -249h-252l-18 92l-57 -92h-251z" />
    <glyph glyph-name="Scommaaccent" unicode="&#x218;" horiz-adv-x="938" 
d="M947 365q-41 -193 -158 -290.5t-323 -97.5q-173 0 -252.5 63.5t-79.5 195.5q0 63 16 139l29 138h328l-29 -138q-8 -35 3 -56t49 -21q44 0 63.5 19t24.5 51l2 13q5 32 10.5 57.5t5.5 47.5q0 23 -9 44t-34 41l-120 98q-49 40 -82 75.5t-53 69.5t-28.5 67.5t-8.5 70.5
t6.5 78t17.5 91l7 33q23 109 65 184t102 121t138 66.5t173 20.5q157 0 236.5 -57.5t79.5 -191.5q0 -59 -17 -142l-31 -144h-327l30 143q5 22 5 34q0 20 -11 29t-37 9q-34 0 -51.5 -17t-25.5 -54l-5 -25q-6 -27 -6 -57q0 -27 8 -52t30 -41l103 -72q52 -37 88.5 -74.5
t58.5 -77t32 -82t10 -88.5q0 -35 -5 -71.5t-13 -77.5zM340 -218q0 42 9.5 72.5t30.5 51t55 30.5t84 10q63 0 93 -29.5t30 -84.5q0 -60 -16.5 -112.5t-43.5 -97t-62 -81t-73 -65.5l-99 66q24 22 40 39.5t27.5 34t19.5 34t16 39.5q-111 0 -111 93z" />
    <glyph glyph-name="Uogonek" unicode="&#x172;" horiz-adv-x="958" 
d="M1197 1522l-246 -1158q-20 -91 -55 -162.5t-92 -121.5t-138 -76.5t-192 -26.5q-89 0 -151.5 17t-101.5 49.5t-57 80t-18 108.5q0 30 4 63t12 69l246 1158h328l-246 -1159q-3 -12 -3 -23.5t5.5 -21t17 -15.5t32.5 -6t35 6t23 15.5t14 21t8 23.5l246 1159h329zM641 -399
q-68 -60 -187 -60q-48 0 -90.5 11t-74 34.5t-50 61t-18.5 90.5q0 72 30 122.5t81.5 88t121 67.5t147.5 60l106 -56q-48 -27 -84 -50.5t-60 -48.5t-36 -54t-12 -66q0 -27 13 -39.5t36 -12.5q18 0 29.5 1t21.5 4t20 7.5t24 12.5z" />
    <glyph glyph-name="Uring" unicode="&#x16e;" horiz-adv-x="958" 
d="M1197 1522l-246 -1158q-20 -91 -55 -162.5t-92 -121.5t-138 -76.5t-192 -26.5q-89 0 -151.5 17t-101.5 49.5t-57 80t-18 108.5q0 30 4 63t12 69l246 1158h328l-246 -1159q-3 -12 -3 -23.5t5.5 -21t17 -15.5t32.5 -6t35 6t23 15.5t14 21t8 23.5l246 1159h329zM598 1752
q0 72 17.5 128t55.5 94t98 58t145 20q110 0 163.5 -41.5t53.5 -132.5q0 -71 -17.5 -126.5t-55.5 -94t-98.5 -59t-146.5 -20.5q-109 0 -162 42.5t-53 131.5zM804 1800q0 -39 49 -39q40 0 55 19t15 49q0 38 -48 38q-41 0 -56 -17.5t-15 -49.5z" />
    <glyph glyph-name="Uacute" unicode="&#xda;" horiz-adv-x="958" 
d="M1197 1522l-246 -1158q-20 -91 -55 -162.5t-92 -121.5t-138 -76.5t-192 -26.5q-89 0 -151.5 17t-101.5 49.5t-57 80t-18 108.5q0 30 4 63t12 69l246 1158h328l-246 -1159q-3 -12 -3 -23.5t5.5 -21t17 -15.5t32.5 -6t35 6t23 15.5t14 21t8 23.5l246 1159h329zM1199 1894
l-264 -295h-228l195 295h297z" />
    <glyph glyph-name="Ubreve" unicode="&#x16c;" horiz-adv-x="958" 
d="M1197 1522l-246 -1158q-20 -91 -55 -162.5t-92 -121.5t-138 -76.5t-192 -26.5q-89 0 -151.5 17t-101.5 49.5t-57 80t-18 108.5q0 30 4 63t12 69l246 1158h328l-246 -1159q-3 -12 -3 -23.5t5.5 -21t17 -15.5t32.5 -6t35 6t23 15.5t14 21t8 23.5l246 1159h329zM1199 1908
q-13 -61 -40 -117t-72.5 -98.5t-111.5 -68t-156 -25.5q-74 0 -123.5 16.5t-80 45.5t-43.5 68t-13 84q0 43 11 95h174q-2 -17 -4 -31.5t-2 -28.5q0 -16 4.5 -29.5t17.5 -23.5t36 -15.5t60 -5.5q49 0 77.5 9.5t45.5 27.5t26.5 42.5t18.5 54.5h175z" />
    <glyph glyph-name="Ugrave" unicode="&#xd9;" horiz-adv-x="958" 
d="M1197 1522l-246 -1158q-20 -91 -55 -162.5t-92 -121.5t-138 -76.5t-192 -26.5q-89 0 -151.5 17t-101.5 49.5t-57 80t-18 108.5q0 30 4 63t12 69l246 1158h328l-246 -1159q-3 -12 -3 -23.5t5.5 -21t17 -15.5t32.5 -6t35 6t23 15.5t14 21t8 23.5l246 1159h329zM860 1894
l69 -295h-218l-128 295h277z" />
    <glyph glyph-name="Utilde" unicode="&#x168;" horiz-adv-x="958" 
d="M1197 1522l-246 -1158q-20 -91 -55 -162.5t-92 -121.5t-138 -76.5t-192 -26.5q-89 0 -151.5 17t-101.5 49.5t-57 80t-18 108.5q0 30 4 63t12 69l246 1158h328l-246 -1159q-3 -12 -3 -23.5t5.5 -21t17 -15.5t32.5 -6t35 6t23 15.5t14 21t8 23.5l246 1159h329zM1227 1870
q-19 -56 -47.5 -106t-66.5 -88t-87 -60t-109 -22q-35 0 -60.5 9.5t-46.5 21.5t-40 21.5t-41 9.5q-32 0 -58.5 -15t-47.5 -59l-149 43q20 53 48.5 102.5t66 87t85 60t106.5 22.5q38 0 64.5 -9.5t47.5 -21.5t39 -21.5t40 -9.5q35 0 60.5 16t44.5 58z" />
    <glyph glyph-name="Udieresis" unicode="&#xdc;" horiz-adv-x="958" 
d="M1197 1522l-246 -1158q-20 -91 -55 -162.5t-92 -121.5t-138 -76.5t-192 -26.5q-89 0 -151.5 17t-101.5 49.5t-57 80t-18 108.5q0 30 4 63t12 69l246 1158h328l-246 -1159q-3 -12 -3 -23.5t5.5 -21t17 -15.5t32.5 -6t35 6t23 15.5t14 21t8 23.5l246 1159h329zM542 1704
q0 43 9 78.5t29.5 60t54.5 38t84 13.5q59 0 88 -25t29 -79q0 -88 -40.5 -138.5t-138.5 -50.5q-59 0 -87 24.5t-28 78.5zM862 1704q0 44 9 79.5t30 60t55 37.5t83 13q60 0 88.5 -24.5t28.5 -78.5q0 -44 -9 -79t-30 -59.5t-55.5 -38t-84.5 -13.5q-58 0 -86.5 24.5t-28.5 78.5z
" />
    <glyph glyph-name="Ucircumflex" unicode="&#xdb;" horiz-adv-x="958" 
d="M1197 1522l-246 -1158q-20 -91 -55 -162.5t-92 -121.5t-138 -76.5t-192 -26.5q-89 0 -151.5 17t-101.5 49.5t-57 80t-18 108.5q0 30 4 63t12 69l246 1158h328l-246 -1159q-3 -12 -3 -23.5t5.5 -21t17 -15.5t32.5 -6t35 6t23 15.5t14 21t8 23.5l246 1159h329zM529 1600
l192 249h300l86 -249h-252l-18 92l-57 -92h-251z" />
    <glyph glyph-name="ccircumflex" unicode="&#x109;" horiz-adv-x="913" 
d="M611 406h318l-5 -25q-19 -92 -53 -166.5t-89.5 -127t-135 -81.5t-190.5 -29q-88 0 -149.5 18.5t-99.5 52.5t-55.5 83t-17.5 110q0 65 16 138l71 334q5 28 11 55t12 55q19 91 54 165.5t91.5 127.5t137 82t191.5 29q87 0 147.5 -18t98.5 -52t55 -82.5t17 -108.5
q0 -65 -18 -143l-6 -26h-318l7 32q3 12 3 27t-4.5 28t-16 22t-32.5 9t-35.5 -8.5t-24 -21t-14.5 -26.5t-8 -26l-58 -275l-39 -181q-2 -8 -3 -16.5t-1 -16.5q0 -20 10 -36t41 -16q21 0 36 9t25 21.5t16 27.5t9 27zM440 1279l192 249h300l86 -249h-252l-18 92l-57 -92h-251z
" />
    <glyph glyph-name="eacute" unicode="&#xe9;" horiz-adv-x="913" 
d="M929 406l-5 -25q-19 -92 -53 -166.5t-89.5 -127t-135 -81.5t-190.5 -29q-88 0 -149.5 18.5t-99.5 52.5t-55.5 83t-17.5 111q0 65 16 138l94 445q19 91 54 165.5t91.5 127t137 81t191.5 28.5q87 0 147.5 -18t98 -52t54.5 -82.5t17 -109.5q0 -63 -17 -142l-2 -6h1l-62 -291
l-476 -97l-11 -54q-3 -12 -3 -26t4.5 -27t16.5 -21.5t33 -8.5t36 9t25 21.5t16 27.5t9 27l6 29h318zM651 915q-21 0 -36 -9t-25.5 -21.5t-16.5 -27.5t-9 -27l-26 -123l144 33l19 89q3 12 3 27t-4.5 28t-16 22t-32.5 9zM1099 1573l-264 -295h-228l195 295h297z" />
    <glyph glyph-name="ebreve" unicode="&#x115;" horiz-adv-x="913" 
d="M929 406l-5 -25q-19 -92 -53 -166.5t-89.5 -127t-135 -81.5t-190.5 -29q-88 0 -149.5 18.5t-99.5 52.5t-55.5 83t-17.5 111q0 65 16 138l94 445q19 91 54 165.5t91.5 127t137 81t191.5 28.5q87 0 147.5 -18t98 -52t54.5 -82.5t17 -109.5q0 -63 -17 -142l-2 -6h1l-62 -291
l-476 -97l-11 -54q-3 -12 -3 -26t4.5 -27t16.5 -21.5t33 -8.5t36 9t25 21.5t16 27.5t9 27l6 29h318zM651 915q-21 0 -36 -9t-25.5 -21.5t-16.5 -27.5t-9 -27l-26 -123l144 33l19 89q3 12 3 27t-4.5 28t-16 22t-32.5 9zM1109 1587q-13 -61 -40 -117t-72.5 -98.5t-111.5 -68
t-156 -25.5q-74 0 -123.5 16.5t-80 45.5t-43.5 68t-13 84q0 43 11 95h174q-2 -17 -4 -31.5t-2 -28.5q0 -16 4.5 -29.5t17.5 -23.5t36 -15.5t60 -5.5q49 0 77.5 9.5t45.5 27.5t26.5 42.5t18.5 54.5h175z" />
    <glyph glyph-name="ecaron" unicode="&#x11b;" horiz-adv-x="913" 
d="M929 406l-5 -25q-19 -92 -53 -166.5t-89.5 -127t-135 -81.5t-190.5 -29q-88 0 -149.5 18.5t-99.5 52.5t-55.5 83t-17.5 111q0 65 16 138l94 445q19 91 54 165.5t91.5 127t137 81t191.5 28.5q87 0 147.5 -18t98 -52t54.5 -82.5t17 -109.5q0 -63 -17 -142l-2 -6h1l-62 -291
l-476 -97l-11 -54q-3 -12 -3 -26t4.5 -27t16.5 -21.5t33 -8.5t36 9t25 21.5t16 27.5t9 27l6 29h318zM651 915q-21 0 -36 -9t-25.5 -21.5t-16.5 -27.5t-9 -27l-26 -123l144 33l19 89q3 12 3 27t-4.5 28t-16 22t-32.5 9zM744 1528l18 -92l57 92h252l-193 -249h-299l-86 249
h251z" />
    <glyph glyph-name="ecircumflex" unicode="&#xea;" horiz-adv-x="913" 
d="M929 406l-5 -25q-19 -92 -53 -166.5t-89.5 -127t-135 -81.5t-190.5 -29q-88 0 -149.5 18.5t-99.5 52.5t-55.5 83t-17.5 111q0 65 16 138l94 445q19 91 54 165.5t91.5 127t137 81t191.5 28.5q87 0 147.5 -18t98 -52t54.5 -82.5t17 -109.5q0 -63 -17 -142l-2 -6h1l-62 -291
l-476 -97l-11 -54q-3 -12 -3 -26t4.5 -27t16.5 -21.5t33 -8.5t36 9t25 21.5t16 27.5t9 27l6 29h318zM651 915q-21 0 -36 -9t-25.5 -21.5t-16.5 -27.5t-9 -27l-26 -123l144 33l19 89q3 12 3 27t-4.5 28t-16 22t-32.5 9zM440 1279l192 249h300l86 -249h-252l-18 92l-57 -92
h-251z" />
    <glyph glyph-name="edieresis" unicode="&#xeb;" horiz-adv-x="913" 
d="M929 406l-5 -25q-19 -92 -53 -166.5t-89.5 -127t-135 -81.5t-190.5 -29q-88 0 -149.5 18.5t-99.5 52.5t-55.5 83t-17.5 111q0 65 16 138l94 445q19 91 54 165.5t91.5 127t137 81t191.5 28.5q87 0 147.5 -18t98 -52t54.5 -82.5t17 -109.5q0 -63 -17 -142l-2 -6h1l-62 -291
l-476 -97l-11 -54q-3 -12 -3 -26t4.5 -27t16.5 -21.5t33 -8.5t36 9t25 21.5t16 27.5t9 27l6 29h318zM651 915q-21 0 -36 -9t-25.5 -21.5t-16.5 -27.5t-9 -27l-26 -123l144 33l19 89q3 12 3 27t-4.5 28t-16 22t-32.5 9zM453 1383q0 43 9 78.5t29.5 60t54.5 38t84 13.5
q59 0 88 -25t29 -79q0 -88 -40.5 -138.5t-138.5 -50.5q-59 0 -87 24.5t-28 78.5zM773 1383q0 44 9 79.5t30 60t55 37.5t83 13q60 0 88.5 -24.5t28.5 -78.5q0 -44 -9 -79t-30 -59.5t-55.5 -38t-84.5 -13.5q-58 0 -86.5 24.5t-28.5 78.5z" />
    <glyph glyph-name="edotaccent" unicode="&#x117;" horiz-adv-x="913" 
d="M929 406l-5 -25q-19 -92 -53 -166.5t-89.5 -127t-135 -81.5t-190.5 -29q-88 0 -149.5 18.5t-99.5 52.5t-55.5 83t-17.5 111q0 65 16 138l94 445q19 91 54 165.5t91.5 127t137 81t191.5 28.5q87 0 147.5 -18t98 -52t54.5 -82.5t17 -109.5q0 -63 -17 -142l-2 -6h1l-62 -291
l-476 -97l-11 -54q-3 -12 -3 -26t4.5 -27t16.5 -21.5t33 -8.5t36 9t25 21.5t16 27.5t9 27l6 29h318zM651 915q-21 0 -36 -9t-25.5 -21.5t-16.5 -27.5t-9 -27l-26 -123l144 33l19 89q3 12 3 27t-4.5 28t-16 22t-32.5 9zM563 1365q0 104 52.5 160.5t175.5 56.5q80 0 119 -30
t39 -96q0 -103 -53.5 -159.5t-177.5 -56.5q-155 0 -155 125z" />
    <glyph glyph-name="egrave" unicode="&#xe8;" horiz-adv-x="913" 
d="M929 406l-5 -25q-19 -92 -53 -166.5t-89.5 -127t-135 -81.5t-190.5 -29q-88 0 -149.5 18.5t-99.5 52.5t-55.5 83t-17.5 111q0 65 16 138l94 445q19 91 54 165.5t91.5 127t137 81t191.5 28.5q87 0 147.5 -18t98 -52t54.5 -82.5t17 -109.5q0 -63 -17 -142l-2 -6h1l-62 -291
l-476 -97l-11 -54q-3 -12 -3 -26t4.5 -27t16.5 -21.5t33 -8.5t36 9t25 21.5t16 27.5t9 27l6 29h318zM651 915q-21 0 -36 -9t-25.5 -21.5t-16.5 -27.5t-9 -27l-26 -123l144 33l19 89q3 12 3 27t-4.5 28t-16 22t-32.5 9zM785 1573l69 -295h-218l-128 295h277z" />
    <glyph glyph-name="emacron" unicode="&#x113;" horiz-adv-x="913" 
d="M929 406l-5 -25q-19 -92 -53 -166.5t-89.5 -127t-135 -81.5t-190.5 -29q-88 0 -149.5 18.5t-99.5 52.5t-55.5 83t-17.5 111q0 65 16 138l94 445q19 91 54 165.5t91.5 127t137 81t191.5 28.5q87 0 147.5 -18t98 -52t54.5 -82.5t17 -109.5q0 -63 -17 -142l-2 -6h1l-62 -291
l-476 -97l-11 -54q-3 -12 -3 -26t4.5 -27t16.5 -21.5t33 -8.5t36 9t25 21.5t16 27.5t9 27l6 29h318zM651 915q-21 0 -36 -9t-25.5 -21.5t-16.5 -27.5t-9 -27l-26 -123l144 33l19 89q3 12 3 27t-4.5 28t-16 22t-32.5 9zM470 1309l50 236h530l-50 -236h-530z" />
    <glyph glyph-name="eogonek" unicode="&#x119;" horiz-adv-x="913" 
d="M929 406l-5 -25q-19 -92 -53 -166.5t-89.5 -127t-135 -81.5t-190.5 -29q-88 0 -149.5 18.5t-99.5 52.5t-55.5 83t-17.5 111q0 65 16 138l94 445q19 91 54 165.5t91.5 127t137 81t191.5 28.5q87 0 147.5 -18t98 -52t54.5 -82.5t17 -109.5q0 -63 -17 -142l-2 -6h1l-62 -291
l-476 -97l-11 -54q-3 -12 -3 -26t4.5 -27t16.5 -21.5t33 -8.5t36 9t25 21.5t16 27.5t9 27l6 29h318zM651 915q-21 0 -36 -9t-25.5 -21.5t-16.5 -27.5t-9 -27l-26 -123l144 33l19 89q3 12 3 27t-4.5 28t-16 22t-32.5 9zM666 -372q-68 -60 -187 -60q-48 0 -90.5 11t-74 34.5
t-50 61t-18.5 90.5q0 72 30 122.5t81.5 88t121 67.5t147.5 60l106 -56q-48 -27 -84 -50.5t-60 -48.5t-36 -54t-12 -66q0 -27 13 -39.5t36 -12.5q18 0 29.5 1t21.5 4t20 7.5t24 12.5z" />
    <glyph glyph-name="oacute" unicode="&#xf3;" horiz-adv-x="912" 
d="M244 825q19 91 54 165.5t91.5 127t137 81t191.5 28.5q87 0 147.5 -18t98.5 -52t55 -82.5t17 -109.5q0 -63 -17 -140l-95 -446q-20 -91 -54 -165.5t-89 -127t-134.5 -81t-190.5 -28.5q-88 0 -149.5 18.5t-99.5 52.5t-55.5 83t-17.5 111q0 32 4 66t12 71zM651 915
q-21 0 -35.5 -8.5t-24 -21t-14.5 -27t-8 -26.5l-98 -459q-2 -7 -3 -14t-1 -15q0 -20 10.5 -36t41.5 -16q21 0 35 8.5t23.5 20.5t14.5 26t8 26l97 460q2 7 3 14.5t1 15.5q0 20 -10 36t-40 16zM1101 1573l-264 -295h-228l195 295h297z" />
    <glyph glyph-name="obreve" unicode="&#x14f;" horiz-adv-x="912" 
d="M244 825q19 91 54 165.5t91.5 127t137 81t191.5 28.5q87 0 147.5 -18t98.5 -52t55 -82.5t17 -109.5q0 -63 -17 -140l-95 -446q-20 -91 -54 -165.5t-89 -127t-134.5 -81t-190.5 -28.5q-88 0 -149.5 18.5t-99.5 52.5t-55.5 83t-17.5 111q0 32 4 66t12 71zM651 915
q-21 0 -35.5 -8.5t-24 -21t-14.5 -27t-8 -26.5l-98 -459q-2 -7 -3 -14t-1 -15q0 -20 10.5 -36t41.5 -16q21 0 35 8.5t23.5 20.5t14.5 26t8 26l97 460q2 7 3 14.5t1 15.5q0 20 -10 36t-40 16zM1104 1587q-13 -61 -40 -117t-72.5 -98.5t-111.5 -68t-156 -25.5
q-74 0 -123.5 16.5t-80 45.5t-43.5 68t-13 84q0 43 11 95h174q-2 -17 -4 -31.5t-2 -28.5q0 -16 4.5 -29.5t17.5 -23.5t36 -15.5t60 -5.5q49 0 77.5 9.5t45.5 27.5t26.5 42.5t18.5 54.5h175z" />
    <glyph glyph-name="ocircumflex" unicode="&#xf4;" horiz-adv-x="912" 
d="M244 825q19 91 54 165.5t91.5 127t137 81t191.5 28.5q87 0 147.5 -18t98.5 -52t55 -82.5t17 -109.5q0 -63 -17 -140l-95 -446q-20 -91 -54 -165.5t-89 -127t-134.5 -81t-190.5 -28.5q-88 0 -149.5 18.5t-99.5 52.5t-55.5 83t-17.5 111q0 32 4 66t12 71zM651 915
q-21 0 -35.5 -8.5t-24 -21t-14.5 -27t-8 -26.5l-98 -459q-2 -7 -3 -14t-1 -15q0 -20 10.5 -36t41.5 -16q21 0 35 8.5t23.5 20.5t14.5 26t8 26l97 460q2 7 3 14.5t1 15.5q0 20 -10 36t-40 16zM436 1279l192 249h300l86 -249h-252l-18 92l-57 -92h-251z" />
    <glyph glyph-name="odieresis" unicode="&#xf6;" horiz-adv-x="912" 
d="M244 825q19 91 54 165.5t91.5 127t137 81t191.5 28.5q87 0 147.5 -18t98.5 -52t55 -82.5t17 -109.5q0 -63 -17 -140l-95 -446q-20 -91 -54 -165.5t-89 -127t-134.5 -81t-190.5 -28.5q-88 0 -149.5 18.5t-99.5 52.5t-55.5 83t-17.5 111q0 32 4 66t12 71zM651 915
q-21 0 -35.5 -8.5t-24 -21t-14.5 -27t-8 -26.5l-98 -459q-2 -7 -3 -14t-1 -15q0 -20 10.5 -36t41.5 -16q21 0 35 8.5t23.5 20.5t14.5 26t8 26l97 460q2 7 3 14.5t1 15.5q0 20 -10 36t-40 16zM449 1383q0 43 9 78.5t29.5 60t54.5 38t84 13.5q59 0 88 -25t29 -79
q0 -88 -40.5 -138.5t-138.5 -50.5q-59 0 -87 24.5t-28 78.5zM769 1383q0 44 9 79.5t30 60t55 37.5t83 13q60 0 88.5 -24.5t28.5 -78.5q0 -44 -9 -79t-30 -59.5t-55.5 -38t-84.5 -13.5q-58 0 -86.5 24.5t-28.5 78.5z" />
    <glyph glyph-name="ograve" unicode="&#xf2;" horiz-adv-x="912" 
d="M244 825q19 91 54 165.5t91.5 127t137 81t191.5 28.5q87 0 147.5 -18t98.5 -52t55 -82.5t17 -109.5q0 -63 -17 -140l-95 -446q-20 -91 -54 -165.5t-89 -127t-134.5 -81t-190.5 -28.5q-88 0 -149.5 18.5t-99.5 52.5t-55.5 83t-17.5 111q0 32 4 66t12 71zM651 915
q-21 0 -35.5 -8.5t-24 -21t-14.5 -27t-8 -26.5l-98 -459q-2 -7 -3 -14t-1 -15q0 -20 10.5 -36t41.5 -16q21 0 35 8.5t23.5 20.5t14.5 26t8 26l97 460q2 7 3 14.5t1 15.5q0 20 -10 36t-40 16zM770 1573l69 -295h-218l-128 295h277z" />
    <glyph glyph-name="ohungarumlaut" unicode="&#x151;" horiz-adv-x="912" 
d="M244 825q19 91 54 165.5t91.5 127t137 81t191.5 28.5q87 0 147.5 -18t98.5 -52t55 -82.5t17 -109.5q0 -63 -17 -140l-95 -446q-20 -91 -54 -165.5t-89 -127t-134.5 -81t-190.5 -28.5q-88 0 -149.5 18.5t-99.5 52.5t-55.5 83t-17.5 111q0 32 4 66t12 71zM651 915
q-21 0 -35.5 -8.5t-24 -21t-14.5 -27t-8 -26.5l-98 -459q-2 -7 -3 -14t-1 -15q0 -20 10.5 -36t41.5 -16q21 0 35 8.5t23.5 20.5t14.5 26t8 26l97 460q2 7 3 14.5t1 15.5q0 20 -10 36t-40 16zM899 1573l-254 -295h-218l195 295h277zM1212 1573l-254 -295h-218l195 295h277z
" />
    <glyph glyph-name="omacron" unicode="&#x14d;" horiz-adv-x="912" 
d="M244 825q19 91 54 165.5t91.5 127t137 81t191.5 28.5q87 0 147.5 -18t98.5 -52t55 -82.5t17 -109.5q0 -63 -17 -140l-95 -446q-20 -91 -54 -165.5t-89 -127t-134.5 -81t-190.5 -28.5q-88 0 -149.5 18.5t-99.5 52.5t-55.5 83t-17.5 111q0 32 4 66t12 71zM651 915
q-21 0 -35.5 -8.5t-24 -21t-14.5 -27t-8 -26.5l-98 -459q-2 -7 -3 -14t-1 -15q0 -20 10.5 -36t41.5 -16q21 0 35 8.5t23.5 20.5t14.5 26t8 26l97 460q2 7 3 14.5t1 15.5q0 20 -10 36t-40 16zM466 1309l50 236h530l-50 -236h-530z" />
    <glyph glyph-name="otilde" unicode="&#xf5;" horiz-adv-x="912" 
d="M244 825q19 91 54 165.5t91.5 127t137 81t191.5 28.5q87 0 147.5 -18t98.5 -52t55 -82.5t17 -109.5q0 -63 -17 -140l-95 -446q-20 -91 -54 -165.5t-89 -127t-134.5 -81t-190.5 -28.5q-88 0 -149.5 18.5t-99.5 52.5t-55.5 83t-17.5 111q0 32 4 66t12 71zM651 915
q-21 0 -35.5 -8.5t-24 -21t-14.5 -27t-8 -26.5l-98 -459q-2 -7 -3 -14t-1 -15q0 -20 10.5 -36t41.5 -16q21 0 35 8.5t23.5 20.5t14.5 26t8 26l97 460q2 7 3 14.5t1 15.5q0 20 -10 36t-40 16zM1131 1549q-19 -56 -47.5 -106t-66.5 -88t-87 -60t-109 -22q-35 0 -60.5 9.5
t-46.5 21.5t-40 21.5t-41 9.5q-32 0 -58.5 -15t-47.5 -59l-149 43q20 53 48.5 102.5t66 87t85 60t106.5 22.5q38 0 64.5 -9.5t47.5 -21.5t39 -21.5t40 -9.5q35 0 60.5 16t44.5 58z" />
    <glyph glyph-name="aogonek" unicode="&#x105;" horiz-adv-x="932" 
d="M529 0l22 106q-33 -57 -75.5 -93t-99.5 -36q-65 0 -110 16t-73.5 46.5t-41.5 74.5t-13 99q0 38 5.5 79.5t15.5 87.5l94 445q21 101 51.5 176.5t76 125.5t108.5 75t150 25q57 0 85.5 -37.5t36.5 -97.5l24 110h320l-256 -1202h-320zM518 289q19 0 34.5 9t27 22.5t19 29.5
t11.5 31l94 443q3 15 3 35q0 22 -8 39.5t-34 17.5q-21 0 -36.5 -9t-26.5 -22t-17 -28t-9 -27l-97 -459q-3 -14 -5 -25.5t-2 -21.5q0 -17 9.5 -26t36.5 -9zM781 -419q-68 -60 -187 -60q-48 0 -90.5 11t-74 34.5t-50 61t-18.5 90.5q0 72 30 122.5t81.5 88t121 67.5t147.5 60
l106 -56q-48 -27 -84 -50.5t-60 -48.5t-36 -54t-12 -66q0 -27 13 -39.5t36 -12.5q18 0 29.5 1t21.5 4t20 7.5t24 12.5z" />
    <glyph glyph-name="aring" unicode="&#xe5;" horiz-adv-x="932" 
d="M529 0l22 106q-33 -57 -75.5 -93t-99.5 -36q-65 0 -110 16t-73.5 46.5t-41.5 74.5t-13 99q0 38 5.5 79.5t15.5 87.5l94 445q21 101 51.5 176.5t76 125.5t108.5 75t150 25q57 0 85.5 -37.5t36.5 -97.5l24 110h320l-256 -1202h-320zM518 289q19 0 34.5 9t27 22.5t19 29.5
t11.5 31l94 443q3 15 3 35q0 22 -8 39.5t-34 17.5q-21 0 -36.5 -9t-26.5 -22t-17 -28t-9 -27l-97 -459q-3 -14 -5 -25.5t-2 -21.5q0 -17 9.5 -26t36.5 -9zM530 1431q0 72 17.5 128t55.5 94t98 58t145 20q110 0 163.5 -41.5t53.5 -132.5q0 -71 -17.5 -126.5t-55.5 -94
t-98.5 -59t-146.5 -20.5q-109 0 -162 42.5t-53 131.5zM736 1479q0 -39 49 -39q40 0 55 19t15 49q0 38 -48 38q-41 0 -56 -17.5t-15 -49.5z" />
    <glyph glyph-name="agrave" unicode="&#xe0;" horiz-adv-x="932" 
d="M529 0l22 106q-33 -57 -75.5 -93t-99.5 -36q-65 0 -110 16t-73.5 46.5t-41.5 74.5t-13 99q0 38 5.5 79.5t15.5 87.5l94 445q21 101 51.5 176.5t76 125.5t108.5 75t150 25q57 0 85.5 -37.5t36.5 -97.5l24 110h320l-256 -1202h-320zM518 289q19 0 34.5 9t27 22.5t19 29.5
t11.5 31l94 443q3 15 3 35q0 22 -8 39.5t-34 17.5q-21 0 -36.5 -9t-26.5 -22t-17 -28t-9 -27l-97 -459q-3 -14 -5 -25.5t-2 -21.5q0 -17 9.5 -26t36.5 -9zM777 1573l69 -295h-218l-128 295h277z" />
    <glyph glyph-name="atilde" unicode="&#xe3;" horiz-adv-x="932" 
d="M529 0l22 106q-33 -57 -75.5 -93t-99.5 -36q-65 0 -110 16t-73.5 46.5t-41.5 74.5t-13 99q0 38 5.5 79.5t15.5 87.5l94 445q21 101 51.5 176.5t76 125.5t108.5 75t150 25q57 0 85.5 -37.5t36.5 -97.5l24 110h320l-256 -1202h-320zM518 289q19 0 34.5 9t27 22.5t19 29.5
t11.5 31l94 443q3 15 3 35q0 22 -8 39.5t-34 17.5q-21 0 -36.5 -9t-26.5 -22t-17 -28t-9 -27l-97 -459q-3 -14 -5 -25.5t-2 -21.5q0 -17 9.5 -26t36.5 -9zM1158 1549q-19 -56 -47.5 -106t-66.5 -88t-87 -60t-109 -22q-35 0 -60.5 9.5t-46.5 21.5t-40 21.5t-41 9.5
q-32 0 -58.5 -15t-47.5 -59l-149 43q20 53 48.5 102.5t66 87t85 60t106.5 22.5q38 0 64.5 -9.5t47.5 -21.5t39 -21.5t40 -9.5q35 0 60.5 16t44.5 58z" />
    <glyph glyph-name="amacron" unicode="&#x101;" horiz-adv-x="932" 
d="M529 0l22 106q-33 -57 -75.5 -93t-99.5 -36q-65 0 -110 16t-73.5 46.5t-41.5 74.5t-13 99q0 38 5.5 79.5t15.5 87.5l94 445q21 101 51.5 176.5t76 125.5t108.5 75t150 25q57 0 85.5 -37.5t36.5 -97.5l24 110h320l-256 -1202h-320zM518 289q19 0 34.5 9t27 22.5t19 29.5
t11.5 31l94 443q3 15 3 35q0 22 -8 39.5t-34 17.5q-21 0 -36.5 -9t-26.5 -22t-17 -28t-9 -27l-97 -459q-3 -14 -5 -25.5t-2 -21.5q0 -17 9.5 -26t36.5 -9zM491 1309l50 236h530l-50 -236h-530z" />
    <glyph glyph-name="adieresis" unicode="&#xe4;" horiz-adv-x="932" 
d="M529 0l22 106q-33 -57 -75.5 -93t-99.5 -36q-65 0 -110 16t-73.5 46.5t-41.5 74.5t-13 99q0 38 5.5 79.5t15.5 87.5l94 445q21 101 51.5 176.5t76 125.5t108.5 75t150 25q57 0 85.5 -37.5t36.5 -97.5l24 110h320l-256 -1202h-320zM518 289q19 0 34.5 9t27 22.5t19 29.5
t11.5 31l94 443q3 15 3 35q0 22 -8 39.5t-34 17.5q-21 0 -36.5 -9t-26.5 -22t-17 -28t-9 -27l-97 -459q-3 -14 -5 -25.5t-2 -21.5q0 -17 9.5 -26t36.5 -9zM474 1383q0 43 9 78.5t29.5 60t54.5 38t84 13.5q59 0 88 -25t29 -79q0 -88 -40.5 -138.5t-138.5 -50.5
q-59 0 -87 24.5t-28 78.5zM794 1383q0 44 9 79.5t30 60t55 37.5t83 13q60 0 88.5 -24.5t28.5 -78.5q0 -44 -9 -79t-30 -59.5t-55.5 -38t-84.5 -13.5q-58 0 -86.5 24.5t-28.5 78.5z" />
    <glyph glyph-name="acircumflex" unicode="&#xe2;" horiz-adv-x="932" 
d="M529 0l22 106q-33 -57 -75.5 -93t-99.5 -36q-65 0 -110 16t-73.5 46.5t-41.5 74.5t-13 99q0 38 5.5 79.5t15.5 87.5l94 445q21 101 51.5 176.5t76 125.5t108.5 75t150 25q57 0 85.5 -37.5t36.5 -97.5l24 110h320l-256 -1202h-320zM518 289q19 0 34.5 9t27 22.5t19 29.5
t11.5 31l94 443q3 15 3 35q0 22 -8 39.5t-34 17.5q-21 0 -36.5 -9t-26.5 -22t-17 -28t-9 -27l-97 -459q-3 -14 -5 -25.5t-2 -21.5q0 -17 9.5 -26t36.5 -9zM461 1279l192 249h300l86 -249h-252l-18 92l-57 -92h-251z" />
    <glyph glyph-name="e.fat" horiz-adv-x="897" 
d="M236 825q19 91 54 165.5t91.5 127t137 81t191.5 28.5q87 0 147.5 -18t98.5 -52t55 -82.5t17 -109.5q0 -62 -17 -141l-42 -195l-47 -223h-1l-5 -25q-20 -91 -54 -165.5t-89 -127.5t-134.5 -82t-190.5 -29q-88 0 -149.5 18.5t-99.5 52.5t-55.5 83t-17.5 111q0 65 16 138z
M643 915q-21 0 -36 -9t-25.5 -21.5t-16.5 -27.5t-9 -27l-26 -123l144 33l19 89q3 12 3 27t-4.5 28t-16 22t-32.5 9zM511 292q21 0 35.5 9t25 21.5t16 27t8.5 26.5l17 82l-142 -29l-11 -54q-3 -12 -3 -26t4.5 -27t16.5 -21.5t33 -8.5z" />
    <glyph glyph-name="ibreve" unicode="&#x12d;" horiz-adv-x="490" 
d="M84 0l255 1202h323l-256 -1202h-322zM898 1587q-13 -61 -40 -117t-72.5 -98.5t-111.5 -68t-156 -25.5q-74 0 -123.5 16.5t-80 45.5t-43.5 68t-13 84q0 43 11 95h174q-2 -17 -4 -31.5t-2 -28.5q0 -16 4.5 -29.5t17.5 -23.5t36 -15.5t60 -5.5q49 0 77.5 9.5t45.5 27.5
t26.5 42.5t18.5 54.5h175z" />
    <glyph glyph-name="icircumflex" unicode="&#xee;" horiz-adv-x="490" 
d="M84 0l255 1202h323l-256 -1202h-322zM228 1279l192 249h300l86 -249h-252l-18 92l-57 -92h-251z" />
    <glyph glyph-name="idieresis" unicode="&#xef;" horiz-adv-x="490" 
d="M84 0l255 1202h323l-256 -1202h-322zM241 1383q0 43 9 78.5t29.5 60t54.5 38t84 13.5q59 0 88 -25t29 -79q0 -88 -40.5 -138.5t-138.5 -50.5q-59 0 -87 24.5t-28 78.5zM561 1383q0 44 9 79.5t30 60t55 37.5t83 13q60 0 88.5 -24.5t28.5 -78.5q0 -44 -9 -79t-30 -59.5
t-55.5 -38t-84.5 -13.5q-58 0 -86.5 24.5t-28.5 78.5z" />
    <glyph glyph-name="igrave" unicode="&#xec;" horiz-adv-x="490" 
d="M84 0l255 1202h323l-256 -1202h-322zM557 1573l69 -295h-218l-128 295h277z" />
    <glyph glyph-name="ij" unicode="&#x133;" horiz-adv-x="996" 
d="M351 1390q0 94 52.5 143.5t171.5 49.5q81 0 120 -28t39 -88q0 -93 -51.5 -143t-172.5 -50q-159 0 -159 116zM80 0l256 1202h322l-256 -1202h-322zM836 1390q0 94 52.5 143.5t171.5 49.5q160 0 160 -116q0 -93 -52 -143t-173 -50q-159 0 -159 116zM1143 1202l-257 -1210
q-18 -86 -47.5 -159t-76.5 -126t-115 -83t-164 -30q-43 0 -77 7t-60.5 18.5t-47 26.5t-36.5 31l74 270l21 -14t29.5 -15.5t42 -12.5t59.5 -5q55 0 75 92l257 1210h323z" />
    <glyph glyph-name="imacron" unicode="&#x12b;" horiz-adv-x="490" 
d="M84 0l255 1202h323l-256 -1202h-322zM258 1309l50 236h530l-50 -236h-530z" />
    <glyph glyph-name="iogonek" unicode="&#x12f;" horiz-adv-x="489" 
d="M354 1390q0 94 52.5 143.5t171.5 49.5q81 0 120 -28t39 -88q0 -93 -51.5 -143t-172.5 -50q-159 0 -159 116zM83 0l256 1202h322l-256 -1202h-322zM340 -419q-68 -60 -187 -60q-48 0 -90.5 11t-74 34.5t-50 61t-18.5 90.5q0 72 30 122.5t81.5 88t121 67.5t147.5 60
l106 -56q-48 -27 -84 -50.5t-60 -48.5t-36 -54t-12 -66q0 -27 13 -39.5t36 -12.5q18 0 29.5 1t21.5 4t20 7.5t24 12.5z" />
    <glyph glyph-name="itilde" unicode="&#x129;" horiz-adv-x="490" 
d="M84 0l255 1202h323l-256 -1202h-322zM924 1549q-19 -56 -47.5 -106t-66.5 -88t-87 -60t-109 -22q-35 0 -60.5 9.5t-46.5 21.5t-40 21.5t-41 9.5q-32 0 -58.5 -15t-47.5 -59l-149 43q20 53 48.5 102.5t66 87t85 60t106.5 22.5q38 0 64.5 -9.5t47.5 -21.5t39 -21.5t40 -9.5
q35 0 60.5 16t44.5 58z" />
    <glyph glyph-name="jcircumflex" unicode="&#x135;" horiz-adv-x="492" 
d="M224 1279l192 249h300l86 -249h-252l-18 92l-57 -92h-251zM661 1202l-257 -1210q-18 -86 -47.5 -159t-76.5 -126t-114.5 -83t-163.5 -30q-43 0 -77 7t-60.5 18.5t-47 26.5t-36.5 31l74 270l21 -14t29.5 -15.5t42 -12.5t59.5 -5q54 0 74 92l257 1210h323z" />
    <glyph glyph-name="nacute" unicode="&#x144;" horiz-adv-x="940" 
d="M533 0l177 832q2 7 3 14t1 15q0 20 -10.5 36t-40.5 16q-21 0 -36 -11.5t-25.5 -28t-16 -33.5t-8.5 -29l-172 -811h-321l255 1202h321l-20 -96q19 25 44 47t53.5 38t58 25t57.5 9q56 0 94.5 -14t62.5 -41t34.5 -65.5t10.5 -87.5q0 -42 -7 -90.5t-18 -102.5l-175 -824h-322
zM1113 1573l-264 -295h-228l195 295h297z" />
    <glyph glyph-name="ncaron" unicode="&#x148;" horiz-adv-x="940" 
d="M533 0l177 832q2 7 3 14t1 15q0 20 -10.5 36t-40.5 16q-21 0 -36 -11.5t-25.5 -28t-16 -33.5t-8.5 -29l-172 -811h-321l255 1202h321l-20 -96q19 25 44 47t53.5 38t58 25t57.5 9q56 0 94.5 -14t62.5 -41t34.5 -65.5t10.5 -87.5q0 -42 -7 -90.5t-18 -102.5l-175 -824h-322
zM747 1528l18 -92l57 92h252l-193 -249h-299l-86 249h251z" />
    <glyph glyph-name="ntilde" unicode="&#xf1;" horiz-adv-x="940" 
d="M533 0l177 832q2 7 3 14t1 15q0 20 -10.5 36t-40.5 16q-21 0 -36 -11.5t-25.5 -28t-16 -33.5t-8.5 -29l-172 -811h-321l255 1202h321l-20 -96q19 25 44 47t53.5 38t58 25t57.5 9q56 0 94.5 -14t62.5 -41t34.5 -65.5t10.5 -87.5q0 -42 -7 -90.5t-18 -102.5l-175 -824h-322
zM1159 1549q-19 -56 -47.5 -106t-66.5 -88t-87 -60t-109 -22q-35 0 -60.5 9.5t-46.5 21.5t-40 21.5t-41 9.5q-32 0 -58.5 -15t-47.5 -59l-149 43q20 53 48.5 102.5t66 87t85 60t106.5 22.5q38 0 64.5 -9.5t47.5 -21.5t39 -21.5t40 -9.5q35 0 60.5 16t44.5 58z" />
    <glyph glyph-name="napostrophe" unicode="&#x149;" horiz-adv-x="1259" 
d="M874 0l177 832q2 7 3 14t1 15q0 20 -10.5 36t-40.5 16q-21 0 -36 -11.5t-25.5 -28t-16 -33.5t-8.5 -29l-172 -811h-321l255 1202h321l-20 -96q19 25 44 47t53.5 38t58 25t57.5 9q56 0 94.5 -14t62.5 -41t34.5 -65.5t10.5 -87.5q0 -42 -7 -90.5t-18 -102.5l-175 -824h-322
zM282 1063q0 42 9.5 72.5t30.5 51t55 30.5t84 10q63 0 93 -29.5t30 -84.5q0 -60 -16.5 -112.5t-43.5 -97t-62 -81t-73 -65.5l-99 66q24 22 40 39.5t27.5 34t19.5 34t16 39.5q-111 0 -111 93z" />
    <glyph glyph-name="ncommaaccent" unicode="&#x146;" horiz-adv-x="940" 
d="M533 0l177 832q2 7 3 14t1 15q0 20 -10.5 36t-40.5 16q-21 0 -36 -11.5t-25.5 -28t-16 -33.5t-8.5 -29l-172 -811h-321l255 1202h321l-20 -96q19 25 44 47t53.5 38t58 25t57.5 9q56 0 94.5 -14t62.5 -41t34.5 -65.5t10.5 -87.5q0 -42 -7 -90.5t-18 -102.5l-175 -824h-322
zM292 -218q0 42 9.5 72.5t30.5 51t55 30.5t84 10q63 0 93 -29.5t30 -84.5q0 -60 -16.5 -112.5t-43.5 -97t-62 -81t-73 -65.5l-99 66q24 22 40 39.5t27.5 34t19.5 34t16 39.5q-111 0 -111 93z" />
    <glyph glyph-name="iotadieresistonos" unicode="&#x390;" horiz-adv-x="490" 
d="M84 0l255 1202h323l-256 -1202h-322zM740 1718l-101 -295h-188l32 295h257zM127 1362q0 43 9 78.5t29.5 60t54.5 38t84 13.5q59 0 88 -25t29 -79q0 -88 -40.5 -138.5t-138.5 -50.5q-59 0 -87 24.5t-28 78.5zM657 1362q0 44 9 79.5t30 60t55 37.5t83 13q60 0 88.5 -24.5
t28.5 -78.5q0 -44 -9 -79t-30 -59.5t-55.5 -38t-85.5 -13.5q-58 0 -86 24.5t-28 78.5z" />
    <glyph glyph-name="iotatonos" unicode="&#x3af;" horiz-adv-x="490" 
d="M84 0l255 1202h323l-256 -1202h-322zM740 1603l-101 -295h-198l32 295h267z" />
    <glyph glyph-name="upsilondieresistonos" unicode="&#x3b0;" horiz-adv-x="907" 
d="M1113 1202l-178 -838q-20 -91 -55 -162.5t-92 -121.5t-138 -76.5t-192 -26.5q-89 0 -151.5 17t-101.5 49.5t-57 80t-18 108.5q0 30 4 63t12 69l178 838h328l-178 -839q-3 -12 -3 -23.5t5.5 -21t17 -15.5t32.5 -6h1q21 0 35 6t23 15.5t14 21t8 23.5l178 839h328zM965 1718
l-101 -295h-188l32 295h257zM352 1362q0 43 9 78.5t29.5 60t54.5 38t84 13.5q59 0 88 -25t29 -79q0 -88 -40.5 -138.5t-138.5 -50.5q-59 0 -87 24.5t-28 78.5zM882 1362q0 44 9 79.5t30 60t55 37.5t83 13q60 0 88.5 -24.5t28.5 -78.5q0 -44 -9 -79t-30 -59.5t-55.5 -38
t-85.5 -13.5q-58 0 -86 24.5t-28 78.5z" />
    <glyph glyph-name="afii10075" unicode="&#x439;" horiz-adv-x="953" 
d="M547 0l85 400l-219 -397v-3h-329l255 1202h330l-82 -382l214 376l1 6h29l243 2l-1 -2h58l-255 -1202h-329zM1145 1587q-13 -61 -40 -117t-72 -98.5t-111 -68t-157 -25.5q-74 0 -124 16.5t-80 45.5t-43 68t-13 84t11 95h175q-2 -17 -4 -31.5t-2 -28.5q0 -16 4.5 -29.5
t17.5 -23.5t36 -15.5t60 -5.5q49 0 77.5 9.5t45.5 27.5t26.5 42.5t18.5 54.5h174z" />
    <glyph glyph-name="kcommaaccent" unicode="&#x137;" horiz-adv-x="930" 
d="M738 1569l-171 -800h56l207 433h324l-317 -602l86 -600h-355l-20 449h-49l-95 -449h-321l334 1569h321zM275 -218q0 42 9.5 72.5t30.5 51t55 30.5t84 10q63 0 93 -29.5t30 -84.5q0 -60 -16.5 -112.5t-43.5 -97t-62 -81t-73 -65.5l-99 66q24 22 40 39.5t27.5 34t19.5 34
t16 39.5q-111 0 -111 93z" />
    <glyph glyph-name="ldot" unicode="&#x140;" horiz-adv-x="489" 
d="M429 1719q0 104 52.5 160.5t175.5 56.5q80 0 119 -30t39 -96q0 -103 -53.5 -159.5t-177.5 -56.5q-155 0 -155 125zM84 0l334 1569h321l-334 -1569h-321z" />
    <glyph glyph-name="lacute" unicode="&#x13a;" horiz-adv-x="489" 
d="M84 0l334 1569h321l-334 -1569h-321zM962 1893l-264 -295h-228l195 295h297z" />
    <glyph glyph-name="lcaron" unicode="&#x13e;" horiz-adv-x="489" 
d="M607 1892l18 -92l57 92h252l-193 -249h-299l-86 249h251zM84 0l334 1569h321l-334 -1569h-321z" />
    <glyph glyph-name="lcommaaccent" unicode="&#x13c;" horiz-adv-x="489" 
d="M84 0l334 1569h321l-334 -1569h-321zM51 -218q0 42 9.5 72.5t30.5 51t55 30.5t84 10q63 0 93 -29.5t30 -84.5q0 -60 -16.5 -112.5t-43.5 -97t-62 -81t-73 -65.5l-99 66q24 22 40 39.5t27.5 34t19.5 34t16 39.5q-111 0 -111 93z" />
    <glyph glyph-name="hbar" unicode="&#x127;" horiz-adv-x="940" 
d="M533 0l177 832q2 7 3 14t1 15q0 20 -10.5 36t-40.5 16q-21 0 -36 -11.5t-25.5 -28t-16 -33.5t-8.5 -29l-172 -811h-321l333 1567h321l-98 -461q32 55 74 87t99 32q65 0 110 -16t73.5 -46t41 -73.5t12.5 -98.5q0 -73 -20 -167l-175 -824h-322zM290 1290l50 236h530
l-50 -236h-530z" />
    <glyph glyph-name="rcommaaccent" unicode="&#x157;" horiz-adv-x="651" 
d="M823 858q-2 1 -11 8t-26.5 15.5t-42.5 15.5t-59 7h-1h-1q-21 0 -39.5 -11.5t-32.5 -27.5t-23 -33t-11 -29l-2 -4l-169 -799h-321l255 1202h321l-24 -114q35 63 80.5 101t106.5 38v-3q0 1 0.5 1t0.5 1l1 1q11 0 33.5 -5.5t37.5 -21.5zM53 -218q0 42 9.5 72.5t30.5 51
t55 30.5t84 10q63 0 93 -29.5t30 -84.5q0 -60 -16.5 -112.5t-43.5 -97t-62 -81t-73 -65.5l-99 66q24 22 40 39.5t27.5 34t19.5 34t16 39.5q-111 0 -111 93z" />
    <glyph glyph-name="afii10109" unicode="&#x45c;" horiz-adv-x="901" 
d="M659 1201l-92 -432h56l207 433h324l-317 -602l86 -600h-355l-20 449h-49l-95 -449h-321l255 1201h321zM1120 1573l-264 -295h-228l195 295h297z" />
    <glyph glyph-name="wacute" unicode="&#x1e83;" horiz-adv-x="1515" 
d="M262 1204h332l-93 -879l282 879h456l-93 -881l283 881h331l-428 -1204h-488l85 819l-263 -819h-488zM1324 1573l-264 -295h-228l195 295h297z" />
    <glyph glyph-name="wgrave" unicode="&#x1e81;" horiz-adv-x="1515" 
d="M262 1204h332l-93 -879l282 879h456l-93 -881l283 881h331l-428 -1204h-488l85 819l-263 -819h-488zM983 1573l69 -295h-218l-128 295h277z" />
    <glyph glyph-name="wdieresis" unicode="&#x1e85;" horiz-adv-x="1515" 
d="M262 1204h332l-93 -879l282 879h456l-93 -881l283 881h331l-428 -1204h-488l85 819l-263 -819h-488zM660 1383q0 43 9 78.5t29.5 60t54.5 38t84 13.5q59 0 88 -25t29 -79q0 -88 -40.5 -138.5t-138.5 -50.5q-59 0 -87 24.5t-28 78.5zM980 1383q0 44 9 79.5t30 60t55 37.5
t83 13q60 0 88.5 -24.5t28.5 -78.5q0 -44 -9 -79t-30 -59.5t-55.5 -38t-84.5 -13.5q-58 0 -86.5 24.5t-28.5 78.5z" />
    <glyph glyph-name="wcircumflex" unicode="&#x175;" horiz-adv-x="1515" 
d="M262 1204h332l-93 -879l282 879h456l-93 -881l283 881h331l-428 -1204h-488l85 819l-263 -819h-488zM648 1279l192 249h300l86 -249h-252l-18 92l-57 -92h-251z" />
    <glyph glyph-name="afii10062" unicode="&#x40e;" horiz-adv-x="901" 
d="M744 551l-276 -551h-320l254 507l-99 1015h362l-5 -558l251 558h320zM1178 1908q-13 -61 -40 -117t-72.5 -98.5t-111.5 -68t-156 -25.5q-74 0 -123.5 16.5t-80 45.5t-43.5 68t-13 84q0 43 11 95h174q-2 -17 -4 -31.5t-2 -28.5q0 -16 4.5 -29.5t17.5 -23.5t36 -15.5
t60 -5.5q49 0 77.5 9.5t45.5 27.5t26.5 42.5t18.5 54.5h175z" />
    <glyph glyph-name="racute" unicode="&#x155;" horiz-adv-x="651" 
d="M823 858q-2 1 -11 8t-26.5 15.5t-42.5 15.5t-59 7h-1h-1q-21 0 -39.5 -11.5t-32.5 -27.5t-23 -33t-11 -29l-2 -4l-169 -799h-321l255 1202h321l-24 -114q35 63 80.5 101t106.5 38v-3q0 1 0.5 1t0.5 1l1 1q11 0 33.5 -5.5t37.5 -21.5zM1008 1573l-264 -295h-228l195 295
h297z" />
    <glyph glyph-name="rcaron" unicode="&#x159;" horiz-adv-x="651" 
d="M823 858q-2 1 -11 8t-26.5 15.5t-42.5 15.5t-59 7h-1h-1q-21 0 -39.5 -11.5t-32.5 -27.5t-23 -33t-11 -29l-2 -4l-169 -799h-321l255 1202h321l-24 -114q35 63 80.5 101t106.5 38v-3q0 1 0.5 1t0.5 1l1 1q11 0 33.5 -5.5t37.5 -21.5zM634 1528l18 -92l57 92h252
l-193 -249h-299l-86 249h251z" />
    <glyph glyph-name="zacute" unicode="&#x17a;" horiz-adv-x="807" 
d="M41 0l58 274l473 628h-311l63 300h669l-58 -272l-466 -620h336l-65 -310h-699zM1046 1573l-264 -295h-228l195 295h297z" />
    <glyph glyph-name="zcaron" unicode="&#x17e;" horiz-adv-x="807" 
d="M41 0l58 274l473 628h-311l63 300h669l-58 -272l-466 -620h336l-65 -310h-699zM677 1528l18 -92l57 92h252l-193 -249h-299l-86 249h251z" />
    <glyph glyph-name="zdotaccent" unicode="&#x17c;" horiz-adv-x="807" 
d="M41 0l58 274l473 628h-311l63 300h669l-58 -272l-466 -620h336l-65 -310h-699zM497 1365q0 104 52.5 160.5t175.5 56.5q80 0 119 -30t39 -96q0 -103 -53.5 -159.5t-177.5 -56.5q-155 0 -155 125z" />
    <glyph glyph-name="scaron" unicode="&#x161;" horiz-adv-x="857" 
d="M896 435q0 -112 -32 -197.5t-92.5 -143.5t-148 -87.5t-198.5 -29.5q-89 0 -150 17.5t-98.5 51.5t-54.5 83t-17 112q0 72 20 166h323q-4 -19 -6.5 -34.5t-2.5 -28.5q0 -26 11 -39t37 -13q15 0 25.5 6.5t17 15.5t9.5 18t3 15q0 28 -24 53t-59.5 52t-77 57.5t-77 69
t-59.5 87t-24 110.5q0 118 32 203.5t93 140.5t149 81t199 26q63 0 117.5 -8.5t95 -35t64 -75t23.5 -127.5q0 -35 -4.5 -76t-15.5 -89l-323 2q2 9 5.5 25t3.5 32t-6.5 28t-25.5 12q-20 0 -32.5 -6t-19.5 -14t-9.5 -17t-2.5 -16q0 -23 24.5 -45.5t61.5 -49t80 -57.5t80 -70.5
t61.5 -90t24.5 -114.5zM714 1528l18 -92l57 92h252l-193 -249h-299l-86 249h251z" />
    <glyph glyph-name="scedilla" unicode="&#x15f;" horiz-adv-x="857" 
d="M896 435q0 -112 -32 -197.5t-92.5 -143.5t-148 -87.5t-198.5 -29.5q-89 0 -150 17.5t-98.5 51.5t-54.5 83t-17 112q0 72 20 166h323q-4 -19 -6.5 -34.5t-2.5 -28.5q0 -26 11 -39t37 -13q15 0 25.5 6.5t17 15.5t9.5 18t3 15q0 28 -24 53t-59.5 52t-77 57.5t-77 69
t-59.5 87t-24 110.5q0 118 32 203.5t93 140.5t149 81t199 26q63 0 117.5 -8.5t95 -35t64 -75t23.5 -127.5q0 -35 -4.5 -76t-15.5 -89l-323 2q2 9 5.5 25t3.5 32t-6.5 28t-25.5 12q-20 0 -32.5 -6t-19.5 -14t-9.5 -17t-2.5 -16q0 -23 24.5 -45.5t61.5 -49t80 -57.5t80 -70.5
t61.5 -90t24.5 -114.5zM184 -285q16 -11 32 -20.5t35.5 -17t45.5 -11.5t63 -4q21 0 40.5 4t34.5 13t24 22.5t9 31.5q0 13 -8.5 22t-22.5 15t-32 8.5t-37 2.5q-20 0 -39 -2.5t-34 -7.5l61 275h150l-26 -126q11 2 23 5q11 2 24.5 4t29.5 2q39 0 67 -13t46 -34.5t26.5 -49
t8.5 -56.5q0 -61 -26.5 -109.5t-74.5 -82t-115.5 -51t-149.5 -17.5q-41 0 -75.5 8t-63 20.5t-49.5 28.5t-35 31z" />
    <glyph glyph-name="scircumflex" unicode="&#x15d;" horiz-adv-x="857" 
d="M896 435q0 -112 -32 -197.5t-92.5 -143.5t-148 -87.5t-198.5 -29.5q-89 0 -150 17.5t-98.5 51.5t-54.5 83t-17 112q0 72 20 166h323q-4 -19 -6.5 -34.5t-2.5 -28.5q0 -26 11 -39t37 -13q15 0 25.5 6.5t17 15.5t9.5 18t3 15q0 28 -24 53t-59.5 52t-77 57.5t-77 69
t-59.5 87t-24 110.5q0 118 32 203.5t93 140.5t149 81t199 26q63 0 117.5 -8.5t95 -35t64 -75t23.5 -127.5q0 -35 -4.5 -76t-15.5 -89l-323 2q2 9 5.5 25t3.5 32t-6.5 28t-25.5 12q-20 0 -32.5 -6t-19.5 -14t-9.5 -17t-2.5 -16q0 -23 24.5 -45.5t61.5 -49t80 -57.5t80 -70.5
t61.5 -90t24.5 -114.5zM410 1279l192 249h300l86 -249h-252l-18 92l-57 -92h-251z" />
    <glyph glyph-name="scommaaccent" unicode="&#x219;" horiz-adv-x="857" 
d="M896 435q0 -112 -32 -197.5t-92.5 -143.5t-148 -87.5t-198.5 -29.5q-89 0 -150 17.5t-98.5 51.5t-54.5 83t-17 112q0 72 20 166h323q-4 -19 -6.5 -34.5t-2.5 -28.5q0 -26 11 -39t37 -13q15 0 25.5 6.5t17 15.5t9.5 18t3 15q0 28 -24 53t-59.5 52t-77 57.5t-77 69
t-59.5 87t-24 110.5q0 118 32 203.5t93 140.5t149 81t199 26q63 0 117.5 -8.5t95 -35t64 -75t23.5 -127.5q0 -35 -4.5 -76t-15.5 -89l-323 2q2 9 5.5 25t3.5 32t-6.5 28t-25.5 12q-20 0 -32.5 -6t-19.5 -14t-9.5 -17t-2.5 -16q0 -23 24.5 -45.5t61.5 -49t80 -57.5t80 -70.5
t61.5 -90t24.5 -114.5zM235 -218q0 42 9.5 72.5t30.5 51t55 30.5t84 10q63 0 93 -29.5t30 -84.5q0 -60 -16.5 -112.5t-43.5 -97t-62 -81t-73 -65.5l-99 66q24 22 40 39.5t27.5 34t19.5 34t16 39.5q-111 0 -111 93z" />
    <glyph glyph-name="s.fat" horiz-adv-x="873" 
d="M905 435q0 -112 -32 -197.5t-92.5 -143.5t-148 -87.5t-198.5 -29.5q-89 0 -150 17.5t-98.5 51.5t-54.5 83t-17 112q0 72 20 166h323q-4 -19 -6.5 -34.5t-2.5 -28.5q0 -26 11 -39t37 -13q15 0 25.5 6.5t17 15.5t9.5 18t3 15q0 28 -24 53t-59.5 52t-77 57.5t-77 69
t-59.5 87t-24 110.5q0 118 32 203.5t93 140.5t149 81t199 26q63 0 117.5 -8.5t95 -35t64 -75t23.5 -127.5q0 -35 -4.5 -76t-15.5 -89l-323 2q2 9 5.5 25t3.5 32t-6.5 28t-25.5 12q-20 0 -32.5 -6t-19.5 -14t-9.5 -17t-2.5 -16q0 -23 24.5 -45.5t61.5 -49t80 -57.5t80 -70.5
t61.5 -90t24.5 -114.5z" />
    <glyph glyph-name="greaterequal" unicode="&#x2265;" horiz-adv-x="904" 
d="M180 331l79 342l372 219l-271 220l79 342l560 -441l-55 -241zM86 -1l65 281h692l-65 -281h-692z" />
    <glyph glyph-name="lessequal" unicode="&#x2264;" horiz-adv-x="903" 
d="M265 773l52 245l761 443l-74 -347l-368 -219l275 -218l-73 -347zM86 -7l61 286h697l-61 -286h-697z" />
    <glyph glyph-name="Yacute" unicode="&#xdd;" horiz-adv-x="940" 
d="M753 516l-110 -516h-328l110 516l-96 1006h362l-5 -560l251 560h320zM1206 1894l-264 -295h-228l195 295h297z" />
    <glyph glyph-name="Ygrave" unicode="&#x1ef2;" horiz-adv-x="940" 
d="M753 516l-110 -516h-328l110 516l-96 1006h362l-5 -560l251 560h320zM866 1873l69 -295h-218l-128 295h277z" />
    <glyph glyph-name="Ydieresis" unicode="&#x178;" horiz-adv-x="940" 
d="M753 516l-110 -516h-328l110 516l-96 1006h362l-5 -560l251 560h320zM547 1704q0 43 9 78.5t29.5 60t54.5 38t84 13.5q59 0 88 -25t29 -79q0 -88 -40.5 -138.5t-138.5 -50.5q-59 0 -87 24.5t-28 78.5zM867 1704q0 44 9 79.5t30 60t55 37.5t83 13q60 0 88.5 -24.5
t28.5 -78.5q0 -44 -9 -79t-30 -59.5t-55.5 -38t-84.5 -13.5q-58 0 -86.5 24.5t-28.5 78.5z" />
    <glyph glyph-name="Ycircumflex" unicode="&#x176;" horiz-adv-x="940" 
d="M753 516l-110 -516h-328l110 516l-96 1006h362l-5 -560l251 560h320zM534 1600l192 249h300l86 -249h-252l-18 92l-57 -92h-251z" />
    <glyph glyph-name="Uhungarumlaut" unicode="&#x170;" horiz-adv-x="958" 
d="M1197 1522l-246 -1158q-20 -91 -55 -162.5t-92 -121.5t-138 -76.5t-192 -26.5q-89 0 -151.5 17t-101.5 49.5t-57 80t-18 108.5q0 30 4 63t12 69l246 1158h328l-246 -1159q-3 -12 -3 -23.5t5.5 -21t17 -15.5t32.5 -6t35 6t23 15.5t14 21t8 23.5l246 1159h329zM1027 1894
l-254 -295h-218l195 295h277zM1340 1894l-254 -295h-218l195 295h277z" />
    <glyph glyph-name="Umacron" unicode="&#x16a;" horiz-adv-x="958" 
d="M1197 1522l-246 -1158q-20 -91 -55 -162.5t-92 -121.5t-138 -76.5t-192 -26.5q-89 0 -151.5 17t-101.5 49.5t-57 80t-18 108.5q0 30 4 63t12 69l246 1158h328l-246 -1159q-3 -12 -3 -23.5t5.5 -21t17 -15.5t32.5 -6t35 6t23 15.5t14 21t8 23.5l246 1159h329zM560 1630
l50 236h530l-50 -236h-530z" />
    <glyph glyph-name="Zacute" unicode="&#x179;" horiz-adv-x="843" 
d="M60 0l63 298l537 903h-333l68 321h707l-58 -273l-554 -929h360l-68 -320h-722zM1147 1894l-264 -295h-228l195 295h297z" />
    <glyph glyph-name="Zcaron" unicode="&#x17d;" horiz-adv-x="843" 
d="M60 0l63 298l537 903h-333l68 321h707l-58 -273l-554 -929h360l-68 -320h-722zM783 1849l18 -92l57 92h252l-193 -249h-299l-86 249h251z" />
    <glyph glyph-name="Zdotaccent" unicode="&#x17b;" horiz-adv-x="843" 
d="M60 0l63 298l537 903h-333l68 321h707l-58 -273l-554 -929h360l-68 -320h-722zM601 1686q0 104 52.5 160.5t175.5 56.5q80 0 119 -30t39 -96q0 -103 -53.5 -159.5t-177.5 -56.5q-155 0 -155 125z" />
    <glyph glyph-name="lslash" unicode="&#x142;" horiz-adv-x="666" 
d="M162 356l61 287l774 493l-62 -287zM261 0l334 1569h321l-334 -1569h-321z" />
    <glyph glyph-name="afii10110" unicode="&#x45e;" horiz-adv-x="815" 
d="M1056 1202l-385 -770l-92 -432h-328l92 432l-71 770h315l-8 -443l189 443h288zM1068 1575q-13 -61 -40 -117t-72.5 -98.5t-111.5 -68t-156 -25.5q-74 0 -123.5 16.5t-80 45.5t-43.5 68t-13 84q0 43 11 95h174q-2 -17 -4 -31.5t-2 -28.5q0 -16 4.5 -29.5t17.5 -23.5
t36 -15.5t60 -5.5q49 0 77.5 9.5t45.5 27.5t26.5 42.5t18.5 54.5h175z" />
    <glyph glyph-name="Aacute" unicode="&#xc1;" horiz-adv-x="947" 
d="M563 1523h427l-93 -1523h-331l20 195h-183l-63 -195h-331zM616 497l54 525l-170 -525h116zM1172 1894l-264 -295h-228l195 295h297z" />
    <glyph glyph-name="product" unicode="&#x220f;" horiz-adv-x="947" 
d="M43 -175l361 1698h786l-361 -1698h-321l295 1385h-142l-294 -1385h-324z" />
    <glyph glyph-name="uni00AD" unicode="&#xad;" horiz-adv-x="779" 
d="M52 -112l61 285h630l-60 -285h-631z" />
    <glyph glyph-name="figuredash" unicode="&#x2012;" horiz-adv-x="779" 
d="M171 448l61 285h630l-60 -285h-631z" />
    <glyph glyph-name="parenleftinferior" unicode="&#x208d;" horiz-adv-x="449" 
d="M326 -447q-93 0 -151.5 22t-91.5 58t-45 81t-12 91q0 45 7.5 86.5t13.5 70.5l69 328q6 30 17 72.5t30.5 87.5t51 89.5t80 80t115.5 57t159 21.5h13l-51 -240h-13q-35 0 -58 -20.5t-36.5 -46.5t-19.5 -51.5t-8 -34.5l-78 -366q-2 -7 -5 -24t-3 -37q0 -15 3 -30t10.5 -27.5
t20.5 -20t33 -7.5h12l-51 -240h-12z" />
    <glyph glyph-name="approxequal" unicode="&#x2248;" horiz-adv-x="749" 
d="M930 1017q-19 -56 -47.5 -106t-66.5 -88t-87 -60t-109 -22q-35 0 -60.5 9.5t-46.5 21.5t-40 21.5t-41 9.5q-32 0 -58.5 -15t-47.5 -59l-149 43q20 53 48.5 102.5t66 87t85 60t106.5 22.5q38 0 64.5 -9.5t47.5 -21.5t39 -21.5t40 -9.5q35 0 60.5 16t44.5 58zM849 638
q-19 -56 -47.5 -106t-66.5 -88t-87 -60t-109 -22q-35 0 -60.5 9.5t-46.5 21.5t-40 21.5t-41 9.5q-32 0 -58.5 -15t-47.5 -59l-149 43q20 53 48.5 102.5t66 87t85 60t106.5 22.5q38 0 64.5 -9.5t47.5 -21.5t39 -21.5t40 -9.5q35 0 60.5 16t44.5 58z" />
    <glyph glyph-name="notequal" unicode="&#x2260;" horiz-adv-x="836" 
d="M856 1058h134l-61 -286h-212l-67 -138h250l-61 -286h-327l-77 -159l-219 62l47 97h-118l61 286h195l67 138h-233l61 286h310l77 158l220 -61z" />
    </font>
</defs>
</svg>
