<?xml version="1.0" standalone="no"?>
<!DOCTYPE svg PUBLIC "-//W3C//DTD SVG 1.1//EN" "http://www.w3.org/Graphics/SVG/1.1/DTD/svg11.dtd" >
<svg xmlns="http://www.w3.org/2000/svg" xmlns:xlink="http://www.w3.org/1999/xlink" version="1.1">
<metadata>
Created by FontForge 20170910 at Tue Oct 10 16:13:57 2017
 By Jimmy Wärting
Copyright (c) 2017 by Studio Kmzero &#38; Zetafonts. All rights reserved.
</metadata>
<defs>
<font id="HeadingProTrial-BoldItalic" horiz-adv-x="2531" >
  <font-face 
    font-family="Heading Pro Trial"
    font-weight="700"
    font-style="italic"
    font-stretch="normal"
    units-per-em="2048"
    panose-1="2 0 5 6 0 0 0 2 0 4"
    ascent="1638"
    descent="-410"
    x-height="1202"
    cap-height="1521"
    bbox="-227 -920 2479 1993"
    underline-thickness="102"
    underline-position="-205"
    slope="-12"
    unicode-range="U+000D-FB06"
  />
<missing-glyph horiz-adv-x="1388" 
 />
    <glyph glyph-name="f_t" unicode="ft" horiz-adv-x="1247" 
d="M255 1203h131l2 8q19 90 46 163t69.5 125.5t105 81t154.5 28.5q74 0 121 -21.5t74 -45.5l-58 -199q-9 6 -21.5 13t-30.5 13.5t-41 11t-53 4.5q-29 0 -49 -9.5t-34.5 -30.5t-25 -54t-20.5 -80l-2 -8h373l84 386h238l-84 -386h228l-47 -221h-228l-130 -604
q-8 -34 -12 -60.5t-4 -46.5q0 -35 15.5 -51t52.5 -16q60 0 101 15.5t64 26.5l-28 -199q-38 -24 -93.5 -45.5t-129.5 -21.5q-65 0 -108.5 14.5t-70.5 41.5t-38.5 66t-11.5 88q0 41 7 88t18 100l130 604h-374l-211 -982h-237l211 982h-130z" />
    <glyph glyph-name="ff" unicode="ff" horiz-adv-x="1224" 
d="M1449 1372q-21 7 -44 12t-54 5q-30 0 -50 -9.5t-34.5 -31t-25.5 -55.5t-22 -82l-2 -8h164l-46 -221h-166l-214 -982l-2 -9q-21 -90 -48 -163.5t-71 -125.5t-109.5 -80.5t-162.5 -28.5q-59 0 -108 15.5t-87.5 37.5t-65 44t-41.5 36q-45 -63 -111 -98t-167 -35
q-72 0 -117.5 21.5t-71.5 45.5l59 195q9 -6 21.5 -13t30 -13.5t40.5 -11t52 -4.5q30 0 50 9.5t34.5 31t25.5 55.5t22 82l217 991h-113l46 221h115l2 8q21 90 48.5 163.5t70.5 125.5t106 80.5t155 28.5q24 0 48.5 -4.5t47 -11t41 -14.5t32.5 -15l-86 -192q-21 7 -44 12t-54 5
q-30 0 -50 -9.5t-34.5 -31t-25.5 -55.5t-22 -82l-2 -8h358l2 8q21 90 48.5 163.5t70.5 125.5t106 80.5t155 28.5q24 0 48.5 -4.5t47 -11t41 -14.5t32.5 -15zM542 -187q39 0 67.5 9.5t49.5 31t35 55.5t25 82l217 991h-358l-214 -982l-2 -9q-6 -23 -11.5 -46t-12.5 -44
q12 -13 28.5 -28t41 -28.5t57.5 -22.5t77 -9z" />
    <glyph glyph-name="ffi" unicode="ffi" horiz-adv-x="1677" 
d="M851 1372q-21 7 -43.5 12t-53.5 5q-30 0 -50.5 -9.5t-35 -31t-25 -55.5t-21.5 -82l-2 -8h357l2 8q21 90 48.5 163.5t71 125.5t106 80.5t154.5 28.5q24 0 48.5 -4.5t47 -11t41.5 -14.5t32 -15l-86 -192q-21 7 -43.5 12t-53.5 5q-30 0 -50.5 -9.5t-35 -31t-25 -55.5
t-21.5 -82l-2 -8h595l-259 -1203h-237l212 982h-359l-215 -982l-2 -9q-21 -90 -48 -163.5t-70.5 -125.5t-109.5 -80.5t-163 -28.5q-59 0 -108 15.5t-87 37t-65 43.5t-42 36q-44 -63 -110 -97.5t-168 -34.5q-72 0 -117.5 21.5t-71.5 45.5l59 195q9 -6 22 -13t30.5 -13.5
t40.5 -11t52 -4.5q30 0 50 9.5t34.5 31t25.5 55.5t22 82l216 991h-113l46 221h115l2 8q21 90 48.5 163.5t71 125.5t106 80.5t154.5 28.5q24 0 48.5 -4.5t47 -11t41.5 -14.5t32 -15zM535 -187q40 0 68.5 9.5t49 31t35 55.5t25.5 82l2 9l214 982h-357l-215 -982l-2 -9
q-6 -23 -11.5 -46t-12.5 -44q12 -13 28.5 -28t41 -28.5t57.5 -22.5t77 -9zM1598 1431q0 70 39.5 108.5t129.5 38.5q62 0 91 -21.5t29 -66.5q0 -69 -38 -108t-132 -39q-119 0 -119 88z" />
    <glyph glyph-name="ffl" unicode="ffl" horiz-adv-x="1658" 
d="M278 1203h115l2 8q21 90 48.5 163.5t70.5 125.5t106 80.5t155 28.5q24 0 48.5 -4.5t47 -11t41 -14.5t32.5 -15l-86 -192q-21 7 -44 12t-54 5q-30 0 -50 -9.5t-34.5 -31t-25.5 -55.5t-22 -82l-2 -8h358l2 8q21 90 63.5 165t105 129.5t143.5 85t179 32.5h29q73 0 135.5 -6
t110 -14.5t78 -17.5t40.5 -15l-3 -2h3l-338 -1568h-236l306 1419q-16 3 -35.5 5.5t-43.5 2.5q-14 0 -29.5 -1t-33.5 -3q-100 -8 -159.5 -61.5t-81.5 -150.5l-2 -8h164l-46 -221h-166l-214 -982l-2 -9q-21 -90 -48.5 -163.5t-71 -125.5t-106.5 -80.5t-154 -28.5
q-72 0 -117.5 21.5t-71.5 45.5l59 195q9 -6 21.5 -13t30 -13.5t40.5 -11t52 -4.5q30 0 50 9.5t34.5 31t25.5 55.5t22 82l217 991h-358l-214 -982l-2 -9q-21 -90 -48.5 -163.5t-71 -125.5t-106.5 -80.5t-154 -28.5q-72 0 -117.5 21.5t-71.5 45.5l59 195q9 -6 21.5 -13
t30 -13.5t40.5 -11t52 -4.5q30 0 50 9.5t34.5 31t25.5 55.5t22 82l217 991h-113z" />
    <glyph glyph-name="f_j" unicode="fj" horiz-adv-x="1052" 
d="M853 1372q-21 7 -44 12t-54 5q-30 0 -50 -9.5t-34.5 -31t-25.5 -55.5t-22 -82l-2 -8h584l-261 -1212q-20 -90 -46.5 -163t-69.5 -125.5t-106 -81t-154 -28.5q-37 0 -66.5 6t-53.5 15.5t-42.5 21.5t-31.5 24l57 199q9 -6 22 -13t30.5 -13.5t40.5 -11t53 -4.5q29 0 49 9.5
t34 30.5t24.5 54t21.5 80l213 991h-346l-214 -982h-1l-2 -9q-21 -90 -48.5 -163.5t-70.5 -125.5t-106 -80.5t-154 -28.5q-36 0 -65.5 6t-52.5 15.5t-40.5 21.5t-30.5 24l58 195q9 -6 22 -13t30.5 -13.5t40.5 -11t52 -4.5q30 0 50 9.5t34.5 31t25.5 55.5t22 82l217 991h-113
l46 221h115l2 8q21 90 48.5 163.5t70.5 125.5t106 80.5t155 28.5q24 0 48.5 -4.5t47 -11t41 -14.5t32.5 -15zM996 1431q0 70 39.5 108.5t129.5 38.5q62 0 91 -21.5t29 -66.5q0 -69 -38.5 -108t-132.5 -39q-118 0 -118 88z" />
    <glyph glyph-name="fl" unicode="fl" horiz-adv-x="1048" 
d="M1276 1568h3l-338 -1568h-236l306 1419q-16 3 -35.5 5.5t-43.5 2.5q-14 0 -29.5 -1t-33.5 -3q-100 -8 -159.5 -61.5t-81.5 -150.5l-2 -8h164l-46 -221h-166l-214 -982l-2 -9q-21 -90 -48.5 -163.5t-71 -125.5t-106.5 -80.5t-154 -28.5q-72 0 -117.5 21.5t-71.5 45.5
l59 195q9 -6 21.5 -13t30 -13.5t40.5 -11t52 -4.5q30 0 50 9.5t34.5 31t25.5 55.5t22 82l217 991h-113l46 221h115l2 8q21 90 63.5 165t105 129.5t143.5 85t179 32.5h29q73 0 135.5 -6t110 -14.5t78 -17.5t40.5 -15z" />
    <glyph glyph-name="fi" unicode="fi" horiz-adv-x="1028" 
d="M278 1203h115l2 8q21 90 48.5 163.5t70.5 125.5t106 80.5t155 28.5q24 0 48.5 -4.5t47 -11t41 -14.5t32.5 -15l-86 -192q-21 7 -44 12t-54 5q-30 0 -50 -9.5t-34.5 -31t-25.5 -55.5t-22 -82l-2 -8h556l-260 -1203h-237l212 982h-319l-214 -982l-2 -9
q-21 -90 -48.5 -163.5t-71 -125.5t-106.5 -80.5t-154 -28.5q-72 0 -117.5 21.5t-71.5 45.5l59 195q9 -6 21.5 -13t30 -13.5t40.5 -11t52 -4.5q30 0 50 9.5t34.5 31t25.5 55.5t22 82l217 991h-113zM974 1431q0 70 39.5 108.5t128.5 38.5q63 0 92 -21.5t29 -66.5
q0 -69 -38.5 -108t-132.5 -39q-118 0 -118 88z" />
    <glyph glyph-name=".notdef" horiz-adv-x="1388" 
 />
    <glyph glyph-name="space" unicode=" " horiz-adv-x="369" 
 />
    <glyph glyph-name="exclam" unicode="!" horiz-adv-x="471" 
d="M221 400l205 1121h273l-275 -1121h-203zM112 76q0 39 9 69.5t29.5 52.5t53.5 33.5t81 11.5q62 0 90.5 -23.5t28.5 -71.5q0 -81 -40 -124.5t-135 -43.5q-60 0 -88.5 24t-28.5 72z" />
    <glyph glyph-name="quotedbl" unicode="&#x22;" horiz-adv-x="676" 
d="M326 1096l74 425h218l-111 -425h-181zM636 1096l74 425h217l-110 -425h-181z" />
    <glyph glyph-name="numbersign" unicode="#" horiz-adv-x="859" 
d="M857 442h-120l-148 -442h-195l147 442h-119l-148 -442h-195l147 442h-101l42 157h112l122 367h-101l42 157h112l134 401h198l-135 -401h118l134 401h197l-135 -401h108l-42 -157h-119l-123 -367h110zM594 599l122 367h-118l-123 -367h119z" />
    <glyph glyph-name="percent" unicode="%" horiz-adv-x="1596" 
d="M333 1194q18 82 42.5 146.5t65 108.5t100.5 67t148 23q63 0 106.5 -12t70 -36t38 -58.5t11.5 -79.5q0 -34 -5.5 -73.5t-15.5 -84.5l-54 -250q-18 -84 -43 -148.5t-65 -109t-99.5 -67.5t-146.5 -23q-126 0 -178 47.5t-52 140.5q0 56 17 133zM526 787q40 0 62.5 28.5
t38.5 99.5l60 282q7 31 11 55.5t4 42.5q0 28 -12 41.5t-41 13.5q-25 0 -42 -9t-29 -27.5t-20.5 -47.5t-17.5 -68l-55 -257q-14 -61 -14 -95q0 -30 12.5 -44.5t42.5 -14.5zM696 0h-228l763 1521h229zM1084 570q18 82 42.5 146.5t65 108.5t100.5 67t148 23q63 0 106.5 -12
t69.5 -36t37.5 -59t11.5 -80q0 -34 -5.5 -73.5t-15.5 -84.5l-53 -248q-18 -84 -43 -149t-65 -109.5t-99.5 -67.5t-146.5 -23q-126 0 -178 48t-52 141q0 56 17 133zM1277 163q39 0 62 28.5t38 99.5l61 281q7 31 11 55t4 42q0 29 -12.5 43t-41.5 14q-25 0 -42 -9t-29 -28
t-20.5 -47.5t-17.5 -68.5l-54 -255q-14 -62 -14 -96q0 -30 12.5 -44.5t42.5 -14.5z" />
    <glyph glyph-name="ampersand" unicode="&#x26;" horiz-adv-x="931" 
d="M899 455q2 -5 2.5 -10t1.5 -10l6 -47q-19 -87 -52 -161.5t-87 -129t-132.5 -86t-186.5 -31.5q-83 0 -140.5 18.5t-92.5 52.5t-50.5 82t-15.5 106q0 69 18 149l21 97l12 55q23 107 79 176t133 89q-49 15 -71.5 54.5t-22.5 102.5q0 53 15 124l18 89q18 81 53 145.5t89 109
t127 68t166 23.5h210l-46 -222h-204q-68 0 -104.5 -40t-50.5 -104l-22 -92q-9 -39 -9 -68q0 -46 25 -68t79 -22h111l25 114h241l-25 -114h73l-47 -218h-73l-50 -235zM437 511h1l-23 -105q-6 -26 -9.5 -50t-3.5 -44q0 -46 21.5 -72t75.5 -26q43 0 72 16t48.5 42.5t31.5 61
t20 71.5l17 83l7 33v1l37 163h-125q-33 0 -60.5 -11.5t-48 -31t-34 -46t-20.5 -56.5z" />
    <glyph glyph-name="quoteright" unicode="&#x2019;" horiz-adv-x="365" 
d="M256 1004q17 39 33 76.5t28.5 71t20 61.5t7.5 46q0 30 -22 30h-39l50 230l253 2l-47 -218q-9 -45 -41.5 -126.5t-96.5 -196.5z" />
    <glyph glyph-name="parenleft" unicode="(" horiz-adv-x="542" 
d="M432 -105q-90 0 -147 20.5t-90 54.5t-45 77.5t-12 90.5q0 42 6.5 83t14.5 77l200 924q7 31 17.5 73t30 86.5t50.5 88t78.5 78t113.5 55.5t156 21h18l-44 -213h-19q-48 0 -78.5 -23.5t-48.5 -54.5t-26 -62t-11 -47l-202 -937q-5 -18 -7.5 -37.5t-2.5 -39.5t4.5 -38t15 -32
t28.5 -22.5t46 -8.5h19l-46 -214h-19z" />
    <glyph glyph-name="parenright" unicode=")" horiz-adv-x="538" 
d="M41 -105l46 214h18q42 0 70 17.5t47 44t29.5 58t16.5 58.5l203 937q2 12 6 34t4 47q0 19 -4 38t-14.5 34t-29 24.5t-47.5 9.5h-18l46 213h18q91 0 148 -21.5t89.5 -56.5t44.5 -79t12 -89q0 -44 -7 -84.5t-14 -71.5l-199 -923q-9 -39 -21 -84t-32.5 -90t-52 -86.5
t-78.5 -73.5t-111.5 -51t-151.5 -19h-18z" />
    <glyph glyph-name="asterisk" unicode="*" horiz-adv-x="866" 
d="M773 1249l275 102l20 -175l-280 -66l131 -210l-172 -109l-95 233l-196 -232l-126 107l222 211l-250 66l93 174l232 -102l40 273h184z" />
    <glyph glyph-name="plus" unicode="+" horiz-adv-x="834" 
d="M442 598h-227l45 210h226l50 226h209l-48 -226h225l-45 -210h-226l-49 -226h-209z" />
    <glyph glyph-name="comma" unicode="," horiz-adv-x="430" 
d="M97 76q0 79 40 123t133 44q61 0 88.5 -31.5t27.5 -83.5q0 -59 -17.5 -114t-45 -104t-63 -90t-71.5 -72l-94 61q24 25 41 46t29.5 41t21.5 40t17 44q-107 0 -107 96z" />
    <glyph glyph-name="hyphen" unicode="-" horiz-adv-x="645" 
d="M151 485l45 211h551l-44 -211h-552z" />
    <glyph glyph-name="period" unicode="." horiz-adv-x="442" 
d="M97 76q0 78 39.5 122.5t133.5 44.5q62 0 91 -23.5t29 -72.5q0 -81 -41 -124t-136 -43q-116 0 -116 96z" />
    <glyph glyph-name="slash" unicode="/" horiz-adv-x="700" 
d="M231 -80h-233l796 1679h235z" />
    <glyph glyph-name="colon" unicode=":" horiz-adv-x="406" 
d="M80 76q0 78 39.5 122.5t133.5 44.5q62 0 91 -23.5t29 -72.5q0 -81 -41 -124t-136 -43q-116 0 -116 96zM290 1053q0 78 39.5 122.5t133.5 44.5q62 0 91 -23.5t29 -72.5q0 -81 -41 -124t-136 -43q-116 0 -116 96z" />
    <glyph glyph-name="less" unicode="&#x3c;" horiz-adv-x="722" 
d="M182 611l39 183l671 404l-55 -259l-383 -237l280 -236l-55 -259z" />
    <glyph glyph-name="equal" unicode="=" horiz-adv-x="834" 
d="M259 800l45 210h662l-45 -210h-662zM173 397l45 210h662l-45 -210h-662z" />
    <glyph glyph-name="greater" unicode="&#x3e;" horiz-adv-x="723" 
d="M137 210l59 255l388 237l-279 238l59 255l487 -402l-41 -181z" />
    <glyph glyph-name="question" unicode="?" horiz-adv-x="861" 
d="M1038 1264q0 -103 -26.5 -184t-67.5 -147.5t-90.5 -122.5t-95.5 -108.5t-82 -105.5t-51 -114l-19 -82h-206l17 85q13 66 36 120t51.5 101t61 87.5t64 79t60.5 76t51.5 77.5t35.5 85t13 98q0 46 -19.5 71t-64.5 25q-59 0 -88.5 -33t-43.5 -87l-29 -111h-231l17 87
q16 81 46.5 150.5t80.5 120t122.5 79.5t173.5 29q66 0 119 -15t89.5 -48t56 -85.5t19.5 -127.5zM293 76q0 39 9 69.5t29.5 52.5t53.5 33.5t81 11.5q62 0 91 -23.5t29 -72.5q0 -81 -41 -124t-135 -43q-60 0 -88.5 24t-28.5 72z" />
    <glyph glyph-name="at.001" horiz-adv-x="1245" 
d="M932 134l19 90q-30 -49 -71.5 -78.5t-101.5 -29.5q-58 0 -97 15t-62.5 41.5t-33.5 63.5t-10 81q0 38 6 80.5t16 87.5l63 290q16 76 39.5 143t62 117.5t96 80t140.5 29.5q61 0 90.5 -30t37.5 -81q12 55 12 101q0 99 -51 148t-148 49q-89 0 -158 -30t-122.5 -90.5t-92 -153
t-65.5 -217.5l-89 -407q-11 -49 -15.5 -91.5t-4.5 -79.5q0 -65 14 -114t38 -83.5t56 -57t68.5 -36t75.5 -18.5t76 -5h381l-44 -206h-381q-118 0 -211.5 25t-159 79t-100.5 139.5t-35 205.5q0 54 7 113.5t22 128.5l87 407q43 200 112 334.5t159 215.5t198 115.5t229 34.5
q100 0 170 -26t114.5 -73t65 -111.5t20.5 -141.5q0 -79 -20 -171h-1l-190 -884h-211zM872 321q32 0 54.5 15t38 38.5t26 53t17.5 58.5l29 139l28 131l7 32q3 17 5 33t2 31q0 35 -15 60t-58 25q-35 0 -57.5 -13.5t-37 -36t-23 -51t-15.5 -59.5l-63 -297q-5 -23 -9 -44t-4 -41
q0 -32 15.5 -53t59.5 -21z" />
    <glyph glyph-name="A" unicode="A" horiz-adv-x="887" 
d="M595 1522h324l-69 -1522h-243l19 266h-279l-95 -266h-244zM642 487l56 761l-272 -761h216z" />
    <glyph glyph-name="B" unicode="B" horiz-adv-x="939" 
d="M730 539q2 12 3.5 22.5t1.5 21.5q0 45 -25 73.5t-80 28.5h-124l-98 -451h125q32 0 58 6.5t46.5 24t35.5 47t25 75.5zM847 1155q6 27 6 51q0 43 -22.5 68t-76.5 25h-116l-85 -394h98q40 0 70 9.5t51 29t35 49t22 70.5zM940 391q-23 -105 -61.5 -179t-94.5 -121
t-130.5 -68.5t-168.5 -21.5h-368l328 1520h363q154 0 226 -63.5t72 -177.5q0 -48 -12 -105l-20 -89q-26 -119 -73.5 -189t-126.5 -92q52 -15 80.5 -60.5t28.5 -114.5q0 -40 -11 -90z" />
    <glyph glyph-name="C" unicode="C" horiz-adv-x="893" 
d="M925 483l-19 -91q-17 -82 -49 -156.5t-86 -131t-133 -90t-189 -33.5q-1 0 -1 -1q-85 0 -142 20t-91.5 55t-49 84t-14.5 106q0 38 5.5 78.5t14.5 83.5l152 708q19 87 51.5 164.5t86 135.5t132.5 92.5t190 34.5l1 1q85 0 142.5 -20t92 -55.5t49.5 -84t15 -104.5
q0 -35 -5 -73t-14 -77l-19 -90h-242l19 89q5 21 8.5 41t3.5 40q0 42 -21 70.5t-78 29.5q-42 0 -70.5 -16.5t-48 -43.5t-31.5 -62.5t-20 -72.5l-152 -706q-5 -25 -9 -49t-4 -47q0 -42 20 -70t77 -28q40 0 68.5 15t48 39.5t31.5 57t19 67.5l19 90h242z" />
    <glyph glyph-name="D" unicode="D" horiz-adv-x="928" 
d="M808 1521q82 -1 138.5 -20.5t90.5 -54t49 -82.5t15 -106q0 -37 -5.5 -77.5t-14.5 -83.5l-144 -673q-19 -88 -52 -165.5t-86.5 -135t-132 -90.5t-189.5 -33h-361l329 1521h363zM533 233q35 1 61.5 14.5t46 38.5t33 59.5t23.5 78.5l144 673q12 49 12 88q0 47 -21 73t-71 28
h-126l-228 -1053h126z" />
    <glyph glyph-name="E" unicode="E" horiz-adv-x="829" 
d="M114 0l328 1521h646l-50 -234l-405 -1l-86 -396h336l-51 -233h-335l-92 -424h404l-50 -233h-645z" />
    <glyph glyph-name="F" unicode="F" horiz-adv-x="817" 
d="M635 1286l-95 -438h329l-51 -234h-328l-133 -614h-241l329 1521h641l-50 -235h-401z" />
    <glyph glyph-name="G" unicode="G" horiz-adv-x="900" 
d="M620 818h377l-92 -426q-18 -82 -50 -156t-85.5 -130.5t-132 -90.5t-188.5 -34q-1 0 -1 -1q-85 0 -142 20t-91.5 55t-49 84t-14.5 106q0 38 5.5 78.5t14.5 83.5l152 708q19 87 51.5 164.5t86.5 135.5t132.5 92.5t189.5 34.5l1 1q85 0 142.5 -20t92 -55.5t49.5 -84
t15 -104.5q0 -35 -5 -73t-14 -77l-20 -90h-242l20 89q5 21 8.5 41.5t3.5 40.5q0 21 -5 39t-16.5 31.5t-30.5 21t-48 7.5q-42 0 -70.5 -16.5t-47.5 -43.5t-31 -62.5t-20 -72.5l-153 -706q-5 -25 -9 -49t-4 -46q0 -42 20.5 -70.5t77.5 -28.5q40 0 68 15t47.5 39.5t31.5 57
t20 67.5l42 195h-135z" />
    <glyph glyph-name="H" unicode="H" horiz-adv-x="991" 
d="M116 0l329 1521h241l-138 -637h276l138 637h242l-329 -1521h-241l140 650h-276l-140 -650h-242z" />
    <glyph glyph-name="I" unicode="I" horiz-adv-x="475" 
d="M117 0l329 1521h241l-328 -1521h-242z" />
    <glyph glyph-name="K" unicode="K" horiz-adv-x="937" 
d="M116 0l329 1521h241l-138 -637h85l358 637h257l-413 -744l105 -777h-258l-93 650h-91l-140 -650h-242z" />
    <glyph glyph-name="L" unicode="L" horiz-adv-x="755" 
d="M116 0l329 1521h241l-279 -1290h387l-50 -231h-628z" />
    <glyph glyph-name="M" unicode="M" horiz-adv-x="1249" 
d="M117 0l329 1521h311v-915l395 915h310l-328 -1521h-242l258 1084l-379 -895h-208l8 909l-212 -1098h-242z" />
    <glyph glyph-name="O" unicode="O" horiz-adv-x="900" 
d="M320 1115q19 87 51.5 165t86.5 136t133 92t191 34q85 0 142 -20t91.5 -55t49 -84t14.5 -106q0 -38 -5.5 -78.5t-14.5 -83.5l-153 -708q-19 -87 -51 -165t-86 -136t-132.5 -92t-190.5 -34q-85 0 -142 20t-91.5 55.5t-49 84t-14.5 106.5q0 38 5 78.5t14 82.5zM732 1309
q-42 0 -70.5 -16.5t-48 -43.5t-31 -62t-19.5 -72l-153 -707q-5 -25 -9 -49t-4 -46q0 -42 20.5 -70.5t77.5 -28.5q43 0 71.5 16t48 43t31 62t19.5 73l152 706q5 25 9 49t4 47q0 21 -4.5 39t-15.5 31.5t-30 21t-48 7.5z" />
    <glyph glyph-name="P" unicode="P" horiz-adv-x="912" 
d="M1034 902q-24 -110 -66 -183.5t-100 -117t-131.5 -61.5t-160.5 -18h-104l-113 -522h-242l329 1521h350q70 0 126.5 -13t96.5 -42t61.5 -76.5t21.5 -116.5q0 -55 -15 -125zM844 1148q3 15 5 28.5t2 24.5q0 42 -24.5 63.5t-80.5 21.5h-110l-115 -532h101q38 0 66 8t48 26
t33 46t22 69z" />
    <glyph glyph-name="Q" unicode="Q" horiz-adv-x="900" 
d="M350 -12q-57 10 -95.5 33.5t-62 57.5t-33.5 76.5t-10 91.5q0 38 5 78t14 82l152 708q19 87 51.5 165t86.5 136t133 92t191 34q85 0 142 -20t91.5 -55t49 -84t14.5 -106q0 -38 -5.5 -78.5t-14.5 -83.5l-153 -708q-16 -75 -42 -143t-66.5 -123t-98 -94t-136.5 -55l-27 -124
h-212zM495 214q1 0 2 -0.5t2 -0.5q41 1 69 17.5t47 43.5t30.5 62t19.5 72l152 706q5 25 9 49t4 47q0 21 -4.5 39t-15.5 31t-30 20.5t-48 7.5q-3 0 -5 1q-41 -1 -68.5 -18t-46.5 -44t-30.5 -61.5t-18.5 -70.5l-153 -707q-5 -25 -9 -49t-4 -46q0 -42 20.5 -70.5t77.5 -28.5z
" />
    <glyph glyph-name="R" unicode="R" horiz-adv-x="942" 
d="M117 0l328 1521h369q152 0 227.5 -57.5t75.5 -188.5q0 -64 -18 -145l-35 -165q-10 -48 -30.5 -91t-49 -80.5t-63.5 -68.5t-74 -56q37 -30 54 -66t17 -97q0 -45 -9 -111l-28 -210q-2 -14 -3 -27.5t-1 -26.5q0 -41 7 -73t14 -58h-250q-3 12 -8.5 44.5t-5.5 75.5q0 14 1 29
t3 30l28 211q2 15 3 28.5t1 26.5q0 40 -9 67.5t-24 44t-34 23.5t-40 7h-78l-127 -587h-241zM859 1133q5 20 6.5 36t1.5 30q0 51 -27 69t-78 18h-126l-101 -465h124q34 0 61 11t47.5 30.5t34 46t20.5 56.5z" />
    <glyph glyph-name="S" unicode="S" horiz-adv-x="879" 
d="M891 369q-40 -189 -150 -289t-304 -100q-84 0 -142 16t-94.5 47t-52.5 76.5t-16 104.5q0 34 5 72.5t14 81.5l23 105h240l-22 -103q-11 -47 -11 -79q0 -44 23 -65.5t80 -21.5q38 0 66 11.5t48 32t32.5 49t18.5 62.5l2 13q5 29 8.5 53.5t3.5 45.5q0 43 -15.5 75t-55.5 61
l-123 93q-45 34 -75.5 66t-50 64.5t-28 66.5t-8.5 73q0 34 5.5 72.5t16.5 84.5l6 27q43 197 156 287.5t290 90.5q150 0 221 -60.5t71 -185.5q0 -62 -16 -135l-26 -122h-240l27 134q6 25 6 48q0 40 -22 64t-73 24q-68 0 -105 -43t-50 -110l-5 -29q-5 -28 -5 -50
q0 -44 17 -81.5t54 -63.5l112 -76q92 -64 131 -136.5t39 -163.5q0 -32 -4 -65.5t-12 -70.5z" />
    <glyph glyph-name="T" unicode="T" horiz-adv-x="761" 
d="M779 1286l-278 -1286h-242l278 1286h-248l50 235h738l-49 -235h-249z" />
    <glyph glyph-name="U" unicode="U" horiz-adv-x="933" 
d="M1163 1521l-248 -1151q-19 -88 -50.5 -160t-84 -123t-130 -79t-187.5 -28q-85 0 -143 16.5t-93.5 48t-51 76t-15.5 100.5q0 34 5 71t14 78l248 1151h241l-248 -1149q-5 -21 -8 -40.5t-3 -36.5q0 -38 21.5 -60t82.5 -22q43 0 71 12t45.5 33.5t27.5 50.5t18 63l247 1149
h241z" />
    <glyph glyph-name="V" unicode="V" horiz-adv-x="861" 
d="M1182 1522l-590 -1522h-325l67 1522h243l-89 -1253l450 1253h244z" />
    <glyph glyph-name="W" unicode="W" horiz-adv-x="1342" 
d="M1634 1522l-524 -1522h-311l113 1122l-371 -1122h-311l132 1522h244l-133 -1152l375 1152h300l-122 -1152l364 1152h244z" />
    <glyph glyph-name="X" unicode="X" horiz-adv-x="909" 
d="M635 0l-69 543l-292 -543h-268l456 788l-104 733h265l57 -487l267 487h264l-428 -734l120 -787h-268z" />
    <glyph glyph-name="Y" unicode="Y" horiz-adv-x="853" 
d="M672 554l-120 -554h-241l120 554l-99 967h264l29 -635l314 635h238z" />
    <glyph glyph-name="Z" unicode="Z" horiz-adv-x="790" 
d="M55 0l46 218l640 1068h-390l50 235h663l-43 -202l-652 -1086h417l-49 -233h-682z" />
    <glyph glyph-name="bracketleft" unicode="[" horiz-adv-x="537" 
d="M73 -105l372 1729h379l-45 -213h-143l-281 -1302h142l-46 -214h-378z" />
    <glyph glyph-name="bracketright" unicode="]" horiz-adv-x="537" 
d="M41 -105l46 214h143l281 1302h-143l46 213h378l-373 -1729h-378z" />
    <glyph glyph-name="asciicircum" unicode="^" horiz-adv-x="1033" 
d="M517 848h-246l413 751h354l89 -751h-247l-49 535h-33z" />
    <glyph glyph-name="underscore" unicode="_" horiz-adv-x="842" 
d="M-24 -235l41 195h792l-42 -195h-791z" />
    <glyph glyph-name="quoteleft" unicode="&#x2018;" horiz-adv-x="365" 
d="M597.964 1506.91q-16.999 -38.998 -32.998 -76.4951q-15.999 -37.498 -28.499 -70.9961q-12.499 -33.498 -19.998 -61.4961q-7.5 -27.998 -7.5 -45.9971q0 -29.998 21.999 -29.998h38.9971l-49.9961 -229.986l-252.985 -2l46.9971 217.986q9 44.998 41.498 126.493
t96.4941 196.487z" />
    <glyph glyph-name="b" unicode="b" horiz-adv-x="914" 
d="M116 0l338 1568h236l-103 -476q35 59 85 95.5t121 36.5q67 0 112.5 -17t72.5 -48t38.5 -74t11.5 -94q0 -45 -7 -94t-18 -102l-84 -387q-19 -88 -46.5 -165.5t-72.5 -136t-110.5 -92.5t-161.5 -34q-73 0 -107.5 36.5t-44.5 96.5l-24 -113h-236zM688 996q-42 0 -70 -21
t-47.5 -53t-31 -72t-20.5 -77l-73 -342q-7 -29 -12.5 -59.5t-5.5 -59.5q0 -21 4 -40t14.5 -32.5t28 -21.5t43.5 -8q42 0 69.5 16.5t45.5 43.5t29 62t20 73l84 396q6 26 10.5 53t4.5 50q0 20 -4.5 37t-15 29t-28.5 19t-45 7z" />
    <glyph glyph-name="f.001" horiz-adv-x="602" 
d="M255 1203h131l2 8q19 90 46 163t69.5 125.5t105 81t154.5 28.5q74 0 121 -21.5t74 -45.5l-58 -199q-9 6 -21.5 13t-30.5 13.5t-41 11t-53 4.5q-29 0 -49 -9.5t-34.5 -30.5t-25 -54t-20.5 -80l-2 -8h228l-48 -221h-228l-211 -982h-237l211 982h-130z" />
    <glyph glyph-name="g" unicode="g" horiz-adv-x="892" 
d="M1055 1202l-261 -1211q-20 -90 -50.5 -163t-78.5 -125.5t-115 -81t-158 -28.5q-100 0 -170 14.5t-110 39.5l58 199q16 -7 42 -12.5t57.5 -9t65.5 -5.5t66 -2q58 0 96.5 39.5t59.5 134.5l26 121q-35 -60 -84.5 -96t-121.5 -36q-67 0 -112 17t-72 48t-38.5 73.5t-11.5 93.5
q0 45 7 94t18 102l83 388q19 87 46.5 165t72.5 136t111 92t162 34q72 0 106.5 -37t43.5 -98l25 114h237zM482 208q42 0 70.5 20.5t48 53t31 71.5t19.5 76l74 344q6 29 11 59t5 59q0 21 -4 40t-14 33t-27.5 22t-43.5 8q-42 0 -70 -16.5t-46 -43.5t-28.5 -62.5t-18.5 -72.5
l-85 -397q-6 -26 -10.5 -52.5t-4.5 -49.5q0 -40 19.5 -66t73.5 -26z" />
    <glyph glyph-name="i" unicode="i" horiz-adv-x="448" 
d="M395 1431q0 70 39 108.5t129 38.5q62 0 91 -21.5t29 -66.5q0 -69 -38 -108t-132 -39q-118 0 -118 88zM106 0l260 1202h236l-259 -1202h-237z" />
    <glyph glyph-name="k" unicode="k" horiz-adv-x="878" 
d="M680 1568l-183 -846h85l279 480h241l-369 -601l141 -601h-262l-84 489h-81l-105 -489h-237l339 1568h236z" />
    <glyph glyph-name="l" unicode="l" horiz-adv-x="449" 
d="M106 0l338 1568h237l-339 -1568h-236z" />
    <glyph glyph-name="m" unicode="m" horiz-adv-x="1399" 
d="M583 0l173 800q6 29 11.5 56.5t5.5 52.5q0 37 -18.5 61t-70.5 24q-39 0 -67 -18t-48 -46.5t-33 -64t-22 -71.5l-68 -315l-103 -479h-236l258 1202h237l-24 -110q51 59 114 94.5t138 35.5q83 0 125.5 -36t56.5 -97q51 63 119.5 98t155.5 35q61 0 101.5 -16t65 -44.5
t34.5 -68t10 -87.5t-8 -100.5t-20 -109.5l-171 -796h-237l173 800q6 29 11.5 56.5t5.5 51.5q0 19 -4 34.5t-14.5 27t-28 18t-43.5 6.5q-42 0 -71.5 -20.5t-50 -53t-33 -72t-20.5 -76.5l-62 -294l-2 3l-103 -481h-237z" />
    <glyph glyph-name="r" unicode="r" horiz-adv-x="610" 
d="M808 955q-4 1 -13 6t-23 11t-34 11t-46 5h-1q-40 0 -69.5 -18.5t-51 -47.5t-35.5 -66t-23 -73l-169 -783h-236l259 1202h236l-27 -127q37 66 88.5 107.5t125.5 41.5v-2l2 2q14 0 34.5 -4.5t35.5 -16.5z" />
    <glyph glyph-name="s" unicode="s" horiz-adv-x="808" 
d="M837 408q0 -100 -29.5 -179t-86 -134.5t-138.5 -85t-186 -29.5q-80 0 -135 17t-89.5 49t-49.5 78t-15 104q0 35 5.5 74.5t14.5 82.5h237q-5 -21 -7.5 -40.5t-2.5 -37.5q0 -43 19 -70t69 -27q34 0 59.5 12t42.5 31t25 43t8 49q0 40 -25.5 71.5t-63.5 60.5t-82.5 59
t-82.5 67.5t-63.5 86t-25.5 113.5q0 103 29.5 182t85.5 132t136.5 80t183.5 27q62 0 112.5 -11t86.5 -37.5t55.5 -72t19.5 -114.5q0 -63 -18 -150l-237 1q4 17 6.5 34.5t2.5 34.5q0 36 -16.5 61.5t-60.5 25.5q-32 0 -57.5 -11.5t-42.5 -30t-26 -41.5t-9 -47q0 -36 26 -65.5
t65 -58.5t84.5 -59.5t84.5 -69.5t65 -89t26 -116z" />
    <glyph glyph-name="v" unicode="v" horiz-adv-x="823" 
d="M1073 1203l-498 -1203h-327l20 1203h244l-50 -968l367 968h244z" />
    <glyph glyph-name="w" unicode="w" horiz-adv-x="1362" 
d="M274 1203h244l-90 -975h9l332 975h345l-88 -975h7l333 975h243l-438 -1203h-367l85 960l-328 -960h-368z" />
    <glyph glyph-name="x" unicode="x" horiz-adv-x="803" 
d="M552 0l-68 403l-247 -403h-231l384 625l-112 577h249l59 -369l227 369h231l-360 -577l115 -625h-247z" />
    <glyph glyph-name="y" unicode="y" horiz-adv-x="811" 
d="M512 1203l-63 -996h1l36 93q84 227 166.5 451.5t165.5 451.5h245q-81 -208 -162 -413.5t-162 -413.5l-156 -400q-33 -86 -77 -156t-94.5 -124t-106 -92t-112.5 -59l-67 167q31 14 62.5 34t61.5 50t58 73t52 105l10 26h-149l48 1203h243z" />
    <glyph glyph-name="z" unicode="z" horiz-adv-x="761" 
d="M43 0l43 202l563 780h-365l46 220h629l-43 -200l-560 -776h391l-48 -226h-656z" />
    <glyph glyph-name="braceleft" unicode="{" horiz-adv-x="581" 
d="M211 873q43 3 71.5 16t48.5 39t33.5 68t27.5 102q11 49 21 97l20 96q21 105 63.5 170t96.5 101t113.5 49t112.5 13h63l-45 -213h-35q-36 0 -59.5 -10.5t-38.5 -31t-24.5 -51.5t-18.5 -72l-63 -273q-23 -101 -67 -152t-113 -61q50 -8 74 -37.5t24 -87.5q0 -39 -10 -88
l-59 -291q-9 -45 -9 -75q0 -36 17.5 -54t65.5 -18h34l-46 -214h-63q-45 0 -90.5 9t-82 33.5t-59.5 67.5t-23 112q0 47 14 112l42 192q8 40 13 71.5t5 55.5q0 49 -23 71.5t-79 26.5l48 227v0z" />
    <glyph glyph-name="bar" unicode="|" horiz-adv-x="834" 
d="M99 -82l363 1685h242l-364 -1685h-241z" />
    <glyph glyph-name="braceright" unicode="}" horiz-adv-x="582" 
d="M698 646q-43 -3 -71.5 -16t-49 -39t-34 -67.5t-26.5 -101.5l-40 -193q-21 -105 -64 -170.5t-97 -101.5t-113 -49t-113 -13h-63l46 214h34q34 0 56.5 9t37.5 27.5t25 46t19 64.5l66 291q24 104 67.5 153.5t112.5 59.5q-49 8 -73 38t-24 89q0 39 10 86l55 273q5 29 9 52.5
t4 42.5q0 35 -18 52.5t-66 17.5h-34l46 213h63q45 0 91 -9t82.5 -33.5t59.5 -67.5t23 -112q0 -47 -14 -112l-42 -191q-9 -40 -14 -72t-5 -56q0 -50 23.5 -72t79.5 -26z" />
    <glyph glyph-name="asciitilde" unicode="~" horiz-adv-x="834" 
d="M927 663q-39 -49 -93.5 -78.5t-129.5 -29.5q-46 0 -84 15t-72.5 32.5t-66.5 32.5t-66 15q-42 0 -82.5 -13t-71.5 -46l-10 159q37 48 92 78t129 30q43 0 82 -15t75 -32.5t69.5 -32.5t66.5 -15q39 0 79.5 12.5t72.5 46.5z" />
    <glyph glyph-name="exclamdown" unicode="&#xa1;" horiz-adv-x="501" 
d="M487.971 812.95l-204.988 -1120.93h-272.983l274.983 1120.93h202.988zM596.964 1136.93q0 -38.998 -9 -69.4961q-8.99902 -30.498 -29.498 -52.4961q-20.499 -21.999 -53.4971 -33.498q-32.998 -11.5 -80.9941 -11.5q-61.9971 0 -90.4951 23.499
q-28.498 23.498 -28.498 71.4951q0 80.9951 39.9971 124.493q39.998 43.4971 134.992 43.4971q59.9961 0 88.4941 -23.999q28.499 -23.998 28.499 -71.9951z" />
    <glyph glyph-name="cent" unicode="&#xa2;" horiz-adv-x="896" 
d="M656 398q1 0 1 1h235l-9 -39q-15 -69 -40 -131t-64.5 -111t-95.5 -83t-134 -47l-33 -155h-211l34 158q-51 12 -86 34.5t-56.5 54.5t-30.5 72t-9 86q0 39 5.5 82t15.5 88l83 388q16 76 41.5 144.5t65 124t97 94.5t138.5 55l35 163h211l-35 -162q53 -11 89.5 -32.5
t58.5 -52t31.5 -69t9.5 -83.5q0 -32 -4 -66.5t-12 -70.5l-8 -37h-235l5 24q3 12 5 25t2 27q0 22 -7 40t-26 26q-8 11 -10 37.5t-2 58.5h-18q-6 -20 -13.5 -33t-16.5 -13q-42 0 -69.5 -16.5t-45.5 -44t-29 -63t-19 -72.5l-86 -396q-6 -26 -10.5 -52.5t-4.5 -49.5
q0 -20 4.5 -37t15 -29t29 -19t45.5 -7q12 0 12 -23h20q8 18 16 31t17 16q28 7 45.5 27.5t28 45t16 49.5t8.5 42z" />
    <glyph glyph-name="sterling" unicode="&#xa3;" horiz-adv-x="852" 
d="M226 753h116q-5 75 -12.5 151t-7.5 149q0 36 3 71q6 82 28.5 160t73 138.5t134 97.5t210.5 37q74 0 126 -17t84.5 -50t47.5 -81t15 -111q0 -54 -10 -118t-29 -138l-237 -2q1 15 5.5 37t9 47t8 51.5t3.5 50.5q0 21 -3.5 39.5t-11.5 32t-22.5 21.5t-35.5 8q-38 0 -69 -16
t-53 -50.5t-33.5 -89t-11.5 -132.5q0 -26 3.5 -58.5t8 -69.5t10 -77t8.5 -81h255l-46 -216h-214q-10 -62 -29 -113.5t-42.5 -91t-49 -67t-49.5 -42.5q9 2 18.5 2h19.5q46 0 94.5 -7t86.5 -7q40 0 75 7t79 36l38 -197q-46 -39 -97.5 -55.5t-108.5 -16.5q-39 0 -84.5 3.5
t-92.5 8t-94 8.5t-89 4q-26 0 -60 -3t-65 -6q-36 -4 -73 -8l48 227q60 15 103 42t71.5 66.5t43.5 92t21 117.5h-164z" />
    <glyph glyph-name="fraction" unicode="&#x2044;" horiz-adv-x="597" 
d="M149 -52l-198 39l794 1547l192 -38z" />
    <glyph glyph-name="yen" unicode="&#xa5;" horiz-adv-x="852" 
d="M735 671h186l-30 -140h-222l-24 -108h223l-30 -140h-223l-61 -283h-241l61 283h-216l30 140h216l24 108h-217l31 140h179l-87 850h264l28 -635l316 635h237z" />
    <glyph glyph-name="section" unicode="&#xa7;" horiz-adv-x="851" 
d="M195 567q0 137 61 223.5t180 121.5q-45 40 -76 91.5t-31 125.5q0 103 29.5 181.5t85.5 131.5t136.5 80t183.5 27q62 0 112.5 -11t86 -37.5t55 -71.5t19.5 -114q0 -64 -18 -151l-237 2q4 17 7 35t3 35q0 35 -16.5 60t-60.5 25q-32 0 -57.5 -11.5t-42.5 -30t-26 -41.5
t-9 -46q0 -36 26 -65.5t65 -58.5t84.5 -59.5t84.5 -69.5t65 -89t26 -116q0 -138 -61 -225t-181 -122q45 -40 76 -91.5t31 -124.5q0 -103 -29.5 -181.5t-85 -131.5t-136 -80t-182.5 -27q-62 0 -112.5 10.5t-86.5 37t-56 71.5t-20 114q0 67 19 152l236 -1q-8 -37 -8 -69
q0 -36 16 -61.5t60 -25.5q32 0 57 11.5t42.5 30t26.5 41.5t9 46q0 36 -26 66t-65 59t-84.5 59.5t-84.5 69.5t-65 88.5t-26 116.5zM454 630q0 -25 10 -46t28 -41q16 -8 45 -8q35 0 60 12t41.5 31.5t24.5 43.5t8 49t-11 46.5t-29 41.5q-18 6 -42 6q-35 0 -60.5 -12t-42 -31
t-24.5 -43t-8 -49z" />
    <glyph glyph-name="currency" unicode="&#xa4;" horiz-adv-x="800" 
d="M272 654q0 42 12.5 81.5t35.5 74.5l-62 80l180 148l66 -84q26 9 52.5 14t53.5 5t51 -5.5t46 -15.5l105 86l118 -148l-106 -88q6 -26 6 -55q0 -41 -12 -79t-33 -72l64 -81l-181 -150l-64 82q-55 -20 -111 -20q-53 0 -99 22l-100 -83l-117 149l101 82q-6 27 -6 57zM448 683
q0 -35 22.5 -59t58.5 -24q24 0 46.5 9.5t40 25.5t28 37.5t10.5 45.5q0 35 -22.5 59t-58.5 24q-23 0 -45.5 -9.5t-40 -26t-28.5 -37.5t-11 -45z" />
    <glyph glyph-name="quotesingle" unicode="'" horiz-adv-x="362" 
d="M326 1096l74 425h218l-111 -425h-181z" />
    <glyph glyph-name="quotedblleft" unicode="&#x201c;" horiz-adv-x="769" 
d="M598.964 1519.91q-16.999 -38.998 -32.998 -76.4951q-15.999 -37.498 -28.499 -70.9961q-12.499 -33.498 -19.998 -61.4961q-7.5 -27.998 -7.5 -45.9971q0 -29.998 21.999 -29.998h38.9971l-49.9971 -229.986l-252.984 -2l46.9971 217.987q9 44.9971 41.498 126.492
t96.4941 196.488zM998.939 1517.91q-16.999 -38.9971 -32.998 -76.4951t-28.499 -70.9961q-12.499 -33.498 -19.998 -61.4961q-7.5 -27.998 -7.5 -45.9971q0 -29.998 21.999 -29.998h38.9971l-49.9971 -229.986l-252.984 -2l46.9971 217.987q9 44.9971 41.498 126.492
t96.4941 196.488z" />
    <glyph glyph-name="guillemotleft" unicode="&#xab;" horiz-adv-x="898" 
d="M255 188l-88 402l262 404h237l-271 -404l97 -402h-237zM661 188l-88 402l262 404h237l-271 -404l97 -402h-237z" />
    <glyph glyph-name="guilsinglright" unicode="&#x203a;" horiz-adv-x="476" 
d="M82 188l277 402l-91 404h233l82 -404l-268 -402h-233z" />
    <glyph glyph-name="endash" unicode="&#x2013;" horiz-adv-x="879" 
d="M169 483l46 211h755l-45 -211h-756z" />
    <glyph glyph-name="dagger" unicode="&#x2020;" horiz-adv-x="841" 
d="M730 877l-257 -1190h-236l256 1190h-263l50 232h262l90 415h237l-90 -415h262l-50 -232h-261z" />
    <glyph glyph-name="periodcentered" unicode="&#xb7;" horiz-adv-x="436" 
d="M197 553q0 78 39.5 122.5t133.5 44.5q62 0 91 -23.5t29 -72.5q0 -81 -41 -124t-136 -43q-116 0 -116 96z" />
    <glyph glyph-name="paragraph" unicode="&#xb6;" horiz-adv-x="1125" 
d="M404 -369l210 978q-173 5 -256.5 87.5t-83.5 238.5q0 138 31.5 247t97 184t167 115t241.5 40h214l-408 -1890h-213zM741 -369l408 1890h212l-407 -1890h-213z" />
    <glyph glyph-name="bullet" unicode="&#x2022;" horiz-adv-x="811" 
d="M879 760q0 -76 -32 -143t-86 -117.5t-124 -80t-145 -29.5q-56 0 -103.5 20t-81.5 54.5t-53 82t-19 102.5q0 75 33.5 142t88.5 117.5t125.5 79.5t143.5 29q57 0 104 -19.5t80 -54t51 -81.5t18 -102z" />
    <glyph glyph-name="quotesinglbase" unicode="&#x201a;" horiz-adv-x="418" 
d="M32 -272q17 39 33 76.5t28.5 71t20 61.5t7.5 46q0 30 -22 30h-39l50 230l253 2l-47 -218q-9 -45 -41.5 -126.5t-96.5 -196.5z" />
    <glyph glyph-name="quotedblbase" unicode="&#x201e;" horiz-adv-x="860" 
d="M32 -272q17 39 33 76.5t28.5 71t20 61.5t7.5 46q0 30 -22 30h-39l50 230l253 2l-47 -218q-9 -45 -41.5 -126.5t-96.5 -196.5zM433 -272q17 39 33 76.5t28.5 71t20 61.5t7.5 46q0 30 -22 30h-39l50 230l253 2l-47 -218q-9 -45 -41.5 -126.5t-96.5 -196.5z" />
    <glyph glyph-name="quotedblright" unicode="&#x201d;" horiz-adv-x="779" 
d="M252 1005q17 39 33 76.5t28.5 71t20 61.5t7.5 46q0 30 -22 30h-39l50 230l253 2l-47 -218q-9 -45 -41.5 -126.5t-96.5 -196.5zM653 1005q17 39 33 76.5t28.5 71t20 61.5t7.5 46q0 30 -22 30h-39l50 230l253 2l-47 -218q-9 -45 -41.5 -126.5t-96.5 -196.5z" />
    <glyph glyph-name="perthousand" unicode="&#x2030;" horiz-adv-x="2234" 
d="M332 1194q18 82 42.5 146.5t65 108.5t100.5 67t148 23q63 0 106.5 -12t70 -36t38 -58.5t11.5 -79.5q0 -34 -5.5 -73.5t-15.5 -84.5l-53 -243q-18 -84 -43 -148.5t-64.5 -109t-99 -67.5t-146.5 -23q-126 0 -178.5 47.5t-52.5 141.5q0 56 17 133zM527 794q39 0 62 28.5
t38 99.5l59 275q7 31 11 55t4 42q0 29 -12.5 42.5t-41.5 13.5q-25 0 -41.5 -9t-28.5 -27.5t-20.5 -47.5t-17.5 -68l-54 -250q-6 -29 -10 -52.5t-4 -41.5q0 -30 12.5 -45t43.5 -15zM691 0h-228l763 1521h229zM1029 425q17 82 41.5 146t65 108.5t101 67.5t148.5 23
q63 0 106.5 -12t70.5 -36t38.5 -59t11.5 -80q0 -34 -6 -74t-16 -85l-23 -102q-19 -84 -44 -149t-65 -109.5t-99 -67.5t-146 -23q-63 0 -106.5 12t-70.5 35.5t-39 58.5t-12 82q0 29 4 62.5t12 71.5zM1253 163q39 0 62.5 28.5t38.5 99.5l29 136q14 64 14 98q0 29 -11.5 42.5
t-40.5 13.5q-25 0 -42 -9t-29 -28t-20.5 -48t-17.5 -68l-24 -110q-7 -29 -10.5 -52.5t-3.5 -41.5q0 -31 12.5 -46t42.5 -15zM1665 424q19 82 44.5 146.5t65.5 108.5t99.5 67.5t147.5 23.5q63 0 106.5 -12.5t69.5 -36t37.5 -58.5t11.5 -80q0 -34 -5.5 -73.5t-15.5 -84.5
l-23 -103q-18 -84 -43 -149t-65 -109.5t-99 -67.5t-146 -23q-126 0 -179 47.5t-53 139.5q0 58 18 135zM1890 163q38 0 62 28t38 99l30 137q6 30 10 54.5t4 42.5q0 29 -12 43t-41 14q-25 0 -42 -9t-28.5 -28t-20 -48t-17.5 -68l-24 -110q-14 -62 -14 -96q0 -30 12.5 -44.5
t42.5 -14.5z" />
    <glyph glyph-name="grave" unicode="`" horiz-adv-x="438" 
d="M592 1556l71 -275h-167l-115 275h211z" />
    <glyph glyph-name="acute" unicode="&#xb4;" horiz-adv-x="527" 
d="M779 1556l-240 -275h-174l189 275h225z" />
    <glyph glyph-name="circumflex" unicode="&#x2c6;" horiz-adv-x="473" 
d="M270 1281l190 241h224l86 -241h-193l-32 119l-82 -119h-193z" />
    <glyph glyph-name="tilde" unicode="&#x2dc;" horiz-adv-x="471" 
d="M859 1514q-20 -44 -45 -82.5t-56 -67t-68.5 -44.5t-82.5 -16q-33 0 -58 10.5t-45.5 22.5t-40 22.5t-42.5 10.5q-29 0 -55 -15t-51 -54l-109 40q21 43 46.5 81t56.5 66t68 44.5t81 16.5q36 0 61.5 -10.5t46.5 -23t39.5 -23t41.5 -10.5q30 0 54.5 16.5t47.5 53.5z" />
    <glyph glyph-name="macron" unicode="&#xaf;" horiz-adv-x="472" 
d="M289 1342l38 179h477l-38 -179h-477z" />
    <glyph glyph-name="breve" unicode="&#x2d8;" horiz-adv-x="712" 
d="M957 1550q-14 -56 -39.5 -105t-66.5 -85.5t-98.5 -57.5t-133.5 -21q-64 0 -108 14.5t-71.5 40.5t-39.5 61t-12 77q0 18 2 37t6 39h135q-3 -24 -3 -44q0 -21 5 -37.5t18 -28.5t36.5 -18.5t60.5 -6.5q43 0 72 9.5t48 26.5t31 42t22 57h136z" />
    <glyph glyph-name="dotaccent" unicode="&#x2d9;" horiz-adv-x="487" 
d="M373 1373q0 78 40 123t134 45q62 0 91 -23.5t29 -73.5q0 -81 -41 -124t-136 -43q-117 0 -117 96z" />
    <glyph glyph-name="dieresis" unicode="&#xa8;" horiz-adv-x="481" 
d="M281 1385q0 33 7 61t23.5 47.5t43.5 30.5t66 11q93 0 93 -82q0 -71 -33 -110t-110 -39q-90 0 -90 81zM548 1385q0 34 7.5 61.5t24 47t43 30.5t65.5 11q48 0 70.5 -20t22.5 -61q0 -70 -32 -110t-111 -40q-90 0 -90 81z" />
    <glyph glyph-name="ring" unicode="&#x2da;" horiz-adv-x="417" 
d="M300 1420q0 58 14.5 104.5t45.5 79.5t80.5 51t120.5 18q94 0 137 -36t43 -110q0 -122 -62.5 -188t-203.5 -66q-91 0 -133 37t-42 110zM457 1457q0 -43 50 -43q41 0 58.5 20t17.5 55q0 20 -12 30.5t-39 10.5q-42 0 -58.5 -20.5t-16.5 -52.5z" />
    <glyph glyph-name="cedilla" unicode="&#xb8;" horiz-adv-x="624" 
d="M65 -251q14 -11 27.5 -19.5t30.5 -15t38.5 -10t52.5 -3.5q43 0 73 18t30 53q0 12 -7.5 21t-20.5 14.5t-29 8t-33 2.5q-32 0 -58 -8l49 226h120l-24 -110q8 1 18 3q8 2 19 3t24 1q29 0 52 -10t38.5 -27.5t23.5 -40.5t8 -49q0 -53 -23 -94t-63.5 -69t-95.5 -42t-119 -14
q-69 0 -116 23t-70 52z" />
    <glyph glyph-name="hungarumlaut" unicode="&#x2dd;" horiz-adv-x="406" 
d="M585 1556l-233 -275h-167l190 275h210zM848 1556l-234 -275h-167l190 275h211z" />
    <glyph glyph-name="ogonek" unicode="&#x2db;" horiz-adv-x="485" 
d="M298 -389q-28 -23 -69.5 -36.5t-92.5 -13.5q-41 0 -76.5 9.5t-62 30.5t-42 54t-15.5 80q0 67 25.5 114.5t68.5 83t99 62t116 50.5l86 -45q-40 -22 -72.5 -44.5t-56 -48t-36 -56.5t-12.5 -70q0 -61 59 -61q17 0 29.5 1t23 4t20 7.5t21.5 10.5z" />
    <glyph glyph-name="caron" unicode="&#x2c7;" horiz-adv-x="682" 
d="M610 1522l31 -118l83 118h193l-191 -241h-224l-86 241h194z" />
    <glyph glyph-name="emdash" unicode="&#x2014;" horiz-adv-x="1311" 
d="M198 484l45 210h1114l-45 -210h-1114z" />
    <glyph glyph-name="AE" unicode="&#xc6;" horiz-adv-x="1105" 
d="M-33 0l720 1521h701l-51 -234l-315 -1l-86 -396h246l-50 -233h-246l-92 -424h315l-49 -233h-557l57 266h-231l-120 -266h-242zM608 487l165 765l-345 -765h180z" />
    <glyph glyph-name="Lslash" unicode="&#x141;" horiz-adv-x="796" 
d="M217 0l93 431l-117 -76l56 265l118 78l178 823h242l-138 -638l177 116l-56 -267l-179 -117l-83 -384h387l-49 -231h-629z" />
    <glyph glyph-name="OE" unicode="&#x152;" horiz-adv-x="1312" 
d="M575 0l15 70q-16 -17 -33 -32.5t-38 -27.5t-46.5 -19.5t-56.5 -7.5q-73 0 -122.5 18t-79.5 50.5t-43 77.5t-13 100q0 41 5.5 85t16.5 92l153 712q19 88 49 165t79 134.5t119.5 90.5t170.5 33q54 0 88 -21t53 -47l11 50l646 1l-49 -233h-405l-87 -401h335l-50 -233h-335
l-92 -424h404l-50 -233h-645zM510 217q42 0 73.5 21t51.5 48l207 953q-10 27 -33 48t-65 21q-26 0 -46.5 -8t-36 -21t-27 -29.5t-20.5 -32.5q-20 -47 -36 -102t-30 -121l-97 -448q-14 -67 -22 -122.5t-8 -100.5q0 -49 18 -77.5t71 -28.5z" />
    <glyph glyph-name="ordmasculine" unicode="&#xba;" horiz-adv-x="710" 
d="M332 1194q18 82 43 146.5t65 108.5t100 67t148 23q63 0 106 -12t69.5 -35.5t37.5 -58t11 -79.5q0 -67 -20 -159l-20 -93q-17 -84 -42 -148.5t-65 -109t-99.5 -67.5t-146.5 -23q-126 0 -178 47.5t-52 140.5q0 57 17 134zM559 944q20 0 35 6t27 20t21 37.5t17 58.5l29 136
q14 62 14 95q0 29 -12 42t-42 13q-26 0 -42.5 -8.5t-28.5 -26.5t-20.5 -46.5t-17.5 -67.5l-23 -109q-14 -61 -14 -93q0 -29 12.5 -43t44.5 -14zM237 694h535l-40 -188h-535z" />
    <glyph glyph-name="dotlessi" unicode="&#x131;" horiz-adv-x="449" 
d="M107 0l258 1202h238l-259 -1202h-237z" />
    <glyph glyph-name="Euro" unicode="&#x20ac;" horiz-adv-x="923" 
d="M807 1039l19 89q5 21 8.5 41t3.5 40q0 42 -21 70.5t-78 29.5q-42 0 -71 -16.5t-48 -43.5t-31 -62.5t-20 -72.5l-34 -159h379l-48 -151h-364l-19 -91h348l-48 -150h-333l-33 -155q-6 -25 -10 -49t-4 -47q0 -21 4.5 -39t16 -31t30.5 -20.5t48 -7.5q40 0 68 15t47.5 39.5
t31 57t19.5 67.5l19 90h242l-20 -91q-17 -82 -48.5 -156.5t-85.5 -131t-133 -90t-189 -33.5q-1 0 -1 -1q-85 0 -142 20t-91.5 55t-49 84t-14.5 106q0 38 5.5 78.5t14.5 83.5l33 156h-71l48 150h55l20 91h-71l48 151h55l35 160q19 87 51.5 164.5t86.5 135.5t132.5 92.5
t189.5 34.5l1 1q85 0 142.5 -20t92 -55.5t49.5 -84t15 -104.5q0 -35 -5 -73t-14 -77l-19 -90h-242z" />
    <glyph glyph-name="trademark" unicode="&#x2122;" horiz-adv-x="1543" 
d="M1088 1071h-4l-101 -526h-205l211 979h253l29 -542h6l263 542h252l-211 -979h-205l128 526h-4l-214 -429h-169zM713 1325l-170 -780h-206l169 780h-183l42 198h571l-42 -198h-181z" />
    <glyph glyph-name="copyright" unicode="&#xa9;" horiz-adv-x="1489" 
d="M1503 472q-42 -195 -117.5 -326.5t-179 -212t-232 -115t-276.5 -34.5q-123 0 -222 23.5t-169 76.5t-108 138.5t-38 210.5q0 107 30 245l88 405q42 193 117 324.5t178 211t231.5 114t277.5 34.5q122 0 221 -23.5t169 -77t108 -139.5t38 -211q0 -103 -29 -240zM1392 881
q11 52 17 97.5t6 86.5q0 162 -92.5 238.5t-279.5 77.5q-118 0 -210.5 -29.5t-162 -90.5t-117 -154t-75.5 -220l-89 -413q-23 -109 -23 -189q0 -163 90.5 -238.5t280.5 -76.5q119 0 212 29.5t162 90.5t116.5 155t74.5 222zM966 486h205l-4 -17q-17 -72 -43 -138.5t-71 -117
t-113.5 -80.5t-169.5 -30q-75 0 -125 17.5t-80 48.5t-42.5 74t-12.5 94q0 37 5.5 77t14.5 82l62 286q5 25 10.5 49.5t11.5 50.5q17 76 46 142t76 114.5t114.5 76t162.5 27.5q75 0 125 -17t80 -47t42.5 -71t12.5 -89q0 -33 -5 -69t-13 -73l-4 -18h-205l5 21q5 18 8 37t3 37
t-4.5 33.5t-15 27t-28 18.5t-44.5 7q-40 0 -66.5 -15.5t-44 -42t-27.5 -60.5t-18 -70l-54 -250q-11 -50 -20.5 -95t-15.5 -90q-2 -20 0.5 -39.5t11.5 -35t27 -25t48 -9.5q39 0 65.5 14t43.5 36.5t26.5 51.5t15.5 58z" />
    <glyph glyph-name="minus" unicode="&#x2212;" horiz-adv-x="834" 
d="M215 598l45 210h662l-45 -210h-662z" />
    <glyph glyph-name="degree" unicode="&#xb0;" horiz-adv-x="489" 
d="M756 1355q0 -54 -20.5 -104t-58 -88.5t-89.5 -61t-114 -22.5q-44 0 -77.5 14t-56 39t-34 58.5t-11.5 71.5q0 54 21 104.5t58 90t88 63t112 23.5q45 0 79 -15t57 -40.5t34.5 -59.5t11.5 -73zM615 1334q0 33 -17.5 53t-52.5 20q-24 0 -44 -9.5t-34.5 -26t-23 -38.5
t-8.5 -48q0 -32 17 -54.5t49 -22.5q27 0 48 10.5t35.5 28.5t22.5 40.5t8 46.5z" />
    <glyph glyph-name="plusminus" unicode="&#xb1;" horiz-adv-x="834" 
d="M479 769h-227l45 210h226l50 226h209l-48 -226h225l-45 -210h-226l-49 -226h-209zM137 229l45 210h662l-45 -210h-662z" />
    <glyph glyph-name="onehalf" unicode="&#xbd;" horiz-adv-x="1551" 
d="M409 1685q55 26 108 62t90 74h171l-210 -976h-207l157 729q-26 -28 -66.5 -48t-82.5 -30zM973 301l42 196q23 54 66.5 102.5t95.5 93t106.5 86.5t99 83t73 82t28.5 85q0 30 -13.5 50.5t-44.5 20.5q-23 0 -39.5 -10t-28 -26t-18.5 -36t-11 -41l-6 -29h-206l11 51
q14 66 41.5 120t70 91.5t100.5 58t133 20.5q112 0 167.5 -56t55.5 -164q0 -80 -27.5 -143t-70.5 -114.5t-94.5 -94t-100 -80.5t-87 -74t-55.5 -75h308l-43 -197h-553zM531 -52l-198 39l794 1547l192 -38z" />
    <glyph glyph-name="Eth" unicode="&#xd0;" horiz-adv-x="928" 
d="M588 598h-447l45 210h447zM792 1521q82 -1 138.5 -20.5t90.5 -54t49 -82.5t15 -106q0 -37 -5.5 -77.5t-14.5 -83.5l-144 -673q-19 -88 -52 -165.5t-86.5 -135t-132 -90.5t-189.5 -33h-361l329 1521h363zM517 233q35 1 61.5 14.5t46 38.5t33 59.5t23.5 78.5l144 673
q12 49 12 88q0 47 -21 73t-71 28h-126l-228 -1053h126z" />
    <glyph glyph-name="multiply" unicode="&#xd7;" horiz-adv-x="835" 
d="M420 702l-136 174l181 149l136 -174l210 173l117 -148l-211 -173l137 -174l-180 -149l-137 174l-211 -174l-117 149z" />
    <glyph glyph-name="eth" unicode="&#xf0;" horiz-adv-x="902" 
d="M674 1365q-35 17 -65 19.5t-44 4.5l145 195q20 -3 58.5 -11.5t83.5 -32.5l72 71l80 -71l-68 -66q21 -23 38.5 -53.5t31 -69t21 -86t7.5 -105.5q0 -54 -7 -115.5t-23 -134.5l-1 -5l-109 -505q-19 -88 -49.5 -164.5t-81.5 -133.5t-127.5 -89.5t-186.5 -32.5q-83 0 -139 19
t-89.5 53.5t-47.5 81.5t-14 103q0 40 6 83t16 89l73 340q19 88 45 165t69.5 134t108 90t160.5 33q77 0 113 -38t46 -101q3 36 3 66q0 69 -13 117.5t-33 80.5l-78 -76l-79 69zM495 210q42 0 69.5 16t46 44t30 66t20.5 82l66 309q6 29 11.5 59.5t5.5 59.5q0 21 -4 40t-14 32.5
t-27 21.5t-43 8q-43 0 -71 -16.5t-46 -43.5t-28.5 -62.5t-18.5 -72.5l-75 -349q-6 -26 -10.5 -53t-4.5 -50q0 -20 4.5 -36.5t15 -28.5t28.5 -19t45 -7z" />
    <glyph glyph-name="divide" unicode="&#xf7;" horiz-adv-x="834" 
d="M215 598l45 210h662l-45 -210h-662zM490 982q0 78 39.5 122.5t133.5 44.5q62 0 91 -23.5t29 -72.5q0 -81 -41 -124t-136 -43q-116 0 -116 96zM354 352q0 78 39.5 122.5t133.5 44.5q62 0 91 -23.5t29 -72.5q0 -81 -41 -124t-136 -43q-116 0 -116 96z" />
    <glyph glyph-name="thorn" unicode="&#xfe;" horiz-adv-x="927" 
d="M27 -366l408 1887h236l-92 -426q35 59 84 94t120 35q67 0 112.5 -17t72.5 -48t38.5 -74t11.5 -94q0 -45 -7 -94t-18 -102l-84 -387q-19 -88 -46.5 -165.5t-72 -136t-110.5 -92.5t-162 -34q-73 0 -107 37t-43 98l-104 -481h-237zM679 996q-36 0 -62 -15.5t-45 -40.5
t-31.5 -57.5t-21.5 -65.5l-86 -399q-5 -26 -9.5 -53t-4.5 -52q0 -21 4 -40t14.5 -33t28 -22t43.5 -8q42 0 69.5 16.5t45.5 43.5t29 62t19 73l85 396q6 26 10.5 52.5t4.5 49.5q0 40 -19.5 66.5t-73.5 26.5z" />
    <glyph glyph-name=".DOT" horiz-adv-x="16" 
d="M115 383q0 115 118 115q62 0 90.5 -28t28.5 -87t-28.5 -87t-90.5 -28q-118 0 -118 115z" />
    <glyph glyph-name="p" unicode="p" horiz-adv-x="906" 
d="M27 -366l339 1568h236l-24 -109q35 60 84.5 95.5t120.5 35.5q67 0 112.5 -17t72.5 -48t38.5 -74t11.5 -94q0 -45 -7 -93.5t-18 -101.5l-84 -388q-19 -87 -46.5 -165t-72.5 -136.5t-110.5 -92.5t-161.5 -34q-73 0 -107.5 37t-43.5 99l-104 -482h-236zM508 210
q42 0 69.5 16t45.5 43t29 62t20 73l85 396q6 27 10.5 53.5t4.5 49.5q0 40 -19.5 66.5t-73.5 26.5q-38 0 -65.5 -17t-46.5 -45t-31 -62.5t-21 -69.5l-62 -290l-86 -396q-2 14 -3 28t-1 29q0 66 13.5 142t30.5 152l57 267q10 48 21.5 96.5t25 95t30 89t37.5 78.5l-63 -291
l-6 -29l-56 -261l-18 -82q-6 -28 -11.5 -58t-5.5 -58q0 -22 4 -41t14.5 -33t28 -22t43.5 -8z" />
    <glyph glyph-name="q" unicode="q" horiz-adv-x="900" 
d="M480 -366l103 476q-35 -60 -84.5 -95t-120.5 -35q-67 0 -112 17t-72 48t-38.5 74t-11.5 94q0 45 7 94t18 101l83 388q19 87 46.5 165t72.5 136t111 92t162 34q72 0 106.5 -37t43.5 -97l25 113h235l-338 -1568h-236zM483 208q39 0 67 18.5t47 47.5t31 65t20 72l26 120
l52 242q6 29 11.5 59t5.5 59q0 21 -4 40t-14.5 33t-27.5 22t-43 8q-42 0 -70 -16.5t-46 -43.5t-29 -62.5t-19 -73.5l-85 -396q-6 -26 -10.5 -52.5t-4.5 -49.5q0 -40 19.5 -66t73.5 -26z" />
    <glyph glyph-name="e" unicode="e" horiz-adv-x="875" 
d="M883 406l-4 -23q-17 -83 -46.5 -156.5t-80 -128t-127 -86.5t-188.5 -32q-83 0 -139 19t-89.5 53.5t-47.5 82t-14 103.5q0 39 5.5 82t15.5 88l84 388q19 87 50 165t82.5 136.5t129 92.5t189.5 34q83 0 138.5 -18.5t89 -51.5t47.5 -78.5t14 -99.5q0 -37 -5.5 -76.5
t-14.5 -81.5l-39 -183h-1l-14 -68l-501 -92l-15 -70q-6 -26 -10 -51.5t-4 -48.5q0 -20 4.5 -37.5t15.5 -30.5t29 -20t46 -7q42 0 69.5 14.5t45.5 38.5t28 55t18 63l5 25h234zM654 996q-42 0 -70.5 -16.5t-47 -44.5t-30 -63.5t-19.5 -73.5l-26 -118l259 52l19 89q5 21 8.5 42
t3.5 41q0 19 -4.5 36t-15.5 29.5t-30 19.5t-47 7z" />
    <glyph glyph-name="a" unicode="a" horiz-adv-x="905" 
d="M566 0l25 116q-35 -60 -85 -98t-121 -38q-67 0 -112 17t-72 48t-38.5 73.5t-11.5 93.5q0 45 7.5 94t18.5 102l83 388q20 96 48 174.5t72.5 135t110 87t161.5 30.5q36 0 61.5 -10.5t43.5 -29.5t28 -44.5t15 -56.5l26 120h235l-259 -1202h-236zM483 207q38 0 65.5 16
t47.5 42.5t33 60t22 69.5l1 2v3l47 215l34 158q7 29 12.5 62t5.5 62q0 42 -18 71t-68 29q-42 0 -70.5 -18t-48 -47t-31 -64.5t-18.5 -69.5l-85 -396q-8 -35 -13.5 -65t-5.5 -54q0 -37 19 -56.5t71 -19.5z" />
    <glyph glyph-name="u" unicode="u" horiz-adv-x="921" 
d="M839 1202h235l-259 -1202h-235l25 116q-35 -61 -85 -98t-121 -37q-67 0 -112 17t-72 47.5t-38.5 73t-11.5 93.5q0 45 7 94t18 101l171 796h237l-172 -801q-6 -26 -10.5 -53t-4.5 -50q0 -20 4.5 -36.5t15 -28.5t28.5 -19t45 -7q42 0 70.5 21t47.5 53t30.5 71.5t19.5 77.5
l64 294z" />
    <glyph glyph-name="n" unicode="n" horiz-adv-x="920" 
d="M583 0l173 800q6 28 11 55t5 51q0 38 -19 63t-72 25q-41 0 -70 -21t-49 -53.5t-32.5 -72.5t-21.5 -77l-165 -770h-236l258 1202h237l-26 -119q19 29 46 54.5t58 44t65.5 29.5t69.5 11q60 0 99.5 -15t63.5 -42.5t34 -65.5t10 -84q0 -49 -9 -104t-22 -115l-171 -796h-237z
" />
    <glyph glyph-name="h" unicode="h" horiz-adv-x="920" 
d="M583 0l173 800q6 26 10.5 53t4.5 50q0 19 -4.5 36t-15 29t-28.5 19t-45 7q-41 0 -69.5 -21t-48 -53.5t-31.5 -72.5t-21 -77l-165 -770h-236l337 1567h237l-104 -481q35 61 86 98.5t122 37.5q66 0 110.5 -17t71.5 -47.5t38.5 -72.5t11.5 -93q0 -45 -7.5 -94t-18.5 -102
l-171 -796h-237z" />
    <glyph glyph-name="d" unicode="d" horiz-adv-x="908" 
d="M912 490h1l-14 -63l-2 -8q-25 -115 -63 -198t-94 -136.5t-131 -79t-173 -25.5q-78 0 -131.5 17.5t-86 49.5t-46.5 77.5t-14 102.5q0 41 6 86t17 95l83 388q21 97 48.5 176t72 134.5t109.5 86t161 30.5q72 0 106 -41t42 -106l106 492h236zM494 207q40 0 69 21.5t48.5 54.5
t32 72t20.5 74l74 344q5 26 9 53.5t4 53.5q0 24 -4 45t-13.5 37t-26 25.5t-40.5 9.5q-42 0 -70 -17.5t-47 -46t-30 -64t-18 -70.5l-86 -397q-8 -35 -13.5 -64.5t-5.5 -52.5q0 -38 20.5 -58t76.5 -20z" />
    <glyph glyph-name="t" unicode="t" horiz-adv-x="663" 
d="M728 1589l-30 -141h-1l-53 -245h200l-47 -221h-200l-130 -604q-8 -34 -12 -60.5t-4 -46.5q0 -35 15.5 -51t52.5 -16q30 0 55 4.5t45.5 11t36.5 13.5t28 13l-28 -199q-38 -24 -93 -45.5t-130 -21.5q-65 0 -108.5 14.5t-70.5 41.5t-38.5 66t-11.5 88q0 41 7 88t18 100
l130 604h-125l47 221h125l84 386h238z" />
    <glyph glyph-name="j" unicode="j" horiz-adv-x="451" 
d="M395 1431q0 70 39 108.5t129 38.5q62 0 91 -21.5t29 -66.5q0 -69 -38.5 -108t-132.5 -39q-117 0 -117 88zM603 1202l-261 -1211q-20 -90 -46.5 -163t-69 -125.5t-105.5 -81t-155 -28.5q-37 0 -66.5 6t-53 15.5t-42 21.5t-31.5 24l57 199q9 -6 22 -13t30.5 -13.5t40.5 -11
t53 -4.5q29 0 49 9.5t34 30.5t24.5 54t21.5 80l261 1211h237z" />
    <glyph glyph-name="ae" unicode="&#xe6;" horiz-adv-x="1388" 
d="M569 0l25 112q-36 -60 -86 -96t-122 -36q-67 0 -111.5 17t-71.5 47t-38 72t-11 92q0 46 7.5 96.5t19.5 104.5l87 385q20 87 48 165t73.5 136.5t112 93t162.5 34.5q72 0 106 -36t44 -96l25 111h232l-22 -99q36 52 85 85.5t116 33.5q72 0 119.5 -16t76 -44.5t40.5 -68
t12 -86.5q0 -43 -8 -90.5t-19 -98.5l-9 -39h1l-49 -210l-503 -92l-16 -70q-6 -27 -10.5 -53t-4.5 -50q0 -42 20.5 -70t77.5 -28q43 0 71 15t46 39.5t28.5 56t17.5 64.5l7 25h230l-6 -23q-18 -82 -43 -155t-69.5 -127.5t-115.5 -86t-183 -31.5q-64 0 -95.5 33.5t-42.5 84.5
l-22 -101h-232zM492 204q43 0 72.5 21t49 54t31.5 73.5t20 79.5l37 162l51 225q3 19 5 38t2 36q0 22 -4 41t-14.5 33.5t-28 22.5t-44.5 8q-43 0 -71 -17t-46.5 -44.5t-29.5 -64t-20 -75.5l-89 -393q-7 -28 -11.5 -55.5t-4.5 -51.5q0 -20 4.5 -37t15.5 -29.5t29 -19.5t46 -7z
M1155 1000q-44 0 -73.5 -21.5t-49.5 -52.5t-31 -66.5t-17 -62.5l-27 -118l263 52l21 90q5 22 8.5 44.5t3.5 42.5q0 19 -4.5 36t-15.5 29.5t-30 19.5t-48 7z" />
    <glyph glyph-name="Thorn" unicode="&#xde;" horiz-adv-x="928" 
d="M676 1521l-63 -293h108q70 0 126.5 -13t96.5 -42.5t61.5 -77t21.5 -116.5q0 -55 -15 -124l-45 -208q-24 -110 -66 -183.5t-100 -117.5t-131.5 -62.5t-160.5 -18.5h-104l-57 -265h-242l329 1521h241zM769 855q3 15 5 28.5t2 25.5q0 42 -24 63.5t-80 21.5h-110l-107 -497
h100q38 0 66 8t48 26t33.5 46.5t22.5 69.5z" />
    <glyph glyph-name="semicolon" unicode=";" horiz-adv-x="407" 
d="M80 76q0 79 40 123t133 44q61 0 88.5 -31.5t27.5 -83.5q0 -59 -17.5 -114t-45 -104t-63 -90t-71.5 -72l-94 61q24 25 41 46t29.5 41t21.5 40t17 44q-107 0 -107 96zM291 1053q0 78 39.5 122.5t133.5 44.5q62 0 91 -23.5t29 -72.5q0 -81 -41 -124t-136 -43q-116 0 -116 96
z" />
    <glyph glyph-name="backslash" unicode="\" horiz-adv-x="681" 
d="M368 1599h234l32 -1679h-234z" />
    <glyph glyph-name="oe" unicode="&#x153;" horiz-adv-x="1391" 
d="M1376 406l-4 -23q-17 -83 -46.5 -156.5t-80.5 -128t-127.5 -86.5t-188.5 -32q-82 0 -137 18.5t-89 51.5q-48 -33 -110 -51.5t-144 -18.5q-83 0 -139 19t-89.5 53.5t-47.5 82t-14 103.5q0 39 5.5 81.5t15.5 87.5l83 389q19 87 50 165t83 136.5t129.5 92.5t189.5 34
q81 0 136 -19t88 -52q48 33 111 52t145 19q84 0 139.5 -19t89 -52t47.5 -78.5t14 -99.5q0 -37 -5.5 -76t-14.5 -81l-8 -37l-45 -214l-502 -92l-14 -67q-2 -6 -3 -11.5t-2 -10.5q-5 -21 -7.5 -41.5t-2.5 -39.5q0 -20 4.5 -37.5t15.5 -30.5t29 -20t46 -7q42 0 69.5 14.5
t45.5 38.5t28 55t17 63l6 25h234zM665 996q-42 0 -69.5 -16.5t-45.5 -44t-29 -63t-19 -73.5l-86 -395q-6 -26 -10.5 -52.5t-4.5 -49.5q0 -20 4.5 -37t15 -29t29 -19t45.5 -7q42 0 69.5 16.5t45.5 43.5t29 62t19 73l85 396q6 26 10.5 53t4.5 50q0 20 -4.5 37t-15 29t-28.5 19
t-45 7z" />
    <glyph glyph-name="questiondown" unicode="&#xbf;" horiz-adv-x="875" 
d="M94.9941 -56.9961q0 102.993 26.498 183.988q26.499 80.9951 67.4961 147.491q40.998 66.4961 90.4951 122.492q49.4961 55.9971 95.4941 108.493q45.9971 52.4971 81.9941 105.494q35.998 52.9961 50.9971 113.993l18.999 81.9951h205.987l-16.999 -84.9951
q-12.999 -65.9961 -35.9971 -119.993q-22.999 -53.9961 -51.4971 -100.993q-28.499 -46.9971 -60.9961 -87.4951q-32.498 -40.4971 -63.9961 -78.9951q-31.499 -38.4971 -60.4971 -75.9951t-51.4961 -77.4951q-22.499 -39.998 -35.498 -84.9951t-12.999 -97.9941
q0 -45.9971 19.498 -70.9951q19.499 -24.999 64.4961 -24.999q58.9971 0 88.4951 32.998t43.4971 86.9951l28.998 110.993h230.986l-16.999 -86.9951q-15.999 -80.9951 -46.4971 -150.49q-30.498 -69.4961 -80.4951 -119.993t-122.493 -79.4951
q-72.4951 -28.998 -173.489 -28.998q-65.9961 0 -118.992 14.999q-52.9971 14.999 -89.4951 47.9971q-36.4971 32.998 -55.9961 85.4951q-19.499 52.4961 -19.499 127.492zM839.949 1130.93q0 -38.9971 -9 -69.4951q-8.99902 -30.498 -29.498 -52.4971t-53.4971 -33.498
t-80.9951 -11.499q-61.9961 0 -90.9941 23.498q-28.998 23.499 -28.998 72.4961q0 80.9951 40.9971 123.992q40.998 42.9971 134.992 42.9971q59.9961 0 88.4941 -23.998q28.499 -23.999 28.499 -71.9961z" />
    <glyph glyph-name="brokenbar" unicode="&#xa6;" horiz-adv-x="834" 
d="M294 823l168 780h242l-169 -780h-241zM511 709l-171 -791h-241l170 791h242z" />
    <glyph glyph-name="Oslash" unicode="&#xd8;" horiz-adv-x="900" 
d="M320 1115q19 87 51.5 165t86.5 136t133 92t191 34q85 0 142 -20t91.5 -55t49 -84t14.5 -106q0 -38 -5.5 -78.5t-14.5 -83.5l-153 -708q-19 -87 -51 -165t-86 -136t-132.5 -92t-190.5 -34q-85 0 -142 20t-91.5 55.5t-49 84t-14.5 106.5q0 38 5 78.5t14 82.5zM732 1309
q-42 0 -70.5 -16.5t-48 -43.5t-31 -62t-19.5 -72l-153 -707q-5 -25 -9 -49t-4 -46q0 -42 20.5 -70.5t77.5 -28.5q43 0 71.5 16t48 43t31 62t19.5 73l152 706q5 25 9 49t4 47q0 21 -4.5 39t-15.5 31.5t-30 21t-48 7.5zM330 -80h-233l796 1679h235z" />
    <glyph glyph-name="germandbls" unicode="&#xdf;" horiz-adv-x="889" 
d="M623 961h39q37 1 62 15.5t41.5 35.5t26 45.5t14.5 46.5l13 61q2 12 4.5 26.5t2.5 28.5q0 18 -4 35t-15 30.5t-29.5 22t-46.5 8.5q-42 0 -70.5 -17t-47.5 -44.5t-31 -63.5t-20 -73l-241 -1117l-241 -1l239 1112q19 87 51.5 165.5t86 137t132.5 93t190 34.5q84 0 140 -20
t89.5 -54.5t47 -80.5t13.5 -98q0 -32 -4 -65t-11 -66l-10 -50q-19 -93 -67 -158.5t-127 -102.5q96 -60 96 -192q0 -24 -3 -51t-10 -56l-26 -119q-19 -87 -51.5 -165.5t-86 -137.5t-132.5 -93.5t-190 -34.5l48 227q42 0 71 17t49 44.5t32.5 63t20.5 72.5l28 130
q5 23 8.5 44.5t3.5 41.5q0 43 -21.5 70.5t-80.5 27.5h-31z" />
    <glyph glyph-name="Germandbls" unicode="&#x1e9e;" horiz-adv-x="918" 
d="M653 947l205 345h-108q-42 0 -70.5 -16.5t-47.5 -44t-30.5 -63t-20.5 -72.5l-236 -1095l-243 -1l236 1097q19 87 51.5 165.5t87 137t133.5 93t191 34.5l348 -1l-51 -238l-248 -401q63 -33 93.5 -91.5t30.5 -139.5q0 -51 -12 -108l-26 -119q-19 -87 -52 -165.5
t-87.5 -137.5t-134 -93.5t-191.5 -34.5l49 232q42 0 71 17t49 45t32.5 63.5t21.5 72.5l26 124q5 23 9 45t4 42q0 42 -22 69.5t-81 27.5h-23z" />
    <glyph glyph-name="zerooldstyle.001" horiz-adv-x="895" 
d="M179 402l85 398q19 87 49.5 164.5t81.5 135t128 91t188 33.5q82 0 137 -18.5t88 -51.5t46.5 -79t13.5 -101q0 -41 -6 -84t-16 -90l-85 -396q-19 -88 -49 -165t-81 -134.5t-127.5 -91t-188.5 -33.5q-83 0 -138 18.5t-88 51.5t-46.5 79t-13.5 101q0 40 6 83t16 89zM493 214
q41 0 67.5 16t43.5 42t27 60.5t18 71.5l32 150q4 16 7 31l6 30l-283 -270q-1 -8 -1 -16.5v-17.5q0 -17 3 -34t11.5 -31t25 -23t43.5 -9zM661 990q-41 0 -67 -16t-43 -42.5t-27 -61t-18 -71.5l-32 -146l-13 -58l282 265q1 8 1 16v17q0 17 -3 34t-11.5 31t-25 23t-43.5 9z" />
    <glyph glyph-name="guilsinglleft" unicode="&#x2039;" horiz-adv-x="500" 
d="M256 188l-88 402l262 404h237l-271 -404l97 -402h-237z" />
    <glyph glyph-name="guillemotright" unicode="&#xbb;" horiz-adv-x="883" 
d="M84 188l276 402l-91 404h233l83 -404l-269 -402h-232zM487 188l276 402l-91 404h233l82 -404l-268 -402h-232z" />
    <glyph glyph-name="logicalnot" unicode="&#xac;" horiz-adv-x="834" 
d="M666 598h-451l45 210h662l-94 -436h-210z" />
    <glyph glyph-name="ellipsis" unicode="&#x2026;" horiz-adv-x="1284" 
d="M97 76q0 78 39.5 122.5t133.5 44.5q62 0 91 -23.5t29 -72.5q0 -81 -41 -124t-136 -43q-116 0 -116 96zM517 76q0 39 9.5 69.5t30.5 52.5t54 33.5t80 11.5q62 0 91 -23.5t29 -71.5q0 -80 -41 -124t-136 -44q-117 0 -117 96zM938 76q0 39 9.5 69.5t30.5 52.5t54 33.5
t80 11.5q62 0 90.5 -23.5t28.5 -71.5q0 -81 -40.5 -124.5t-135.5 -43.5q-117 0 -117 96z" />
    <glyph glyph-name="Lambda" unicode="&#x39b;" horiz-adv-x="873" 
d="M613 0l92 1235l-447 -1235h-247l575 1521h360l-86 -1521h-247z" />
    <glyph glyph-name="Csmall" unicode="&#xf763;" horiz-adv-x="870" 
d="M648 399h234l-4 -19q-17 -80 -46 -152.5t-79 -127.5t-126.5 -87.5t-188.5 -32.5q-83 0 -139 19t-89.5 53t-47.5 81.5t-14 103.5q0 39 5.5 82t15.5 88l68 314q5 28 11 55t13 55q19 84 51 156t83.5 124.5t127 82.5t181.5 30q84 0 139.5 -19t89 -52t47.5 -78t14 -98
q0 -36 -5.5 -74.5t-14.5 -78.5l-4 -20h-235l6 24q5 19 8 38.5t3 38.5t-4.5 35.5t-15.5 29t-30 19.5t-48 7q-42 0 -69.5 -16.5t-45.5 -44t-29 -63t-19 -72.5l-59 -273q-12 -54 -22.5 -103.5t-16.5 -97.5q-2 -21 0 -42t11.5 -37.5t28.5 -26.5t51 -10q42 0 70 15t46 39t28 54
t16 60z" />
    <glyph glyph-name="cacute" unicode="&#x107;" horiz-adv-x="870" 
d="M1045 1577l-240 -275h-174l189 275h225zM648 399h234l-4 -19q-17 -80 -46 -152.5t-79 -127.5t-126.5 -87.5t-188.5 -32.5q-83 0 -139 19t-89.5 53t-47.5 81.5t-14 103.5q0 39 5.5 82t15.5 88l68 314q5 28 11 55t13 55q19 84 51 156t83.5 124.5t127 82.5t181.5 30
q84 0 139.5 -19t89 -52t47.5 -78t14 -98q0 -36 -5.5 -74.5t-14.5 -78.5l-4 -20h-235l6 24q5 19 8 38.5t3 38.5t-4.5 35.5t-15.5 29t-30 19.5t-48 7q-42 0 -69.5 -16.5t-45.5 -44t-29 -63t-19 -72.5l-59 -273q-12 -54 -22.5 -103.5t-16.5 -97.5q-2 -21 0 -42t11.5 -37.5
t28.5 -26.5t51 -10q42 0 70 15t46 39t28 54t16 60z" />
    <glyph glyph-name="Alpha" unicode="&#x391;" horiz-adv-x="887" 
d="M595 1522h324l-69 -1522h-243l19 266h-279l-95 -266h-244zM642 487l56 761l-272 -761h216z" />
    <glyph glyph-name="afii10017" unicode="&#x410;" horiz-adv-x="887" 
d="M595 1522h324l-69 -1522h-243l19 266h-279l-95 -266h-244zM642 487l56 761l-272 -761h216z" />
    <glyph glyph-name="ccedilla" unicode="&#xe7;" horiz-adv-x="870" 
d="M221 -251q14 -11 27.5 -19.5t30.5 -15t38.5 -10t52.5 -3.5q43 0 73 18t30 53q0 12 -7.5 21t-20.5 14.5t-29 8t-33 2.5q-32 0 -58 -8l49 226h120l-24 -110q8 1 18 3q8 2 19 3t24 1q29 0 52 -10t38.5 -27.5t23.5 -40.5t8 -49q0 -53 -23 -94t-63.5 -69t-95.5 -42t-119 -14
q-69 0 -116 23t-70 52zM648 399h234l-4 -19q-17 -80 -46 -152.5t-79 -127.5t-126.5 -87.5t-188.5 -32.5q-83 0 -139 19t-89.5 53t-47.5 81.5t-14 103.5q0 39 5.5 82t15.5 88l68 314q5 28 11 55t13 55q19 84 51 156t83.5 124.5t127 82.5t181.5 30q84 0 139.5 -19t89 -52
t47.5 -78t14 -98q0 -36 -5.5 -74.5t-14.5 -78.5l-4 -20h-235l6 24q5 19 8 38.5t3 38.5t-4.5 35.5t-15.5 29t-30 19.5t-48 7q-42 0 -69.5 -16.5t-45.5 -44t-29 -63t-19 -72.5l-59 -273q-12 -54 -22.5 -103.5t-16.5 -97.5q-2 -21 0 -42t11.5 -37.5t28.5 -26.5t51 -10
q42 0 70 15t46 39t28 54t16 60z" />
    <glyph glyph-name="ccaron" unicode="&#x10d;" horiz-adv-x="870" 
d="M710 1522l31 -118l83 118h193l-191 -241h-224l-86 241h194zM648 399h234l-4 -19q-17 -80 -46 -152.5t-79 -127.5t-126.5 -87.5t-188.5 -32.5q-83 0 -139 19t-89.5 53t-47.5 81.5t-14 103.5q0 39 5.5 82t15.5 88l68 314q5 28 11 55t13 55q19 84 51 156t83.5 124.5
t127 82.5t181.5 30q84 0 139.5 -19t89 -52t47.5 -78t14 -98q0 -36 -5.5 -74.5t-14.5 -78.5l-4 -20h-235l6 24q5 19 8 38.5t3 38.5t-4.5 35.5t-15.5 29t-30 19.5t-48 7q-42 0 -69.5 -16.5t-45.5 -44t-29 -63t-19 -72.5l-59 -273q-12 -54 -22.5 -103.5t-16.5 -97.5
q-2 -21 0 -42t11.5 -37.5t28.5 -26.5t51 -10q42 0 70 15t46 39t28 54t16 60z" />
    <glyph glyph-name="cdotaccent" unicode="&#x10b;" horiz-adv-x="870" 
d="M595 1373q0 78 40 123t134 45q62 0 91 -23.5t29 -73.5q0 -81 -41 -124t-136 -43q-117 0 -117 96zM648 399h234l-4 -19q-17 -80 -46 -152.5t-79 -127.5t-126.5 -87.5t-188.5 -32.5q-83 0 -139 19t-89.5 53t-47.5 81.5t-14 103.5q0 39 5.5 82t15.5 88l68 314q5 28 11 55
t13 55q19 84 51 156t83.5 124.5t127 82.5t181.5 30q84 0 139.5 -19t89 -52t47.5 -78t14 -98q0 -36 -5.5 -74.5t-14.5 -78.5l-4 -20h-235l6 24q5 19 8 38.5t3 38.5t-4.5 35.5t-15.5 29t-30 19.5t-48 7q-42 0 -69.5 -16.5t-45.5 -44t-29 -63t-19 -72.5l-59 -273
q-12 -54 -22.5 -103.5t-16.5 -97.5q-2 -21 0 -42t11.5 -37.5t28.5 -26.5t51 -10q42 0 70 15t46 39t28 54t16 60z" />
    <glyph glyph-name="dollar" unicode="$" horiz-adv-x="866" 
d="M878 369q-33 -158 -114 -253.5t-220 -123.5l-23 -111h-242l23 110q-99 21 -141 80t-42 151q0 67 20 156l16 75h240l-16 -73q-10 -43 -10 -78q0 -44 22.5 -66t79.5 -22q38 0 66 11.5t48 32t32.5 49t18.5 63.5l2 12q5 29 8.5 53t3.5 46q0 42 -15.5 74.5t-54.5 61.5l-123 93
q-45 34 -76 66t-50.5 64.5t-28 66.5t-8.5 73q0 35 5.5 73.5t16.5 84.5l6 26q35 158 113.5 246t199.5 117l24 113h241l-23 -108q93 -20 137 -78t44 -157q0 -30 -4 -64t-12 -72l-18 -85l-240 1l20 96q5 28 5 48q0 40 -20.5 64t-71.5 24q-69 0 -105.5 -43t-49.5 -110l-6 -29
q-2 -12 -3 -24t-1 -24q0 -45 16.5 -83t53.5 -64l113 -76q92 -63 130.5 -135.5t38.5 -162.5q0 -32 -4 -66t-12 -72z" />
    <glyph glyph-name="a.end" horiz-adv-x="922" 
d="M568 0l23 109q-35 -59 -84 -94t-120 -35q-67 0 -112 17t-72 47.5t-38.5 73.5t-11.5 94q0 45 7 94t18 102l83 388q19 87 46.5 165t72.5 136t111 92t162 34q36 0 62 -9.5t44 -27t28.5 -41.5t15.5 -54l24 111h236l-260 -1202h-235zM492 208q36 0 61.5 15t44.5 40t31 56
t21 64l93 429q4 20 6 39.5t2 38.5q0 22 -4 41t-14 33t-27.5 22t-43.5 8q-42 0 -69.5 -16.5t-45.5 -43.5t-29 -62.5t-19 -73.5l-85 -396q-6 -26 -10.5 -52.5t-4.5 -49.5q0 -40 19.5 -66t73.5 -26z" />
    <glyph glyph-name="kgreenlandic" unicode="&#x138;" horiz-adv-x="878" 
d="M600 1201l-103 -479h85l279 480h241l-369 -601l141 -601h-262l-84 489h-81l-105 -489h-237l259 1201h236z" />
    <glyph glyph-name="Ksmall" unicode="&#xf76b;" horiz-adv-x="878" 
d="M600 1201l-103 -479h85l279 480h241l-369 -601l141 -601h-262l-84 489h-81l-105 -489h-237l259 1201h236z" />
    <glyph glyph-name="Vsmall" unicode="&#xf776;" horiz-adv-x="823" 
d="M1073 1203l-498 -1203h-327l20 1203h244l-50 -968l367 968h244z" />
    <glyph glyph-name="Asmall" unicode="&#xf761;" horiz-adv-x="847" 
d="M33 0l471 1203h377l-47 -1203h-244l12 189h-257l-69 -189h-243zM422 397h193l37 579h-18z" />
    <glyph glyph-name="mu" unicode="&#xb5;" horiz-adv-x="922" 
d="M1090 1202l-171 -796q-19 -86 -46.5 -163t-72 -135.5t-110.5 -93t-162 -34.5q-71 0 -106 37.5t-43 98.5l-104 -481h-236l338 1567h236l-166 -772q-6 -29 -11 -58.5t-5 -57.5q0 -22 4 -41.5t14 -33.5t27 -22.5t42 -8.5q43 0 71.5 17t46.5 44.5t28 62t18 70.5l172 800h236z
" />
    <glyph glyph-name="Beta" unicode="&#x392;" horiz-adv-x="939" 
d="M730 539q2 12 3.5 22.5t1.5 21.5q0 45 -25 73.5t-80 28.5h-124l-98 -451h125q32 0 58 6.5t46.5 24t35.5 47t25 75.5zM847 1155q6 27 6 51q0 43 -22.5 68t-76.5 25h-116l-85 -394h98q40 0 70 9.5t51 29t35 49t22 70.5zM940 391q-23 -105 -61.5 -179t-94.5 -121
t-130.5 -68.5t-168.5 -21.5h-368l328 1520h363q154 0 226 -63.5t72 -177.5q0 -48 -12 -105l-20 -89q-26 -119 -73.5 -189t-126.5 -92q52 -15 80.5 -60.5t28.5 -114.5q0 -40 -11 -90z" />
    <glyph glyph-name="Epsilon" unicode="&#x395;" horiz-adv-x="829" 
d="M114 0l328 1521h646l-50 -234l-405 -1l-86 -396h336l-51 -233h-335l-92 -424h404l-50 -233h-645z" />
    <glyph glyph-name="Osmall" unicode="&#xf76f;" horiz-adv-x="876" 
d="M251 796q19 87 50 165t83 136.5t129.5 92.5t188.5 34q82 0 137.5 -19t88.5 -53.5t47 -81.5t14 -102q0 -40 -6 -83t-16 -89l-83 -388q-19 -88 -49.5 -165.5t-81.5 -136t-128 -92.5t-188 -34q-84 0 -139.5 19t-89 53.5t-47.5 81.5t-14 103q0 40 5.5 82.5t15.5 87.5z
M653 996q-42 0 -69.5 -16.5t-45.5 -44t-29 -63t-20 -73.5l-85 -395q-6 -26 -10.5 -52.5t-4.5 -49.5q0 -20 4.5 -37t15 -29t29 -19t45.5 -7q42 0 69 16t45 43t29 62t19 73l85 397q6 27 11 53.5t5 49.5q0 40 -19.5 66t-73.5 26z" />
    <glyph glyph-name="afii10019" unicode="&#x412;" horiz-adv-x="939" 
d="M730 539q2 12 3.5 22.5t1.5 21.5q0 45 -25 73.5t-80 28.5h-124l-98 -451h125q32 0 58 6.5t46.5 24t35.5 47t25 75.5zM847 1155q6 27 6 51q0 43 -22.5 68t-76.5 25h-116l-85 -394h98q40 0 70 9.5t51 29t35 49t22 70.5zM940 391q-23 -105 -61.5 -179t-94.5 -121
t-130.5 -68.5t-168.5 -21.5h-368l328 1520h363q154 0 226 -63.5t72 -177.5q0 -48 -12 -105l-20 -89q-26 -119 -73.5 -189t-126.5 -92q52 -15 80.5 -60.5t28.5 -114.5q0 -40 -11 -90z" />
    <glyph glyph-name="Gamma" unicode="&#x393;" horiz-adv-x="748" 
d="M626 1291l-279 -1291h-241l329 1525h642l-50 -234h-401z" />
    <glyph glyph-name="Zeta" unicode="&#x396;" horiz-adv-x="790" 
d="M55 0l46 218l640 1068h-390l50 235h663l-43 -202l-652 -1086h417l-49 -233h-682z" />
    <glyph glyph-name="Eta" unicode="&#x397;" horiz-adv-x="991" 
d="M116 0l329 1521h241l-138 -637h276l138 637h242l-329 -1521h-241l140 650h-276l-140 -650h-242z" />
    <glyph glyph-name="Iota" unicode="&#x399;" horiz-adv-x="475" 
d="M117 0l329 1521h241l-328 -1521h-242z" />
    <glyph glyph-name="Kappa" unicode="&#x39a;" horiz-adv-x="937" 
d="M116 0l329 1521h241l-138 -637h85l358 637h257l-413 -744l105 -777h-258l-93 650h-91l-140 -650h-242z" />
    <glyph glyph-name="Mu" unicode="&#x39c;" horiz-adv-x="1249" 
d="M117 0l329 1521h311v-915l395 915h310l-328 -1521h-242l258 1084l-379 -895h-208l8 909l-212 -1098h-242z" />
    <glyph glyph-name="Omicron" unicode="&#x39f;" horiz-adv-x="876" 
d="M320 1115q19 87 51.5 165t86.5 136t133 92t191 34q85 0 142 -20t91.5 -55t49 -84t14.5 -106q0 -38 -5.5 -78.5t-14.5 -83.5l-153 -708q-19 -87 -51 -165t-86 -136t-132.5 -92t-190.5 -34q-85 0 -142 20t-91.5 55.5t-49 84t-14.5 106.5q0 38 5 78.5t14 82.5zM732 1309
q-42 0 -70.5 -16.5t-48 -43.5t-31 -62t-19.5 -72l-153 -707q-5 -25 -9 -49t-4 -46q0 -42 20.5 -70.5t77.5 -28.5q43 0 71.5 16t48 43t31 62t19.5 73l152 706q5 25 9 49t4 47q0 21 -4.5 39t-15.5 31.5t-30 21t-48 7.5z" />
    <glyph glyph-name="Rho" unicode="&#x3a1;" horiz-adv-x="934" 
d="M1023 902q-24 -110 -66 -183.5t-100 -117t-131.5 -61.5t-160.5 -18h-104l-113 -522h-242l329 1521h350q70 0 126.5 -13t96.5 -42t61.5 -76.5t21.5 -116.5q0 -55 -15 -125zM833 1148q3 15 5 28.5t2 24.5q0 42 -24.5 63.5t-80.5 21.5h-110l-115 -532h101q38 0 66 8t48 26
t33 46t22 69z" />
    <glyph glyph-name="Tau" unicode="&#x3a4;" horiz-adv-x="761" 
d="M779 1286l-278 -1286h-242l278 1286h-248l50 235h738l-49 -235h-249z" />
    <glyph glyph-name="Upsilon" unicode="&#x3a5;" horiz-adv-x="853" 
d="M672 554l-120 -554h-241l120 554l-99 967h264l29 -635l314 635h238z" />
    <glyph glyph-name="Chi" unicode="&#x3a7;" horiz-adv-x="920" 
d="M641 0l-69 543l-292 -543h-268l456 788l-104 733h265l57 -487l267 487h264l-428 -734l120 -787h-268z" />
    <glyph glyph-name="Pi" unicode="&#x3a0;" horiz-adv-x="970" 
d="M106 0l328 1521h759l-328 -1521h-242l278 1287h-276l-277 -1287h-242z" />
    <glyph glyph-name="Xi" unicode="&#x39e;" horiz-adv-x="838" 
d="M421 1523l652 1l-49 -233h-653zM351 890h517l-50 -233h-517zM141 233h654l-50 -233h-653z" />
    <glyph glyph-name="registered" unicode="&#xae;" horiz-adv-x="1489" 
d="M1503 472q-42 -195 -117.5 -326.5t-179 -212t-232 -115t-276.5 -34.5q-123 0 -222 23.5t-169 76.5t-108 138.5t-38 210.5q0 107 30 245l88 405q42 193 117 324t178 211t231 114.5t277 34.5q122 0 221.5 -23.5t169.5 -76.5t108 -139t38 -212q0 -103 -29 -240zM738 -30
q118 0 211 30t162 91t116.5 154.5t74.5 221.5l90 414q11 52 17 97.5t6 86.5q0 162 -92.5 238.5t-279.5 77.5q-118 0 -210.5 -29.5t-162 -90.5t-117 -154t-75.5 -220l-89 -413q-23 -109 -23 -189q0 -163 91 -239t281 -76zM457 128l238 1102h315q138 0 203.5 -52.5
t65.5 -163.5q0 -25 -3.5 -52t-9.5 -58l-10 -48q-18 -87 -71 -153.5t-123 -110.5q35 -26 54 -56.5t19 -84.5q0 -20 -3 -42.5t-8 -50.5l-47 -230h-206l42 222q6 36 6 62q0 33 -8.5 53.5t-22 32.5t-31.5 17t-36 7h-69l-85 -394h-210zM1058 907q3 12 4 22.5t1 19.5
q0 42 -25 60.5t-74 18.5h-103l-66 -304h102q63 0 99.5 35t50.5 97z" />
    <glyph glyph-name="Xsmall" unicode="&#xf778;" horiz-adv-x="822" 
d="M561 0l-68 403l-247 -403h-231l384 625l-111 577h249l58 -369l228 369h230l-359 -577l115 -625h-248z" />
    <glyph glyph-name="Rsmall" unicode="&#xf772;" horiz-adv-x="890" 
d="M106 0l259 1202h346q151 0 223 -57.5t72 -178.5q0 -27 -3 -57t-11 -64l-11 -53q-20 -94 -77 -167t-133 -121q19 -14 33 -28t23 -32t13 -41t4 -55q0 -39 -6 -96l-9 -91q-3 -32 -3 -55q0 -34 4.5 -57.5t12.5 -48.5h-244q-2 12 -5.5 37.5t-3.5 62.5v25.5t2 27.5l7 93
q2 14 2 25.5v22.5q0 41 -7.5 66t-20 38.5t-30 19t-38.5 7.5h-72l-92 -425h-235zM758 848q2 12 3.5 23t1.5 21q0 44 -25.5 63.5t-77.5 19.5h-109l-70 -322h107q67 0 105 37t53 103z" />
    <glyph glyph-name="ordfeminine" unicode="&#xaa;" horiz-adv-x="759" 
d="M621 776l20 92q-32 -55 -71.5 -84t-86.5 -29q-55 0 -92.5 10.5t-60.5 31t-33 51.5t-10 72q0 33 5.5 72.5t15.5 84.5l27 120q18 82 40 146.5t57 108.5t88 67t133 23q92 0 110 -109l19 88h207l-161 -745h-207zM268 694h535l-40 -188h-535zM572 946q20 0 36.5 5.5t30 19.5
t24 37.5t18.5 58.5l30 137q11 52 11 81q0 35 -14.5 51t-46.5 16q-25 0 -43.5 -8.5t-32.5 -26t-24 -45.5t-19 -67l-24 -110q-11 -50 -11 -79q0 -37 15.5 -53.5t49.5 -16.5z" />
    <glyph glyph-name="Delta" unicode="&#x394;" horiz-adv-x="887" 
d="M12 0l575 1521h359l-85 -1521h-849zM631 234l75 1001l-363 -1001h288z" />
    <glyph glyph-name="Bsmall" unicode="&#xf762;" horiz-adv-x="899" 
d="M689 1202q149 0 229 -57.5t80 -172.5q0 -27 -4.5 -57.5t-14.5 -63.5l-2 -7q-23 -84 -69.5 -139.5t-106.5 -90.5q42 -29 67 -74.5t25 -111.5q0 -30 -6 -64l-1 -7q-32 -184 -142 -270.5t-294 -86.5h-345l258 1202h326zM652 364q6 25 6 46q0 45 -25.5 69.5t-77.5 24.5h-106
l-19 -87l-41 -190h107q62 0 101 30.5t53 97.5zM738 854q3 19 3 36q0 48 -26 66.5t-76 18.5h-89l-56 -258h87q69 0 105 31t50 96z" />
    <glyph glyph-name="Psmall" unicode="&#xf770;" horiz-adv-x="860" 
d="M758 848q2 12 3.5 23t1.5 21q0 44 -25.5 63.5t-77.5 19.5h-109l-78 -362h107q66 0 104.5 37t52.5 103zM106 0l259 1202h346q151 0 223 -57.5t72 -178.5q0 -27 -3 -57t-11 -64l-20 -93q-23 -107 -72 -178t-113 -113t-137.5 -59t-143.5 -17h-81l-84 -385h-235z" />
    <glyph glyph-name="afii10067" unicode="&#x432;" horiz-adv-x="899" 
d="M689 1202q149 0 229 -57.5t80 -172.5q0 -27 -4.5 -57.5t-14.5 -63.5l-2 -7q-23 -84 -69.5 -139.5t-106.5 -90.5q42 -29 67 -74.5t25 -111.5q0 -30 -6 -64l-1 -7q-32 -184 -142 -270.5t-294 -86.5h-345l258 1202h326zM652 364q6 25 6 46q0 45 -25.5 69.5t-77.5 24.5h-106
l-19 -87l-41 -190h107q62 0 101 30.5t53 97.5zM738 854q3 19 3 36q0 48 -26 66.5t-76 18.5h-89l-56 -258h87q69 0 105 31t50 96z" />
    <glyph glyph-name="commaaccent" unicode="&#xf6c3;" horiz-adv-x="378" 
d="M34 -188q0 65 32 98.5t109 33.5q51 0 74 -24.5t23 -67.5q0 -49 -14 -93t-36.5 -82t-51 -70t-58.5 -58l-78 50q20 21 34 37.5t24 32.5t17.5 32t14.5 36q-90 0 -90 75z" />
    <glyph glyph-name="Kcommaaccent" unicode="&#x136;" horiz-adv-x="937" 
d="M116 0l329 1521h241l-138 -637h85l358 637h257l-413 -744l105 -777h-258l-93 650h-91l-140 -650h-242zM364 -188q0 65 32 98.5t109 33.5q51 0 74 -24.5t23 -67.5q0 -49 -14 -93t-36.5 -82t-51 -70t-58.5 -58l-78 50q20 21 34 37.5t24 32.5t17.5 32t14.5 36q-90 0 -90 75z
" />
    <glyph glyph-name="Lcommaaccent" unicode="&#x13b;" horiz-adv-x="755" 
d="M116 0l329 1521h241l-279 -1290h387l-50 -231h-628zM275 -188q0 65 32 98.5t109 33.5q51 0 74 -24.5t23 -67.5q0 -49 -14 -93t-36.5 -82t-51 -70t-58.5 -58l-78 50q20 21 34 37.5t24 32.5t17.5 32t14.5 36q-90 0 -90 75z" />
    <glyph glyph-name="daggerdbl" unicode="&#x2021;" horiz-adv-x="844" 
d="M376 331l118 546h-263l50 232h262l90 415h237l-90 -415h262l-50 -232h-262l-117 -546h261l-49 -232h-262l-89 -412h-236l88 412h-262l49 232h263z" />
    <glyph glyph-name="Theta" unicode="&#x398;" horiz-adv-x="900" 
d="M320 1115q19 87 51.5 165t86.5 136t133 92t191 34q85 0 142 -20t91.5 -55t49 -84t14.5 -106q0 -38 -5.5 -78.5t-14.5 -83.5l-153 -708q-19 -87 -51 -165t-86 -136t-132.5 -92t-190.5 -34q-85 0 -142 20t-91.5 55.5t-49 84t-14.5 106.5q0 38 5 78.5t14 82.5zM510 874h255
l52 240q5 25 9 49t4 47q0 21 -4.5 39t-15.5 31t-30 20.5t-48 7.5q-3 0 -5 1q-41 -1 -68.5 -18t-46.5 -44t-30.5 -61.5t-18.5 -70.5zM495 214q1 0 2 -0.5t2 -0.5q41 1 69 17.5t47 43.5t30.5 62t19.5 72l50 232h-255l-50 -232q-5 -25 -9 -49t-4 -46q0 -42 20.5 -70.5
t77.5 -28.5z" />
    <glyph glyph-name="Tsmall" unicode="&#xf774;" horiz-adv-x="690" 
d="M673 973l-210 -974h-235l211 974h-222l49 229h676l-49 -229h-220z" />
    <glyph glyph-name="Ssmall" unicode="&#xf773;" horiz-adv-x="808" 
d="M837 408q0 -100 -29.5 -179t-86 -134.5t-138.5 -85t-186 -29.5q-80 0 -135 17t-89.5 49t-49.5 78t-15 104q0 35 5.5 74.5t14.5 82.5h237q-5 -21 -7.5 -40.5t-2.5 -37.5q0 -43 19 -70t69 -27q34 0 59.5 12t42.5 31t25 43t8 49q0 40 -25.5 71.5t-63.5 60.5t-82.5 59
t-82.5 67.5t-63.5 86t-25.5 113.5q0 103 29.5 182t85.5 132t136.5 80t183.5 27q62 0 112.5 -11t86.5 -37.5t55.5 -72t19.5 -114.5q0 -63 -18 -150l-237 1q4 17 6.5 34.5t2.5 34.5q0 36 -16.5 61.5t-60.5 25.5q-32 0 -57.5 -11.5t-42.5 -30t-26 -41.5t-9 -47q0 -36 26 -65.5
t65 -58.5t84.5 -59.5t84.5 -69.5t65 -89t26 -116z" />
    <glyph glyph-name="Ismall" unicode="&#xf769;" horiz-adv-x="449" 
d="M107 0l258 1202h238l-259 -1202h-237z" />
    <glyph glyph-name="Zsmall" unicode="&#xf77a;" horiz-adv-x="761" 
d="M43 0l43 202l563 780h-365l46 220h629l-43 -200l-560 -776h391l-48 -226h-656z" />
    <glyph glyph-name="Iotadieresis" unicode="&#x3aa;" horiz-adv-x="475" 
d="M117 0l329 1521h241l-328 -1521h-242zM357 1704q0 33 7 61t23.5 47.5t43.5 30.5t66 11q93 0 93 -82q0 -71 -33 -110t-110 -39q-90 0 -90 81zM624 1704q0 34 7.5 61.5t24 47t43 30.5t65.5 11q48 0 70.5 -20t22.5 -61q0 -70 -32 -110t-111 -40q-90 0 -90 81z" />
    <glyph glyph-name="Etatonos" unicode="&#x389;" horiz-adv-x="991" 
d="M116 0l329 1521h241l-138 -637h276l138 637h242l-329 -1521h-241l140 650h-276l-140 -650h-242zM400 1520l-88 -275h-154l38 275h204z" />
    <glyph glyph-name="Iotatonos" unicode="&#x38a;" horiz-adv-x="475" 
d="M117 0l329 1521h241l-328 -1521h-242zM753 1892l-88 -275h-154l38 275h204z" />
    <glyph glyph-name="Epsilontonos" unicode="&#x388;" horiz-adv-x="829" 
d="M114 0l328 1521h646l-50 -234l-405 -1l-86 -396h336l-51 -233h-335l-92 -424h404l-50 -233h-645zM393 1524l-88 -275h-154l38 275h204z" />
    <glyph glyph-name="Alphatonos" unicode="&#x386;" horiz-adv-x="887" 
d="M595 1522h324l-69 -1522h-243l19 266h-279l-95 -266h-244zM642 487l56 761l-272 -761h216zM516 1522l-88 -275h-154l38 275h204z" />
    <glyph glyph-name="Phi" unicode="&#x3a6;" horiz-adv-x="1164" 
d="M461 0l26 120q-85 0 -142 19.5t-91.5 54.5t-49.5 83.5t-15 105.5q0 38 5.5 78t14.5 82l94 435q19 87 51.5 164.5t86 135t132.5 91t190 33.5v-1l26 120h241l-26 -120l1 1q85 0 141.5 -19.5t91 -54.5t49 -83.5t14.5 -105.5q0 -38 -5 -78t-14 -82l-93 -436
q-19 -87 -51.5 -164t-86 -134.5t-132.5 -91t-190 -33.5l-26 -120h-242zM713 1169q-42 0 -70.5 -16t-47.5 -42.5t-31 -61.5t-20 -72l-93 -433q-5 -24 -9 -47.5t-4 -45.5q0 -21 4.5 -38.5t16 -30.5t30.5 -20.5t48 -7.5zM954 1168l-175 -815q42 0 70.5 16t47.5 42.5t30.5 61
t19.5 72.5l93 433q6 24 10 48t4 46q0 42 -21 69t-78 27h-1z" />
    <glyph glyph-name="Upsilondieresis" unicode="&#x3ab;" horiz-adv-x="853" 
d="M672 554l-120 -554h-241l120 554l-99 967h264l29 -635l314 635h238zM559 1704q0 33 7 61t23.5 47.5t43.5 30.5t66 11q93 0 93 -82q0 -71 -33 -110t-110 -39q-90 0 -90 81zM826 1704q0 34 7.5 61.5t24 47t43 30.5t65.5 11q48 0 70.5 -20t22.5 -61q0 -70 -32 -110t-111 -40
q-90 0 -90 81z" />
    <glyph glyph-name="Upsilontonos" unicode="&#x38e;" horiz-adv-x="1140" 
d="M946 554l-120 -554h-241l120 554l-99 967h264l29 -635l314 635h238zM542 1556l-88 -275h-154l38 275h204z" />
    <glyph glyph-name="Sigma" unicode="&#x3a3;" horiz-adv-x="784" 
d="M711 719l-347 -486h417l-49 -233h-682l46 218l374 544l-132 542l47 217h665l-50 -233h-401l130 -486z" />
    <glyph glyph-name="afii10020" unicode="&#x413;" horiz-adv-x="815" 
d="M626 1291l-279 -1291h-241l329 1525h642l-50 -234h-401z" />
    <glyph glyph-name="lira" unicode="&#x20a4;" horiz-adv-x="852" 
d="M246 880h85q-4 44 -6.5 86t-2.5 84q0 38 3 74q6 82 28.5 160t73 138.5t134 97.5t210.5 37q74 0 126 -17t84.5 -50t47.5 -81t15 -111q0 -54 -10 -118t-29 -138l-237 -2q1 15 5.5 37t9 47t8 51.5t3.5 50.5q0 21 -3.5 39.5t-11.5 32t-22.5 21.5t-35.5 8q-38 0 -69 -16
t-53 -50.5t-33.5 -89t-11.5 -132.5q0 -32 4.5 -72t10.5 -87h293l-38 -180h-236q0 -11 0.5 -22t0.5 -22v-23t-1 -22h217l-39 -180h-213q-28 -81 -68 -133t-76 -75q9 2 18.5 2h19.5q46 0 94.5 -7t86.5 -7q40 0 75 7t79 36l38 -197q-46 -39 -97.5 -55.5t-108.5 -16.5
q-39 0 -84.5 3.5t-92.5 8t-94 8.5t-89 4q-26 0 -60 -3t-65 -6q-36 -4 -73 -8l48 227q94 23 146 75.5t75 136.5h-175l38 180h159q1 22 0 44t-2 45h-137z" />
    <glyph glyph-name="Omega" unicode="&#x3a9;" horiz-adv-x="923" 
d="M108 0l49 231h117l23 118q-40 32 -56 79.5t-16 106.5q0 48 8 99.5t20 105.5l80 375q19 87 51.5 165t86.5 136t133 92t190 34v-1q0 1 1 1q84 0 141 -19.5t91.5 -55t49 -84t14.5 -105.5q0 -38 -5.5 -78.5t-14.5 -83.5l-80 -376q-13 -61 -30 -119t-42 -109t-60 -93t-83 -71
l-28 -117h117l-49 -231h-317l63 297l19 87l25 118l7 29q37 0 60 18.5t37 48.5t22.5 67.5t16.5 75.5l81 373q5 25 9 49t4 46q0 42 -20.5 70.5t-77.5 28.5q-3 0 -5 1q-41 -1 -69 -17.5t-46.5 -43.5t-30.5 -62t-20 -72l-79 -374q-8 -35 -16.5 -70.5t-8.5 -65.5
q0 -32 14.5 -52.5t54.5 -20.5l-6 -29l-107 -502h-318z" />
    <glyph glyph-name="Psi" unicode="&#x3a8;" horiz-adv-x="1164" 
d="M462 0l89 412q-85 0 -142 19.5t-91.5 54.5t-49.5 83.5t-15 105.5q0 38 5.5 78t14.5 82l148 688l242 -1l-148 -686q-6 -24 -9.5 -47.5t-3.5 -45.5q0 -21 4.5 -38.5t16 -30.5t30.5 -20.5t48 -7.5l189 875h241l-189 -876q42 0 70.5 16t47.5 42t31 60.5t20 72.5l148 686
l242 1l-149 -688q-19 -87 -51.5 -164t-86 -134.5t-132.5 -91t-190 -33.5l-89 -412h-241z" />
    <glyph glyph-name="Omicrontonos" unicode="&#x38c;" horiz-adv-x="876" 
d="M320 1115q19 87 51.5 165t86.5 136t133 92t191 34q85 0 142 -20t91.5 -55t49 -84t14.5 -106q0 -38 -5.5 -78.5t-14.5 -83.5l-153 -708q-19 -87 -51 -165t-86 -136t-132.5 -92t-190.5 -34q-85 0 -142 20t-91.5 55.5t-49 84t-14.5 106.5q0 38 5 78.5t14 82.5zM732 1309
q-42 0 -70.5 -16.5t-48 -43.5t-31 -62t-19.5 -72l-153 -707q-5 -25 -9 -49t-4 -46q0 -42 20.5 -70.5t77.5 -28.5q43 0 71.5 16t48 43t31 62t19.5 73l152 706q5 25 9 49t4 47q0 21 -4.5 39t-15.5 31.5t-30 21t-48 7.5zM424 1573l-88 -275h-154l38 275h204z" />
    <glyph glyph-name="afii10022" unicode="&#x415;" horiz-adv-x="829" 
d="M114 0l328 1521h646l-50 -234l-405 -1l-86 -396h336l-51 -233h-335l-92 -424h404l-50 -233h-645z" />
    <glyph glyph-name="afii10028" unicode="&#x41a;" horiz-adv-x="937" 
d="M116 0l329 1521h241l-138 -637h85l358 637h257l-413 -744l105 -777h-258l-93 650h-91l-140 -650h-242z" />
    <glyph glyph-name="afii10030" unicode="&#x41c;" horiz-adv-x="1249" 
d="M117 0l329 1521h311v-915l395 915h310l-328 -1521h-242l258 1084l-379 -895h-208l8 909l-212 -1098h-242z" />
    <glyph glyph-name="afii10031" unicode="&#x41d;" horiz-adv-x="991" 
d="M116 0l329 1521h241l-138 -637h276l138 637h242l-329 -1521h-241l140 650h-276l-140 -650h-242z" />
    <glyph glyph-name="afii10032" unicode="&#x41e;" horiz-adv-x="900" 
d="M320 1115q19 87 51.5 165t86.5 136t133 92t191 34q85 0 142 -20t91.5 -55t49 -84t14.5 -106q0 -38 -5.5 -78.5t-14.5 -83.5l-153 -708q-19 -87 -51 -165t-86 -136t-132.5 -92t-190.5 -34q-85 0 -142 20t-91.5 55.5t-49 84t-14.5 106.5q0 38 5 78.5t14 82.5zM732 1309
q-42 0 -70.5 -16.5t-48 -43.5t-31 -62t-19.5 -72l-153 -707q-5 -25 -9 -49t-4 -46q0 -42 20.5 -70.5t77.5 -28.5q43 0 71.5 16t48 43t31 62t19.5 73l152 706q5 25 9 49t4 47q0 21 -4.5 39t-15.5 31.5t-30 21t-48 7.5z" />
    <glyph glyph-name="afii10033" unicode="&#x41f;" horiz-adv-x="970" 
d="M106 0l328 1521h759l-328 -1521h-242l278 1287h-276l-277 -1287h-242z" />
    <glyph glyph-name="afii10034" unicode="&#x420;" horiz-adv-x="902" 
d="M1023 902q-24 -110 -66 -183.5t-100 -117t-131.5 -61.5t-160.5 -18h-104l-113 -522h-242l329 1521h350q70 0 126.5 -13t96.5 -42t61.5 -76.5t21.5 -116.5q0 -55 -15 -125zM833 1148q3 15 5 28.5t2 24.5q0 42 -24.5 63.5t-80.5 21.5h-110l-115 -532h101q38 0 66 8t48 26
t33 46t22 69z" />
    <glyph glyph-name="afii10035" unicode="&#x421;" horiz-adv-x="893" 
d="M925 483l-19 -91q-17 -82 -49 -156.5t-86 -131t-133 -90t-189 -33.5q-1 0 -1 -1q-85 0 -142 20t-91.5 55t-49 84t-14.5 106q0 38 5.5 78.5t14.5 83.5l152 708q19 87 51.5 164.5t86 135.5t132.5 92.5t190 34.5l1 1q85 0 142.5 -20t92 -55.5t49.5 -84t15 -104.5
q0 -35 -5 -73t-14 -77l-19 -90h-242l19 89q5 21 8.5 41t3.5 40q0 42 -21 70.5t-78 29.5q-42 0 -70.5 -16.5t-48 -43.5t-31.5 -62.5t-20 -72.5l-152 -706q-5 -25 -9 -49t-4 -47q0 -42 20 -70t77 -28q40 0 68.5 15t48 39.5t31.5 57t19 67.5l19 90h242z" />
    <glyph glyph-name="afii10036" unicode="&#x422;" horiz-adv-x="761" 
d="M779 1286l-278 -1286h-242l278 1286h-248l50 235h738l-49 -235h-249z" />
    <glyph glyph-name="afii10038" unicode="&#x424;" horiz-adv-x="1164" 
d="M461 0l26 120q-85 0 -142 19.5t-91.5 54.5t-49.5 83.5t-15 105.5q0 38 5.5 78t14.5 82l94 435q19 87 51.5 164.5t86 135t132.5 91t190 33.5v-1l26 120h241l-26 -120l1 1q85 0 141.5 -19.5t91 -54.5t49 -83.5t14.5 -105.5q0 -38 -5 -78t-14 -82l-93 -436
q-19 -87 -51.5 -164t-86 -134.5t-132.5 -91t-190 -33.5l-26 -120h-242zM713 1169q-42 0 -70.5 -16t-47.5 -42.5t-31 -61.5t-20 -72l-93 -433q-5 -24 -9 -47.5t-4 -45.5q0 -21 4.5 -38.5t16 -30.5t30.5 -20.5t48 -7.5zM954 1168l-175 -815q42 0 70.5 16t47.5 42.5t30.5 61
t19.5 72.5l93 433q6 24 10 48t4 46q0 42 -21 69t-78 27h-1z" />
    <glyph glyph-name="afii10039" unicode="&#x425;" horiz-adv-x="920" 
d="M639 0l-69 543l-292 -543h-268l456 788l-104 733h265l57 -487l267 487h264l-428 -734l120 -787h-268z" />
    <glyph glyph-name="afii10023" unicode="&#x401;" horiz-adv-x="829" 
d="M114 0l328 1521h646l-50 -234l-405 -1l-86 -396h336l-51 -233h-335l-92 -424h404l-50 -233h-645zM552 1704q0 33 7 61t23.5 47.5t43.5 30.5t66 11q93 0 93 -82q0 -71 -33 -110t-110 -39q-90 0 -90 81zM819 1704q0 34 7.5 61.5t24 47t43 30.5t65.5 11q48 0 70.5 -20
t22.5 -61q0 -70 -32 -110t-111 -40q-90 0 -90 81z" />
    <glyph glyph-name="afii10054" unicode="&#x405;" horiz-adv-x="906" 
d="M885 369q-40 -189 -150 -289t-304 -100q-84 0 -142 16t-94.5 47t-52.5 76.5t-16 104.5q0 34 5 72.5t14 81.5l23 105h240l-22 -103q-11 -47 -11 -79q0 -44 23 -65.5t80 -21.5q38 0 66 11.5t48 32t32.5 49t18.5 62.5l2 13q5 29 8.5 53.5t3.5 45.5q0 43 -15.5 75t-55.5 61
l-123 93q-45 34 -75.5 66t-50 64.5t-28 66.5t-8.5 73q0 34 5.5 72.5t16.5 84.5l6 27q43 197 156 287.5t290 90.5q150 0 221 -60.5t71 -185.5q0 -62 -16 -135l-26 -122h-240l27 134q6 25 6 48q0 40 -22 64t-73 24q-68 0 -105 -43t-50 -110l-5 -29q-5 -28 -5 -50
q0 -44 17 -81.5t54 -63.5l112 -76q92 -64 131 -136.5t39 -163.5q0 -32 -4 -65.5t-12 -70.5z" />
    <glyph glyph-name="omicron" unicode="&#x3bf;" horiz-adv-x="876" 
d="M251 796q19 87 50 165t83 136.5t129.5 92.5t188.5 34q82 0 137.5 -19t88.5 -53.5t47 -81.5t14 -102q0 -40 -6 -83t-16 -89l-83 -388q-19 -88 -49.5 -165.5t-81.5 -136t-128 -92.5t-188 -34q-84 0 -139.5 19t-89 53.5t-47.5 81.5t-14 103q0 40 5.5 82.5t15.5 87.5z
M653 996q-42 0 -69.5 -16.5t-45.5 -44t-29 -63t-20 -73.5l-85 -395q-6 -26 -10.5 -52.5t-4.5 -49.5q0 -20 4.5 -37t15 -29t29 -19t45.5 -7q42 0 69 16t45 43t29 62t19 73l85 397q6 27 11 53.5t5 49.5q0 40 -19.5 66t-73.5 26z" />
    <glyph glyph-name="rho" unicode="&#x3c1;" horiz-adv-x="906" 
d="M27 -366l210 973h-1l40 189q19 87 50 165t83 136.5t129.5 92.5t189.5 34v-1q0 1 1 1q76 0 129 -21.5t86.5 -60t49 -91t15.5 -113.5q0 -34 -4 -69.5t-12 -72.5l-84 -388q-19 -88 -46.5 -165.5t-72 -136t-110.5 -92.5t-162 -34q-73 0 -107.5 37t-43.5 99l-104 -482h-236z
M473 608l-2 -12l-35 -165q-7 -29 -12 -59t-5 -59q0 -21 4 -40t14.5 -33t27.5 -22t43 -8q42 0 70 16.5t46 43.5t29 62t19 73l85 396q6 26 10.5 52.5t4.5 49.5q0 40 -19.5 66.5t-73.5 26.5h-1q-42 0 -69.5 -16.5t-45.5 -44t-29 -63t-19 -72.5l-41 -192h-1z" />
    <glyph glyph-name="afii10024" unicode="&#x416;" horiz-adv-x="1429" 
d="M596 0l148 652h-96q0 -1 2 -1h2l-383 -651h-256l457 778l-89 743h250l74 -639h92l148 639h237l-148 -639h88l369 639h254l-432 -743l103 -778h-250l-86 651h-2q-1 0 -1 1h-95l-149 -652h-237z" />
    <glyph glyph-name="afii10049" unicode="&#x42f;" horiz-adv-x="953" 
d="M576 0l134 588h-82q-24 1 -50 -8.5t-51.5 -32.5t-49 -61.5t-41.5 -95.5l-67 -212q-9 -30 -22.5 -58.5t-26 -52.5t-23.5 -41.5t-16 -25.5h-246q24 35 51 79t46 106l66 210q19 60 37 102.5t39.5 73.5t48 54t61.5 44q-44 38 -69.5 92.5t-25.5 122.5q0 40 9 82l37 164
q24 105 64 179t96.5 121.5t130.5 69t168 21.5h367l-349 -1521h-236zM536 966q-6 -24 -6 -46q0 -45 25.5 -73.5t81.5 -28.5h126l109 473h-128q-33 0 -59.5 -6.5t-47.5 -24.5t-36.5 -48.5t-27.5 -78.5z" />
    <glyph glyph-name="afii10055" unicode="&#x406;" horiz-adv-x="475" 
d="M117 0l329 1521h241l-328 -1521h-242z" />
    <glyph glyph-name="afii10056" unicode="&#x407;" horiz-adv-x="475" 
d="M117 0l329 1521h241l-328 -1521h-242zM359 1704q0 33 7 61t23.5 47.5t43.5 30.5t66 11q93 0 93 -82q0 -71 -33 -110t-110 -39q-90 0 -90 81zM626 1704q0 34 7.5 61.5t24 47t43 30.5t65.5 11q48 0 70.5 -20t22.5 -61q0 -70 -32 -110t-111 -40q-90 0 -90 81z" />
    <glyph glyph-name="afii10057" unicode="&#x408;" horiz-adv-x="668" 
d="M886 1521l-247 -1148q-19 -88 -50 -160t-82.5 -123t-127.5 -79t-184 -28q-63 0 -105.5 14t-72.5 43l112 207q10 -8 20 -13.5t23 -9t30.5 -5.5t42.5 -2q35 0 60 9t43 28.5t30.5 50.5t21.5 75l246 1141h240z" />
    <glyph glyph-name="afii10018" unicode="&#x411;" horiz-adv-x="939" 
d="M918 373q-23 -105 -65 -176.5t-100 -115t-130 -62.5t-156 -19h-351l329 1521h628l-50 -231h-386l-1 1l-63 -291h104q72 0 129.5 -12t98 -40.5t62 -75.5t21.5 -117q0 -30 -4.5 -64t-12.5 -73zM729 618q4 18 6 33t2 29q0 47 -26.5 67.5t-86.5 20.5h-101l-115 -533h109
q72 0 108.5 35t50.5 103z" />
    <glyph glyph-name="afii10046" unicode="&#x42c;" horiz-adv-x="924" 
d="M911 373q-24 -105 -67 -176.5t-101.5 -115t-130.5 -62.5t-156 -19h-348l349 1521h237l-121 -524h107q70 0 126.5 -11.5t96.5 -39.5t61 -73.5t21 -113.5q0 -63 -19 -143zM728 616q9 39 9 67q0 47 -26.5 66.5t-86.5 19.5h-104l-123 -538h112q73 0 110 36t54 106z" />
    <glyph glyph-name="kappa" unicode="&#x3ba;" horiz-adv-x="886" 
d="M601 1201l-103 -479h85l279 480h241l-369 -601l141 -601h-262l-84 489h-81l-105 -489h-237l259 1201h236z" />
    <glyph glyph-name="nu" unicode="&#x3bd;" horiz-adv-x="823" 
d="M1073 1203l-498 -1203h-327l20 1203h244l-50 -968l367 968h244z" />
    <glyph glyph-name="eta" unicode="&#x3b7;" horiz-adv-x="920" 
d="M504 -366l252 1166q6 28 11 55t5 51q0 38 -19 63t-72 25q-41 0 -70 -21t-49 -53.5t-32.5 -72.5t-21.5 -77l-165 -770h-236l258 1202h237l-26 -119q19 29 46 54.5t58 44t65.5 29.5t69.5 11q60 0 99.5 -15t63.5 -42.5t34 -65.5t10 -84q0 -49 -9 -104t-22 -115l-250 -1162
h-237z" />
    <glyph glyph-name="theta" unicode="&#x3b8;" horiz-adv-x="876" 
d="M167 403l154 716q19 87 49 164t81 134.5t128 91t188 33.5q82 0 137 -18.5t88 -51.5t47 -79t14 -101q0 -40 -6 -83.5t-16 -89.5l-154 -715q-19 -88 -49.5 -165t-81.5 -134.5t-127.5 -91t-187.5 -33.5q-83 0 -138 18.5t-88 51.5t-46.5 79t-13.5 101q0 40 6 83.5t16 89.5z
M717 1309q-41 0 -67 -16t-42.5 -42t-26.5 -61t-18 -72l-53 -244h227l53 245q6 28 11 55t5 50q0 37 -18.5 61t-70.5 24zM480 214q41 0 67.5 16t43.5 42t27 60.5t18 71.5l51 236h-227l-51 -237q-6 -28 -11 -55t-5 -50q0 -37 18 -60.5t69 -23.5z" />
    <glyph glyph-name="beta" unicode="&#x3b2;" horiz-adv-x="877" 
d="M900 429q-29 -125 -69 -210.5t-95.5 -138.5t-129 -76.5t-168.5 -23.5h-26l53 230h25q30 0 55 8t45 28t36 53.5t28 84.5l31 135q7 31 7 57q0 54 -31.5 74t-82.5 20h-94l-238 -1035h-236l347 1516q22 96 57 169.5t87 122.5t123 74t166 25q139 0 206 -58t67 -185
q0 -75 -22 -170q-19 -83 -40.5 -142t-47.5 -99t-58 -64.5t-72 -38.5q56 -17 79.5 -60.5t23.5 -111.5q0 -39 -7 -84.5t-19 -99.5zM535 893h96q29 0 53 9t44.5 31t36.5 59t29 93l13 56q5 25 8.5 47t3.5 41q0 39 -18.5 61.5t-68.5 22.5q-31 0 -53 -10.5t-37.5 -29.5t-25.5 -47
t-18 -62z" />
    <glyph glyph-name="c" unicode="c" horiz-adv-x="870" 
d="M648 399h234l-4 -19q-17 -80 -46 -152.5t-79 -127.5t-126.5 -87.5t-188.5 -32.5q-83 0 -139 19t-89.5 53t-47.5 81.5t-14 103.5q0 39 5.5 82t15.5 88l68 314q5 28 11 55t13 55q19 84 51 156t83.5 124.5t127 82.5t181.5 30q84 0 139.5 -19t89 -52t47.5 -78t14 -98
q0 -36 -5.5 -74.5t-14.5 -78.5l-4 -20h-235l6 24q5 19 8 38.5t3 38.5t-4.5 35.5t-15.5 29t-30 19.5t-48 7q-42 0 -69.5 -16.5t-45.5 -44t-29 -63t-19 -72.5l-59 -273q-12 -54 -22.5 -103.5t-16.5 -97.5q-2 -21 0 -42t11.5 -37.5t28.5 -26.5t51 -10q42 0 70 15t46 39t28 54
t16 60z" />
    <glyph glyph-name="afii10029" unicode="&#x41b;" horiz-adv-x="993" 
d="M644 0l278 1287h-278l-190 -883q-23 -104 -57.5 -183.5t-87 -133t-127 -80.5t-176.5 -27l50 234q36 0 61 13t43 37t30.5 59.5t22.5 80.5l241 1119l228 -2h532l-329 -1521h-241z" />
    <glyph glyph-name="afii10053" unicode="&#x404;" horiz-adv-x="922" 
d="M812 1039l19 89q5 21 8.5 41t3.5 40q0 42 -21 70.5t-78 29.5q-42 0 -70.5 -16.5t-48 -43.5t-31.5 -62t-20 -72l-49 -225h355l-51 -233h-354l-53 -249q-5 -25 -9 -49t-4 -47q0 -42 20 -70t77 -28q40 0 68.5 15t48 39.5t31.5 57t19 67.5l19 90h242l-19 -91
q-17 -82 -49 -156.5t-86 -131t-133 -90t-189 -33.5q-1 0 -1 -1q-84 0 -141 20t-91.5 55t-49 84t-14.5 106q0 38 5.5 78.5t14.5 83.5l151 708q19 87 51.5 164.5t86 135.5t132.5 92.5t190 34.5l1 1q85 0 142.5 -20t92 -55.5t49.5 -84t15 -104.5q0 -35 -5 -73t-14 -77l-19 -90
h-242z" />
    <glyph glyph-name="afii10047" unicode="&#x42d;" horiz-adv-x="922" 
d="M300 1041l20 87q19 81 51.5 156t86.5 132.5t133.5 92t191.5 34.5v-1q82 0 138 -19.5t90.5 -54t49 -82t14.5 -103.5q0 -39 -6 -81.5t-17 -87.5l-163 -706q-20 -86 -53 -164t-87.5 -136.5t-134 -93t-191.5 -34.5l-1 1q-83 0 -139 19.5t-90 54t-48.5 81t-14.5 101.5
q0 37 5.5 75.5t15.5 79.5l20 90h237l-20 -89q-5 -22 -8 -43t-3 -40q0 -44 21 -72t78 -28q45 0 75 17t49.5 45t31 64t19.5 73l58 250h-355l53 230h355l52 224q6 26 10 51t4 48q0 44 -20.5 72t-77.5 29q-43 0 -72.5 -16t-49 -42.5t-31.5 -60t-20 -67.5l-20 -86h-237z" />
    <glyph glyph-name="afii10085" unicode="&#x443;" horiz-adv-x="811" 
d="M695 286l-124 -343q-28 -78 -70 -143t-92 -115t-104.5 -85.5t-106.5 -54.5l-67 167q29 13 60 30.5t60.5 45t56.5 67.5t47 97l118 336zM1058 1203l-498 -1203h-327l20 1203h244l-50 -968l367 968h244z" />
    <glyph glyph-name="afii10048" unicode="&#x42e;" horiz-adv-x="1367" 
d="M105 0l329 1521h241l-140 -647h184l52 241q19 87 51.5 165t86.5 136t133 92t190 34v-1q0 1 1 1q84 0 141 -20t91.5 -55.5t49 -84t14.5 -106.5q0 -38 -5.5 -78t-14.5 -83l-152 -708q-19 -87 -51.5 -165t-86.5 -136t-133 -92t-191 -34q-85 0 -142 20t-91.5 55t-49 84
t-14.5 106q0 38 5.5 78.5t14.5 83.5l50 233h-183l-138 -640h-242zM945 214q1 0 2 -0.5t2 -0.5q41 1 69 17.5t47 43.5t30.5 62t19.5 72l153 706q5 24 9 48.5t4 46.5q0 21 -4.5 39t-16 31.5t-30.5 21t-48 7.5q-3 0 -5 1q-41 -1 -68.5 -18t-46.5 -44t-30.5 -61.5t-19.5 -71.5
l-152 -706q-5 -25 -9 -49t-4 -46q0 -42 20.5 -70.5t77.5 -28.5z" />
    <glyph glyph-name="afii10040" unicode="&#x426;" horiz-adv-x="1013" 
d="M1193 1521l-278 -1287h135l-87 -409h-242l38 175h-653l329 1521h241l-278 -1287h276l278 1287h241z" />
    <glyph glyph-name="afii10070" unicode="&#x435;" horiz-adv-x="875" 
d="M883 406l-4 -23q-17 -83 -46.5 -156.5t-80 -128t-127 -86.5t-188.5 -32q-83 0 -139 19t-89.5 53.5t-47.5 82t-14 103.5q0 39 5.5 82t15.5 88l84 388q19 87 50 165t82.5 136.5t129 92.5t189.5 34q83 0 138.5 -18.5t89 -51.5t47.5 -78.5t14 -99.5q0 -37 -5.5 -76.5
t-14.5 -81.5l-39 -183h-1l-14 -68l-501 -92l-15 -70q-6 -26 -10 -51.5t-4 -48.5q0 -20 4.5 -37.5t15.5 -30.5t29 -20t46 -7q42 0 69.5 14.5t45.5 38.5t28 55t18 63l5 25h234zM654 996q-42 0 -70.5 -16.5t-47 -44.5t-30 -63.5t-19.5 -73.5l-26 -118l259 52l19 89q5 21 8.5 42
t3.5 41q0 19 -4.5 36t-15.5 29.5t-30 19.5t-47 7z" />
    <glyph glyph-name="afii10071" unicode="&#x451;" horiz-adv-x="875" 
d="M883 406l-4 -23q-17 -83 -46.5 -156.5t-80 -128t-127 -86.5t-188.5 -32q-83 0 -139 19t-89.5 53.5t-47.5 82t-14 103.5q0 39 5.5 82t15.5 88l84 388q19 87 50 165t82.5 136.5t129 92.5t189.5 34q83 0 138.5 -18.5t89 -51.5t47.5 -78.5t14 -99.5q0 -37 -5.5 -76.5
t-14.5 -81.5l-39 -183h-1l-14 -68l-501 -92l-15 -70q-6 -26 -10 -51.5t-4 -48.5q0 -20 4.5 -37.5t15.5 -30.5t29 -20t46 -7q42 0 69.5 14.5t45.5 38.5t28 55t18 63l5 25h234zM654 996q-42 0 -70.5 -16.5t-47 -44.5t-30 -63.5t-19.5 -73.5l-26 -118l259 52l19 89q5 21 8.5 42
t3.5 41q0 19 -4.5 36t-15.5 29.5t-30 19.5t-47 7zM494 1385q0 33 7 61t23.5 47.5t43.5 30.5t66 11q93 0 93 -82q0 -71 -33 -110t-110 -39q-90 0 -90 81zM761 1385q0 34 7.5 61.5t24 47t43 30.5t65.5 11q48 0 70.5 -20t22.5 -61q0 -70 -32 -110t-111 -40q-90 0 -90 81z" />
    <glyph glyph-name="uni2206" unicode="&#x2206;" horiz-adv-x="873" 
d="M343 234h264l-23 -234h-572l575 1521h359l-85 -1521h-248l90 1198h-11z" />
    <glyph glyph-name="Ohm" unicode="&#x2126;" horiz-adv-x="913" 
d="M103 0l49 231h117l22 118q-39 32 -54.5 79.5t-15.5 105.5q0 48 8 100t19 106l80 375q19 87 51.5 165t86 136t132.5 92t191 34q85 0 142 -20t91.5 -55t49 -84t14.5 -106q0 -38 -5.5 -78t-14.5 -83l-80 -376q-13 -61 -30 -119t-42 -109t-60 -93t-83 -71l-28 -117h117
l-49 -231h-318l79 367l29 135l6 29q37 0 60 18.5t37.5 48.5t23 67.5t16.5 75.5l80 373q5 25 9 49t4 46q0 21 -4.5 39t-15.5 31.5t-30 21t-47 7.5q-3 0 -5 1q-41 -1 -69 -17.5t-47 -43.5t-30.5 -62t-19.5 -72l-80 -374q-8 -35 -16 -70.5t-8 -65.5q0 -32 14.5 -52.5
t54.5 -20.5l-6 -29l-44 -205l-64 -297h-317z" />
    <glyph glyph-name="summation" unicode="&#x2211;" horiz-adv-x="850" 
d="M747 719l-347 -486h417l-50 -233h-682l46 218l374 543l-132 543l47 217h666l-50 -233h-401l130 -486z" />
    <glyph glyph-name="iota" unicode="&#x3b9;" horiz-adv-x="448" 
d="M395 1431q0 70 39 108.5t129 38.5q62 0 91 -21.5t29 -66.5q0 -69 -38 -108t-132 -39q-118 0 -118 88zM106 0l260 1202h236l-259 -1202h-237z" />
    <glyph glyph-name="afii10065" unicode="&#x430;" horiz-adv-x="905" 
d="M566 0l25 116q-35 -60 -85 -98t-121 -38q-67 0 -112 17t-72 48t-38.5 73.5t-11.5 93.5q0 45 7.5 94t18.5 102l83 388q20 96 48 174.5t72.5 135t110 87t161.5 30.5q36 0 61.5 -10.5t43.5 -29.5t28 -44.5t15 -56.5l26 120h235l-259 -1202h-236zM483 207q38 0 65.5 16
t47.5 42.5t33 60t22 69.5l1 2v3l47 215l34 158q7 29 12.5 62t5.5 62q0 42 -18 71t-68 29q-42 0 -70.5 -18t-48 -47t-31 -64.5t-18.5 -69.5l-85 -396q-8 -35 -13.5 -65t-5.5 -54q0 -37 19 -56.5t71 -19.5z" />
    <glyph glyph-name="a.alt" horiz-adv-x="923" 
d="M568 0l24 111q-34 -60 -83 -95.5t-121 -35.5q-65 0 -109.5 16.5t-72.5 47.5t-40 74t-12 96t11 117q4 38 12.5 75t16.5 77l52 238l24 110q19 84 47.5 155.5t73.5 124t108.5 82.5t153.5 30q36 0 62 -9.5t44 -27t29 -42t16 -54.5l24 112h235l-259 -1202h-236zM492 208
q31 0 55 12.5t42 32.5t30.5 45t20.5 51q8 32 16 64.5t16 66.5l63 293q5 24 10 54.5t5 60.5q0 21 -4 40t-14 34t-27 23.5t-43 8.5q-31 0 -54 -10t-39.5 -26t-27.5 -37t-19 -42q-12 -38 -22 -81t-20 -88l-47 -219q-12 -54 -21 -104.5t-6 -91.5q1 -15 4.5 -30.5t13 -28
t26 -20.5t42.5 -8z" />
    <glyph glyph-name="alpha" unicode="&#x3b1;" horiz-adv-x="906" 
d="M570 0l24 111q-34 -60 -83 -95.5t-121 -35.5q-65 0 -109.5 16.5t-72.5 47.5t-40 74t-12 96t11 117q4 38 12.5 75t16.5 77l52 238l24 110q19 84 47.5 155.5t73.5 124t108.5 82.5t153.5 30q36 0 62 -9.5t44 -27t29 -42t16 -54.5l24 112h235l-259 -1202h-236zM494 208
q31 0 55 12.5t42 32.5t30.5 45t20.5 51q8 32 16 64.5t16 66.5l63 293q5 24 10 54.5t5 60.5q0 21 -4 40t-14 34t-27 23.5t-43 8.5q-31 0 -54 -10t-39.5 -26t-27.5 -37t-19 -42q-12 -38 -22 -81t-20 -88l-47 -219q-12 -54 -21 -104.5t-6 -91.5q1 -15 4.5 -30.5t13 -28
t26 -20.5t42.5 -8z" />
    <glyph glyph-name="alphatonos" unicode="&#x3ac;" horiz-adv-x="906" 
d="M570 0l24 111q-34 -60 -83 -95.5t-121 -35.5q-65 0 -109.5 16.5t-72.5 47.5t-40 74t-12 96t11 117q4 38 12.5 75t16.5 77l52 238l24 110q19 84 47.5 155.5t73.5 124t108.5 82.5t153.5 30q36 0 62 -9.5t44 -27t29 -42t16 -54.5l24 112h235l-259 -1202h-236zM494 208
q31 0 55 12.5t42 32.5t30.5 45t20.5 51q8 32 16 64.5t16 66.5l63 293q5 24 10 54.5t5 60.5q0 21 -4 40t-14 34t-27 23.5t-43 8.5q-31 0 -54 -10t-39.5 -26t-27.5 -37t-19 -42q-12 -38 -22 -81t-20 -88l-47 -219q-12 -54 -21 -104.5t-6 -91.5q1 -15 4.5 -30.5t13 -28
t26 -20.5t42.5 -8zM926 1556l-88 -275h-154l38 275h204z" />
    <glyph glyph-name="parenleftsuperior" unicode="&#x207d;" horiz-adv-x="414" 
d="M555 768q-78 0 -128 19.5t-78.5 52t-39.5 74t-11 85.5q0 42 6.5 83.5t14.5 75.5l75 349q6 28 16 67.5t28.5 83t46.5 86t71 76.5t102.5 55t139.5 21h18l-39 -180h-17q-29 0 -51.5 -12t-39.5 -31t-28.5 -42.5t-19 -45.5t-12 -40.5t-6.5 -27.5l-81 -374q-5 -19 -8 -42
t-3 -46q0 -21 4 -40.5t13 -34t25 -23.5t40 -9h17l-38 -180h-17z" />
    <glyph glyph-name="parenrightsuperior" unicode="&#x207e;" horiz-adv-x="415" 
d="M453 1896q76 0 125 -18.5t77 -49.5t39 -71.5t11 -83.5q0 -44 -8 -87t-16 -79l-80 -349q-7 -28 -17.5 -67.5t-29 -83t-47.5 -86t-72 -76.5t-102.5 -55t-138.5 -21h-17l40 177h18q44 0 73.5 26t47.5 60.5t27 68t12 47.5l87 374q5 20 8.5 44t3.5 48q0 21 -4 40t-13 33.5
t-25 23t-40 8.5h-18l42 177h17z" />
    <glyph glyph-name="eng" unicode="&#x14b;" horiz-adv-x="920" 
d="M907 407h1l-88 -407l-1 -4q-20 -90 -46.5 -163.5t-69 -126t-105.5 -81t-154 -28.5q-74 0 -120.5 22t-73.5 46l56 195q19 -11 53.5 -24.5t94.5 -13.5q29 0 49 9.5t34 30.5t24.5 54t21.5 80l1 4h-1l173 800q6 26 10.5 53t4.5 50q0 19 -4.5 36t-15 29t-28.5 19t-45 7
q-41 0 -69.5 -21t-48 -53.5t-31.5 -72.5t-21 -77l-165 -770h-236l258 1202h237l-25 -116q35 61 86 98.5t122 37.5q66 0 110.5 -17t71.5 -47.5t38.5 -72.5t11.5 -93q0 -45 -7.5 -94t-18.5 -102z" />
    <glyph glyph-name="Eng" unicode="&#x14a;" horiz-adv-x="992" 
d="M116 0l329 1521h267l93 -795l171 795h242l-326 -1509h1l-3 -12l-3 -14q-21 -93 -52 -168.5t-82 -129t-128 -83t-189 -29.5q-63 0 -106 14t-73 43l112 206q10 -7 20 -12.5t23 -9.5t30.5 -6t42.5 -2q35 0 59.5 9t42 29t30 50.5t23.5 74.5l6 28l-110 828l-178 -828h-242z
" />
    <glyph glyph-name="iacute" unicode="&#xed;" horiz-adv-x="449" 
d="M107 0l258 1202h238l-259 -1202h-237zM827 1556l-240 -275h-174l189 275h225z" />
    <glyph glyph-name="afii61352" unicode="&#x2116;" horiz-adv-x="1843" 
d="M107 0l329 1521h267l81 -848l182 848h243l-329 -1521h-244l-81 957l-206 -957h-242zM1259 1108q19 88 50 165.5t83 136t129.5 92.5t188.5 34q82 0 137.5 -19t88.5 -53t47 -81t14 -103q0 -40 -6 -83t-16 -89l-61 -281q-19 -87 -49 -165t-81.5 -136.5t-128 -92.5
t-188.5 -34q-83 0 -138.5 19.5t-89 54t-47.5 81.5t-14 103q0 39 5.5 81.5t15.5 87.5zM1661 1308q-42 0 -70 -16.5t-46 -43.5t-28.5 -62.5t-19.5 -72.5l-61 -291q-6 -26 -11 -52.5t-5 -49.5q0 -39 19.5 -65t74.5 -26q42 0 69.5 16t45.5 43t28.5 62t18.5 73l63 291
q6 26 10.5 53t4.5 50q0 19 -4.5 36t-15 29t-28.5 19t-45 7zM1122 121l44 211h576l-44 -211h-576z" />
    <glyph glyph-name="N" unicode="N" horiz-adv-x="991" 
d="M116 0l329 1521h300l60 -960l198 960h242l-325 -1521h-281l-77 989l-204 -989h-242z" />
    <glyph glyph-name="J" unicode="J" horiz-adv-x="668" 
d="M447 1521h439l-247 -1148q-19 -88 -50 -160t-82.5 -123t-127.5 -79t-184 -28q-63 0 -105.5 14t-72.5 43l112 207q10 -8 20 -13.5t23 -9t30.5 -5.5t42.5 -2q35 0 60 9t43 28.5t30.5 50.5t21.5 75l195 906h-198z" />
    <glyph glyph-name="Jcircumflex" unicode="&#x134;" horiz-adv-x="668" 
d="M447 1521h439l-247 -1148q-19 -88 -50 -160t-82.5 -123t-127.5 -79t-184 -28q-63 0 -105.5 14t-72.5 43l112 207q10 -8 20 -13.5t23 -9t30.5 -5.5t42.5 -2q35 0 60 9t43 28.5t30.5 50.5t21.5 75l195 906h-198zM430 1588l190 241h224l86 -241h-193l-32 119l-82 -119h-193z
" />
    <glyph glyph-name="afii10076" unicode="&#x43a;" horiz-adv-x="885" 
d="M600 1201l-103 -479h85l279 480h241l-369 -601l141 -601h-262l-84 489h-81l-105 -489h-237l259 1201h236z" />
    <glyph glyph-name="o" unicode="o" horiz-adv-x="876" 
d="M251 796q19 87 50 165t83 136.5t129.5 92.5t188.5 34q82 0 137.5 -19t88.5 -53.5t47 -81.5t14 -102q0 -40 -6 -83t-16 -89l-83 -388q-19 -88 -49.5 -165.5t-81.5 -136t-128 -92.5t-188 -34q-84 0 -139.5 19t-89 53.5t-47.5 81.5t-14 103q0 40 5.5 82.5t15.5 87.5z
M653 996q-42 0 -69.5 -16.5t-45.5 -44t-29 -63t-20 -73.5l-85 -395q-6 -26 -10.5 -52.5t-4.5 -49.5q0 -20 4.5 -37t15 -29t29 -19t45.5 -7q42 0 69 16t45 43t29 62t19 73l85 397q6 27 11 53.5t5 49.5q0 40 -19.5 66t-73.5 26z" />
    <glyph glyph-name="afii10096" unicode="&#x44e;" horiz-adv-x="1311" 
d="M106 0l259 1202h237l-112 -519h188l-45 -210h-188l-102 -473h-237zM690 796q19 87 50 165t83 136.5t129.5 92.5t188.5 34q82 0 137.5 -19t88.5 -53.5t47 -81.5t14 -102q0 -40 -6 -83t-16 -89l-83 -388q-19 -88 -49.5 -165.5t-81.5 -136t-128 -92.5t-188 -34
q-84 0 -139.5 19t-89 53.5t-47.5 81.5t-14 103q0 40 5.5 82.5t15.5 87.5zM1092 996q-42 0 -69.5 -16.5t-45.5 -44t-29 -63t-20 -73.5l-85 -395q-6 -26 -10.5 -52.5t-4.5 -49.5q0 -20 4.5 -37t15 -29t29 -19t45.5 -7q42 0 69 16t45 43t29 62t19 73l85 397q6 27 11 53.5
t5 49.5q0 40 -19.5 66t-73.5 26z" />
    <glyph glyph-name="afii10080" unicode="&#x43e;" horiz-adv-x="876" 
d="M251 796q19 87 50 165t83 136.5t129.5 92.5t188.5 34q82 0 137.5 -19t88.5 -53.5t47 -81.5t14 -102q0 -40 -6 -83t-16 -89l-83 -388q-19 -88 -49.5 -165.5t-81.5 -136t-128 -92.5t-188 -34q-84 0 -139.5 19t-89 53.5t-47.5 81.5t-14 103q0 40 5.5 82.5t15.5 87.5z
M653 996q-42 0 -69.5 -16.5t-45.5 -44t-29 -63t-20 -73.5l-85 -395q-6 -26 -10.5 -52.5t-4.5 -49.5q0 -20 4.5 -37t15 -29t29 -19t45.5 -7q42 0 69 16t45 43t29 62t19 73l85 397q6 27 11 53.5t5 49.5q0 40 -19.5 66t-73.5 26z" />
    <glyph glyph-name="Pallino" horiz-adv-x="15" 
d="M521 50q0 16 12 27t28 11q11 0 18.5 -7.5t7.5 -18.5q0 -15 -12.5 -27t-28.5 -12q-11 0 -18 8t-7 19z" />
    <glyph glyph-name="afii10068" unicode="&#x433;" horiz-adv-x="696" 
d="M99 0l259 1202h593l-50 -235h-356l-209 -967h-237z" />
    <glyph glyph-name="afii10082" unicode="&#x440;" horiz-adv-x="906" 
d="M27 -366l339 1568h236l-24 -108q35 59 84.5 94.5t120.5 35.5q67 0 112.5 -17t72.5 -48t38.5 -74t11.5 -94q0 -45 -7 -94t-18 -101l-84 -388q-19 -88 -46.5 -165.5t-72 -136t-110.5 -92.5t-162 -34q-37 0 -63.5 10t-44.5 28t-28.5 43t-14.5 56l-104 -483h-236zM679 996
q-42 0 -70.5 -21t-48 -53t-31.5 -72t-20 -77l-19 -86l-54 -256q-6 -29 -11.5 -59t-5.5 -59q0 -21 4 -40t14.5 -33t27.5 -22t43 -8q42 0 70 16.5t46 43.5t29 62t19 73l85 396q6 26 10.5 52.5t4.5 49.5q0 40 -19.5 66.5t-73.5 26.5z" />
    <glyph glyph-name="afii10074" unicode="&#x438;" horiz-adv-x="914" 
d="M572 0l154 672l-379 -672h-261l275 1202h238l-150 -655l377 655h29l170 1l-1 -1h64l-279 -1202h-237z" />
    <glyph glyph-name="afii10098" unicode="&#x491;" horiz-adv-x="825" 
d="M551 973l-210 -973h-235l259 1202h397l36 169l233 -2l-85 -396h-395z" />
    <glyph glyph-name="afii10051" unicode="&#x402;" horiz-adv-x="1073" 
d="M780 1286l-58 -269q35 60 84 95.5t121 35.5q67 0 112.5 -17t72.5 -48t38.5 -74t11.5 -94q0 -45 -7 -93.5t-18 -101.5l-68 -312q-19 -88 -46.5 -165.5t-72 -136t-110.5 -92.5t-162 -34q-72 0 -107 36t-44 96l-24 -112h-243l278 1286h-248l50 235h738l-49 -235h-249z
M823 920q-39 0 -66.5 -17.5t-46.5 -46t-31.5 -64t-20.5 -71.5l-29 -132l-33 -158q-6 -29 -11.5 -59.5t-5.5 -59.5q0 -21 4 -40t14 -32.5t27.5 -21.5t43.5 -8q42 0 70 16.5t46 43.5t28.5 62t19.5 73l69 321q6 26 10.5 52.5t4.5 49.5q0 40 -19.5 66t-73.5 26z" />
    <glyph glyph-name="afii10050" unicode="&#x490;" horiz-adv-x="875" 
d="M626 1288l-279 -1288h-241l328 1522h440l38 177h234l-87 -411h-433z" />
    <glyph glyph-name="afii10042" unicode="&#x428;" horiz-adv-x="1284" 
d="M1505 1518l-328 -1518h-1069l328 1518h241l-277 -1284h177l275 1274h241l-275 -1274h168l277 1284h242z" />
    <glyph glyph-name="afii10090" unicode="&#x448;" horiz-adv-x="1281" 
d="M606 1202l-211 -973h177l209 963h241l-208 -963h167l211 973h241l-259 -1202h-1069l258 1202h243z" />
    <glyph glyph-name="afii10091" unicode="&#x449;" horiz-adv-x="1336" 
d="M1435 1202l-210 -973h134l-87 -404h-235l38 175h-968l259 1202h242l-210 -973h177l208 963h241l-208 -963h168l210 973h241z" />
    <glyph glyph-name="afii10079" unicode="&#x43d;" horiz-adv-x="934" 
d="M106 0l259 1202h237l-106 -489h249l106 489h236l-258 -1202h-237l103 478h-249l-103 -478h-237z" />
    <glyph glyph-name="afii10081" unicode="&#x43f;" horiz-adv-x="934" 
d="M106 0l259 1202h722l-259 -1202h-236l211 973h-249l-210 -973h-238z" />
    <glyph glyph-name="afii10088" unicode="&#x446;" horiz-adv-x="1027" 
d="M607 1202l-211 -973h244l210 973h241l-209 -973h141l-87 -404h-235l38 175h-633l259 1202h242z" />
    <glyph glyph-name="afii10083" unicode="&#x441;" horiz-adv-x="870" 
d="M648 399h234l-4 -19q-17 -80 -46 -152.5t-79 -127.5t-126.5 -87.5t-188.5 -32.5q-83 0 -139 19t-89.5 53t-47.5 81.5t-14 103.5q0 39 5.5 82t15.5 88l68 314q5 28 11 55t13 55q19 84 51 156t83.5 124.5t127 82.5t181.5 30q84 0 139.5 -19t89 -52t47.5 -78t14 -98
q0 -36 -5.5 -74.5t-14.5 -78.5l-4 -20h-235l6 24q5 19 8 38.5t3 38.5t-4.5 35.5t-15.5 29t-30 19.5t-48 7q-42 0 -69.5 -16.5t-45.5 -44t-29 -63t-19 -72.5l-59 -273q-12 -54 -22.5 -103.5t-16.5 -97.5q-2 -21 0 -42t11.5 -37.5t28.5 -26.5t51 -10q42 0 70 15t46 39t28 54
t16 60z" />
    <glyph glyph-name="afii10087" unicode="&#x445;" horiz-adv-x="819" 
d="M563 0l-68 403l-247 -403h-231l384 625l-112 577h249l59 -369l227 369h231l-360 -577l115 -625h-247z" />
    <glyph glyph-name="afii10078" unicode="&#x43c;" horiz-adv-x="1194" 
d="M527 858l-176 -858h-241l259 1204h313l35 -657h4l322 657h312l-260 -1204h-240l192 856l-300 -647h-200z" />
    <glyph glyph-name="afii10102" unicode="&#x455;" horiz-adv-x="868" 
d="M869 408q0 -100 -29.5 -179t-86 -134.5t-138.5 -85t-186 -29.5q-80 0 -135 17t-89.5 49t-49.5 78t-15 104q0 35 5.5 74.5t14.5 82.5h237q-5 -21 -7.5 -40.5t-2.5 -37.5q0 -43 19 -70t69 -27q34 0 59.5 12t42.5 31t25 43t8 49q0 40 -25.5 71.5t-63.5 60.5t-82.5 59
t-82.5 67.5t-63.5 86t-25.5 113.5q0 103 29.5 182t85.5 132t136.5 80t183.5 27q62 0 112.5 -11t86.5 -37.5t55.5 -72t19.5 -114.5q0 -63 -18 -150l-237 1q4 17 6.5 34.5t2.5 34.5q0 36 -16.5 61.5t-60.5 25.5q-32 0 -57.5 -11.5t-42.5 -30t-26 -41.5t-9 -47q0 -36 26 -65.5
t65 -58.5t84.5 -59.5t84.5 -69.5t65 -89t26 -116z" />
    <glyph glyph-name="afii10100" unicode="&#x453;" horiz-adv-x="769" 
d="M94 0l259 1202h593l-50 -235h-356l-209 -967h-237zM958 1571l-240 -275h-174l189 275h225z" />
    <glyph glyph-name="afii10089" unicode="&#x447;" horiz-adv-x="926" 
d="M602 1202l-93 -435q-6 -26 -11 -53t-5 -50q0 -39 19.5 -65t74.5 -26q41 0 69 21t47.5 53.5t31.5 72t21 77.5l87 405h236l-259 -1202h-236l104 481q-35 -61 -86 -98.5t-123 -37.5q-66 0 -110.5 17t-71.5 48t-38.5 73t-11.5 93q0 45 7.5 93.5t18.5 101.5l93 431h236z" />
    <glyph glyph-name="afii10103" unicode="&#x456;" horiz-adv-x="448" 
d="M395 1431q0 70 39 108.5t129 38.5q62 0 91 -21.5t29 -66.5q0 -69 -38 -108t-132 -39q-118 0 -118 88zM106 0l260 1202h236l-259 -1202h-237z" />
    <glyph glyph-name="afii10106" unicode="&#x459;" horiz-adv-x="967" 
d="M956 373q-23 -105 -65 -176.5t-100 -115t-130 -62.5t-156 -19h-351l209 973h-141l49 229h384l-77 -357h104q72 0 129 -12t97.5 -40.5t62 -75.5t21.5 -117q0 -30 -4.5 -64t-12.5 -73zM733 464q7 34 7 62q0 47 -25.5 67t-85.5 20h-101l-83 -378h110q71 0 107.5 35t51.5 103
z" />
    <glyph glyph-name="afii10108" unicode="&#x45b;" horiz-adv-x="906" 
d="M518 903l-39 -182q34 61 85 98.5t123 37.5q66 0 110.5 -17t71.5 -47.5t38.5 -72.5t11.5 -93q0 -45 -7.5 -94t-18.5 -102l-93 -431h-236l94 435q6 26 10.5 52.5t4.5 49.5q0 20 -4.5 37t-15 29t-29 19t-45.5 7q-41 0 -69.5 -21t-48 -53.5t-31.5 -72.5t-20 -77l-87 -405
h-236l194 903h-75l39 185h75l25 114h237l-25 -114h83l-40 -185h-82z" />
    <glyph glyph-name="afii10045" unicode="&#x42b;" horiz-adv-x="1335" 
d="M907 373q-23 -105 -64.5 -176.5t-99.5 -115t-130.5 -62.5t-156.5 -19h-350l328 1521h242l-114 -521h105q72 0 129 -12t97.5 -40.5t62 -75.5t21.5 -117q0 -30 -4.5 -64t-12.5 -73zM718 618q4 18 6 33t2 29q0 47 -26 67.5t-86 20.5h-101l-116 -533h110q71 0 107.5 35
t50.5 103zM1233 0l329 1521h-242l-328 -1521h241z" />
    <glyph glyph-name="afii10092" unicode="&#x44a;" horiz-adv-x="991" 
d="M979 373q-23 -105 -65 -176t-100 -115t-130 -63t-156 -19h-350l211 982h-165l46 220h408l-77 -357h104q72 0 129.5 -12t97.5 -40.5t61.5 -76t21.5 -117.5q0 -29 -4 -63.5t-12 -72.5zM756 464q4 18 6 33t2 29q0 47 -26 67t-86 20h-101l-82 -378h110q71 0 107 35t51 103z
" />
    <glyph glyph-name="afii10043" unicode="&#x429;" horiz-adv-x="1396" 
d="M1503 1518l-278 -1289h166l-87 -404h-235l38 175h-1001l328 1518h241l-277 -1284h177l275 1274h242l-276 -1274h168l277 1284h242z" />
    <glyph glyph-name="afii10099" unicode="&#x452;" horiz-adv-x="904" 
d="M615 1291l-46 -203q35 62 87.5 99.5t124.5 37.5q66 0 109.5 -16.5t70 -46.5t37.5 -71t11 -90q0 -46 -7.5 -97.5t-20.5 -106.5l-180 -784l-3 -13l-8 -33q-21 -88 -53 -160t-83.5 -123t-127 -79t-183.5 -28q-63 0 -105.5 14t-71.5 43l114 203q9 -8 19 -13.5t23 -9.5
t30.5 -6t42.5 -2q36 0 62 9t45 29.5t32.5 52.5t24.5 77l9 37l182 791q6 28 11 55t5 52q0 40 -19.5 66t-74.5 26q-42 0 -71.5 -21.5t-49.5 -54.5t-33 -73.5t-22 -79.5l-177 -772h-232l297 1291h-76l40 176h76l24 103h232l-24 -103h83l-41 -176h-83z" />
    <glyph glyph-name="afii10846" unicode="&#x4d9;" horiz-adv-x="896" 
d="M259.984 797.951l4 22.999q16.998 82.9951 46.4971 156.49q29.498 73.4951 79.9951 127.992q50.4961 54.4971 126.992 86.4951q76.4951 31.998 188.488 31.998q82.9951 0 138.991 -18.999q55.9971 -18.999 89.4951 -53.4971t47.4971 -81.9951t13.999 -103.493
q0 -38.998 -5.5 -81.9951q-5.5 -42.998 -15.499 -87.9951l-83.9951 -387.977q-18.998 -86.9941 -49.9971 -164.989q-30.998 -77.9951 -82.4941 -136.492q-51.4971 -58.4961 -128.992 -92.4941t-189.489 -33.998q-82.9941 0 -138.491 18.499
q-55.4961 18.499 -88.9941 51.4971t-47.4971 78.4951t-13.999 99.4941q0 36.9971 5.49902 76.4951q5.5 39.4971 14.499 81.4951l38.998 182.988h1l13.999 67.9961l500.97 91.9941l14.999 69.9961q5.99902 25.998 9.99902 51.4971q4 25.498 4 48.4971q0 19.999 -4.5 37.4971
q-4.5 17.499 -15.499 30.499q-10.999 12.999 -28.998 19.998q-17.999 7 -45.9971 7q-41.998 0 -69.4961 -14.499t-45.4971 -38.498q-17.999 -23.998 -27.998 -54.9961q-10 -30.998 -17.999 -62.9961l-5 -24.999h-233.985zM488.97 207.987q41.998 0 70.4961 16.499
t46.9971 44.4971t29.998 63.4961q11.5 35.498 19.499 73.4961l25.998 117.992l-258.983 -51.9971l-18.999 -88.9941q-5 -20.999 -8.5 -41.9971q-3.49902 -20.999 -3.49902 -40.998q0 -18.999 4.49902 -35.9971q4.5 -16.999 15.499 -29.499q11 -12.499 29.998 -19.498
q18.999 -7 46.9971 -7z" />
    <glyph glyph-name="iotadieresis" unicode="&#x3ca;" horiz-adv-x="449" 
d="M107 0l258 1202h238l-259 -1202h-237zM289 1425q0 33 7 61t23.5 47.5t43.5 30.5t66 11q93 0 93 -82q0 -71 -33 -110t-110 -39q-90 0 -90 81zM556 1425q0 34 7.5 61.5t24 47t43 30.5t65.5 11q48 0 70.5 -20t22.5 -61q0 -70 -32 -110t-111 -40q-90 0 -90 81z" />
    <glyph glyph-name="afii10104" unicode="&#x457;" horiz-adv-x="449" 
d="M107 0l258 1202h238l-259 -1202h-237zM297 1423q0 33 7 61t23.5 47.5t43.5 30.5t66 11q93 0 93 -82q0 -71 -33 -110t-110 -39q-90 0 -90 81zM564 1423q0 34 7.5 61.5t24 47t43 30.5t65.5 11q48 0 70.5 -20t22.5 -61q0 -70 -32 -110t-111 -40q-90 0 -90 81z" />
    <glyph glyph-name="afii10084" unicode="&#x442;" horiz-adv-x="679" 
d="M668 973l-211 -973h-235l211 973h-215l49 229h663l-49 -229h-213z" />
    <glyph glyph-name="Nu" unicode="&#x39d;" horiz-adv-x="991" 
d="M116 0l329 1521h300l60 -960l198 960h242l-325 -1521h-281l-77 989l-204 -989h-242z" />
    <glyph glyph-name="afii10044" unicode="&#x42a;" horiz-adv-x="980" 
d="M954 373q-23 -105 -65 -176.5t-100 -115t-130 -62.5t-156 -19h-351l278 1287h-140l49 234h383l-113 -521h104q72 0 129.5 -12t97.5 -40.5t61.5 -76t21.5 -117.5q0 -29 -4 -63.5t-12 -72.5zM764 618q8 38 8 63q0 47 -26 67t-86 20h-101l-116 -533h110q71 0 107.5 35
t51.5 103z" />
    <glyph glyph-name="afii10026" unicode="&#x418;" horiz-adv-x="991" 
d="M678 0l222 990l-504 -990h-280l330 1521h242l-215 -959l473 959h301l-328 -1521h-241z" />
    <glyph glyph-name="afii10037" unicode="&#x423;" horiz-adv-x="865" 
d="M682 551l-278 -551h-236l265 525l-95 996h265l22 -656l320 656h238z" />
    <glyph glyph-name="afii10105" unicode="&#x458;" horiz-adv-x="451" 
d="M395 1431q0 70 39 108.5t129 38.5q62 0 91 -21.5t29 -66.5q0 -69 -38.5 -108t-132.5 -39q-117 0 -117 88zM603 1202l-261 -1211q-20 -90 -46.5 -163t-69 -125.5t-105.5 -81t-155 -28.5q-37 0 -66.5 6t-53 15.5t-42 21.5t-31.5 24l57 199q9 -6 21.5 -13t30.5 -13.5t41 -11
t53 -4.5q29 0 49 9.5t34 30.5t24.5 54t21.5 80l261 1211h237z" />
    <glyph glyph-name="afii10097" unicode="&#x44f;" horiz-adv-x="853" 
d="M516 0l96 425h-71q-24 -2 -47 -9t-44.5 -26t-42 -53t-41.5 -91l-34 -93q-20 -59 -42 -98t-32 -55h-243q12 17 23 33t21 34.5t20 41t20 52.5l31 91q21 61 39.5 101.5t38 67.5t44 46t57.5 38q-42 37 -67 88.5t-25 117.5q0 41 10 81l12 53q42 182 148 269.5t290 87.5h346
l-272 -1202h-235zM461 793q-6 -27 -6 -49q0 -44 24 -67.5t78 -23.5h107l73 322h-109q-63 0 -100.5 -30t-53.5 -97z" />
    <glyph glyph-name="Dsmall" unicode="&#xf764;" horiz-adv-x="899" 
d="M452 0h-347l258 1202h351q82 -1 138.5 -20.5t90.5 -54.5t49 -83t15 -106q0 -37 -5.5 -77t-14.5 -83l-76 -355q-19 -88 -51.5 -165t-86.5 -134.5t-132.5 -90.5t-188.5 -33zM555 968l-160 -735h112q70 2 107.5 52.5t57.5 138.5l75 354q11 52 11 88q0 48 -20.5 74t-70.5 28
h-112z" />
    <glyph glyph-name="Esmall" unicode="&#xf765;" horiz-adv-x="807" 
d="M106 0l259 1202h633l-51 -235h-396l-52 -237h281l-49 -235h-281l-57 -260h396l-51 -235h-632z" />
    <glyph glyph-name="Fsmall" unicode="&#xf766;" horiz-adv-x="760" 
d="M106 0l259 1202h633l-51 -237h-396l-59 -268h288l-50 -237h-288l-99 -460h-237z" />
    <glyph glyph-name="Gsmall" unicode="&#xf767;" horiz-adv-x="869" 
d="M567 641h366l-24 -95h4l-36 -166q-17 -80 -46.5 -152.5t-79.5 -127.5t-126.5 -87.5t-187.5 -32.5q-83 0 -139 19t-89.5 53.5t-47.5 82t-14 103.5q0 39 5.5 81.5t15.5 87.5l67 313l24 111q19 84 51 156t84 124.5t127 82.5t181 30q84 0 139.5 -19t89.5 -52t48 -78t14 -98
q0 -36 -5.5 -74.5t-14.5 -78.5l-5 -20h-234l5 24q5 19 8 38.5t3 38.5t-4.5 35.5t-15.5 29t-29.5 19.5t-47.5 7q-42 0 -69.5 -16.5t-45.5 -44t-29 -63t-20 -72.5l-58 -273q-12 -54 -22.5 -103.5t-17.5 -97.5q-2 -21 0.5 -42t12 -37.5t28.5 -26.5t51 -10q42 0 69.5 15t45.5 39
t28 54t16 60l16 74h-131z" />
    <glyph glyph-name="Hsmall" unicode="&#xf768;" horiz-adv-x="934" 
d="M106 0l259 1202h237l-106 -489h249l106 489h236l-258 -1202h-237l103 478h-249l-103 -478h-237z" />
    <glyph glyph-name="Jsmall" unicode="&#xf76a;" horiz-adv-x="632" 
d="M113 241q26 -14 54 -20.5t66 -6.5q33 0 57 9.5t42 29.5t30.5 52t22.5 76l178 821h237l-170 -785l-10 -47q-19 -88 -50.5 -160t-83 -123t-127 -78.5t-183.5 -27.5q-63 0 -105.5 14t-73.5 43z" />
    <glyph glyph-name="Lsmall" unicode="&#xf76c;" horiz-adv-x="750" 
d="M603 1202l-211 -965h397l-50 -237h-633l259 1202h238z" />
    <glyph glyph-name="Msmall" unicode="&#xf76d;" horiz-adv-x="1193" 
d="M523 858l-176 -858h-241l259 1204h313l35 -657h4l322 657h312l-260 -1204h-240l192 856l-300 -647h-200z" />
    <glyph glyph-name="Nsmall" unicode="&#xf76e;" horiz-adv-x="942" 
d="M569 0l-78 658l-142 -658h-242l257 1202h62v1l182 -1h19l85 -644l139 644h241l-258 -1202h-265z" />
    <glyph glyph-name="Qsmall" unicode="&#xf771;" horiz-adv-x="876" 
d="M329 -9q-51 11 -86 33.5t-56.5 54.5t-30.5 71.5t-9 85.5q0 40 5.5 83t15.5 88l83 389q19 87 50 165t83 136.5t129.5 92.5t188.5 34q82 0 137.5 -19t88.5 -53.5t47 -81.5t14 -102q0 -40 -6 -83t-16 -89l-83 -388q-17 -77 -42 -146t-65 -124.5t-97.5 -94t-138.5 -53.5
l-26 -122h-212zM653 996q-42 0 -69.5 -16.5t-45.5 -44t-29 -63t-20 -73.5l-85 -395q-6 -26 -10.5 -52.5t-4.5 -49.5q0 -20 4.5 -37t15 -29t29 -19t45.5 -7q42 0 69 16t45 43t29 62t19 73l85 397q6 27 11 53.5t5 49.5q0 40 -19.5 66t-73.5 26z" />
    <glyph glyph-name="Usmall" unicode="&#xf775;" horiz-adv-x="897" 
d="M1077 1202l-179 -832q-19 -87 -50.5 -158.5t-82.5 -122.5t-126.5 -79.5t-182.5 -29.5h-4h-7l-1 1q-81 1 -137 18t-90 48t-49 74.5t-15 98.5q0 34 5 71t14 79l179 832h241l-179 -830q-5 -21 -8 -40.5t-3 -36.5q0 -38 21.5 -60t80.5 -22q41 1 67 13.5t43 33.5t26.5 50
t17.5 62l178 830h241z" />
    <glyph glyph-name="Wsmall" unicode="&#xf777;" horiz-adv-x="1362" 
d="M274 1203h244l-90 -975h9l332 975h345l-88 -975h7l333 975h243l-438 -1203h-367l85 960l-328 -960h-368z" />
    <glyph glyph-name="Ysmall" unicode="&#xf779;" horiz-adv-x="755" 
d="M1003 1202l-404 -753l-96 -449h-241l97 449l-88 753h233l30 -504l253 504h216z" />
    <glyph glyph-name="epsilon" unicode="&#x3b5;" horiz-adv-x="899" 
d="M659 399h234l-4 -19q-17 -80 -46.5 -152.5t-79.5 -127.5t-126.5 -87.5t-187.5 -32.5q-83 0 -139 19t-89.5 53.5t-47.5 82t-14 103.5q0 39 5.5 81.5t15.5 87.5l67 313q6 29 12 56t13 55q19 84 50.5 156t83.5 124.5t127 82.5t181 30q84 0 139.5 -19t89.5 -52t48 -78t14 -98
q0 -36 -5.5 -74.5t-14.5 -78.5l-5 -20h-234l5 24q5 19 8 39t3 39q0 18 -4.5 34.5t-15.5 29t-29.5 19.5t-47.5 7q-42 0 -69.5 -16.5t-45.5 -44t-29 -63t-20 -72.5l-20 -95l329 6l-46 -215l-328 3q-10 -46 -18.5 -88.5t-14.5 -84.5q-2 -21 0.5 -42t12 -37.5t28.5 -26.5t51 -10
q42 0 69.5 15t45.5 39t28 54t16 60z" />
    <glyph glyph-name="afii10095" unicode="&#x44d;" horiz-adv-x="897" 
d="M410 378q-5 -22 -9 -43t-4 -41q0 -38 20 -63t76 -25q35 0 60 11t43 29t30 41.5t20 47.5q11 41 20.5 82t19.5 83l-329 -2l46 211l328 -6l22 96q7 29 12.5 57t5.5 53q0 40 -20 65.5t-74 25.5q-44 0 -73 -16t-47 -41t-28.5 -55.5t-17.5 -59.5l-5 -24h-230l4 20
q17 78 47 150.5t81 128t128.5 88.5t189.5 33q81 0 135.5 -18t88 -50t48 -77.5t14.5 -100.5q0 -34 -5 -71t-13 -76q-7 -28 -12.5 -55t-11.5 -55l-70 -312q-20 -87 -51.5 -164.5t-84 -136.5t-131 -93.5t-190.5 -34.5q-82 0 -136.5 18t-87.5 50t-46.5 76t-13.5 96q0 38 6 78
t15 82l3 19h231z" />
    <glyph glyph-name="afii10101" unicode="&#x454;" horiz-adv-x="897" 
d="M659 399h234l-4 -19q-17 -80 -46.5 -152.5t-79.5 -127.5t-126.5 -87.5t-187.5 -32.5q-83 0 -139 19t-89.5 53.5t-47.5 82t-14 103.5q0 39 5.5 81.5t15.5 87.5l67 313q6 29 12 56t13 55q19 84 50.5 156t83.5 124.5t127 82.5t181 30q84 0 139.5 -19t89.5 -52t48 -78t14 -98
q0 -36 -5.5 -74.5t-14.5 -78.5l-5 -20h-234l5 24q5 19 8 39t3 39q0 18 -4.5 34.5t-15.5 29t-29.5 19.5t-47.5 7q-42 0 -69.5 -16.5t-45.5 -44t-29 -63t-20 -72.5l-20 -95l329 6l-46 -215l-328 3q-10 -46 -18.5 -88.5t-14.5 -84.5q-2 -21 0.5 -42t12 -37.5t28.5 -26.5t51 -10
q42 0 69.5 15t45.5 39t28 54t16 60z" />
    <glyph glyph-name="afii10061" unicode="&#x40c;" horiz-adv-x="937" 
d="M116 0l329 1521h241l-138 -637h85l358 637h257l-413 -744l105 -777h-258l-93 650h-91l-140 -650h-242zM1164 1875l-240 -275h-174l189 275h225z" />
    <glyph glyph-name="tau" unicode="&#x3c4;" horiz-adv-x="690" 
d="M673 973l-210 -974h-235l211 974h-222l49 229h676l-49 -229h-220z" />
    <glyph glyph-name="spessoresmall" horiz-adv-x="810" 
d="M875 1006h171l-13 -65h-171zM909 1082l128 54l12 -45l-129 -55z" />
    <glyph glyph-name="afii10041" unicode="&#x427;" horiz-adv-x="971" 
d="M676 1522l-146 -681q-5 -20 -7.5 -39t-2.5 -38q0 -24 5.5 -45t18 -37t34 -25t53.5 -9q40 0 70.5 21t52 53.5t36 72t22.5 77.5l140 650h242l-329 -1522h-241l120 556q-35 -61 -86.5 -98.5t-123.5 -37.5q-73 0 -123 20.5t-81 56.5t-45 85.5t-14 108.5q0 75 18 156l146 675
h241z" />
    <glyph glyph-name="afii10052" unicode="&#x403;" horiz-adv-x="797" 
d="M1083 1521l-52 -227h-389l-297 -1294h-237l349 1521h626zM1115 1873l-244 -274h-172l195 274h221z" />
    <glyph glyph-name="afii10093" unicode="&#x44b;" horiz-adv-x="1347" 
d="M1004 0l259 1202h237l-259 -1202h-237zM907 373q-23 -105 -65 -176t-100 -115t-130 -63t-156 -19h-351l259 1202h242l-77 -357h104q72 0 129.5 -12t97.5 -40.5t61.5 -76t21.5 -117.5q0 -29 -4 -63.5t-12 -72.5zM684 464q7 34 7 62q0 47 -25.5 67t-85.5 20h-101l-83 -378
h110q71 0 107.5 35t51.5 103z" />
    <glyph glyph-name="afii10094" unicode="&#x44c;" horiz-adv-x="912" 
d="M901 373q-23 -105 -64.5 -176.5t-99.5 -115t-130.5 -62.5t-156.5 -19h-350l258 1202h242l-77 -357h104q72 0 129 -12t97.5 -40.5t62 -75.5t21.5 -117q0 -30 -4.5 -64t-12.5 -73zM678 464q4 18 6 33t2 29q0 47 -26 67t-86 20h-101l-82 -378h110q71 0 107 35t51 103z" />
    <glyph glyph-name="afii10069" unicode="&#x434;" horiz-adv-x="1022" 
d="M915 229h142l-86 -404h-235l37 175h-526l-38 -175h-234l87 404h9q33 0 72 40.5t80 124.5t82.5 213.5t79.5 306.5l63 289l227 -1h451zM614 882q-24 -113 -51 -212t-59.5 -181.5t-73 -148t-91.5 -111.5h341l161 744h-208z" />
    <glyph glyph-name="afii10021" unicode="&#x414;" horiz-adv-x="1088" 
d="M747 1521h521l-279 -1286h138l-88 -410h-241l37 175h-583l-37 -175h-242l88 410h24q24 0 50 27t51.5 73t51 108t49 131t45.5 142.5t40.5 142.5t33 131t24.5 108l92 424zM671 1097q-34 -159 -66.5 -293.5t-69.5 -243t-81.5 -190.5t-102.5 -135h397l227 1052h-263z" />
    <glyph glyph-name="afii10058" unicode="&#x409;" horiz-adv-x="1469" 
d="M1458 373q-23 -105 -64.5 -176.5t-100 -115t-131 -62.5t-156.5 -19h-350l277 1287h-290l-190 -883q-23 -104 -57.5 -183.5t-87 -133t-126.5 -80.5t-176 -27l50 234q35 0 60.5 13t43.5 37t30.5 59.5t22.5 80.5l240 1119l231 -2h542l-113 -521h104q72 0 129 -12t97.5 -40.5
t62 -75.5t21.5 -117q0 -30 -4.5 -64t-12.5 -73zM1268 618q4 18 6 33t2 29q0 47 -26 67.5t-86 20.5h-101l-115 -533h109q71 0 107.5 35t50.5 103z" />
    <glyph glyph-name="afii10059" unicode="&#x40a;" horiz-adv-x="1435" 
d="M105 0l328 1521h242l-117 -537h275l117 537h242l-116 -537h103q72 0 129.5 -12.5t97.5 -41t61.5 -75.5t21.5 -117q0 -61 -16 -135l-50 -230q-23 -105 -65 -176t-100 -115t-130 -63t-156 -19h-351l162 752h-275l-162 -752h-241zM1230 602q8 38 8 63q0 47 -26.5 67
t-85.5 20h-100l-112 -517h109q71 0 107 35t51 103z" />
    <glyph glyph-name="afii10060" unicode="&#x40b;" horiz-adv-x="1075" 
d="M742 0l133 616q6 26 10.5 53t4.5 50q0 19 -4.5 36t-15 29t-28.5 19t-45 7q-41 0 -69.5 -21t-48 -53.5t-31.5 -72.5t-20 -77l-127 -586h-235l298 1383h235l-103 -481q35 61 87.5 98.5t124.5 37.5q67 0 111.5 -17t71.5 -48t38 -73.5t11 -93.5q0 -45 -7 -93.5t-18 -101.5
l-132 -611h-241zM779 1286l-278 -1286h-242l278 1286h-248l50 235h738l-49 -235h-249z" />
    <glyph glyph-name="afii10072" unicode="&#x436;" horiz-adv-x="1231" 
d="M992 1201l-104 -479h42l279 480h240l-369 -601l141 -601h-261l-84 489h-38l-105 -489h-236l105 489h-34l-294 -489h-262l400 601l-109 601h240l72 -480h37l104 479h236z" />
    <glyph glyph-name="afii10077" unicode="&#x43b;" horiz-adv-x="978" 
d="M644 0l210 973h-284l-122 -569q-23 -104 -58.5 -183.5t-89 -133t-126 -80.5t-168.5 -27l50 228q35 0 60 13t43 37.5t30.5 60t22.5 80.5l174 804l227 -1h526l-260 -1202h-235z" />
    <glyph glyph-name="afii10107" unicode="&#x45a;" horiz-adv-x="1399" 
d="M1388 373q-22 -105 -64 -176.5t-100 -115t-130.5 -62.5t-156.5 -19h-346l122 566h-248l-122 -566h-237l258 1202h238l-88 -404h249l87 404h235l-87 -404h105q72 0 129.5 -12t98 -40.5t62 -75.5t21.5 -117q0 -30 -4.5 -64t-12.5 -73zM1155 416q4 18 6 33t2 29
q0 47 -26 67.5t-86 20.5h-102l-73 -331h112q71 0 106.5 35t51.5 103z" />
    <glyph glyph-name="i.trk" horiz-adv-x="474" 
d="M397 1431q0 70 39 108.5t129 38.5q62 0 91 -21.5t29 -66.5q0 -69 -38 -108t-132 -39q-118 0 -118 88zM108 0l260 1202h236l-259 -1202h-237z" />
    <glyph glyph-name="zero.slash" horiz-adv-x="895" 
d="M180 403l153 716q19 87 49 164t81 134.5t128 91t188 33.5q82 0 137 -18.5t88 -51.5t47 -79t14 -101q0 -40 -6 -83.5t-16 -89.5l-154 -715q-19 -88 -49 -165t-81 -134.5t-127.5 -91t-188.5 -33.5q-82 0 -137 18.5t-88 51.5t-46.5 79t-13.5 100q0 40 6 83.5t16 90.5z
M729 1309q-41 0 -67 -16t-42.5 -42t-26.5 -61t-18 -72l-78 -361l290 288l16 74q6 28 10.5 55t4.5 50q0 19 -4 34.5t-14 26.5t-27.5 17.5t-43.5 6.5zM493 214q41 0 67.5 16t43.5 42t27 60.5t18 71.5l76 353l-292 -296l-12 -58q-6 -28 -11 -55t-5 -50q0 -37 18 -60.5t70 -23.5
z" />
    <glyph glyph-name="afii10066" unicode="&#x431;" horiz-adv-x="900" 
d="M1183 1570q-14 -32 -28.5 -62t-34 -56.5t-46.5 -48.5t-66.5 -37.5t-93.5 -24.5t-128 -9q-50 0 -87 -17.5t-64.5 -48.5t-46.5 -72t-33 -87q51 54 109.5 85.5t119.5 31.5q63 0 104.5 -15t66.5 -42t35.5 -64.5t10.5 -82.5q0 -50 -10 -107t-24 -118l-89 -386
q-22 -98 -52.5 -177t-81.5 -135t-128 -86.5t-193 -30.5q-81 0 -135 19t-86.5 53t-46 80t-13.5 100q0 41 6 85.5t17 91.5l101 439h1l10 46q31 135 75.5 248t105.5 195t140.5 128.5t181.5 49.5q56 1 94.5 8t63.5 15.5t39.5 17.5t23.5 15zM478 755l-80 -350q-7 -28 -12 -56
t-5 -52q0 -20 4.5 -36.5t15.5 -28.5t29 -19t46 -7q43 0 71.5 17t47 44.5t30 63.5t20.5 75l91 393q7 29 12 56.5t5 52.5q0 20 -4.5 37t-15 29t-29 19t-45.5 7q-51 0 -83.5 -29t-52.5 -71q-7 -14 -13.5 -33t-12 -39t-10.5 -39t-8 -34h-1z" />
    <glyph glyph-name="afii10073" unicode="&#x437;" horiz-adv-x="867" 
d="M414 702l166 1q64 1 109 34.5t59 93.5l3 14q8 35 8 58q0 48 -26 69.5t-73 21.5q-57 0 -96.5 -37.5t-56.5 -107.5l-12 -52h-236l8 38q24 105 66 178.5t99 120.5t128 68.5t153 21.5q151 0 221 -61.5t70 -180.5q0 -63 -18 -141q-12 -56 -37 -97.5t-54 -71.5t-57 -48t-46 -25
q47 -9 69 -55t22 -109q0 -22 -2.5 -44.5t-7.5 -45.5q-18 -80 -54.5 -147t-92 -115.5t-130 -75.5t-169.5 -27q-67 0 -120 14t-89.5 44t-56 77t-19.5 113q0 60 18 140l10 38h236l-13 -52q-6 -27 -6 -51q0 -46 24 -70t69 -24q58 0 100 37t62 123q3 12 4 22.5t1 21.5
q0 42 -25.5 67.5t-85.5 25.5l-167 -1l17 73l9 39z" />
    <glyph glyph-name="afii10086" unicode="&#x444;" horiz-adv-x="1328" 
d="M466 -369l93 430q-32 -38 -74.5 -59.5t-97.5 -21.5q-67 0 -111.5 17t-71.5 47.5t-38.5 73t-11.5 93.5q0 45 7.5 94t18.5 103l84 388q18 87 46 164.5t73 136t112 93t163 34.5q54 0 86.5 -19t49.5 -52l80 369h236l-80 -370q31 34 72 53t96 19q67 0 112.5 -17t72.5 -48
t38.5 -74t11.5 -94q0 -45 -7 -94t-18 -101l-84 -388q-19 -88 -46.5 -165.5t-72 -136t-110.5 -92.5t-162 -34q-57 0 -89.5 22.5t-48.5 61.5l-93 -433h-236zM1094 996q-38 0 -65 -17t-46 -44l-147 -682q9 -20 29 -31.5t58 -11.5q42 0 69.5 16.5t45.5 43.5t29 62t20 73l84 396
q6 27 11 53.5t5 49.5q0 40 -19.5 66t-73.5 26zM495 210q37 0 62.5 11.5t42.5 31.5l148 686q-8 26 -27.5 41.5t-55.5 15.5q-43 0 -71 -17t-46 -45t-28 -62.5t-18 -70.5l-85 -397q-6 -27 -10.5 -52.5t-4.5 -48.5q0 -41 19.5 -67t73.5 -26z" />
    <glyph glyph-name="gamma" unicode="&#x3b3;" horiz-adv-x="827" 
d="M211 -372l86 398h237l-86 -398h-237zM1075 1203l-498 -1203h-327l20 1203h244l-50 -968l367 968h244z" />
    <glyph glyph-name="pi" unicode="&#x3c0;" horiz-adv-x="1117" 
d="M1110 973l-211 -974h-235l211 974h-244l-210 -974h-235l211 974h-162l49 229h1034l-48 -229h-160z" />
    <glyph glyph-name="uni03BC" unicode="&#x3bc;" horiz-adv-x="922" 
d="M1090 1202l-171 -796q-19 -86 -46.5 -163t-72 -135.5t-110.5 -93t-162 -34.5q-71 0 -106 37.5t-43 98.5l-104 -481h-236l338 1567h236l-166 -772q-6 -29 -11 -58.5t-5 -57.5q0 -22 4 -41.5t14 -33.5t27 -22.5t42 -8.5q43 0 71.5 17t46.5 44.5t28 62t18 70.5l172 800h236z
" />
    <glyph glyph-name="phi" unicode="&#x3c6;" horiz-adv-x="1103" 
d="M353 -366l75 347q-78 2 -129.5 22t-83 54t-44.5 80.5t-13 100.5q0 39 5.5 81.5t15.5 87.5l83 389q18 85 48.5 161.5t80.5 134.5t124 93t181 38l75 345h237l-75 -345q78 -2 130 -22t83.5 -54t45 -80t13.5 -101q0 -40 -5.5 -83t-15.5 -88l-84 -387q-19 -87 -49 -163.5
t-80 -134.5t-124 -92.5t-182 -36.5l-75 -347h-237zM947 801q6 26 10.5 52.5t4.5 49.5q0 37 -16.5 62.5t-61.5 29.5l-170 -785q37 3 62 20.5t41.5 44.5t26.5 60.5t18 69.5zM415 404q-6 -27 -10.5 -53.5t-4.5 -49.5q0 -37 16 -62t61 -29l170 785q-37 -3 -61.5 -21t-40.5 -45
t-26 -60.5t-18 -69.5z" />
    <glyph glyph-name="sigma" unicode="&#x3c3;" horiz-adv-x="876" 
d="M1069 994l-109 23q20 -43 20 -105q0 -34 -5.5 -71.5t-14.5 -79.5l-76 -353q-19 -88 -49.5 -165.5t-81.5 -136t-128 -92.5t-188 -34q-84 0 -139.5 19t-89 53.5t-47.5 81.5t-14 103q0 40 5.5 82.5t15.5 87.5l83 389q18 87 49 164t82 135.5t127.5 93t186.5 35.5h422z
M653 996q-42 0 -69.5 -16.5t-45.5 -44t-29 -63t-20 -73.5l-85 -395q-6 -26 -10.5 -52.5t-4.5 -49.5q0 -20 4.5 -37t15 -29t29 -19t45.5 -7q42 0 69 16t45 43t29 62t19 73l85 397q6 27 11 53.5t5 49.5q0 40 -19.5 66t-73.5 26z" />
    <glyph glyph-name="upsilon" unicode="&#x3c5;" horiz-adv-x="897" 
d="M1077 1202l-179 -832q-19 -87 -50.5 -158.5t-82.5 -122.5t-126.5 -79.5t-182.5 -29.5h-4h-7l-1 1q-81 1 -137 18t-90 48t-49 74.5t-15 98.5q0 34 5 71t14 79l179 832h241l-179 -830q-5 -21 -8 -40.5t-3 -36.5q0 -38 21.5 -60t80.5 -22q41 1 67 13.5t43 33.5t26.5 50
t17.5 62l178 830h241z" />
    <glyph glyph-name="psi" unicode="&#x3c8;" horiz-adv-x="1086" 
d="M592 1202l-179 -830q-5 -21 -8 -40.5t-3 -36.5q0 -31 14.5 -51.5t52.5 -27.5l292 1352h237l-293 -1353q33 4 55 18t36 34.5t22.5 47t15.5 57.5l179 830h240l-179 -832q-18 -85 -48 -154.5t-78.5 -120t-120 -80.5t-172.5 -34l-75 -348h-237l75 348q-74 4 -124.5 22
t-82 48.5t-45 73t-13.5 95.5q0 34 5 71t14 79l179 832h241z" />
    <glyph glyph-name="lambda" unicode="&#x3bb;" horiz-adv-x="829" 
d="M12 0l472 1203h162q-1 45 -12 77.5t-28.5 55.5t-39 38t-42.5 27l139 167q41 -18 78 -50t64.5 -77t44 -102.5t16.5 -127.5v-20t-1 -21l-3 -48l-45 -1122h-244l53 826h-7l11 150h-15l-359 -976h-244z" />
    <glyph glyph-name="omicrontonos" unicode="&#x3cc;" horiz-adv-x="876" 
d="M880 1556l-88 -275h-174l37 275h225zM251 796q19 87 50 165t83 136.5t129.5 92.5t188.5 34q82 0 137.5 -19t88.5 -53.5t47 -81.5t14 -102q0 -40 -6 -83t-16 -89l-83 -388q-19 -88 -49.5 -165.5t-81.5 -136t-128 -92.5t-188 -34q-84 0 -139.5 19t-89 53.5t-47.5 81.5
t-14 103q0 40 5.5 82.5t15.5 87.5zM653 996q-42 0 -69.5 -16.5t-45.5 -44t-29 -63t-20 -73.5l-85 -395q-6 -26 -10.5 -52.5t-4.5 -49.5q0 -20 4.5 -37t15 -29t29 -19t45.5 -7q42 0 69 16t45 43t29 62t19 73l85 397q6 27 11 53.5t5 49.5q0 40 -19.5 66t-73.5 26z" />
    <glyph glyph-name="etatonos" unicode="&#x3ae;" horiz-adv-x="920" 
d="M912 1556l-88 -275h-154l38 275h204zM504 -366l252 1166q6 28 11 55t5 51q0 38 -19 63t-72 25q-41 0 -70 -21t-49 -53.5t-32.5 -72.5t-21.5 -77l-165 -770h-236l258 1202h237l-26 -119q19 29 46 54.5t58 44t65.5 29.5t69.5 11q60 0 99.5 -15t63.5 -42.5t34 -65.5t10 -84
q0 -49 -9 -104t-22 -115l-250 -1162h-237z" />
    <glyph glyph-name="chi" unicode="&#x3c7;" horiz-adv-x="813" 
d="M557 0l-68 403l-247 -403h-231l384 625l-112 577h249l59 -369l227 369h231l-360 -577l115 -625h-247z" />
    <glyph glyph-name="omega" unicode="&#x3c9;" horiz-adv-x="1360" 
d="M966 779l-64 -296q-12 -55 -20 -99.5t-8 -78.5q0 -46 20 -70.5t73 -24.5q40 0 65 14.5t42.5 44.5t29.5 76t26 110l60 276q6 27 8.5 51t2.5 46q0 81 -36 121.5t-99 42.5l50 229q172 -5 252 -82.5t80 -226.5q0 -82 -22 -180l-59 -272q-11 -49 -25 -104t-35.5 -108
t-53 -101.5t-77.5 -85.5t-109.5 -59t-148.5 -22q-87 0 -140 34.5t-81 88.5q-51 -55 -116.5 -89t-147.5 -34t-135 20t-83.5 54.5t-42.5 80.5t-12 97q0 57 10.5 116t21.5 113l57 271q49 236 175.5 360.5t345.5 129.5l-47 -229q-40 -1 -77 -17.5t-68 -49.5t-55 -82t-38 -113
l-59 -276q-12 -54 -19.5 -95t-7.5 -70q0 -42 18.5 -61t64.5 -19t75 18.5t48.5 53.5t33 85.5t27.5 115.5l11 52l4 17l49 227h236z" />
    <glyph glyph-name="omegatonos" unicode="&#x3ce;" horiz-adv-x="1338" 
d="M1106 1556l-86 -275h-174l35 275h225zM951 779l-64 -296q-12 -55 -20 -99.5t-8 -78.5q0 -46 20 -70.5t73 -24.5q40 0 65 14.5t42.5 44.5t29.5 76t26 110l60 276q6 27 8.5 51t2.5 46q0 81 -36 121.5t-99 42.5l50 229q172 -5 252 -82.5t80 -226.5q0 -82 -22 -180l-59 -272
q-11 -49 -25 -104t-35.5 -108t-53 -101.5t-77.5 -85.5t-109.5 -59t-148.5 -22q-87 0 -140 34.5t-81 88.5q-51 -55 -116.5 -89t-147.5 -34t-135 20t-83.5 54.5t-42.5 80.5t-12 97q0 57 10.5 116t21.5 113l57 271q49 236 175.5 360.5t345.5 129.5l-47 -229q-40 -1 -77 -17.5
t-68 -49.5t-55 -82t-38 -113l-59 -276q-12 -54 -19.5 -95t-7.5 -70q0 -42 18.5 -61t64.5 -19t75 18.5t48.5 53.5t33 85.5t27.5 115.5l11 52l4 17l49 227h236z" />
    <glyph glyph-name="epsilontonos" unicode="&#x3ad;" horiz-adv-x="899" 
d="M659 399h234l-4 -19q-17 -80 -46.5 -152.5t-79.5 -127.5t-126.5 -87.5t-187.5 -32.5q-83 0 -139 19t-89.5 53.5t-47.5 82t-14 103.5q0 39 5.5 81.5t15.5 87.5l67 313q6 29 12 56t13 55q19 84 50.5 156t83.5 124.5t127 82.5t181 30q84 0 139.5 -19t89.5 -52t48 -78t14 -98
q0 -36 -5.5 -74.5t-14.5 -78.5l-5 -20h-234l5 24q5 19 8 39t3 39q0 18 -4.5 34.5t-15.5 29t-29.5 19.5t-47.5 7q-42 0 -69.5 -16.5t-45.5 -44t-29 -63t-20 -72.5l-20 -95l329 6l-46 -215l-328 3q-10 -46 -18.5 -88.5t-14.5 -84.5q-2 -21 0.5 -42t12 -37.5t28.5 -26.5t51 -10
q42 0 69.5 15t45.5 39t28 54t16 60zM894 1556l-88 -275h-154l38 275h204z" />
    <glyph glyph-name="xi" unicode="&#x3be;" horiz-adv-x="928" 
d="M574 1042q-10 -43 -10 -75q0 -43 20.5 -60t62.5 -17h162l-48 -227h-161q-76 0 -123.5 -40.5t-60.5 -128.5l-24 -125q-2 -14 -3 -27t-1 -24q0 -113 104 -112l105 -45l-10 -181h-153q-73 0 -127.5 15t-91 49t-54.5 87.5t-18 130.5q0 230 73.5 359.5t199.5 159.5
q-50 20 -72 63.5t-22 103.5q0 42 11 94l21 99q19 90 48.5 163.5t80 126t126.5 82t187 29.5l1 1q83 0 138.5 -19.5t88.5 -53.5t47 -80.5t14 -100.5q0 -38 -5.5 -78t-14.5 -82l-9 -42h-241l9 41q5 24 8 47t3 44q0 19 -4 35.5t-13.5 28.5t-26.5 19t-43 7q-42 0 -68.5 -13
t-43 -35.5t-26 -54t-16.5 -69.5l-19 -95h-1zM452 -366l60 186q10 29 16 53t6 43q0 31 -21 47.5t-75 16.5q-11 0 -11 16.5t5.5 42t15.5 54.5t20 54.5t17 42t8 16.5q79 0 134 -15.5t89.5 -43.5t50 -68t15.5 -88q0 -38 -9 -81t-25 -90l-60 -186h-236z" />
    <glyph glyph-name="upsilondieresis" unicode="&#x3cb;" horiz-adv-x="897" 
d="M1077 1202l-179 -832q-19 -87 -50.5 -158.5t-82.5 -122.5t-126.5 -79.5t-182.5 -29.5h-4h-7l-1 1q-81 1 -137 18t-90 48t-49 74.5t-15 98.5q0 34 5 71t14 79l179 832h241l-179 -830q-5 -21 -8 -40.5t-3 -36.5q0 -38 21.5 -60t80.5 -22q41 1 67 13.5t43 33.5t26.5 50
t17.5 62l178 830h241zM516 1401q0 33 7 61t23.5 47.5t43.5 30.5t66 11q93 0 93 -82q0 -71 -33 -110t-110 -39q-90 0 -90 81zM783 1401q0 34 7.5 61.5t24 47t43 30.5t65.5 11q48 0 70.5 -20t22.5 -61q0 -70 -32 -110t-111 -40q-90 0 -90 81z" />
    <glyph glyph-name="upsilontonos" unicode="&#x3cd;" horiz-adv-x="897" 
d="M908 1556l-86 -275h-174l35 275h225zM1077 1202l-179 -832q-19 -87 -50.5 -158.5t-82.5 -122.5t-126.5 -79.5t-182.5 -29.5h-4h-7l-1 1q-81 1 -137 18t-90 48t-49 74.5t-15 98.5q0 34 5 71t14 79l179 832h241l-179 -830q-5 -21 -8 -40.5t-3 -36.5q0 -38 21.5 -60
t80.5 -22q41 1 67 13.5t43 33.5t26.5 50t17.5 62l178 830h241z" />
    <glyph glyph-name="uni03C2" unicode="&#x3c2;" horiz-adv-x="899" 
d="M448 -19q-83 0 -138.5 19t-89 52.5t-47.5 80.5t-14 103q0 40 5.5 83t15.5 88l66 313q6 29 12.5 56t12.5 55q19 84 51 156t83.5 124.5t127 82.5t181.5 30q84 0 139.5 -19t89 -52t47.5 -78t14 -98q0 -36 -5.5 -74.5t-14.5 -78.5l-4 -20h-235l6 24q5 19 8 38.5t3 38.5
t-4.5 35.5t-15.5 29t-30 19.5t-48 7q-42 0 -69.5 -16.5t-45.5 -44t-29 -63t-19 -72.5l-59 -273q-12 -54 -22.5 -103.5t-16.5 -97.5q-2 -21 1.5 -42.5t14.5 -39t31.5 -28t52.5 -10.5zM462 -366l60 186q10 29 16 53t6 43q0 31 -21 47.5t-75 16.5q-11 0 -11 16.5t5.5 42
t15.5 54.5t20 54.5t17 42t8 16.5q79 0 134 -15.5t89.5 -43.5t50 -68t15.5 -88q0 -38 -9 -81t-25 -90l-60 -186h-236z" />
    <glyph glyph-name="zeta" unicode="&#x3b6;" horiz-adv-x="725" 
d="M270 1202h543l-50 -237l-364 -539q-28 -42 -41 -79t-13 -66q0 -45 29 -71t83 -29q2 0 4 -2q71 -9 121 -25.5t81 -41t45 -57t14 -73.5q0 -34 -8.5 -74.5t-24.5 -87.5l-61 -186h-235l59 186q17 49 17 82q0 36 -23.5 56t-79.5 24q-1 0 -1 -1q-140 17 -212.5 78t-72.5 155
q0 50 20.5 106.5t63.5 119.5l355 525h-300z" />
    <glyph glyph-name="delta" unicode="&#x3b4;" horiz-adv-x="876" 
d="M786 1370l7 -11t19 -28.5t27 -39.5t31 -45q37 -55 85 -123h-4q20 -32 29 -71t9 -84q0 -40 -6 -83.5t-16 -88.5l-83 -388q-19 -88 -49.5 -165.5t-81.5 -136t-128 -92.5t-188 -34q-84 0 -139.5 19t-89 53.5t-47.5 81.5t-14 103q0 40 5.5 82.5t15.5 87.5l83 389
q16 76 41.5 144.5t65.5 124t98 94.5t139 55l-95 156l20 95l23 103h590l-42 -198h-305zM653 996q-42 0 -69.5 -16.5t-45.5 -44t-29 -63t-20 -73.5l-85 -395q-6 -26 -10.5 -52.5t-4.5 -49.5q0 -20 4.5 -37t15 -29t29 -19t45.5 -7q42 0 69 16t45 43t29 62t19 73l85 397
q6 27 11 53.5t5 49.5q0 40 -19.5 66t-73.5 26z" />
    <glyph glyph-name="_480" horiz-adv-x="896" 
d="M461 -366l60 186q10 29 16 53t6 43q0 31 -21 47.5t-75 16.5q-11 0 -11 16.5t5.5 42t15.5 54.5t20 54.5t17 42t8 16.5q79 0 134 -15.5t89.5 -43.5t50 -68t15.5 -88q0 -38 -9 -81t-25 -90l-60 -186h-236z" />
    <glyph glyph-name="aacute" unicode="&#xe1;" horiz-adv-x="905" 
d="M566 0l25 116q-35 -60 -85 -98t-121 -38q-67 0 -112 17t-72 48t-38.5 73.5t-11.5 93.5q0 45 7.5 94t18.5 102l83 388q20 96 48 174.5t72.5 135t110 87t161.5 30.5q36 0 61.5 -10.5t43.5 -29.5t28 -44.5t15 -56.5l26 120h235l-259 -1202h-236zM483 207q38 0 65.5 16
t47.5 42.5t33 60t22 69.5l1 2v3l47 215l34 158q7 29 12.5 62t5.5 62q0 42 -18 71t-68 29q-42 0 -70.5 -18t-48 -47t-31 -64.5t-18.5 -69.5l-85 -396q-8 -35 -13.5 -65t-5.5 -54q0 -37 19 -56.5t71 -19.5zM1045 1556l-240 -275h-174l189 275h225z" />
    <glyph glyph-name="abreve" unicode="&#x103;" horiz-adv-x="905" 
d="M566 0l25 116q-35 -60 -85 -98t-121 -38q-67 0 -112 17t-72 48t-38.5 73.5t-11.5 93.5q0 45 7.5 94t18.5 102l83 388q20 96 48 174.5t72.5 135t110 87t161.5 30.5q36 0 61.5 -10.5t43.5 -29.5t28 -44.5t15 -56.5l26 120h235l-259 -1202h-236zM483 207q38 0 65.5 16
t47.5 42.5t33 60t22 69.5l1 2v3l47 215l34 158q7 29 12.5 62t5.5 62q0 42 -18 71t-68 29q-42 0 -70.5 -18t-48 -47t-31 -64.5t-18.5 -69.5l-85 -396q-8 -35 -13.5 -65t-5.5 -54q0 -37 19 -56.5t71 -19.5zM1070 1550q-14 -56 -39.5 -105t-66.5 -85.5t-98.5 -57.5t-133.5 -21
q-64 0 -108 14.5t-71.5 40.5t-39.5 61t-12 77q0 18 2 37t6 39h135q-3 -24 -3 -44q0 -21 5 -37.5t18 -28.5t36.5 -18.5t60.5 -6.5q43 0 72 9.5t48 26.5t31 42t22 57h136z" />
    <glyph glyph-name="Aogonek" unicode="&#x104;" horiz-adv-x="887" 
d="M595 1522h324l-69 -1522h-243l19 266h-279l-95 -266h-244zM642 487l56 761l-272 -761h216zM821 -389q-28 -23 -69.5 -36.5t-92.5 -13.5q-41 0 -76.5 9.5t-62 30.5t-42 54t-15.5 80q0 67 25.5 114.5t68.5 83t99 62t116 50.5l86 -45q-40 -22 -72.5 -44.5t-56 -48t-36 -56.5
t-12.5 -70q0 -61 59 -61q17 0 29.5 1t23 4t20 7.5t21.5 10.5z" />
    <glyph glyph-name="Aring" unicode="&#xc5;" horiz-adv-x="887" 
d="M595 1522h324l-69 -1522h-243l19 266h-279l-95 -266h-244zM642 487l56 761l-272 -761h216zM601 1740q0 58 14.5 104.5t45.5 79.5t80.5 51t120.5 18q94 0 137 -36t43 -110q0 -122 -62.5 -188t-203.5 -66q-91 0 -133 37t-42 110zM758 1777q0 -43 50 -43q41 0 58.5 20
t17.5 55q0 20 -12 30.5t-39 10.5q-42 0 -58.5 -20.5t-16.5 -52.5z" />
    <glyph glyph-name="Abreve" unicode="&#x102;" horiz-adv-x="887" 
d="M595 1522h324l-69 -1522h-243l19 266h-279l-95 -266h-244zM642 487l56 761l-272 -761h216zM1117 1870q-14 -56 -39.5 -105t-66.5 -85.5t-98.5 -57.5t-133.5 -21q-64 0 -108 14.5t-71.5 40.5t-39.5 61t-12 77q0 18 2 37t6 39h135q-3 -24 -3 -44q0 -21 5 -37.5t18 -28.5
t36.5 -18.5t60.5 -6.5q43 0 72 9.5t48 26.5t31 42t22 57h136z" />
    <glyph glyph-name="Agrave" unicode="&#xc0;" horiz-adv-x="887" 
d="M595 1522h324l-69 -1522h-243l19 266h-279l-95 -266h-244zM642 487l56 761l-272 -761h216zM791 1876l71 -275h-167l-115 275h211z" />
    <glyph glyph-name="Atilde" unicode="&#xc3;" horiz-adv-x="887" 
d="M595 1522h324l-69 -1522h-243l19 266h-279l-95 -266h-244zM642 487l56 761l-272 -761h216zM1137 1834q-20 -44 -45 -82.5t-56 -67t-68.5 -44.5t-82.5 -16q-33 0 -58 10.5t-45.5 22.5t-40 22.5t-42.5 10.5q-29 0 -55 -15t-51 -54l-109 40q21 43 46.5 81t56.5 66t68 44.5
t81 16.5q36 0 61.5 -10.5t46.5 -23t39.5 -23t41.5 -10.5q30 0 54.5 16.5t47.5 53.5z" />
    <glyph glyph-name="Amacron" unicode="&#x100;" horiz-adv-x="887" 
d="M595 1522h324l-69 -1522h-243l19 266h-279l-95 -266h-244zM642 487l56 761l-272 -761h216zM555 1662l38 179h477l-38 -179h-477z" />
    <glyph glyph-name="Adieresis" unicode="&#xc4;" horiz-adv-x="887" 
d="M595 1522h324l-69 -1522h-243l19 266h-279l-95 -266h-244zM642 487l56 761l-272 -761h216zM560 1705q0 33 7 61t23.5 47.5t43.5 30.5t66 11q93 0 93 -82q0 -71 -33 -110t-110 -39q-90 0 -90 81zM827 1705q0 34 7.5 61.5t24 47t43 30.5t65.5 11q48 0 70.5 -20t22.5 -61
q0 -70 -32 -110t-111 -40q-90 0 -90 81z" />
    <glyph glyph-name="Acircumflex" unicode="&#xc2;" horiz-adv-x="887" 
d="M595 1522h324l-69 -1522h-243l19 266h-279l-95 -266h-244zM642 487l56 761l-272 -761h216zM529 1601l190 241h224l86 -241h-193l-32 119l-82 -119h-193z" />
    <glyph glyph-name="A.fat" horiz-adv-x="877" 
d="M615 0l20 266h-278l-96 -266h-247l574 1521h360l-86 -1521h-247zM437 487h214l54 711h-11z" />
    <glyph glyph-name="AEacute" unicode="&#x1fc;" horiz-adv-x="1320" 
d="M1350 1876l-240 -275h-174l189 275h225zM-33 0l720 1521h701l-51 -234l-315 -1l-86 -396h246l-50 -233h-246l-92 -424h315l-49 -233h-557l57 266h-231l-120 -266h-242zM608 487l165 765l-345 -765h180z" />
    <glyph glyph-name="Hbar" unicode="&#x126;" horiz-adv-x="991" 
d="M116 0l329 1521h241l-138 -637h276l138 637h242l-329 -1521h-241l140 650h-276l-140 -650h-242zM616 1662l38 179h477l-38 -179h-477z" />
    <glyph glyph-name="Ncommaaccent" unicode="&#x145;" horiz-adv-x="991" 
d="M116 0l329 1521h300l60 -960l198 960h242l-325 -1521h-281l-77 989l-204 -989h-242zM365 -188q0 65 32 98.5t109 33.5q51 0 74 -24.5t23 -67.5q0 -49 -14 -93t-36.5 -82t-51 -70t-58.5 -58l-78 50q20 21 34 37.5t24 32.5t17.5 32t14.5 36q-90 0 -90 75z" />
    <glyph glyph-name="Nacute" unicode="&#x143;" horiz-adv-x="991" 
d="M116 0l329 1521h300l60 -960l198 960h242l-325 -1521h-281l-77 989l-204 -989h-242zM1178 1875l-240 -275h-174l189 275h225z" />
    <glyph glyph-name="Ncaron" unicode="&#x147;" horiz-adv-x="991" 
d="M116 0l329 1521h300l60 -960l198 960h242l-325 -1521h-281l-77 989l-204 -989h-242zM870 1842l31 -118l83 118h193l-191 -241h-224l-86 241h194z" />
    <glyph glyph-name="Ntilde" unicode="&#xd1;" horiz-adv-x="991" 
d="M1227 1834q-20 -44 -45 -82.5t-56 -67t-68.5 -44.5t-82.5 -16q-33 0 -58 10.5t-45.5 22.5t-40 22.5t-42.5 10.5q-29 0 -55 -15t-51 -54l-109 40q21 43 46.5 81t56.5 66t68 44.5t81 16.5q36 0 61.5 -10.5t46.5 -23t39.5 -23t41.5 -10.5q30 0 54.5 16.5t47.5 53.5zM116 0
l329 1521h300l60 -960l198 960h242l-325 -1521h-281l-77 989l-204 -989h-242z" />
    <glyph glyph-name="Hcircumflex" unicode="&#x124;" horiz-adv-x="991" 
d="M116 0l329 1521h241l-138 -637h276l138 637h242l-329 -1521h-241l140 650h-276l-140 -650h-242zM591 1601l190 241h224l86 -241h-193l-32 119l-82 -119h-193z" />
    <glyph glyph-name="Icircumflex" unicode="&#xce;" horiz-adv-x="475" 
d="M117 0l329 1521h241l-328 -1521h-242zM329 1601l190 241h224l86 -241h-193l-32 119l-82 -119h-193z" />
    <glyph glyph-name="Imacron" unicode="&#x12a;" horiz-adv-x="475" 
d="M117 0l329 1521h241l-328 -1521h-242zM354 1662l38 179h477l-38 -179h-477z" />
    <glyph glyph-name="Iogonek" unicode="&#x12e;" horiz-adv-x="475" 
d="M117 0l329 1521h241l-328 -1521h-242zM317 -389q-28 -23 -69.5 -36.5t-92.5 -13.5q-41 0 -76.5 9.5t-62 30.5t-42 54t-15.5 80q0 67 25.5 114.5t68.5 83t99 62t116 50.5l86 -45q-40 -22 -72.5 -44.5t-56 -48t-36 -56.5t-12.5 -70q0 -61 59 -61q17 0 29.5 1t23 4t20 7.5
t21.5 10.5z" />
    <glyph glyph-name="Iacute" unicode="&#xcd;" horiz-adv-x="475" 
d="M117 0l329 1521h241l-328 -1521h-242zM901 1876l-240 -275h-174l189 275h225z" />
    <glyph glyph-name="Ibreve" unicode="&#x12c;" horiz-adv-x="475" 
d="M117 0l329 1521h241l-328 -1521h-242zM918 1870q-14 -56 -39.5 -105t-66.5 -85.5t-98.5 -57.5t-133.5 -21q-64 0 -108 14.5t-71.5 40.5t-39.5 61t-12 77q0 18 2 37t6 39h135q-3 -24 -3 -44q0 -21 5 -37.5t18 -28.5t36.5 -18.5t60.5 -6.5q43 0 72 9.5t48 26.5t31 42t22 57
h136z" />
    <glyph glyph-name="Igrave" unicode="&#xcc;" horiz-adv-x="475" 
d="M117 0l329 1521h241l-328 -1521h-242zM590 1876l71 -275h-167l-115 275h211z" />
    <glyph glyph-name="Itilde" unicode="&#x128;" horiz-adv-x="475" 
d="M117 0l329 1521h241l-328 -1521h-242zM937 1834q-20 -44 -45 -82.5t-56 -67t-68.5 -44.5t-82.5 -16q-33 0 -58 10.5t-45.5 22.5t-40 22.5t-42.5 10.5q-29 0 -55 -15t-51 -54l-109 40q21 43 46.5 81t56.5 66t68 44.5t81 16.5q36 0 61.5 -10.5t46.5 -23t39.5 -23
t41.5 -10.5q30 0 54.5 16.5t47.5 53.5z" />
    <glyph glyph-name="Idieresis" unicode="&#xcf;" horiz-adv-x="475" 
d="M117 0l329 1521h241l-328 -1521h-242zM359 1705q0 33 7 61t23.5 47.5t43.5 30.5t66 11q93 0 93 -82q0 -71 -33 -110t-110 -39q-90 0 -90 81zM626 1705q0 34 7.5 61.5t24 47t43 30.5t65.5 11q48 0 70.5 -20t22.5 -61q0 -70 -32 -110t-111 -40q-90 0 -90 81z" />
    <glyph glyph-name="afii10027" unicode="&#x419;" horiz-adv-x="992" 
d="M678 0l222 990l-504 -990h-280l330 1521h242l-215 -959l473 959h301l-328 -1521h-241zM1241 1870q-13 -56 -39 -105t-67 -85.5t-98.5 -57.5t-133.5 -21q-64 0 -108 14.5t-71.5 40.5t-39.5 61t-12 77q0 18 2 37t6 39h136q-3 -24 -3 -45q0 -20 5 -36.5t18 -28.5t36.5 -18.5
t59.5 -6.5q43 0 72 9.5t48 26.5t31 42t22 57h136z" />
    <glyph glyph-name="Idotaccent" unicode="&#x130;" horiz-adv-x="475" 
d="M117 0l329 1521h241l-328 -1521h-242zM459 1693q0 78 40 123t134 45q62 0 91 -23.5t29 -73.5q0 -81 -41 -124t-136 -43q-117 0 -117 96z" />
    <glyph glyph-name="Emacron" unicode="&#x112;" horiz-adv-x="829" 
d="M114 0l328 1521h646l-50 -234l-405 -1l-86 -396h336l-51 -233h-335l-92 -424h404l-50 -233h-645zM547 1662l38 179h477l-38 -179h-477z" />
    <glyph glyph-name="Eogonek" unicode="&#x118;" horiz-adv-x="829" 
d="M114 0l328 1521h646l-50 -234l-405 -1l-86 -396h336l-51 -233h-335l-92 -424h404l-50 -233h-645zM722 -389q-28 -23 -69.5 -36.5t-92.5 -13.5q-41 0 -76.5 9.5t-62 30.5t-42 54t-15.5 80q0 67 25.5 114.5t68.5 83t99 62t116 50.5l86 -45q-40 -22 -72.5 -44.5t-56 -48
t-36 -56.5t-12.5 -70q0 -61 59 -61q17 0 29.5 1t23 4t20 7.5t21.5 10.5z" />
    <glyph glyph-name="Rcommaaccent" unicode="&#x156;" horiz-adv-x="942" 
d="M117 0l328 1521h369q152 0 227.5 -57.5t75.5 -188.5q0 -64 -18 -145l-35 -165q-10 -48 -30.5 -91t-49 -80.5t-63.5 -68.5t-74 -56q37 -30 54 -66t17 -97q0 -45 -9 -111l-28 -210q-2 -14 -3 -27.5t-1 -26.5q0 -41 7 -73t14 -58h-250q-3 12 -8.5 44.5t-5.5 75.5q0 14 1 29
t3 30l28 211q2 15 3 28.5t1 26.5q0 40 -9 67.5t-24 44t-34 23.5t-40 7h-78l-127 -587h-241zM859 1133q5 20 6.5 36t1.5 30q0 51 -27 69t-78 18h-126l-101 -465h124q34 0 61 11t47.5 30.5t34 46t20.5 56.5zM338 -188q0 65 32 98.5t109 33.5q51 0 74 -24.5t23 -67.5
q0 -49 -14 -93t-36.5 -82t-51 -70t-58.5 -58l-78 50q20 21 34 37.5t24 32.5t17.5 32t14.5 36q-90 0 -90 75z" />
    <glyph glyph-name="Dcaron" unicode="&#x10e;" horiz-adv-x="928" 
d="M808 1521q82 -1 138.5 -20.5t90.5 -54t49 -82.5t15 -106q0 -37 -5.5 -77.5t-14.5 -83.5l-144 -673q-19 -88 -52 -165.5t-86.5 -135t-132 -90.5t-189.5 -33h-361l329 1521h363zM533 233q35 1 61.5 14.5t46 38.5t33 59.5t23.5 78.5l144 673q12 49 12 88q0 47 -21 73t-71 28
h-126l-228 -1053h126zM775 1842l31 -118l83 118h193l-191 -241h-224l-86 241h194z" />
    <glyph glyph-name="Edotaccent" unicode="&#x116;" horiz-adv-x="829" 
d="M114 0l328 1521h646l-50 -234l-405 -1l-86 -396h336l-51 -233h-335l-92 -424h404l-50 -233h-645zM658 1693q0 78 40 123t134 45q62 0 91 -23.5t29 -73.5q0 -81 -41 -124t-136 -43q-117 0 -117 96z" />
    <glyph glyph-name="Eacute" unicode="&#xc9;" horiz-adv-x="829" 
d="M114 0l328 1521h646l-50 -234l-405 -1l-86 -396h336l-51 -233h-335l-92 -424h404l-50 -233h-645zM1097 1876l-240 -275h-174l189 275h225z" />
    <glyph glyph-name="Ebreve" unicode="&#x114;" horiz-adv-x="829" 
d="M114 0l328 1521h646l-50 -234l-405 -1l-86 -396h336l-51 -233h-335l-92 -424h404l-50 -233h-645zM1110 1870q-14 -56 -39.5 -105t-66.5 -85.5t-98.5 -57.5t-133.5 -21q-64 0 -108 14.5t-71.5 40.5t-39.5 61t-12 77q0 18 2 37t6 39h135q-3 -24 -3 -44q0 -21 5 -37.5
t18 -28.5t36.5 -18.5t60.5 -6.5q43 0 72 9.5t48 26.5t31 42t22 57h136z" />
    <glyph glyph-name="Ecaron" unicode="&#x11a;" horiz-adv-x="829" 
d="M114 0l328 1521h646l-50 -234l-405 -1l-86 -396h336l-51 -233h-335l-92 -424h404l-50 -233h-645zM768 1842l31 -118l83 118h193l-191 -241h-224l-86 241h194z" />
    <glyph glyph-name="Egrave" unicode="&#xc8;" horiz-adv-x="829" 
d="M114 0l328 1521h646l-50 -234l-405 -1l-86 -396h336l-51 -233h-335l-92 -424h404l-50 -233h-645zM796 1876l71 -275h-167l-115 275h211z" />
    <glyph glyph-name="Lacute" unicode="&#x139;" horiz-adv-x="755" 
d="M116 0l329 1521h241l-279 -1290h387l-50 -231h-628zM907 1876l-240 -275h-174l189 275h225z" />
    <glyph glyph-name="Lcaron" unicode="&#x13d;" horiz-adv-x="755" 
d="M116 0l329 1521h241l-279 -1290h387l-50 -231h-628zM577 1839l31 -118l83 118h193l-191 -241h-224l-86 241h194z" />
    <glyph glyph-name="Racute" unicode="&#x154;" horiz-adv-x="942" 
d="M117 0l328 1521h369q152 0 227.5 -57.5t75.5 -188.5q0 -64 -18 -145l-35 -165q-10 -48 -30.5 -91t-49 -80.5t-63.5 -68.5t-74 -56q37 -30 54 -66t17 -97q0 -45 -9 -111l-28 -210q-2 -14 -3 -27.5t-1 -26.5q0 -41 7 -73t14 -58h-250q-3 12 -8.5 44.5t-5.5 75.5q0 14 1 29
t3 30l28 211q2 15 3 28.5t1 26.5q0 40 -9 67.5t-24 44t-34 23.5t-40 7h-78l-127 -587h-241zM859 1133q5 20 6.5 36t1.5 30q0 51 -27 69t-78 18h-126l-101 -465h124q34 0 61 11t47.5 30.5t34 46t20.5 56.5zM1091 1876l-240 -275h-174l189 275h225z" />
    <glyph glyph-name="Rcaron" unicode="&#x158;" horiz-adv-x="942" 
d="M117 0l328 1521h369q152 0 227.5 -57.5t75.5 -188.5q0 -64 -18 -145l-35 -165q-10 -48 -30.5 -91t-49 -80.5t-63.5 -68.5t-74 -56q37 -30 54 -66t17 -97q0 -45 -9 -111l-28 -210q-2 -14 -3 -27.5t-1 -26.5q0 -41 7 -73t14 -58h-250q-3 12 -8.5 44.5t-5.5 75.5q0 14 1 29
t3 30l28 211q2 15 3 28.5t1 26.5q0 40 -9 67.5t-24 44t-34 23.5t-40 7h-78l-127 -587h-241zM859 1133q5 20 6.5 36t1.5 30q0 51 -27 69t-78 18h-126l-101 -465h124q34 0 61 11t47.5 30.5t34 46t20.5 56.5zM770 1842l31 -118l83 118h193l-191 -241h-224l-86 241h194z" />
    <glyph glyph-name="Edieresis" unicode="&#xcb;" horiz-adv-x="829" 
d="M114 0l328 1521h646l-50 -234l-405 -1l-86 -396h336l-51 -233h-335l-92 -424h404l-50 -233h-645zM553 1705q0 33 7 61t23.5 47.5t43.5 30.5t66 11q93 0 93 -82q0 -71 -33 -110t-110 -39q-90 0 -90 81zM820 1705q0 34 7.5 61.5t24 47t43 30.5t65.5 11q48 0 70.5 -20
t22.5 -61q0 -70 -32 -110t-111 -40q-90 0 -90 81z" />
    <glyph glyph-name="Ecircumflex" unicode="&#xca;" horiz-adv-x="829" 
d="M114 0l328 1521h646l-50 -234l-405 -1l-86 -396h336l-51 -233h-335l-92 -424h404l-50 -233h-645zM522 1601l190 241h224l86 -241h-193l-32 119l-82 -119h-193z" />
    <glyph glyph-name="Ldot" unicode="&#x13f;" horiz-adv-x="755" 
d="M642 703q0 78 40 123t133 45q62 0 91 -23.5t29 -73.5q0 -81 -41 -124t-136 -43q-116 0 -116 96zM116 0l329 1521h241l-279 -1290h387l-50 -231h-628z" />
    <glyph glyph-name="Cacute" unicode="&#x106;" horiz-adv-x="893" 
d="M925 483l-19 -91q-17 -82 -49 -156.5t-86 -131t-133 -90t-189 -33.5q-1 0 -1 -1q-85 0 -142 20t-91.5 55t-49 84t-14.5 106q0 38 5.5 78.5t14.5 83.5l152 708q19 87 51.5 164.5t86 135.5t132.5 92.5t190 34.5l1 1q85 0 142.5 -20t92 -55.5t49.5 -84t15 -104.5
q0 -35 -5 -73t-14 -77l-19 -90h-242l19 89q5 21 8.5 41t3.5 40q0 42 -21 70.5t-78 29.5q-42 0 -70.5 -16.5t-48 -43.5t-31.5 -62.5t-20 -72.5l-152 -706q-5 -25 -9 -49t-4 -47q0 -42 20 -70t77 -28q40 0 68.5 15t48 39.5t31.5 57t19 67.5l19 90h242zM1112 1876l-240 -275
h-174l189 275h225z" />
    <glyph glyph-name="Ccaron" unicode="&#x10c;" horiz-adv-x="893" 
d="M925 483l-19 -91q-17 -82 -49 -156.5t-86 -131t-133 -90t-189 -33.5q-1 0 -1 -1q-85 0 -142 20t-91.5 55t-49 84t-14.5 106q0 38 5.5 78.5t14.5 83.5l152 708q19 87 51.5 164.5t86 135.5t132.5 92.5t190 34.5l1 1q85 0 142.5 -20t92 -55.5t49.5 -84t15 -104.5
q0 -35 -5 -73t-14 -77l-19 -90h-242l19 89q5 21 8.5 41t3.5 40q0 42 -21 70.5t-78 29.5q-42 0 -70.5 -16.5t-48 -43.5t-31.5 -62.5t-20 -72.5l-152 -706q-5 -25 -9 -49t-4 -47q0 -42 20 -70t77 -28q40 0 68.5 15t48 39.5t31.5 57t19 67.5l19 90h242zM785 1842l31 -118
l83 118h193l-191 -241h-224l-86 241h194z" />
    <glyph glyph-name="Ccedilla" unicode="&#xc7;" horiz-adv-x="893" 
d="M925 483l-19 -91q-17 -82 -49 -156.5t-86 -131t-133 -90t-189 -33.5q-1 0 -1 -1q-85 0 -142 20t-91.5 55t-49 84t-14.5 106q0 38 5.5 78.5t14.5 83.5l152 708q19 87 51.5 164.5t86 135.5t132.5 92.5t190 34.5l1 1q85 0 142.5 -20t92 -55.5t49.5 -84t15 -104.5
q0 -35 -5 -73t-14 -77l-19 -90h-242l19 89q5 21 8.5 41t3.5 40q0 42 -21 70.5t-78 29.5q-42 0 -70.5 -16.5t-48 -43.5t-31.5 -62.5t-20 -72.5l-152 -706q-5 -25 -9 -49t-4 -47q0 -42 20 -70t77 -28q40 0 68.5 15t48 39.5t31.5 57t19 67.5l19 90h242zM231 -251
q14 -11 27.5 -19.5t30.5 -15t38.5 -10t52.5 -3.5q43 0 73 18t30 53q0 12 -7.5 21t-20.5 14.5t-29 8t-33 2.5q-32 0 -58 -8l49 226h120l-24 -110q8 1 18 3q8 2 19 3t24 1q29 0 52 -10t38.5 -27.5t23.5 -40.5t8 -49q0 -53 -23 -94t-63.5 -69t-95.5 -42t-119 -14q-69 0 -116 23
t-70 52z" />
    <glyph glyph-name="Ccircumflex" unicode="&#x108;" horiz-adv-x="893" 
d="M925 483l-19 -91q-17 -82 -49 -156.5t-86 -131t-133 -90t-189 -33.5q-1 0 -1 -1q-85 0 -142 20t-91.5 55t-49 84t-14.5 106q0 38 5.5 78.5t14.5 83.5l152 708q19 87 51.5 164.5t86 135.5t132.5 92.5t190 34.5l1 1q85 0 142.5 -20t92 -55.5t49.5 -84t15 -104.5
q0 -35 -5 -73t-14 -77l-19 -90h-242l19 89q5 21 8.5 41t3.5 40q0 42 -21 70.5t-78 29.5q-42 0 -70.5 -16.5t-48 -43.5t-31.5 -62.5t-20 -72.5l-152 -706q-5 -25 -9 -49t-4 -47q0 -42 20 -70t77 -28q40 0 68.5 15t48 39.5t31.5 57t19 67.5l19 90h242zM539 1601l190 241h224
l86 -241h-193l-32 119l-82 -119h-193z" />
    <glyph glyph-name="Cdotaccent" unicode="&#x10a;" horiz-adv-x="893" 
d="M925 483l-19 -91q-17 -82 -49 -156.5t-86 -131t-133 -90t-189 -33.5q-1 0 -1 -1q-85 0 -142 20t-91.5 55t-49 84t-14.5 106q0 38 5.5 78.5t14.5 83.5l152 708q19 87 51.5 164.5t86 135.5t132.5 92.5t190 34.5l1 1q85 0 142.5 -20t92 -55.5t49.5 -84t15 -104.5
q0 -35 -5 -73t-14 -77l-19 -90h-242l19 89q5 21 8.5 41t3.5 40q0 42 -21 70.5t-78 29.5q-42 0 -70.5 -16.5t-48 -43.5t-31.5 -62.5t-20 -72.5l-152 -706q-5 -25 -9 -49t-4 -47q0 -42 20 -70t77 -28q40 0 68.5 15t48 39.5t31.5 57t19 67.5l19 90h242zM670 1693q0 78 40 123
t134 45q62 0 91 -23.5t29 -73.5q0 -81 -41 -124t-136 -43q-117 0 -117 96z" />
    <glyph glyph-name="Gbreve" unicode="&#x11e;" horiz-adv-x="900" 
d="M620 818h377l-92 -426q-18 -82 -50 -156t-85.5 -130.5t-132 -90.5t-188.5 -34q-1 0 -1 -1q-85 0 -142 20t-91.5 55t-49 84t-14.5 106q0 38 5.5 78.5t14.5 83.5l152 708q19 87 51.5 164.5t86.5 135.5t132.5 92.5t189.5 34.5l1 1q85 0 142.5 -20t92 -55.5t49.5 -84
t15 -104.5q0 -35 -5 -73t-14 -77l-20 -90h-242l20 89q5 21 8.5 41.5t3.5 40.5q0 21 -5 39t-16.5 31.5t-30.5 21t-48 7.5q-42 0 -70.5 -16.5t-47.5 -43.5t-31 -62.5t-20 -72.5l-153 -706q-5 -25 -9 -49t-4 -46q0 -42 20.5 -70.5t77.5 -28.5q40 0 68 15t47.5 39.5t31.5 57
t20 67.5l42 195h-135zM1136 1870q-14 -56 -39.5 -105t-66.5 -85.5t-98.5 -57.5t-133.5 -21q-64 0 -108 14.5t-71.5 40.5t-39.5 61t-12 77q0 18 2 37t6 39h135q-3 -24 -3 -44q0 -21 5 -37.5t18 -28.5t36.5 -18.5t60.5 -6.5q43 0 72 9.5t48 26.5t31 42t22 57h136z" />
    <glyph glyph-name="Gcircumflex" unicode="&#x11c;" horiz-adv-x="900" 
d="M620 818h377l-92 -426q-18 -82 -50 -156t-85.5 -130.5t-132 -90.5t-188.5 -34q-1 0 -1 -1q-85 0 -142 20t-91.5 55t-49 84t-14.5 106q0 38 5.5 78.5t14.5 83.5l152 708q19 87 51.5 164.5t86.5 135.5t132.5 92.5t189.5 34.5l1 1q85 0 142.5 -20t92 -55.5t49.5 -84
t15 -104.5q0 -35 -5 -73t-14 -77l-20 -90h-242l20 89q5 21 8.5 41.5t3.5 40.5q0 21 -5 39t-16.5 31.5t-30.5 21t-48 7.5q-42 0 -70.5 -16.5t-47.5 -43.5t-31 -62.5t-20 -72.5l-153 -706q-5 -25 -9 -49t-4 -46q0 -42 20.5 -70.5t77.5 -28.5q40 0 68 15t47.5 39.5t31.5 57
t20 67.5l42 195h-135zM547 1601l190 241h224l86 -241h-193l-32 119l-82 -119h-193z" />
    <glyph glyph-name="Gcommaaccent" unicode="&#x122;" horiz-adv-x="900" 
d="M620 818h377l-92 -426q-18 -82 -50 -156t-85.5 -130.5t-132 -90.5t-188.5 -34q-1 0 -1 -1q-85 0 -142 20t-91.5 55t-49 84t-14.5 106q0 38 5.5 78.5t14.5 83.5l152 708q19 87 51.5 164.5t86.5 135.5t132.5 92.5t189.5 34.5l1 1q85 0 142.5 -20t92 -55.5t49.5 -84
t15 -104.5q0 -35 -5 -73t-14 -77l-20 -90h-242l20 89q5 21 8.5 41.5t3.5 40.5q0 21 -5 39t-16.5 31.5t-30.5 21t-48 7.5q-42 0 -70.5 -16.5t-47.5 -43.5t-31 -62.5t-20 -72.5l-153 -706q-5 -25 -9 -49t-4 -46q0 -42 20.5 -70.5t77.5 -28.5q40 0 68 15t47.5 39.5t31.5 57
t20 67.5l42 195h-135zM296 -188q0 65 32 98.5t109 33.5q51 0 74 -24.5t23 -67.5q0 -49 -14 -93t-36.5 -82t-51 -70t-58.5 -58l-78 50q20 21 34 37.5t24 32.5t17.5 32t14.5 36q-90 0 -90 75z" />
    <glyph glyph-name="Gdotaccent" unicode="&#x120;" horiz-adv-x="900" 
d="M620 818h377l-92 -426q-18 -82 -50 -156t-85.5 -130.5t-132 -90.5t-188.5 -34q-1 0 -1 -1q-85 0 -142 20t-91.5 55t-49 84t-14.5 106q0 38 5.5 78.5t14.5 83.5l152 708q19 87 51.5 164.5t86.5 135.5t132.5 92.5t189.5 34.5l1 1q85 0 142.5 -20t92 -55.5t49.5 -84
t15 -104.5q0 -35 -5 -73t-14 -77l-20 -90h-242l20 89q5 21 8.5 41.5t3.5 40.5q0 21 -5 39t-16.5 31.5t-30.5 21t-48 7.5q-42 0 -70.5 -16.5t-47.5 -43.5t-31 -62.5t-20 -72.5l-153 -706q-5 -25 -9 -49t-4 -46q0 -42 20.5 -70.5t77.5 -28.5q40 0 68 15t47.5 39.5t31.5 57
t20 67.5l42 195h-135zM677 1693q0 78 40 123t134 45q62 0 91 -23.5t29 -73.5q0 -81 -41 -124t-136 -43q-117 0 -117 96z" />
    <glyph glyph-name="Oacute" unicode="&#xd3;" horiz-adv-x="900" 
d="M320 1115q19 87 51.5 165t86.5 136t133 92t191 34q85 0 142 -20t91.5 -55t49 -84t14.5 -106q0 -38 -5.5 -78.5t-14.5 -83.5l-153 -708q-19 -87 -51 -165t-86 -136t-132.5 -92t-190.5 -34q-85 0 -142 20t-91.5 55.5t-49 84t-14.5 106.5q0 38 5 78.5t14 82.5zM732 1309
q-42 0 -70.5 -16.5t-48 -43.5t-31 -62t-19.5 -72l-153 -707q-5 -25 -9 -49t-4 -46q0 -42 20.5 -70.5t77.5 -28.5q43 0 71.5 16t48 43t31 62t19.5 73l152 706q5 25 9 49t4 47q0 21 -4.5 39t-15.5 31.5t-30 21t-48 7.5zM1113 1876l-240 -275h-174l189 275h225z" />
    <glyph glyph-name="Obreve" unicode="&#x14e;" horiz-adv-x="900" 
d="M320 1115q19 87 51.5 165t86.5 136t133 92t191 34q85 0 142 -20t91.5 -55t49 -84t14.5 -106q0 -38 -5.5 -78.5t-14.5 -83.5l-153 -708q-19 -87 -51 -165t-86 -136t-132.5 -92t-190.5 -34q-85 0 -142 20t-91.5 55.5t-49 84t-14.5 106.5q0 38 5 78.5t14 82.5zM732 1309
q-42 0 -70.5 -16.5t-48 -43.5t-31 -62t-19.5 -72l-153 -707q-5 -25 -9 -49t-4 -46q0 -42 20.5 -70.5t77.5 -28.5q43 0 71.5 16t48 43t31 62t19.5 73l152 706q5 25 9 49t4 47q0 21 -4.5 39t-15.5 31.5t-30 21t-48 7.5zM1133 1870q-14 -56 -39.5 -105t-66.5 -85.5t-98.5 -57.5
t-133.5 -21q-64 0 -108 14.5t-71.5 40.5t-39.5 61t-12 77q0 18 2 37t6 39h135q-3 -24 -3 -44q0 -21 5 -37.5t18 -28.5t36.5 -18.5t60.5 -6.5q43 0 72 9.5t48 26.5t31 42t22 57h136z" />
    <glyph glyph-name="Ocircumflex" unicode="&#xd4;" horiz-adv-x="900" 
d="M320 1115q19 87 51.5 165t86.5 136t133 92t191 34q85 0 142 -20t91.5 -55t49 -84t14.5 -106q0 -38 -5.5 -78.5t-14.5 -83.5l-153 -708q-19 -87 -51 -165t-86 -136t-132.5 -92t-190.5 -34q-85 0 -142 20t-91.5 55.5t-49 84t-14.5 106.5q0 38 5 78.5t14 82.5zM732 1309
q-42 0 -70.5 -16.5t-48 -43.5t-31 -62t-19.5 -72l-153 -707q-5 -25 -9 -49t-4 -46q0 -42 20.5 -70.5t77.5 -28.5q43 0 71.5 16t48 43t31 62t19.5 73l152 706q5 25 9 49t4 47q0 21 -4.5 39t-15.5 31.5t-30 21t-48 7.5zM545 1601l190 241h224l86 -241h-193l-32 119l-82 -119
h-193z" />
    <glyph glyph-name="Odieresis" unicode="&#xd6;" horiz-adv-x="900" 
d="M320 1115q19 87 51.5 165t86.5 136t133 92t191 34q85 0 142 -20t91.5 -55t49 -84t14.5 -106q0 -38 -5.5 -78.5t-14.5 -83.5l-153 -708q-19 -87 -51 -165t-86 -136t-132.5 -92t-190.5 -34q-85 0 -142 20t-91.5 55.5t-49 84t-14.5 106.5q0 38 5 78.5t14 82.5zM732 1309
q-42 0 -70.5 -16.5t-48 -43.5t-31 -62t-19.5 -72l-153 -707q-5 -25 -9 -49t-4 -46q0 -42 20.5 -70.5t77.5 -28.5q43 0 71.5 16t48 43t31 62t19.5 73l152 706q5 25 9 49t4 47q0 21 -4.5 39t-15.5 31.5t-30 21t-48 7.5zM575 1705q0 33 7 61t23.5 47.5t43.5 30.5t66 11
q93 0 93 -82q0 -71 -33 -110t-110 -39q-90 0 -90 81zM842 1705q0 34 7.5 61.5t24 47t43 30.5t65.5 11q48 0 70.5 -20t22.5 -61q0 -70 -32 -110t-111 -40q-90 0 -90 81z" />
    <glyph glyph-name="Ograve" unicode="&#xd2;" horiz-adv-x="900" 
d="M320 1115q19 87 51.5 165t86.5 136t133 92t191 34q85 0 142 -20t91.5 -55t49 -84t14.5 -106q0 -38 -5.5 -78.5t-14.5 -83.5l-153 -708q-19 -87 -51 -165t-86 -136t-132.5 -92t-190.5 -34q-85 0 -142 20t-91.5 55.5t-49 84t-14.5 106.5q0 38 5 78.5t14 82.5zM732 1309
q-42 0 -70.5 -16.5t-48 -43.5t-31 -62t-19.5 -72l-153 -707q-5 -25 -9 -49t-4 -46q0 -42 20.5 -70.5t77.5 -28.5q43 0 71.5 16t48 43t31 62t19.5 73l152 706q5 25 9 49t4 47q0 21 -4.5 39t-15.5 31.5t-30 21t-48 7.5zM812 1876l71 -275h-167l-115 275h211z" />
    <glyph glyph-name="Ohungarumlaut" unicode="&#x150;" horiz-adv-x="900" 
d="M320 1115q19 87 51.5 165t86.5 136t133 92t191 34q85 0 142 -20t91.5 -55t49 -84t14.5 -106q0 -38 -5.5 -78.5t-14.5 -83.5l-153 -708q-19 -87 -51 -165t-86 -136t-132.5 -92t-190.5 -34q-85 0 -142 20t-91.5 55.5t-49 84t-14.5 106.5q0 38 5 78.5t14 82.5zM732 1309
q-42 0 -70.5 -16.5t-48 -43.5t-31 -62t-19.5 -72l-153 -707q-5 -25 -9 -49t-4 -46q0 -42 20.5 -70.5t77.5 -28.5q43 0 71.5 16t48 43t31 62t19.5 73l152 706q5 25 9 49t4 47q0 21 -4.5 39t-15.5 31.5t-30 21t-48 7.5zM971 1876l-233 -275h-167l190 275h210zM1234 1876
l-234 -275h-167l190 275h211z" />
    <glyph glyph-name="Omacron" unicode="&#x14c;" horiz-adv-x="900" 
d="M320 1115q19 87 51.5 165t86.5 136t133 92t191 34q85 0 142 -20t91.5 -55t49 -84t14.5 -106q0 -38 -5.5 -78.5t-14.5 -83.5l-153 -708q-19 -87 -51 -165t-86 -136t-132.5 -92t-190.5 -34q-85 0 -142 20t-91.5 55.5t-49 84t-14.5 106.5q0 38 5 78.5t14 82.5zM732 1309
q-42 0 -70.5 -16.5t-48 -43.5t-31 -62t-19.5 -72l-153 -707q-5 -25 -9 -49t-4 -46q0 -42 20.5 -70.5t77.5 -28.5q43 0 71.5 16t48 43t31 62t19.5 73l152 706q5 25 9 49t4 47q0 21 -4.5 39t-15.5 31.5t-30 21t-48 7.5zM570 1662l38 179h477l-38 -179h-477z" />
    <glyph glyph-name="Otilde" unicode="&#xd5;" horiz-adv-x="900" 
d="M320 1115q19 87 51.5 165t86.5 136t133 92t191 34q85 0 142 -20t91.5 -55t49 -84t14.5 -106q0 -38 -5.5 -78.5t-14.5 -83.5l-153 -708q-19 -87 -51 -165t-86 -136t-132.5 -92t-190.5 -34q-85 0 -142 20t-91.5 55.5t-49 84t-14.5 106.5q0 38 5 78.5t14 82.5zM732 1309
q-42 0 -70.5 -16.5t-48 -43.5t-31 -62t-19.5 -72l-153 -707q-5 -25 -9 -49t-4 -46q0 -42 20.5 -70.5t77.5 -28.5q43 0 71.5 16t48 43t31 62t19.5 73l152 706q5 25 9 49t4 47q0 21 -4.5 39t-15.5 31.5t-30 21t-48 7.5zM1152 1834q-20 -44 -45 -82.5t-56 -67t-68.5 -44.5
t-82.5 -16q-33 0 -58 10.5t-45.5 22.5t-40 22.5t-42.5 10.5q-29 0 -55 -15t-51 -54l-109 40q21 43 46.5 81t56.5 66t68 44.5t81 16.5q36 0 61.5 -10.5t46.5 -23t39.5 -23t41.5 -10.5q30 0 54.5 16.5t47.5 53.5z" />
    <glyph glyph-name="Oslashacute" unicode="&#x1fe;" horiz-adv-x="900" 
d="M320 1115q19 87 51.5 165t86.5 136t133 92t191 34q85 0 142 -20t91.5 -55t49 -84t14.5 -106q0 -38 -5.5 -78.5t-14.5 -83.5l-153 -708q-19 -87 -51 -165t-86 -136t-132.5 -92t-190.5 -34q-85 0 -142 20t-91.5 55.5t-49 84t-14.5 106.5q0 38 5 78.5t14 82.5zM732 1309
q-42 0 -70.5 -16.5t-48 -43.5t-31 -62t-19.5 -72l-153 -707q-5 -25 -9 -49t-4 -46q0 -42 20.5 -70.5t77.5 -28.5q43 0 71.5 16t48 43t31 62t19.5 73l152 706q5 25 9 49t4 47q0 21 -4.5 39t-15.5 31.5t-30 21t-48 7.5zM330 -80h-233l796 1679h235zM1051 1876l-240 -275h-174
l189 275h225z" />
    <glyph glyph-name="Omegatonos" unicode="&#x38f;" horiz-adv-x="923" 
d="M108 0l49 231h117l23 118q-40 32 -56 79.5t-16 106.5q0 48 8 99.5t20 105.5l80 375q19 87 51.5 165t86.5 136t133 92t190 34v-1q0 1 1 1q84 0 141 -19.5t91.5 -55t49 -84t14.5 -105.5q0 -38 -5.5 -78.5t-14.5 -83.5l-80 -376q-13 -61 -30 -119t-42 -109t-60 -93t-83 -71
l-28 -117h117l-49 -231h-317l63 297l19 87l25 118l7 29q37 0 60 18.5t37 48.5t22.5 67.5t16.5 75.5l81 373q5 25 9 49t4 46q0 42 -20.5 70.5t-77.5 28.5q-3 0 -5 1q-41 -1 -69 -17.5t-46.5 -43.5t-30.5 -62t-20 -72l-79 -374q-8 -35 -16.5 -70.5t-8.5 -65.5
q0 -32 14.5 -52.5t54.5 -20.5l-6 -29l-107 -502h-318zM437 1556l-88 -275h-154l38 275h204z" />
    <glyph glyph-name="Oslash.fat" horiz-adv-x="913" 
d="M185 -84l-103 42l985 1651l99 -41z" />
    <glyph glyph-name="Dcroat" unicode="&#x110;" horiz-adv-x="928" 
d="M793 1521q82 -1 138.5 -20.5t90.5 -54t49 -82.5t15 -106q0 -37 -5.5 -77.5t-14.5 -83.5l-144 -673q-19 -88 -52 -165.5t-86.5 -135t-132 -90.5t-189.5 -33h-361l329 1521h363zM518 233q35 1 61.5 14.5t46 38.5t33 59.5t23.5 78.5l144 673q12 49 12 88q0 47 -21 73t-71 28
h-126l-228 -1053h126zM116 650l38 179h477l-38 -179h-477z" />
    <glyph glyph-name="Wacute" unicode="&#x1e82;" horiz-adv-x="1342" 
d="M1634 1522l-524 -1522h-311l113 1122l-371 -1122h-311l132 1522h244l-133 -1152l375 1152h300l-122 -1152l364 1152h244zM1340 1876l-240 -275h-174l189 275h225z" />
    <glyph glyph-name="Wgrave" unicode="&#x1e80;" horiz-adv-x="1342" 
d="M1634 1522l-524 -1522h-311l113 1122l-371 -1122h-311l132 1522h244l-133 -1152l375 1152h300l-122 -1152l364 1152h244zM1016 1876l71 -275h-167l-115 275h211z" />
    <glyph glyph-name="Wdieresis" unicode="&#x1e84;" horiz-adv-x="1342" 
d="M1634 1522l-524 -1522h-311l113 1122l-371 -1122h-311l132 1522h244l-133 -1152l375 1152h300l-122 -1152l364 1152h244zM797 1705q0 33 7 61t23.5 47.5t43.5 30.5t66 11q93 0 93 -82q0 -71 -33 -110t-110 -39q-90 0 -90 81zM1064 1705q0 34 7.5 61.5t24 47t43 30.5
t65.5 11q48 0 70.5 -20t22.5 -61q0 -70 -32 -110t-111 -40q-90 0 -90 81z" />
    <glyph glyph-name="Wcircumflex" unicode="&#x174;" horiz-adv-x="1342" 
d="M1634 1522l-524 -1522h-311l113 1122l-371 -1122h-311l132 1522h244l-133 -1152l375 1152h300l-122 -1152l364 1152h244zM768 1601l190 241h224l86 -241h-193l-32 119l-82 -119h-193z" />
    <glyph glyph-name="afii10148" unicode="&#x474;" horiz-adv-x="7" 
 />
    <glyph glyph-name="Tcommaaccent" unicode="&#x162;" horiz-adv-x="761" 
d="M779 1286l-278 -1286h-242l278 1286h-248l50 235h738l-49 -235h-249zM224 -188q0 65 32 98.5t109 33.5q51 0 74 -24.5t23 -67.5q0 -49 -14 -93t-36.5 -82t-51 -70t-58.5 -58l-78 50q20 21 34 37.5t24 32.5t17.5 32t14.5 36q-90 0 -90 75z" />
    <glyph glyph-name="Tbar" unicode="&#x166;" horiz-adv-x="761" 
d="M779 1286l-278 -1286h-242l278 1286h-248l50 235h738l-49 -235h-249zM500 1662l38 179h477l-38 -179h-477z" />
    <glyph glyph-name="Tcaron" unicode="&#x164;" horiz-adv-x="761" 
d="M779 1286l-278 -1286h-242l278 1286h-248l50 235h738l-49 -235h-249zM720 1842l31 -118l83 118h193l-191 -241h-224l-86 241h194z" />
    <glyph glyph-name="Sacute" unicode="&#x15a;" horiz-adv-x="879" 
d="M891 369q-40 -189 -150 -289t-304 -100q-84 0 -142 16t-94.5 47t-52.5 76.5t-16 104.5q0 34 5 72.5t14 81.5l23 105h240l-22 -103q-11 -47 -11 -79q0 -44 23 -65.5t80 -21.5q38 0 66 11.5t48 32t32.5 49t18.5 62.5l2 13q5 29 8.5 53.5t3.5 45.5q0 43 -15.5 75t-55.5 61
l-123 93q-45 34 -75.5 66t-50 64.5t-28 66.5t-8.5 73q0 34 5.5 72.5t16.5 84.5l6 27q43 197 156 287.5t290 90.5q150 0 221 -60.5t71 -185.5q0 -62 -16 -135l-26 -122h-240l27 134q6 25 6 48q0 40 -22 64t-73 24q-68 0 -105 -43t-50 -110l-5 -29q-5 -28 -5 -50
q0 -44 17 -81.5t54 -63.5l112 -76q92 -64 131 -136.5t39 -163.5q0 -32 -4 -65.5t-12 -70.5zM1117 1876l-240 -275h-174l189 275h225z" />
    <glyph glyph-name="Scaron" unicode="&#x160;" horiz-adv-x="879" 
d="M891 369q-40 -189 -150 -289t-304 -100q-84 0 -142 16t-94.5 47t-52.5 76.5t-16 104.5q0 34 5 72.5t14 81.5l23 105h240l-22 -103q-11 -47 -11 -79q0 -44 23 -65.5t80 -21.5q38 0 66 11.5t48 32t32.5 49t18.5 62.5l2 13q5 29 8.5 53.5t3.5 45.5q0 43 -15.5 75t-55.5 61
l-123 93q-45 34 -75.5 66t-50 64.5t-28 66.5t-8.5 73q0 34 5.5 72.5t16.5 84.5l6 27q43 197 156 287.5t290 90.5q150 0 221 -60.5t71 -185.5q0 -62 -16 -135l-26 -122h-240l27 134q6 25 6 48q0 40 -22 64t-73 24q-68 0 -105 -43t-50 -110l-5 -29q-5 -28 -5 -50
q0 -44 17 -81.5t54 -63.5l112 -76q92 -64 131 -136.5t39 -163.5q0 -32 -4 -65.5t-12 -70.5zM800 1842l31 -118l83 118h193l-191 -241h-224l-86 241h194z" />
    <glyph glyph-name="Scedilla" unicode="&#x15e;" horiz-adv-x="879" 
d="M891 369q-40 -189 -150 -289t-304 -100q-84 0 -142 16t-94.5 47t-52.5 76.5t-16 104.5q0 34 5 72.5t14 81.5l23 105h240l-22 -103q-11 -47 -11 -79q0 -44 23 -65.5t80 -21.5q38 0 66 11.5t48 32t32.5 49t18.5 62.5l2 13q5 29 8.5 53.5t3.5 45.5q0 43 -15.5 75t-55.5 61
l-123 93q-45 34 -75.5 66t-50 64.5t-28 66.5t-8.5 73q0 34 5.5 72.5t16.5 84.5l6 27q43 197 156 287.5t290 90.5q150 0 221 -60.5t71 -185.5q0 -62 -16 -135l-26 -122h-240l27 134q6 25 6 48q0 40 -22 64t-73 24q-68 0 -105 -43t-50 -110l-5 -29q-5 -28 -5 -50
q0 -44 17 -81.5t54 -63.5l112 -76q92 -64 131 -136.5t39 -163.5q0 -32 -4 -65.5t-12 -70.5zM253 -251q14 -11 27.5 -19.5t30.5 -15t38.5 -10t52.5 -3.5q43 0 73 18t30 53q0 12 -7.5 21t-20.5 14.5t-29 8t-33 2.5q-32 0 -58 -8l49 226h120l-24 -110q8 1 18 3q8 2 19 3t24 1
q29 0 52 -10t38.5 -27.5t23.5 -40.5t8 -49q0 -53 -23 -94t-63.5 -69t-95.5 -42t-119 -14q-69 0 -116 23t-70 52z" />
    <glyph glyph-name="Scircumflex" unicode="&#x15c;" horiz-adv-x="879" 
d="M891 369q-40 -189 -150 -289t-304 -100q-84 0 -142 16t-94.5 47t-52.5 76.5t-16 104.5q0 34 5 72.5t14 81.5l23 105h240l-22 -103q-11 -47 -11 -79q0 -44 23 -65.5t80 -21.5q38 0 66 11.5t48 32t32.5 49t18.5 62.5l2 13q5 29 8.5 53.5t3.5 45.5q0 43 -15.5 75t-55.5 61
l-123 93q-45 34 -75.5 66t-50 64.5t-28 66.5t-8.5 73q0 34 5.5 72.5t16.5 84.5l6 27q43 197 156 287.5t290 90.5q150 0 221 -60.5t71 -185.5q0 -62 -16 -135l-26 -122h-240l27 134q6 25 6 48q0 40 -22 64t-73 24q-68 0 -105 -43t-50 -110l-5 -29q-5 -28 -5 -50
q0 -44 17 -81.5t54 -63.5l112 -76q92 -64 131 -136.5t39 -163.5q0 -32 -4 -65.5t-12 -70.5zM555 1601l190 241h224l86 -241h-193l-32 119l-82 -119h-193z" />
    <glyph glyph-name="Scommaaccent" unicode="&#x218;" horiz-adv-x="879" 
d="M891 369q-40 -189 -150 -289t-304 -100q-84 0 -142 16t-94.5 47t-52.5 76.5t-16 104.5q0 34 5 72.5t14 81.5l23 105h240l-22 -103q-11 -47 -11 -79q0 -44 23 -65.5t80 -21.5q38 0 66 11.5t48 32t32.5 49t18.5 62.5l2 13q5 29 8.5 53.5t3.5 45.5q0 43 -15.5 75t-55.5 61
l-123 93q-45 34 -75.5 66t-50 64.5t-28 66.5t-8.5 73q0 34 5.5 72.5t16.5 84.5l6 27q43 197 156 287.5t290 90.5q150 0 221 -60.5t71 -185.5q0 -62 -16 -135l-26 -122h-240l27 134q6 25 6 48q0 40 -22 64t-73 24q-68 0 -105 -43t-50 -110l-5 -29q-5 -28 -5 -50
q0 -44 17 -81.5t54 -63.5l112 -76q92 -64 131 -136.5t39 -163.5q0 -32 -4 -65.5t-12 -70.5zM332 -194q0 65 32 98.5t109 33.5q51 0 74 -24.5t23 -67.5q0 -49 -14 -93t-36.5 -82t-51 -70t-58.5 -58l-78 50q20 21 34 37.5t24 32.5t17.5 32t14.5 36q-90 0 -90 75z" />
    <glyph glyph-name="Uogonek" unicode="&#x172;" horiz-adv-x="933" 
d="M1163 1521l-248 -1151q-19 -88 -50.5 -160t-84 -123t-130 -79t-187.5 -28q-85 0 -143 16.5t-93.5 48t-51 76t-15.5 100.5q0 34 5 71t14 78l248 1151h241l-248 -1149q-5 -21 -8 -40.5t-3 -36.5q0 -38 21.5 -60t82.5 -22q43 0 71 12t45.5 33.5t27.5 50.5t18 63l247 1149
h241zM643 -369q-28 -23 -69.5 -36.5t-92.5 -13.5q-41 0 -76.5 9.5t-62 30.5t-42 54t-15.5 80q0 67 25.5 114.5t68.5 83t99 62t116 50.5l86 -45q-40 -22 -72.5 -44.5t-56 -48t-36 -56.5t-12.5 -70q0 -61 59 -61q17 0 29.5 1t23 4t20 7.5t21.5 10.5z" />
    <glyph glyph-name="Uring" unicode="&#x16e;" horiz-adv-x="933" 
d="M1163 1521l-248 -1151q-19 -88 -50.5 -160t-84 -123t-130 -79t-187.5 -28q-85 0 -143 16.5t-93.5 48t-51 76t-15.5 100.5q0 34 5 71t14 78l248 1151h241l-248 -1149q-5 -21 -8 -40.5t-3 -36.5q0 -38 21.5 -60t82.5 -22q43 0 71 12t45.5 33.5t27.5 50.5t18 63l247 1149
h241zM633 1740q0 58 14.5 104.5t45.5 79.5t80.5 51t120.5 18q94 0 137 -36t43 -110q0 -122 -62.5 -188t-203.5 -66q-91 0 -133 37t-42 110zM790 1777q0 -43 50 -43q41 0 58.5 20t17.5 55q0 20 -12 30.5t-39 10.5q-42 0 -58.5 -20.5t-16.5 -52.5z" />
    <glyph glyph-name="Uacute" unicode="&#xda;" horiz-adv-x="933" 
d="M1163 1521l-248 -1151q-19 -88 -50.5 -160t-84 -123t-130 -79t-187.5 -28q-85 0 -143 16.5t-93.5 48t-51 76t-15.5 100.5q0 34 5 71t14 78l248 1151h241l-248 -1149q-5 -21 -8 -40.5t-3 -36.5q0 -38 21.5 -60t82.5 -22q43 0 71 12t45.5 33.5t27.5 50.5t18 63l247 1149
h241zM1138 1876l-240 -275h-174l189 275h225z" />
    <glyph glyph-name="Ubreve" unicode="&#x16c;" horiz-adv-x="933" 
d="M1163 1521l-248 -1151q-19 -88 -50.5 -160t-84 -123t-130 -79t-187.5 -28q-85 0 -143 16.5t-93.5 48t-51 76t-15.5 100.5q0 34 5 71t14 78l248 1151h241l-248 -1149q-5 -21 -8 -40.5t-3 -36.5q0 -38 21.5 -60t82.5 -22q43 0 71 12t45.5 33.5t27.5 50.5t18 63l247 1149
h241zM1149 1870q-14 -56 -39.5 -105t-66.5 -85.5t-98.5 -57.5t-133.5 -21q-64 0 -108 14.5t-71.5 40.5t-39.5 61t-12 77q0 18 2 37t6 39h135q-3 -24 -3 -44q0 -21 5 -37.5t18 -28.5t36.5 -18.5t60.5 -6.5q43 0 72 9.5t48 26.5t31 42t22 57h136z" />
    <glyph glyph-name="Ugrave" unicode="&#xd9;" horiz-adv-x="933" 
d="M1163 1521l-248 -1151q-19 -88 -50.5 -160t-84 -123t-130 -79t-187.5 -28q-85 0 -143 16.5t-93.5 48t-51 76t-15.5 100.5q0 34 5 71t14 78l248 1151h241l-248 -1149q-5 -21 -8 -40.5t-3 -36.5q0 -38 21.5 -60t82.5 -22q43 0 71 12t45.5 33.5t27.5 50.5t18 63l247 1149
h241zM826 1876l71 -275h-167l-115 275h211z" />
    <glyph glyph-name="Utilde" unicode="&#x168;" horiz-adv-x="933" 
d="M1163 1521l-248 -1151q-19 -88 -50.5 -160t-84 -123t-130 -79t-187.5 -28q-85 0 -143 16.5t-93.5 48t-51 76t-15.5 100.5q0 34 5 71t14 78l248 1151h241l-248 -1149q-5 -21 -8 -40.5t-3 -36.5q0 -38 21.5 -60t82.5 -22q43 0 71 12t45.5 33.5t27.5 50.5t18 63l247 1149
h241zM1170 1834q-20 -44 -45 -82.5t-56 -67t-68.5 -44.5t-82.5 -16q-33 0 -58 10.5t-45.5 22.5t-40 22.5t-42.5 10.5q-29 0 -55 -15t-51 -54l-109 40q21 43 46.5 81t56.5 66t68 44.5t81 16.5q36 0 61.5 -10.5t46.5 -23t39.5 -23t41.5 -10.5q30 0 54.5 16.5t47.5 53.5z" />
    <glyph glyph-name="Udieresis" unicode="&#xdc;" horiz-adv-x="933" 
d="M1163 1521l-248 -1151q-19 -88 -50.5 -160t-84 -123t-130 -79t-187.5 -28q-85 0 -143 16.5t-93.5 48t-51 76t-15.5 100.5q0 34 5 71t14 78l248 1151h241l-248 -1149q-5 -21 -8 -40.5t-3 -36.5q0 -38 21.5 -60t82.5 -22q43 0 71 12t45.5 33.5t27.5 50.5t18 63l247 1149
h241zM591 1705q0 33 7 61t23.5 47.5t43.5 30.5t66 11q93 0 93 -82q0 -71 -33 -110t-110 -39q-90 0 -90 81zM858 1705q0 34 7.5 61.5t24 47t43 30.5t65.5 11q48 0 70.5 -20t22.5 -61q0 -70 -32 -110t-111 -40q-90 0 -90 81z" />
    <glyph glyph-name="Ucircumflex" unicode="&#xdb;" horiz-adv-x="933" 
d="M1163 1521l-248 -1151q-19 -88 -50.5 -160t-84 -123t-130 -79t-187.5 -28q-85 0 -143 16.5t-93.5 48t-51 76t-15.5 100.5q0 34 5 71t14 78l248 1151h241l-248 -1149q-5 -21 -8 -40.5t-3 -36.5q0 -38 21.5 -60t82.5 -22q43 0 71 12t45.5 33.5t27.5 50.5t18 63l247 1149
h241zM562 1601l190 241h224l86 -241h-193l-32 119l-82 -119h-193z" />
    <glyph glyph-name="ccircumflex" unicode="&#x109;" horiz-adv-x="870" 
d="M648 399h234l-4 -19q-17 -80 -46 -152.5t-79 -127.5t-126.5 -87.5t-188.5 -32.5q-83 0 -139 19t-89.5 53t-47.5 81.5t-14 103.5q0 39 5.5 82t15.5 88l68 314q5 28 11 55t13 55q19 84 51 156t83.5 124.5t127 82.5t181.5 30q84 0 139.5 -19t89 -52t47.5 -78t14 -98
q0 -36 -5.5 -74.5t-14.5 -78.5l-4 -20h-235l6 24q5 19 8 38.5t3 38.5t-4.5 35.5t-15.5 29t-30 19.5t-48 7q-42 0 -69.5 -16.5t-45.5 -44t-29 -63t-19 -72.5l-59 -273q-12 -54 -22.5 -103.5t-16.5 -97.5q-2 -21 0 -42t11.5 -37.5t28.5 -26.5t51 -10q42 0 70 15t46 39t28 54
t16 60zM465 1281l190 241h224l86 -241h-193l-32 119l-82 -119h-193z" />
    <glyph glyph-name="eacute" unicode="&#xe9;" horiz-adv-x="875" 
d="M883 406l-4 -23q-17 -83 -46.5 -156.5t-80 -128t-127 -86.5t-188.5 -32q-83 0 -139 19t-89.5 53.5t-47.5 82t-14 103.5q0 39 5.5 82t15.5 88l84 388q19 87 50 165t82.5 136.5t129 92.5t189.5 34q83 0 138.5 -18.5t89 -51.5t47.5 -78.5t14 -99.5q0 -37 -5.5 -76.5
t-14.5 -81.5l-39 -183h-1l-14 -68l-501 -92l-15 -70q-6 -26 -10 -51.5t-4 -48.5q0 -20 4.5 -37.5t15.5 -30.5t29 -20t46 -7q42 0 69.5 14.5t45.5 38.5t28 55t18 63l5 25h234zM654 996q-42 0 -70.5 -16.5t-47 -44.5t-30 -63.5t-19.5 -73.5l-26 -118l259 52l19 89q5 21 8.5 42
t3.5 41q0 19 -4.5 36t-15.5 29.5t-30 19.5t-47 7zM1034 1556l-240 -275h-174l189 275h225z" />
    <glyph glyph-name="ebreve" unicode="&#x115;" horiz-adv-x="875" 
d="M883 406l-4 -23q-17 -83 -46.5 -156.5t-80 -128t-127 -86.5t-188.5 -32q-83 0 -139 19t-89.5 53.5t-47.5 82t-14 103.5q0 39 5.5 82t15.5 88l84 388q19 87 50 165t82.5 136.5t129 92.5t189.5 34q83 0 138.5 -18.5t89 -51.5t47.5 -78.5t14 -99.5q0 -37 -5.5 -76.5
t-14.5 -81.5l-39 -183h-1l-14 -68l-501 -92l-15 -70q-6 -26 -10 -51.5t-4 -48.5q0 -20 4.5 -37.5t15.5 -30.5t29 -20t46 -7q42 0 69.5 14.5t45.5 38.5t28 55t18 63l5 25h234zM654 996q-42 0 -70.5 -16.5t-47 -44.5t-30 -63.5t-19.5 -73.5l-26 -118l259 52l19 89q5 21 8.5 42
t3.5 41q0 19 -4.5 36t-15.5 29.5t-30 19.5t-47 7zM1050 1550q-14 -56 -39.5 -105t-66.5 -85.5t-98.5 -57.5t-133.5 -21q-64 0 -108 14.5t-71.5 40.5t-39.5 61t-12 77q0 18 2 37t6 39h135q-3 -24 -3 -44q0 -21 5 -37.5t18 -28.5t36.5 -18.5t60.5 -6.5q43 0 72 9.5t48 26.5
t31 42t22 57h136z" />
    <glyph glyph-name="ecaron" unicode="&#x11b;" horiz-adv-x="875" 
d="M883 406l-4 -23q-17 -83 -46.5 -156.5t-80 -128t-127 -86.5t-188.5 -32q-83 0 -139 19t-89.5 53.5t-47.5 82t-14 103.5q0 39 5.5 82t15.5 88l84 388q19 87 50 165t82.5 136.5t129 92.5t189.5 34q83 0 138.5 -18.5t89 -51.5t47.5 -78.5t14 -99.5q0 -37 -5.5 -76.5
t-14.5 -81.5l-39 -183h-1l-14 -68l-501 -92l-15 -70q-6 -26 -10 -51.5t-4 -48.5q0 -20 4.5 -37.5t15.5 -30.5t29 -20t46 -7q42 0 69.5 14.5t45.5 38.5t28 55t18 63l5 25h234zM654 996q-42 0 -70.5 -16.5t-47 -44.5t-30 -63.5t-19.5 -73.5l-26 -118l259 52l19 89q5 21 8.5 42
t3.5 41q0 19 -4.5 36t-15.5 29.5t-30 19.5t-47 7zM710 1522l31 -118l83 118h193l-191 -241h-224l-86 241h194z" />
    <glyph glyph-name="ecircumflex" unicode="&#xea;" horiz-adv-x="875" 
d="M883 406l-4 -23q-17 -83 -46.5 -156.5t-80 -128t-127 -86.5t-188.5 -32q-83 0 -139 19t-89.5 53.5t-47.5 82t-14 103.5q0 39 5.5 82t15.5 88l84 388q19 87 50 165t82.5 136.5t129 92.5t189.5 34q83 0 138.5 -18.5t89 -51.5t47.5 -78.5t14 -99.5q0 -37 -5.5 -76.5
t-14.5 -81.5l-39 -183h-1l-14 -68l-501 -92l-15 -70q-6 -26 -10 -51.5t-4 -48.5q0 -20 4.5 -37.5t15.5 -30.5t29 -20t46 -7q42 0 69.5 14.5t45.5 38.5t28 55t18 63l5 25h234zM654 996q-42 0 -70.5 -16.5t-47 -44.5t-30 -63.5t-19.5 -73.5l-26 -118l259 52l19 89q5 21 8.5 42
t3.5 41q0 19 -4.5 36t-15.5 29.5t-30 19.5t-47 7zM464 1281l190 241h224l86 -241h-193l-32 119l-82 -119h-193z" />
    <glyph glyph-name="edieresis" unicode="&#xeb;" horiz-adv-x="875" 
d="M883 406l-4 -23q-17 -83 -46.5 -156.5t-80 -128t-127 -86.5t-188.5 -32q-83 0 -139 19t-89.5 53.5t-47.5 82t-14 103.5q0 39 5.5 82t15.5 88l84 388q19 87 50 165t82.5 136.5t129 92.5t189.5 34q83 0 138.5 -18.5t89 -51.5t47.5 -78.5t14 -99.5q0 -37 -5.5 -76.5
t-14.5 -81.5l-39 -183h-1l-14 -68l-501 -92l-15 -70q-6 -26 -10 -51.5t-4 -48.5q0 -20 4.5 -37.5t15.5 -30.5t29 -20t46 -7q42 0 69.5 14.5t45.5 38.5t28 55t18 63l5 25h234zM654 996q-42 0 -70.5 -16.5t-47 -44.5t-30 -63.5t-19.5 -73.5l-26 -118l259 52l19 89q5 21 8.5 42
t3.5 41q0 19 -4.5 36t-15.5 29.5t-30 19.5t-47 7zM494 1385q0 33 7 61t23.5 47.5t43.5 30.5t66 11q93 0 93 -82q0 -71 -33 -110t-110 -39q-90 0 -90 81zM761 1385q0 34 7.5 61.5t24 47t43 30.5t65.5 11q48 0 70.5 -20t22.5 -61q0 -70 -32 -110t-111 -40q-90 0 -90 81z" />
    <glyph glyph-name="edotaccent" unicode="&#x117;" horiz-adv-x="875" 
d="M883 406l-4 -23q-17 -83 -46.5 -156.5t-80 -128t-127 -86.5t-188.5 -32q-83 0 -139 19t-89.5 53.5t-47.5 82t-14 103.5q0 39 5.5 82t15.5 88l84 388q19 87 50 165t82.5 136.5t129 92.5t189.5 34q83 0 138.5 -18.5t89 -51.5t47.5 -78.5t14 -99.5q0 -37 -5.5 -76.5
t-14.5 -81.5l-39 -183h-1l-14 -68l-501 -92l-15 -70q-6 -26 -10 -51.5t-4 -48.5q0 -20 4.5 -37.5t15.5 -30.5t29 -20t46 -7q42 0 69.5 14.5t45.5 38.5t28 55t18 63l5 25h234zM654 996q-42 0 -70.5 -16.5t-47 -44.5t-30 -63.5t-19.5 -73.5l-26 -118l259 52l19 89q5 21 8.5 42
t3.5 41q0 19 -4.5 36t-15.5 29.5t-30 19.5t-47 7zM594 1373q0 78 40 123t134 45q62 0 91 -23.5t29 -73.5q0 -81 -41 -124t-136 -43q-117 0 -117 96z" />
    <glyph glyph-name="egrave" unicode="&#xe8;" horiz-adv-x="875" 
d="M883 406l-4 -23q-17 -83 -46.5 -156.5t-80 -128t-127 -86.5t-188.5 -32q-83 0 -139 19t-89.5 53.5t-47.5 82t-14 103.5q0 39 5.5 82t15.5 88l84 388q19 87 50 165t82.5 136.5t129 92.5t189.5 34q83 0 138.5 -18.5t89 -51.5t47.5 -78.5t14 -99.5q0 -37 -5.5 -76.5
t-14.5 -81.5l-39 -183h-1l-14 -68l-501 -92l-15 -70q-6 -26 -10 -51.5t-4 -48.5q0 -20 4.5 -37.5t15.5 -30.5t29 -20t46 -7q42 0 69.5 14.5t45.5 38.5t28 55t18 63l5 25h234zM654 996q-42 0 -70.5 -16.5t-47 -44.5t-30 -63.5t-19.5 -73.5l-26 -118l259 52l19 89q5 21 8.5 42
t3.5 41q0 19 -4.5 36t-15.5 29.5t-30 19.5t-47 7zM738 1556l71 -275h-167l-115 275h211z" />
    <glyph glyph-name="emacron" unicode="&#x113;" horiz-adv-x="875" 
d="M883 406l-4 -23q-17 -83 -46.5 -156.5t-80 -128t-127 -86.5t-188.5 -32q-83 0 -139 19t-89.5 53.5t-47.5 82t-14 103.5q0 39 5.5 82t15.5 88l84 388q19 87 50 165t82.5 136.5t129 92.5t189.5 34q83 0 138.5 -18.5t89 -51.5t47.5 -78.5t14 -99.5q0 -37 -5.5 -76.5
t-14.5 -81.5l-39 -183h-1l-14 -68l-501 -92l-15 -70q-6 -26 -10 -51.5t-4 -48.5q0 -20 4.5 -37.5t15.5 -30.5t29 -20t46 -7q42 0 69.5 14.5t45.5 38.5t28 55t18 63l5 25h234zM654 996q-42 0 -70.5 -16.5t-47 -44.5t-30 -63.5t-19.5 -73.5l-26 -118l259 52l19 89q5 21 8.5 42
t3.5 41q0 19 -4.5 36t-15.5 29.5t-30 19.5t-47 7zM490 1342l38 179h477l-38 -179h-477z" />
    <glyph glyph-name="eogonek" unicode="&#x119;" horiz-adv-x="875" 
d="M883 406l-4 -23q-17 -83 -46.5 -156.5t-80 -128t-127 -86.5t-188.5 -32q-83 0 -139 19t-89.5 53.5t-47.5 82t-14 103.5q0 39 5.5 82t15.5 88l84 388q19 87 50 165t82.5 136.5t129 92.5t189.5 34q83 0 138.5 -18.5t89 -51.5t47.5 -78.5t14 -99.5q0 -37 -5.5 -76.5
t-14.5 -81.5l-39 -183h-1l-14 -68l-501 -92l-15 -70q-6 -26 -10 -51.5t-4 -48.5q0 -20 4.5 -37.5t15.5 -30.5t29 -20t46 -7q42 0 69.5 14.5t45.5 38.5t28 55t18 63l5 25h234zM654 996q-42 0 -70.5 -16.5t-47 -44.5t-30 -63.5t-19.5 -73.5l-26 -118l259 52l19 89q5 21 8.5 42
t3.5 41q0 19 -4.5 36t-15.5 29.5t-30 19.5t-47 7zM664 -337q-28 -23 -69.5 -36.5t-92.5 -13.5q-41 0 -76.5 9.5t-62 30.5t-42 54t-15.5 80q0 67 25.5 114.5t68.5 83t99 62t116 50.5l86 -45q-40 -22 -72.5 -44.5t-56 -48t-36 -56.5t-12.5 -70q0 -61 59 -61q17 0 29.5 1t23 4
t20 7.5t21.5 10.5z" />
    <glyph glyph-name="oacute" unicode="&#xf3;" horiz-adv-x="876" 
d="M251 796q19 87 50 165t83 136.5t129.5 92.5t188.5 34q82 0 137.5 -19t88.5 -53.5t47 -81.5t14 -102q0 -40 -6 -83t-16 -89l-83 -388q-19 -88 -49.5 -165.5t-81.5 -136t-128 -92.5t-188 -34q-84 0 -139.5 19t-89 53.5t-47.5 81.5t-14 103q0 40 5.5 82.5t15.5 87.5z
M653 996q-42 0 -69.5 -16.5t-45.5 -44t-29 -63t-20 -73.5l-85 -395q-6 -26 -10.5 -52.5t-4.5 -49.5q0 -20 4.5 -37t15 -29t29 -19t45.5 -7q42 0 69 16t45 43t29 62t19 73l85 397q6 27 11 53.5t5 49.5q0 40 -19.5 66t-73.5 26zM1034 1556l-240 -275h-174l189 275h225z" />
    <glyph glyph-name="obreve" unicode="&#x14f;" horiz-adv-x="876" 
d="M251 796q19 87 50 165t83 136.5t129.5 92.5t188.5 34q82 0 137.5 -19t88.5 -53.5t47 -81.5t14 -102q0 -40 -6 -83t-16 -89l-83 -388q-19 -88 -49.5 -165.5t-81.5 -136t-128 -92.5t-188 -34q-84 0 -139.5 19t-89 53.5t-47.5 81.5t-14 103q0 40 5.5 82.5t15.5 87.5z
M653 996q-42 0 -69.5 -16.5t-45.5 -44t-29 -63t-20 -73.5l-85 -395q-6 -26 -10.5 -52.5t-4.5 -49.5q0 -20 4.5 -37t15 -29t29 -19t45.5 -7q42 0 69 16t45 43t29 62t19 73l85 397q6 27 11 53.5t5 49.5q0 40 -19.5 66t-73.5 26zM1045 1550q-14 -56 -39.5 -105t-66.5 -85.5
t-98.5 -57.5t-133.5 -21q-64 0 -108 14.5t-71.5 40.5t-39.5 61t-12 77q0 18 2 37t6 39h135q-3 -24 -3 -44q0 -21 5 -37.5t18 -28.5t36.5 -18.5t60.5 -6.5q43 0 72 9.5t48 26.5t31 42t22 57h136z" />
    <glyph glyph-name="ocircumflex" unicode="&#xf4;" horiz-adv-x="876" 
d="M251 796q19 87 50 165t83 136.5t129.5 92.5t188.5 34q82 0 137.5 -19t88.5 -53.5t47 -81.5t14 -102q0 -40 -6 -83t-16 -89l-83 -388q-19 -88 -49.5 -165.5t-81.5 -136t-128 -92.5t-188 -34q-84 0 -139.5 19t-89 53.5t-47.5 81.5t-14 103q0 40 5.5 82.5t15.5 87.5z
M653 996q-42 0 -69.5 -16.5t-45.5 -44t-29 -63t-20 -73.5l-85 -395q-6 -26 -10.5 -52.5t-4.5 -49.5q0 -20 4.5 -37t15 -29t29 -19t45.5 -7q42 0 69 16t45 43t29 62t19 73l85 397q6 27 11 53.5t5 49.5q0 40 -19.5 66t-73.5 26zM458 1281l190 241h224l86 -241h-193l-32 119
l-82 -119h-193z" />
    <glyph glyph-name="odieresis" unicode="&#xf6;" horiz-adv-x="876" 
d="M251 796q19 87 50 165t83 136.5t129.5 92.5t188.5 34q82 0 137.5 -19t88.5 -53.5t47 -81.5t14 -102q0 -40 -6 -83t-16 -89l-83 -388q-19 -88 -49.5 -165.5t-81.5 -136t-128 -92.5t-188 -34q-84 0 -139.5 19t-89 53.5t-47.5 81.5t-14 103q0 40 5.5 82.5t15.5 87.5z
M653 996q-42 0 -69.5 -16.5t-45.5 -44t-29 -63t-20 -73.5l-85 -395q-6 -26 -10.5 -52.5t-4.5 -49.5q0 -20 4.5 -37t15 -29t29 -19t45.5 -7q42 0 69 16t45 43t29 62t19 73l85 397q6 27 11 53.5t5 49.5q0 40 -19.5 66t-73.5 26zM484 1385q0 33 7 61t23.5 47.5t43.5 30.5t66 11
q93 0 93 -82q0 -71 -33 -110t-110 -39q-90 0 -90 81zM751 1385q0 34 7.5 61.5t24 47t43 30.5t65.5 11q48 0 70.5 -20t22.5 -61q0 -70 -32 -110t-111 -40q-90 0 -90 81z" />
    <glyph glyph-name="ograve" unicode="&#xf2;" horiz-adv-x="876" 
d="M251 796q19 87 50 165t83 136.5t129.5 92.5t188.5 34q82 0 137.5 -19t88.5 -53.5t47 -81.5t14 -102q0 -40 -6 -83t-16 -89l-83 -388q-19 -88 -49.5 -165.5t-81.5 -136t-128 -92.5t-188 -34q-84 0 -139.5 19t-89 53.5t-47.5 81.5t-14 103q0 40 5.5 82.5t15.5 87.5z
M653 996q-42 0 -69.5 -16.5t-45.5 -44t-29 -63t-20 -73.5l-85 -395q-6 -26 -10.5 -52.5t-4.5 -49.5q0 -20 4.5 -37t15 -29t29 -19t45.5 -7q42 0 69 16t45 43t29 62t19 73l85 397q6 27 11 53.5t5 49.5q0 40 -19.5 66t-73.5 26zM725 1556l71 -275h-167l-115 275h211z" />
    <glyph glyph-name="ohungarumlaut" unicode="&#x151;" horiz-adv-x="876" 
d="M251 796q19 87 50 165t83 136.5t129.5 92.5t188.5 34q82 0 137.5 -19t88.5 -53.5t47 -81.5t14 -102q0 -40 -6 -83t-16 -89l-83 -388q-19 -88 -49.5 -165.5t-81.5 -136t-128 -92.5t-188 -34q-84 0 -139.5 19t-89 53.5t-47.5 81.5t-14 103q0 40 5.5 82.5t15.5 87.5z
M653 996q-42 0 -69.5 -16.5t-45.5 -44t-29 -63t-20 -73.5l-85 -395q-6 -26 -10.5 -52.5t-4.5 -49.5q0 -20 4.5 -37t15 -29t29 -19t45.5 -7q42 0 69 16t45 43t29 62t19 73l85 397q6 27 11 53.5t5 49.5q0 40 -19.5 66t-73.5 26zM849 1556l-233 -275h-167l190 275h210z
M1112 1556l-234 -275h-167l190 275h211z" />
    <glyph glyph-name="omacron" unicode="&#x14d;" horiz-adv-x="876" 
d="M251 796q19 87 50 165t83 136.5t129.5 92.5t188.5 34q82 0 137.5 -19t88.5 -53.5t47 -81.5t14 -102q0 -40 -6 -83t-16 -89l-83 -388q-19 -88 -49.5 -165.5t-81.5 -136t-128 -92.5t-188 -34q-84 0 -139.5 19t-89 53.5t-47.5 81.5t-14 103q0 40 5.5 82.5t15.5 87.5z
M653 996q-42 0 -69.5 -16.5t-45.5 -44t-29 -63t-20 -73.5l-85 -395q-6 -26 -10.5 -52.5t-4.5 -49.5q0 -20 4.5 -37t15 -29t29 -19t45.5 -7q42 0 69 16t45 43t29 62t19 73l85 397q6 27 11 53.5t5 49.5q0 40 -19.5 66t-73.5 26zM483 1342l38 179h477l-38 -179h-477z" />
    <glyph glyph-name="otilde" unicode="&#xf5;" horiz-adv-x="876" 
d="M251 796q19 87 50 165t83 136.5t129.5 92.5t188.5 34q82 0 137.5 -19t88.5 -53.5t47 -81.5t14 -102q0 -40 -6 -83t-16 -89l-83 -388q-19 -88 -49.5 -165.5t-81.5 -136t-128 -92.5t-188 -34q-84 0 -139.5 19t-89 53.5t-47.5 81.5t-14 103q0 40 5.5 82.5t15.5 87.5z
M653 996q-42 0 -69.5 -16.5t-45.5 -44t-29 -63t-20 -73.5l-85 -395q-6 -26 -10.5 -52.5t-4.5 -49.5q0 -20 4.5 -37t15 -29t29 -19t45.5 -7q42 0 69 16t45 43t29 62t19 73l85 397q6 27 11 53.5t5 49.5q0 40 -19.5 66t-73.5 26zM1065 1514q-20 -44 -45 -82.5t-56 -67
t-68.5 -44.5t-82.5 -16q-33 0 -58 10.5t-45.5 22.5t-40 22.5t-42.5 10.5q-29 0 -55 -15t-51 -54l-109 40q21 43 46.5 81t56.5 66t68 44.5t81 16.5q36 0 61.5 -10.5t46.5 -23t39.5 -23t41.5 -10.5q30 0 54.5 16.5t47.5 53.5z" />
    <glyph glyph-name="aogonek" unicode="&#x105;" horiz-adv-x="905" 
d="M566 0l25 116q-35 -60 -85 -98t-121 -38q-67 0 -112 17t-72 48t-38.5 73.5t-11.5 93.5q0 45 7.5 94t18.5 102l83 388q20 96 48 174.5t72.5 135t110 87t161.5 30.5q36 0 61.5 -10.5t43.5 -29.5t28 -44.5t15 -56.5l26 120h235l-259 -1202h-236zM483 207q38 0 65.5 16
t47.5 42.5t33 60t22 69.5l1 2v3l47 215l34 158q7 29 12.5 62t5.5 62q0 42 -18 71t-68 29q-42 0 -70.5 -18t-48 -47t-31 -64.5t-18.5 -69.5l-85 -396q-8 -35 -13.5 -65t-5.5 -54q0 -37 19 -56.5t71 -19.5zM764 -389q-28 -23 -69.5 -36.5t-92.5 -13.5q-41 0 -76.5 9.5
t-62 30.5t-42 54t-15.5 80q0 67 25.5 114.5t68.5 83t99 62t116 50.5l86 -45q-40 -22 -72.5 -44.5t-56 -48t-36 -56.5t-12.5 -70q0 -61 59 -61q17 0 29.5 1t23 4t20 7.5t21.5 10.5z" />
    <glyph glyph-name="aring" unicode="&#xe5;" horiz-adv-x="905" 
d="M566 0l25 116q-35 -60 -85 -98t-121 -38q-67 0 -112 17t-72 48t-38.5 73.5t-11.5 93.5q0 45 7.5 94t18.5 102l83 388q20 96 48 174.5t72.5 135t110 87t161.5 30.5q36 0 61.5 -10.5t43.5 -29.5t28 -44.5t15 -56.5l26 120h235l-259 -1202h-236zM483 207q38 0 65.5 16
t47.5 42.5t33 60t22 69.5l1 2v3l47 215l34 158q7 29 12.5 62t5.5 62q0 42 -18 71t-68 29q-42 0 -70.5 -18t-48 -47t-31 -64.5t-18.5 -69.5l-85 -396q-8 -35 -13.5 -65t-5.5 -54q0 -37 19 -56.5t71 -19.5zM556 1420q0 58 14.5 104.5t45.5 79.5t80.5 51t120.5 18q94 0 137 -36
t43 -110q0 -122 -62.5 -188t-203.5 -66q-91 0 -133 37t-42 110zM713 1457q0 -43 50 -43q41 0 58.5 20t17.5 55q0 20 -12 30.5t-39 10.5q-42 0 -58.5 -20.5t-16.5 -52.5z" />
    <glyph glyph-name="agrave" unicode="&#xe0;" horiz-adv-x="905" 
d="M566 0l25 116q-35 -60 -85 -98t-121 -38q-67 0 -112 17t-72 48t-38.5 73.5t-11.5 93.5q0 45 7.5 94t18.5 102l83 388q20 96 48 174.5t72.5 135t110 87t161.5 30.5q36 0 61.5 -10.5t43.5 -29.5t28 -44.5t15 -56.5l26 120h235l-259 -1202h-236zM483 207q38 0 65.5 16
t47.5 42.5t33 60t22 69.5l1 2v3l47 215l34 158q7 29 12.5 62t5.5 62q0 42 -18 71t-68 29q-42 0 -70.5 -18t-48 -47t-31 -64.5t-18.5 -69.5l-85 -396q-8 -35 -13.5 -65t-5.5 -54q0 -37 19 -56.5t71 -19.5zM738 1556l71 -275h-167l-115 275h211z" />
    <glyph glyph-name="atilde" unicode="&#xe3;" horiz-adv-x="905" 
d="M566 0l25 116q-35 -60 -85 -98t-121 -38q-67 0 -112 17t-72 48t-38.5 73.5t-11.5 93.5q0 45 7.5 94t18.5 102l83 388q20 96 48 174.5t72.5 135t110 87t161.5 30.5q36 0 61.5 -10.5t43.5 -29.5t28 -44.5t15 -56.5l26 120h235l-259 -1202h-236zM483 207q38 0 65.5 16
t47.5 42.5t33 60t22 69.5l1 2v3l47 215l34 158q7 29 12.5 62t5.5 62q0 42 -18 71t-68 29q-42 0 -70.5 -18t-48 -47t-31 -64.5t-18.5 -69.5l-85 -396q-8 -35 -13.5 -65t-5.5 -54q0 -37 19 -56.5t71 -19.5zM1092 1514q-20 -44 -45 -82.5t-56 -67t-68.5 -44.5t-82.5 -16
q-33 0 -58 10.5t-45.5 22.5t-40 22.5t-42.5 10.5q-29 0 -55 -15t-51 -54l-109 40q21 43 46.5 81t56.5 66t68 44.5t81 16.5q36 0 61.5 -10.5t46.5 -23t39.5 -23t41.5 -10.5q30 0 54.5 16.5t47.5 53.5z" />
    <glyph glyph-name="amacron" unicode="&#x101;" horiz-adv-x="905" 
d="M566 0l25 116q-35 -60 -85 -98t-121 -38q-67 0 -112 17t-72 48t-38.5 73.5t-11.5 93.5q0 45 7.5 94t18.5 102l83 388q20 96 48 174.5t72.5 135t110 87t161.5 30.5q36 0 61.5 -10.5t43.5 -29.5t28 -44.5t15 -56.5l26 120h235l-259 -1202h-236zM483 207q38 0 65.5 16
t47.5 42.5t33 60t22 69.5l1 2v3l47 215l34 158q7 29 12.5 62t5.5 62q0 42 -18 71t-68 29q-42 0 -70.5 -18t-48 -47t-31 -64.5t-18.5 -69.5l-85 -396q-8 -35 -13.5 -65t-5.5 -54q0 -37 19 -56.5t71 -19.5zM509 1342l38 179h477l-38 -179h-477z" />
    <glyph glyph-name="adieresis" unicode="&#xe4;" horiz-adv-x="905" 
d="M566 0l25 116q-35 -60 -85 -98t-121 -38q-67 0 -112 17t-72 48t-38.5 73.5t-11.5 93.5q0 45 7.5 94t18.5 102l83 388q20 96 48 174.5t72.5 135t110 87t161.5 30.5q36 0 61.5 -10.5t43.5 -29.5t28 -44.5t15 -56.5l26 120h235l-259 -1202h-236zM483 207q38 0 65.5 16
t47.5 42.5t33 60t22 69.5l1 2v3l47 215l34 158q7 29 12.5 62t5.5 62q0 42 -18 71t-68 29q-42 0 -70.5 -18t-48 -47t-31 -64.5t-18.5 -69.5l-85 -396q-8 -35 -13.5 -65t-5.5 -54q0 -37 19 -56.5t71 -19.5zM514 1385q0 33 7 61t23.5 47.5t43.5 30.5t66 11q93 0 93 -82
q0 -71 -33 -110t-110 -39q-90 0 -90 81zM781 1385q0 34 7.5 61.5t24 47t43 30.5t65.5 11q48 0 70.5 -20t22.5 -61q0 -70 -32 -110t-111 -40q-90 0 -90 81z" />
    <glyph glyph-name="acircumflex" unicode="&#xe2;" horiz-adv-x="905" 
d="M566 0l25 116q-35 -60 -85 -98t-121 -38q-67 0 -112 17t-72 48t-38.5 73.5t-11.5 93.5q0 45 7.5 94t18.5 102l83 388q20 96 48 174.5t72.5 135t110 87t161.5 30.5q36 0 61.5 -10.5t43.5 -29.5t28 -44.5t15 -56.5l26 120h235l-259 -1202h-236zM483 207q38 0 65.5 16
t47.5 42.5t33 60t22 69.5l1 2v3l47 215l34 158q7 29 12.5 62t5.5 62q0 42 -18 71t-68 29q-42 0 -70.5 -18t-48 -47t-31 -64.5t-18.5 -69.5l-85 -396q-8 -35 -13.5 -65t-5.5 -54q0 -37 19 -56.5t71 -19.5zM484 1281l190 241h224l86 -241h-193l-32 119l-82 -119h-193z" />
    <glyph glyph-name="e.fat" horiz-adv-x="896" 
d="M261 796q19 87 50 165t83 136.5t129.5 92.5t188.5 34q84 0 139.5 -19t89 -52t47.5 -78.5t14 -99.5q0 -37 -5.5 -76t-14.5 -81l-54 -251l-39 -181q-18 -83 -47.5 -156.5t-80 -129t-127 -88t-187.5 -32.5q-83 0 -139 19t-89.5 53.5t-47.5 82t-14 103.5q0 39 5.5 82t15.5 88
zM663 996q-42 0 -70 -16.5t-47 -44.5t-30 -63.5t-20 -73.5l-25 -118l257 52l20 89q5 21 8.5 42.5t3.5 41.5q0 19 -4.5 35.5t-15.5 29t-30 19.5t-47 7zM493 210q42 0 69.5 15t45.5 39.5t28 55.5t17 63l5 23l25 116l-256 -47l-15 -70q-6 -26 -10 -52t-4 -49q0 -20 4.5 -37.5
t15.5 -30t29 -19.5t46 -7z" />
    <glyph glyph-name="ibreve" unicode="&#x12d;" horiz-adv-x="449" 
d="M107 0l258 1202h238l-259 -1202h-237zM841 1550q-14 -56 -39.5 -105t-66.5 -85.5t-98.5 -57.5t-133.5 -21q-64 0 -108 14.5t-71.5 40.5t-39.5 61t-12 77q0 18 2 37t6 39h135q-3 -24 -3 -44q0 -21 5 -37.5t18 -28.5t36.5 -18.5t60.5 -6.5q43 0 72 9.5t48 26.5t31 42t22 57
h136z" />
    <glyph glyph-name="icircumflex" unicode="&#xee;" horiz-adv-x="449" 
d="M107 0l258 1202h238l-259 -1202h-237zM252 1281l190 241h224l86 -241h-193l-32 119l-82 -119h-193z" />
    <glyph glyph-name="idieresis" unicode="&#xef;" horiz-adv-x="449" 
d="M107 0l258 1202h238l-259 -1202h-237zM281 1385q0 33 7 61t23.5 47.5t43.5 30.5t66 11q93 0 93 -82q0 -71 -33 -110t-110 -39q-90 0 -90 81zM548 1385q0 34 7.5 61.5t24 47t43 30.5t65.5 11q48 0 70.5 -20t22.5 -61q0 -70 -32 -110t-111 -40q-90 0 -90 81z" />
    <glyph glyph-name="igrave" unicode="&#xec;" horiz-adv-x="449" 
d="M107 0l258 1202h238l-259 -1202h-237zM514 1556l71 -275h-167l-115 275h211z" />
    <glyph glyph-name="ij" unicode="&#x133;" horiz-adv-x="906" 
d="M397 1431q0 70 39 108.5t129 38.5q62 0 91 -21.5t29 -66.5q0 -69 -38 -108t-132 -39q-118 0 -118 88zM108 0l260 1202h236l-259 -1202h-237zM828 1431q0 70 39.5 108.5t128.5 38.5q122 0 122 -88q0 -69 -38.5 -108t-132.5 -39q-119 0 -119 88zM1037 1202l-261 -1211
q-20 -90 -46.5 -163t-69 -125.5t-105.5 -81t-155 -28.5q-74 0 -120.5 21.5t-73.5 45.5l58 199q9 -6 21.5 -13t30.5 -13.5t41 -11t53 -4.5q29 0 49 9.5t34 30.5t24.5 54t21.5 80l261 1211h237z" />
    <glyph glyph-name="imacron" unicode="&#x12b;" horiz-adv-x="449" 
d="M107 0l258 1202h238l-259 -1202h-237zM277 1342l38 179h477l-38 -179h-477z" />
    <glyph glyph-name="iogonek" unicode="&#x12f;" horiz-adv-x="448" 
d="M395 1431q0 70 39 108.5t129 38.5q62 0 91 -21.5t29 -66.5q0 -69 -38 -108t-132 -39q-118 0 -118 88zM106 0l260 1202h236l-259 -1202h-237zM307 -389q-28 -23 -69.5 -36.5t-92.5 -13.5q-41 0 -76.5 9.5t-62 30.5t-42 54t-15.5 80q0 67 25.5 114.5t68.5 83t99 62
t116 50.5l86 -45q-40 -22 -72.5 -44.5t-56 -48t-36 -56.5t-12.5 -70q0 -61 59 -61q17 0 29.5 1t23 4t20 7.5t21.5 10.5z" />
    <glyph glyph-name="itilde" unicode="&#x129;" horiz-adv-x="449" 
d="M107 0l258 1202h238l-259 -1202h-237zM859 1514q-20 -44 -45 -82.5t-56 -67t-68.5 -44.5t-82.5 -16q-33 0 -58 10.5t-45.5 22.5t-40 22.5t-42.5 10.5q-29 0 -55 -15t-51 -54l-109 40q21 43 46.5 81t56.5 66t68 44.5t81 16.5q36 0 61.5 -10.5t46.5 -23t39.5 -23
t41.5 -10.5q30 0 54.5 16.5t47.5 53.5z" />
    <glyph glyph-name="jcircumflex" unicode="&#x135;" horiz-adv-x="451" 
d="M249 1281l190 241h224l86 -241h-193l-32 119l-82 -119h-193zM603 1202l-261 -1211q-20 -90 -46.5 -163t-69 -125.5t-105.5 -81t-155 -28.5q-37 0 -66.5 6t-53 15.5t-42 21.5t-31.5 24l57 199q9 -6 21.5 -13t30.5 -13.5t41 -11t53 -4.5q29 0 49 9.5t34 30.5t24.5 54
t21.5 80l261 1211h237z" />
    <glyph glyph-name="nacute" unicode="&#x144;" horiz-adv-x="920" 
d="M583 0l173 800q6 28 11 55t5 51q0 38 -19 63t-72 25q-41 0 -70 -21t-49 -53.5t-32.5 -72.5t-21.5 -77l-165 -770h-236l258 1202h237l-26 -119q19 29 46 54.5t58 44t65.5 29.5t69.5 11q60 0 99.5 -15t63.5 -42.5t34 -65.5t10 -84q0 -49 -9 -104t-22 -115l-171 -796h-237z
M1063 1556l-240 -275h-174l189 275h225z" />
    <glyph glyph-name="ncaron" unicode="&#x148;" horiz-adv-x="920" 
d="M583 0l173 800q6 28 11 55t5 51q0 38 -19 63t-72 25q-41 0 -70 -21t-49 -53.5t-32.5 -72.5t-21.5 -77l-165 -770h-236l258 1202h237l-26 -119q19 29 46 54.5t58 44t65.5 29.5t69.5 11q60 0 99.5 -15t63.5 -42.5t34 -65.5t10 -84q0 -49 -9 -104t-22 -115l-171 -796h-237z
M735 1522l31 -118l83 118h193l-191 -241h-224l-86 241h194z" />
    <glyph glyph-name="ntilde" unicode="&#xf1;" horiz-adv-x="920" 
d="M583 0l173 800q6 28 11 55t5 51q0 38 -19 63t-72 25q-41 0 -70 -21t-49 -53.5t-32.5 -72.5t-21.5 -77l-165 -770h-236l258 1202h237l-26 -119q19 29 46 54.5t58 44t65.5 29.5t69.5 11q60 0 99.5 -15t63.5 -42.5t34 -65.5t10 -84q0 -49 -9 -104t-22 -115l-171 -796h-237z
M1106 1514q-20 -44 -45 -82.5t-56 -67t-68.5 -44.5t-82.5 -16q-33 0 -58 10.5t-45.5 22.5t-40 22.5t-42.5 10.5q-29 0 -55 -15t-51 -54l-109 40q21 43 46.5 81t56.5 66t68 44.5t81 16.5q36 0 61.5 -10.5t46.5 -23t39.5 -23t41.5 -10.5q30 0 54.5 16.5t47.5 53.5z" />
    <glyph glyph-name="napostrophe" unicode="&#x149;" horiz-adv-x="1144" 
d="M816 0l173 800q6 28 11 55t5 51q0 38 -19 63t-72 25q-41 0 -70 -21t-49 -53.5t-32.5 -72.5t-21.5 -77l-165 -770h-236l258 1202h237l-26 -119q19 29 46 54.5t58 44t65.5 29.5t69.5 11q60 0 99.5 -15t63.5 -42.5t34 -65.5t10 -84q0 -49 -9 -104t-22 -115l-171 -796h-237z
M268 1092q0 65 32 98.5t109 33.5q51 0 74 -24.5t23 -67.5q0 -49 -14 -93t-36.5 -82t-51 -70t-58.5 -58l-78 50q20 21 34 37.5t24 32.5t17.5 32t14.5 36q-90 0 -90 75z" />
    <glyph glyph-name="ncommaaccent" unicode="&#x146;" horiz-adv-x="920" 
d="M583 0l173 800q6 28 11 55t5 51q0 38 -19 63t-72 25q-41 0 -70 -21t-49 -53.5t-32.5 -72.5t-21.5 -77l-165 -770h-236l258 1202h237l-26 -119q19 29 46 54.5t58 44t65.5 29.5t69.5 11q60 0 99.5 -15t63.5 -42.5t34 -65.5t10 -84q0 -49 -9 -104t-22 -115l-171 -796h-237z
M320 -188q0 65 32 98.5t109 33.5q51 0 74 -24.5t23 -67.5q0 -49 -14 -93t-36.5 -82t-51 -70t-58.5 -58l-78 50q20 21 34 37.5t24 32.5t17.5 32t14.5 36q-90 0 -90 75z" />
    <glyph glyph-name="iotadieresistonos" unicode="&#x390;" horiz-adv-x="449" 
d="M107 0l258 1202h238l-259 -1202h-237zM686 1675l-87 -275h-148l38 275h197zM190 1368q0 33 7 61t23.5 47.5t43.5 30.5t66 11q93 0 93 -82q0 -71 -32.5 -110t-109.5 -39q-91 0 -91 81zM624 1368q0 34 7.5 61.5t24 47t43 30.5t64.5 11q49 0 71.5 -20t22.5 -61
q0 -70 -32 -110t-111 -40q-90 0 -90 81z" />
    <glyph glyph-name="iotatonos" unicode="&#x3af;" horiz-adv-x="449" 
d="M107 0l258 1202h238l-259 -1202h-237zM682 1576l-88 -275h-154l38 275h204z" />
    <glyph glyph-name="upsilondieresistonos" unicode="&#x3b0;" horiz-adv-x="897" 
d="M1077 1202l-179 -832q-19 -87 -50.5 -158.5t-82.5 -122.5t-126.5 -79.5t-182.5 -29.5h-4h-7l-1 1q-81 1 -137 18t-90 48t-49 74.5t-15 98.5q0 34 5 71t14 79l179 832h241l-179 -830q-5 -21 -8 -40.5t-3 -36.5q0 -38 21.5 -60t80.5 -22q41 1 67 13.5t43 33.5t26.5 50
t17.5 62l178 830h241zM923 1675l-87 -275h-148l38 275h197zM427 1368q0 33 7 61t23.5 47.5t43.5 30.5t66 11q93 0 93 -82q0 -71 -32.5 -110t-109.5 -39q-91 0 -91 81zM861 1368q0 34 7.5 61.5t24 47t43 30.5t64.5 11q49 0 71.5 -20t22.5 -61q0 -70 -32 -110t-111 -40
q-90 0 -90 81z" />
    <glyph glyph-name="afii10075" unicode="&#x439;" horiz-adv-x="934" 
d="M591 0l142 660l-363 -660h-264l259 1202h242l-139 -643l362 643h28l174 1l-1 -1h63l-262 -1202h-241zM1098 1550q-13 -56 -39 -105t-67 -85.5t-98.5 -57.5t-133.5 -21q-65 0 -109 14.5t-71.5 40.5t-39.5 61.5t-12 77.5q0 18 2 36.5t6 38.5h137q-2 -12 -3 -23.5t-1 -22.5
q0 -20 5 -36.5t18.5 -28t37 -18t59.5 -6.5q43 0 72 9.5t48 26.5t31 42t22 57h136z" />
    <glyph glyph-name="kcommaaccent" unicode="&#x137;" horiz-adv-x="878" 
d="M680 1568l-183 -846h85l279 480h241l-369 -601l141 -601h-262l-84 489h-81l-105 -489h-237l339 1568h236zM309 -188q0 65 32 98.5t109 33.5q51 0 74 -24.5t23 -67.5q0 -49 -14 -93t-36.5 -82t-51 -70t-58.5 -58l-78 50q20 21 34 37.5t24 32.5t17.5 32t14.5 36
q-90 0 -90 75z" />
    <glyph glyph-name="ldot" unicode="&#x140;" horiz-adv-x="449" 
d="M465 1757q0 78 40 123t134 45q62 0 91 -23.5t29 -73.5q0 -81 -41 -124t-136 -43q-117 0 -117 96zM106 0l338 1568h237l-339 -1568h-236z" />
    <glyph glyph-name="lacute" unicode="&#x13a;" horiz-adv-x="449" 
d="M106 0l338 1568h237l-339 -1568h-236zM901 1892l-240 -275h-174l189 275h225z" />
    <glyph glyph-name="lcaron" unicode="&#x13e;" horiz-adv-x="449" 
d="M575 1892l31 -118l83 118h193l-191 -241h-224l-86 241h194zM106 0l338 1568h237l-339 -1568h-236z" />
    <glyph glyph-name="lcommaaccent" unicode="&#x13c;" horiz-adv-x="449" 
d="M106 0l338 1568h237l-339 -1568h-236zM68 -188q0 65 32 98.5t109 33.5q51 0 74 -24.5t23 -67.5q0 -49 -14 -93t-36.5 -82t-51 -70t-58.5 -58l-78 50q20 21 34 37.5t24 32.5t17.5 32t14.5 36q-90 0 -90 75z" />
    <glyph glyph-name="hbar" unicode="&#x127;" horiz-adv-x="920" 
d="M583 0l173 800q6 26 10.5 53t4.5 50q0 19 -4.5 36t-15 29t-28.5 19t-45 7q-41 0 -69.5 -21t-48 -53.5t-31.5 -72.5t-21 -77l-165 -770h-236l337 1567h237l-104 -481q35 61 86 98.5t122 37.5q66 0 110.5 -17t71.5 -47.5t38.5 -72.5t11.5 -93q0 -45 -7.5 -94t-18.5 -102
l-171 -796h-237zM317 1318l38 179h477l-38 -179h-477z" />
    <glyph glyph-name="rcommaaccent" unicode="&#x157;" horiz-adv-x="610" 
d="M808 955q-4 1 -13 6t-23 11t-34 11t-46 5h-1q-40 0 -69.5 -18.5t-51 -47.5t-35.5 -66t-23 -73l-169 -783h-236l259 1202h236l-27 -127q37 66 88.5 107.5t125.5 41.5v-2l2 2q14 0 34.5 -4.5t35.5 -16.5zM70 -188q0 65 32 98.5t109 33.5q51 0 74 -24.5t23 -67.5
q0 -49 -14 -93t-36.5 -82t-51 -70t-58.5 -58l-78 50q20 21 34 37.5t24 32.5t17.5 32t14.5 36q-90 0 -90 75z" />
    <glyph glyph-name="afii10109" unicode="&#x45c;" horiz-adv-x="868" 
d="M591 1201l-103 -479h85l279 480h241l-369 -601l141 -601h-262l-84 489h-81l-105 -489h-237l259 1201h236zM1044 1556l-240 -275h-174l189 275h225z" />
    <glyph glyph-name="wacute" unicode="&#x1e83;" horiz-adv-x="1362" 
d="M274 1203h244l-90 -975h9l332 975h345l-88 -975h7l333 975h243l-438 -1203h-367l85 960l-328 -960h-368zM1241 1556l-240 -275h-174l189 275h225z" />
    <glyph glyph-name="wgrave" unicode="&#x1e81;" horiz-adv-x="1362" 
d="M274 1203h244l-90 -975h9l332 975h345l-88 -975h7l333 975h243l-438 -1203h-367l85 960l-328 -960h-368zM924 1556l71 -275h-167l-115 275h211z" />
    <glyph glyph-name="wdieresis" unicode="&#x1e85;" horiz-adv-x="1362" 
d="M274 1203h244l-90 -975h9l332 975h345l-88 -975h7l333 975h243l-438 -1203h-367l85 960l-328 -960h-368zM685 1385q0 33 7 61t23.5 47.5t43.5 30.5t66 11q93 0 93 -82q0 -71 -33 -110t-110 -39q-90 0 -90 81zM952 1385q0 34 7.5 61.5t24 47t43 30.5t65.5 11
q48 0 70.5 -20t22.5 -61q0 -70 -32 -110t-111 -40q-90 0 -90 81z" />
    <glyph glyph-name="wcircumflex" unicode="&#x175;" horiz-adv-x="1362" 
d="M274 1203h244l-90 -975h9l332 975h345l-88 -975h7l333 975h243l-438 -1203h-367l85 960l-328 -960h-368zM657 1281l190 241h224l86 -241h-193l-32 119l-82 -119h-193z" />
    <glyph glyph-name="afii10062" unicode="&#x40e;" horiz-adv-x="867" 
d="M679 551l-278 -551h-236l265 525l-95 996h265l22 -656l320 656h238zM1122 1870q-14 -56 -39.5 -105t-66.5 -85.5t-98.5 -57.5t-133.5 -21q-64 0 -108 14.5t-71.5 40.5t-39.5 61t-12 77q0 18 2 37t6 39h135q-3 -24 -3 -44q0 -21 5 -37.5t18 -28.5t36.5 -18.5t60.5 -6.5
q43 0 72 9.5t48 26.5t31 42t22 57h136z" />
    <glyph glyph-name="racute" unicode="&#x155;" horiz-adv-x="610" 
d="M808 955q-4 1 -13 6t-23 11t-34 11t-46 5h-1q-40 0 -69.5 -18.5t-51 -47.5t-35.5 -66t-23 -73l-169 -783h-236l259 1202h236l-27 -127q37 66 88.5 107.5t125.5 41.5v-2l2 2q14 0 34.5 -4.5t35.5 -16.5zM945 1556l-240 -275h-174l189 275h225z" />
    <glyph glyph-name="rcaron" unicode="&#x159;" horiz-adv-x="610" 
d="M808 955q-4 1 -13 6t-23 11t-34 11t-46 5h-1q-40 0 -69.5 -18.5t-51 -47.5t-35.5 -66t-23 -73l-169 -783h-236l259 1202h236l-27 -127q37 66 88.5 107.5t125.5 41.5v-2l2 2q14 0 34.5 -4.5t35.5 -16.5zM614 1522l31 -118l83 118h193l-191 -241h-224l-86 241h194z" />
    <glyph glyph-name="zacute" unicode="&#x17a;" horiz-adv-x="761" 
d="M43 0l43 202l563 780h-365l46 220h629l-43 -200l-560 -776h391l-48 -226h-656zM981 1556l-240 -275h-174l189 275h225z" />
    <glyph glyph-name="zcaron" unicode="&#x17e;" horiz-adv-x="761" 
d="M43 0l43 202l563 780h-365l46 220h629l-43 -200l-560 -776h391l-48 -226h-656zM649 1522l31 -118l83 118h193l-191 -241h-224l-86 241h194z" />
    <glyph glyph-name="zdotaccent" unicode="&#x17c;" horiz-adv-x="761" 
d="M43 0l43 202l563 780h-365l46 220h629l-43 -200l-560 -776h391l-48 -226h-656zM529 1373q0 78 40 123t134 45q62 0 91 -23.5t29 -73.5q0 -81 -41 -124t-136 -43q-117 0 -117 96z" />
    <glyph glyph-name="scaron" unicode="&#x161;" horiz-adv-x="808" 
d="M837 408q0 -100 -29.5 -179t-86 -134.5t-138.5 -85t-186 -29.5q-80 0 -135 17t-89.5 49t-49.5 78t-15 104q0 35 5.5 74.5t14.5 82.5h237q-5 -21 -7.5 -40.5t-2.5 -37.5q0 -43 19 -70t69 -27q34 0 59.5 12t42.5 31t25 43t8 49q0 40 -25.5 71.5t-63.5 60.5t-82.5 59
t-82.5 67.5t-63.5 86t-25.5 113.5q0 103 29.5 182t85.5 132t136.5 80t183.5 27q62 0 112.5 -11t86.5 -37.5t55.5 -72t19.5 -114.5q0 -63 -18 -150l-237 1q4 17 6.5 34.5t2.5 34.5q0 36 -16.5 61.5t-60.5 25.5q-32 0 -57.5 -11.5t-42.5 -30t-26 -41.5t-9 -47q0 -36 26 -65.5
t65 -58.5t84.5 -59.5t84.5 -69.5t65 -89t26 -116zM673 1522l31 -118l83 118h193l-191 -241h-224l-86 241h194z" />
    <glyph glyph-name="scedilla" unicode="&#x15f;" horiz-adv-x="808" 
d="M837 408q0 -100 -29.5 -179t-86 -134.5t-138.5 -85t-186 -29.5q-80 0 -135 17t-89.5 49t-49.5 78t-15 104q0 35 5.5 74.5t14.5 82.5h237q-5 -21 -7.5 -40.5t-2.5 -37.5q0 -43 19 -70t69 -27q34 0 59.5 12t42.5 31t25 43t8 49q0 40 -25.5 71.5t-63.5 60.5t-82.5 59
t-82.5 67.5t-63.5 86t-25.5 113.5q0 103 29.5 182t85.5 132t136.5 80t183.5 27q62 0 112.5 -11t86.5 -37.5t55.5 -72t19.5 -114.5q0 -63 -18 -150l-237 1q4 17 6.5 34.5t2.5 34.5q0 36 -16.5 61.5t-60.5 25.5q-32 0 -57.5 -11.5t-42.5 -30t-26 -41.5t-9 -47q0 -36 26 -65.5
t65 -58.5t84.5 -59.5t84.5 -69.5t65 -89t26 -116zM188 -251q14 -11 27.5 -19.5t30.5 -15t38.5 -10t52.5 -3.5q43 0 73 18t30 53q0 12 -7.5 21t-20.5 14.5t-29 8t-33 2.5q-32 0 -58 -8l49 226h120l-24 -110q8 1 18 3q8 2 19 3t24 1q29 0 52 -10t38.5 -27.5t23.5 -40.5t8 -49
q0 -53 -23 -94t-63.5 -69t-95.5 -42t-119 -14q-69 0 -116 23t-70 52z" />
    <glyph glyph-name="scircumflex" unicode="&#x15d;" horiz-adv-x="808" 
d="M837 408q0 -100 -29.5 -179t-86 -134.5t-138.5 -85t-186 -29.5q-80 0 -135 17t-89.5 49t-49.5 78t-15 104q0 35 5.5 74.5t14.5 82.5h237q-5 -21 -7.5 -40.5t-2.5 -37.5q0 -43 19 -70t69 -27q34 0 59.5 12t42.5 31t25 43t8 49q0 40 -25.5 71.5t-63.5 60.5t-82.5 59
t-82.5 67.5t-63.5 86t-25.5 113.5q0 103 29.5 182t85.5 132t136.5 80t183.5 27q62 0 112.5 -11t86.5 -37.5t55.5 -72t19.5 -114.5q0 -63 -18 -150l-237 1q4 17 6.5 34.5t2.5 34.5q0 36 -16.5 61.5t-60.5 25.5q-32 0 -57.5 -11.5t-42.5 -30t-26 -41.5t-9 -47q0 -36 26 -65.5
t65 -58.5t84.5 -59.5t84.5 -69.5t65 -89t26 -116zM427 1281l190 241h224l86 -241h-193l-32 119l-82 -119h-193z" />
    <glyph glyph-name="scommaaccent" unicode="&#x219;" horiz-adv-x="808" 
d="M837 408q0 -100 -29.5 -179t-86 -134.5t-138.5 -85t-186 -29.5q-80 0 -135 17t-89.5 49t-49.5 78t-15 104q0 35 5.5 74.5t14.5 82.5h237q-5 -21 -7.5 -40.5t-2.5 -37.5q0 -43 19 -70t69 -27q34 0 59.5 12t42.5 31t25 43t8 49q0 40 -25.5 71.5t-63.5 60.5t-82.5 59
t-82.5 67.5t-63.5 86t-25.5 113.5q0 103 29.5 182t85.5 132t136.5 80t183.5 27q62 0 112.5 -11t86.5 -37.5t55.5 -72t19.5 -114.5q0 -63 -18 -150l-237 1q4 17 6.5 34.5t2.5 34.5q0 36 -16.5 61.5t-60.5 25.5q-32 0 -57.5 -11.5t-42.5 -30t-26 -41.5t-9 -47q0 -36 26 -65.5
t65 -58.5t84.5 -59.5t84.5 -69.5t65 -89t26 -116zM246 -188q0 65 32 98.5t109 33.5q51 0 74 -24.5t23 -67.5q0 -49 -14 -93t-36.5 -82t-51 -70t-58.5 -58l-78 50q20 21 34 37.5t24 32.5t17.5 32t14.5 36q-90 0 -90 75z" />
    <glyph glyph-name="s.fat" horiz-adv-x="852" 
d="M861 408q0 -100 -29.5 -179t-86 -134.5t-138 -85t-185.5 -29.5q-80 0 -135.5 17t-89.5 49t-49 78t-15 104q0 35 5 74.5t14 82.5h237q-5 -21 -7.5 -40.5t-2.5 -37.5q0 -43 19 -70t69 -27q35 0 60.5 12t42 31t24.5 43t8 49q0 40 -25.5 71.5t-63.5 60.5t-82.5 59t-82.5 67.5
t-63.5 86t-25.5 113.5q0 103 29.5 182t85.5 132t136.5 80t183.5 27q62 0 112.5 -11t86.5 -37.5t55.5 -72t19.5 -114.5q0 -63 -18 -150l-237 1q4 17 6.5 34.5t2.5 34.5q0 36 -16.5 61.5t-60.5 25.5q-32 0 -57.5 -11.5t-42.5 -30t-26 -41.5t-9 -47q0 -36 26 -65.5t65 -58.5
t84.5 -59.5t84.5 -69.5t65 -89t26 -116z" />
    <glyph glyph-name="greaterequal" unicode="&#x2265;" horiz-adv-x="805" 
d="M172 354l58 255l387 237l-277 239l59 254l487 -402l-41 -180zM94 94l48 208h608l-48 -208h-608z" />
    <glyph glyph-name="lessequal" unicode="&#x2264;" horiz-adv-x="815" 
d="M264 757l40 184l671 404l-56 -259l-383 -237l281 -237l-55 -259zM110 89l45 212h613l-45 -212h-613z" />
    <glyph glyph-name="Yacute" unicode="&#xdd;" horiz-adv-x="853" 
d="M672 554l-120 -554h-241l120 554l-99 967h264l29 -635l314 635h238zM1112 1876l-240 -275h-174l189 275h225z" />
    </font>
</defs>
</svg>
