<?xml version="1.0" standalone="no"?>
<!DOCTYPE svg PUBLIC "-//W3C//DTD SVG 1.1//EN" "http://www.w3.org/Graphics/SVG/1.1/DTD/svg11.dtd" >
<svg xmlns="http://www.w3.org/2000/svg" xmlns:xlink="http://www.w3.org/1999/xlink" version="1.1">
<metadata>
Created by FontForge 20170910 at Tue Oct 10 16:14:04 2017
 By Jimmy Wärting
Copyright (c) 2017 by Studio Kmzero &#38; Zetafonts. All rights reserved.
</metadata>
<defs>
<font id="HeadingProTrial-BookItalic" horiz-adv-x="2531" >
  <font-face 
    font-family="Heading Pro Trial"
    font-weight="400"
    font-style="italic"
    font-stretch="normal"
    units-per-em="2048"
    panose-1="2 0 5 6 0 0 0 2 0 4"
    ascent="1638"
    descent="-410"
    x-height="1202"
    cap-height="1521"
    bbox="-237 -864 2479 1934"
    underline-thickness="102"
    underline-position="-205"
    slope="-12"
    unicode-range="U+000D-FB06"
  />
<missing-glyph horiz-adv-x="1102" 
 />
    <glyph glyph-name="f_t" unicode="ft" horiz-adv-x="1171" 
d="M281 1203h125l2 8q21 94 45 168.5t62.5 126t96 78.5t145.5 27q62 0 103.5 -17.5t63.5 -35.5l-42 -127q-17 10 -53 23.5t-87 13.5q-44 0 -72 -13.5t-47.5 -43.5t-33 -79t-29.5 -121l-2 -8h413l86 390h152l-86 -390h250l-29 -140h-251l-149 -681q-13 -57 -20.5 -99.5
t-7.5 -72.5q0 -46 21.5 -65t75.5 -19q51 0 93 13t64 23l-14 -127q-29 -18 -78.5 -35.5t-110.5 -17.5q-59 0 -98.5 12t-63.5 35.5t-34 58t-10 78.5q0 45 8.5 99t22.5 117l149 681h-414l-232 -1063h-153l233 1063h-125z" />
    <glyph glyph-name="ff" unicode="ff" horiz-adv-x="1140" 
d="M1401 1453q-21 7 -46 12.5t-54 5.5q-45 0 -73.5 -13.5t-48 -44t-34 -80t-30.5 -122.5l-2 -8h173l-30 -139h-174l-7 -33l-228 -1031h-1l-2 -9q-21 -94 -45 -168.5t-64 -126t-103 -78.5t-162 -27q-49 0 -93.5 14t-80.5 33.5t-62.5 39.5t-40.5 32q-39 -58 -98.5 -88.5
t-152.5 -30.5q-60 0 -101 17.5t-62 34.5l42 125q17 -11 53 -24t86 -13q45 0 73 13.5t47.5 44t33.5 80t31 122.5l2 9l267 1202v1h149l-31 -139h-149l31 138h149l-31 -138l-7 -33l-229 -1031h-149l236 1064h-131l29 139h133l2 8q21 94 46 168.5t63.5 126t96.5 78.5t146 27
q41 0 78 -11t60 -23l-55 -124q-21 7 -46 12.5t-54 5.5q-45 0 -73.5 -13.5t-48 -44t-34 -80t-30.5 -122.5l-2 -8h401l2 8q21 94 46 168.5t64 126t97 78.5t146 27q40 0 77 -11t61 -23zM525 1031l-228 -1031h-1l-2 -9q-11 -47 -22 -88.5t-24 -78.5q13 -12 33 -28t46.5 -30.5
t59.5 -24.5t73 -10q60 0 98.5 13.5t63 44t40.5 80t33 122.5l231 1040l7 33h-401z" />
    <glyph glyph-name="ffi" unicode="ffi" horiz-adv-x="1558" 
d="M1398 1453q-21 7 -46 12.5t-54 5.5q-45 0 -73.5 -13.5t-48 -44t-34 -80t-30.5 -122.5l-2 -8h566l-263 -1203h-152l233 1064h-415l-7 -33l-228 -1031h-1l-2 -9q-21 -94 -45 -168.5t-64 -126t-103 -78.5t-163 -27q-49 0 -93 14t-80 33.5t-62.5 39.5t-40.5 32
q-39 -58 -98.5 -88.5t-152.5 -30.5q-61 0 -101.5 17.5t-61.5 34.5l41 125q18 -11 54 -24t86 -13q44 0 72.5 13.5t48 44t33.5 80t31 122.5l49 221l188 852h-131l30 139h132l2 8q22 94 47 168.5t63.5 126t96.5 78.5t146 27q41 0 78 -11t60 -23l-55 -124q-21 7 -46.5 12.5
t-54.5 5.5q-45 0 -73 -13.5t-47.5 -44t-34 -80t-31.5 -122.5l-2 -8h401l2 8q22 94 47 168.5t63.5 126t96.5 78.5t146 27q41 0 78 -11t60 -23zM456 -269q61 0 99 13.5t63 44t41 80t33 122.5l49 221l188 852h-401l-235 -1064l-2 -9q-11 -47 -22 -89t-24 -79q13 -12 33 -27.5
t46.5 -30t59.5 -24.5t72 -10zM1567 1472q0 46 26.5 74t86.5 28q43 0 62.5 -16t19.5 -45q0 -22 -6 -41t-19.5 -32.5t-36 -21t-55.5 -7.5q-78 0 -78 61z" />
    <glyph glyph-name="ffl" unicode="ffl" horiz-adv-x="1516" 
d="M851 1453q-21 7 -46 12.5t-54 5.5q-45 0 -73.5 -13.5t-48 -44t-34 -80t-30.5 -122.5l-2 -8h396l2 8q21 94 58.5 169t93.5 127.5t132.5 81t176.5 29.5q73 1 126.5 -5.5t89.5 -15t55.5 -17t25.5 -12.5l-1 -1l-342 -1567h-152l323 1478q-14 5 -36.5 8t-57.5 3h-20.5
t-22.5 -1q-63 -2 -112 -18t-85 -49.5t-61.5 -85t-41.5 -124.5l-2 -8h173l-30 -139h-174l-7 -33l-228 -1031h-1l-2 -9q-21 -94 -46 -168.5t-64 -126t-97 -78.5t-145 -27q-60 0 -101 17.5t-62 34.5l42 125q17 -11 53 -24t86 -13q45 0 73 13.5t47.5 44t33.5 80t31 122.5
l231 1040l7 33h-396l-7 -33l-228 -1031h-1l-2 -9q-21 -94 -46 -168.5t-64 -126t-97 -78.5t-145 -27q-60 0 -101 17.5t-62 34.5l42 125q17 -11 53 -24t86 -13q45 0 73 13.5t47.5 44t33.5 80t31 122.5l238 1073h-131l29 139h133l2 8q21 94 46 168.5t63.5 126t96.5 78.5t146 27
q41 0 78 -11t60 -23z" />
    <glyph glyph-name="f_j" unicode="fj" horiz-adv-x="981" 
d="M849 1453q-21 7 -46 12.5t-54 5.5q-45 0 -73.5 -13.5t-48 -44t-34 -80t-30.5 -122.5l-2 -8h551l-265 -1212q-21 -94 -45 -168.5t-62.5 -126t-96 -78.5t-145.5 -27q-63 0 -104.5 17.5t-62.5 34.5l41 128q17 -10 53 -23.5t87 -13.5q44 0 72 13.5t47.5 43.5t33.5 79t30 121
l234 1073h-399l-235 -1064h-2l-2 -9q-21 -94 -46 -168.5t-64 -126t-96.5 -78.5t-144.5 -27q-61 0 -102 17.5t-62 34.5l42 125q17 -11 53 -24t86 -13q45 0 73 13.5t47.5 44t33.5 80t31 122.5l238 1073h-130l29 139h133l2 8q21 94 46 168.5t63.5 126t96.5 78.5t146 27
q41 0 78 -11t60 -23zM1001 1472q0 46 26.5 74t85.5 28q44 0 63 -16t19 -45q0 -22 -6 -41t-19.5 -32.5t-36 -21t-55.5 -7.5q-77 0 -77 61z" />
    <glyph glyph-name="fl" unicode="fl" horiz-adv-x="954" 
d="M679 0l323 1478q-14 5 -36.5 8t-57.5 3h-20.5t-22.5 -1q-63 -2 -112 -18t-85 -49.5t-61.5 -85t-41.5 -124.5l-2 -8h173l-30 -139h-174l-7 -33l-228 -1031h-1l-2 -9q-21 -94 -46 -168.5t-64 -126t-97 -78.5t-145 -27q-60 0 -101 17.5t-62 34.5l42 125q17 -11 53 -24
t86 -13q45 0 73 13.5t47.5 44t33.5 80t31 122.5l238 1073h-131l29 139h133l2 8q21 94 58.5 169t93.5 127.5t132.5 81t176.5 29.5q73 1 126.5 -5.5t89.5 -15t55.5 -17t25.5 -12.5l-1 -1l-342 -1567h-152z" />
    <glyph glyph-name="fi" unicode="fi" horiz-adv-x="924" 
d="M281 1203h133l2 8q21 94 46 168.5t63.5 126t96.5 78.5t146 27q41 0 78 -11t60 -23l-55 -124q-21 7 -46 12.5t-54 5.5q-45 0 -73.5 -13.5t-48 -44t-34 -80t-30.5 -122.5l-2 -8h497l-263 -1203h-152l232 1064h-345l-7 -33l-228 -1031h-1l-2 -9q-21 -94 -46 -168.5t-64 -126
t-97 -78.5t-145 -27q-60 0 -101 17.5t-62 34.5l42 125q17 -11 53 -24t86 -13q45 0 73 13.5t47.5 44t33.5 80t31 122.5l238 1073h-131zM951 1472q0 46 27 74t86 28q43 0 62.5 -16t19.5 -45q0 -22 -6 -41t-19.5 -32.5t-36 -21t-55.5 -7.5q-78 0 -78 61z" />
    <glyph glyph-name=".notdef" horiz-adv-x="1102" 
 />
    <glyph glyph-name="space" unicode=" " horiz-adv-x="385" 
 />
    <glyph glyph-name="exclam" unicode="!" horiz-adv-x="437" 
d="M236 381l227 1140h175l-270 -1140h-132zM133 50q0 51 26.5 84.5t91.5 33.5q45 0 64 -17t19 -49q0 -59 -29 -89t-94 -30q-41 0 -59.5 17.5t-18.5 49.5z" />
    <glyph glyph-name="quotedbl" unicode="&#x22;" horiz-adv-x="623" 
d="M357 1126l76 395h145l-97 -395h-124zM625 1126l77 395h143l-96 -395h-124z" />
    <glyph glyph-name="numbersign" unicode="#" horiz-adv-x="935" 
d="M893 472h-141l-158 -472h-130l158 472h-178l-158 -472h-130l158 472h-127l27 108h136l135 405h-129l28 108h137l144 429h132l-144 -429h176l144 429h132l-144 -429h129l-28 -108h-138l-136 -405h132zM480 580h178l135 405h-177z" />
    <glyph glyph-name="percent" unicode="%" horiz-adv-x="1435" 
d="M355 1208q15 71 35 130.5t54 103t87 67.5t134 24q55 0 91.5 -11.5t58.5 -32.5t31 -51t9 -67q0 -35 -6.5 -76t-16.5 -87l-57 -263q-16 -72 -36 -132.5t-54.5 -103.5t-87 -67t-132.5 -24q-53 0 -90 11t-60 32.5t-33 52t-10 69.5q0 24 3.5 50.5t9.5 55.5zM492 743
q58 0 88 37t45 108l71 321q8 36 14 67.5t6 56.5q0 35 -16.5 55t-61.5 20q-39 0 -63 -14.5t-39.5 -41t-25 -63t-18.5 -79.5l-59 -267q-8 -36 -13.5 -67t-5.5 -56q0 -36 16.5 -56.5t61.5 -20.5zM558 0h-149l798 1521h148zM990 569q16 71 36 131t54 103t87 67t134 24
q55 0 91 -11t58 -32t31 -51t9 -67q0 -35 -6 -76.5t-17 -88.5l-57 -262q-15 -72 -35.5 -132t-54.5 -103t-86.5 -67t-131.5 -24q-54 0 -91 11t-60 32t-33.5 51t-10.5 69q0 46 14 108zM1128 105q57 0 87.5 36.5t46.5 108.5l70 320q8 36 13.5 67t5.5 56q0 35 -16 55.5t-61 20.5
q-39 0 -63.5 -14.5t-39.5 -41t-24.5 -62.5t-18.5 -79l-59 -268q-8 -36 -13.5 -66.5t-5.5 -55.5q0 -36 16.5 -56.5t61.5 -20.5z" />
    <glyph glyph-name="ampersand" unicode="&#x26;" horiz-adv-x="910" 
d="M234 512q12 56 35.5 104t55.5 85t71 61.5t83 34.5q-60 16 -85.5 60t-25.5 110q0 53 15 121l20 94q39 175 142 257t255 82h199l-31 -142h-195q-47 0 -83.5 -16.5t-62.5 -45t-43.5 -65.5t-26.5 -79l-23 -97q-11 -50 -11 -86q0 -63 34 -96t111 -33h159l26 118h154l-26 -117
h63l-30 -139h-63l-59 -270l-21 2q0 -5 1 -7l7 -58q-18 -81 -47 -155t-78 -130t-122 -89t-179 -33q-76 0 -127.5 17.5t-82.5 49.5t-44 76t-13 97q0 39 6 81.5t16 87.5l16 74l2 9zM377 465l-13 -64q-9 -40 -14.5 -75t-5.5 -65q0 -31 7 -55t23.5 -41t43 -26t66.5 -9
q64 0 106 23t68.5 61t41.5 86.5t26 99.5l16 71l5 23l50 227h-172q-45 0 -84 -16.5t-69.5 -44.5t-52 -66.5t-31.5 -81.5l-10 -47h-1z" />
    <glyph glyph-name="quoteright" unicode="&#x2019;" horiz-adv-x="274" 
d="M276 1123q14 31 26.5 60t22 54.5t15 46.5t5.5 36q0 28 -22 28h-25l36 167l178 1l-34 -160q-3 -15 -11.5 -41t-21.5 -59.5t-31 -72.5t-42 -80z" />
    <glyph glyph-name="parenleft" unicode="(" horiz-adv-x="545" 
d="M405 -93q-69 0 -114.5 17.5t-71.5 47t-36.5 69t-10.5 83.5q0 40 6.5 81t14.5 80l208 949q6 27 16 65.5t27 80.5t43.5 83.5t66.5 74.5t94.5 53.5t128.5 20.5h23l-29 -137h-23q-36 0 -63.5 -14t-48 -36.5t-35 -50t-24 -54t-15 -49.5t-8.5 -36l-209 -955q-14 -61 -14 -110
q0 -27 5.5 -50t17.5 -39.5t32 -26t49 -9.5h23l-30 -138h-23z" />
    <glyph glyph-name="parenright" unicode=")" horiz-adv-x="536" 
d="M74 -93l29 138h23q43 0 75.5 19.5t55.5 52t38 75t25 88.5l210 956q4 16 9.5 46.5t5.5 64.5q0 24 -4.5 47t-16.5 41t-32.5 29t-51.5 11h-23l29 137h23q71 0 116.5 -19t71 -50.5t35 -71t9.5 -80.5q0 -45 -7 -86.5t-14 -70.5l-207 -949q-9 -42 -22 -86.5t-32.5 -86.5
t-47 -79t-66.5 -65t-90.5 -44.5t-118.5 -16.5h-22z" />
    <glyph glyph-name="asterisk" unicode="*" horiz-adv-x="857" 
d="M746 1224l301 103l13 -121l-304 -81l134 -233l-119 -75l-112 246l-219 -245l-86 73l233 234l-265 80l63 120l257 -102l53 298h128z" />
    <glyph glyph-name="plus" unicode="+" horiz-adv-x="832" 
d="M487 635h-247l30 136h246l55 246h135l-53 -246h246l-30 -136h-246l-54 -246h-135z" />
    <glyph glyph-name="comma" unicode="," horiz-adv-x="402" 
d="M119 50q0 54 28 86t91 32q44 0 62.5 -23t18.5 -58q0 -43 -13 -84.5t-34 -78.5t-46.5 -69t-49.5 -57l-65 39q18 21 31 39.5t23 35.5t17.5 34t14.5 37q-78 0 -78 67z" />
    <glyph glyph-name="hyphen" unicode="-" horiz-adv-x="515" 
d="M136 522l29 137h472l-29 -137h-472z" />
    <glyph glyph-name="period" unicode="." horiz-adv-x="411" 
d="M119 50q0 53 27 85.5t92 32.5q44 0 63.5 -17t19.5 -50q0 -58 -29.5 -88t-93.5 -30q-42 0 -60.5 17.5t-18.5 49.5z" />
    <glyph glyph-name="slash" unicode="/" horiz-adv-x="704" 
d="M177 -80h-150l831 1679h151z" />
    <glyph glyph-name="colon" unicode=":" horiz-adv-x="336" 
d="M83 50q0 53 27 85.5t92 32.5q44 0 63.5 -17t19.5 -50q0 -58 -29.5 -88t-93.5 -30q-42 0 -60.5 17.5t-18.5 49.5zM312 1096q0 53 27 85.5t92 32.5q44 0 63.5 -17t19.5 -50q0 -58 -29.5 -88t-93.5 -30q-42 0 -60.5 17.5t-18.5 49.5z" />
    <glyph glyph-name="less" unicode="&#x3c;" horiz-adv-x="653" 
d="M192 641l27 123l581 365l-37 -171l-398 -256l286 -255l-37 -171z" />
    <glyph glyph-name="equal" unicode="=" horiz-adv-x="832" 
d="M283 830l30 136h629l-30 -136h-629zM199 445l30 136h629l-30 -136h-629z" />
    <glyph glyph-name="greater" unicode="&#x3e;" horiz-adv-x="654" 
d="M166 278l38 168l403 256l-284 257l39 168l414 -364l-28 -121z" />
    <glyph glyph-name="question" unicode="?" horiz-adv-x="831" 
d="M995 1271q0 -100 -27.5 -179.5t-70 -145.5t-94 -123t-99.5 -112.5t-86 -113t-53 -124.5l-22 -92h-132l20 94q18 85 55 152t82 125t92.5 111t87 109.5t64.5 121t25 145.5q0 72 -30.5 110t-98.5 38q-79 0 -125.5 -43t-66.5 -110l-38 -128h-147l16 78q16 75 46.5 139t78 111
t113.5 73.5t153 26.5q122 0 189.5 -62.5t67.5 -200.5zM308 50q0 51 27 84.5t92 33.5q44 0 63.5 -17t19.5 -50q0 -58 -29.5 -88t-93.5 -30q-79 0 -79 67z" />
    <glyph glyph-name="at.001" horiz-adv-x="1167" 
d="M915 128l21 96q-32 -51 -78 -82t-114 -31q-57 0 -95 14.5t-60.5 40t-31.5 60.5t-9 75q0 45 8 92.5t19 96.5l61 279q10 47 22.5 93.5t30 88.5t41.5 78t57.5 62.5t78 42t103.5 15.5h1q69 0 101.5 -32t41.5 -84v2v1q17 77 17 139q0 52 -12.5 94.5t-38.5 72.5t-67.5 46.5
t-98.5 16.5q-89 0 -161.5 -27.5t-129.5 -89t-100.5 -160.5t-74.5 -241l-104 -476q-22 -101 -22 -182q0 -94 27 -157.5t73 -102.5t106.5 -55.5t126.5 -16.5h3h342l-29 -133h-345q-106 0 -189.5 25t-141.5 76.5t-88.5 131t-30.5 188.5q0 99 27 224l105 479q39 181 99.5 305.5
t140.5 201t178.5 110.5t215.5 34h1q93 0 156.5 -26.5t102 -71.5t55.5 -105.5t17 -128.5q0 -43 -5.5 -87t-16.5 -89h-1l-197 -903h-138zM799 244q50 0 83.5 24t56 63t36.5 88.5t25 99.5l48 221q9 41 17 82t8 77q0 25 -5 46t-17 36.5t-32.5 24.5t-50.5 9h-3
q-49 -1 -80.5 -20.5t-52 -53.5t-33.5 -78.5t-24 -95.5l-60 -277q-8 -39 -15 -75.5t-7 -67.5q0 -23 5 -42t17 -32.5t32.5 -21t51.5 -7.5z" />
    <glyph glyph-name="A" unicode="A" horiz-adv-x="827" 
d="M626 1521h223l-46 -1521h-156l15 336h-367l-131 -336h-157zM351 477h317l41 900h-6z" />
    <glyph glyph-name="B" unicode="B" horiz-adv-x="898" 
d="M762 511q6 30 6 57q0 67 -37.5 110t-112.5 43h-172l-126 -573h174q42 0 78.5 7.5t67.5 32.5t55 72t41 127zM884 1173q8 40 8 72q0 29 -7 53.5t-23 42.5t-41.5 28t-62.5 10h-168l-113 -518h151q104 0 159 55t77 160zM890 389q-24 -106 -59.5 -180t-87.5 -120t-121 -67
t-160 -21h-327l332 1520h326q125 0 193 -55t68 -171q0 -26 -3.5 -53.5t-10.5 -59.5l-20 -94q-26 -116 -78 -192t-145 -99q62 -16 96 -68t34 -130q0 -43 -10 -87z" />
    <glyph glyph-name="C" unicode="C" horiz-adv-x="853" 
d="M877 454l-10 -49q-15 -74 -43 -149.5t-78 -136t-126.5 -98.5t-188.5 -38q-80 0 -132 19.5t-82.5 54t-43 80.5t-12.5 99q0 46 7 95t18 99l144 660q18 84 47 164.5t79 143.5t126 101.5t189 38.5q80 0 133 -20.5t84.5 -55t44 -80t12.5 -96.5q0 -42 -7 -85.5t-17 -85.5
l-10 -48h-155l11 48q9 35 15 69t6 64q0 31 -7.5 57.5t-24.5 45.5t-46 29.5t-71 10.5q-63 0 -105.5 -23.5t-71 -64.5t-46 -96t-31.5 -118l-144 -658q-10 -43 -16.5 -84t-6.5 -76q0 -31 6.5 -57t23 -44.5t44.5 -29t70 -10.5q60 0 102.5 21.5t71 59t46.5 87.5t30 108l10 48h155
z" />
    <glyph glyph-name="D" unicode="D" horiz-adv-x="895" 
d="M796 1519q78 0 130 -19t82.5 -52.5t43.5 -79t13 -99.5q0 -45 -7 -92.5t-18 -97.5l-139 -639q-19 -85 -48.5 -164.5t-79.5 -140.5t-125 -98t-185 -37h-330l333 1519h330zM318 147h176q52 0 91.5 17t70.5 53t53.5 91.5t39.5 132.5l138 637q20 89 20 147q0 73 -31.5 108
t-101.5 38h-187z" />
    <glyph glyph-name="E" unicode="E" horiz-adv-x="770" 
d="M128 0l333 1519l589 2l-32 -148l-436 -2l-113 -518h366l-33 -147h-365l-123 -559h434l-31 -147h-589z" />
    <glyph glyph-name="F" unicode="F" horiz-adv-x="756" 
d="M587 1371l-123 -560h358l-32 -147h-357l-146 -664h-154l333 1519h581l-32 -148h-428z" />
    <glyph glyph-name="G" unicode="G" horiz-adv-x="863" 
d="M594 777h353l-81 -372q-16 -74 -44.5 -149t-78 -136t-125.5 -99t-188 -38q-79 0 -131 20t-83 53.5t-43.5 79t-12.5 98.5q0 47 7.5 96.5t18.5 99.5l143 660q12 56 28.5 110.5t40.5 104.5t57 92.5t78 73.5t103.5 49t133.5 18q81 0 134 -20.5t84.5 -55t44 -80t12.5 -96.5
q0 -42 -7 -85.5t-17 -85.5l-11 -48h-154l10 48q9 35 15 69t6 64q0 31 -7.5 57.5t-24.5 45.5t-46 29.5t-71 10.5q-63 0 -105 -24t-70.5 -65t-46 -96t-31.5 -118l-145 -657q-10 -43 -16.5 -84t-6.5 -76q0 -31 7 -57t23.5 -44.5t44.5 -29t70 -10.5q60 0 101.5 21.5t70 59
t46.5 88t31 107.5l49 226h-197z" />
    <glyph glyph-name="H" unicode="H" horiz-adv-x="951" 
d="M134 0l333 1521h154l-149 -681h375l149 681h154l-332 -1521h-154l151 692h-375l-151 -692h-155z" />
    <glyph glyph-name="I" unicode="I" horiz-adv-x="424" 
d="M135 0l333 1521h155l-333 -1521h-155z" />
    <glyph glyph-name="K" unicode="K" horiz-adv-x="880" 
d="M133 0l333 1521h155l-149 -681h121l427 679h167l-462 -747l156 -772h-166l-150 692h-126l-151 -692h-155z" />
    <glyph glyph-name="L" unicode="L" horiz-adv-x="721" 
d="M133 0l333 1521h154l-301 -1374h421l-31 -147h-576z" />
    <glyph glyph-name="M" unicode="M" horiz-adv-x="1212" 
d="M565 1332l-275 -1332h-155l333 1521h221l19 -1067l486 1067h221l-333 -1521h-155l305 1326l-498 -1103h-152z" />
    <glyph glyph-name="O" unicode="O" horiz-adv-x="870" 
d="M771 1537l1 1q79 0 131 -19.5t83 -53t43.5 -79.5t12.5 -99q0 -47 -7.5 -96.5t-18.5 -99.5l-144 -660q-18 -84 -47 -164.5t-79 -143.5t-126 -101.5t-188 -38.5l-1 1v-1q-80 0 -132 19.5t-82.5 54t-43 80.5t-12.5 99q0 46 7 95t18 99l144 660q18 84 47 164.5t79 143.5
t126 101.5t189 38.5v-1zM739 1391q-63 0 -105.5 -23.5t-71 -64.5t-46 -96t-31.5 -118l-144 -658q-10 -43 -17 -83.5t-7 -75.5q0 -31 7 -57t24 -45t45 -29.5t70 -10.5q63 0 105.5 23.5t71 64.5t46.5 96.5t32 118.5l143 657q10 44 17 84.5t7 75.5q0 31 -7 57t-23.5 44.5
t-44.5 29t-70 10.5h-1z" />
    <glyph glyph-name="P" unicode="P" horiz-adv-x="870" 
d="M1000 942q-24 -108 -62.5 -178t-92.5 -111.5t-123 -58t-153 -16.5h-153l-126 -578h-154l333 1521h317q64 0 115.5 -12t87.5 -39.5t55.5 -72t19.5 -108.5q0 -28 -4 -59.5t-12 -67.5zM892 1162q11 49 11 83q0 63 -34.5 94.5t-112.5 31.5h-166l-142 -646h151q54 0 94 11.5
t69.5 37t49 67.5t33.5 102z" />
    <glyph glyph-name="Q" unicode="Q" horiz-adv-x="870" 
d="M369 -13q-61 7 -101 29.5t-64 55.5t-33.5 75t-9.5 89q0 46 7 95t18 99l144 660q18 84 47 164.5t79 143.5t126 101.5t189 38.5v-1l1 1q79 0 131 -19.5t83 -53t43.5 -79.5t12.5 -99q0 -47 -7.5 -96.5t-18.5 -99.5l-144 -660q-17 -77 -42 -150.5t-67 -134t-104 -102.5
t-152 -55l-26 -123h-139zM739 1391q-63 0 -105.5 -23.5t-71 -64.5t-46 -96t-31.5 -118l-144 -658q-10 -43 -17 -83.5t-7 -75.5q0 -31 7 -57t24 -45t45 -29.5t70 -10.5q2 0 3 -0.5t3 -0.5q61 1 102.5 25t69.5 65.5t45.5 96t31.5 117.5l143 657q10 44 17 84.5t7 75.5
q0 31 -7 57t-23.5 44.5t-44.5 29t-70 10.5h-1z" />
    <glyph glyph-name="R" unicode="R" horiz-adv-x="903" 
d="M135 0l332 1519h328q142 0 210 -52.5t68 -175.5q0 -65 -20 -160l-33 -150q-23 -105 -89 -185t-157 -125q45 -35 65.5 -80.5t20.5 -115.5q0 -19 -1 -40t-4 -44l-25 -218q-3 -26 -3 -50q0 -35 5 -66t11 -57h-161q-5 19 -8 47t-3 62q0 29 3 59l25 218q3 25 3 49q0 51 -12 87
t-32 58.5t-45 33t-50 10.5h-138l-136 -624h-154zM899 1133q15 67 15 112q0 41 -11.5 66t-31.5 38.5t-47.5 17.5t-60.5 4h-174l-132 -599h172q45 0 83.5 16t69.5 44.5t52 66.5t31 82z" />
    <glyph glyph-name="S" unicode="S" horiz-adv-x="819" 
d="M834 372q-19 -92 -53.5 -164t-87 -122t-123.5 -76.5t-162 -26.5q-80 0 -133.5 15.5t-85.5 44.5t-45.5 70.5t-13.5 92.5q0 38 6 82t17 92l15 74h153l-15 -68q-9 -38 -14 -70.5t-5 -59.5q0 -64 34 -95t117 -31q54 0 94.5 18t70 50t48.5 76t29 97l2 11q5 27 7.5 50.5
t2.5 44.5q0 63 -24 107t-76 79l-126 87q-80 56 -117 116t-37 143q0 32 5 67t15 77l5 21q42 177 146 270.5t270 93.5q140 0 203.5 -64t63.5 -178q0 -59 -15 -128l-21 -101h-154l25 125q3 16 5 31.5t2 29.5q0 60 -33 99t-108 39q-52 0 -91.5 -18.5t-68 -50t-46.5 -74.5
t-27 -91l-6 -34q-2 -14 -3.5 -26.5t-1.5 -24.5q0 -60 27.5 -107t77.5 -80l122 -81q80 -54 115 -122t35 -156q0 -59 -13 -123z" />
    <glyph glyph-name="T" unicode="T" horiz-adv-x="720" 
d="M736 1371l-300 -1371h-154l300 1371h-270l31 148h695l-31 -148h-271z" />
    <glyph glyph-name="U" unicode="U" horiz-adv-x="908" 
d="M1129 1519l-250 -1144q-19 -86 -46.5 -157.5t-75.5 -124t-121.5 -81.5t-183.5 -29q-80 0 -134 15.5t-86 44.5t-45.5 70t-13.5 92q0 38 6 80.5t17 89.5l250 1144h154l-249 -1137q-8 -38 -14 -71.5t-6 -62.5q0 -28 7 -50t24.5 -37.5t47 -23.5t74.5 -8q66 0 107.5 18
t67.5 51.5t40.5 80t27.5 103.5l249 1137h153z" />
    <glyph glyph-name="V" unicode="V" horiz-adv-x="815" 
d="M1144 1521l-625 -1521h-224l40 1521h156l-56 -1377h7l545 1377h157z" />
    <glyph glyph-name="W" unicode="W" horiz-adv-x="1311" 
d="M946 1342l-478 -1342h-217l113 1521h156l-120 -1353l477 1353h216l-114 -1350l471 1350h157l-553 -1521h-217z" />
    <glyph glyph-name="X" unicode="X" horiz-adv-x="821" 
d="M644 0l-100 631l-368 -631h-173l476 791l-119 730h169l90 -575l340 575h168l-444 -732l134 -789h-173z" />
    <glyph glyph-name="Y" unicode="Y" horiz-adv-x="767" 
d="M591 592l-130 -592h-153l130 592l-104 927h168l62 -708l378 708h156z" />
    <glyph glyph-name="Z" unicode="Z" horiz-adv-x="738" 
d="M49 0l30 138l742 1233h-446l31 148h621l-29 -131l-749 -1241h474l-31 -147h-643z" />
    <glyph glyph-name="bracketleft" unicode="[" horiz-adv-x="542" 
d="M111 -93l372 1705h317l-29 -137h-165l-314 -1430h166l-30 -138h-317z" />
    <glyph glyph-name="bracketright" unicode="]" horiz-adv-x="541" 
d="M74 -93l29 138h166l313 1430h-165l29 137h317l-373 -1705h-316z" />
    <glyph glyph-name="asciicircum" unicode="^" horiz-adv-x="965" 
d="M1051 856h-161l-77 605h-21l-343 -605h-160l428 743h230z" />
    <glyph glyph-name="underscore" unicode="_" horiz-adv-x="822" 
d="M0 -160l28 128h757l-27 -128h-758z" />
    <glyph glyph-name="quoteleft" unicode="&#x2018;" horiz-adv-x="274" 
d="M491.97 1506.91q-13.999 -30.998 -26.498 -59.9961q-12.499 -28.999 -21.999 -54.4971q-9.49902 -25.498 -14.999 -46.4971q-5.49902 -20.999 -5.49902 -35.998q0 -27.998 21.998 -27.998h24.999l-35.998 -166.99l-177.989 -1l33.998 159.99q3 14.999 11.499 40.998
q8.5 25.998 21.499 59.4961t30.998 72.4961q17.999 38.9971 41.9971 79.9951z" />
    <glyph glyph-name="b" unicode="b" horiz-adv-x="882" 
d="M132 0l343 1568h152l-109 -499q38 67 95 109t143 42q69 0 114 -17.5t71.5 -48t37.5 -72t11 -89.5q0 -53 -9.5 -110.5t-22.5 -115.5l-73 -331q-12 -56 -27 -111.5t-36 -105.5t-50 -93.5t-69 -75t-93 -49.5t-123 -18q-43 0 -74 10.5t-51.5 30t-32 46.5t-16.5 60l-28 -130
h-153zM697 1076q-58 0 -98 -25t-67.5 -66.5t-45.5 -95.5t-31 -111l-88 -402q-5 -27 -8 -53.5t-3 -50.5q0 -31 6.5 -57.5t21.5 -45.5t40.5 -30t63.5 -11q63 0 104 24.5t67.5 66.5t43 98t30.5 119l72 333q11 48 19.5 93t8.5 83q0 29 -6.5 53t-22 41.5t-42 27t-65.5 9.5z" />
    <glyph glyph-name="f.001" horiz-adv-x="564" 
d="M281 1203h125l2 8q21 94 45 168.5t62.5 126t96 78.5t145.5 27q62 0 103.5 -17.5t63.5 -35.5l-42 -127q-17 10 -53 23.5t-87 13.5q-44 0 -72 -13.5t-47.5 -43.5t-33 -79t-29.5 -121l-2 -8h250l-31 -140h-250l-232 -1063h-153l233 1063h-125z" />
    <glyph glyph-name="g" unicode="g" horiz-adv-x="872" 
d="M1011 1202l-265 -1211q-21 -94 -50 -168t-73.5 -125.5t-107.5 -79t-151 -27.5q-79 0 -146.5 12t-105.5 34l42 128q16 -8 42.5 -14t57 -10t63 -5.5t61.5 -1.5q45 0 78 13t58.5 43.5t44.5 79.5t35 121l31 142q-38 -67 -95 -109t-143 -42q-68 0 -113 17.5t-71.5 48t-37.5 72
t-11 89.5q0 53 9.5 111t22.5 116l72 331q12 56 27 111.5t36 105.5t50 93.5t69 75t93 49.5t123 18q43 0 74 -11t51.5 -31t32 -47t16.5 -60l29 131h152zM447 127q55 0 94 23t66.5 62t45.5 89.5t32 105.5l76 348q10 45 17.5 90t7.5 85q0 31 -6 57.5t-21 46t-40.5 30.5t-63.5 11
q-63 0 -104 -24.5t-67.5 -66.5t-43 -98t-29.5 -119l-73 -334q-11 -48 -19 -92.5t-8 -82.5q0 -29 6.5 -53t22 -41.5t41.5 -27t66 -9.5z" />
    <glyph glyph-name="i" unicode="i" horiz-adv-x="407" 
d="M435 1472q0 46 26.5 74t86.5 28q43 0 62.5 -16t19.5 -45q0 -22 -6 -41t-19.5 -32.5t-36 -21t-55.5 -7.5q-78 0 -78 61zM129 0l263 1202h152l-263 -1202h-152z" />
    <glyph glyph-name="k" unicode="k" horiz-adv-x="827" 
d="M622 1568l-196 -892h106l360 526h157l-420 -601l196 -601h-169l-158 529h-104l-115 -529h-152l343 1568h152z" />
    <glyph glyph-name="l" unicode="l" horiz-adv-x="409" 
d="M128 0l342 1568h152l-342 -1568h-152z" />
    <glyph glyph-name="m" unicode="m" horiz-adv-x="1406" 
d="M391 505l-110 -505h-152l262 1202h152l-29 -133q49 67 116 108.5t156 41.5q53 0 90 -12.5t61 -34.5t36 -52.5t15 -67.5q25 37 55 67.5t66 52.5t78.5 34.5t92.5 12.5q63 0 104.5 -15.5t66 -43t34.5 -65.5t10 -82q0 -57 -11.5 -119.5t-25.5 -125.5l-168 -768h-152l169 769
q11 51 21.5 99.5t10.5 88.5q0 26 -6 48t-21 37.5t-40 24t-62 8.5q-63 0 -107 -29.5t-74 -78t-49.5 -110t-33.5 -124.5l-49 -228l-1 1l-111 -506h-152l169 769q11 51 21.5 100t10.5 89q0 26 -6 47.5t-21 37t-39.5 24t-61.5 8.5q-63 0 -107.5 -29.5t-74.5 -78t-49.5 -110
t-33.5 -124.5l-49 -228h-1z" />
    <glyph glyph-name="r" unicode="r" horiz-adv-x="569" 
d="M794 1051q-12 2 -34.5 11.5t-59.5 9.5h-1q-57 0 -98 -25t-69.5 -66.5t-47.5 -95.5t-33 -111l-169 -774h-152l262 1202h152l-31 -142q19 35 43 64.5t54 50.5t66 33t80 12v-1l1 1q16 0 35 -3t34 -10z" />
    <glyph glyph-name="s" unicode="s" horiz-adv-x="760" 
d="M778 381q0 -87 -27.5 -160t-79.5 -126t-128 -82.5t-173 -29.5q-72 0 -121 16.5t-79.5 46.5t-44 73t-13.5 96q0 34 5 71t14 78h152q-5 -24 -8.5 -47.5t-3.5 -46.5q0 -30 6.5 -55.5t21.5 -45t40 -30.5t61 -11q54 0 94 17t66.5 46t40 68.5t13.5 83.5q0 52 -27 89.5
t-67.5 68.5t-88 61t-88 66.5t-67.5 85t-27 116.5q0 89 26.5 161t77.5 123t124.5 78.5t168.5 27.5q122 0 185.5 -51.5t63.5 -169.5q0 -30 -4.5 -64t-12.5 -73h-151q11 49 11 88q0 56 -27.5 91t-95.5 35q-45 0 -82.5 -17t-65 -45.5t-43 -66t-15.5 -77.5q0 -49 27.5 -85.5
t68.5 -68t88.5 -62t88.5 -68.5t68.5 -87t27.5 -118z" />
    <glyph glyph-name="v" unicode="v" horiz-adv-x="738" 
d="M991 1203l-509 -1203h-227l17 1203h156l-35 -1059h13l429 1059h156z" />
    <glyph glyph-name="w" unicode="w" horiz-adv-x="1209" 
d="M285 1203h157l-81 -1059h14l381 1059h234l-81 -1059h13l382 1059h156l-450 -1203h-246l79 1058h-4l-383 -1058h-247z" />
    <glyph glyph-name="x" unicode="x" horiz-adv-x="740" 
d="M578 0l-104 486l-318 -486h-152l410 625l-131 577h160l96 -447l295 447h149l-382 -577l137 -625h-160z" />
    <glyph glyph-name="y" unicode="y" horiz-adv-x="731" 
d="M428 1203l-40 -1069h11l70 169q91 226 180.5 450t179.5 450h157q-85 -205 -168.5 -407.5t-167.5 -406.5l-164 -402q-34 -78 -70 -140t-76 -110t-85 -82.5t-97 -57.5l-47 103q68 35 122 101t101 176l9 23h-102l30 1203h157z" />
    <glyph glyph-name="z" unicode="z" horiz-adv-x="715" 
d="M45 0l28 130l653 932h-419l29 140h589l-28 -129l-653 -930h445l-31 -143h-613z" />
    <glyph glyph-name="braceleft" unicode="{" horiz-adv-x="595" 
d="M223 833q48 6 79.5 20t53.5 42t38 73t32 113l41 184q20 96 50.5 162t73 107t98.5 59.5t126 18.5h45l-29 -137h-30q-51 0 -81.5 -14t-48.5 -40.5t-28 -64t-21 -84.5l-59 -253q-26 -110 -68.5 -176t-121.5 -83q50 -12 71 -44t21 -87q0 -26 -4 -58t-12 -69l-59 -292
q-5 -23 -8 -44t-3 -38q0 -40 23 -61.5t86 -21.5h29l-30 -138h-44q-109 0 -162 45t-53 151q0 66 19 152l39 183q9 44 14 77.5t5 59.5q0 55 -25.5 79t-87.5 32l31 147v0z" />
    <glyph glyph-name="bar" unicode="|" horiz-adv-x="658" 
d="M124 -82l368 1685h155l-368 -1685h-155z" />
    <glyph glyph-name="braceright" unicode="}" horiz-adv-x="595" 
d="M704 686q-48 -6 -80 -20t-54.5 -42t-38.5 -73t-31 -113l-40 -183q-21 -96 -51.5 -162.5t-73 -107.5t-98 -59.5t-125.5 -18.5h-45l30 138h29q45 0 74 11t47.5 32.5t29.5 52.5t20 70l68 290q13 58 29.5 102.5t38.5 76.5t51.5 51.5t69.5 28.5q-50 12 -70.5 45.5t-20.5 90.5
q0 52 15 123l52 253q8 36 13.5 66.5t5.5 54.5q0 39 -22.5 60.5t-86.5 21.5h-30l29 137h46q109 0 162 -45t53 -151q0 -32 -4.5 -69.5t-14.5 -81.5l-40 -183q-9 -43 -14 -76.5t-5 -59.5q0 -56 26 -80.5t88 -32.5z" />
    <glyph glyph-name="asciitilde" unicode="~" horiz-adv-x="831" 
d="M905 695q-41 -54 -91.5 -78.5t-110.5 -24.5q-45 0 -83.5 14t-73 31.5t-66 31.5t-62.5 14q-40 0 -74.5 -14t-69.5 -52l-24 97q42 54 93 78.5t114 24.5q38 0 76 -14t74.5 -31.5t70 -31.5t63.5 -14q36 0 71 14t70 52z" />
    <glyph glyph-name="exclamdown" unicode="&#xa1;" horiz-adv-x="457" 
d="M418.975 837.949l-226.986 -1139.93h-174.989l269.983 1139.93h131.992zM521.968 1168.93q0 -50.9971 -26.498 -84.4951t-91.4941 -33.498q-44.9971 0 -63.9961 16.999t-18.999 48.9971q0 58.9961 28.998 88.9951q28.998 29.998 93.9941 29.998q40.998 0 59.4971 -17.499
q18.498 -17.499 18.498 -49.4971z" />
    <glyph glyph-name="cent" unicode="&#xa2;" horiz-adv-x="894" 
d="M710 388q0 3 1 4h151l-12 -54q-15 -62 -38 -121t-62 -107t-96.5 -80.5t-141.5 -42.5l-33 -156h-139l34 157q-55 8 -91.5 29.5t-58 52t-30.5 70t-9 83.5q0 51 8.5 104.5t20.5 108.5l72 331q17 77 41 152t64 136.5t100.5 104t151.5 55.5l35 162h139l-35 -161q58 -8 96 -28
t60.5 -49.5t32 -67t9.5 -78.5q0 -32 -4.5 -65.5t-11.5 -67.5l-11 -50h-151l4 16q5 22 8.5 45t3.5 44q0 17 -2.5 32t-9.5 26q-6 31 -14.5 71.5t-31.5 73.5l-2 -10h-47q-5 -14 -11 -23t-17 -9q-63 0 -104 -24.5t-67.5 -66.5t-43 -98t-30.5 -119l-73 -334q-11 -48 -19 -92
t-8 -82q0 -29 6.5 -53.5t22 -42t42 -27t66.5 -9.5q8 0 11.5 -6.5t2.5 -17.5h49l-5 -23q20 27 39 55.5t37 40.5q25 16 41.5 41t28 54t18.5 59t13 57z" />
    <glyph glyph-name="sterling" unicode="&#xa3;" horiz-adv-x="865" 
d="M278 732h112q-1 64 -4 130.5t-3 131.5q0 42 2.5 81.5t7.5 77.5q11 79 38 149.5t75 123.5t120 84t174 31q65 0 110.5 -15.5t74 -45.5t41 -73t12.5 -98q0 -39 -5.5 -83t-16.5 -93l-151 -1q4 26 7.5 57.5t3.5 63.5q0 28 -4.5 54t-16.5 45.5t-32.5 31.5t-52.5 12
q-120 0 -180 -101.5t-60 -303.5q0 -21 2.5 -52.5t6 -66.5t6 -71t2.5 -67v-2h263l-29 -139h-244q-10 -73 -29.5 -140.5t-45.5 -125.5t-57 -105t-64 -79q34 6 68 6q55 0 107.5 -9t103.5 -9q21 0 39 1t35.5 4.5t35.5 9.5t38 15l17 -128q-74 -46 -179 -46q-38 0 -77.5 4t-79 8.5
t-80 8.5t-80.5 4q-20 0 -49.5 -2.5t-55.5 -5.5l-64 -8l31 148q46 21 84 62t67.5 96t49.5 120t30 133q2 9 2.5 18.5t1.5 19.5h-138z" />
    <glyph glyph-name="fraction" unicode="&#x2044;" horiz-adv-x="555" 
d="M64 -53l-128 27l862 1573l124 -27z" />
    <glyph glyph-name="yen" unicode="&#xa5;" horiz-adv-x="856" 
d="M680 699h182l-20 -96h-214l-6 -11l-32 -143h218l-21 -96h-218l-77 -353h-153l77 353h-209l21 96h209l32 143l-1 11h-207l21 96h175l-91 820h168l61 -708l378 708h157z" />
    <glyph glyph-name="section" unicode="&#xa7;" horiz-adv-x="829" 
d="M215 552q0 70 17.5 129.5t53.5 105.5t90.5 77t127.5 44q-29 21 -56 45t-47 53.5t-32 65t-12 80.5q0 88 26.5 160t77.5 123t124.5 78.5t168.5 27.5q122 0 185.5 -51.5t63.5 -168.5q0 -58 -17 -138l-151 1q11 49 11 87q0 56 -27.5 91t-95.5 35q-45 0 -82.5 -17t-65 -45.5
t-43 -65.5t-15.5 -77q0 -50 27.5 -86.5t68.5 -68t88.5 -62t88.5 -68t68.5 -87t27.5 -118.5q0 -70 -18 -130t-54 -106t-91 -77t-128 -43q29 -21 56 -45t47.5 -53.5t32.5 -65t12 -79.5q0 -89 -26.5 -161t-77.5 -123t-124.5 -78.5t-167.5 -27.5q-123 0 -186.5 52t-63.5 170
q0 30 4.5 64t12.5 73l152 -1q-11 -50 -11 -88q0 -56 27.5 -90.5t95.5 -34.5q45 0 82.5 17t65 45t43 65t15.5 78q0 50 -27.5 86t-68.5 67.5t-88.5 62t-88.5 68.5t-68.5 87t-27.5 118zM379 590q0 -40 16.5 -71t42.5 -57q29 -13 69 -13q54 0 94 17t67 46.5t40 68.5t13 83
q0 41 -17 72t-44 57q-27 12 -67 12q-54 0 -94 -17t-67 -46.5t-40 -68.5t-13 -83z" />
    <glyph glyph-name="currency" unicode="&#xa4;" horiz-adv-x="767" 
d="M288 658q0 45 16 87t45 77l-53 68l116 97l56 -72q61 28 122 28q31 0 58 -8.5t50 -22.5l90 75l77 -95l-92 -76q6 -17 9.5 -35t3.5 -38q0 -45 -15.5 -85.5t-42.5 -75.5l54 -69l-118 -96l-54 70q-30 -14 -62 -22t-64 -8q-63 0 -109 31l-86 -70l-75 95l86 71q-12 34 -12 74z
M405 678q0 -45 28.5 -75.5t74.5 -30.5q30 0 59 12t51.5 33t36.5 48t14 57q0 45 -28.5 76t-74.5 31q-30 0 -59 -12.5t-51.5 -33t-36.5 -48t-14 -57.5z" />
    <glyph glyph-name="quotesingle" unicode="'" horiz-adv-x="346" 
d="M357 1126l76 395h145l-97 -395h-124z" />
    <glyph glyph-name="quotedblleft" unicode="&#x201c;" horiz-adv-x="664" 
d="M542.967 1522.91q-13.999 -30.998 -26.498 -59.9961q-12.5 -28.999 -21.999 -54.4971t-14.999 -46.4971t-5.5 -35.998q0 -27.998 21.999 -27.998h24.998l-35.9971 -166.99l-177.989 -1l33.998 159.99q2.99902 14.999 11.499 40.998q8.49902 25.998 21.499 59.4961
q12.999 33.498 30.998 72.4961q17.999 38.9971 41.9971 79.9951zM843.948 1521.91q-13.999 -30.998 -26.498 -59.9961q-12.499 -28.999 -21.999 -54.4971q-9.49902 -25.498 -14.999 -46.4971q-5.49902 -20.999 -5.49902 -35.998q0 -27.998 21.998 -27.998h24.999
l-35.998 -166.99l-177.989 -1l33.998 159.99q3 14.999 11.499 40.998q8.5 25.998 21.499 59.4961t30.998 72.4961q17.999 38.9971 41.9971 79.9951z" />
    <glyph glyph-name="guillemotleft" unicode="&#xab;" horiz-adv-x="780" 
d="M278 188l-94 402l270 404h154l-275 -404l99 -402h-154zM611 188l-94 402l270 404h154l-275 -404l99 -402h-154z" />
    <glyph glyph-name="guilsinglright" unicode="&#x203a;" horiz-adv-x="417" 
d="M99 188l280 402l-95 404h151l90 -404l-275 -402h-151z" />
    <glyph glyph-name="endash" unicode="&#x2013;" horiz-adv-x="802" 
d="M168 521l29 137h707l-30 -137h-706z" />
    <glyph glyph-name="dagger" unicode="&#x2020;" horiz-adv-x="898" 
d="M731 942l-247 -1134h-152l248 1134h-289l32 147h288l95 433h151l-94 -433h289l-32 -147h-289z" />
    <glyph glyph-name="periodcentered" unicode="&#xb7;" horiz-adv-x="398" 
d="M225 563q0 53 27 85.5t92 32.5q44 0 63.5 -17t19.5 -50q0 -58 -29.5 -88t-93.5 -30q-42 0 -60.5 17.5t-18.5 49.5z" />
    <glyph glyph-name="paragraph" unicode="&#xb6;" horiz-adv-x="1016" 
d="M364 -369l227 1041q-78 2 -134.5 24t-93 60.5t-54 93t-17.5 121.5q0 270 124.5 410t359.5 140h141l-413 -1890h-140zM675 -369l413 1890h140l-413 -1890h-140z" />
    <glyph glyph-name="bullet" unicode="&#x2022;" horiz-adv-x="674" 
d="M730 745q0 -56 -24 -106t-64 -87.5t-92.5 -59t-108.5 -21.5q-42 0 -76.5 14.5t-59 40t-38.5 60.5t-14 75q0 56 25 106t65.5 87.5t92.5 59.5t106 22q43 0 77.5 -14.5t59 -40.5t38 -61t13.5 -75z" />
    <glyph glyph-name="quotesinglbase" unicode="&#x201a;" horiz-adv-x="384" 
d="M55 -219q14 31 26.5 60t22 54.5t15 46.5t5.5 36q0 28 -22 28h-25l36 167l178 1l-34 -160q-3 -15 -11.5 -41t-21.5 -59.5t-31 -72.5t-42 -80z" />
    <glyph glyph-name="quotedblbase" unicode="&#x201e;" horiz-adv-x="778" 
d="M55 -219q14 31 26.5 60t22 54.5t15 46.5t5.5 36q0 28 -22 28h-25l36 167l178 1l-34 -160q-3 -15 -11.5 -41t-21.5 -59.5t-31 -72.5t-42 -80zM356 -219q14 31 26.5 60t22 54.5t15 46.5t5.5 36q0 28 -22 28h-25l36 167l178 1l-34 -160q-3 -15 -11.5 -41t-21.5 -59.5
t-31 -72.5t-42 -80z" />
    <glyph glyph-name="quotedblright" unicode="&#x201d;" horiz-adv-x="612" 
d="M303 1130q14 31 26.5 60t22 54.5t15 46.5t5.5 36q0 28 -22 28h-25l36 167l178 1l-34 -160q-3 -15 -11.5 -41t-21.5 -59.5t-31 -72.5t-42 -80zM604 1130q14 31 26.5 60t22 54.5t15 46.5t5.5 36q0 28 -22 28h-25l36 167l178 1l-34 -160q-3 -15 -11.5 -41t-21.5 -59.5
t-31 -72.5t-42 -80z" />
    <glyph glyph-name="perthousand" unicode="&#x2030;" horiz-adv-x="2014" 
d="M355 1208q15 71 35 130.5t54 103t87 67.5t134 24q55 0 91.5 -11.5t58.5 -32.5t31 -51t9 -67q0 -35 -6.5 -76t-16.5 -87l-54 -249q-16 -72 -36 -132.5t-54.5 -104t-87 -67.5t-132.5 -24q-53 0 -90 11t-60 32.5t-33.5 52t-10.5 69.5q0 46 14 108zM495 757q58 0 87.5 36.5
t45.5 107.5l68 308q8 36 13.5 67t5.5 56q0 35 -16 55.5t-61 20.5q-39 0 -63 -14.5t-39.5 -41t-25 -63t-18.5 -79.5l-56 -253q-8 -35 -14 -66.5t-6 -56.5q0 -36 17 -56.5t62 -20.5zM556 0h-149l798 1521h148zM961 485q15 71 35 131t54 103.5t87 67.5t134 24q55 0 91.5 -11.5
t58.5 -32.5t31.5 -51t9.5 -67q0 -35 -6.5 -76.5t-17.5 -87.5l-39 -179q-16 -72 -36.5 -132t-54.5 -103t-86 -67t-132 -24q-54 0 -91 11t-60 32t-33 51.5t-10 69.5q0 24 3.5 51t9.5 56zM1116 105q57 0 87.5 36.5t46.5 108.5l52 236q8 36 14 67.5t6 56.5q0 35 -16.5 55.5
t-60.5 20.5q-39 0 -63.5 -14.5t-39.5 -41t-24.5 -63t-19.5 -79.5l-41 -184q-8 -35 -13.5 -66t-5.5 -56q0 -36 16.5 -56.5t61.5 -20.5zM1533 485q16 71 36.5 131t54 103.5t86.5 67.5t134 24q55 0 91.5 -11.5t58.5 -32.5t31 -51t9 -67q0 -35 -6.5 -76t-16.5 -87l-40 -180
q-16 -72 -36.5 -132t-54 -103t-86 -67t-132.5 -24q-53 0 -90.5 11t-60.5 31.5t-33.5 50.5t-10.5 69q0 24 4 51.5t11 57.5zM1689 105q57 0 87.5 36.5t46.5 107.5l52 237q8 36 13.5 67.5t5.5 56.5q0 35 -16 55.5t-60 20.5q-40 0 -64 -14.5t-39.5 -41t-24.5 -62.5t-19 -79
l-41 -185q-8 -35 -13.5 -66t-5.5 -56q0 -36 16.5 -56.5t61.5 -20.5z" />
    <glyph glyph-name="grave" unicode="`" horiz-adv-x="454" 
d="M570 1539l73 -254h-116l-102 254h145z" />
    <glyph glyph-name="acute" unicode="&#xb4;" horiz-adv-x="565" 
d="M762 1539l-215 -254h-121l185 254h151z" />
    <glyph glyph-name="circumflex" unicode="&#x2c6;" horiz-adv-x="576" 
d="M360 1284l188 233h150l86 -233h-135l-45 144l-108 -144h-136z" />
    <glyph glyph-name="tilde" unicode="&#x2dc;" horiz-adv-x="584" 
d="M875 1479q-42 -65 -88 -104.5t-107 -39.5q-32 0 -56 11t-44.5 24t-40 24t-43.5 11q-26 0 -51.5 -15t-54.5 -50l-69 38q46 67 92.5 105.5t106.5 38.5q33 0 57.5 -11t45.5 -24.5t41 -24.5t43 -11q24 0 48 16.5t50 48.5z" />
    <glyph glyph-name="macron" unicode="&#xaf;" horiz-adv-x="579" 
d="M378 1375l26 122h425l-26 -122h-425z" />
    <glyph glyph-name="breve" unicode="&#x2d8;" horiz-adv-x="661" 
d="M893 1513q-14 -51 -38.5 -93t-61.5 -72t-86 -47t-111 -17q-54 0 -92.5 12.5t-63 35t-36 54t-11.5 69.5q0 28 6 58h97q-2 -9 -2 -17v-16q0 -49 27.5 -75.5t95.5 -26.5q76 0 117 34.5t61 100.5h98z" />
    <glyph glyph-name="dotaccent" unicode="&#x2d9;" horiz-adv-x="508" 
d="M403 1382q0 52 27.5 85t92.5 33q44 0 63.5 -17t19.5 -50q0 -59 -29.5 -89t-93.5 -30q-41 0 -60.5 18t-19.5 50z" />
    <glyph glyph-name="dieresis" unicode="&#xa8;" horiz-adv-x="536" 
d="M357 1388q0 46 23 77.5t79 31.5q37 0 53.5 -15.5t16.5 -44.5q0 -53 -25 -81t-81 -28q-35 0 -50.5 15.5t-15.5 44.5zM571 1388q0 23 5.5 43t17.5 34.5t31.5 23t47.5 8.5q38 0 54 -15.5t16 -44.5q0 -53 -24.5 -81t-81.5 -28q-34 0 -50 15.5t-16 44.5z" />
    <glyph glyph-name="ring" unicode="&#x2da;" horiz-adv-x="390" 
d="M334 1408q0 44 11.5 82t36 65.5t64 43.5t95.5 16q78 0 111 -30.5t33 -87.5q0 -103 -52 -155t-163 -52q-71 0 -103.5 31t-32.5 87zM443 1435q0 -21 12 -33.5t39 -12.5q42 0 61.5 20.5t19.5 60.5q0 21 -12 33t-42 12q-43 0 -60.5 -24t-17.5 -56z" />
    <glyph glyph-name="cedilla" unicode="&#xb8;" horiz-adv-x="536" 
d="M67 -217q12 -10 23 -18t24.5 -13.5t31 -8.5t42.5 -3q44 0 71.5 18.5t27.5 51.5q0 24 -25.5 34t-55.5 10q-22 0 -44 -5l38 178h90l-22 -96q6 1 13 2q6 1 14.5 2t18.5 1q40 0 67.5 -28t27.5 -74q0 -45 -19.5 -79t-52 -56t-75.5 -33t-89 -11q-56 0 -93.5 17.5t-56.5 46.5z
" />
    <glyph glyph-name="hungarumlaut" unicode="&#x2dd;" horiz-adv-x="424" 
d="M586 1539l-213 -254h-117l185 254h145zM797 1539l-212 -254h-117l184 254h145z" />
    <glyph glyph-name="ogonek" unicode="&#x2db;" horiz-adv-x="559" 
d="M331 -360q-23 -17 -58 -28t-78 -11q-33 0 -62 8.5t-51 26.5t-34.5 46.5t-12.5 68.5q0 61 21.5 106.5t55.5 78.5t76.5 56.5t85.5 41.5l65 -34q-31 -18 -60 -39t-51.5 -47.5t-36 -59t-13.5 -73.5q0 -70 69 -70q32 0 53 5.5t40 16.5z" />
    <glyph glyph-name="caron" unicode="&#x2c7;" horiz-adv-x="682" 
d="M594 1517l44 -145l110 145h134l-188 -233h-150l-86 233h136z" />
    <glyph glyph-name="emdash" unicode="&#x2014;" horiz-adv-x="1288" 
d="M225 521l29 136h1061l-29 -136h-1061z" />
    <glyph glyph-name="AE" unicode="&#xc6;" horiz-adv-x="1042" 
d="M-4 0l751 1519h146l443 2l-31 -148l-335 -2l-114 -518h265l-31 -147h-266l-123 -559h335l-32 -147h-488l73 336h-278l-162 -336h-153zM620 477l197 900h-5l-433 -900h241z" />
    <glyph glyph-name="Lslash" unicode="&#x141;" horiz-adv-x="802" 
d="M235 0l104 479l-120 -86l37 173l121 87l190 868h155l-162 -736l212 153l-37 -175l-213 -153l-102 -463h422l-31 -147h-576z" />
    <glyph glyph-name="OE" unicode="&#x152;" horiz-adv-x="1277" 
d="M606 0l15 70q-18 -17 -36 -32t-40 -27t-49.5 -19t-62.5 -7q-73 0 -121.5 18t-77.5 50.5t-41 76.5t-12 96q0 46 7.5 95.5t18.5 102.5l147 673q12 57 28.5 112t40 103.5t54.5 90t73.5 71t96.5 46.5t124 17q33 0 57.5 -6t42.5 -16.5t31 -24t23 -28.5l13 59l589 1l-32 -147
l-434 -1l-115 -521h365l-31 -147h-366l-122 -559h434l-32 -147h-588zM490 132q50 0 91.5 26.5t72.5 65.5l236 1073q-14 40 -45.5 66.5t-82.5 26.5q-61 0 -102 -25.5t-70 -65.5q-30 -48 -53 -113t-43 -153l-118 -537q-26 -122 -26 -199q0 -39 6 -69q10 -48 41 -72t93 -24z
" />
    <glyph glyph-name="ordmasculine" unicode="&#xba;" horiz-adv-x="658" 
d="M355 1207q15 71 35 131t54 103.5t87 67.5t134 24q55 0 91 -11.5t58 -32.5t31 -51t9 -67q0 -35 -6 -76t-16 -87l-25 -113q-15 -72 -35.5 -132.5t-54.5 -103.5t-86.5 -67t-132.5 -24q-54 0 -91 11t-60 32.5t-33 52t-10 69.5q0 24 3.5 51t9.5 56zM524 891q59 0 89 35.5
t45 106.5l40 179q8 36 13.5 67t5.5 56q0 35 -16.5 55t-61.5 20q-40 0 -64.5 -14t-40 -40t-25 -62t-18.5 -80l-28 -125q-8 -35 -13.5 -66t-5.5 -55q0 -36 17 -56.5t63 -20.5zM250 703h465l-26 -123h-466z" />
    <glyph glyph-name="dotlessi" unicode="&#x131;" horiz-adv-x="408" 
d="M129 0l262 1202h153l-263 -1202h-152z" />
    <glyph glyph-name="Euro" unicode="&#x20ac;" horiz-adv-x="902" 
d="M877 1067l10 48q9 35 15 69.5t6 64.5q0 31 -7.5 57t-24.5 45t-45.5 29.5t-70.5 10.5q-63 0 -105.5 -23.5t-71 -64.5t-46 -96.5t-31.5 -118.5l-33 -150h437l-35 -106h-426l-32 -148h400l-35 -106h-389l-32 -147q-10 -43 -16.5 -83.5t-6.5 -75.5q0 -32 7 -58t23.5 -44.5
t44.5 -29t70 -10.5q60 0 102 21.5t71 59t46.5 87.5t29.5 108l10 48h155l-10 -49q-15 -74 -43 -149.5t-78 -136t-126.5 -98.5t-187.5 -38q-80 0 -132 19.5t-83 53.5t-43.5 80t-12.5 99q0 46 7.5 95.5t18.5 99.5l32 148h-78l35 106h66l33 148h-79l35 106h67l33 152
q12 56 28.5 110.5t40.5 104.5t57 92.5t77.5 73.5t103 49t133.5 18q81 0 134 -20.5t84.5 -55t44 -80t12.5 -96.5q0 -42 -7 -85.5t-17 -85.5l-11 -48h-154z" />
    <glyph glyph-name="trademark" unicode="&#x2122;" horiz-adv-x="1356" 
d="M1113 899h8l315 623h164l-209 -955h-135l148 639h-2l-259 -508h-137l-38 508h-2l-133 -639h-135l209 955h166zM650 1392l-181 -825h-135l180 825h-176l29 129h486l-28 -129h-175z" />
    <glyph glyph-name="copyright" unicode="&#xa9;" horiz-adv-x="1392" 
d="M1400 439q-39 -179 -112 -301.5t-172 -199t-218.5 -110t-251.5 -33.5q-110 0 -201 23.5t-156.5 75t-102 134t-36.5 200.5q0 48 6.5 101.5t19.5 113.5l105 477q39 178 111.5 300.5t171 198t218 109.5t251.5 34q110 0 201.5 -23t157.5 -74.5t102.5 -134t36.5 -200.5
q0 -92 -26 -214zM1372 917q22 98 22 180q0 93 -28 158t-79 106t-122 60t-158 19q-107 0 -201 -28t-171 -89.5t-133.5 -160.5t-87.5 -241l-105 -479q-11 -53 -17 -98.5t-6 -86.5q0 -92 27.5 -156.5t78 -105t122 -59t159.5 -18.5q107 0 201.5 27.5t171.5 89t133.5 160.5
t87.5 242zM966 472h137l-3 -13q-10 -43 -23 -88t-32.5 -87t-47.5 -79t-68.5 -64.5t-94.5 -43.5t-126 -16t-119.5 18t-75 48.5t-39 72.5t-11.5 90q0 49 9 101t20 105l61 279q6 26 11.5 52.5t12.5 52.5q17 73 44.5 139t72.5 116.5t111.5 80t161.5 29.5q75 0 123 -17.5t76 -47
t39 -68.5t11 -83q0 -40 -7 -81.5t-15 -80.5l-3 -14h-136l3 15q8 32 14 63.5t6 60.5q0 25 -6.5 47.5t-22.5 38.5t-43 25.5t-68 9.5q-62 0 -102 -24t-66.5 -65.5t-42.5 -96.5t-30 -118l-57 -260q-14 -60 -24.5 -112.5t-13.5 -99.5q-1 -30 4.5 -56.5t20.5 -46t41.5 -30.5
t67.5 -11q61 0 101 20.5t65 54.5t39 78.5t23 92.5z" />
    <glyph glyph-name="minus" unicode="&#x2212;" horiz-adv-x="832" 
d="M240 635l30 136h629l-30 -136h-629z" />
    <glyph glyph-name="degree" unicode="&#xb0;" horiz-adv-x="503" 
d="M755 1362q0 -52 -20.5 -99.5t-56 -83.5t-83.5 -57.5t-104 -21.5q-40 0 -71 13.5t-52 36.5t-32 55t-11 68q0 52 20 99.5t55.5 84t83 58.5t102.5 22q41 0 72.5 -13.5t53 -37.5t32.5 -56t11 -68zM652 1346q0 41 -22 66.5t-65 25.5q-30 0 -55.5 -11.5t-43.5 -31.5t-28.5 -47
t-10.5 -58q0 -40 21.5 -66.5t63.5 -26.5q31 0 56.5 12t44 32.5t29 47.5t10.5 57z" />
    <glyph glyph-name="plusminus" unicode="&#xb1;" horiz-adv-x="832" 
d="M522 792h-247l30 136h246l55 246h135l-53 -246h246l-30 -136h-246l-54 -246h-135zM167 296l30 136h629l-30 -136h-629z" />
    <glyph glyph-name="onehalf" unicode="&#xbd;" horiz-adv-x="1435" 
d="M430 1671q56 29 108.5 68t90.5 82h118l-208 -954h-136l171 780q-35 -35 -79.5 -61.5t-92.5 -43.5zM917 302l28 128q21 66 64.5 121.5t96.5 104t109 93.5t102 92t75.5 97.5t29.5 110.5q0 45 -19.5 69.5t-60.5 24.5q-32 0 -55 -13t-38.5 -34t-25 -47.5t-15.5 -53.5l-9 -39
h-135l11 51q13 58 36 107t59 84t86 55t117 20q94 0 141.5 -48.5t47.5 -144.5q0 -86 -29 -151t-74 -118.5t-100 -98t-106 -88t-92.5 -90.5t-60.5 -104h323l-28 -128h-478zM414 -53l-128 27l862 1573l124 -27z" />
    <glyph glyph-name="Eth" unicode="&#xd0;" horiz-adv-x="914" 
d="M569 635h-407l29 136h408zM788 1519q78 0 130 -19t82.5 -52.5t43.5 -79t13 -99.5q0 -45 -7 -92.5t-18 -97.5l-139 -639q-19 -85 -48.5 -164.5t-79.5 -140.5t-125 -98t-185 -37h-330l333 1519h330zM310 147h176q52 0 91.5 17t70.5 53t53.5 91.5t39.5 132.5l138 637
q20 89 20 147q0 73 -31.5 108t-101.5 38h-187z" />
    <glyph glyph-name="multiply" unicode="&#xd7;" horiz-adv-x="833" 
d="M475 701l-142 182l118 97l142 -182l219 180l75 -95l-220 -181l142 -181l-116 -96l-143 181l-222 -182l-75 95z" />
    <glyph glyph-name="eth" unicode="&#xf0;" horiz-adv-x="890" 
d="M750 1404q-20 16 -40 26t-36.5 15t-28.5 7t-16 2l92 121q6 -1 21.5 -3.5t37.5 -9.5t47 -20t51 -35l96 77l52 -59l-97 -78q31 -46 51 -115t20 -171q0 -59 -8 -128t-26 -152l-102 -463q-18 -84 -45.5 -162.5t-74.5 -139t-120 -97t-182 -36.5q-77 0 -127 18.5t-79.5 50.5
t-41.5 76t-12 94q0 51 9 105.5t21 108.5l67 307q12 56 26.5 111t35 105.5t49 93t68 74t92.5 49.5t123 18q43 0 74 -10.5t52 -30t33 -46t17 -58.5q2 20 3 39t1 36q0 77 -14.5 130.5t-37.5 90.5l-107 -86l-52 58zM472 128q63 0 103.5 24t67.5 67.5t44.5 105t34.5 137.5l54 249
q11 51 20.5 102t9.5 96q0 31 -6 57t-21 45t-40 30t-63 11q-64 0 -105 -24.5t-67.5 -66.5t-43 -98t-30.5 -119l-67 -310q-11 -48 -19 -92.5t-8 -82.5q0 -29 6.5 -53t22 -41.5t41.5 -27t66 -9.5z" />
    <glyph glyph-name="divide" unicode="&#xf7;" horiz-adv-x="832" 
d="M240 635l30 136h629l-30 -136h-629zM535 958q0 53 27 85.5t92 32.5q44 0 63.5 -17t19.5 -50q0 -58 -29.5 -88t-93.5 -30q-42 0 -60.5 17.5t-18.5 49.5zM413 396q0 53 27 85.5t92 32.5q44 0 63.5 -17t19.5 -50q0 -58 -29.5 -88t-93.5 -30q-42 0 -60.5 17.5t-18.5 49.5z
" />
    <glyph glyph-name="thorn" unicode="&#xfe;" horiz-adv-x="920" 
d="M52 -366l413 1887h151l-99 -452q37 67 94.5 109t143.5 42q69 0 114 -17.5t71.5 -47.5t37.5 -71.5t11 -89.5q0 -53 -9.5 -111t-22.5 -116l-72 -331q-12 -56 -27 -111.5t-36 -105.5t-50 -93.5t-69 -75t-93 -49.5t-123 -18q-44 0 -75 11t-51.5 31t-32 47.5t-15.5 60.5
l-109 -499h-152zM697 1076q-58 0 -98 -25t-68 -66.5t-46 -95.5t-31 -112l-81 -370q-7 -35 -12 -69.5t-5 -65.5t6.5 -57.5t21.5 -45.5t40.5 -30t63.5 -11q63 0 104 24.5t67.5 66.5t43 98t30.5 119l72 333q11 48 19 93t8 83q0 29 -6.5 53t-22 41.5t-41.5 27t-65 9.5z" />
    <glyph glyph-name=".DOT" horiz-adv-x="32" 
d="M167 381q0 73 73 73q41 0 59 -18.5t18 -54.5q0 -35 -18 -53.5t-59 -18.5q-73 0 -73 72z" />
    <glyph glyph-name="p" unicode="p" horiz-adv-x="880" 
d="M48 -366l343 1568h152l-29 -133q38 67 94.5 109t142.5 42q69 0 114 -17.5t71.5 -47.5t37.5 -71.5t11 -89.5q0 -53 -9.5 -110.5t-22.5 -115.5l-73 -332q-12 -56 -27 -111.5t-36 -105.5t-49.5 -93.5t-68.5 -75t-93 -49.5t-123 -18q-44 0 -74.5 11t-51.5 30.5t-32.5 47
t-15.5 60.5l-109 -498h-152zM484 128q63 0 103.5 24.5t67 66t43 97.5t30.5 119l73 333q11 48 19.5 93t8.5 83q0 29 -6.5 53.5t-22.5 42t-42 27t-66 9.5q-57 0 -97 -25t-67.5 -66.5t-45.5 -95t-32 -110.5l-85 -389q-6 -31 -10 -60.5t-4 -56.5q0 -31 6.5 -57.5t22 -46
t41 -30.5t63.5 -11z" />
    <glyph glyph-name="q" unicode="q" horiz-adv-x="877" 
d="M518 -366l109 497q-38 -66 -94.5 -107.5t-142.5 -41.5q-69 0 -114 17.5t-71.5 47.5t-37 71.5t-10.5 89.5q0 53 9.5 111t22.5 117l72 331q12 56 27 111.5t36 105.5t50 93.5t69 75t93 49.5t123 18q43 0 73.5 -11t51 -30.5t32 -46.5t16.5 -60l29 130h152l-343 -1568h-152z
M449 127q57 0 97 24.5t67.5 66t45.5 94.5t31 110l81 369q8 36 13 72t5 68q0 31 -6.5 57.5t-21.5 45.5t-40.5 30t-63.5 11q-63 0 -104 -24.5t-67.5 -66.5t-42.5 -98t-30 -119l-72 -334q-11 -48 -19 -93t-8 -83q0 -29 6.5 -53t22 -41t41.5 -26.5t65 -9.5z" />
    <glyph glyph-name="e" unicode="e" horiz-adv-x="838" 
d="M838 406l-4 -21q-11 -49 -24.5 -98.5t-35 -94t-51.5 -83t-72.5 -66.5t-100 -44t-132.5 -16q-77 0 -127 18.5t-79.5 51t-41.5 76t-12 94.5q0 50 8.5 104t20.5 108l72 332q12 56 28 111.5t38.5 105.5t53.5 93.5t74.5 75t101.5 49.5t133 18q78 0 129 -18t81 -49t41.5 -73
t11.5 -89q0 -43 -7 -88.5t-17 -90.5l-37 -169h-1l-7 -35l-526 -87l-19 -86q-11 -48 -19 -92t-8 -82q0 -29 6.5 -53.5t22.5 -42t42.5 -27.5t66.5 -10q63 0 103 20.5t65 55.5t40 81.5t27 99.5l4 21h151zM656 1076q-63 0 -104 -24.5t-68 -66.5t-43.5 -98.5t-30.5 -119.5
l-25 -113l370 64l21 95q8 37 14.5 72t6.5 67q0 27 -6.5 49.5t-22.5 39t-43 26t-69 9.5z" />
    <glyph glyph-name="a" unicode="a" horiz-adv-x="878" 
d="M603 0l27 123q-38 -63 -94 -102t-141 -39q-68 0 -113 17t-71.5 47.5t-37.5 71.5t-11 89q0 54 10 111.5t23 116.5l71 332q20 91 45.5 173t69 144t111.5 99t172 37q42 0 72.5 -11t51.5 -30.5t33 -46t17 -58.5l28 128h152l-263 -1202h-152zM449 126q55 0 95 23.5t68 62.5
t47 90t33 107l87 396q7 33 11.5 65.5t4.5 62.5q0 31 -6.5 57t-21.5 45.5t-40 30.5t-63 11q-63 0 -104.5 -27t-69 -71t-44 -99.5t-28.5 -112.5l-72 -334q-13 -57 -22.5 -105t-9.5 -86q0 -55 29 -85.5t106 -30.5z" />
    <glyph glyph-name="u" unicode="u" horiz-adv-x="904" 
d="M777 697l111 505h151l-263 -1202h-151l29 135q-19 -33 -42 -61t-52.5 -48.5t-64.5 -31.5t-78 -11q-69 0 -114 17t-71.5 47.5t-37 71.5t-10.5 89q0 53 9.5 111t22.5 116l167 767h152l-168 -769q-11 -48 -19 -93t-8 -83q0 -29 6.5 -53t22 -41t41.5 -26.5t66 -9.5
q56 0 95.5 24t67 64t45.5 92.5t32 108.5l33 154l28 128v-1z" />
    <glyph glyph-name="n" unicode="n" horiz-adv-x="900" 
d="M633 0l169 769q11 49 20 95.5t9 85.5q0 28 -6 51t-21 39.5t-40.5 25.5t-64.5 9q-61 0 -103.5 -30.5t-72.5 -79t-49.5 -110.5t-33.5 -125l-159 -730h-152l262 1202h152l-31 -142q20 33 48 61.5t62 50.5t73.5 34.5t82.5 12.5q62 0 103 -15.5t65 -43t34 -65t10 -81.5
q0 -57 -11.5 -120t-25.5 -126l-168 -768h-152z" />
    <glyph glyph-name="h" unicode="h" horiz-adv-x="900" 
d="M633 0l169 769q11 47 19 91.5t8 82.5q0 29 -6.5 53.5t-22.5 42t-42 27t-66 9.5q-60 0 -102 -30.5t-70.5 -79t-47 -110.5t-32.5 -125l-159 -730h-152l342 1567h152l-109 -501q37 68 97.5 110.5t146.5 42.5q67 0 111 -17t70 -47t36.5 -70.5t10.5 -88.5q0 -53 -10 -111
t-23 -117l-168 -768h-152z" />
    <glyph glyph-name="d" unicode="d" horiz-adv-x="877" 
d="M862 502l-7 -33l-2 -11q-23 -107 -55.5 -194.5t-83 -150t-123.5 -97t-176 -34.5q-74 0 -123 18t-78 49.5t-41 75t-12 94.5t9 105.5t21 111.5l72 331q20 91 46 173.5t69.5 144.5t111 98.5t172.5 36.5q43 0 74 -11.5t51 -31.5t31.5 -48.5t15.5 -61.5l110 501h152zM452 126
q62 0 104.5 32t71 81.5t46 110t30.5 118.5v1l41 188l26 122q8 38 13.5 75.5t5.5 72.5q0 32 -6 59t-21 47t-40 31.5t-62 11.5q-63 0 -104.5 -26t-68.5 -69.5t-43 -99t-29 -114.5l-73 -334q-13 -58 -22 -106t-9 -85q0 -56 30 -86t110 -30z" />
    <glyph glyph-name="t" unicode="t" horiz-adv-x="623" 
d="M506 1593h153l-86 -390h235l-30 -140h-235l-149 -681q-13 -57 -20.5 -99.5t-7.5 -72.5q0 -45 21.5 -64.5t74.5 -19.5q51 0 92.5 13t64.5 23l-14 -127q-29 -18 -78 -35.5t-112 -17.5q-58 0 -97.5 12t-63.5 35t-34 57.5t-10 78.5q0 45 8.5 99.5t22.5 117.5l149 681h-122
l30 140h122l53 241z" />
    <glyph glyph-name="j" unicode="j" horiz-adv-x="411" 
d="M433 1472q0 46 26.5 74t86.5 28q43 0 62.5 -16t19.5 -45q0 -22 -6 -41t-19.5 -32.5t-36 -21t-55.5 -7.5q-78 0 -78 61zM544 1202l-265 -1211q-21 -94 -45 -168.5t-62.5 -126t-96 -78.5t-145.5 -27q-62 0 -103.5 17.5t-63.5 34.5l41 128q17 -10 53.5 -23.5t87.5 -13.5
q44 0 72 13.5t47 43.5t33 79t30 121l265 1211h152z" />
    <glyph glyph-name="ae" unicode="&#xe6;" horiz-adv-x="1397" 
d="M623 0l30 136q-19 -34 -42.5 -62t-53 -48.5t-65.5 -32t-80 -11.5q-68 0 -113 17.5t-71.5 47.5t-37.5 71t-11 89q0 54 10 112t23 117l73 329q19 84 44.5 165.5t69.5 146t112.5 104t173.5 39.5q43 0 74 -11t51.5 -30.5t31.5 -46.5t16 -59l29 129h149l-26 -120
q19 29 42.5 54t52 43.5t63.5 29t76 10.5q72 0 119 -16.5t74.5 -45t38.5 -67t11 -82.5q0 -47 -8.5 -97t-19.5 -99l-37 -169h-1l-7 -34l-528 -87l-1 -4l-24 -109q-8 -40 -14.5 -77.5t-6.5 -70.5q0 -30 6.5 -55t23 -43t43 -28t67.5 -10q64 0 104.5 20.5t66 56t40 82.5t25.5 101
l6 21h148l-6 -21q-11 -49 -23.5 -97.5t-32 -93t-47 -83t-68.5 -66.5t-96.5 -44t-130.5 -16q-41 0 -70 10t-49.5 28t-32 42t-17.5 52l-26 -117h-148zM471 124q64 0 106.5 30t71 79t46 111t31.5 126l11 51l64 289q6 32 9.5 62t3.5 58q0 32 -6 59t-21.5 47t-41 31t-64.5 11
q-64 0 -105 -24.5t-68 -67t-43.5 -99.5t-29.5 -121l-75 -331q-11 -48 -19 -93.5t-8 -84.5q0 -30 6.5 -54.5t22.5 -42t42.5 -27t66.5 -9.5zM1190 1079q-43 0 -76.5 -15.5t-59 -41.5t-44.5 -59t-32 -67.5t-22 -68.5t-15 -61l-25 -113l374 64l22 96q8 37 14 72.5t6 67.5
q0 27 -6.5 50.5t-22.5 40t-43.5 26t-69.5 9.5z" />
    <glyph glyph-name="Thorn" unicode="&#xde;" horiz-adv-x="908" 
d="M618 1521l-71 -321h165q63 0 114 -12t87 -39.5t55.5 -71.5t19.5 -108q0 -58 -16 -128l-39 -180q-24 -108 -62.5 -178.5t-92.5 -112t-122.5 -58t-152.5 -16.5h-153l-65 -296h-154l333 1521h154zM817 841q11 50 11 85q0 63 -34.5 94.5t-112.5 31.5h-166l-133 -609h151
q54 0 94 11.5t69 37t48.5 67t33.5 102.5z" />
    <glyph glyph-name="semicolon" unicode=";" horiz-adv-x="338" 
d="M83 50q0 54 28 86t91 32q44 0 62.5 -23t18.5 -58q0 -43 -13 -84.5t-34 -78.5t-46.5 -69t-49.5 -57l-65 39q18 21 31 39.5t23 35.5t17.5 34t14.5 37q-78 0 -78 67zM312 1096q0 53 27 85.5t92 32.5q44 0 63.5 -17t19.5 -50q0 -58 -29.5 -88t-93.5 -30q-42 0 -60.5 17.5
t-18.5 49.5z" />
    <glyph glyph-name="backslash" unicode="\" horiz-adv-x="666" 
d="M410 1599h150l17 -1679h-151z" />
    <glyph glyph-name="oe" unicode="&#x153;" horiz-adv-x="1400" 
d="M1368 406l-5 -21q-15 -74 -40 -146t-70.5 -129t-119 -92t-185.5 -35q-96 0 -151 28.5t-80 75.5q-47 -48 -113.5 -76t-161.5 -28q-77 0 -127.5 18.5t-80 51t-41.5 76.5t-12 95q0 50 9 103.5t20 107.5l73 332q12 56 28 111.5t38.5 105.5t53.5 93.5t74.5 75t101 49.5
t132.5 18q95 0 149.5 -28t80.5 -76q47 48 114 76t162 28q79 0 130 -18t81 -49.5t41.5 -73t11.5 -89.5q0 -43 -7 -88t-17 -90l-15 -67l-30 -137l-525 -87l-19 -85l-11 -50q-7 -34 -12 -65.5t-5 -60.5t6.5 -53.5t22.5 -42t42.5 -27t66.5 -9.5q63 0 103 20.5t65 55.5t39.5 81.5
t26.5 99.5l5 21h151zM680 1076q-63 0 -104 -24.5t-67.5 -66.5t-43 -98.5t-30.5 -119.5l-73 -333q-11 -48 -19 -92.5t-8 -82.5q0 -29 6.5 -53t22 -41.5t41.5 -27t66 -9.5q63 0 104 24.5t67.5 66.5t43 98t30.5 119l72 333q11 48 19 93t8 83q0 29 -6.5 53t-22 41.5t-41.5 27
t-65 9.5zM1186 1076q-57 0 -96 -20t-65.5 -55t-43.5 -82.5t-30 -102.5l-10 -49l-25 -113l368 64l21 95q8 37 14.5 72t6.5 67q0 27 -6.5 49.5t-22.5 39t-43 26t-68 9.5z" />
    <glyph glyph-name="questiondown" unicode="&#xbf;" horiz-adv-x="859" 
d="M120.992 -63.9961q0 99.9941 27.499 179.489q27.498 79.4951 69.9951 145.491q42.498 65.9961 93.9941 122.992q51.4971 56.9961 99.4941 112.493t85.9951 112.993q37.9971 57.4961 52.9971 124.492l21.998 91.9941h131.992l-19.999 -93.9941
q-17.999 -84.9941 -54.9961 -151.99q-36.998 -66.9961 -81.9951 -124.992q-44.9971 -57.9971 -92.4941 -110.994q-47.498 -52.9961 -86.9951 -109.493q-39.498 -56.4961 -64.4961 -120.992t-24.998 -145.491q0 -71.9961 30.498 -109.993q30.498 -37.998 98.4932 -37.998
q78.9961 0 125.493 42.998q46.4971 42.9971 66.4951 109.993l37.998 127.992h146.991l-15.999 -77.9951q-15.999 -74.9961 -46.4971 -138.992t-77.9951 -110.993t-113.493 -73.4951q-65.9961 -26.499 -152.991 -26.499q-121.992 0 -189.488 62.4971
q-67.4961 62.4961 -67.4961 200.487zM807.951 1156.93q0 -50.9971 -26.999 -84.4951q-26.998 -33.498 -91.9941 -33.498q-43.9971 0 -63.4961 16.999t-19.499 49.9971q0 57.9961 29.498 87.9941q29.498 29.999 93.4941 29.999q78.9961 0 78.9961 -66.9961z" />
    <glyph glyph-name="brokenbar" unicode="&#xa6;" horiz-adv-x="658" 
d="M323 830l169 773h155l-169 -773h-155zM450 702l-171 -784h-155l171 784h155z" />
    <glyph glyph-name="Oslash" unicode="&#xd8;" horiz-adv-x="870" 
d="M771 1537l1 1q79 0 131 -19.5t83 -53t43.5 -79.5t12.5 -99q0 -47 -7.5 -96.5t-18.5 -99.5l-144 -660q-18 -84 -47 -164.5t-79 -143.5t-126 -101.5t-188 -38.5l-1 1v-1q-80 0 -132 19.5t-82.5 54t-43 80.5t-12.5 99q0 46 7 95t18 99l144 660q18 84 47 164.5t79 143.5
t126 101.5t189 38.5v-1zM739 1391q-63 0 -105.5 -23.5t-71 -64.5t-46 -96t-31.5 -118l-144 -658q-10 -43 -17 -83.5t-7 -75.5q0 -31 7 -57t24 -45t45 -29.5t70 -10.5q63 0 105.5 23.5t71 64.5t46.5 96.5t32 118.5l143 657q10 44 17 84.5t7 75.5q0 31 -7 57t-23.5 44.5
t-44.5 29t-70 10.5h-1zM259 -80h-150l831 1679h151z" />
    <glyph glyph-name="germandbls" unicode="&#xdf;" horiz-adv-x="850" 
d="M591 944h55q55 1 91.5 20.5t59.5 48t35.5 62.5t20.5 66l9 40q4 18 7.5 38.5t3.5 42.5q0 25 -6 48.5t-21.5 42.5t-42.5 30.5t-69 11.5q-63 0 -105 -24.5t-70.5 -67t-46 -98.5t-31.5 -119l-237 -1085l-154 -1l237 1084q12 56 28.5 111.5t40 106t56.5 93.5t77.5 75t103 50
t133.5 18q80 0 131 -21t80 -54.5t40 -76.5t11 -87q0 -32 -4.5 -63t-9.5 -57l-8 -36q-8 -39 -23.5 -78t-40 -75t-59 -66t-82.5 -51q57 -31 80 -83t23 -121q0 -35 -5 -72t-14 -77l-16 -71q-19 -84 -48 -165.5t-78.5 -146t-125.5 -104t-189 -39.5l31 144q63 0 105.5 24.5
t71.5 66.5t47 98t33 119l17 75q10 41 16.5 77.5t6.5 68.5q0 30 -7.5 55t-25 42.5t-46.5 27t-72 9.5h-44z" />
    <glyph glyph-name="Germandbls" unicode="&#x1e9e;" horiz-adv-x="897" 
d="M640 938l293 445h-167q-63 0 -105.5 -24.5t-71 -66.5t-46 -98t-31.5 -119l-235 -1074l-154 -1l235 1076q18 84 47 165.5t79 146t125.5 104t188.5 39.5l322 -1l-33 -149l-313 -467q46 -12 77.5 -34.5t51 -53.5t28 -69.5t8.5 -82.5q0 -36 -5 -74.5t-13 -79.5l-16 -71
q-18 -84 -47.5 -166t-79.5 -146t-127 -103.5t-189 -39.5l31 146q63 0 105.5 25t71.5 67t47.5 98t33.5 119l15 72q10 41 16.5 77.5t6.5 68.5q0 30 -7.5 55t-25 42.5t-46 27t-71.5 9.5h-28z" />
    <glyph glyph-name="zerooldstyle.001" horiz-adv-x="882" 
d="M208 422l77 357q19 84 45 163.5t72.5 141t119.5 99t186 37.5q76 0 125.5 -17.5t79 -48.5t41 -72.5t11.5 -90.5t-8.5 -102.5t-20.5 -108.5l-78 -356q-12 -56 -27 -110.5t-37 -103.5t-52.5 -90.5t-73 -72t-99.5 -47.5t-132 -17q-76 0 -126 17.5t-79 48.5t-41 73t-12 91
t8.5 102t20.5 107zM469 130q63 0 102.5 22.5t64.5 62t40 93.5t29 117l51 230q6 27 11 52t10 49l-439 -478q-1 -28 3 -54.5t18 -47.5t40 -33.5t70 -12.5zM675 1073q-62 0 -101.5 -22.5t-64.5 -62.5t-40 -93.5t-29 -116.5l-51 -228l-20 -94l437 472q1 27 -3 53.5t-18 46.5
t-40.5 32.5t-69.5 12.5z" />
    <glyph glyph-name="guilsinglleft" unicode="&#x2039;" horiz-adv-x="463" 
d="M281 188l-94 402l270 404h154l-275 -404l99 -402h-154z" />
    <glyph glyph-name="guillemotright" unicode="&#xbb;" horiz-adv-x="749" 
d="M98 188l280 402l-94 404h151l89 -404l-275 -402h-151zM429 188l280 402l-94 404h151l89 -404l-275 -402h-151z" />
    <glyph glyph-name="logicalnot" unicode="&#xac;" horiz-adv-x="832" 
d="M733 635h-493l30 136h629l-84 -382h-135z" />
    <glyph glyph-name="ellipsis" unicode="&#x2026;" horiz-adv-x="1142" 
d="M119 50q0 53 27 85.5t92 32.5q44 0 63.5 -17t19.5 -50q0 -58 -29.5 -88t-93.5 -30q-42 0 -60.5 17.5t-18.5 49.5zM484 50q0 52 27 85t92 33q45 0 64 -17t19 -49q0 -59 -29 -89t-94 -30q-79 0 -79 67zM850 50q0 52 27 85t92 33q44 0 63.5 -17t19.5 -49q0 -59 -29.5 -89
t-94.5 -30q-78 0 -78 67z" />
    <glyph glyph-name="Lambda" unicode="&#x39b;" horiz-adv-x="855" 
d="M181 0h-158l612 1521h251l-55 -1521h-158l61 1373h-10z" />
    <glyph glyph-name="Csmall" unicode="&#xf763;" horiz-adv-x="828" 
d="M685 392h151l-3 -14q-15 -69 -39.5 -139t-70 -127t-118.5 -93t-185 -36q-77 0 -127.5 18.5t-80 51t-41.5 76.5t-12 95q0 50 8.5 103.5t20.5 107.5l64 294l25 110q18 77 47 146.5t76.5 121.5t117.5 82.5t171 30.5q79 0 130 -18.5t81 -49.5t41.5 -72.5t11.5 -87.5
q0 -41 -6.5 -83t-15.5 -83l-3 -16h-152l4 16q8 32 14 64.5t6 61.5q0 26 -6.5 49t-23 39.5t-43.5 26t-69 9.5q-63 0 -104 -24.5t-67.5 -66.5t-43 -98.5t-30.5 -119.5l-59 -271q-14 -62 -25.5 -117t-14.5 -103q-1 -30 4.5 -57t20.5 -47.5t41.5 -32t68.5 -11.5q63 0 103.5 21
t66.5 55.5t40 80t23 93.5z" />
    <glyph glyph-name="cacute" unicode="&#x107;" horiz-adv-x="828" 
d="M991 1573l-215 -254h-121l185 254h151zM685 392h151l-3 -14q-15 -69 -39.5 -139t-70 -127t-118.5 -93t-185 -36q-77 0 -127.5 18.5t-80 51t-41.5 76.5t-12 95q0 50 8.5 103.5t20.5 107.5l64 294l25 110q18 77 47 146.5t76.5 121.5t117.5 82.5t171 30.5q79 0 130 -18.5
t81 -49.5t41.5 -72.5t11.5 -87.5q0 -41 -6.5 -83t-15.5 -83l-3 -16h-152l4 16q8 32 14 64.5t6 61.5q0 26 -6.5 49t-23 39.5t-43.5 26t-69 9.5q-63 0 -104 -24.5t-67.5 -66.5t-43 -98.5t-30.5 -119.5l-59 -271q-14 -62 -25.5 -117t-14.5 -103q-1 -30 4.5 -57t20.5 -47.5
t41.5 -32t68.5 -11.5q63 0 103.5 21t66.5 55.5t40 80t23 93.5z" />
    <glyph glyph-name="Alpha" unicode="&#x391;" horiz-adv-x="827" 
d="M626 1521h223l-46 -1521h-156l15 336h-367l-131 -336h-157zM351 477h317l41 900h-6z" />
    <glyph glyph-name="afii10017" unicode="&#x410;" horiz-adv-x="827" 
d="M626 1521h223l-46 -1521h-156l15 336h-367l-131 -336h-157zM351 477h317l41 900h-6z" />
    <glyph glyph-name="ccedilla" unicode="&#xe7;" horiz-adv-x="828" 
d="M237 -217q12 -10 23 -18t24.5 -13.5t31 -8.5t42.5 -3q44 0 71.5 18.5t27.5 51.5q0 24 -25.5 34t-55.5 10q-22 0 -44 -5l38 178h90l-22 -96q6 1 13 2q6 1 14.5 2t18.5 1q40 0 67.5 -28t27.5 -74q0 -45 -19.5 -79t-52 -56t-75.5 -33t-89 -11q-56 0 -93.5 17.5t-56.5 46.5z
M685 392h151l-3 -14q-15 -69 -39.5 -139t-70 -127t-118.5 -93t-185 -36q-77 0 -127.5 18.5t-80 51t-41.5 76.5t-12 95q0 50 8.5 103.5t20.5 107.5l64 294l25 110q18 77 47 146.5t76.5 121.5t117.5 82.5t171 30.5q79 0 130 -18.5t81 -49.5t41.5 -72.5t11.5 -87.5
q0 -41 -6.5 -83t-15.5 -83l-3 -16h-152l4 16q8 32 14 64.5t6 61.5q0 26 -6.5 49t-23 39.5t-43.5 26t-69 9.5q-63 0 -104 -24.5t-67.5 -66.5t-43 -98.5t-30.5 -119.5l-59 -271q-14 -62 -25.5 -117t-14.5 -103q-1 -30 4.5 -57t20.5 -47.5t41.5 -32t68.5 -11.5q63 0 103.5 21
t66.5 55.5t40 80t23 93.5z" />
    <glyph glyph-name="ccaron" unicode="&#x10d;" horiz-adv-x="828" 
d="M676 1517l44 -145l110 145h134l-188 -233h-150l-86 233h136zM685 392h151l-3 -14q-15 -69 -39.5 -139t-70 -127t-118.5 -93t-185 -36q-77 0 -127.5 18.5t-80 51t-41.5 76.5t-12 95q0 50 8.5 103.5t20.5 107.5l64 294l25 110q18 77 47 146.5t76.5 121.5t117.5 82.5
t171 30.5q79 0 130 -18.5t81 -49.5t41.5 -72.5t11.5 -87.5q0 -41 -6.5 -83t-15.5 -83l-3 -16h-152l4 16q8 32 14 64.5t6 61.5q0 26 -6.5 49t-23 39.5t-43.5 26t-69 9.5q-63 0 -104 -24.5t-67.5 -66.5t-43 -98.5t-30.5 -119.5l-59 -271q-14 -62 -25.5 -117t-14.5 -103
q-1 -30 4.5 -57t20.5 -47.5t41.5 -32t68.5 -11.5q63 0 103.5 21t66.5 55.5t40 80t23 93.5z" />
    <glyph glyph-name="cdotaccent" unicode="&#x10b;" horiz-adv-x="828" 
d="M627 1382q0 52 27.5 85t92.5 33q44 0 63.5 -17t19.5 -50q0 -59 -29.5 -89t-93.5 -30q-41 0 -60.5 18t-19.5 50zM685 392h151l-3 -14q-15 -69 -39.5 -139t-70 -127t-118.5 -93t-185 -36q-77 0 -127.5 18.5t-80 51t-41.5 76.5t-12 95q0 50 8.5 103.5t20.5 107.5l64 294
l25 110q18 77 47 146.5t76.5 121.5t117.5 82.5t171 30.5q79 0 130 -18.5t81 -49.5t41.5 -72.5t11.5 -87.5q0 -41 -6.5 -83t-15.5 -83l-3 -16h-152l4 16q8 32 14 64.5t6 61.5q0 26 -6.5 49t-23 39.5t-43.5 26t-69 9.5q-63 0 -104 -24.5t-67.5 -66.5t-43 -98.5t-30.5 -119.5
l-59 -271q-14 -62 -25.5 -117t-14.5 -103q-1 -30 4.5 -57t20.5 -47.5t41.5 -32t68.5 -11.5q63 0 103.5 21t66.5 55.5t40 80t23 93.5z" />
    <glyph glyph-name="dollar" unicode="$" horiz-adv-x="869" 
d="M854 372q-35 -164 -119.5 -263t-229.5 -120l-22 -104h-155l22 103q-57 7 -95.5 25t-62.5 46t-34 64.5t-10 81.5q0 39 6.5 83t17.5 92l13 57h152l-11 -51q-9 -38 -14 -70.5t-5 -59.5q0 -64 34 -95t117 -31q53 0 93.5 18t70 50t48.5 76t29 97l2 11q5 27 7.5 51t2.5 45
q0 63 -24 106.5t-76 78.5l-126 87q-40 28 -69 56.5t-48 59t-28 65.5t-9 76q0 62 21 146l5 21q35 153 118 243.5t213 113.5l23 105h155l-23 -103q102 -17 147.5 -77.5t45.5 -158.5q0 -59 -15 -129l-18 -82l-154 1l22 105q4 17 5.5 33t1.5 31q0 30 -7.5 54.5t-24 42.5t-43 28
t-63.5 10q-52 0 -91 -18.5t-67.5 -50t-47 -74.5t-27.5 -91l-6 -34q-2 -13 -3.5 -25t-1.5 -24q0 -60 27.5 -108t77.5 -81l122 -81q80 -54 115.5 -121.5t35.5 -155.5q0 -29 -3.5 -59.5t-10.5 -64.5z" />
    <glyph glyph-name="a.end" horiz-adv-x="919" 
d="M624 0l29 133q-38 -67 -95 -109t-143 -42q-68 0 -113 17.5t-71.5 48t-37.5 72t-11 89.5q0 53 9.5 110.5t22.5 115.5l72 332q12 56 27 111.5t36 105.5t50 93.5t69.5 75t93.5 49.5t123 18q43 0 73.5 -11t51 -31t32 -47t16.5 -60l29 131h151l-263 -1202h-151zM475 127
q55 0 94 23t66.5 62t45.5 89.5t32 105.5l85 390q7 35 11.5 68.5t4.5 64.5t-6 57.5t-21 46t-40.5 30.5t-63.5 11q-63 0 -104 -24.5t-67.5 -66.5t-43 -98t-30.5 -119l-72 -334q-11 -48 -19 -92t-8 -82q0 -29 6.5 -53.5t22 -42t42 -27t65.5 -9.5z" />
    <glyph glyph-name="kgreenlandic" unicode="&#x138;" horiz-adv-x="827" 
d="M542 1201l-115 -525h105l360 526h157l-420 -601l196 -601h-169l-158 529h-103l-116 -529h-152l263 1201h152z" />
    <glyph glyph-name="Ksmall" unicode="&#xf76b;" horiz-adv-x="827" 
d="M542 1201l-115 -525h105l360 526h157l-420 -601l196 -601h-169l-158 529h-103l-116 -529h-152l263 1201h152z" />
    <glyph glyph-name="Vsmall" unicode="&#xf776;" horiz-adv-x="738" 
d="M991 1203l-509 -1203h-227l17 1203h156l-35 -1059h13l429 1059h156z" />
    <glyph glyph-name="Asmall" unicode="&#xf761;" horiz-adv-x="785" 
d="M55 0l496 1203h247l-30 -1203h-157l9 252h-308l-100 -252h-157zM366 386h259l26 673h-18z" />
    <glyph glyph-name="mu" unicode="&#xb5;" horiz-adv-x="918" 
d="M1061 1202l-167 -768q-12 -54 -26.5 -108.5t-35 -104.5t-49 -93.5t-68 -75.5t-92.5 -50.5t-122 -18.5q-43 0 -74.5 11t-53 31.5t-33.5 48.5t-16 62l-109 -501h-152l342 1567h152l-160 -733q-11 -51 -19 -99.5t-8 -91.5q0 -33 6 -60.5t20.5 -48t39 -31.5t61.5 -11
q66 0 107.5 25.5t68 68.5t41.5 98t28 114l169 769h150z" />
    <glyph glyph-name="Beta" unicode="&#x392;" horiz-adv-x="898" 
d="M762 511q6 30 6 57q0 67 -37.5 110t-112.5 43h-172l-126 -573h174q42 0 78.5 7.5t67.5 32.5t55 72t41 127zM884 1173q8 40 8 72q0 29 -7 53.5t-23 42.5t-41.5 28t-62.5 10h-168l-113 -518h151q104 0 159 55t77 160zM890 389q-24 -106 -59.5 -180t-87.5 -120t-121 -67
t-160 -21h-327l332 1520h326q125 0 193 -55t68 -171q0 -26 -3.5 -53.5t-10.5 -59.5l-20 -94q-26 -116 -78 -192t-145 -99q62 -16 96 -68t34 -130q0 -43 -10 -87z" />
    <glyph glyph-name="Epsilon" unicode="&#x395;" horiz-adv-x="770" 
d="M128 0l333 1519l589 2l-32 -148l-436 -2l-113 -518h366l-33 -147h-365l-123 -559h434l-31 -147h-589z" />
    <glyph glyph-name="Osmall" unicode="&#xf76f;" horiz-adv-x="840" 
d="M258 767q12 56 28 111.5t38.5 105.5t53.5 93.5t74.5 75t101.5 49.5t133 18q76 0 126 -18.5t79 -51t41 -76t12 -94.5q0 -50 -8.5 -104t-20.5 -108l-72 -332q-13 -56 -28.5 -111.5t-38 -105.5t-53.5 -93.5t-74 -75t-100.5 -49.5t-132.5 -18q-77 0 -127 18.5t-79.5 51
t-41.5 76t-12 94.5q0 50 8.5 104t20.5 108zM655 1076q-63 0 -104 -24.5t-67.5 -66.5t-43 -98.5t-30.5 -119.5l-73 -333q-11 -48 -19 -92t-8 -82q0 -29 6.5 -53.5t22 -42t42 -27t66.5 -9.5q63 0 103.5 24.5t67 66t42.5 97.5t30 119l73 334q11 48 19.5 93t8.5 83q0 29 -6.5 53
t-22 41.5t-42 27t-65.5 9.5z" />
    <glyph glyph-name="afii10019" unicode="&#x412;" horiz-adv-x="898" 
d="M762 511q6 30 6 57q0 67 -37.5 110t-112.5 43h-172l-126 -573h174q42 0 78.5 7.5t67.5 32.5t55 72t41 127zM884 1173q8 40 8 72q0 29 -7 53.5t-23 42.5t-41.5 28t-62.5 10h-168l-113 -518h151q104 0 159 55t77 160zM890 389q-24 -106 -59.5 -180t-87.5 -120t-121 -67
t-160 -21h-327l332 1520h326q125 0 193 -55t68 -171q0 -26 -3.5 -53.5t-10.5 -59.5l-20 -94q-26 -116 -78 -192t-145 -99q62 -16 96 -68t34 -130q0 -43 -10 -87z" />
    <glyph glyph-name="Gamma" unicode="&#x393;" horiz-adv-x="713" 
d="M586 1374l-300 -1374h-154l333 1521h581l-32 -147h-428z" />
    <glyph glyph-name="Zeta" unicode="&#x396;" horiz-adv-x="738" 
d="M49 0l30 138l742 1233h-446l31 148h621l-29 -131l-749 -1241h474l-31 -147h-643z" />
    <glyph glyph-name="Eta" unicode="&#x397;" horiz-adv-x="951" 
d="M134 0l333 1521h154l-149 -681h375l149 681h154l-332 -1521h-154l151 692h-375l-151 -692h-155z" />
    <glyph glyph-name="Iota" unicode="&#x399;" horiz-adv-x="424" 
d="M135 0l333 1521h155l-333 -1521h-155z" />
    <glyph glyph-name="Kappa" unicode="&#x39a;" horiz-adv-x="880" 
d="M133 0l333 1521h155l-149 -681h121l427 679h167l-462 -747l156 -772h-166l-150 692h-126l-151 -692h-155z" />
    <glyph glyph-name="Mu" unicode="&#x39c;" horiz-adv-x="1212" 
d="M565 1332l-275 -1332h-155l333 1521h221l19 -1067l486 1067h221l-333 -1521h-155l305 1326l-498 -1103h-152z" />
    <glyph glyph-name="Omicron" unicode="&#x39f;" horiz-adv-x="839" 
d="M770 1537l1 1q79 0 131 -19.5t83 -53t43.5 -79.5t12.5 -99q0 -47 -7.5 -96.5t-18.5 -99.5l-144 -660q-18 -84 -47 -164.5t-79 -143.5t-126 -101.5t-188 -38.5l-1 1v-1q-80 0 -132 19.5t-82.5 54t-43 80.5t-12.5 99q0 46 7 95t18 99l144 660q18 84 47 164.5t79 143.5
t126 101.5t189 38.5v-1zM738 1391q-63 0 -105.5 -23.5t-71 -64.5t-46 -96t-31.5 -118l-144 -658q-10 -43 -17 -83.5t-7 -75.5q0 -31 7 -57t24 -45t45 -29.5t70 -10.5q63 0 105.5 23.5t71 64.5t46.5 96.5t32 118.5l143 657q10 44 17 84.5t7 75.5q0 31 -7 57t-23.5 44.5
t-44.5 29t-70 10.5h-1z" />
    <glyph glyph-name="Rho" unicode="&#x3a1;" horiz-adv-x="921" 
d="M997 942q-24 -108 -62.5 -178t-92.5 -111.5t-123 -58t-153 -16.5h-153l-126 -578h-154l333 1521h317q64 0 115.5 -12t87.5 -39.5t55.5 -72t19.5 -108.5q0 -28 -4 -59.5t-12 -67.5zM889 1162q11 49 11 83q0 63 -34.5 94.5t-112.5 31.5h-166l-142 -646h151q54 0 94 11.5
t69.5 37t49 67.5t33.5 102z" />
    <glyph glyph-name="Tau" unicode="&#x3a4;" horiz-adv-x="720" 
d="M736 1371l-300 -1371h-154l300 1371h-270l31 148h695l-31 -148h-271z" />
    <glyph glyph-name="Upsilon" unicode="&#x3a5;" horiz-adv-x="767" 
d="M591 592l-130 -592h-153l130 592l-104 927h168l62 -708l378 708h156z" />
    <glyph glyph-name="Chi" unicode="&#x3a7;" horiz-adv-x="861" 
d="M664 0l-100 631l-368 -631h-173l476 791l-119 730h169l90 -575l340 575h168l-444 -732l134 -789h-173z" />
    <glyph glyph-name="Pi" unicode="&#x3a0;" horiz-adv-x="946" 
d="M132 0l332 1521h684l-332 -1521h-155l300 1373h-375l-300 -1373h-154z" />
    <glyph glyph-name="Xi" unicode="&#x39e;" horiz-adv-x="823" 
d="M448 1521l592 1l-32 -147l-592 -1zM369 853h456l-32 -147h-456zM146 147h592l-31 -147h-592z" />
    <glyph glyph-name="registered" unicode="&#xae;" horiz-adv-x="1392" 
d="M1400 439q-39 -179 -112 -301.5t-172 -199t-218.5 -110t-251.5 -33.5q-110 0 -201 23.5t-156.5 75t-102 134t-36.5 200.5q0 48 6.5 101.5t19.5 113.5l105 477q39 178 111.5 300.5t170.5 198t217.5 109.5t251.5 34h1h2q109 0 200.5 -23.5t157 -75t102 -133.5t36.5 -200
q0 -92 -26 -214zM677 -82q106 1 200 29t170 89.5t132.5 160t87.5 240.5l105 480q22 98 22 180q0 93 -28 158t-79 106t-122 60t-158 19q-107 0 -201 -28t-171 -89.5t-133.5 -160.5t-87.5 -241l-105 -479q-11 -52 -17 -97.5t-6 -86.5q0 -93 27.5 -157.5t78 -105t122 -59
t160.5 -18.5h3zM419 108l252 1151h291q137 0 198.5 -52t61.5 -153q0 -26 -3.5 -53.5t-10.5 -59.5l-9 -42q-22 -100 -83.5 -174.5t-146.5 -114.5q43 -29 67 -67t24 -103q0 -38 -9 -90l-45 -242h-137l42 232q4 19 5.5 36t1.5 32q0 44 -12.5 73t-32 47.5t-43.5 27.5t-48 14
h-124l-101 -462h-138zM1070 943q9 39 9 68q0 33 -10.5 55.5t-29.5 36t-46 19.5t-60 6h-153l-93 -426h150q88 0 145 51t79 146z" />
    <glyph glyph-name="Xsmall" unicode="&#xf778;" horiz-adv-x="783" 
d="M600 0l-104 486l-319 -486h-151l410 625l-132 577h161l95 -447l296 447h149l-382 -577l137 -625h-160z" />
    <glyph glyph-name="Rsmall" unicode="&#xf772;" horiz-adv-x="868" 
d="M128 0l262 1202h307q144 0 208.5 -54.5t64.5 -161.5q0 -50 -14 -117l-9 -45q-23 -104 -87 -182t-152 -120q23 -16 40 -32.5t28 -38t16.5 -49.5t5.5 -66q0 -18 -1.5 -38.5t-3.5 -44.5l-9 -93q-2 -14 -2 -26v-23q0 -32 3.5 -58.5t10.5 -52.5h-158q-4 18 -6.5 42t-2.5 54
q0 27 3 59l8 94q2 13 2 25v23q0 51 -11 84t-29.5 53t-43 29.5t-50.5 14.5h-125l-104 -478h-151zM805 870q5 20 6.5 36.5t1.5 31.5q0 34 -10.5 57t-29.5 37t-46 20t-61 6h-156l-96 -435h153q90 0 147.5 52t80.5 149z" />
    <glyph glyph-name="ordfeminine" unicode="&#xaa;" horiz-adv-x="703" 
d="M628 782l21 96q-29 -53 -69 -83.5t-94 -30.5q-51 0 -85.5 10.5t-56 31t-31 49.5t-9.5 66q0 26 4 55t11 61l39 176q16 71 36 131t52.5 103t82.5 67t126 24q54 0 80.5 -28.5t33.5 -78.5l20 90h137l-161 -739h-137zM537 890q58 0 92.5 34t50.5 106l41 187q7 32 11.5 58.5
t4.5 49.5q0 42 -18.5 65t-66.5 23q-38 0 -63.5 -14t-43.5 -39.5t-29.5 -61.5t-21.5 -80l-29 -132q-14 -62 -14 -105t18.5 -67t67.5 -24zM278 703h465l-26 -123h-466z" />
    <glyph glyph-name="Delta" unicode="&#x394;" horiz-adv-x="826" 
d="M10 0l612 1521h251l-55 -1521h-808zM226 148h440l54 1225h-9z" />
    <glyph glyph-name="Bsmall" unicode="&#xf762;" horiz-adv-x="881" 
d="M681 1202q143 0 212 -54t69 -157q0 -53 -18 -119l-2 -7q-26 -94 -78.5 -156t-125.5 -96q54 -29 83.5 -79t29.5 -123q0 -17 -2 -34.5t-5 -36.5l-1 -7q-30 -166 -128 -249.5t-278 -83.5h-306l262 1202h288zM693 340q9 36 9 67q0 65 -38.5 100t-110.5 35h-152l-56 -254
l-32 -144h155q41 0 76.5 9t64 31t49.5 58t33 90zM789 873q6 34 6 61q0 36 -10 59.5t-29 38t-46 20.5t-61 6h-136l-83 -379h133q91 0 146.5 44.5t78.5 141.5z" />
    <glyph glyph-name="Psmall" unicode="&#xf770;" horiz-adv-x="827" 
d="M805 870q5 20 6.5 36.5t1.5 31.5q0 34 -10.5 57t-29.5 37t-46 20t-61 6h-156l-104 -475h153q89 0 147 52t80 149zM128 0l262 1202h307q144 0 208.5 -54.5t64.5 -161.5q0 -50 -14 -117l-18 -85q-19 -89 -60.5 -154.5t-98.5 -108t-126.5 -63t-144.5 -20.5h-134l-95 -438
h-151z" />
    <glyph glyph-name="afii10067" unicode="&#x432;" horiz-adv-x="881" 
d="M681 1202q143 0 212 -54t69 -157q0 -53 -18 -119l-2 -7q-26 -94 -78.5 -156t-125.5 -96q54 -29 83.5 -79t29.5 -123q0 -17 -2 -34.5t-5 -36.5l-1 -7q-30 -166 -128 -249.5t-278 -83.5h-306l262 1202h288zM693 340q9 36 9 67q0 65 -38.5 100t-110.5 35h-152l-56 -254
l-32 -144h155q41 0 76.5 9t64 31t49.5 58t33 90zM789 873q6 34 6 61q0 36 -10 59.5t-29 38t-46 20.5t-61 6h-136l-83 -379h133q91 0 146.5 44.5t78.5 141.5z" />
    <glyph glyph-name="commaaccent" unicode="&#xf6c3;" horiz-adv-x="404" 
d="M84 -158q0 47 24 73.5t78 26.5q38 0 55 -19t17 -51q0 -38 -11.5 -73.5t-29.5 -67t-40.5 -59.5t-43.5 -50l-57 33q16 20 28 36t20.5 31t15 30t12.5 33q-68 0 -68 57z" />
    <glyph glyph-name="Kcommaaccent" unicode="&#x136;" horiz-adv-x="880" 
d="M133 0l333 1521h155l-149 -681h121l427 679h167l-462 -747l156 -772h-166l-150 692h-126l-151 -692h-155zM379 -158q0 47 24 73.5t78 26.5q38 0 55 -19t17 -51q0 -38 -11.5 -73.5t-29.5 -67t-40.5 -59.5t-43.5 -50l-57 33q16 20 28 36t20.5 31t15 30t12.5 33
q-68 0 -68 57z" />
    <glyph glyph-name="Lcommaaccent" unicode="&#x13b;" horiz-adv-x="721" 
d="M133 0l333 1521h154l-301 -1374h421l-31 -147h-576zM298 -158q0 47 24 73.5t78 26.5q38 0 55 -19t17 -51q0 -38 -11.5 -73.5t-29.5 -67t-40.5 -59.5t-43.5 -50l-57 33q16 20 28 36t20.5 31t15 30t12.5 33q-68 0 -68 57z" />
    <glyph glyph-name="daggerdbl" unicode="&#x2021;" horiz-adv-x="899" 
d="M457 382l124 560h-290l32 147h289l94 433h152l-95 -433h289l-31 -147h-289l-123 -560h289l-31 -147h-290l-93 -427h-151l93 427h-289l32 147h288z" />
    <glyph glyph-name="Theta" unicode="&#x398;" horiz-adv-x="870" 
d="M771 1537l1 1q79 0 131 -19.5t83 -53t43.5 -79.5t12.5 -99q0 -47 -7.5 -96.5t-18.5 -99.5l-144 -660q-18 -84 -47 -164.5t-79 -143.5t-126 -101.5t-188 -38.5l-1 1v-1q-80 0 -132 19.5t-82.5 54t-43 80.5t-12.5 99q0 46 7 95t18 99l144 660q18 84 47 164.5t79 143.5
t126 101.5t189 38.5v-1zM739 1391q-63 0 -105.5 -23.5t-71 -64.5t-46 -96t-31.5 -118l-57 -259h376l57 260q10 44 17 84.5t7 75.5q0 31 -7 57t-23.5 44.5t-44.5 29t-70 10.5h-1zM463 130q2 0 3 -0.5t3 -0.5q61 1 102.5 25t69.5 65.5t45.5 96t31.5 117.5l54 250h-376
l-55 -252q-10 -43 -17 -83.5t-7 -75.5q0 -31 7 -57t24 -45t45 -29.5t70 -10.5z" />
    <glyph glyph-name="Tsmall" unicode="&#xf774;" horiz-adv-x="626" 
d="M620 1057l-231 -1057h-151l232 1057h-235l32 145h618l-31 -145h-234z" />
    <glyph glyph-name="Ssmall" unicode="&#xf773;" horiz-adv-x="760" 
d="M778 381q0 -87 -27.5 -160t-79.5 -126t-128 -82.5t-173 -29.5q-72 0 -121 16.5t-79.5 46.5t-44 73t-13.5 96q0 34 5 71t14 78h152q-5 -24 -8.5 -47.5t-3.5 -46.5q0 -30 6.5 -55.5t21.5 -45t40 -30.5t61 -11q54 0 94 17t66.5 46t40 68.5t13.5 83.5q0 52 -27 89.5
t-67.5 68.5t-88 61t-88 66.5t-67.5 85t-27 116.5q0 89 26.5 161t77.5 123t124.5 78.5t168.5 27.5q122 0 185.5 -51.5t63.5 -169.5q0 -30 -4.5 -64t-12.5 -73h-151q11 49 11 88q0 56 -27.5 91t-95.5 35q-45 0 -82.5 -17t-65 -45.5t-43 -66t-15.5 -77.5q0 -49 27.5 -85.5
t68.5 -68t88.5 -62t88.5 -68.5t68.5 -87t27.5 -118z" />
    <glyph glyph-name="Ismall" unicode="&#xf769;" horiz-adv-x="408" 
d="M129 0l262 1202h153l-263 -1202h-152z" />
    <glyph glyph-name="Zsmall" unicode="&#xf77a;" horiz-adv-x="715" 
d="M45 0l28 130l653 932h-419l29 140h589l-28 -129l-653 -930h445l-31 -143h-613z" />
    <glyph glyph-name="Iotadieresis" unicode="&#x3aa;" horiz-adv-x="424" 
d="M135 0l333 1521h155l-333 -1521h-155zM388 1707q0 46 23 77.5t79 31.5q37 0 53.5 -15.5t16.5 -44.5q0 -53 -25 -81t-81 -28q-35 0 -50.5 15.5t-15.5 44.5zM602 1707q0 23 5.5 43t17.5 34.5t31.5 23t47.5 8.5q38 0 54 -15.5t16 -44.5q0 -53 -24.5 -81t-81.5 -28
q-34 0 -50 15.5t-16 44.5z" />
    <glyph glyph-name="Etatonos" unicode="&#x389;" horiz-adv-x="951" 
d="M134 0l333 1521h154l-149 -681h375l149 681h154l-332 -1521h-154l151 692h-375l-151 -692h-155zM403 1522l-75 -254h-110l43 254h142z" />
    <glyph glyph-name="Iotatonos" unicode="&#x38a;" horiz-adv-x="424" 
d="M135 0l333 1521h155l-333 -1521h-155zM693 1891l-75 -254h-110l43 254h142z" />
    <glyph glyph-name="Epsilontonos" unicode="&#x388;" horiz-adv-x="770" 
d="M128 0l333 1519l589 2l-32 -148l-436 -2l-113 -518h366l-33 -147h-365l-123 -559h434l-31 -147h-589zM396 1524l-75 -254h-110l43 254h142z" />
    <glyph glyph-name="Alphatonos" unicode="&#x386;" horiz-adv-x="827" 
d="M626 1521h223l-46 -1521h-156l15 336h-367l-131 -336h-157zM351 477h317l41 900h-6zM535 1521l-75 -254h-110l43 254h142z" />
    <glyph glyph-name="Phi" unicode="&#x3a6;" horiz-adv-x="1070" 
d="M458 0l27 123q-80 0 -132.5 19t-83.5 53t-43.5 79t-12.5 98q0 45 7 93.5t18 97.5l87 394q12 56 28.5 110t40 103t56 90.5t77.5 72t103 48t133 17.5l27 123h155l-27 -123q79 0 131.5 -19t83.5 -52.5t43.5 -79t12.5 -97.5q0 -45 -7 -93.5t-18 -98.5l-86 -394
q-18 -84 -47 -163.5t-78.5 -141t-125 -99t-187.5 -37.5l-27 -123h-155zM393 564q-9 -42 -16 -81t-7 -74q0 -31 7 -56.5t24 -44t45.5 -28.5t70.5 -10l214 981q-63 0 -105 -23t-70 -63t-45.5 -93.5t-31.5 -116.5zM1009 957q9 42 16 81.5t7 74.5q0 31 -7 56.5t-23.5 43.5
t-45 28t-70.5 10l-214 -982q62 0 104 23t70.5 63t46 94t31.5 117z" />
    <glyph glyph-name="Upsilondieresis" unicode="&#x3ab;" horiz-adv-x="767" 
d="M591 592l-130 -592h-153l130 592l-104 927h168l62 -708l378 708h156zM573 1707q0 46 23 77.5t79 31.5q37 0 53.5 -15.5t16.5 -44.5q0 -53 -25 -81t-81 -28q-35 0 -50.5 15.5t-15.5 44.5zM787 1707q0 23 5.5 43t17.5 34.5t31.5 23t47.5 8.5q38 0 54 -15.5t16 -44.5
q0 -53 -24.5 -81t-81.5 -28q-34 0 -50 15.5t-16 44.5z" />
    <glyph glyph-name="Upsilontonos" unicode="&#x38e;" horiz-adv-x="1013" 
d="M801 592l-130 -592h-153l130 592l-104 927h168l62 -708l378 708h156zM482 1539l-75 -254h-110l43 254h142z" />
    <glyph glyph-name="Sigma" unicode="&#x3a3;" horiz-adv-x="804" 
d="M679 738l-401 -591h474l-32 -147h-642l29 138l415 623l-138 622l30 138h629l-31 -147h-461l137 -592z" />
    <glyph glyph-name="afii10020" unicode="&#x413;" horiz-adv-x="764" 
d="M586 1374l-300 -1374h-154l333 1521h581l-32 -147h-428z" />
    <glyph glyph-name="lira" unicode="&#x20a4;" horiz-adv-x="865" 
d="M303 865h83q-3 63 -3 126q0 43 2 83.5t8 78.5q11 79 38 149.5t75 123.5t120 84t174 31q65 0 110.5 -15.5t74 -45.5t41 -73t12.5 -98q0 -39 -5.5 -83t-16.5 -93l-151 -1q4 26 7.5 57.5t3.5 63.5q0 28 -4.5 54t-16.5 45.5t-32.5 31.5t-52.5 12q-120 0 -180 -101.5
t-60 -303.5q0 -23 3 -56t6 -70h298l-26 -121h-264v-10q0 -66 -9 -129h243l-26 -120h-239q-28 -112 -74.5 -201t-100.5 -141q34 6 68 6q55 0 107.5 -9t103.5 -9q21 0 39 1t35.5 4.5t35.5 9.5t38 15l17 -128q-74 -46 -179 -46q-38 0 -77.5 4t-79 8.5t-80 8.5t-80.5 4
q-20 0 -49.5 -2.5t-55.5 -5.5l-64 -8l31 148q40 18 74 51.5t61.5 78.5t48 99t34.5 112h-148l26 120h140q3 48 3 103v36h-112z" />
    <glyph glyph-name="Omega" unicode="&#x3a9;" horiz-adv-x="917" 
d="M130 0l32 147h151l34 164q-59 27 -81 78.5t-22 116.5q0 61 13 128.5t27 132.5l70 323q18 84 47 164.5t79 143.5t126 101.5t189 38.5q79 0 131.5 -19.5t83 -53t43 -79.5t12.5 -99q0 -46 -7 -95.5t-18 -99.5l-70 -325q-15 -69 -33 -139.5t-47 -132.5t-73.5 -111t-112.5 -74
l-37 -163h152l-32 -147h-285l63 287l31 147q61 0 97.5 28.5t59 76t35.5 107.5t27 123l70 321q10 43 16.5 84t6.5 76q0 31 -7 57t-23.5 44.5t-44 29t-69.5 10.5h-1q-63 0 -105.5 -23.5t-71 -64.5t-46.5 -96.5t-32 -118.5l-70 -321q-13 -58 -27 -115.5t-14 -105.5
q0 -25 5.5 -45.5t18.5 -35.5t34.5 -23t53.5 -8l-31 -147h-1l-62 -287h-285z" />
    <glyph glyph-name="Psi" unicode="&#x3a8;" horiz-adv-x="1070" 
d="M458 0l90 411q-80 0 -132 19t-83 53t-43.5 79t-12.5 98q0 45 7 93.5t18 98.5l146 669l154 -1l-146 -667q-9 -42 -16 -81t-7 -74q0 -31 7 -56.5t24 -44t45.5 -28.5t70.5 -10l211 962h154l-211 -963q63 0 105 22.5t70.5 62.5t46 94t31.5 117l146 667l155 1l-146 -670
q-18 -84 -47 -163.5t-79 -141t-126 -99t-188 -37.5l-90 -411h-154z" />
    <glyph glyph-name="Omicrontonos" unicode="&#x38c;" horiz-adv-x="839" 
d="M770 1537l1 1q79 0 131 -19.5t83 -53t43.5 -79.5t12.5 -99q0 -47 -7.5 -96.5t-18.5 -99.5l-144 -660q-18 -84 -47 -164.5t-79 -143.5t-126 -101.5t-188 -38.5l-1 1v-1q-80 0 -132 19.5t-82.5 54t-43 80.5t-12.5 99q0 46 7 95t18 99l144 660q18 84 47 164.5t79 143.5
t126 101.5t189 38.5v-1zM738 1391q-63 0 -105.5 -23.5t-71 -64.5t-46 -96t-31.5 -118l-144 -658q-10 -43 -17 -83.5t-7 -75.5q0 -31 7 -57t24 -45t45 -29.5t70 -10.5q63 0 105.5 23.5t71 64.5t46.5 96.5t32 118.5l143 657q10 44 17 84.5t7 75.5q0 31 -7 57t-23.5 44.5
t-44.5 29t-70 10.5h-1zM426 1548l-75 -254h-110l43 254h142z" />
    <glyph glyph-name="afii10022" unicode="&#x415;" horiz-adv-x="770" 
d="M128 0l333 1519l589 2l-32 -148l-436 -2l-113 -518h366l-33 -147h-365l-123 -559h434l-31 -147h-589z" />
    <glyph glyph-name="afii10028" unicode="&#x41a;" horiz-adv-x="880" 
d="M133 0l333 1521h155l-149 -681h121l427 679h167l-462 -747l156 -772h-166l-150 692h-126l-151 -692h-155z" />
    <glyph glyph-name="afii10030" unicode="&#x41c;" horiz-adv-x="1212" 
d="M565 1332l-275 -1332h-155l333 1521h221l19 -1067l486 1067h221l-333 -1521h-155l305 1326l-498 -1103h-152z" />
    <glyph glyph-name="afii10031" unicode="&#x41d;" horiz-adv-x="951" 
d="M134 0l333 1521h154l-149 -681h375l149 681h154l-332 -1521h-154l151 692h-375l-151 -692h-155z" />
    <glyph glyph-name="afii10032" unicode="&#x41e;" horiz-adv-x="870" 
d="M771 1537l1 1q79 0 131 -19.5t83 -53t43.5 -79.5t12.5 -99q0 -47 -7.5 -96.5t-18.5 -99.5l-144 -660q-18 -84 -47 -164.5t-79 -143.5t-126 -101.5t-188 -38.5l-1 1v-1q-80 0 -132 19.5t-82.5 54t-43 80.5t-12.5 99q0 46 7 95t18 99l144 660q18 84 47 164.5t79 143.5
t126 101.5t189 38.5v-1zM739 1391q-63 0 -105.5 -23.5t-71 -64.5t-46 -96t-31.5 -118l-144 -658q-10 -43 -17 -83.5t-7 -75.5q0 -31 7 -57t24 -45t45 -29.5t70 -10.5q63 0 105.5 23.5t71 64.5t46.5 96.5t32 118.5l143 657q10 44 17 84.5t7 75.5q0 31 -7 57t-23.5 44.5
t-44.5 29t-70 10.5h-1z" />
    <glyph glyph-name="afii10033" unicode="&#x41f;" horiz-adv-x="945" 
d="M132 0l332 1521h684l-332 -1521h-155l300 1373h-375l-300 -1373h-154z" />
    <glyph glyph-name="afii10034" unicode="&#x420;" horiz-adv-x="883" 
d="M997 942q-24 -108 -62.5 -178t-92.5 -111.5t-123 -58t-153 -16.5h-153l-126 -578h-154l333 1521h317q64 0 115.5 -12t87.5 -39.5t55.5 -72t19.5 -108.5q0 -28 -4 -59.5t-12 -67.5zM889 1162q11 49 11 83q0 63 -34.5 94.5t-112.5 31.5h-166l-142 -646h151q54 0 94 11.5
t69.5 37t49 67.5t33.5 102z" />
    <glyph glyph-name="afii10035" unicode="&#x421;" horiz-adv-x="853" 
d="M877 454l-10 -49q-15 -74 -43 -149.5t-78 -136t-126.5 -98.5t-188.5 -38q-80 0 -132 19.5t-82.5 54t-43 80.5t-12.5 99q0 46 7 95t18 99l144 660q18 84 47 164.5t79 143.5t126 101.5t189 38.5q80 0 133 -20.5t84.5 -55t44 -80t12.5 -96.5q0 -42 -7 -85.5t-17 -85.5
l-10 -48h-155l11 48q9 35 15 69t6 64q0 31 -7.5 57.5t-24.5 45.5t-46 29.5t-71 10.5q-63 0 -105.5 -23.5t-71 -64.5t-46 -96t-31.5 -118l-144 -658q-10 -43 -16.5 -84t-6.5 -76q0 -31 6.5 -57t23 -44.5t44.5 -29t70 -10.5q60 0 102.5 21.5t71 59t46.5 87.5t30 108l10 48h155
z" />
    <glyph glyph-name="afii10036" unicode="&#x422;" horiz-adv-x="720" 
d="M736 1371l-300 -1371h-154l300 1371h-270l31 148h695l-31 -148h-271z" />
    <glyph glyph-name="afii10038" unicode="&#x424;" horiz-adv-x="1070" 
d="M458 0l27 123q-80 0 -132.5 19t-83.5 53t-43.5 79t-12.5 98q0 45 7 93.5t18 97.5l87 394q12 56 28.5 110t40 103t56 90.5t77.5 72t103 48t133 17.5l27 123h155l-27 -123q79 0 131.5 -19t83.5 -52.5t43.5 -79t12.5 -97.5q0 -45 -7 -93.5t-18 -98.5l-86 -394
q-18 -84 -47 -163.5t-78.5 -141t-125 -99t-187.5 -37.5l-27 -123h-155zM393 564q-9 -42 -16 -81t-7 -74q0 -31 7 -56.5t24 -44t45.5 -28.5t70.5 -10l214 981q-63 0 -105 -23t-70 -63t-45.5 -93.5t-31.5 -116.5zM1009 957q9 42 16 81.5t7 74.5q0 31 -7 56.5t-23.5 43.5
t-45 28t-70.5 10l-214 -982q62 0 104 23t70.5 63t46 94t31.5 117z" />
    <glyph glyph-name="afii10039" unicode="&#x425;" horiz-adv-x="859" 
d="M663 0l-100 631l-368 -631h-173l476 791l-119 730h169l90 -575l340 575h168l-444 -732l134 -789h-173z" />
    <glyph glyph-name="afii10023" unicode="&#x401;" horiz-adv-x="770" 
d="M128 0l333 1519l589 2l-32 -148l-436 -2l-113 -518h366l-33 -147h-365l-123 -559h434l-31 -147h-589zM600 1707q0 46 23 77.5t79 31.5q37 0 53.5 -15.5t16.5 -44.5q0 -53 -25 -81t-81 -28q-35 0 -50.5 15.5t-15.5 44.5zM814 1707q0 23 5.5 43t17.5 34.5t31.5 23t47.5 8.5
q38 0 54 -15.5t16 -44.5q0 -53 -24.5 -81t-81.5 -28q-34 0 -50 15.5t-16 44.5z" />
    <glyph glyph-name="afii10054" unicode="&#x405;" horiz-adv-x="898" 
d="M860 372q-19 -92 -53.5 -164t-87 -122t-123.5 -76.5t-162 -26.5q-80 0 -133.5 15.5t-85.5 44.5t-45.5 70.5t-13.5 92.5q0 38 6 82t17 92l15 74h153l-15 -68q-9 -38 -14 -70.5t-5 -59.5q0 -64 34 -95t117 -31q54 0 94.5 18t70 50t48.5 76t29 97l2 11q5 27 7.5 50.5
t2.5 44.5q0 63 -24 107t-76 79l-126 87q-80 56 -117 116t-37 143q0 32 5 67t15 77l5 21q42 177 146 270.5t270 93.5q140 0 203.5 -64t63.5 -178q0 -59 -15 -128l-21 -101h-154l25 125q3 16 5 31.5t2 29.5q0 60 -33 99t-108 39q-52 0 -91.5 -18.5t-68 -50t-46.5 -74.5
t-27 -91l-6 -34q-2 -14 -3.5 -26.5t-1.5 -24.5q0 -60 27.5 -107t77.5 -80l122 -81q80 -54 115 -122t35 -156q0 -59 -13 -123z" />
    <glyph glyph-name="omicron" unicode="&#x3bf;" horiz-adv-x="840" 
d="M258 767q12 56 28 111.5t38.5 105.5t53.5 93.5t74.5 75t101.5 49.5t133 18q76 0 126 -18.5t79 -51t41 -76t12 -94.5q0 -50 -8.5 -104t-20.5 -108l-72 -332q-13 -56 -28.5 -111.5t-38 -105.5t-53.5 -93.5t-74 -75t-100.5 -49.5t-132.5 -18q-77 0 -127 18.5t-79.5 51
t-41.5 76t-12 94.5q0 50 8.5 104t20.5 108zM655 1076q-63 0 -104 -24.5t-67.5 -66.5t-43 -98.5t-30.5 -119.5l-73 -333q-11 -48 -19 -92t-8 -82q0 -29 6.5 -53.5t22 -42t42 -27t66.5 -9.5q63 0 103.5 24.5t67 66t42.5 97.5t30 119l73 334q11 48 19.5 93t8.5 83q0 29 -6.5 53
t-22 41.5t-42 27t-65.5 9.5z" />
    <glyph glyph-name="rho" unicode="&#x3c1;" horiz-adv-x="880" 
d="M48 -366l212 971l35 162q18 84 45.5 165.5t75 145t121.5 103t187 39.5q74 0 123 -20t78 -55t41 -82t12 -101q0 -47 -7 -96t-18 -99l-72 -331q-12 -56 -27 -111.5t-36 -105.5t-50 -93.5t-69 -75t-93 -49.5t-123 -18q-44 0 -74.5 11t-51.5 30.5t-32.5 47t-15.5 60.5
l-109 -498h-152zM412 606l-48 -223q-5 -29 -8.5 -56.5t-3.5 -53.5q0 -31 6.5 -57.5t21.5 -46t40.5 -30.5t63.5 -11q63 0 104 24.5t67.5 66.5t43 98t30.5 119l72 333q11 48 19 93t8 83q0 29 -6.5 53t-22 41.5t-41.5 27t-66 9.5q-63 0 -104 -25t-67.5 -67t-42.5 -97.5
t-30 -118.5l-35 -162h-1z" />
    <glyph glyph-name="afii10024" unicode="&#x416;" horiz-adv-x="1389" 
d="M618 0l158 694h-130q1 -1 4 -1h4l-461 -693h-170l510 772l-134 747h157l121 -681h132l158 683h151l-158 -683h125l436 681h163l-476 -747l155 -772h-156l-144 693h-4q-3 0 -3 1h-129l-158 -694h-151z" />
    <glyph glyph-name="afii10049" unicode="&#x42f;" horiz-adv-x="906" 
d="M597 0l143 625h-147q-29 -1 -61.5 -15t-65 -43t-61.5 -73.5t-50 -107.5l-74 -218q-17 -52 -40.5 -97t-40.5 -71h-159q24 35 48.5 78t41.5 94l73 218q18 56 38.5 99t45 76t55 58.5t68.5 47.5q-56 35 -86.5 92t-30.5 132q0 43 10 86l34 151q24 106 60.5 179.5t88.5 119.5
t121.5 67t160.5 21h327l-349 -1519h-150zM455 981q-3 -15 -5 -29.5t-2 -28.5q0 -67 38.5 -110t113.5 -43h173l139 605h-176q-42 0 -78.5 -7.5t-67.5 -32.5t-56.5 -73t-44.5 -129z" />
    <glyph glyph-name="afii10055" unicode="&#x406;" horiz-adv-x="424" 
d="M135 0l333 1521h155l-333 -1521h-155z" />
    <glyph glyph-name="afii10056" unicode="&#x407;" horiz-adv-x="424" 
d="M135 0l333 1521h155l-333 -1521h-155zM389 1707q0 46 23 77.5t79 31.5q37 0 53.5 -15.5t16.5 -44.5q0 -53 -25 -81t-81 -28q-35 0 -50.5 15.5t-15.5 44.5zM603 1707q0 23 5.5 43t17.5 34.5t31.5 23t47.5 8.5q38 0 54 -15.5t16 -44.5q0 -53 -24.5 -81t-81.5 -28
q-34 0 -50 15.5t-16 44.5z" />
    <glyph glyph-name="afii10057" unicode="&#x408;" horiz-adv-x="623" 
d="M836 1519l-250 -1142q-19 -86 -45 -157.5t-70.5 -124t-113.5 -81.5t-174 -29q-63 0 -102 11.5t-68 39.5l78 129q22 -17 47.5 -25t75.5 -8q48 0 82.5 11t59.5 39.5t43.5 77.5t35.5 126l248 1133h153z" />
    <glyph glyph-name="afii10018" unicode="&#x411;" horiz-adv-x="898" 
d="M869 359q-22 -101 -61 -170t-92.5 -111t-120 -60t-143.5 -18h-318l333 1521h575l-32 -147h-421l-95 -432h152q68 0 122 -10.5t91 -36.5t56.5 -69t19.5 -108q0 -60 -18 -141zM762 577q12 55 12 95q0 69 -38 96.5t-122 27.5h-152l-142 -647h165q51 0 89 13.5t65.5 40t46 66
t29.5 90.5z" />
    <glyph glyph-name="afii10046" unicode="&#x42c;" horiz-adv-x="902" 
d="M870 358q-24 -101 -63.5 -169.5t-93 -110.5t-120 -60t-143.5 -18h-317l349 1521h150l-133 -581h154q67 0 120 -10.5t89.5 -35.5t56 -67.5t19.5 -105.5t-19 -145zM767 576q14 61 14 99q0 67 -38.5 94.5t-123.5 27.5h-153l-149 -651h167q51 0 89.5 13.5t66.5 40.5t47 66.5
t31 91.5z" />
    <glyph glyph-name="kappa" unicode="&#x3ba;" horiz-adv-x="853" 
d="M546 1201l-115 -525h105l360 526h157l-420 -601l196 -601h-169l-158 529h-103l-116 -529h-152l263 1201h152z" />
    <glyph glyph-name="nu" unicode="&#x3bd;" horiz-adv-x="738" 
d="M991 1203l-509 -1203h-227l17 1203h156l-35 -1059h13l429 1059h156z" />
    <glyph glyph-name="eta" unicode="&#x3b7;" horiz-adv-x="900" 
d="M553 -366l249 1135q11 49 20 95.5t9 85.5q0 28 -6.5 51t-21.5 39.5t-40.5 25.5t-63.5 9q-61 0 -103.5 -30.5t-72.5 -79t-49.5 -110.5t-33.5 -125l-159 -730h-152l262 1202h152l-31 -142q20 33 48 61.5t62 50.5t73.5 34.5t82.5 12.5q62 0 103 -15.5t65 -43t34 -65
t10 -81.5q0 -57 -11.5 -120t-25.5 -126l-248 -1134h-152z" />
    <glyph glyph-name="theta" unicode="&#x3b8;" horiz-adv-x="840" 
d="M183 422l147 675q12 56 27.5 110.5t37 103.5t52 90.5t73.5 72t100 47.5t132 17q76 0 126 -17.5t79.5 -48t41.5 -72.5t12 -91t-9 -102.5t-21 -108.5l-147 -674q-13 -56 -28 -110.5t-37 -103.5t-52 -90.5t-73 -72t-100 -47.5t-132 -17q-76 0 -126 17.5t-79 48.5t-41 73
t-12 91t8.5 102t20.5 107zM720 1391q-62 0 -101.5 -22.5t-64.5 -62t-40 -93.5t-29 -117l-58 -266h341l59 267q11 48 19.5 92t8.5 81q0 27 -6.5 49.5t-22 38.5t-41.5 24.5t-65 8.5zM444 130q63 0 102.5 22.5t64.5 62t40 93.5t29 117l56 258h-341l-57 -260q-11 -48 -19.5 -92
t-8.5 -81q0 -27 6.5 -49t21.5 -38t41 -24.5t65 -8.5z" />
    <glyph glyph-name="beta" unicode="&#x3b2;" horiz-adv-x="868" 
d="M870 440q-29 -126 -66 -213t-88.5 -141.5t-120 -78.5t-161.5 -24h-29l32 144h30q44 0 80.5 11.5t66 40.5t53 80t41.5 129l29 121q10 44 10 79q0 40 -12.5 64.5t-34.5 38t-50.5 18t-59.5 4.5h-159l-248 -1077h-150l350 1523q19 86 49 156t77 119.5t114 76.5t161 27
q127 0 188.5 -54t61.5 -175q0 -72 -23 -175q-20 -86 -44.5 -147.5t-53.5 -102.5t-63.5 -64.5t-74.5 -34.5q60 -12 89.5 -53t29.5 -119q0 -70 -24 -173zM463 854h161q36 0 70 11t63 36.5t52 68t38 106.5l16 69q8 36 12.5 66t4.5 56q0 65 -31 96t-101 31q-47 0 -81 -13.5
t-58.5 -41.5t-42 -71t-31.5 -102z" />
    <glyph glyph-name="c" unicode="c" horiz-adv-x="828" 
d="M685 392h151l-3 -14q-15 -69 -39.5 -139t-70 -127t-118.5 -93t-185 -36q-77 0 -127.5 18.5t-80 51t-41.5 76.5t-12 95q0 50 8.5 103.5t20.5 107.5l64 294l25 110q18 77 47 146.5t76.5 121.5t117.5 82.5t171 30.5q79 0 130 -18.5t81 -49.5t41.5 -72.5t11.5 -87.5
q0 -41 -6.5 -83t-15.5 -83l-3 -16h-152l4 16q8 32 14 64.5t6 61.5q0 26 -6.5 49t-23 39.5t-43.5 26t-69 9.5q-63 0 -104 -24.5t-67.5 -66.5t-43 -98.5t-30.5 -119.5l-59 -271q-14 -62 -25.5 -117t-14.5 -103q-1 -30 4.5 -57t20.5 -47.5t41.5 -32t68.5 -11.5q63 0 103.5 21
t66.5 55.5t40 80t23 93.5z" />
    <glyph glyph-name="afii10029" unicode="&#x41b;" horiz-adv-x="990" 
d="M704 0l300 1373h-376l-207 -949q-26 -119 -57.5 -202.5t-77.5 -137t-111 -78t-157 -24.5l32 148q51 0 84.5 16.5t57 52t40.5 91.5t35 135l239 1096h685l-333 -1521h-154z" />
    <glyph glyph-name="afii10053" unicode="&#x404;" horiz-adv-x="917" 
d="M879 1067l11 48q9 35 15 69t6 64q0 31 -7.5 57t-24.5 45t-45.5 30t-70.5 11q-63 0 -105.5 -23.5t-71 -64.5t-46.5 -96t-32 -118l-52 -236h384l-32 -147h-384l-60 -275q-10 -43 -16.5 -84t-6.5 -76q0 -31 6.5 -57t23 -44.5t44.5 -29t70 -10.5q60 0 102.5 21.5t71 59
t46.5 87.5t30 108l10 48h155l-10 -49q-15 -74 -43 -149.5t-78 -136t-126.5 -98.5t-188.5 -38q-79 0 -131 20t-83 53.5t-43.5 79t-12.5 98.5q0 47 7.5 96.5t18.5 99.5l143 660q18 84 47 164.5t79 143.5t126 101.5t189 38.5q80 0 133 -20.5t84.5 -55t44 -80t12.5 -96.5
q0 -42 -7 -85.5t-17 -85.5l-10 -48h-155z" />
    <glyph glyph-name="afii10047" unicode="&#x42d;" horiz-adv-x="917" 
d="M310 1069l11 46q11 48 27 98t39.5 97t56 88.5t77.5 72.5t104 49t135 18q78 0 129 -19t81.5 -52t43 -78.5t12.5 -97.5q0 -48 -8 -98.5t-20 -103.5l-151 -658q-19 -82 -48 -162t-79 -143.5t-127 -103t-191 -39.5q-79 0 -130.5 20t-82 53.5t-42.5 78.5t-12 96q0 42 6.5 86.5
t16.5 88.5l11 47h151l-10 -46q-9 -38 -14.5 -72.5t-5.5 -65.5q0 -32 7.5 -58t24.5 -45t45 -29t69 -10q66 0 110 25t72.5 67t46 97.5t30.5 115.5l64 276h-384l33 144h384l55 236q11 45 17.5 86.5t6.5 76.5q0 32 -7 58.5t-23.5 45t-44.5 29t-69 10.5q-64 0 -107 -23t-71.5 -61
t-46 -89t-30.5 -106l-10 -46h-152z" />
    <glyph glyph-name="afii10085" unicode="&#x443;" horiz-adv-x="731" 
d="M568 202l-109 -281q-24 -62 -57 -113.5t-71 -92t-80.5 -70.5t-85.5 -48l-47 103q28 14 56 34.5t54.5 48.5t50 64.5t41.5 83.5l105 275zM983 1203l-509 -1203h-227l17 1203h156l-35 -1059h13l429 1059h156z" />
    <glyph glyph-name="afii10048" unicode="&#x42e;" horiz-adv-x="1304" 
d="M131 0l333 1521h155l-152 -691h214l57 260q18 84 47 164.5t79 143.5t126 101.5t189 38.5q79 0 131.5 -19.5t83.5 -53.5t43.5 -80t12.5 -99q0 -46 -7.5 -95.5t-18.5 -99.5l-144 -660q-18 -84 -47 -164.5t-79 -143.5t-126.5 -101.5t-188.5 -38.5l-1 1v-1q-80 0 -132 19.5
t-83 53.5t-43.5 80t-12.5 99q0 46 7.5 95.5t18.5 99.5l55 253h-213l-149 -683h-155zM1147 1391q-63 0 -105.5 -23.5t-71 -64.5t-46.5 -96t-32 -118l-144 -658q-10 -43 -16.5 -83.5t-6.5 -75.5q0 -32 7 -58t23.5 -44.5t44.5 -29t70 -10.5q2 0 2.5 -0.5t2.5 -0.5
q62 1 103.5 25t70 65t46 95.5t31.5 117.5l143 658q10 43 16.5 84t6.5 76q0 31 -7 57t-23.5 44.5t-44.5 29t-70 10.5z" />
    <glyph glyph-name="afii10040" unicode="&#x426;" horiz-adv-x="970" 
d="M1149 1521l-301 -1373h123l-70 -323h-155l39 175h-653l333 1521h155l-301 -1373h375l301 1373h154z" />
    <glyph glyph-name="afii10070" unicode="&#x435;" horiz-adv-x="838" 
d="M838 406l-4 -21q-11 -49 -24.5 -98.5t-35 -94t-51.5 -83t-72.5 -66.5t-100 -44t-132.5 -16q-77 0 -127 18.5t-79.5 51t-41.5 76t-12 94.5q0 50 8.5 104t20.5 108l72 332q12 56 28 111.5t38.5 105.5t53.5 93.5t74.5 75t101.5 49.5t133 18q78 0 129 -18t81 -49t41.5 -73
t11.5 -89q0 -43 -7 -88.5t-17 -90.5l-37 -169h-1l-7 -35l-526 -87l-19 -86q-11 -48 -19 -92t-8 -82q0 -29 6.5 -53.5t22.5 -42t42.5 -27.5t66.5 -10q63 0 103 20.5t65 55.5t40 81.5t27 99.5l4 21h151zM656 1076q-63 0 -104 -24.5t-68 -66.5t-43.5 -98.5t-30.5 -119.5
l-25 -113l370 64l21 95q8 37 14.5 72t6.5 67q0 27 -6.5 49.5t-22.5 39t-43 26t-69 9.5z" />
    <glyph glyph-name="afii10071" unicode="&#x451;" horiz-adv-x="838" 
d="M838 406l-4 -21q-11 -49 -24.5 -98.5t-35 -94t-51.5 -83t-72.5 -66.5t-100 -44t-132.5 -16q-77 0 -127 18.5t-79.5 51t-41.5 76t-12 94.5q0 50 8.5 104t20.5 108l72 332q12 56 28 111.5t38.5 105.5t53.5 93.5t74.5 75t101.5 49.5t133 18q78 0 129 -18t81 -49t41.5 -73
t11.5 -89q0 -43 -7 -88.5t-17 -90.5l-37 -169h-1l-7 -35l-526 -87l-19 -86q-11 -48 -19 -92t-8 -82q0 -29 6.5 -53.5t22.5 -42t42.5 -27.5t66.5 -10q63 0 103 20.5t65 55.5t40 81.5t27 99.5l4 21h151zM656 1076q-63 0 -104 -24.5t-68 -66.5t-43.5 -98.5t-30.5 -119.5
l-25 -113l370 64l21 95q8 37 14.5 72t6.5 67q0 27 -6.5 49.5t-22.5 39t-43 26t-69 9.5zM536 1388q0 46 23 77.5t79 31.5q37 0 53.5 -15.5t16.5 -44.5q0 -53 -25 -81t-81 -28q-35 0 -50.5 15.5t-15.5 44.5zM750 1388q0 23 5.5 43t17.5 34.5t31.5 23t47.5 8.5q38 0 54 -15.5
t16 -44.5q0 -53 -24.5 -81t-81.5 -28q-34 0 -50 15.5t-16 44.5z" />
    <glyph glyph-name="uni2206" unicode="&#x2206;" horiz-adv-x="856" 
d="M241 148h415l-12 -148h-620l612 1521h252l-55 -1521h-158l57 1328h-23z" />
    <glyph glyph-name="Ohm" unicode="&#x2126;" horiz-adv-x="911" 
d="M128 0l31 147h152l33 164q-59 27 -81 79t-22 117q0 61 13 128t27 132l70 323q18 84 47 164.5t79 143.5t126 101.5t189 38.5v-1l1 1q79 0 131 -19.5t83 -53.5t43.5 -80t12.5 -98q0 -47 -7.5 -96t-18.5 -99l-70 -325q-15 -69 -33 -139.5t-47 -132.5t-73.5 -111t-111.5 -74
l-37 -163h151l-31 -147h-285l62 287l26 120l6 27q60 0 96.5 28.5t59 76t35.5 107.5t27 123l71 321q9 43 16 83.5t7 75.5q0 31 -7 57.5t-23.5 45t-44.5 29t-70 10.5h-1q-63 0 -105.5 -23.5t-71 -64.5t-46.5 -96.5t-32 -118.5l-69 -321q-13 -58 -27 -116t-14 -106
q0 -25 5.5 -45.5t18.5 -35t34.5 -22.5t53.5 -8l-6 -27l-26 -120l-62 -287h-285z" />
    <glyph glyph-name="summation" unicode="&#x2211;" horiz-adv-x="858" 
d="M712 738l-401 -591h474l-31 -147h-643l30 138l414 622l-138 623l30 138h629l-31 -147h-461l138 -592z" />
    <glyph glyph-name="iota" unicode="&#x3b9;" horiz-adv-x="407" 
d="M435 1472q0 46 26.5 74t86.5 28q43 0 62.5 -16t19.5 -45q0 -22 -6 -41t-19.5 -32.5t-36 -21t-55.5 -7.5q-78 0 -78 61zM129 0l263 1202h152l-263 -1202h-152z" />
    <glyph glyph-name="afii10065" unicode="&#x430;" horiz-adv-x="878" 
d="M603 0l27 123q-38 -63 -94 -102t-141 -39q-68 0 -113 17t-71.5 47.5t-37.5 71.5t-11 89q0 54 10 111.5t23 116.5l71 332q20 91 45.5 173t69 144t111.5 99t172 37q42 0 72.5 -11t51.5 -30.5t33 -46t17 -58.5l28 128h152l-263 -1202h-152zM449 126q55 0 95 23.5t68 62.5
t47 90t33 107l87 396q7 33 11.5 65.5t4.5 62.5q0 31 -6.5 57t-21.5 45.5t-40 30.5t-63 11q-63 0 -104.5 -27t-69 -71t-44 -99.5t-28.5 -112.5l-72 -334q-13 -57 -22.5 -105t-9.5 -86q0 -55 29 -85.5t106 -30.5z" />
    <glyph glyph-name="a.alt" horiz-adv-x="918" 
d="M624 0l29 133q-19 -33 -42 -60.5t-52.5 -48t-64.5 -31.5t-78 -11q-66 0 -110.5 18t-71.5 50t-38.5 75.5t-11.5 94.5q0 28 3 60q2 49 13 95.5t22 97.5l56 256l25 110q18 77 45.5 146t71 121.5t108 83t156.5 30.5q43 0 74 -11t51.5 -30.5t32 -47t16.5 -59.5l29 130h151
l-263 -1202h-151zM474 127q43 0 76.5 15t59 40t43.5 58.5t31 71.5q11 33 20.5 67.5t17.5 70.5l75 343q6 33 11 68t5 67q0 30 -6 57t-20.5 47t-39.5 31.5t-64 11.5q-41 0 -72 -11t-54.5 -30.5t-40.5 -45.5t-30 -56q-18 -46 -31 -98.5t-26 -110.5l-53 -245q-13 -58 -23.5 -111
t-10.5 -98q0 -33 7 -57q9 -35 36.5 -60t88.5 -25z" />
    <glyph glyph-name="alpha" unicode="&#x3b1;" horiz-adv-x="879" 
d="M613 0l29 133q-19 -33 -42 -60.5t-52.5 -48t-64.5 -31.5t-78 -11q-66 0 -110.5 18t-71.5 50t-38.5 75.5t-11.5 94.5q0 28 3 60q2 49 13 95.5t22 97.5l56 256l25 110q18 77 45.5 146t71 121.5t108 83t156.5 30.5q43 0 74 -11t51.5 -30.5t32 -47t16.5 -59.5l29 130h151
l-263 -1202h-151zM463 127q43 0 76.5 15t59 40t43.5 58.5t31 71.5q11 33 20.5 67.5t17.5 70.5l75 343q6 33 11 68t5 67q0 30 -6 57t-20.5 47t-39.5 31.5t-64 11.5q-41 0 -72 -11t-54.5 -30.5t-40.5 -45.5t-30 -56q-18 -46 -31 -98.5t-26 -110.5l-53 -245q-13 -58 -23.5 -111
t-10.5 -98q0 -33 7 -57q9 -35 36.5 -60t88.5 -25z" />
    <glyph glyph-name="alphatonos" unicode="&#x3ac;" horiz-adv-x="879" 
d="M613 0l29 133q-19 -33 -42 -60.5t-52.5 -48t-64.5 -31.5t-78 -11q-66 0 -110.5 18t-71.5 50t-38.5 75.5t-11.5 94.5q0 28 3 60q2 49 13 95.5t22 97.5l56 256l25 110q18 77 45.5 146t71 121.5t108 83t156.5 30.5q43 0 74 -11t51.5 -30.5t32 -47t16.5 -59.5l29 130h151
l-263 -1202h-151zM463 127q43 0 76.5 15t59 40t43.5 58.5t31 71.5q11 33 20.5 67.5t17.5 70.5l75 343q6 33 11 68t5 67q0 30 -6 57t-20.5 47t-39.5 31.5t-64 11.5q-41 0 -72 -11t-54.5 -30.5t-40.5 -45.5t-30 -56q-18 -46 -31 -98.5t-26 -110.5l-53 -245q-13 -58 -23.5 -111
t-10.5 -98q0 -33 7 -57q9 -35 36.5 -60t88.5 -25zM864 1539l-75 -254h-110l43 254h142z" />
    <glyph glyph-name="parenleftsuperior" unicode="&#x207d;" horiz-adv-x="378" 
d="M530 786q-64 0 -105.5 17t-65.5 46t-33.5 67.5t-9.5 80.5q0 40 6.5 81.5t14.5 79.5l81 369q5 25 14.5 62.5t26.5 78.5t42 82t63 74t89 53.5t120 20.5h22l-26 -120h-22q-35 0 -62 -15t-47 -38t-34.5 -51.5t-24 -56t-15 -51t-8.5 -35.5l-84 -381q-14 -61 -14 -114
q0 -27 5 -51t16.5 -41t30 -27t46.5 -10h22l-26 -121h-22z" />
    <glyph glyph-name="parenrightsuperior" unicode="&#x207e;" horiz-adv-x="378" 
d="M456 1898q62 0 102.5 -16.5t64.5 -45t33.5 -65.5t9.5 -79q0 -41 -7 -83t-16 -82l-85 -370q-6 -25 -16 -62.5t-27 -78.5t-42.5 -82t-63.5 -73.5t-89 -53t-119 -20.5h-23l27 118h22q35 0 62 15t48 38t35.5 51.5t25 56.5t16 51t8.5 36l89 382q7 31 11 61t4 57t-5 50
t-16.5 40t-30 26.5t-46.5 9.5h-22l27 119h23z" />
    <glyph glyph-name="eng" unicode="&#x14b;" horiz-adv-x="900" 
d="M897 511h1l-114 -518q-21 -94 -45 -168t-62.5 -125.5t-96.5 -78.5t-146 -27q-61 0 -102.5 17.5t-63.5 34.5l40 126q17 -11 53.5 -23t87.5 -12q44 0 72.5 13t47.5 43t33 79t30 121l1 7l169 769q11 47 19 91.5t8 82.5q0 29 -6.5 53.5t-22.5 42t-42 27t-66 9.5
q-60 0 -102 -30.5t-70.5 -79t-47 -110.5t-32.5 -125l-159 -730h-152l262 1202h152l-29 -136q37 68 97.5 110.5t146.5 42.5q67 0 111 -17t70 -47t36.5 -70.5t10.5 -88.5q0 -53 -10 -111t-23 -117z" />
    <glyph glyph-name="Eng" unicode="&#x14a;" horiz-adv-x="951" 
d="M134 0l333 1521h154l-1 -2h21l139 -1076l236 1078h155l-331 -1513l-2 -8l-3 -14q-20 -87 -46.5 -161t-72 -127.5t-115.5 -83.5t-178 -30q-63 0 -101.5 11.5t-67.5 39.5l77 129q23 -17 48.5 -25t75.5 -8q48 0 81 11.5t57 40t43 77.5t39 125l3 15l-152 1089l-237 -1089
h-155z" />
    <glyph glyph-name="iacute" unicode="&#xed;" horiz-adv-x="408" 
d="M129 0l262 1202h153l-263 -1202h-152zM758 1539l-215 -254h-121l185 254h151z" />
    <glyph glyph-name="afii61352" unicode="&#x2116;" horiz-adv-x="1794" 
d="M1240 1078q12 56 28 111.5t38.5 106t54 93.5t75 75t101 50t132.5 18q76 0 126 -18.5t79 -51t41 -76.5t12 -95t-8.5 -104.5t-20.5 -107.5l-50 -228q-18 -84 -45 -165.5t-74 -145.5t-121 -103.5t-186 -39.5q-77 0 -127.5 18.5t-80 51.5t-41.5 77t-12 95q0 50 9 103t20 107z
M132 0l333 1521h155l-1 -2h20l134 -1099l241 1101h156l-333 -1521h-161l-135 1159l-254 -1159h-155zM1637 1387q-63 0 -104 -24.5t-67.5 -66.5t-42.5 -98t-30 -119l-50 -231q-11 -48 -19 -92.5t-8 -82.5q0 -29 6.5 -53t22 -41t41.5 -26.5t66 -9.5q63 0 104 24t67.5 66
t42.5 98t30 119l50 231q11 48 19 92.5t8 82.5q0 29 -6.5 53t-22 41.5t-41.5 27t-66 9.5zM1115 182l29 137h523l-30 -137h-522z" />
    <glyph glyph-name="N" unicode="N" horiz-adv-x="950" 
d="M134 0l333 1521h220l75 -1251l268 1251h154l-327 -1521h-212l-87 1259l-269 -1259h-155z" />
    <glyph glyph-name="J" unicode="J" horiz-adv-x="623" 
d="M451 1519h385l-250 -1142q-19 -86 -45 -157.5t-70.5 -124t-113.5 -81.5t-174 -29q-63 0 -102 11.5t-68 39.5l78 129q22 -17 47.5 -25t75.5 -8q48 0 82.5 11t59.5 39.5t43.5 77.5t35.5 126l215 985h-231z" />
    <glyph glyph-name="Jcircumflex" unicode="&#x134;" horiz-adv-x="623" 
d="M451 1519h385l-250 -1142q-19 -86 -45 -157.5t-70.5 -124t-113.5 -81.5t-174 -29q-63 0 -102 11.5t-68 39.5l78 129q22 -17 47.5 -25t75.5 -8q48 0 82.5 11t59.5 39.5t43.5 77.5t35.5 126l215 985h-231zM448 1596l188 233h150l86 -233h-135l-45 144l-108 -144h-136z" />
    <glyph glyph-name="afii10076" unicode="&#x43a;" horiz-adv-x="852" 
d="M546 1201l-115 -525h105l360 526h157l-420 -601l196 -601h-169l-158 529h-103l-116 -529h-152l263 1201h152z" />
    <glyph glyph-name="o" unicode="o" horiz-adv-x="840" 
d="M258 767q12 56 28 111.5t38.5 105.5t53.5 93.5t74.5 75t101.5 49.5t133 18q76 0 126 -18.5t79 -51t41 -76t12 -94.5q0 -50 -8.5 -104t-20.5 -108l-72 -332q-13 -56 -28.5 -111.5t-38 -105.5t-53.5 -93.5t-74 -75t-100.5 -49.5t-132.5 -18q-77 0 -127 18.5t-79.5 51
t-41.5 76t-12 94.5q0 50 8.5 104t20.5 108zM655 1076q-63 0 -104 -24.5t-67.5 -66.5t-43 -98.5t-30.5 -119.5l-73 -333q-11 -48 -19 -92t-8 -82q0 -29 6.5 -53.5t22 -42t42 -27t66.5 -9.5q63 0 103.5 24.5t67 66t42.5 97.5t30 119l73 334q11 48 19.5 93t8.5 83q0 29 -6.5 53
t-22 41.5t-42 27t-65.5 9.5z" />
    <glyph glyph-name="afii10096" unicode="&#x44e;" horiz-adv-x="1253" 
d="M132 0l262 1202h153l-122 -556h229l-30 -136h-229l-111 -510h-152zM665 767q12 56 28 111.5t38.5 105.5t53.5 93.5t74.5 75t101.5 49.5t133 18q76 0 126 -18.5t79 -51t41 -76t12 -94.5q0 -50 -8.5 -104t-20.5 -108l-72 -332q-13 -56 -28.5 -111.5t-38 -105.5t-53.5 -93.5
t-74 -75t-100.5 -49.5t-132.5 -18q-77 0 -127 18.5t-79.5 51t-41.5 76t-12 94.5q0 50 8.5 104t20.5 108zM1062 1076q-63 0 -104 -24.5t-67.5 -66.5t-43 -98.5t-30.5 -119.5l-73 -333q-11 -48 -19 -92t-8 -82q0 -29 6.5 -53.5t22 -42t42 -27t66.5 -9.5q63 0 103.5 24.5t67 66
t42.5 97.5t30 119l73 334q11 48 19.5 93t8.5 83q0 29 -6.5 53t-22 41.5t-42 27t-65.5 9.5z" />
    <glyph glyph-name="afii10080" unicode="&#x43e;" horiz-adv-x="840" 
d="M258 767q12 56 28 111.5t38.5 105.5t53.5 93.5t74.5 75t101.5 49.5t133 18q76 0 126 -18.5t79 -51t41 -76t12 -94.5q0 -50 -8.5 -104t-20.5 -108l-72 -332q-13 -56 -28.5 -111.5t-38 -105.5t-53.5 -93.5t-74 -75t-100.5 -49.5t-132.5 -18q-77 0 -127 18.5t-79.5 51
t-41.5 76t-12 94.5q0 50 8.5 104t20.5 108zM655 1076q-63 0 -104 -24.5t-67.5 -66.5t-43 -98.5t-30.5 -119.5l-73 -333q-11 -48 -19 -92t-8 -82q0 -29 6.5 -53.5t22 -42t42 -27t66.5 -9.5q63 0 103.5 24.5t67 66t42.5 97.5t30 119l73 334q11 48 19.5 93t8.5 83q0 29 -6.5 53
t-22 41.5t-42 27t-65.5 9.5z" />
    <glyph glyph-name="Pallino" horiz-adv-x="33" 
d="M487 304q0 16 12 27t28 11q11 0 18.5 -7.5t7.5 -18.5q0 -15 -12.5 -27t-28.5 -12q-11 0 -18 8t-7 19z" />
    <glyph glyph-name="afii10068" unicode="&#x433;" horiz-adv-x="649" 
d="M118 0l262 1202h532l-33 -151h-379l-230 -1051h-152z" />
    <glyph glyph-name="afii10082" unicode="&#x440;" horiz-adv-x="880" 
d="M48 -366l343 1568h152l-29 -132q38 66 94.5 108t142.5 42q69 0 114 -17.5t71.5 -47.5t37.5 -71.5t11 -89.5q0 -53 -9.5 -111t-22.5 -116l-72 -331q-12 -56 -27 -111.5t-36 -105.5t-50 -93.5t-69 -75t-93 -49.5t-123 -18q-44 0 -74.5 11t-51.5 31t-32.5 47.5t-15.5 60.5
l-109 -499h-152zM692 1076q-56 0 -95 -23.5t-66 -62.5t-45.5 -90t-31.5 -106l-88 -402q-6 -32 -10 -62t-4 -58q0 -31 6.5 -57.5t21.5 -45.5t40.5 -30t63.5 -11q63 0 104 24.5t67.5 66.5t43 98t30.5 119l72 333q11 48 19 93t8 83q0 29 -6.5 53t-22 41.5t-41.5 27t-66 9.5z
" />
    <glyph glyph-name="afii10074" unicode="&#x438;" horiz-adv-x="905" 
d="M626 0l213 932l-522 -932h-199l275 1202h151l-212 -925l526 925h30l103 1l-1 -1h69l-282 -1202h-151z" />
    <glyph glyph-name="afii10098" unicode="&#x491;" horiz-adv-x="795" 
d="M514 1057l-231 -1057h-151l262 1202h419l37 170l148 -1l-37 -169l-32 -145h-415z" />
    <glyph glyph-name="afii10051" unicode="&#x402;" horiz-adv-x="1071" 
d="M749 1371l-75 -342q19 34 42 62t52.5 48t65 31.5t79.5 11.5q69 0 114 -17.5t71.5 -48t37.5 -72t11 -89.5q0 -53 -9.5 -110t-22.5 -115l-65 -294q-12 -56 -27 -111.5t-36 -105.5t-50 -93.5t-69 -75t-93 -49.5t-123 -18q-44 0 -75 11t-51.5 31t-32 47t-15.5 60l-29 -132
h-154l300 1371h-270l31 148h695l-31 -148h-271zM854 1038q-57 0 -97 -25t-68 -66t-46 -95t-32 -111l-27 -122l-32 -151q-11 -50 -20.5 -100.5t-9.5 -95.5q0 -31 6.5 -57t21.5 -45.5t40.5 -30.5t63.5 -11q63 0 104 24.5t67.5 66.5t42.5 98t30 119l65 295q11 48 19 93t8 83
q0 29 -6.5 53t-22 41.5t-41.5 27t-66 9.5z" />
    <glyph glyph-name="afii10050" unicode="&#x490;" horiz-adv-x="857" 
d="M587 1373l-301 -1373h-154l332 1521h470l38 174h148l-70 -322h-463z" />
    <glyph glyph-name="afii10042" unicode="&#x428;" horiz-adv-x="1202" 
d="M1401 1518l-331 -1518h-937l332 1518h154l-300 -1370h245l298 1360h154l-297 -1360h228l300 1370h154z" />
    <glyph glyph-name="afii10090" unicode="&#x448;" horiz-adv-x="1193" 
d="M1326 1202l-262 -1202h-937l262 1202h155l-231 -1057h245l229 1047h155l-230 -1047h228l232 1057h154z" />
    <glyph glyph-name="afii10091" unicode="&#x449;" horiz-adv-x="1230" 
d="M1331 1202l-231 -1057h106l-70 -320h-152l39 175h-891l262 1202h155l-232 -1057h245l230 1047h154l-229 -1047h228l232 1057h154z" />
    <glyph glyph-name="afii10079" unicode="&#x43d;" horiz-adv-x="915" 
d="M128 0l262 1202h153l-118 -536h356l117 536h152l-262 -1202h-153l113 515h-355l-113 -515h-152z" />
    <glyph glyph-name="afii10081" unicode="&#x43f;" horiz-adv-x="915" 
d="M128 0l262 1202h660l-262 -1202h-152l232 1057h-356l-231 -1057h-153z" />
    <glyph glyph-name="afii10088" unicode="&#x446;" horiz-adv-x="970" 
d="M549 1202l-232 -1057h353l232 1057h154l-231 -1057h129l-70 -320h-151l39 175h-640l262 1202h155z" />
    <glyph glyph-name="afii10083" unicode="&#x441;" horiz-adv-x="828" 
d="M685 392h151l-3 -14q-15 -69 -39.5 -139t-70 -127t-118.5 -93t-185 -36q-77 0 -127.5 18.5t-80 51t-41.5 76.5t-12 95q0 50 8.5 103.5t20.5 107.5l64 294l25 110q18 77 47 146.5t76.5 121.5t117.5 82.5t171 30.5q79 0 130 -18.5t81 -49.5t41.5 -72.5t11.5 -87.5
q0 -41 -6.5 -83t-15.5 -83l-3 -16h-152l4 16q8 32 14 64.5t6 61.5q0 26 -6.5 49t-23 39.5t-43.5 26t-69 9.5q-63 0 -104 -24.5t-67.5 -66.5t-43 -98.5t-30.5 -119.5l-59 -271q-14 -62 -25.5 -117t-14.5 -103q-1 -30 4.5 -57t20.5 -47.5t41.5 -32t68.5 -11.5q63 0 103.5 21
t66.5 55.5t40 80t23 93.5z" />
    <glyph glyph-name="afii10087" unicode="&#x445;" horiz-adv-x="781" 
d="M600 0l-104 486l-318 -486h-152l410 625l-131 577h160l96 -447l295 447h149l-382 -577l137 -625h-160z" />
    <glyph glyph-name="afii10078" unicode="&#x43c;" horiz-adv-x="1137" 
d="M1061 1203h222l-264 -1203h-154l232 1034l-390 -798h-160l-36 798l-220 -1034h-154l262 1203h222l43 -760h15z" />
    <glyph glyph-name="afii10102" unicode="&#x455;" horiz-adv-x="854" 
d="M828 381q0 -87 -27.5 -160t-79.5 -126t-128 -82.5t-173 -29.5q-72 0 -121 16.5t-79.5 46.5t-44 73t-13.5 96q0 34 5 71t14 78h152q-5 -24 -8.5 -47.5t-3.5 -46.5q0 -30 6.5 -55.5t21.5 -45t40 -30.5t61 -11q54 0 94 17t66.5 46t40 68.5t13.5 83.5q0 52 -27 89.5
t-67.5 68.5t-88 61t-88 66.5t-67.5 85t-27 116.5q0 89 26.5 161t77.5 123t124.5 78.5t168.5 27.5q122 0 185.5 -51.5t63.5 -169.5q0 -30 -4.5 -64t-12.5 -73h-151q11 49 11 88q0 56 -27.5 91t-95.5 35q-45 0 -82.5 -17t-65 -45.5t-43 -66t-15.5 -77.5q0 -49 27.5 -85.5
t68.5 -68t88.5 -62t88.5 -68.5t68.5 -87t27.5 -118z" />
    <glyph glyph-name="afii10100" unicode="&#x453;" horiz-adv-x="725" 
d="M106 0l262 1202h532l-32 -151h-380l-229 -1051h-153zM909 1570l-215 -254h-121l185 254h151z" />
    <glyph glyph-name="afii10089" unicode="&#x447;" horiz-adv-x="921" 
d="M547 1202l-89 -404q-11 -47 -19 -91.5t-8 -82.5q0 -29 6.5 -53.5t22 -42t42 -27t66.5 -9.5q60 0 102 30.5t70.5 79t47 110.5t32.5 125l79 365h152l-263 -1202h-151l109 501q-38 -68 -97.5 -110.5t-146.5 -42.5q-67 0 -111 17t-70 47t-36.5 70.5t-10.5 88.5q0 53 10 111
t23 117l88 403h152z" />
    <glyph glyph-name="afii10103" unicode="&#x456;" horiz-adv-x="407" 
d="M435 1472q0 46 26.5 74t86.5 28q43 0 62.5 -16t19.5 -45q0 -22 -6 -41t-19.5 -32.5t-36 -21t-55.5 -7.5q-78 0 -78 61zM129 0l263 1202h152l-263 -1202h-152z" />
    <glyph glyph-name="afii10106" unicode="&#x459;" horiz-adv-x="938" 
d="M901 359q-22 -101 -61 -170t-92 -111t-119.5 -60t-144.5 -18h-318l230 1057h-141l31 145h297l-88 -403h152q68 0 122 -10.5t91 -36.5t56.5 -69t19.5 -108q0 -60 -18 -141zM763 435q12 54 12 93q0 69 -38 97t-122 28h-152l-111 -504h165q51 0 89 13.5t65.5 40t46 66
t29.5 90.5z" />
    <glyph glyph-name="afii10108" unicode="&#x45b;" horiz-adv-x="885" 
d="M453 934l-50 -233q37 68 97 110.5t147 42.5q67 0 110.5 -17t69.5 -47t36.5 -70.5t10.5 -88.5q0 -54 -9.5 -111.5t-22.5 -116.5l-88 -403h-152l89 404q11 47 19 91.5t8 82.5q0 29 -6.5 53.5t-22.5 42t-42 27t-66 9.5q-61 0 -102.5 -30.5t-70 -79t-47 -110.5t-32.5 -125
l-79 -365h-153l204 934h-73l27 126h74l31 142h152l-31 -142h81l-27 -126h-82z" />
    <glyph glyph-name="afii10045" unicode="&#x42b;" horiz-adv-x="1259" 
d="M867 359q-22 -101 -61 -170t-92.5 -111t-120 -60t-143.5 -18h-318l332 1521h154l-127 -579h153q68 0 121.5 -10.5t90.5 -36.5t56.5 -69.5t19.5 -108.5q0 -30 -4 -64.5t-13 -75.5zM760 577q12 54 12 94q0 69 -38 97t-123 28h-152l-141 -647h165q101 0 154 53.5t75 156.5z
M1137 0l333 1521h-155l-333 -1521h155z" />
    <glyph glyph-name="afii10092" unicode="&#x44a;" horiz-adv-x="948" 
d="M912 359q-23 -101 -62 -170t-92.5 -111t-119.5 -60t-144 -18h-318l231 1059h-152l31 143h307l-88 -403h152q68 0 122 -10.5t91 -36.5t56.5 -69.5t19.5 -108.5q0 -30 -4 -64.5t-13 -75.5zM773 435q12 54 12 93q0 69 -38 97t-122 28h-152l-111 -504h165q51 0 89 13.5
t65.5 40t46 65.5t29.5 90z" />
    <glyph glyph-name="afii10043" unicode="&#x429;" horiz-adv-x="1258" 
d="M1401 1518l-301 -1373h128l-70 -320h-151l38 175h-913l333 1518h154l-300 -1370h245l298 1360h154l-298 -1360h228l301 1370h154z" />
    <glyph glyph-name="afii10099" unicode="&#x452;" horiz-adv-x="883" 
d="M549 1320l-58 -252q19 34 44 62t55.5 48.5t67.5 32t81 11.5q65 0 108.5 -16.5t69 -45.5t36 -69t10.5 -86q0 -55 -11 -115.5t-25 -120.5l-175 -769h-1l-1 -5q-20 -86 -46.5 -158t-71.5 -124t-114.5 -81.5t-174.5 -29.5q-63 0 -101.5 11.5t-66.5 39.5l79 126
q21 -17 46.5 -25t75.5 -8q49 0 84 11t61 39.5t45 78.5t37 128l5 18h1l171 750q11 48 20 94t9 85q0 29 -6.5 53t-22.5 41.5t-42 27t-66 9.5q-61 0 -103.5 -30.5t-72 -80t-48.5 -112t-34 -126.5l-168 -732h-148l302 1320h-74l28 120h73l32 137h149l-32 -137h82l-28 -120h-81z
" />
    <glyph glyph-name="afii10846" unicode="&#x4d9;" horiz-adv-x="894" 
d="M300.981 796.951l4 20.999q10.999 48.9971 24.498 98.4941q13.5 49.4971 34.998 93.9941q21.499 44.4971 51.4971 82.9951q29.998 38.4971 72.4951 66.4961q42.498 27.998 99.9941 43.9971q57.4971 15.999 132.492 15.999q76.9951 0 126.992 -18.499t79.4951 -50.9971
t41.4971 -75.9951q12 -43.4971 12 -94.4941q0 -49.9971 -8.5 -103.994q-8.49902 -53.9961 -20.499 -107.993l-71.9951 -331.979q-11.999 -55.9971 -27.998 -111.493q-15.999 -55.4971 -38.498 -105.494q-22.498 -49.9971 -53.4971 -93.4941
q-30.998 -43.4971 -74.4951 -74.9951t-101.493 -49.4971q-57.9971 -17.999 -132.992 -17.999q-77.9951 0 -128.992 17.999t-80.9951 48.9971t-41.4971 72.9951q-11.5 41.998 -11.5 88.9951q0 42.9971 7 88.4941q6.99902 45.4971 16.999 90.4951l36.9971 168.989h1l7 34.998
l525.968 86.9941l18.999 85.9951q10.999 47.9971 18.999 91.9941q7.99902 43.998 7.99902 81.9951q0 28.998 -6.49902 53.4971q-6.5 24.498 -22.499 41.9971t-42.4971 27.498q-26.499 10 -66.4961 10q-62.9961 0 -102.994 -20.499q-39.9971 -20.499 -64.9961 -55.4961
q-24.998 -34.998 -39.9971 -81.4951t-26.998 -99.4941l-4 -20.999h-150.991zM482.971 126.992q62.9961 0 103.993 24.499q40.998 24.498 67.9961 66.4951q26.998 41.998 43.4971 98.4941q16.499 56.4971 30.498 119.493l24.999 112.993l-369.978 -63.9961l-20.999 -94.9941
q-7.99902 -36.998 -14.499 -71.9961q-6.49902 -34.998 -6.49902 -66.9961q0 -26.998 6.49902 -49.4971q6.5 -22.498 22.499 -38.9971t42.9971 -25.999q26.998 -9.49902 68.9961 -9.49902z" />
    <glyph glyph-name="iotadieresis" unicode="&#x3ca;" horiz-adv-x="408" 
d="M129 0l262 1202h153l-263 -1202h-152zM339 1464q0 46 23 77.5t79 31.5q37 0 53.5 -15.5t16.5 -44.5q0 -53 -25 -81t-81 -28q-35 0 -50.5 15.5t-15.5 44.5zM553 1464q0 23 5.5 43t17.5 34.5t31.5 23t47.5 8.5q38 0 54 -15.5t16 -44.5q0 -53 -24.5 -81t-81.5 -28
q-34 0 -50 15.5t-16 44.5z" />
    <glyph glyph-name="afii10104" unicode="&#x457;" horiz-adv-x="408" 
d="M129 0l262 1202h153l-263 -1202h-152zM343 1463q0 46 23 77.5t79 31.5q37 0 53.5 -15.5t16.5 -44.5q0 -53 -25 -81t-81 -28q-35 0 -50.5 15.5t-15.5 44.5zM557 1463q0 23 5.5 43t17.5 34.5t31.5 23t47.5 8.5q38 0 54 -15.5t16 -44.5q0 -53 -24.5 -81t-81.5 -28
q-34 0 -50 15.5t-16 44.5z" />
    <glyph glyph-name="afii10084" unicode="&#x442;" horiz-adv-x="625" 
d="M620 1057l-232 -1057h-150l231 1057h-221l31 145h593l-32 -145h-220z" />
    <glyph glyph-name="Nu" unicode="&#x39d;" horiz-adv-x="950" 
d="M134 0l333 1521h220l75 -1251l268 1251h154l-327 -1521h-212l-87 1259l-269 -1259h-155z" />
    <glyph glyph-name="afii10044" unicode="&#x42a;" horiz-adv-x="966" 
d="M355 1520h155v1h154l-127 -579h152q68 0 122 -10.5t91 -36.5t56.5 -69.5t19.5 -108.5q0 -30 -4 -64.5t-13 -75.5l-48 -218q-23 -101 -62 -170t-92 -111t-119.5 -60t-144.5 -18h-318l300 1373h-153zM805 577q12 55 12 95q0 68 -38 96t-122 28h-152l-142 -647h165
q51 0 89 13.5t65.5 40t46 66t29.5 90.5z" />
    <glyph glyph-name="afii10026" unicode="&#x418;" horiz-adv-x="951" 
d="M702 0l281 1260l-638 -1260h-213l338 1521h155l-280 -1251l623 1251h220l-332 -1521h-154z" />
    <glyph glyph-name="afii10037" unicode="&#x423;" horiz-adv-x="806" 
d="M601 550l-279 -550h-154l278 544l-92 975h168l49 -753l390 753h155z" />
    <glyph glyph-name="afii10105" unicode="&#x458;" horiz-adv-x="411" 
d="M433 1472q0 46 26.5 74t86.5 28q43 0 62.5 -16t19.5 -45q0 -22 -6 -41t-19.5 -32.5t-36 -21t-55.5 -7.5q-78 0 -78 61zM544 1202l-265 -1211q-21 -94 -45 -168.5t-62.5 -126t-96 -78.5t-145.5 -27q-62 0 -103.5 17.5t-63.5 34.5l41 128q17 -10 53.5 -23.5t87.5 -13.5
q44 0 72 13.5t47 43.5t33 79t30 121l265 1211h152z" />
    <glyph glyph-name="afii10097" unicode="&#x44f;" horiz-adv-x="822" 
d="M553 0l111 478h-126q-31 -5 -62.5 -16.5t-61.5 -36.5t-58.5 -67t-52.5 -109l-34 -94q-19 -51 -38 -90t-36 -65h-157q23 35 44 72.5t38 87.5l32 93q21 61 42 103.5t45 72.5t52.5 51.5t65.5 41.5q-54 33 -83.5 88t-29.5 127q0 21 3 42.5t8 44.5l11 45q19 82 51.5 144.5
t81.5 104.5t116.5 63t157.5 21h307l-276 -1202h-151zM406 824q-8 -38 -8 -67q0 -66 36.5 -100t108.5 -34h153l100 435h-156q-41 0 -76.5 -9t-63.5 -31t-49 -58t-34 -90z" />
    <glyph glyph-name="Dsmall" unicode="&#xf764;" horiz-adv-x="881" 
d="M432 0h-301l262 1202h302q78 0 130 -19t83 -53t44 -80t13 -100q0 -45 -7 -92t-18 -97l-70 -321q-19 -86 -48.5 -165t-79.5 -140.5t-125 -98t-185 -36.5zM516 1054l-200 -907h158q49 1 87 19t67.5 54t51 91t38.5 130l69 319q19 85 19 147q0 73 -31 108.5t-100 38.5h-159z
" />
    <glyph glyph-name="Esmall" unicode="&#xf765;" horiz-adv-x="751" 
d="M128 0l262 1202h562l-32 -148h-410l-80 -362h317l-31 -148h-318l-87 -396h410l-32 -148h-561z" />
    <glyph glyph-name="Fsmall" unicode="&#xf766;" horiz-adv-x="712" 
d="M128 0l262 1202h563l-33 -152h-411l-82 -374h321l-32 -152h-322l-114 -524h-152z" />
    <glyph glyph-name="Gsmall" unicode="&#xf767;" horiz-adv-x="830" 
d="M547 617h335l-16 -48h6l-42 -191q-10 -46 -23.5 -93t-34.5 -91t-51 -82.5t-72.5 -67t-99.5 -45t-132 -16.5q-77 0 -127 18.5t-79.5 51t-41.5 76.5t-12 95q0 50 9 103.5t20 107.5l63 294l26 110q18 77 47 146.5t76.5 121.5t117.5 82.5t171 30.5q79 0 130 -18t80.5 -49
t41 -72.5t11.5 -87.5q0 -41 -6.5 -83.5t-15.5 -83.5l-3 -16h-151l3 16q8 32 14 65t6 62q0 26 -6.5 48.5t-22.5 39t-43.5 26t-69.5 9.5q-63 0 -104 -24.5t-67.5 -66.5t-43 -98.5t-30.5 -119.5l-59 -271q-14 -62 -25.5 -117t-14.5 -103q-1 -30 4.5 -57t20.5 -47.5t42 -32
t69 -11.5q63 0 103 21t65 55.5t39 80t25 93.5l26 115h-184z" />
    <glyph glyph-name="Hsmall" unicode="&#xf768;" horiz-adv-x="915" 
d="M128 0l262 1202h153l-118 -536h356l117 536h152l-262 -1202h-153l113 515h-355l-113 -515h-152z" />
    <glyph glyph-name="Jsmall" unicode="&#xf76a;" horiz-adv-x="593" 
d="M71 162q26 -16 53 -24t72 -8q47 0 80.5 11t59 40t44 78.5t35.5 126.5l179 816h151l-180 -823h-1v-3q-19 -86 -45 -158t-70.5 -124.5t-113.5 -81.5t-174 -29q-63 0 -102 11.5t-67 39.5z" />
    <glyph glyph-name="Lsmall" unicode="&#xf76c;" horiz-adv-x="702" 
d="M542 1202l-231 -1050h411l-32 -152h-562l262 1202h152z" />
    <glyph glyph-name="Msmall" unicode="&#xf76d;" horiz-adv-x="1130" 
d="M1052 1203h222l-264 -1203h-154l232 1034l-390 -798h-160l-36 798l-220 -1034h-154l262 1203h222l43 -760h15z" />
    <glyph glyph-name="Nsmall" unicode="&#xf76e;" horiz-adv-x="922" 
d="M484 919l-201 -919h-155l257 1202h67v1l105 -1h30l110 -916l201 916h154l-262 -1202h-202z" />
    <glyph glyph-name="Qsmall" unicode="&#xf771;" horiz-adv-x="840" 
d="M347 -12q-56 8 -92.5 29.5t-58 52t-30.5 70t-9 83.5q0 50 8.5 104t20.5 108l72 332q12 56 28 111.5t38.5 105.5t53.5 93.5t74.5 75t101.5 49.5t133 18q76 0 126 -18.5t79 -51t41 -76t12 -94.5q0 -50 -8.5 -104t-20.5 -108l-72 -332q-17 -77 -41 -152.5t-64 -137
t-101 -104t-152 -54.5l-26 -122h-139zM655 1076q-63 0 -104 -24.5t-67.5 -66.5t-43 -98.5t-30.5 -119.5l-73 -333q-11 -48 -19 -92t-8 -82q0 -29 6.5 -53.5t22 -42t42 -27t66.5 -9.5q63 0 103.5 24.5t67 66t42.5 97.5t30 119l73 334q11 48 19.5 93t8.5 83q0 29 -6.5 53
t-22 41.5t-42 27t-65.5 9.5z" />
    <glyph glyph-name="Usmall" unicode="&#xf775;" horiz-adv-x="886" 
d="M1041 1202l-180 -827q-18 -84 -45 -154.5t-73 -122t-116 -81.5t-174 -33v-1h-10h-10l-1 1q-74 2 -123.5 18.5t-79 45t-42 68t-12.5 88.5q0 38 6 81t17 90l180 827h154l-179 -820q-8 -38 -14.5 -72t-6.5 -63q0 -27 6.5 -48t23 -36.5t43 -24t67.5 -9.5q64 1 104 19.5
t65 51.5t39.5 79.5t27.5 102.5l180 820h153z" />
    <glyph glyph-name="Wsmall" unicode="&#xf777;" horiz-adv-x="1209" 
d="M285 1203h157l-81 -1059h14l381 1059h234l-81 -1059h13l382 1059h156l-450 -1203h-246l79 1058h-4l-383 -1058h-247z" />
    <glyph glyph-name="Ysmall" unicode="&#xf779;" horiz-adv-x="695" 
d="M951 1202l-423 -737l-101 -465h-154l102 465l-106 737h153l68 -564l316 564h145z" />
    <glyph glyph-name="epsilon" unicode="&#x3b5;" horiz-adv-x="887" 
d="M707 392h150l-3 -14q-15 -69 -39.5 -139t-69.5 -127t-118 -93t-186 -36q-77 0 -127 18.5t-79.5 51t-41.5 76.5t-12 95q0 50 9 103.5t20 107.5l64 294q6 27 12 54.5t13 55.5q18 77 47 146.5t76.5 121.5t117.5 82.5t171 30.5q79 0 130 -18t80.5 -49t41 -72.5t11.5 -87.5
q0 -41 -6.5 -83.5t-15.5 -83.5l-3 -16h-151l3 16q8 32 14 65t6 62q0 26 -6.5 48.5t-22.5 39t-43.5 26t-69.5 9.5q-63 0 -104 -24.5t-67.5 -66.5t-43 -98t-30.5 -119l-21 -96l366 4l-29 -139l-366 1l-9 -42q-14 -62 -25 -117t-15 -103q-1 -30 4.5 -57t20.5 -47.5t42 -32
t69 -11.5q63 0 103 21t65 55.5t39 80t25 93.5z" />
    <glyph glyph-name="afii10095" unicode="&#x44d;" horiz-adv-x="886" 
d="M347 378q-9 -36 -16 -70.5t-7 -64.5q0 -26 6.5 -47.5t22.5 -37.5t42.5 -24.5t66.5 -8.5q47 0 81.5 13.5t60 36.5t43.5 54t32 67q15 47 27.5 97l25.5 102l10 44h-364l30 136l366 -4l24 96q13 52 22.5 99t9.5 86q0 29 -6.5 52.5t-22 40t-41 25.5t-63.5 9
q-66 0 -108.5 -22.5t-68.5 -59t-40.5 -81.5t-26.5 -90l-2 -16h-148l3 16q10 44 24.5 90.5t36 90t52 82.5t74 68t101.5 46t134 17q73 0 122.5 -17t79 -47t42 -72t12.5 -91q0 -36 -5.5 -74.5t-14.5 -79.5q-7 -28 -13 -55.5t-12 -54.5l-71 -293q-13 -55 -29.5 -109.5t-40 -105
t-55.5 -94t-76.5 -75.5t-103 -50.5t-134.5 -18.5t-125.5 17t-78.5 46t-40.5 68t-11.5 84q0 43 7.5 89t18.5 91l2 14h148z" />
    <glyph glyph-name="afii10101" unicode="&#x454;" horiz-adv-x="886" 
d="M707 392h150l-3 -14q-15 -69 -39.5 -139t-69.5 -127t-118 -93t-186 -36q-77 0 -127 18.5t-79.5 51t-41.5 76.5t-12 95q0 50 9 103.5t20 107.5l64 294q6 27 12 54.5t13 55.5q18 77 47 146.5t76.5 121.5t117.5 82.5t171 30.5q79 0 130 -18t80.5 -49t41 -72.5t11.5 -87.5
q0 -41 -6.5 -83.5t-15.5 -83.5l-3 -16h-151l3 16q8 32 14 65t6 62q0 26 -6.5 48.5t-22.5 39t-43.5 26t-69.5 9.5q-63 0 -104 -24.5t-67.5 -66.5t-43 -98t-30.5 -119l-21 -96l366 4l-29 -139l-366 1l-9 -42q-14 -62 -25 -117t-15 -103q-1 -30 4.5 -57t20.5 -47.5t42 -32
t69 -11.5q63 0 103 21t65 55.5t39 80t25 93.5z" />
    <glyph glyph-name="afii10061" unicode="&#x40c;" horiz-adv-x="880" 
d="M133 0l333 1521h155l-149 -681h121l427 679h167l-462 -747l156 -772h-166l-150 692h-126l-151 -692h-155zM1089 1858l-215 -254h-121l185 254h151z" />
    <glyph glyph-name="tau" unicode="&#x3c4;" horiz-adv-x="626" 
d="M620 1057l-231 -1057h-151l232 1057h-235l32 145h618l-31 -145h-234z" />
    <glyph glyph-name="spessoresmall" horiz-adv-x="774" 
d="M680 799h171l-13 -65h-171zM749 954l84 112l38 -23l-84 -112z" />
    <glyph glyph-name="afii10041" unicode="&#x427;" horiz-adv-x="947" 
d="M619 1520l-124 -567q-9 -42 -15.5 -81.5t-6.5 -74.5q0 -33 7 -60.5t24 -47.5t45.5 -31t71.5 -11q60 0 103 30t72.5 79t49 111t33.5 125l115 528h155l-333 -1520h-154l144 656q-38 -68 -99 -110.5t-147 -42.5q-71 0 -118.5 19.5t-75.5 53.5t-39.5 79.5t-11.5 97.5
q0 48 8 99.5t19 102.5l123 565h154z" />
    <glyph glyph-name="afii10052" unicode="&#x403;" horiz-adv-x="756" 
d="M1057 1521l-33 -144h-423l-316 -1377h-151l349 1521h574zM1079 1854l-219 -253h-119l189 253h149z" />
    <glyph glyph-name="afii10093" unicode="&#x44b;" horiz-adv-x="1276" 
d="M992 0l264 1202h151l-262 -1202h-153zM867 359q-23 -101 -62 -170t-92.5 -111t-119.5 -60t-144 -18h-318l263 1202h154l-88 -403h152q68 0 122 -10.5t91 -36.5t56.5 -69.5t19.5 -108.5q0 -30 -4 -64.5t-13 -75.5zM728 435q12 54 12 93q0 69 -38 97t-122 28h-152
l-111 -504h165q51 0 89 13.5t65.5 40t46 65.5t29.5 90z" />
    <glyph glyph-name="afii10094" unicode="&#x44c;" horiz-adv-x="899" 
d="M864 359q-22 -101 -61 -170t-92.5 -111t-120 -60t-143.5 -18h-318l262 1202h155l-88 -403h151q68 0 122 -10.5t91 -36.5t56.5 -69.5t19.5 -108.5q0 -30 -4 -64.5t-13 -75.5zM726 435q12 54 12 93q0 69 -38 97t-122 28h-152l-111 -504h165q102 0 154.5 53.5t75.5 155.5z
" />
    <glyph glyph-name="afii10069" unicode="&#x434;" horiz-adv-x="950" 
d="M828 145h128l-69 -320h-152l39 175h-598l-39 -175h-151l70 320h5q41 0 87.5 54t94 156.5t93.5 250t87 333.5l58 264l139 -1h440zM569 911q-27 -125 -59 -241t-71 -215.5t-86 -179t-105 -130.5h429l200 912h-277z" />
    <glyph glyph-name="afii10021" unicode="&#x414;" horiz-adv-x="1026" 
d="M909 149h125l-70 -324h-155l39 176h-671l-38 -176h-155l70 324h13q29 0 58 26t57 70.5t55 104.5t52 128t47.5 140.5t41.5 143t35 135t27 115.5l112 509l138 -1h519zM594 1010q-32 -147 -67 -280t-75.5 -244.5t-87.5 -197.5t-103 -139h494l267 1223h-349z" />
    <glyph glyph-name="afii10058" unicode="&#x409;" horiz-adv-x="1484" 
d="M1447 359q-22 -101 -61 -170t-92.5 -111t-120 -60t-144.5 -18h-318l300 1373h-382l-207 -949q-26 -119 -57.5 -202.5t-77.5 -137t-110.5 -78t-157.5 -24.5l32 148q51 0 84.5 16.5t57 52t40.5 91.5t35 135l240 1096h691l-127 -579h151q68 0 122 -10.5t91 -36.5t56.5 -69.5
t19.5 -108.5q0 -30 -4 -64.5t-13 -74.5zM1339 577q12 55 12 94q0 69 -38 97t-122 28h-151l-142 -647h165q51 0 88.5 13.5t65 40t46 66t29.5 90.5z" />
    <glyph glyph-name="afii10059" unicode="&#x40a;" horiz-adv-x="1433" 
d="M131 0l333 1521h154l-134 -611h375l134 611h155l-134 -611h152q68 0 121.5 -10.5t90.5 -36.5t56.5 -69.5t19.5 -108.5q0 -30 -4 -65t-13 -76l-41 -185q-22 -101 -61 -170t-92 -111t-119.5 -60t-144.5 -18h-319l167 763h-375l-166 -763h-155zM1282 545q12 54 12 94
q0 68 -38 96t-123 28h-151l-134 -613h164q51 0 89 13.5t65.5 39.5t45.5 65.5t29 90.5z" />
    <glyph glyph-name="afii10060" unicode="&#x40b;" horiz-adv-x="1068" 
d="M800 0l128 588q11 48 19 92.5t8 82.5q0 29 -6.5 53t-22 41.5t-41.5 27t-66 9.5q-60 0 -102 -30.5t-70.5 -79t-47 -110.5t-32.5 -125l-120 -549h-151l303 1386h151l-110 -501q19 34 44 62t55.5 48t67.5 31.5t80 11.5q67 0 110.5 -17t69.5 -47t36.5 -70.5t10.5 -88.5
q0 -54 -9.5 -112t-22.5 -117l-129 -586h-153zM747 1371l-300 -1371h-154l300 1371h-270l31 148h695l-31 -148h-271z" />
    <glyph glyph-name="afii10072" unicode="&#x436;" horiz-adv-x="1165" 
d="M921 1201l-115 -525h45l360 526h157l-421 -601l196 -601h-169l-158 529h-42l-116 -529h-152l115 529h-39l-389 -529h-169l459 601l-158 601h157l129 -526h42l115 525h153z" />
    <glyph glyph-name="afii10077" unicode="&#x43b;" horiz-adv-x="975" 
d="M705 0l231 1057h-379l-138 -633q-26 -119 -58 -202.5t-78 -137t-110 -78t-154 -24.5l31 145q51 0 84.5 16.5t57.5 52t41 91.5t35 135l170 781l139 -1h542l-263 -1202h-151z" />
    <glyph glyph-name="afii10107" unicode="&#x45a;" horiz-adv-x="1406" 
d="M1370 359q-22 -101 -61 -170t-92.5 -111t-120 -60t-144.5 -18h-315l135 619h-354l-136 -619h-152l262 1202h153l-96 -436h355l96 436h150l-95 -436h153q68 0 121.5 -10.5t90.5 -36.5t56.5 -69.5t19.5 -108.5q0 -30 -4 -65t-13 -76zM1224 401q12 54 12 93q0 69 -38 97
t-122 28h-152l-80 -359l-25 -111h167q51 0 88.5 13.5t65 40t46 65.5t29.5 90z" />
    <glyph glyph-name="i.trk" horiz-adv-x="438" 
d="M442 1472q0 46 26.5 74t86.5 28q43 0 62.5 -16t19.5 -45q0 -22 -6 -41t-19.5 -32.5t-36 -21t-55.5 -7.5q-78 0 -78 61zM136 0l263 1202h152l-263 -1202h-152z" />
    <glyph glyph-name="zero.slash" horiz-adv-x="881" 
d="M208 422l147 675q12 56 27.5 110.5t37 103.5t52 90.5t73.5 72t100 47.5t132 17q76 0 126 -17.5t79.5 -48t41.5 -72.5t12 -91t-9 -102.5t-21 -108.5l-148 -674q-12 -56 -27 -110.5t-37 -103.5t-52.5 -90.5t-73 -72t-99.5 -47.5t-132 -17q-76 0 -126 17.5t-79 48.5t-41 73
t-12 91t8.5 102t20.5 107zM745 1391q-62 0 -101.5 -22.5t-64.5 -62t-40 -93.5t-29 -117l-104 -477l447 484q11 46 18.5 88.5t7.5 77.5q0 27 -6.5 49.5t-21.5 38.5t-41 25t-65 9zM469 130q63 0 102.5 22.5t64.5 62t40 93.5t29 117l103 472l-449 -490q-10 -44 -17 -83t-7 -73
q0 -27 6.5 -49.5t21.5 -38.5t41 -24.5t65 -8.5z" />
    <glyph glyph-name="afii10066" unicode="&#x431;" horiz-adv-x="888" 
d="M1106 1569q-25 -42 -52.5 -77t-66.5 -60.5t-95.5 -39.5t-139.5 -14q-63 0 -109 -23t-79.5 -63t-56.5 -94.5t-41 -118.5q48 64 111.5 102.5t142.5 38.5q66 0 109 -16t68.5 -43.5t36 -66t10.5 -83.5q0 -56 -12 -118.5t-26 -125.5l-76 -330q-20 -89 -47 -171t-74.5 -145
t-121.5 -100.5t-189 -37.5q-75 0 -124 18.5t-78.5 50t-41 74t-11.5 92.5q0 51 9.5 106.5t22.5 111.5l93 408h1l5 23q30 131 68 245.5t93 200t129.5 135t178.5 50.5q67 0 111 10.5t70 23t38 23.5t16 14h128zM391 733l-68 -298q-11 -49 -20 -95t-9 -85q0 -29 6.5 -53t22 -41
t42 -26.5t66.5 -9.5q64 0 105.5 24.5t68.5 67t44 99.5t32 121l76 331q11 49 20.5 95.5t9.5 85.5q0 29 -6.5 53t-22.5 41t-42.5 26.5t-65.5 9.5q-75 0 -121.5 -41t-75.5 -105q-20 -42 -35 -95.5t-26 -104.5h-1z" />
    <glyph glyph-name="afii10073" unicode="&#x437;" horiz-adv-x="864" 
d="M430 540l10 50l18 76l124 1q40 0 76 10.5t66 31.5t51.5 53.5t31.5 77.5l7 26q10 43 10 80q0 69 -37.5 100.5t-108.5 31.5q-83 0 -141 -55t-81 -151l-18 -75h-148l10 46q87 379 411 379q72 0 123 -16t83.5 -45.5t47 -71.5t14.5 -95q0 -29 -4 -61.5t-12 -67.5
q-14 -59 -38.5 -105.5t-54.5 -79.5t-61.5 -53.5t-59.5 -26.5q54 -9 79 -54.5t25 -113.5q0 -48 -12 -102q-17 -75 -49.5 -139t-83 -110.5t-120.5 -72.5t-163 -26q-254 0 -254 235q0 32 5 68t14 77l11 44h148l-17 -74q-5 -19 -6.5 -36t-1.5 -33q0 -65 34.5 -101t100.5 -36
q88 0 148.5 54t89.5 180q6 24 6 48q0 27 -8 51t-26 42t-46.5 28.5t-69.5 10.5h-123z" />
    <glyph glyph-name="afii10086" unicode="&#x444;" horiz-adv-x="1333" 
d="M509 -369l96 438q-35 -40 -83 -63t-112 -23q-68 0 -112.5 17t-71 47.5t-37.5 72t-11 89.5q0 53 9.5 110t22.5 117l73 332q18 82 42.5 162.5t68.5 145t113 104.5t175 40q64 0 101.5 -22.5t55.5 -61.5l84 385h151l-85 -386q35 39 82.5 62t112.5 23q69 0 114 -17.5t71.5 -48
t37.5 -72t11 -89.5q0 -53 -9.5 -110t-22.5 -115l-72 -332q-13 -56 -28 -111.5t-36 -105.5t-49.5 -93.5t-69 -75t-93.5 -49.5t-123 -18q-66 0 -103.5 23.5t-54.5 64.5l-96 -440h-152zM1125 1076q-61 0 -101.5 -27t-68.5 -72l-167 -763q9 -39 39 -62.5t90 -23.5q63 0 104 24.5
t67.5 66.5t42.5 98t30 119l73 333q11 48 19 93t8 83q0 29 -6.5 53t-22 41.5t-41.5 27t-66 9.5zM471 128q59 0 98.5 22.5t66.5 60.5l169 771q-9 42 -38 68t-88 26q-65 0 -106.5 -25.5t-67.5 -68.5t-41.5 -98t-28.5 -115l-73 -334q-11 -48 -18.5 -92t-7.5 -82q0 -30 6.5 -54.5
t22 -42t41.5 -27t65 -9.5z" />
    <glyph glyph-name="gamma" unicode="&#x3b3;" horiz-adv-x="766" 
d="M226 -369l86 395h153l-86 -395h-153zM1006 1203l-509 -1203h-227l17 1203h156l-35 -1059h13l429 1059h156z" />
    <glyph glyph-name="pi" unicode="&#x3c0;" horiz-adv-x="1085" 
d="M1095 1057l-231 -1057h-151l232 1057h-359l-231 -1057h-151l232 1057h-175l31 145h1008l-31 -145h-174z" />
    <glyph glyph-name="uni03BC" unicode="&#x3bc;" horiz-adv-x="918" 
d="M1061 1202l-167 -768q-12 -54 -26.5 -108.5t-35 -104.5t-49 -93.5t-68 -75.5t-92.5 -50.5t-122 -18.5q-43 0 -74.5 11t-53 31.5t-33.5 48.5t-16 62l-109 -501h-152l342 1567h152l-160 -733q-11 -51 -19 -99.5t-8 -91.5q0 -33 6 -60.5t20.5 -48t39 -31.5t61.5 -11
q66 0 107.5 25.5t68 68.5t41.5 98t28 114l169 769h150z" />
    <glyph glyph-name="phi" unicode="&#x3c6;" horiz-adv-x="990" 
d="M338 -366l76 350q-69 3 -114 23t-71.5 52t-37.5 74.5t-11 90.5q0 50 8.5 103.5t20.5 107.5l73 332q18 81 43.5 160.5t70.5 142.5t114 103.5t174 45.5l77 349h152l-76 -349q69 -3 114.5 -22.5t72 -51.5t37.5 -74.5t11 -91.5q0 -50 -8.5 -104t-20.5 -108l-72 -331
q-18 -82 -44 -161.5t-71 -142.5t-114.5 -103.5t-175.5 -44.5l-76 -350h-152zM890 769q11 48 19.5 93t8.5 83q0 27 -5.5 49.5t-18.5 39.5t-34.5 27.5t-54.5 13.5l-207 -946q55 5 91.5 31t60.5 67t39 95t29 114zM361 434q-11 -48 -19 -92.5t-8 -82.5q0 -27 5.5 -49.5
t18.5 -39.5t34.5 -27.5t53.5 -13.5l207 946q-55 -5 -91 -31.5t-60 -68t-39.5 -95t-28.5 -113.5z" />
    <glyph glyph-name="sigma" unicode="&#x3c3;" horiz-adv-x="840" 
d="M1037 1075l-135 16q21 -29 29.5 -65t8.5 -78q0 -46 -8.5 -96t-19.5 -102l-68 -314q-13 -56 -28.5 -111.5t-38 -105.5t-53.5 -93.5t-74 -75t-100.5 -49.5t-132.5 -18q-77 0 -127 18.5t-79.5 51t-41.5 76t-12 94.5q0 50 8.5 104t20.5 108l72 332q12 56 28 111.5t38.5 105.5
t53.5 93.5t74.5 75t101.5 49.5t133 18h381zM655 1076q-63 0 -104 -24.5t-67.5 -66.5t-43 -98.5t-30.5 -119.5l-73 -333q-11 -48 -19 -92t-8 -82q0 -29 6.5 -53.5t22 -42t42 -27t66.5 -9.5q63 0 103.5 24.5t67 66t42.5 97.5t30 119l73 334q11 48 19.5 93t8.5 83q0 29 -6.5 53
t-22 41.5t-42 27t-65.5 9.5z" />
    <glyph glyph-name="upsilon" unicode="&#x3c5;" horiz-adv-x="886" 
d="M1041 1202l-180 -827q-18 -84 -45 -154.5t-73 -122t-116 -81.5t-174 -33v-1h-10h-10l-1 1q-74 2 -123.5 18.5t-79 45t-42 68t-12.5 88.5q0 38 6 81t17 90l180 827h154l-179 -820q-8 -38 -14.5 -72t-6.5 -63q0 -27 6.5 -48t23 -36.5t43 -24t67.5 -9.5q64 1 104 19.5
t65 51.5t39.5 79.5t27.5 102.5l180 820h153z" />
    <glyph glyph-name="psi" unicode="&#x3c8;" horiz-adv-x="982" 
d="M532 1202l-179 -820q-9 -38 -15 -72t-6 -63q0 -48 23.5 -78t85.5 -38l314 1437h152l-315 -1438q54 5 88.5 25.5t56 53t35 76.5t25.5 97l180 820h153l-181 -827q-18 -82 -44 -151t-70 -121t-110 -83t-165 -36l-76 -350h-152l76 350q-66 4 -111 21.5t-72 46t-38.5 67.5
t-11.5 86q0 38 6 80.5t17 89.5l180 827h154z" />
    <glyph glyph-name="lambda" unicode="&#x3bb;" horiz-adv-x="767" 
d="M24 0l496 1203h109l2 31q2 46 -5 83t-21 65t-33 48.5t-41 34.5l91 103q35 -18 64.5 -48t50 -70.5t31 -92t7.5 -113.5l-2 -41h1l-31 -1203h-157l37 959h-6l5 100h-19l-422 -1059h-157z" />
    <glyph glyph-name="omicrontonos" unicode="&#x3cc;" horiz-adv-x="840" 
d="M826 1539l-74 -254h-121l43 254h152zM258 767q12 56 28 111.5t38.5 105.5t53.5 93.5t74.5 75t101.5 49.5t133 18q76 0 126 -18.5t79 -51t41 -76t12 -94.5q0 -50 -8.5 -104t-20.5 -108l-72 -332q-13 -56 -28.5 -111.5t-38 -105.5t-53.5 -93.5t-74 -75t-100.5 -49.5
t-132.5 -18q-77 0 -127 18.5t-79.5 51t-41.5 76t-12 94.5q0 50 8.5 104t20.5 108zM655 1076q-63 0 -104 -24.5t-67.5 -66.5t-43 -98.5t-30.5 -119.5l-73 -333q-11 -48 -19 -92t-8 -82q0 -29 6.5 -53.5t22 -42t42 -27t66.5 -9.5q63 0 103.5 24.5t67 66t42.5 97.5t30 119
l73 334q11 48 19.5 93t8.5 83q0 29 -6.5 53t-22 41.5t-42 27t-65.5 9.5z" />
    <glyph glyph-name="etatonos" unicode="&#x3ae;" horiz-adv-x="900" 
d="M877 1539l-75 -254h-110l43 254h142zM553 -366l249 1135q11 49 20 95.5t9 85.5q0 28 -6.5 51t-21.5 39.5t-40.5 25.5t-63.5 9q-61 0 -103.5 -30.5t-72.5 -79t-49.5 -110.5t-33.5 -125l-159 -730h-152l262 1202h152l-31 -142q20 33 48 61.5t62 50.5t73.5 34.5t82.5 12.5
q62 0 103 -15.5t65 -43t34 -65t10 -81.5q0 -57 -11.5 -120t-25.5 -126l-248 -1134h-152z" />
    <glyph glyph-name="chi" unicode="&#x3c7;" horiz-adv-x="778" 
d="M596 0l-104 486l-318 -486h-152l410 625l-131 577h160l96 -447l295 447h149l-382 -577l137 -625h-160z" />
    <glyph glyph-name="omega" unicode="&#x3c9;" horiz-adv-x="1309" 
d="M901 779l-65 -296q-14 -62 -22 -114t-8 -94q0 -69 27 -106.5t95 -37.5q48 0 81 19.5t56.5 59.5t41 100t35.5 140l61 280q11 48 17 90.5t6 78.5q0 80 -34 125t-116 47l33 145q78 -2 130 -23t84 -57t45.5 -85.5t13.5 -109.5q0 -48 -7 -100t-20 -109l-60 -273
q-11 -49 -24.5 -103.5t-33.5 -107.5t-48 -101.5t-68.5 -85t-95.5 -58t-128 -21.5q-47 0 -83 11.5t-62 32t-43.5 48t-27.5 60.5q-25 -33 -54 -60.5t-63.5 -48t-74 -32t-84.5 -11.5q-67 0 -110.5 18.5t-69 50t-35.5 73.5t-10 89q0 60 11.5 124t24.5 122l59 273q21 99 54 186
t86.5 152.5t130.5 104.5t187 42l-30 -145q-60 -2 -104.5 -27t-77.5 -69.5t-55.5 -107t-39.5 -138.5l-62 -281q-14 -64 -22.5 -114.5t-8.5 -88.5q0 -58 23.5 -86.5t81.5 -28.5q54 0 93 24.5t67.5 70.5t48.5 111t38 146l65 296h151z" />
    <glyph glyph-name="omegatonos" unicode="&#x3ce;" horiz-adv-x="1272" 
d="M1038 1539l-72 -254h-121l41 254h152zM876 779l-65 -296q-14 -62 -22 -114t-8 -94q0 -69 27 -106.5t95 -37.5q48 0 81 19.5t56.5 59.5t41 100t35.5 140l61 280q11 48 17 90.5t6 78.5q0 80 -34 125t-116 47l33 145q78 -2 130 -23t84 -57t45.5 -85.5t13.5 -109.5
q0 -48 -7 -100t-20 -109l-60 -273q-11 -49 -24.5 -103.5t-33.5 -107.5t-48 -101.5t-68.5 -85t-95.5 -58t-128 -21.5q-47 0 -83 11.5t-62 32t-43.5 48t-27.5 60.5q-25 -33 -54 -60.5t-63.5 -48t-74 -32t-84.5 -11.5q-67 0 -110.5 18.5t-69 50t-35.5 73.5t-10 89
q0 60 11.5 124t24.5 122l59 273q21 99 54 186t86.5 152.5t130.5 104.5t187 42l-30 -145q-60 -2 -104.5 -27t-77.5 -69.5t-55.5 -107t-39.5 -138.5l-62 -281q-14 -64 -22.5 -114.5t-8.5 -88.5q0 -58 23.5 -86.5t81.5 -28.5q54 0 93 24.5t67.5 70.5t48.5 111t38 146l65 296
h151z" />
    <glyph glyph-name="epsilontonos" unicode="&#x3ad;" horiz-adv-x="888" 
d="M707 392h150l-3 -14q-15 -69 -39.5 -139t-69.5 -127t-118 -93t-186 -36q-77 0 -127 18.5t-79.5 51t-41.5 76.5t-12 95q0 50 9 103.5t20 107.5l64 294q6 27 12 54.5t13 55.5q18 77 47 146.5t76.5 121.5t117.5 82.5t171 30.5q79 0 130 -18t80.5 -49t41 -72.5t11.5 -87.5
q0 -41 -6.5 -83.5t-15.5 -83.5l-3 -16h-151l3 16q8 32 14 65t6 62q0 26 -6.5 48.5t-22.5 39t-43.5 26t-69.5 9.5q-63 0 -104 -24.5t-67.5 -66.5t-43 -98t-30.5 -119l-21 -96l366 4l-29 -139l-366 1l-9 -42q-14 -62 -25 -117t-15 -103q-1 -30 4.5 -57t20.5 -47.5t42 -32
t69 -11.5q63 0 103 21t65 55.5t39 80t25 93.5zM851 1539l-75 -254h-110l43 254h142z" />
    <glyph glyph-name="xi" unicode="&#x3be;" horiz-adv-x="940" 
d="M520 1052q-10 -43 -10 -78q0 -68 36 -94.5t95 -26.5h179l-31 -144h-178q-53 0 -97 -13t-77.5 -41.5t-55.5 -74.5t-30 -112l-16 -101q-6 -47 -6 -84q0 -81 33 -119t113 -37l63 -23l33 -121h-132q-68 0 -117.5 15t-82 47.5t-48 84t-15.5 124.5q0 114 17 207t52 161
t89 108.5t128 51.5q-107 35 -107 175q0 22 2.5 46.5t8.5 50.5l19 87q18 89 44.5 162.5t73 125.5t119.5 80.5t186 28.5q79 0 130.5 -19.5t81.5 -53t41.5 -78.5t11.5 -95q0 -43 -6.5 -88t-14.5 -89l-5 -23h-154l5 23q8 38 13 73t5 66q0 30 -6.5 55.5t-22.5 43.5t-43 28t-67 10
q-63 0 -104 -15.5t-67.5 -48t-42 -81t-27.5 -114.5zM508 -366l31 94q20 54 32 96.5t12 73.5q0 44 -31 64.5t-109 20.5q-11 0 -13 10.5t1.5 26.5t11 35t15 35t13.5 26.5t7 10.5q72 0 122 -13t80.5 -37t44 -58t13.5 -77q0 -46 -13 -100t-35 -114l-31 -94h-151z" />
    <glyph glyph-name="upsilondieresis" unicode="&#x3cb;" horiz-adv-x="886" 
d="M1041 1202l-180 -827q-18 -84 -45 -154.5t-73 -122t-116 -81.5t-174 -33v-1h-10h-10l-1 1q-74 2 -123.5 18.5t-79 45t-42 68t-12.5 88.5q0 38 6 81t17 90l180 827h154l-179 -820q-8 -38 -14.5 -72t-6.5 -63q0 -27 6.5 -48t23 -36.5t43 -24t67.5 -9.5q64 1 104 19.5
t65 51.5t39.5 79.5t27.5 102.5l180 820h153zM571 1413q0 46 23 77.5t79 31.5q37 0 53.5 -15.5t16.5 -44.5q0 -53 -25 -81t-81 -28q-35 0 -50.5 15.5t-15.5 44.5zM785 1413q0 23 5.5 43t17.5 34.5t31.5 23t47.5 8.5q38 0 54 -15.5t16 -44.5q0 -53 -24.5 -81t-81.5 -28
q-34 0 -50 15.5t-16 44.5z" />
    <glyph glyph-name="upsilontonos" unicode="&#x3cd;" horiz-adv-x="886" 
d="M862 1539l-72 -254h-120l40 254h152zM1041 1202l-180 -827q-18 -84 -45 -154.5t-73 -122t-116 -81.5t-174 -33v-1h-10h-10l-1 1q-74 2 -123.5 18.5t-79 45t-42 68t-12.5 88.5q0 38 6 81t17 90l180 827h154l-179 -820q-8 -38 -14.5 -72t-6.5 -63q0 -27 6.5 -48t23 -36.5
t43 -24t67.5 -9.5q64 1 104 19.5t65 51.5t39.5 79.5t27.5 102.5l180 820h153z" />
    <glyph glyph-name="uni03C2" unicode="&#x3c2;" horiz-adv-x="887" 
d="M441 -17q-77 0 -127 18.5t-79.5 51t-41.5 76.5t-12 95q0 50 8.5 103.5t20.5 107.5l63 294l26 110q18 77 47 146.5t76 121.5t117 82.5t171 30.5q79 0 130 -18.5t81 -49.5t41.5 -72.5t11.5 -87.5q0 -41 -6.5 -83t-15.5 -83l-3 -16h-151l3 16q8 32 14 64.5t6 61.5
q0 26 -6.5 49t-23 39.5t-43.5 26t-69 9.5q-63 0 -104 -24.5t-67.5 -66.5t-43 -98t-30.5 -119l-59 -272q-14 -62 -25.5 -117t-14.5 -105q-1 -30 5 -56.5t22 -46.5t43.5 -32t69.5 -12zM506 -366l31 94q20 54 32 96.5t12 73.5q0 44 -31 64.5t-109 20.5q-11 0 -13 10.5t1.5 26.5
t11 35t15 35t13.5 26.5t7 10.5q72 0 122 -13t80.5 -37t44 -58t13.5 -77q0 -46 -13 -100t-35 -114l-31 -94h-151z" />
    <glyph glyph-name="zeta" unicode="&#x3b6;" horiz-adv-x="692" 
d="M285 1202h504l-32 -152l-397 -594q-39 -62 -58 -113t-19 -92q0 -66 45.5 -100.5t133.5 -36.5q2 0 2.5 -0.5t2.5 -0.5q62 -6 105 -20.5t69.5 -36.5t38 -52t11.5 -67q0 -43 -13 -95t-36 -114l-32 -94h-150l30 94q19 52 30.5 92.5t11.5 70.5q0 46 -32 68.5t-110 24.5
q-69 4 -120.5 23t-85.5 49.5t-51 72t-17 89.5q0 54 21 115t64 125l395 592h-343z" />
    <glyph glyph-name="delta" unicode="&#x3b4;" horiz-adv-x="839" 
d="M702 1435l8.5 -13.5t23 -35t33.5 -48.5t39 -55q46 -67 105 -151h-4q21 -31 29.5 -69t8.5 -82q0 -51 -8.5 -105t-20.5 -108l-72 -332q-13 -56 -28.5 -111.5t-38 -105.5t-53.5 -93.5t-74 -75t-100.5 -49.5t-132.5 -18q-77 0 -127 18.5t-79.5 51t-41.5 76t-12 94.5
q0 50 8.5 104t20.5 108l72 332q18 81 43.5 159.5t70 141.5t113 104t172.5 47l-144 216l14 66l14 67h548l-28 -133h-359zM655 1076q-63 0 -104 -24.5t-67.5 -66.5t-43 -98.5t-30.5 -119.5l-73 -333q-11 -48 -19 -92t-8 -82q0 -29 6.5 -53.5t22 -42t42 -27t66.5 -9.5
q63 0 103.5 24.5t67 66t42.5 97.5t30 119l73 334q11 48 19.5 93t8.5 83q0 29 -6.5 53t-22 41.5t-42 27t-65.5 9.5z" />
    <glyph glyph-name="_480" horiz-adv-x="894" 
d="M510 -366l31 94q20 54 32 96.5t12 73.5q0 44 -31 64.5t-109 20.5q-11 0 -13 10.5t1.5 26.5t11 35t15 35t13.5 26.5t7 10.5q72 0 122 -13t80.5 -37t44 -58t13.5 -77q0 -46 -13 -100t-35 -114l-31 -94h-151z" />
    <glyph glyph-name="aacute" unicode="&#xe1;" horiz-adv-x="878" 
d="M603 0l27 123q-38 -63 -94 -102t-141 -39q-68 0 -113 17t-71.5 47.5t-37.5 71.5t-11 89q0 54 10 111.5t23 116.5l71 332q20 91 45.5 173t69 144t111.5 99t172 37q42 0 72.5 -11t51.5 -30.5t33 -46t17 -58.5l28 128h152l-263 -1202h-152zM449 126q55 0 95 23.5t68 62.5
t47 90t33 107l87 396q7 33 11.5 65.5t4.5 62.5q0 31 -6.5 57t-21.5 45.5t-40 30.5t-63 11q-63 0 -104.5 -27t-69 -71t-44 -99.5t-28.5 -112.5l-72 -334q-13 -57 -22.5 -105t-9.5 -86q0 -55 29 -85.5t106 -30.5zM982 1539l-215 -254h-121l185 254h151z" />
    <glyph glyph-name="abreve" unicode="&#x103;" horiz-adv-x="878" 
d="M603 0l27 123q-38 -63 -94 -102t-141 -39q-68 0 -113 17t-71.5 47.5t-37.5 71.5t-11 89q0 54 10 111.5t23 116.5l71 332q20 91 45.5 173t69 144t111.5 99t172 37q42 0 72.5 -11t51.5 -30.5t33 -46t17 -58.5l28 128h152l-263 -1202h-152zM449 126q55 0 95 23.5t68 62.5
t47 90t33 107l87 396q7 33 11.5 65.5t4.5 62.5q0 31 -6.5 57t-21.5 45.5t-40 30.5t-63 11q-63 0 -104.5 -27t-69 -71t-44 -99.5t-28.5 -112.5l-72 -334q-13 -57 -22.5 -105t-9.5 -86q0 -55 29 -85.5t106 -30.5zM1010 1513q-14 -51 -38.5 -93t-61.5 -72t-86 -47t-111 -17
q-54 0 -92.5 12.5t-63 35t-36 54t-11.5 69.5q0 28 6 58h97q-2 -9 -2 -17v-16q0 -49 27.5 -75.5t95.5 -26.5q76 0 117 34.5t61 100.5h98z" />
    <glyph glyph-name="Aogonek" unicode="&#x104;" horiz-adv-x="827" 
d="M626 1521h223l-46 -1521h-156l15 336h-367l-131 -336h-157zM351 477h317l41 900h-6zM809 -360q-23 -17 -58 -28t-78 -11q-33 0 -62 8.5t-51 26.5t-34.5 46.5t-12.5 68.5q0 61 21.5 106.5t55.5 78.5t76.5 56.5t85.5 41.5l65 -34q-31 -18 -60 -39t-51.5 -47.5t-36 -59
t-13.5 -73.5q0 -70 69 -70q32 0 53 5.5t40 16.5z" />
    <glyph glyph-name="Aring" unicode="&#xc5;" horiz-adv-x="827" 
d="M626 1521h223l-46 -1521h-156l15 336h-367l-131 -336h-157zM351 477h317l41 900h-6zM625 1727q0 44 11.5 82t36 65.5t64 43.5t95.5 16q78 0 111 -30.5t33 -87.5q0 -103 -52 -155t-163 -52q-71 0 -103.5 31t-32.5 87zM734 1754q0 -21 12 -33.5t39 -12.5q42 0 61.5 20.5
t19.5 60.5q0 21 -12 33t-42 12q-43 0 -60.5 -24t-17.5 -56z" />
    <glyph glyph-name="Abreve" unicode="&#x102;" horiz-adv-x="827" 
d="M626 1521h223l-46 -1521h-156l15 336h-367l-131 -336h-157zM351 477h317l41 900h-6zM1061 1832q-14 -51 -38.5 -93t-61.5 -72t-86 -47t-111 -17q-54 0 -92.5 12.5t-63 35t-36 54t-11.5 69.5q0 28 6 58h97q-2 -9 -2 -17v-16q0 -49 27.5 -75.5t95.5 -26.5q76 0 117 34.5
t61 100.5h98z" />
    <glyph glyph-name="Agrave" unicode="&#xc0;" horiz-adv-x="827" 
d="M626 1521h223l-46 -1521h-156l15 336h-367l-131 -336h-157zM351 477h317l41 900h-6zM748 1858l73 -254h-116l-102 254h145z" />
    <glyph glyph-name="Atilde" unicode="&#xc3;" horiz-adv-x="827" 
d="M626 1521h223l-46 -1521h-156l15 336h-367l-131 -336h-157zM351 477h317l41 900h-6zM1072 1798q-42 -65 -88 -104.5t-107 -39.5q-32 0 -56 11t-44.5 24t-40 24t-43.5 11q-26 0 -51.5 -15t-54.5 -50l-69 38q46 67 92.5 105.5t106.5 38.5q33 0 57.5 -11t45.5 -24.5
t41 -24.5t43 -11q24 0 48 16.5t50 48.5z" />
    <glyph glyph-name="Amacron" unicode="&#x100;" horiz-adv-x="827" 
d="M626 1521h223l-46 -1521h-156l15 336h-367l-131 -336h-157zM351 477h317l41 900h-6zM572 1694l26 122h425l-26 -122h-425z" />
    <glyph glyph-name="Adieresis" unicode="&#xc4;" horiz-adv-x="827" 
d="M626 1521h223l-46 -1521h-156l15 336h-367l-131 -336h-157zM351 477h317l41 900h-6zM600 1707q0 46 23 77.5t79 31.5q37 0 53.5 -15.5t16.5 -44.5q0 -53 -25 -81t-81 -28q-35 0 -50.5 15.5t-15.5 44.5zM814 1707q0 23 5.5 43t17.5 34.5t31.5 23t47.5 8.5q38 0 54 -15.5
t16 -44.5q0 -53 -24.5 -81t-81.5 -28q-34 0 -50 15.5t-16 44.5z" />
    <glyph glyph-name="Acircumflex" unicode="&#xc2;" horiz-adv-x="827" 
d="M626 1521h223l-46 -1521h-156l15 336h-367l-131 -336h-157zM351 477h317l41 900h-6zM552 1603l188 233h150l86 -233h-135l-45 144l-108 -144h-136z" />
    <glyph glyph-name="A.fat" horiz-adv-x="864" 
d="M678 0l14 336h-373l-133 -336h-159l613 1521h251l-55 -1521h-158zM375 477h323l37 851h-22z" />
    <glyph glyph-name="AEacute" unicode="&#x1fc;" horiz-adv-x="1306" 
d="M1245 1858l-215 -254h-121l185 254h151zM-4 0l751 1519h146l443 2l-31 -148l-335 -2l-114 -518h265l-31 -147h-266l-123 -559h335l-32 -147h-488l73 336h-278l-162 -336h-153zM620 477l197 900h-5l-433 -900h241z" />
    <glyph glyph-name="Hbar" unicode="&#x126;" horiz-adv-x="951" 
d="M134 0l333 1521h154l-149 -681h375l149 681h154l-332 -1521h-154l151 692h-375l-151 -692h-155zM634 1694l26 122h425l-26 -122h-425z" />
    <glyph glyph-name="Ncommaaccent" unicode="&#x145;" horiz-adv-x="950" 
d="M134 0l333 1521h220l75 -1251l268 1251h154l-327 -1521h-212l-87 1259l-269 -1259h-155zM377 -158q0 47 24 73.5t78 26.5q38 0 55 -19t17 -51q0 -38 -11.5 -73.5t-29.5 -67t-40.5 -59.5t-43.5 -50l-57 33q16 20 28 36t20.5 31t15 30t12.5 33q-68 0 -68 57z" />
    <glyph glyph-name="Nacute" unicode="&#x143;" horiz-adv-x="950" 
d="M134 0l333 1521h220l75 -1251l268 1251h154l-327 -1521h-212l-87 1259l-269 -1259h-155zM1113 1858l-215 -254h-121l185 254h151z" />
    <glyph glyph-name="Ncaron" unicode="&#x147;" horiz-adv-x="950" 
d="M134 0l333 1521h220l75 -1251l268 1251h154l-327 -1521h-212l-87 1259l-269 -1259h-155zM830 1836l44 -145l110 145h134l-188 -233h-150l-86 233h136z" />
    <glyph glyph-name="Ntilde" unicode="&#xd1;" horiz-adv-x="950" 
d="M1163 1798q-42 -65 -88 -104.5t-107 -39.5q-32 0 -56 11t-44.5 24t-40 24t-43.5 11q-26 0 -51.5 -15t-54.5 -50l-69 38q46 67 92.5 105.5t106.5 38.5q33 0 57.5 -11t45.5 -24.5t41 -24.5t43 -11q24 0 48 16.5t50 48.5zM134 0l333 1521h220l75 -1251l268 1251h154
l-327 -1521h-212l-87 1259l-269 -1259h-155z" />
    <glyph glyph-name="Hcircumflex" unicode="&#x124;" horiz-adv-x="951" 
d="M134 0l333 1521h154l-149 -681h375l149 681h154l-332 -1521h-154l151 692h-375l-151 -692h-155zM615 1603l188 233h150l86 -233h-135l-45 144l-108 -144h-136z" />
    <glyph glyph-name="Icircumflex" unicode="&#xce;" horiz-adv-x="424" 
d="M135 0l333 1521h155l-333 -1521h-155zM342 1603l188 233h150l86 -233h-135l-45 144l-108 -144h-136z" />
    <glyph glyph-name="Imacron" unicode="&#x12a;" horiz-adv-x="424" 
d="M135 0l333 1521h155l-333 -1521h-155zM363 1694l26 122h425l-26 -122h-425z" />
    <glyph glyph-name="Iogonek" unicode="&#x12e;" horiz-adv-x="424" 
d="M135 0l333 1521h155l-333 -1521h-155zM272 -360q-23 -17 -58 -28t-78 -11q-33 0 -62 8.5t-51 26.5t-34.5 46.5t-12.5 68.5q0 61 21.5 106.5t55.5 78.5t76.5 56.5t85.5 41.5l65 -34q-31 -18 -60 -39t-51.5 -47.5t-36 -59t-13.5 -73.5q0 -70 69 -70q32 0 53 5.5t40 16.5z
" />
    <glyph glyph-name="Iacute" unicode="&#xcd;" horiz-adv-x="424" 
d="M135 0l333 1521h155l-333 -1521h-155zM825 1858l-215 -254h-121l185 254h151z" />
    <glyph glyph-name="Ibreve" unicode="&#x12c;" horiz-adv-x="424" 
d="M135 0l333 1521h155l-333 -1521h-155zM852 1832q-14 -51 -38.5 -93t-61.5 -72t-86 -47t-111 -17q-54 0 -92.5 12.5t-63 35t-36 54t-11.5 69.5q0 28 6 58h97q-2 -9 -2 -17v-16q0 -49 27.5 -75.5t95.5 -26.5q76 0 117 34.5t61 100.5h98z" />
    <glyph glyph-name="Igrave" unicode="&#xcc;" horiz-adv-x="424" 
d="M135 0l333 1521h155l-333 -1521h-155zM537 1858l73 -254h-116l-102 254h145z" />
    <glyph glyph-name="Itilde" unicode="&#x128;" horiz-adv-x="424" 
d="M135 0l333 1521h155l-333 -1521h-155zM863 1798q-42 -65 -88 -104.5t-107 -39.5q-32 0 -56 11t-44.5 24t-40 24t-43.5 11q-26 0 -51.5 -15t-54.5 -50l-69 38q46 67 92.5 105.5t106.5 38.5q33 0 57.5 -11t45.5 -24.5t41 -24.5t43 -11q24 0 48 16.5t50 48.5z" />
    <glyph glyph-name="Idieresis" unicode="&#xcf;" horiz-adv-x="424" 
d="M135 0l333 1521h155l-333 -1521h-155zM389 1707q0 46 23 77.5t79 31.5q37 0 53.5 -15.5t16.5 -44.5q0 -53 -25 -81t-81 -28q-35 0 -50.5 15.5t-15.5 44.5zM603 1707q0 23 5.5 43t17.5 34.5t31.5 23t47.5 8.5q38 0 54 -15.5t16 -44.5q0 -53 -24.5 -81t-81.5 -28
q-34 0 -50 15.5t-16 44.5z" />
    <glyph glyph-name="afii10027" unicode="&#x419;" horiz-adv-x="951" 
d="M702 0l281 1260l-638 -1260h-213l338 1521h155l-280 -1251l623 1251h220l-332 -1521h-154zM1171 1832q-14 -51 -38.5 -93t-61 -72t-85.5 -47t-111 -17q-54 0 -92.5 12.5t-63 35.5t-35.5 54.5t-11 69.5q0 14 1.5 28t3.5 29h97q-2 -9 -2 -17v-16q0 -49 27 -75.5t95 -26.5
q76 0 117.5 35t61.5 100h97z" />
    <glyph glyph-name="Idotaccent" unicode="&#x130;" horiz-adv-x="424" 
d="M135 0l333 1521h155l-333 -1521h-155zM478 1701q0 52 27.5 85t92.5 33q44 0 63.5 -17t19.5 -50q0 -59 -29.5 -89t-93.5 -30q-41 0 -60.5 18t-19.5 50z" />
    <glyph glyph-name="Emacron" unicode="&#x112;" horiz-adv-x="770" 
d="M128 0l333 1519l589 2l-32 -148l-436 -2l-113 -518h366l-33 -147h-365l-123 -559h434l-31 -147h-589zM572 1694l26 122h425l-26 -122h-425z" />
    <glyph glyph-name="Eogonek" unicode="&#x118;" horiz-adv-x="770" 
d="M128 0l333 1519l589 2l-32 -148l-436 -2l-113 -518h366l-33 -147h-365l-123 -559h434l-31 -147h-589zM708 -360q-23 -17 -58 -28t-78 -11q-33 0 -62 8.5t-51 26.5t-34.5 46.5t-12.5 68.5q0 61 21.5 106.5t55.5 78.5t76.5 56.5t85.5 41.5l65 -34q-31 -18 -60 -39
t-51.5 -47.5t-36 -59t-13.5 -73.5q0 -70 69 -70q32 0 53 5.5t40 16.5z" />
    <glyph glyph-name="Rcommaaccent" unicode="&#x156;" horiz-adv-x="903" 
d="M135 0l332 1519h328q142 0 210 -52.5t68 -175.5q0 -65 -20 -160l-33 -150q-23 -105 -89 -185t-157 -125q45 -35 65.5 -80.5t20.5 -115.5q0 -19 -1 -40t-4 -44l-25 -218q-3 -26 -3 -50q0 -35 5 -66t11 -57h-161q-5 19 -8 47t-3 62q0 29 3 59l25 218q3 25 3 49q0 51 -12 87
t-32 58.5t-45 33t-50 10.5h-138l-136 -624h-154zM899 1133q15 67 15 112q0 41 -11.5 66t-31.5 38.5t-47.5 17.5t-60.5 4h-174l-132 -599h172q45 0 83.5 16t69.5 44.5t52 66.5t31 82zM357 -158q0 47 24 73.5t78 26.5q38 0 55 -19t17 -51q0 -38 -11.5 -73.5t-29.5 -67
t-40.5 -59.5t-43.5 -50l-57 33q16 20 28 36t20.5 31t15 30t12.5 33q-68 0 -68 57z" />
    <glyph glyph-name="Dcaron" unicode="&#x10e;" horiz-adv-x="895" 
d="M796 1519q78 0 130 -19t82.5 -52.5t43.5 -79t13 -99.5q0 -45 -7 -92.5t-18 -97.5l-139 -639q-19 -85 -48.5 -164.5t-79.5 -140.5t-125 -98t-185 -37h-330l333 1519h330zM318 147h176q52 0 91.5 17t70.5 53t53.5 91.5t39.5 132.5l138 637q20 89 20 147q0 73 -31.5 108
t-101.5 38h-187zM756 1836l44 -145l110 145h134l-188 -233h-150l-86 233h136z" />
    <glyph glyph-name="Edotaccent" unicode="&#x116;" horiz-adv-x="770" 
d="M128 0l333 1519l589 2l-32 -148l-436 -2l-113 -518h366l-33 -147h-365l-123 -559h434l-31 -147h-589zM696 1701q0 52 27.5 85t92.5 33q44 0 63.5 -17t19.5 -50q0 -59 -29.5 -89t-93.5 -30q-41 0 -60.5 18t-19.5 50z" />
    <glyph glyph-name="Eacute" unicode="&#xc9;" horiz-adv-x="770" 
d="M128 0l333 1519l589 2l-32 -148l-436 -2l-113 -518h366l-33 -147h-365l-123 -559h434l-31 -147h-589zM1040 1858l-215 -254h-121l185 254h151z" />
    <glyph glyph-name="Ebreve" unicode="&#x114;" horiz-adv-x="770" 
d="M128 0l333 1519l589 2l-32 -148l-436 -2l-113 -518h366l-33 -147h-365l-123 -559h434l-31 -147h-589zM1061 1832q-14 -51 -38.5 -93t-61.5 -72t-86 -47t-111 -17q-54 0 -92.5 12.5t-63 35t-36 54t-11.5 69.5q0 28 6 58h97q-2 -9 -2 -17v-16q0 -49 27.5 -75.5t95.5 -26.5
q76 0 117 34.5t61 100.5h98z" />
    <glyph glyph-name="Ecaron" unicode="&#x11a;" horiz-adv-x="770" 
d="M128 0l333 1519l589 2l-32 -148l-436 -2l-113 -518h366l-33 -147h-365l-123 -559h434l-31 -147h-589zM738 1836l44 -145l110 145h134l-188 -233h-150l-86 233h136z" />
    <glyph glyph-name="Egrave" unicode="&#xc8;" horiz-adv-x="770" 
d="M128 0l333 1519l589 2l-32 -148l-436 -2l-113 -518h366l-33 -147h-365l-123 -559h434l-31 -147h-589zM756 1858l73 -254h-116l-102 254h145z" />
    <glyph glyph-name="Lacute" unicode="&#x139;" horiz-adv-x="721" 
d="M133 0l333 1521h154l-301 -1374h421l-31 -147h-576zM832 1858l-215 -254h-121l185 254h151z" />
    <glyph glyph-name="Lcaron" unicode="&#x13d;" horiz-adv-x="721" 
d="M133 0l333 1521h154l-301 -1374h421l-31 -147h-576zM535 1831l44 -145l110 145h134l-188 -233h-150l-86 233h136z" />
    <glyph glyph-name="Racute" unicode="&#x154;" horiz-adv-x="903" 
d="M135 0l332 1519h328q142 0 210 -52.5t68 -175.5q0 -65 -20 -160l-33 -150q-23 -105 -89 -185t-157 -125q45 -35 65.5 -80.5t20.5 -115.5q0 -19 -1 -40t-4 -44l-25 -218q-3 -26 -3 -50q0 -35 5 -66t11 -57h-161q-5 19 -8 47t-3 62q0 29 3 59l25 218q3 25 3 49q0 51 -12 87
t-32 58.5t-45 33t-50 10.5h-138l-136 -624h-154zM899 1133q15 67 15 112q0 41 -11.5 66t-31.5 38.5t-47.5 17.5t-60.5 4h-174l-132 -599h172q45 0 83.5 16t69.5 44.5t52 66.5t31 82zM1033 1858l-215 -254h-121l185 254h151z" />
    <glyph glyph-name="Rcaron" unicode="&#x158;" horiz-adv-x="903" 
d="M135 0l332 1519h328q142 0 210 -52.5t68 -175.5q0 -65 -20 -160l-33 -150q-23 -105 -89 -185t-157 -125q45 -35 65.5 -80.5t20.5 -115.5q0 -19 -1 -40t-4 -44l-25 -218q-3 -26 -3 -50q0 -35 5 -66t11 -57h-161q-5 19 -8 47t-3 62q0 29 3 59l25 218q3 25 3 49q0 51 -12 87
t-32 58.5t-45 33t-50 10.5h-138l-136 -624h-154zM899 1133q15 67 15 112q0 41 -11.5 66t-31.5 38.5t-47.5 17.5t-60.5 4h-174l-132 -599h172q45 0 83.5 16t69.5 44.5t52 66.5t31 82zM745 1836l44 -145l110 145h134l-188 -233h-150l-86 233h136z" />
    <glyph glyph-name="Edieresis" unicode="&#xcb;" horiz-adv-x="770" 
d="M128 0l333 1519l589 2l-32 -148l-436 -2l-113 -518h366l-33 -147h-365l-123 -559h434l-31 -147h-589zM603 1707q0 46 23 77.5t79 31.5q37 0 53.5 -15.5t16.5 -44.5q0 -53 -25 -81t-81 -28q-35 0 -50.5 15.5t-15.5 44.5zM817 1707q0 23 5.5 43t17.5 34.5t31.5 23t47.5 8.5
q38 0 54 -15.5t16 -44.5q0 -53 -24.5 -81t-81.5 -28q-34 0 -50 15.5t-16 44.5z" />
    <glyph glyph-name="Ecircumflex" unicode="&#xca;" horiz-adv-x="770" 
d="M128 0l333 1519l589 2l-32 -148l-436 -2l-113 -518h366l-33 -147h-365l-123 -559h434l-31 -147h-589zM552 1603l188 233h150l86 -233h-135l-45 144l-108 -144h-136z" />
    <glyph glyph-name="Ldot" unicode="&#x13f;" horiz-adv-x="721" 
d="M652 701q0 52 27.5 85t91.5 33q45 0 64.5 -17t19.5 -51q0 -57 -29.5 -87.5t-94.5 -30.5q-41 0 -60 18t-19 50zM133 0l333 1521h154l-301 -1374h421l-31 -147h-576z" />
    <glyph glyph-name="Cacute" unicode="&#x106;" horiz-adv-x="853" 
d="M877 454l-10 -49q-15 -74 -43 -149.5t-78 -136t-126.5 -98.5t-188.5 -38q-80 0 -132 19.5t-82.5 54t-43 80.5t-12.5 99q0 46 7 95t18 99l144 660q18 84 47 164.5t79 143.5t126 101.5t189 38.5q80 0 133 -20.5t84.5 -55t44 -80t12.5 -96.5q0 -42 -7 -85.5t-17 -85.5
l-10 -48h-155l11 48q9 35 15 69t6 64q0 31 -7.5 57.5t-24.5 45.5t-46 29.5t-71 10.5q-63 0 -105.5 -23.5t-71 -64.5t-46 -96t-31.5 -118l-144 -658q-10 -43 -16.5 -84t-6.5 -76q0 -31 6.5 -57t23 -44.5t44.5 -29t70 -10.5q60 0 102.5 21.5t71 59t46.5 87.5t30 108l10 48h155
zM1039 1858l-215 -254h-121l185 254h151z" />
    <glyph glyph-name="Ccaron" unicode="&#x10c;" horiz-adv-x="853" 
d="M877 454l-10 -49q-15 -74 -43 -149.5t-78 -136t-126.5 -98.5t-188.5 -38q-80 0 -132 19.5t-82.5 54t-43 80.5t-12.5 99q0 46 7 95t18 99l144 660q18 84 47 164.5t79 143.5t126 101.5t189 38.5q80 0 133 -20.5t84.5 -55t44 -80t12.5 -96.5q0 -42 -7 -85.5t-17 -85.5
l-10 -48h-155l11 48q9 35 15 69t6 64q0 31 -7.5 57.5t-24.5 45.5t-46 29.5t-71 10.5q-63 0 -105.5 -23.5t-71 -64.5t-46 -96t-31.5 -118l-144 -658q-10 -43 -16.5 -84t-6.5 -76q0 -31 6.5 -57t23 -44.5t44.5 -29t70 -10.5q60 0 102.5 21.5t71 59t46.5 87.5t30 108l10 48h155
zM744 1836l44 -145l110 145h134l-188 -233h-150l-86 233h136z" />
    <glyph glyph-name="Ccedilla" unicode="&#xc7;" horiz-adv-x="853" 
d="M877 454l-10 -49q-15 -74 -43 -149.5t-78 -136t-126.5 -98.5t-188.5 -38q-80 0 -132 19.5t-82.5 54t-43 80.5t-12.5 99q0 46 7 95t18 99l144 660q18 84 47 164.5t79 143.5t126 101.5t189 38.5q80 0 133 -20.5t84.5 -55t44 -80t12.5 -96.5q0 -42 -7 -85.5t-17 -85.5
l-10 -48h-155l11 48q9 35 15 69t6 64q0 31 -7.5 57.5t-24.5 45.5t-46 29.5t-71 10.5q-63 0 -105.5 -23.5t-71 -64.5t-46 -96t-31.5 -118l-144 -658q-10 -43 -16.5 -84t-6.5 -76q0 -31 6.5 -57t23 -44.5t44.5 -29t70 -10.5q60 0 102.5 21.5t71 59t46.5 87.5t30 108l10 48h155
zM236 -217q12 -10 23 -18t24.5 -13.5t31 -8.5t42.5 -3q44 0 71.5 18.5t27.5 51.5q0 24 -25.5 34t-55.5 10q-22 0 -44 -5l38 178h90l-22 -96q6 1 13 2q6 1 14.5 2t18.5 1q40 0 67.5 -28t27.5 -74q0 -45 -19.5 -79t-52 -56t-75.5 -33t-89 -11q-56 0 -93.5 17.5t-56.5 46.5z
" />
    <glyph glyph-name="Ccircumflex" unicode="&#x108;" horiz-adv-x="853" 
d="M877 454l-10 -49q-15 -74 -43 -149.5t-78 -136t-126.5 -98.5t-188.5 -38q-80 0 -132 19.5t-82.5 54t-43 80.5t-12.5 99q0 46 7 95t18 99l144 660q18 84 47 164.5t79 143.5t126 101.5t189 38.5q80 0 133 -20.5t84.5 -55t44 -80t12.5 -96.5q0 -42 -7 -85.5t-17 -85.5
l-10 -48h-155l11 48q9 35 15 69t6 64q0 31 -7.5 57.5t-24.5 45.5t-46 29.5t-71 10.5q-63 0 -105.5 -23.5t-71 -64.5t-46 -96t-31.5 -118l-144 -658q-10 -43 -16.5 -84t-6.5 -76q0 -31 6.5 -57t23 -44.5t44.5 -29t70 -10.5q60 0 102.5 21.5t71 59t46.5 87.5t30 108l10 48h155
zM557 1603l188 233h150l86 -233h-135l-45 144l-108 -144h-136z" />
    <glyph glyph-name="Cdotaccent" unicode="&#x10a;" horiz-adv-x="853" 
d="M877 454l-10 -49q-15 -74 -43 -149.5t-78 -136t-126.5 -98.5t-188.5 -38q-80 0 -132 19.5t-82.5 54t-43 80.5t-12.5 99q0 46 7 95t18 99l144 660q18 84 47 164.5t79 143.5t126 101.5t189 38.5q80 0 133 -20.5t84.5 -55t44 -80t12.5 -96.5q0 -42 -7 -85.5t-17 -85.5
l-10 -48h-155l11 48q9 35 15 69t6 64q0 31 -7.5 57.5t-24.5 45.5t-46 29.5t-71 10.5q-63 0 -105.5 -23.5t-71 -64.5t-46 -96t-31.5 -118l-144 -658q-10 -43 -16.5 -84t-6.5 -76q0 -31 6.5 -57t23 -44.5t44.5 -29t70 -10.5q60 0 102.5 21.5t71 59t46.5 87.5t30 108l10 48h155
zM696 1701q0 52 27.5 85t92.5 33q44 0 63.5 -17t19.5 -50q0 -59 -29.5 -89t-93.5 -30q-41 0 -60.5 18t-19.5 50z" />
    <glyph glyph-name="Gbreve" unicode="&#x11e;" horiz-adv-x="863" 
d="M594 777h353l-81 -372q-16 -74 -44.5 -149t-78 -136t-125.5 -99t-188 -38q-79 0 -131 20t-83 53.5t-43.5 79t-12.5 98.5q0 47 7.5 96.5t18.5 99.5l143 660q12 56 28.5 110.5t40.5 104.5t57 92.5t78 73.5t103.5 49t133.5 18q81 0 134 -20.5t84.5 -55t44 -80t12.5 -96.5
q0 -42 -7 -85.5t-17 -85.5l-11 -48h-154l10 48q9 35 15 69t6 64q0 31 -7.5 57.5t-24.5 45.5t-46 29.5t-71 10.5q-63 0 -105 -24t-70.5 -65t-46 -96t-31.5 -118l-145 -657q-10 -43 -16.5 -84t-6.5 -76q0 -31 7 -57t23.5 -44.5t44.5 -29t70 -10.5q60 0 101.5 21.5t70 59
t46.5 88t31 107.5l49 226h-197zM1082 1832q-14 -51 -38.5 -93t-61.5 -72t-86 -47t-111 -17q-54 0 -92.5 12.5t-63 35t-36 54t-11.5 69.5q0 28 6 58h97q-2 -9 -2 -17v-16q0 -49 27.5 -75.5t95.5 -26.5q76 0 117 34.5t61 100.5h98z" />
    <glyph glyph-name="Gcircumflex" unicode="&#x11c;" horiz-adv-x="863" 
d="M594 777h353l-81 -372q-16 -74 -44.5 -149t-78 -136t-125.5 -99t-188 -38q-79 0 -131 20t-83 53.5t-43.5 79t-12.5 98.5q0 47 7.5 96.5t18.5 99.5l143 660q12 56 28.5 110.5t40.5 104.5t57 92.5t78 73.5t103.5 49t133.5 18q81 0 134 -20.5t84.5 -55t44 -80t12.5 -96.5
q0 -42 -7 -85.5t-17 -85.5l-11 -48h-154l10 48q9 35 15 69t6 64q0 31 -7.5 57.5t-24.5 45.5t-46 29.5t-71 10.5q-63 0 -105 -24t-70.5 -65t-46 -96t-31.5 -118l-145 -657q-10 -43 -16.5 -84t-6.5 -76q0 -31 7 -57t23.5 -44.5t44.5 -29t70 -10.5q60 0 101.5 21.5t70 59
t46.5 88t31 107.5l49 226h-197zM573 1603l188 233h150l86 -233h-135l-45 144l-108 -144h-136z" />
    <glyph glyph-name="Gcommaaccent" unicode="&#x122;" horiz-adv-x="863" 
d="M594 777h353l-81 -372q-16 -74 -44.5 -149t-78 -136t-125.5 -99t-188 -38q-79 0 -131 20t-83 53.5t-43.5 79t-12.5 98.5q0 47 7.5 96.5t18.5 99.5l143 660q12 56 28.5 110.5t40.5 104.5t57 92.5t78 73.5t103.5 49t133.5 18q81 0 134 -20.5t84.5 -55t44 -80t12.5 -96.5
q0 -42 -7 -85.5t-17 -85.5l-11 -48h-154l10 48q9 35 15 69t6 64q0 31 -7.5 57.5t-24.5 45.5t-46 29.5t-71 10.5q-63 0 -105 -24t-70.5 -65t-46 -96t-31.5 -118l-145 -657q-10 -43 -16.5 -84t-6.5 -76q0 -31 7 -57t23.5 -44.5t44.5 -29t70 -10.5q60 0 101.5 21.5t70 59
t46.5 88t31 107.5l49 226h-197zM315 -158q0 47 24 73.5t78 26.5q38 0 55 -19t17 -51q0 -38 -11.5 -73.5t-29.5 -67t-40.5 -59.5t-43.5 -50l-57 33q16 20 28 36t20.5 31t15 30t12.5 33q-68 0 -68 57z" />
    <glyph glyph-name="Gdotaccent" unicode="&#x120;" horiz-adv-x="863" 
d="M594 777h353l-81 -372q-16 -74 -44.5 -149t-78 -136t-125.5 -99t-188 -38q-79 0 -131 20t-83 53.5t-43.5 79t-12.5 98.5q0 47 7.5 96.5t18.5 99.5l143 660q12 56 28.5 110.5t40.5 104.5t57 92.5t78 73.5t103.5 49t133.5 18q81 0 134 -20.5t84.5 -55t44 -80t12.5 -96.5
q0 -42 -7 -85.5t-17 -85.5l-11 -48h-154l10 48q9 35 15 69t6 64q0 31 -7.5 57.5t-24.5 45.5t-46 29.5t-71 10.5q-63 0 -105 -24t-70.5 -65t-46 -96t-31.5 -118l-145 -657q-10 -43 -16.5 -84t-6.5 -76q0 -31 7 -57t23.5 -44.5t44.5 -29t70 -10.5q60 0 101.5 21.5t70 59
t46.5 88t31 107.5l49 226h-197zM709 1701q0 52 27.5 85t92.5 33q44 0 63.5 -17t19.5 -50q0 -59 -29.5 -89t-93.5 -30q-41 0 -60.5 18t-19.5 50z" />
    <glyph glyph-name="Oacute" unicode="&#xd3;" horiz-adv-x="870" 
d="M771 1537l1 1q79 0 131 -19.5t83 -53t43.5 -79.5t12.5 -99q0 -47 -7.5 -96.5t-18.5 -99.5l-144 -660q-18 -84 -47 -164.5t-79 -143.5t-126 -101.5t-188 -38.5l-1 1v-1q-80 0 -132 19.5t-82.5 54t-43 80.5t-12.5 99q0 46 7 95t18 99l144 660q18 84 47 164.5t79 143.5
t126 101.5t189 38.5v-1zM739 1391q-63 0 -105.5 -23.5t-71 -64.5t-46 -96t-31.5 -118l-144 -658q-10 -43 -17 -83.5t-7 -75.5q0 -31 7 -57t24 -45t45 -29.5t70 -10.5q63 0 105.5 23.5t71 64.5t46.5 96.5t32 118.5l143 657q10 44 17 84.5t7 75.5q0 31 -7 57t-23.5 44.5
t-44.5 29t-70 10.5h-1zM1054 1858l-215 -254h-121l185 254h151z" />
    <glyph glyph-name="Obreve" unicode="&#x14e;" horiz-adv-x="870" 
d="M771 1537l1 1q79 0 131 -19.5t83 -53t43.5 -79.5t12.5 -99q0 -47 -7.5 -96.5t-18.5 -99.5l-144 -660q-18 -84 -47 -164.5t-79 -143.5t-126 -101.5t-188 -38.5l-1 1v-1q-80 0 -132 19.5t-82.5 54t-43 80.5t-12.5 99q0 46 7 95t18 99l144 660q18 84 47 164.5t79 143.5
t126 101.5t189 38.5v-1zM739 1391q-63 0 -105.5 -23.5t-71 -64.5t-46 -96t-31.5 -118l-144 -658q-10 -43 -17 -83.5t-7 -75.5q0 -31 7 -57t24 -45t45 -29.5t70 -10.5q63 0 105.5 23.5t71 64.5t46.5 96.5t32 118.5l143 657q10 44 17 84.5t7 75.5q0 31 -7 57t-23.5 44.5
t-44.5 29t-70 10.5h-1zM1083 1832q-14 -51 -38.5 -93t-61.5 -72t-86 -47t-111 -17q-54 0 -92.5 12.5t-63 35t-36 54t-11.5 69.5q0 28 6 58h97q-2 -9 -2 -17v-16q0 -49 27.5 -75.5t95.5 -26.5q76 0 117 34.5t61 100.5h98z" />
    <glyph glyph-name="Ocircumflex" unicode="&#xd4;" horiz-adv-x="870" 
d="M771 1537l1 1q79 0 131 -19.5t83 -53t43.5 -79.5t12.5 -99q0 -47 -7.5 -96.5t-18.5 -99.5l-144 -660q-18 -84 -47 -164.5t-79 -143.5t-126 -101.5t-188 -38.5l-1 1v-1q-80 0 -132 19.5t-82.5 54t-43 80.5t-12.5 99q0 46 7 95t18 99l144 660q18 84 47 164.5t79 143.5
t126 101.5t189 38.5v-1zM739 1391q-63 0 -105.5 -23.5t-71 -64.5t-46 -96t-31.5 -118l-144 -658q-10 -43 -17 -83.5t-7 -75.5q0 -31 7 -57t24 -45t45 -29.5t70 -10.5q63 0 105.5 23.5t71 64.5t46.5 96.5t32 118.5l143 657q10 44 17 84.5t7 75.5q0 31 -7 57t-23.5 44.5
t-44.5 29t-70 10.5h-1zM573 1603l188 233h150l86 -233h-135l-45 144l-108 -144h-136z" />
    <glyph glyph-name="Odieresis" unicode="&#xd6;" horiz-adv-x="870" 
d="M771 1537l1 1q79 0 131 -19.5t83 -53t43.5 -79.5t12.5 -99q0 -47 -7.5 -96.5t-18.5 -99.5l-144 -660q-18 -84 -47 -164.5t-79 -143.5t-126 -101.5t-188 -38.5l-1 1v-1q-80 0 -132 19.5t-82.5 54t-43 80.5t-12.5 99q0 46 7 95t18 99l144 660q18 84 47 164.5t79 143.5
t126 101.5t189 38.5v-1zM739 1391q-63 0 -105.5 -23.5t-71 -64.5t-46 -96t-31.5 -118l-144 -658q-10 -43 -17 -83.5t-7 -75.5q0 -31 7 -57t24 -45t45 -29.5t70 -10.5q63 0 105.5 23.5t71 64.5t46.5 96.5t32 118.5l143 657q10 44 17 84.5t7 75.5q0 31 -7 57t-23.5 44.5
t-44.5 29t-70 10.5h-1zM622 1707q0 46 23 77.5t79 31.5q37 0 53.5 -15.5t16.5 -44.5q0 -53 -25 -81t-81 -28q-35 0 -50.5 15.5t-15.5 44.5zM836 1707q0 23 5.5 43t17.5 34.5t31.5 23t47.5 8.5q38 0 54 -15.5t16 -44.5q0 -53 -24.5 -81t-81.5 -28q-34 0 -50 15.5t-16 44.5z
" />
    <glyph glyph-name="Ograve" unicode="&#xd2;" horiz-adv-x="870" 
d="M771 1537l1 1q79 0 131 -19.5t83 -53t43.5 -79.5t12.5 -99q0 -47 -7.5 -96.5t-18.5 -99.5l-144 -660q-18 -84 -47 -164.5t-79 -143.5t-126 -101.5t-188 -38.5l-1 1v-1q-80 0 -132 19.5t-82.5 54t-43 80.5t-12.5 99q0 46 7 95t18 99l144 660q18 84 47 164.5t79 143.5
t126 101.5t189 38.5v-1zM739 1391q-63 0 -105.5 -23.5t-71 -64.5t-46 -96t-31.5 -118l-144 -658q-10 -43 -17 -83.5t-7 -75.5q0 -31 7 -57t24 -45t45 -29.5t70 -10.5q63 0 105.5 23.5t71 64.5t46.5 96.5t32 118.5l143 657q10 44 17 84.5t7 75.5q0 31 -7 57t-23.5 44.5
t-44.5 29t-70 10.5h-1zM777 1858l73 -254h-116l-102 254h145z" />
    <glyph glyph-name="Ohungarumlaut" unicode="&#x150;" horiz-adv-x="870" 
d="M771 1537l1 1q79 0 131 -19.5t83 -53t43.5 -79.5t12.5 -99q0 -47 -7.5 -96.5t-18.5 -99.5l-144 -660q-18 -84 -47 -164.5t-79 -143.5t-126 -101.5t-188 -38.5l-1 1v-1q-80 0 -132 19.5t-82.5 54t-43 80.5t-12.5 99q0 46 7 95t18 99l144 660q18 84 47 164.5t79 143.5
t126 101.5t189 38.5v-1zM739 1391q-63 0 -105.5 -23.5t-71 -64.5t-46 -96t-31.5 -118l-144 -658q-10 -43 -17 -83.5t-7 -75.5q0 -31 7 -57t24 -45t45 -29.5t70 -10.5q63 0 105.5 23.5t71 64.5t46.5 96.5t32 118.5l143 657q10 44 17 84.5t7 75.5q0 31 -7 57t-23.5 44.5
t-44.5 29t-70 10.5h-1zM940 1858l-213 -254h-117l185 254h145zM1151 1858l-212 -254h-117l184 254h145z" />
    <glyph glyph-name="Omacron" unicode="&#x14c;" horiz-adv-x="870" 
d="M771 1537l1 1q79 0 131 -19.5t83 -53t43.5 -79.5t12.5 -99q0 -47 -7.5 -96.5t-18.5 -99.5l-144 -660q-18 -84 -47 -164.5t-79 -143.5t-126 -101.5t-188 -38.5l-1 1v-1q-80 0 -132 19.5t-82.5 54t-43 80.5t-12.5 99q0 46 7 95t18 99l144 660q18 84 47 164.5t79 143.5
t126 101.5t189 38.5v-1zM739 1391q-63 0 -105.5 -23.5t-71 -64.5t-46 -96t-31.5 -118l-144 -658q-10 -43 -17 -83.5t-7 -75.5q0 -31 7 -57t24 -45t45 -29.5t70 -10.5q63 0 105.5 23.5t71 64.5t46.5 96.5t32 118.5l143 657q10 44 17 84.5t7 75.5q0 31 -7 57t-23.5 44.5
t-44.5 29t-70 10.5h-1zM594 1694l26 122h425l-26 -122h-425z" />
    <glyph glyph-name="Otilde" unicode="&#xd5;" horiz-adv-x="870" 
d="M771 1537l1 1q79 0 131 -19.5t83 -53t43.5 -79.5t12.5 -99q0 -47 -7.5 -96.5t-18.5 -99.5l-144 -660q-18 -84 -47 -164.5t-79 -143.5t-126 -101.5t-188 -38.5l-1 1v-1q-80 0 -132 19.5t-82.5 54t-43 80.5t-12.5 99q0 46 7 95t18 99l144 660q18 84 47 164.5t79 143.5
t126 101.5t189 38.5v-1zM739 1391q-63 0 -105.5 -23.5t-71 -64.5t-46 -96t-31.5 -118l-144 -658q-10 -43 -17 -83.5t-7 -75.5q0 -31 7 -57t24 -45t45 -29.5t70 -10.5q63 0 105.5 23.5t71 64.5t46.5 96.5t32 118.5l143 657q10 44 17 84.5t7 75.5q0 31 -7 57t-23.5 44.5
t-44.5 29t-70 10.5h-1zM1094 1798q-42 -65 -88 -104.5t-107 -39.5q-32 0 -56 11t-44.5 24t-40 24t-43.5 11q-26 0 -51.5 -15t-54.5 -50l-69 38q46 67 92.5 105.5t106.5 38.5q33 0 57.5 -11t45.5 -24.5t41 -24.5t43 -11q24 0 48 16.5t50 48.5z" />
    <glyph glyph-name="Oslashacute" unicode="&#x1fe;" horiz-adv-x="870" 
d="M771 1537l1 1q79 0 131 -19.5t83 -53t43.5 -79.5t12.5 -99q0 -47 -7.5 -96.5t-18.5 -99.5l-144 -660q-18 -84 -47 -164.5t-79 -143.5t-126 -101.5t-188 -38.5l-1 1v-1q-80 0 -132 19.5t-82.5 54t-43 80.5t-12.5 99q0 46 7 95t18 99l144 660q18 84 47 164.5t79 143.5
t126 101.5t189 38.5v-1zM739 1391q-63 0 -105.5 -23.5t-71 -64.5t-46 -96t-31.5 -118l-144 -658q-10 -43 -17 -83.5t-7 -75.5q0 -31 7 -57t24 -45t45 -29.5t70 -10.5q63 0 105.5 23.5t71 64.5t46.5 96.5t32 118.5l143 657q10 44 17 84.5t7 75.5q0 31 -7 57t-23.5 44.5
t-44.5 29t-70 10.5h-1zM259 -80h-150l831 1679h151zM1023 1858l-215 -254h-121l185 254h151z" />
    <glyph glyph-name="Omegatonos" unicode="&#x38f;" horiz-adv-x="917" 
d="M130 0l32 147h151l34 164q-59 27 -81 78.5t-22 116.5q0 61 13 128.5t27 132.5l70 323q18 84 47 164.5t79 143.5t126 101.5t189 38.5q79 0 131.5 -19.5t83 -53t43 -79.5t12.5 -99q0 -46 -7 -95.5t-18 -99.5l-70 -325q-15 -69 -33 -139.5t-47 -132.5t-73.5 -111t-112.5 -74
l-37 -163h152l-32 -147h-285l63 287l31 147q61 0 97.5 28.5t59 76t35.5 107.5t27 123l70 321q10 43 16.5 84t6.5 76q0 31 -7 57t-23.5 44.5t-44 29t-69.5 10.5h-1q-63 0 -105.5 -23.5t-71 -64.5t-46.5 -96.5t-32 -118.5l-70 -321q-13 -58 -27 -115.5t-14 -105.5
q0 -25 5.5 -45.5t18.5 -35.5t34.5 -23t53.5 -8l-31 -147h-1l-62 -287h-285zM411 1539l-75 -254h-110l43 254h142z" />
    <glyph glyph-name="Oslash.fat" horiz-adv-x="911" 
d="M195 -70l-80 24l943 1635l78 -23z" />
    <glyph glyph-name="Dcroat" unicode="&#x110;" horiz-adv-x="914" 
d="M789 1519q78 0 130 -19t82.5 -52.5t43.5 -79t13 -99.5q0 -45 -7 -92.5t-18 -97.5l-139 -639q-19 -85 -48.5 -164.5t-79.5 -140.5t-125 -98t-185 -37h-330l333 1519h330zM311 147h176q52 0 91.5 17t70.5 53t53.5 91.5t39.5 132.5l138 637q20 89 20 147q0 73 -31.5 108
t-101.5 38h-187zM136 674l26 122h425l-26 -122h-425z" />
    <glyph glyph-name="Wacute" unicode="&#x1e82;" horiz-adv-x="1311" 
d="M946 1342l-478 -1342h-217l113 1521h156l-120 -1353l477 1353h216l-114 -1350l471 1350h157l-553 -1521h-217zM1278 1858l-215 -254h-121l185 254h151z" />
    <glyph glyph-name="Wgrave" unicode="&#x1e80;" horiz-adv-x="1311" 
d="M946 1342l-478 -1342h-217l113 1521h156l-120 -1353l477 1353h216l-114 -1350l471 1350h157l-553 -1521h-217zM978 1858l73 -254h-116l-102 254h145z" />
    <glyph glyph-name="Wdieresis" unicode="&#x1e84;" horiz-adv-x="1311" 
d="M946 1342l-478 -1342h-217l113 1521h156l-120 -1353l477 1353h216l-114 -1350l471 1350h157l-553 -1521h-217zM843 1707q0 46 23 77.5t79 31.5q37 0 53.5 -15.5t16.5 -44.5q0 -53 -25 -81t-81 -28q-35 0 -50.5 15.5t-15.5 44.5zM1057 1707q0 23 5.5 43t17.5 34.5t31.5 23
t47.5 8.5q38 0 54 -15.5t16 -44.5q0 -53 -24.5 -81t-81.5 -28q-34 0 -50 15.5t-16 44.5z" />
    <glyph glyph-name="Wcircumflex" unicode="&#x174;" horiz-adv-x="1311" 
d="M946 1342l-478 -1342h-217l113 1521h156l-120 -1353l477 1353h216l-114 -1350l471 1350h157l-553 -1521h-217zM795 1603l188 233h150l86 -233h-135l-45 144l-108 -144h-136z" />
    <glyph glyph-name="afii10148" unicode="&#x474;" horiz-adv-x="13" 
 />
    <glyph glyph-name="Tcommaaccent" unicode="&#x162;" horiz-adv-x="720" 
d="M736 1371l-300 -1371h-154l300 1371h-270l31 148h695l-31 -148h-271zM240 -158q0 47 24 73.5t78 26.5q38 0 55 -19t17 -51q0 -38 -11.5 -73.5t-29.5 -67t-40.5 -59.5t-43.5 -50l-57 33q16 20 28 36t20.5 31t15 30t12.5 33q-68 0 -68 57z" />
    <glyph glyph-name="Tbar" unicode="&#x166;" horiz-adv-x="720" 
d="M736 1371l-300 -1371h-154l300 1371h-270l31 148h695l-31 -148h-271zM517 1694l26 122h425l-26 -122h-425z" />
    <glyph glyph-name="Tcaron" unicode="&#x164;" horiz-adv-x="720" 
d="M736 1371l-300 -1371h-154l300 1371h-270l31 148h695l-31 -148h-271zM683 1836l44 -145l110 145h134l-188 -233h-150l-86 233h136z" />
    <glyph glyph-name="Sacute" unicode="&#x15a;" horiz-adv-x="819" 
d="M834 372q-19 -92 -53.5 -164t-87 -122t-123.5 -76.5t-162 -26.5q-80 0 -133.5 15.5t-85.5 44.5t-45.5 70.5t-13.5 92.5q0 38 6 82t17 92l15 74h153l-15 -68q-9 -38 -14 -70.5t-5 -59.5q0 -64 34 -95t117 -31q54 0 94.5 18t70 50t48.5 76t29 97l2 11q5 27 7.5 50.5
t2.5 44.5q0 63 -24 107t-76 79l-126 87q-80 56 -117 116t-37 143q0 32 5 67t15 77l5 21q42 177 146 270.5t270 93.5q140 0 203.5 -64t63.5 -178q0 -59 -15 -128l-21 -101h-154l25 125q3 16 5 31.5t2 29.5q0 60 -33 99t-108 39q-52 0 -91.5 -18.5t-68 -50t-46.5 -74.5
t-27 -91l-6 -34q-2 -14 -3.5 -26.5t-1.5 -24.5q0 -60 27.5 -107t77.5 -80l122 -81q80 -54 115 -122t35 -156q0 -59 -13 -123zM1041 1858l-215 -254h-121l185 254h151z" />
    <glyph glyph-name="Scaron" unicode="&#x160;" horiz-adv-x="819" 
d="M834 372q-19 -92 -53.5 -164t-87 -122t-123.5 -76.5t-162 -26.5q-80 0 -133.5 15.5t-85.5 44.5t-45.5 70.5t-13.5 92.5q0 38 6 82t17 92l15 74h153l-15 -68q-9 -38 -14 -70.5t-5 -59.5q0 -64 34 -95t117 -31q54 0 94.5 18t70 50t48.5 76t29 97l2 11q5 27 7.5 50.5
t2.5 44.5q0 63 -24 107t-76 79l-126 87q-80 56 -117 116t-37 143q0 32 5 67t15 77l5 21q42 177 146 270.5t270 93.5q140 0 203.5 -64t63.5 -178q0 -59 -15 -128l-21 -101h-154l25 125q3 16 5 31.5t2 29.5q0 60 -33 99t-108 39q-52 0 -91.5 -18.5t-68 -50t-46.5 -74.5
t-27 -91l-6 -34q-2 -14 -3.5 -26.5t-1.5 -24.5q0 -60 27.5 -107t77.5 -80l122 -81q80 -54 115 -122t35 -156q0 -59 -13 -123zM747 1836l44 -145l110 145h134l-188 -233h-150l-86 233h136z" />
    <glyph glyph-name="Scedilla" unicode="&#x15e;" horiz-adv-x="819" 
d="M834 372q-19 -92 -53.5 -164t-87 -122t-123.5 -76.5t-162 -26.5q-80 0 -133.5 15.5t-85.5 44.5t-45.5 70.5t-13.5 92.5q0 38 6 82t17 92l15 74h153l-15 -68q-9 -38 -14 -70.5t-5 -59.5q0 -64 34 -95t117 -31q54 0 94.5 18t70 50t48.5 76t29 97l2 11q5 27 7.5 50.5
t2.5 44.5q0 63 -24 107t-76 79l-126 87q-80 56 -117 116t-37 143q0 32 5 67t15 77l5 21q42 177 146 270.5t270 93.5q140 0 203.5 -64t63.5 -178q0 -59 -15 -128l-21 -101h-154l25 125q3 16 5 31.5t2 29.5q0 60 -33 99t-108 39q-52 0 -91.5 -18.5t-68 -50t-46.5 -74.5
t-27 -91l-6 -34q-2 -14 -3.5 -26.5t-1.5 -24.5q0 -60 27.5 -107t77.5 -80l122 -81q80 -54 115 -122t35 -156q0 -59 -13 -123zM243 -217q12 -10 23 -18t24.5 -13.5t31 -8.5t42.5 -3q44 0 71.5 18.5t27.5 51.5q0 24 -25.5 34t-55.5 10q-22 0 -44 -5l38 178h90l-22 -96
q6 1 13 2q6 1 14.5 2t18.5 1q40 0 67.5 -28t27.5 -74q0 -45 -19.5 -79t-52 -56t-75.5 -33t-89 -11q-56 0 -93.5 17.5t-56.5 46.5z" />
    <glyph glyph-name="Scircumflex" unicode="&#x15c;" horiz-adv-x="819" 
d="M834 372q-19 -92 -53.5 -164t-87 -122t-123.5 -76.5t-162 -26.5q-80 0 -133.5 15.5t-85.5 44.5t-45.5 70.5t-13.5 92.5q0 38 6 82t17 92l15 74h153l-15 -68q-9 -38 -14 -70.5t-5 -59.5q0 -64 34 -95t117 -31q54 0 94.5 18t70 50t48.5 76t29 97l2 11q5 27 7.5 50.5
t2.5 44.5q0 63 -24 107t-76 79l-126 87q-80 56 -117 116t-37 143q0 32 5 67t15 77l5 21q42 177 146 270.5t270 93.5q140 0 203.5 -64t63.5 -178q0 -59 -15 -128l-21 -101h-154l25 125q3 16 5 31.5t2 29.5q0 60 -33 99t-108 39q-52 0 -91.5 -18.5t-68 -50t-46.5 -74.5
t-27 -91l-6 -34q-2 -14 -3.5 -26.5t-1.5 -24.5q0 -60 27.5 -107t77.5 -80l122 -81q80 -54 115 -122t35 -156q0 -59 -13 -123zM561 1603l188 233h150l86 -233h-135l-45 144l-108 -144h-136z" />
    <glyph glyph-name="Scommaaccent" unicode="&#x218;" horiz-adv-x="819" 
d="M834 372q-19 -92 -53.5 -164t-87 -122t-123.5 -76.5t-162 -26.5q-80 0 -133.5 15.5t-85.5 44.5t-45.5 70.5t-13.5 92.5q0 38 6 82t17 92l15 74h153l-15 -68q-9 -38 -14 -70.5t-5 -59.5q0 -64 34 -95t117 -31q54 0 94.5 18t70 50t48.5 76t29 97l2 11q5 27 7.5 50.5
t2.5 44.5q0 63 -24 107t-76 79l-126 87q-80 56 -117 116t-37 143q0 32 5 67t15 77l5 21q42 177 146 270.5t270 93.5q140 0 203.5 -64t63.5 -178q0 -59 -15 -128l-21 -101h-154l25 125q3 16 5 31.5t2 29.5q0 60 -33 99t-108 39q-52 0 -91.5 -18.5t-68 -50t-46.5 -74.5
t-27 -91l-6 -34q-2 -14 -3.5 -26.5t-1.5 -24.5q0 -60 27.5 -107t77.5 -80l122 -81q80 -54 115 -122t35 -156q0 -59 -13 -123zM324 -170q0 47 24 73.5t78 26.5q38 0 55 -19t17 -51q0 -38 -11.5 -73.5t-29.5 -67t-40.5 -59.5t-43.5 -50l-57 33q16 20 28 36t20.5 31t15 30
t12.5 33q-68 0 -68 57z" />
    <glyph glyph-name="Uogonek" unicode="&#x172;" horiz-adv-x="908" 
d="M1129 1519l-250 -1144q-19 -86 -46.5 -157.5t-75.5 -124t-121.5 -81.5t-183.5 -29q-80 0 -134 15.5t-86 44.5t-45.5 70t-13.5 92q0 38 6 80.5t17 89.5l250 1144h154l-249 -1137q-8 -38 -14 -71.5t-6 -62.5q0 -28 7 -50t24.5 -37.5t47 -23.5t74.5 -8q66 0 107.5 18
t67.5 51.5t40.5 80t27.5 103.5l249 1137h153zM644 -341q-23 -17 -58 -28t-78 -11q-33 0 -62 8.5t-51 26.5t-34.5 46.5t-12.5 68.5q0 61 21.5 106.5t55.5 78.5t76.5 56.5t85.5 41.5l65 -34q-31 -18 -60 -39t-51.5 -47.5t-36 -59t-13.5 -73.5q0 -70 69 -70q32 0 53 5.5
t40 16.5z" />
    <glyph glyph-name="Uring" unicode="&#x16e;" horiz-adv-x="908" 
d="M1129 1519l-250 -1144q-19 -86 -46.5 -157.5t-75.5 -124t-121.5 -81.5t-183.5 -29q-80 0 -134 15.5t-86 44.5t-45.5 70t-13.5 92q0 38 6 80.5t17 89.5l250 1144h154l-249 -1137q-8 -38 -14 -71.5t-6 -62.5q0 -28 7 -50t24.5 -37.5t47 -23.5t74.5 -8q66 0 107.5 18
t67.5 51.5t40.5 80t27.5 103.5l249 1137h153zM667 1727q0 44 11.5 82t36 65.5t64 43.5t95.5 16q78 0 111 -30.5t33 -87.5q0 -103 -52 -155t-163 -52q-71 0 -103.5 31t-32.5 87zM776 1754q0 -21 12 -33.5t39 -12.5q42 0 61.5 20.5t19.5 60.5q0 21 -12 33t-42 12
q-43 0 -60.5 -24t-17.5 -56z" />
    <glyph glyph-name="Uacute" unicode="&#xda;" horiz-adv-x="908" 
d="M1129 1519l-250 -1144q-19 -86 -46.5 -157.5t-75.5 -124t-121.5 -81.5t-183.5 -29q-80 0 -134 15.5t-86 44.5t-45.5 70t-13.5 92q0 38 6 80.5t17 89.5l250 1144h154l-249 -1137q-8 -38 -14 -71.5t-6 -62.5q0 -28 7 -50t24.5 -37.5t47 -23.5t74.5 -8q66 0 107.5 18
t67.5 51.5t40.5 80t27.5 103.5l249 1137h153zM1076 1858l-215 -254h-121l185 254h151z" />
    <glyph glyph-name="Ubreve" unicode="&#x16c;" horiz-adv-x="908" 
d="M1129 1519l-250 -1144q-19 -86 -46.5 -157.5t-75.5 -124t-121.5 -81.5t-183.5 -29q-80 0 -134 15.5t-86 44.5t-45.5 70t-13.5 92q0 38 6 80.5t17 89.5l250 1144h154l-249 -1137q-8 -38 -14 -71.5t-6 -62.5q0 -28 7 -50t24.5 -37.5t47 -23.5t74.5 -8q66 0 107.5 18
t67.5 51.5t40.5 80t27.5 103.5l249 1137h153zM1100 1832q-14 -51 -38.5 -93t-61.5 -72t-86 -47t-111 -17q-54 0 -92.5 12.5t-63 35t-36 54t-11.5 69.5q0 28 6 58h97q-2 -9 -2 -17v-16q0 -49 27.5 -75.5t95.5 -26.5q76 0 117 34.5t61 100.5h98z" />
    <glyph glyph-name="Ugrave" unicode="&#xd9;" horiz-adv-x="908" 
d="M1129 1519l-250 -1144q-19 -86 -46.5 -157.5t-75.5 -124t-121.5 -81.5t-183.5 -29q-80 0 -134 15.5t-86 44.5t-45.5 70t-13.5 92q0 38 6 80.5t17 89.5l250 1144h154l-249 -1137q-8 -38 -14 -71.5t-6 -62.5q0 -28 7 -50t24.5 -37.5t47 -23.5t74.5 -8q66 0 107.5 18
t67.5 51.5t40.5 80t27.5 103.5l249 1137h153zM792 1858l73 -254h-116l-102 254h145z" />
    <glyph glyph-name="Utilde" unicode="&#x168;" horiz-adv-x="908" 
d="M1129 1519l-250 -1144q-19 -86 -46.5 -157.5t-75.5 -124t-121.5 -81.5t-183.5 -29q-80 0 -134 15.5t-86 44.5t-45.5 70t-13.5 92q0 38 6 80.5t17 89.5l250 1144h154l-249 -1137q-8 -38 -14 -71.5t-6 -62.5q0 -28 7 -50t24.5 -37.5t47 -23.5t74.5 -8q66 0 107.5 18
t67.5 51.5t40.5 80t27.5 103.5l249 1137h153zM1114 1798q-42 -65 -88 -104.5t-107 -39.5q-32 0 -56 11t-44.5 24t-40 24t-43.5 11q-26 0 -51.5 -15t-54.5 -50l-69 38q46 67 92.5 105.5t106.5 38.5q33 0 57.5 -11t45.5 -24.5t41 -24.5t43 -11q24 0 48 16.5t50 48.5z" />
    <glyph glyph-name="Udieresis" unicode="&#xdc;" horiz-adv-x="908" 
d="M1129 1519l-250 -1144q-19 -86 -46.5 -157.5t-75.5 -124t-121.5 -81.5t-183.5 -29q-80 0 -134 15.5t-86 44.5t-45.5 70t-13.5 92q0 38 6 80.5t17 89.5l250 1144h154l-249 -1137q-8 -38 -14 -71.5t-6 -62.5q0 -28 7 -50t24.5 -37.5t47 -23.5t74.5 -8q66 0 107.5 18
t67.5 51.5t40.5 80t27.5 103.5l249 1137h153zM641 1707q0 46 23 77.5t79 31.5q37 0 53.5 -15.5t16.5 -44.5q0 -53 -25 -81t-81 -28q-35 0 -50.5 15.5t-15.5 44.5zM855 1707q0 23 5.5 43t17.5 34.5t31.5 23t47.5 8.5q38 0 54 -15.5t16 -44.5q0 -53 -24.5 -81t-81.5 -28
q-34 0 -50 15.5t-16 44.5z" />
    <glyph glyph-name="Ucircumflex" unicode="&#xdb;" horiz-adv-x="908" 
d="M1129 1519l-250 -1144q-19 -86 -46.5 -157.5t-75.5 -124t-121.5 -81.5t-183.5 -29q-80 0 -134 15.5t-86 44.5t-45.5 70t-13.5 92q0 38 6 80.5t17 89.5l250 1144h154l-249 -1137q-8 -38 -14 -71.5t-6 -62.5q0 -28 7 -50t24.5 -37.5t47 -23.5t74.5 -8q66 0 107.5 18
t67.5 51.5t40.5 80t27.5 103.5l249 1137h153zM594 1603l188 233h150l86 -233h-135l-45 144l-108 -144h-136z" />
    <glyph glyph-name="ccircumflex" unicode="&#x109;" horiz-adv-x="828" 
d="M685 392h151l-3 -14q-15 -69 -39.5 -139t-70 -127t-118.5 -93t-185 -36q-77 0 -127.5 18.5t-80 51t-41.5 76.5t-12 95q0 50 8.5 103.5t20.5 107.5l64 294l25 110q18 77 47 146.5t76.5 121.5t117.5 82.5t171 30.5q79 0 130 -18.5t81 -49.5t41.5 -72.5t11.5 -87.5
q0 -41 -6.5 -83t-15.5 -83l-3 -16h-152l4 16q8 32 14 64.5t6 61.5q0 26 -6.5 49t-23 39.5t-43.5 26t-69 9.5q-63 0 -104 -24.5t-67.5 -66.5t-43 -98.5t-30.5 -119.5l-59 -271q-14 -62 -25.5 -117t-14.5 -103q-1 -30 4.5 -57t20.5 -47.5t41.5 -32t68.5 -11.5q63 0 103.5 21
t66.5 55.5t40 80t23 93.5zM490 1284l188 233h150l86 -233h-135l-45 144l-108 -144h-136z" />
    <glyph glyph-name="eacute" unicode="&#xe9;" horiz-adv-x="838" 
d="M838 406l-4 -21q-11 -49 -24.5 -98.5t-35 -94t-51.5 -83t-72.5 -66.5t-100 -44t-132.5 -16q-77 0 -127 18.5t-79.5 51t-41.5 76t-12 94.5q0 50 8.5 104t20.5 108l72 332q12 56 28 111.5t38.5 105.5t53.5 93.5t74.5 75t101.5 49.5t133 18q78 0 129 -18t81 -49t41.5 -73
t11.5 -89q0 -43 -7 -88.5t-17 -90.5l-37 -169h-1l-7 -35l-526 -87l-19 -86q-11 -48 -19 -92t-8 -82q0 -29 6.5 -53.5t22.5 -42t42.5 -27.5t66.5 -10q63 0 103 20.5t65 55.5t40 81.5t27 99.5l4 21h151zM656 1076q-63 0 -104 -24.5t-68 -66.5t-43.5 -98.5t-30.5 -119.5
l-25 -113l370 64l21 95q8 37 14.5 72t6.5 67q0 27 -6.5 49.5t-22.5 39t-43 26t-69 9.5zM969 1539l-215 -254h-121l185 254h151z" />
    <glyph glyph-name="ebreve" unicode="&#x115;" horiz-adv-x="838" 
d="M838 406l-4 -21q-11 -49 -24.5 -98.5t-35 -94t-51.5 -83t-72.5 -66.5t-100 -44t-132.5 -16q-77 0 -127 18.5t-79.5 51t-41.5 76t-12 94.5q0 50 8.5 104t20.5 108l72 332q12 56 28 111.5t38.5 105.5t53.5 93.5t74.5 75t101.5 49.5t133 18q78 0 129 -18t81 -49t41.5 -73
t11.5 -89q0 -43 -7 -88.5t-17 -90.5l-37 -169h-1l-7 -35l-526 -87l-19 -86q-11 -48 -19 -92t-8 -82q0 -29 6.5 -53.5t22.5 -42t42.5 -27.5t66.5 -10q63 0 103 20.5t65 55.5t40 81.5t27 99.5l4 21h151zM656 1076q-63 0 -104 -24.5t-68 -66.5t-43.5 -98.5t-30.5 -119.5
l-25 -113l370 64l21 95q8 37 14.5 72t6.5 67q0 27 -6.5 49.5t-22.5 39t-43 26t-69 9.5zM993 1513q-14 -51 -38.5 -93t-61.5 -72t-86 -47t-111 -17q-54 0 -92.5 12.5t-63 35t-36 54t-11.5 69.5q0 28 6 58h97q-2 -9 -2 -17v-16q0 -49 27.5 -75.5t95.5 -26.5q76 0 117 34.5
t61 100.5h98z" />
    <glyph glyph-name="ecaron" unicode="&#x11b;" horiz-adv-x="838" 
d="M838 406l-4 -21q-11 -49 -24.5 -98.5t-35 -94t-51.5 -83t-72.5 -66.5t-100 -44t-132.5 -16q-77 0 -127 18.5t-79.5 51t-41.5 76t-12 94.5q0 50 8.5 104t20.5 108l72 332q12 56 28 111.5t38.5 105.5t53.5 93.5t74.5 75t101.5 49.5t133 18q78 0 129 -18t81 -49t41.5 -73
t11.5 -89q0 -43 -7 -88.5t-17 -90.5l-37 -169h-1l-7 -35l-526 -87l-19 -86q-11 -48 -19 -92t-8 -82q0 -29 6.5 -53.5t22.5 -42t42.5 -27.5t66.5 -10q63 0 103 20.5t65 55.5t40 81.5t27 99.5l4 21h151zM656 1076q-63 0 -104 -24.5t-68 -66.5t-43.5 -98.5t-30.5 -119.5
l-25 -113l370 64l21 95q8 37 14.5 72t6.5 67q0 27 -6.5 49.5t-22.5 39t-43 26t-69 9.5zM675 1517l44 -145l110 145h134l-188 -233h-150l-86 233h136z" />
    <glyph glyph-name="ecircumflex" unicode="&#xea;" horiz-adv-x="838" 
d="M838 406l-4 -21q-11 -49 -24.5 -98.5t-35 -94t-51.5 -83t-72.5 -66.5t-100 -44t-132.5 -16q-77 0 -127 18.5t-79.5 51t-41.5 76t-12 94.5q0 50 8.5 104t20.5 108l72 332q12 56 28 111.5t38.5 105.5t53.5 93.5t74.5 75t101.5 49.5t133 18q78 0 129 -18t81 -49t41.5 -73
t11.5 -89q0 -43 -7 -88.5t-17 -90.5l-37 -169h-1l-7 -35l-526 -87l-19 -86q-11 -48 -19 -92t-8 -82q0 -29 6.5 -53.5t22.5 -42t42.5 -27.5t66.5 -10q63 0 103 20.5t65 55.5t40 81.5t27 99.5l4 21h151zM656 1076q-63 0 -104 -24.5t-68 -66.5t-43.5 -98.5t-30.5 -119.5
l-25 -113l370 64l21 95q8 37 14.5 72t6.5 67q0 27 -6.5 49.5t-22.5 39t-43 26t-69 9.5zM488 1284l188 233h150l86 -233h-135l-45 144l-108 -144h-136z" />
    <glyph glyph-name="edieresis" unicode="&#xeb;" horiz-adv-x="838" 
d="M838 406l-4 -21q-11 -49 -24.5 -98.5t-35 -94t-51.5 -83t-72.5 -66.5t-100 -44t-132.5 -16q-77 0 -127 18.5t-79.5 51t-41.5 76t-12 94.5q0 50 8.5 104t20.5 108l72 332q12 56 28 111.5t38.5 105.5t53.5 93.5t74.5 75t101.5 49.5t133 18q78 0 129 -18t81 -49t41.5 -73
t11.5 -89q0 -43 -7 -88.5t-17 -90.5l-37 -169h-1l-7 -35l-526 -87l-19 -86q-11 -48 -19 -92t-8 -82q0 -29 6.5 -53.5t22.5 -42t42.5 -27.5t66.5 -10q63 0 103 20.5t65 55.5t40 81.5t27 99.5l4 21h151zM656 1076q-63 0 -104 -24.5t-68 -66.5t-43.5 -98.5t-30.5 -119.5
l-25 -113l370 64l21 95q8 37 14.5 72t6.5 67q0 27 -6.5 49.5t-22.5 39t-43 26t-69 9.5zM536 1388q0 46 23 77.5t79 31.5q37 0 53.5 -15.5t16.5 -44.5q0 -53 -25 -81t-81 -28q-35 0 -50.5 15.5t-15.5 44.5zM750 1388q0 23 5.5 43t17.5 34.5t31.5 23t47.5 8.5q38 0 54 -15.5
t16 -44.5q0 -53 -24.5 -81t-81.5 -28q-34 0 -50 15.5t-16 44.5z" />
    <glyph glyph-name="edotaccent" unicode="&#x117;" horiz-adv-x="838" 
d="M838 406l-4 -21q-11 -49 -24.5 -98.5t-35 -94t-51.5 -83t-72.5 -66.5t-100 -44t-132.5 -16q-77 0 -127 18.5t-79.5 51t-41.5 76t-12 94.5q0 50 8.5 104t20.5 108l72 332q12 56 28 111.5t38.5 105.5t53.5 93.5t74.5 75t101.5 49.5t133 18q78 0 129 -18t81 -49t41.5 -73
t11.5 -89q0 -43 -7 -88.5t-17 -90.5l-37 -169h-1l-7 -35l-526 -87l-19 -86q-11 -48 -19 -92t-8 -82q0 -29 6.5 -53.5t22.5 -42t42.5 -27.5t66.5 -10q63 0 103 20.5t65 55.5t40 81.5t27 99.5l4 21h151zM656 1076q-63 0 -104 -24.5t-68 -66.5t-43.5 -98.5t-30.5 -119.5
l-25 -113l370 64l21 95q8 37 14.5 72t6.5 67q0 27 -6.5 49.5t-22.5 39t-43 26t-69 9.5zM626 1382q0 52 27.5 85t92.5 33q44 0 63.5 -17t19.5 -50q0 -59 -29.5 -89t-93.5 -30q-41 0 -60.5 18t-19.5 50z" />
    <glyph glyph-name="egrave" unicode="&#xe8;" horiz-adv-x="838" 
d="M838 406l-4 -21q-11 -49 -24.5 -98.5t-35 -94t-51.5 -83t-72.5 -66.5t-100 -44t-132.5 -16q-77 0 -127 18.5t-79.5 51t-41.5 76t-12 94.5q0 50 8.5 104t20.5 108l72 332q12 56 28 111.5t38.5 105.5t53.5 93.5t74.5 75t101.5 49.5t133 18q78 0 129 -18t81 -49t41.5 -73
t11.5 -89q0 -43 -7 -88.5t-17 -90.5l-37 -169h-1l-7 -35l-526 -87l-19 -86q-11 -48 -19 -92t-8 -82q0 -29 6.5 -53.5t22.5 -42t42.5 -27.5t66.5 -10q63 0 103 20.5t65 55.5t40 81.5t27 99.5l4 21h151zM656 1076q-63 0 -104 -24.5t-68 -66.5t-43.5 -98.5t-30.5 -119.5
l-25 -113l370 64l21 95q8 37 14.5 72t6.5 67q0 27 -6.5 49.5t-22.5 39t-43 26t-69 9.5zM691 1539l73 -254h-116l-102 254h145z" />
    <glyph glyph-name="emacron" unicode="&#x113;" horiz-adv-x="838" 
d="M838 406l-4 -21q-11 -49 -24.5 -98.5t-35 -94t-51.5 -83t-72.5 -66.5t-100 -44t-132.5 -16q-77 0 -127 18.5t-79.5 51t-41.5 76t-12 94.5q0 50 8.5 104t20.5 108l72 332q12 56 28 111.5t38.5 105.5t53.5 93.5t74.5 75t101.5 49.5t133 18q78 0 129 -18t81 -49t41.5 -73
t11.5 -89q0 -43 -7 -88.5t-17 -90.5l-37 -169h-1l-7 -35l-526 -87l-19 -86q-11 -48 -19 -92t-8 -82q0 -29 6.5 -53.5t22.5 -42t42.5 -27.5t66.5 -10q63 0 103 20.5t65 55.5t40 81.5t27 99.5l4 21h151zM656 1076q-63 0 -104 -24.5t-68 -66.5t-43.5 -98.5t-30.5 -119.5
l-25 -113l370 64l21 95q8 37 14.5 72t6.5 67q0 27 -6.5 49.5t-22.5 39t-43 26t-69 9.5zM509 1375l26 122h425l-26 -122h-425z" />
    <glyph glyph-name="eogonek" unicode="&#x119;" horiz-adv-x="838" 
d="M838 406l-4 -21q-11 -49 -24.5 -98.5t-35 -94t-51.5 -83t-72.5 -66.5t-100 -44t-132.5 -16q-77 0 -127 18.5t-79.5 51t-41.5 76t-12 94.5q0 50 8.5 104t20.5 108l72 332q12 56 28 111.5t38.5 105.5t53.5 93.5t74.5 75t101.5 49.5t133 18q78 0 129 -18t81 -49t41.5 -73
t11.5 -89q0 -43 -7 -88.5t-17 -90.5l-37 -169h-1l-7 -35l-526 -87l-19 -86q-11 -48 -19 -92t-8 -82q0 -29 6.5 -53.5t22.5 -42t42.5 -27.5t66.5 -10q63 0 103 20.5t65 55.5t40 81.5t27 99.5l4 21h151zM656 1076q-63 0 -104 -24.5t-68 -66.5t-43.5 -98.5t-30.5 -119.5
l-25 -113l370 64l21 95q8 37 14.5 72t6.5 67q0 27 -6.5 49.5t-22.5 39t-43 26t-69 9.5zM661 -304q-23 -17 -58 -28t-78 -11q-33 0 -62 8.5t-51 26.5t-34.5 46.5t-12.5 68.5q0 61 21.5 106.5t55.5 78.5t76.5 56.5t85.5 41.5l65 -34q-31 -18 -60 -39t-51.5 -47.5t-36 -59
t-13.5 -73.5q0 -70 69 -70q32 0 53 5.5t40 16.5z" />
    <glyph glyph-name="oacute" unicode="&#xf3;" horiz-adv-x="840" 
d="M258 767q12 56 28 111.5t38.5 105.5t53.5 93.5t74.5 75t101.5 49.5t133 18q76 0 126 -18.5t79 -51t41 -76t12 -94.5q0 -50 -8.5 -104t-20.5 -108l-72 -332q-13 -56 -28.5 -111.5t-38 -105.5t-53.5 -93.5t-74 -75t-100.5 -49.5t-132.5 -18q-77 0 -127 18.5t-79.5 51
t-41.5 76t-12 94.5q0 50 8.5 104t20.5 108zM655 1076q-63 0 -104 -24.5t-67.5 -66.5t-43 -98.5t-30.5 -119.5l-73 -333q-11 -48 -19 -92t-8 -82q0 -29 6.5 -53.5t22 -42t42 -27t66.5 -9.5q63 0 103.5 24.5t67 66t42.5 97.5t30 119l73 334q11 48 19.5 93t8.5 83q0 29 -6.5 53
t-22 41.5t-42 27t-65.5 9.5zM967 1539l-215 -254h-121l185 254h151z" />
    <glyph glyph-name="obreve" unicode="&#x14f;" horiz-adv-x="840" 
d="M258 767q12 56 28 111.5t38.5 105.5t53.5 93.5t74.5 75t101.5 49.5t133 18q76 0 126 -18.5t79 -51t41 -76t12 -94.5q0 -50 -8.5 -104t-20.5 -108l-72 -332q-13 -56 -28.5 -111.5t-38 -105.5t-53.5 -93.5t-74 -75t-100.5 -49.5t-132.5 -18q-77 0 -127 18.5t-79.5 51
t-41.5 76t-12 94.5q0 50 8.5 104t20.5 108zM655 1076q-63 0 -104 -24.5t-67.5 -66.5t-43 -98.5t-30.5 -119.5l-73 -333q-11 -48 -19 -92t-8 -82q0 -29 6.5 -53.5t22 -42t42 -27t66.5 -9.5q63 0 103.5 24.5t67 66t42.5 97.5t30 119l73 334q11 48 19.5 93t8.5 83q0 29 -6.5 53
t-22 41.5t-42 27t-65.5 9.5zM988 1513q-14 -51 -38.5 -93t-61.5 -72t-86 -47t-111 -17q-54 0 -92.5 12.5t-63 35t-36 54t-11.5 69.5q0 28 6 58h97q-2 -9 -2 -17v-16q0 -49 27.5 -75.5t95.5 -26.5q76 0 117 34.5t61 100.5h98z" />
    <glyph glyph-name="ocircumflex" unicode="&#xf4;" horiz-adv-x="840" 
d="M258 767q12 56 28 111.5t38.5 105.5t53.5 93.5t74.5 75t101.5 49.5t133 18q76 0 126 -18.5t79 -51t41 -76t12 -94.5q0 -50 -8.5 -104t-20.5 -108l-72 -332q-13 -56 -28.5 -111.5t-38 -105.5t-53.5 -93.5t-74 -75t-100.5 -49.5t-132.5 -18q-77 0 -127 18.5t-79.5 51
t-41.5 76t-12 94.5q0 50 8.5 104t20.5 108zM655 1076q-63 0 -104 -24.5t-67.5 -66.5t-43 -98.5t-30.5 -119.5l-73 -333q-11 -48 -19 -92t-8 -82q0 -29 6.5 -53.5t22 -42t42 -27t66.5 -9.5q63 0 103.5 24.5t67 66t42.5 97.5t30 119l73 334q11 48 19.5 93t8.5 83q0 29 -6.5 53
t-22 41.5t-42 27t-65.5 9.5zM480 1284l188 233h150l86 -233h-135l-45 144l-108 -144h-136z" />
    <glyph glyph-name="odieresis" unicode="&#xf6;" horiz-adv-x="840" 
d="M258 767q12 56 28 111.5t38.5 105.5t53.5 93.5t74.5 75t101.5 49.5t133 18q76 0 126 -18.5t79 -51t41 -76t12 -94.5q0 -50 -8.5 -104t-20.5 -108l-72 -332q-13 -56 -28.5 -111.5t-38 -105.5t-53.5 -93.5t-74 -75t-100.5 -49.5t-132.5 -18q-77 0 -127 18.5t-79.5 51
t-41.5 76t-12 94.5q0 50 8.5 104t20.5 108zM655 1076q-63 0 -104 -24.5t-67.5 -66.5t-43 -98.5t-30.5 -119.5l-73 -333q-11 -48 -19 -92t-8 -82q0 -29 6.5 -53.5t22 -42t42 -27t66.5 -9.5q63 0 103.5 24.5t67 66t42.5 97.5t30 119l73 334q11 48 19.5 93t8.5 83q0 29 -6.5 53
t-22 41.5t-42 27t-65.5 9.5zM519 1388q0 46 23 77.5t79 31.5q37 0 53.5 -15.5t16.5 -44.5q0 -53 -25 -81t-81 -28q-35 0 -50.5 15.5t-15.5 44.5zM733 1388q0 23 5.5 43t17.5 34.5t31.5 23t47.5 8.5q38 0 54 -15.5t16 -44.5q0 -53 -24.5 -81t-81.5 -28q-34 0 -50 15.5
t-16 44.5z" />
    <glyph glyph-name="ograve" unicode="&#xf2;" horiz-adv-x="840" 
d="M258 767q12 56 28 111.5t38.5 105.5t53.5 93.5t74.5 75t101.5 49.5t133 18q76 0 126 -18.5t79 -51t41 -76t12 -94.5q0 -50 -8.5 -104t-20.5 -108l-72 -332q-13 -56 -28.5 -111.5t-38 -105.5t-53.5 -93.5t-74 -75t-100.5 -49.5t-132.5 -18q-77 0 -127 18.5t-79.5 51
t-41.5 76t-12 94.5q0 50 8.5 104t20.5 108zM655 1076q-63 0 -104 -24.5t-67.5 -66.5t-43 -98.5t-30.5 -119.5l-73 -333q-11 -48 -19 -92t-8 -82q0 -29 6.5 -53.5t22 -42t42 -27t66.5 -9.5q63 0 103.5 24.5t67 66t42.5 97.5t30 119l73 334q11 48 19.5 93t8.5 83q0 29 -6.5 53
t-22 41.5t-42 27t-65.5 9.5zM680 1539l73 -254h-116l-102 254h145z" />
    <glyph glyph-name="ohungarumlaut" unicode="&#x151;" horiz-adv-x="840" 
d="M258 767q12 56 28 111.5t38.5 105.5t53.5 93.5t74.5 75t101.5 49.5t133 18q76 0 126 -18.5t79 -51t41 -76t12 -94.5q0 -50 -8.5 -104t-20.5 -108l-72 -332q-13 -56 -28.5 -111.5t-38 -105.5t-53.5 -93.5t-74 -75t-100.5 -49.5t-132.5 -18q-77 0 -127 18.5t-79.5 51
t-41.5 76t-12 94.5q0 50 8.5 104t20.5 108zM655 1076q-63 0 -104 -24.5t-67.5 -66.5t-43 -98.5t-30.5 -119.5l-73 -333q-11 -48 -19 -92t-8 -82q0 -29 6.5 -53.5t22 -42t42 -27t66.5 -9.5q63 0 103.5 24.5t67 66t42.5 97.5t30 119l73 334q11 48 19.5 93t8.5 83q0 29 -6.5 53
t-22 41.5t-42 27t-65.5 9.5zM800 1539l-213 -254h-117l185 254h145zM1011 1539l-212 -254h-117l184 254h145z" />
    <glyph glyph-name="omacron" unicode="&#x14d;" horiz-adv-x="840" 
d="M258 767q12 56 28 111.5t38.5 105.5t53.5 93.5t74.5 75t101.5 49.5t133 18q76 0 126 -18.5t79 -51t41 -76t12 -94.5q0 -50 -8.5 -104t-20.5 -108l-72 -332q-13 -56 -28.5 -111.5t-38 -105.5t-53.5 -93.5t-74 -75t-100.5 -49.5t-132.5 -18q-77 0 -127 18.5t-79.5 51
t-41.5 76t-12 94.5q0 50 8.5 104t20.5 108zM655 1076q-63 0 -104 -24.5t-67.5 -66.5t-43 -98.5t-30.5 -119.5l-73 -333q-11 -48 -19 -92t-8 -82q0 -29 6.5 -53.5t22 -42t42 -27t66.5 -9.5q63 0 103.5 24.5t67 66t42.5 97.5t30 119l73 334q11 48 19.5 93t8.5 83q0 29 -6.5 53
t-22 41.5t-42 27t-65.5 9.5zM500 1375l26 122h425l-26 -122h-425z" />
    <glyph glyph-name="otilde" unicode="&#xf5;" horiz-adv-x="840" 
d="M258 767q12 56 28 111.5t38.5 105.5t53.5 93.5t74.5 75t101.5 49.5t133 18q76 0 126 -18.5t79 -51t41 -76t12 -94.5q0 -50 -8.5 -104t-20.5 -108l-72 -332q-13 -56 -28.5 -111.5t-38 -105.5t-53.5 -93.5t-74 -75t-100.5 -49.5t-132.5 -18q-77 0 -127 18.5t-79.5 51
t-41.5 76t-12 94.5q0 50 8.5 104t20.5 108zM655 1076q-63 0 -104 -24.5t-67.5 -66.5t-43 -98.5t-30.5 -119.5l-73 -333q-11 -48 -19 -92t-8 -82q0 -29 6.5 -53.5t22 -42t42 -27t66.5 -9.5q63 0 103.5 24.5t67 66t42.5 97.5t30 119l73 334q11 48 19.5 93t8.5 83q0 29 -6.5 53
t-22 41.5t-42 27t-65.5 9.5zM1000 1479q-42 -65 -88 -104.5t-107 -39.5q-32 0 -56 11t-44.5 24t-40 24t-43.5 11q-26 0 -51.5 -15t-54.5 -50l-69 38q46 67 92.5 105.5t106.5 38.5q33 0 57.5 -11t45.5 -24.5t41 -24.5t43 -11q24 0 48 16.5t50 48.5z" />
    <glyph glyph-name="aogonek" unicode="&#x105;" horiz-adv-x="878" 
d="M603 0l27 123q-38 -63 -94 -102t-141 -39q-68 0 -113 17t-71.5 47.5t-37.5 71.5t-11 89q0 54 10 111.5t23 116.5l71 332q20 91 45.5 173t69 144t111.5 99t172 37q42 0 72.5 -11t51.5 -30.5t33 -46t17 -58.5l28 128h152l-263 -1202h-152zM449 126q55 0 95 23.5t68 62.5
t47 90t33 107l87 396q7 33 11.5 65.5t4.5 62.5q0 31 -6.5 57t-21.5 45.5t-40 30.5t-63 11q-63 0 -104.5 -27t-69 -71t-44 -99.5t-28.5 -112.5l-72 -334q-13 -57 -22.5 -105t-9.5 -86q0 -55 29 -85.5t106 -30.5zM746 -360q-23 -17 -58 -28t-78 -11q-33 0 -62 8.5t-51 26.5
t-34.5 46.5t-12.5 68.5q0 61 21.5 106.5t55.5 78.5t76.5 56.5t85.5 41.5l65 -34q-31 -18 -60 -39t-51.5 -47.5t-36 -59t-13.5 -73.5q0 -70 69 -70q32 0 53 5.5t40 16.5z" />
    <glyph glyph-name="aring" unicode="&#xe5;" horiz-adv-x="878" 
d="M603 0l27 123q-38 -63 -94 -102t-141 -39q-68 0 -113 17t-71.5 47.5t-37.5 71.5t-11 89q0 54 10 111.5t23 116.5l71 332q20 91 45.5 173t69 144t111.5 99t172 37q42 0 72.5 -11t51.5 -30.5t33 -46t17 -58.5l28 128h152l-263 -1202h-152zM449 126q55 0 95 23.5t68 62.5
t47 90t33 107l87 396q7 33 11.5 65.5t4.5 62.5q0 31 -6.5 57t-21.5 45.5t-40 30.5t-63 11q-63 0 -104.5 -27t-69 -71t-44 -99.5t-28.5 -112.5l-72 -334q-13 -57 -22.5 -105t-9.5 -86q0 -55 29 -85.5t106 -30.5zM580 1408q0 44 11.5 82t36 65.5t64 43.5t95.5 16
q78 0 111 -30.5t33 -87.5q0 -103 -52 -155t-163 -52q-71 0 -103.5 31t-32.5 87zM689 1435q0 -21 12 -33.5t39 -12.5q42 0 61.5 20.5t19.5 60.5q0 21 -12 33t-42 12q-43 0 -60.5 -24t-17.5 -56z" />
    <glyph glyph-name="agrave" unicode="&#xe0;" horiz-adv-x="878" 
d="M603 0l27 123q-38 -63 -94 -102t-141 -39q-68 0 -113 17t-71.5 47.5t-37.5 71.5t-11 89q0 54 10 111.5t23 116.5l71 332q20 91 45.5 173t69 144t111.5 99t172 37q42 0 72.5 -11t51.5 -30.5t33 -46t17 -58.5l28 128h152l-263 -1202h-152zM449 126q55 0 95 23.5t68 62.5
t47 90t33 107l87 396q7 33 11.5 65.5t4.5 62.5q0 31 -6.5 57t-21.5 45.5t-40 30.5t-63 11q-63 0 -104.5 -27t-69 -71t-44 -99.5t-28.5 -112.5l-72 -334q-13 -57 -22.5 -105t-9.5 -86q0 -55 29 -85.5t106 -30.5zM699 1539l73 -254h-116l-102 254h145z" />
    <glyph glyph-name="atilde" unicode="&#xe3;" horiz-adv-x="878" 
d="M603 0l27 123q-38 -63 -94 -102t-141 -39q-68 0 -113 17t-71.5 47.5t-37.5 71.5t-11 89q0 54 10 111.5t23 116.5l71 332q20 91 45.5 173t69 144t111.5 99t172 37q42 0 72.5 -11t51.5 -30.5t33 -46t17 -58.5l28 128h152l-263 -1202h-152zM449 126q55 0 95 23.5t68 62.5
t47 90t33 107l87 396q7 33 11.5 65.5t4.5 62.5q0 31 -6.5 57t-21.5 45.5t-40 30.5t-63 11q-63 0 -104.5 -27t-69 -71t-44 -99.5t-28.5 -112.5l-72 -334q-13 -57 -22.5 -105t-9.5 -86q0 -55 29 -85.5t106 -30.5zM1027 1479q-42 -65 -88 -104.5t-107 -39.5q-32 0 -56 11
t-44.5 24t-40 24t-43.5 11q-26 0 -51.5 -15t-54.5 -50l-69 38q46 67 92.5 105.5t106.5 38.5q33 0 57.5 -11t45.5 -24.5t41 -24.5t43 -11q24 0 48 16.5t50 48.5z" />
    <glyph glyph-name="amacron" unicode="&#x101;" horiz-adv-x="878" 
d="M603 0l27 123q-38 -63 -94 -102t-141 -39q-68 0 -113 17t-71.5 47.5t-37.5 71.5t-11 89q0 54 10 111.5t23 116.5l71 332q20 91 45.5 173t69 144t111.5 99t172 37q42 0 72.5 -11t51.5 -30.5t33 -46t17 -58.5l28 128h152l-263 -1202h-152zM449 126q55 0 95 23.5t68 62.5
t47 90t33 107l87 396q7 33 11.5 65.5t4.5 62.5q0 31 -6.5 57t-21.5 45.5t-40 30.5t-63 11q-63 0 -104.5 -27t-69 -71t-44 -99.5t-28.5 -112.5l-72 -334q-13 -57 -22.5 -105t-9.5 -86q0 -55 29 -85.5t106 -30.5zM527 1375l26 122h425l-26 -122h-425z" />
    <glyph glyph-name="adieresis" unicode="&#xe4;" horiz-adv-x="878" 
d="M603 0l27 123q-38 -63 -94 -102t-141 -39q-68 0 -113 17t-71.5 47.5t-37.5 71.5t-11 89q0 54 10 111.5t23 116.5l71 332q20 91 45.5 173t69 144t111.5 99t172 37q42 0 72.5 -11t51.5 -30.5t33 -46t17 -58.5l28 128h152l-263 -1202h-152zM449 126q55 0 95 23.5t68 62.5
t47 90t33 107l87 396q7 33 11.5 65.5t4.5 62.5q0 31 -6.5 57t-21.5 45.5t-40 30.5t-63 11q-63 0 -104.5 -27t-69 -71t-44 -99.5t-28.5 -112.5l-72 -334q-13 -57 -22.5 -105t-9.5 -86q0 -55 29 -85.5t106 -30.5zM554 1388q0 46 23 77.5t79 31.5q37 0 53.5 -15.5t16.5 -44.5
q0 -53 -25 -81t-81 -28q-35 0 -50.5 15.5t-15.5 44.5zM768 1388q0 23 5.5 43t17.5 34.5t31.5 23t47.5 8.5q38 0 54 -15.5t16 -44.5q0 -53 -24.5 -81t-81.5 -28q-34 0 -50 15.5t-16 44.5z" />
    <glyph glyph-name="acircumflex" unicode="&#xe2;" horiz-adv-x="878" 
d="M603 0l27 123q-38 -63 -94 -102t-141 -39q-68 0 -113 17t-71.5 47.5t-37.5 71.5t-11 89q0 54 10 111.5t23 116.5l71 332q20 91 45.5 173t69 144t111.5 99t172 37q42 0 72.5 -11t51.5 -30.5t33 -46t17 -58.5l28 128h152l-263 -1202h-152zM449 126q55 0 95 23.5t68 62.5
t47 90t33 107l87 396q7 33 11.5 65.5t4.5 62.5q0 31 -6.5 57t-21.5 45.5t-40 30.5t-63 11q-63 0 -104.5 -27t-69 -71t-44 -99.5t-28.5 -112.5l-72 -334q-13 -57 -22.5 -105t-9.5 -86q0 -55 29 -85.5t106 -30.5zM507 1284l188 233h150l86 -233h-135l-45 144l-108 -144h-136z
" />
    <glyph glyph-name="e.fat" horiz-adv-x="894" 
d="M286 767q12 56 28 111.5t38.5 105.5t53.5 93.5t74.5 75t101.5 49.5t133 18q78 0 129 -18t81 -49t41.5 -73t11.5 -89q0 -43 -7 -88t-17 -90l-45 -205l-44 -202l-3 -14q-11 -49 -25.5 -99t-35.5 -95t-51 -84.5t-73 -68.5t-100 -45.5t-132 -16.5q-77 0 -127 18.5t-79.5 51
t-41.5 76.5t-12 95q0 50 8.5 104t20.5 108zM752 582l-369 -61l-19 -86q-11 -48 -19 -92t-8 -82q0 -29 6.5 -53.5t22.5 -42t42.5 -27.5t66.5 -10q63 0 103 21.5t65.5 57.5t40.5 83.5t27 100.5l3 15zM683 1076q-63 0 -104 -24.5t-68 -66.5t-43.5 -98.5t-30.5 -119.5l-25 -113
l370 64l21 95q8 37 14.5 72t6.5 67q0 27 -6.5 49.5t-22.5 39t-43 26t-69 9.5z" />
    <glyph glyph-name="ibreve" unicode="&#x12d;" horiz-adv-x="408" 
d="M129 0l262 1202h153l-263 -1202h-152zM785 1513q-14 -51 -38.5 -93t-61.5 -72t-86 -47t-111 -17q-54 0 -92.5 12.5t-63 35t-36 54t-11.5 69.5q0 28 6 58h97q-2 -9 -2 -17v-16q0 -49 27.5 -75.5t95.5 -26.5q76 0 117 34.5t61 100.5h98z" />
    <glyph glyph-name="icircumflex" unicode="&#xee;" horiz-adv-x="408" 
d="M129 0l262 1202h153l-263 -1202h-152zM275 1284l188 233h150l86 -233h-135l-45 144l-108 -144h-136z" />
    <glyph glyph-name="idieresis" unicode="&#xef;" horiz-adv-x="408" 
d="M129 0l262 1202h153l-263 -1202h-152zM322 1388q0 46 23 77.5t79 31.5q37 0 53.5 -15.5t16.5 -44.5q0 -53 -25 -81t-81 -28q-35 0 -50.5 15.5t-15.5 44.5zM536 1388q0 23 5.5 43t17.5 34.5t31.5 23t47.5 8.5q38 0 54 -15.5t16 -44.5q0 -53 -24.5 -81t-81.5 -28
q-34 0 -50 15.5t-16 44.5z" />
    <glyph glyph-name="igrave" unicode="&#xec;" horiz-adv-x="408" 
d="M129 0l262 1202h153l-263 -1202h-152zM471 1539l73 -254h-116l-102 254h145z" />
    <glyph glyph-name="ij" unicode="&#x133;" horiz-adv-x="817" 
d="M442 1472q0 46 26.5 74t86.5 28q43 0 62.5 -16t19.5 -45q0 -22 -6 -41t-19.5 -32.5t-36 -21t-55.5 -7.5q-78 0 -78 61zM136 0l263 1202h152l-263 -1202h-152zM821 1472q0 46 26.5 74t85.5 28q83 0 83 -61q0 -45 -25.5 -73.5t-91.5 -28.5q-78 0 -78 61zM932 1202
l-265 -1211q-21 -94 -45 -168.5t-62.5 -126t-96 -78.5t-145.5 -27q-63 0 -104 17.5t-63 34.5l41 128q17 -10 53.5 -23.5t87.5 -13.5q44 0 72 13.5t47 43.5t33 79t30 121l265 1211h152z" />
    <glyph glyph-name="imacron" unicode="&#x12b;" horiz-adv-x="408" 
d="M129 0l262 1202h153l-263 -1202h-152zM295 1375l26 122h425l-26 -122h-425z" />
    <glyph glyph-name="iogonek" unicode="&#x12f;" horiz-adv-x="407" 
d="M435 1472q0 46 26.5 74t86.5 28q43 0 62.5 -16t19.5 -45q0 -22 -6 -41t-19.5 -32.5t-36 -21t-55.5 -7.5q-78 0 -78 61zM129 0l263 1202h152l-263 -1202h-152zM274 -360q-23 -17 -58 -28t-78 -11q-33 0 -62 8.5t-51 26.5t-34.5 46.5t-12.5 68.5q0 61 21.5 106.5t55.5 78.5
t76.5 56.5t85.5 41.5l65 -34q-31 -18 -60 -39t-51.5 -47.5t-36 -59t-13.5 -73.5q0 -70 69 -70q32 0 53 5.5t40 16.5z" />
    <glyph glyph-name="itilde" unicode="&#x129;" horiz-adv-x="408" 
d="M129 0l262 1202h153l-263 -1202h-152zM796 1479q-42 -65 -88 -104.5t-107 -39.5q-32 0 -56 11t-44.5 24t-40 24t-43.5 11q-26 0 -51.5 -15t-54.5 -50l-69 38q46 67 92.5 105.5t106.5 38.5q33 0 57.5 -11t45.5 -24.5t41 -24.5t43 -11q24 0 48 16.5t50 48.5z" />
    <glyph glyph-name="jcircumflex" unicode="&#x135;" horiz-adv-x="410" 
d="M273 1284l188 233h150l86 -233h-135l-45 144l-108 -144h-136zM545 1202l-265 -1211q-21 -94 -45 -168.5t-62.5 -126t-96 -78.5t-145.5 -27q-62 0 -103.5 17.5t-63.5 34.5l41 128q17 -10 53.5 -23.5t87.5 -13.5q44 0 72 13.5t47 43.5t33 79t30 121l265 1211h152z" />
    <glyph glyph-name="nacute" unicode="&#x144;" horiz-adv-x="900" 
d="M633 0l169 769q11 49 20 95.5t9 85.5q0 28 -6 51t-21 39.5t-40.5 25.5t-64.5 9q-61 0 -103.5 -30.5t-72.5 -79t-49.5 -110.5t-33.5 -125l-159 -730h-152l262 1202h152l-31 -142q20 33 48 61.5t62 50.5t73.5 34.5t82.5 12.5q62 0 103 -15.5t65 -43t34 -65t10 -81.5
q0 -57 -11.5 -120t-25.5 -126l-168 -768h-152zM1012 1539l-215 -254h-121l185 254h151z" />
    <glyph glyph-name="ncaron" unicode="&#x148;" horiz-adv-x="900" 
d="M633 0l169 769q11 49 20 95.5t9 85.5q0 28 -6 51t-21 39.5t-40.5 25.5t-64.5 9q-61 0 -103.5 -30.5t-72.5 -79t-49.5 -110.5t-33.5 -125l-159 -730h-152l262 1202h152l-31 -142q20 33 48 61.5t62 50.5t73.5 34.5t82.5 12.5q62 0 103 -15.5t65 -43t34 -65t10 -81.5
q0 -57 -11.5 -120t-25.5 -126l-168 -768h-152zM721 1517l44 -145l110 145h134l-188 -233h-150l-86 233h136z" />
    <glyph glyph-name="ntilde" unicode="&#xf1;" horiz-adv-x="900" 
d="M633 0l169 769q11 49 20 95.5t9 85.5q0 28 -6 51t-21 39.5t-40.5 25.5t-64.5 9q-61 0 -103.5 -30.5t-72.5 -79t-49.5 -110.5t-33.5 -125l-159 -730h-152l262 1202h152l-31 -142q20 33 48 61.5t62 50.5t73.5 34.5t82.5 12.5q62 0 103 -15.5t65 -43t34 -65t10 -81.5
q0 -57 -11.5 -120t-25.5 -126l-168 -768h-152zM1054 1479q-42 -65 -88 -104.5t-107 -39.5q-32 0 -56 11t-44.5 24t-40 24t-43.5 11q-26 0 -51.5 -15t-54.5 -50l-69 38q46 67 92.5 105.5t106.5 38.5q33 0 57.5 -11t45.5 -24.5t41 -24.5t43 -11q24 0 48 16.5t50 48.5z" />
    <glyph glyph-name="napostrophe" unicode="&#x149;" horiz-adv-x="1030" 
d="M759 0l169 769q11 49 20 95.5t9 85.5q0 28 -6 51t-21 39.5t-40.5 25.5t-64.5 9q-61 0 -103.5 -30.5t-72.5 -79t-49.5 -110.5t-33.5 -125l-159 -730h-152l262 1202h152l-31 -142q20 33 48 61.5t62 50.5t73.5 34.5t82.5 12.5q62 0 103 -15.5t65 -43t34 -65t10 -81.5
q0 -57 -11.5 -120t-25.5 -126l-168 -768h-152zM255 1120q0 47 24 73.5t78 26.5q38 0 55 -19t17 -51q0 -38 -11.5 -73.5t-29.5 -67t-40.5 -59.5t-43.5 -50l-57 33q16 20 28 36t20.5 31t15 30t12.5 33q-68 0 -68 57z" />
    <glyph glyph-name="ncommaaccent" unicode="&#x146;" horiz-adv-x="900" 
d="M633 0l169 769q11 49 20 95.5t9 85.5q0 28 -6 51t-21 39.5t-40.5 25.5t-64.5 9q-61 0 -103.5 -30.5t-72.5 -79t-49.5 -110.5t-33.5 -125l-159 -730h-152l262 1202h152l-31 -142q20 33 48 61.5t62 50.5t73.5 34.5t82.5 12.5q62 0 103 -15.5t65 -43t34 -65t10 -81.5
q0 -57 -11.5 -120t-25.5 -126l-168 -768h-152zM348 -158q0 47 24 73.5t78 26.5q38 0 55 -19t17 -51q0 -38 -11.5 -73.5t-29.5 -67t-40.5 -59.5t-43.5 -50l-57 33q16 20 28 36t20.5 31t15 30t12.5 33q-68 0 -68 57z" />
    <glyph glyph-name="iotadieresistonos" unicode="&#x390;" horiz-adv-x="408" 
d="M129 0l262 1202h153l-263 -1202h-152zM634 1631l-74 -255h-107l42 255h139zM255 1374q0 46 23 77.5t79 31.5q37 0 53.5 -15.5t16.5 -44.5q0 -53 -25.5 -81t-81.5 -28q-34 0 -49.5 15.5t-15.5 44.5zM592 1374q0 23 5.5 43t17.5 34.5t31.5 23t47.5 8.5q38 0 54 -15.5
t16 -44.5q0 -53 -25 -81t-82 -28q-33 0 -49 15.5t-16 44.5z" />
    <glyph glyph-name="iotatonos" unicode="&#x3af;" horiz-adv-x="408" 
d="M129 0l262 1202h153l-263 -1202h-152zM624 1549l-75 -254h-110l43 254h142z" />
    <glyph glyph-name="upsilondieresistonos" unicode="&#x3b0;" horiz-adv-x="886" 
d="M1041 1202l-180 -827q-18 -84 -45 -154.5t-73 -122t-116 -81.5t-174 -33v-1h-10h-10l-1 1q-74 2 -123.5 18.5t-79 45t-42 68t-12.5 88.5q0 38 6 81t17 90l180 827h154l-179 -820q-8 -38 -14.5 -72t-6.5 -63q0 -27 6.5 -48t23 -36.5t43 -24t67.5 -9.5q64 1 104 19.5
t65 51.5t39.5 79.5t27.5 102.5l180 820h153zM881 1631l-74 -255h-107l42 255h139zM502 1374q0 46 23 77.5t79 31.5q37 0 53.5 -15.5t16.5 -44.5q0 -53 -25.5 -81t-81.5 -28q-34 0 -49.5 15.5t-15.5 44.5zM839 1374q0 23 5.5 43t17.5 34.5t31.5 23t47.5 8.5q38 0 54 -15.5
t16 -44.5q0 -53 -25 -81t-82 -28q-33 0 -49 15.5t-16 44.5z" />
    <glyph glyph-name="afii10075" unicode="&#x439;" horiz-adv-x="915" 
d="M634 0l202 922l-507 -922h-201l262 1202h155l-200 -913l510 913h30l105 1l-1 -1h69l-269 -1202h-155zM1051 1513q-14 -51 -38.5 -93t-61.5 -72t-86 -47t-111 -17q-54 0 -92.5 12.5t-63 35.5t-35.5 54.5t-11 69.5q0 14 1.5 28t3.5 29h97q-1 -8 -1.5 -16.5t-0.5 -16.5
q0 -49 27.5 -75.5t95.5 -26.5q76 0 117.5 35t61.5 100h97z" />
    <glyph glyph-name="kcommaaccent" unicode="&#x137;" horiz-adv-x="827" 
d="M622 1568l-196 -892h106l360 526h157l-420 -601l196 -601h-169l-158 529h-104l-115 -529h-152l343 1568h152zM343 -158q0 47 24 73.5t78 26.5q38 0 55 -19t17 -51q0 -38 -11.5 -73.5t-29.5 -67t-40.5 -59.5t-43.5 -50l-57 33q16 20 28 36t20.5 31t15 30t12.5 33
q-68 0 -68 57z" />
    <glyph glyph-name="ldot" unicode="&#x140;" horiz-adv-x="409" 
d="M501 1796q0 52 27.5 85t92.5 33q44 0 63.5 -17t19.5 -50q0 -59 -29.5 -89t-93.5 -30q-41 0 -60.5 18t-19.5 50zM128 0l342 1568h152l-342 -1568h-152z" />
    <glyph glyph-name="lacute" unicode="&#x13a;" horiz-adv-x="409" 
d="M128 0l342 1568h152l-342 -1568h-152zM839 1892l-215 -254h-121l185 254h151z" />
    <glyph glyph-name="lcaron" unicode="&#x13e;" horiz-adv-x="409" 
d="M542 1892l44 -145l110 145h134l-188 -233h-150l-86 233h136zM128 0l342 1568h152l-342 -1568h-152z" />
    <glyph glyph-name="lcommaaccent" unicode="&#x13c;" horiz-adv-x="409" 
d="M128 0l342 1568h152l-342 -1568h-152zM85 -158q0 47 24 73.5t78 26.5q38 0 55 -19t17 -51q0 -38 -11.5 -73.5t-29.5 -67t-40.5 -59.5t-43.5 -50l-57 33q16 20 28 36t20.5 31t15 30t12.5 33q-68 0 -68 57z" />
    <glyph glyph-name="hbar" unicode="&#x127;" horiz-adv-x="900" 
d="M633 0l169 769q11 47 19 91.5t8 82.5q0 29 -6.5 53.5t-22.5 42t-42 27t-66 9.5q-60 0 -102 -30.5t-70.5 -79t-47 -110.5t-32.5 -125l-159 -730h-152l342 1567h152l-109 -501q37 68 97.5 110.5t146.5 42.5q67 0 111 -17t70 -47t36.5 -70.5t10.5 -88.5q0 -53 -10 -111
t-23 -117l-168 -768h-152zM344 1347l26 122h425l-26 -122h-425z" />
    <glyph glyph-name="rcommaaccent" unicode="&#x157;" horiz-adv-x="569" 
d="M794 1051q-12 2 -34.5 11.5t-59.5 9.5h-1q-57 0 -98 -25t-69.5 -66.5t-47.5 -95.5t-33 -111l-169 -774h-152l262 1202h152l-31 -142q19 35 43 64.5t54 50.5t66 33t80 12v-1l1 1q16 0 35 -3t34 -10zM88 -158q0 47 24 73.5t78 26.5q38 0 55 -19t17 -51q0 -38 -11.5 -73.5
t-29.5 -67t-40.5 -59.5t-43.5 -50l-57 33q16 20 28 36t20.5 31t15 30t12.5 33q-68 0 -68 57z" />
    <glyph glyph-name="afii10109" unicode="&#x45c;" horiz-adv-x="836" 
d="M523 1201l-115 -525h105l360 526h157l-420 -601l196 -601h-169l-158 529h-103l-116 -529h-152l263 1201h152zM968 1539l-215 -254h-121l185 254h151z" />
    <glyph glyph-name="wacute" unicode="&#x1e83;" horiz-adv-x="1209" 
d="M285 1203h157l-81 -1059h14l381 1059h234l-81 -1059h13l382 1059h156l-450 -1203h-246l79 1058h-4l-383 -1058h-247zM1157 1539l-215 -254h-121l185 254h151z" />
    </font>
</defs>
</svg>
