<?xml version="1.0" standalone="no"?>
<!DOCTYPE svg PUBLIC "-//W3C//DTD SVG 1.1//EN" "http://www.w3.org/Graphics/SVG/1.1/DTD/svg11.dtd" >
<svg xmlns="http://www.w3.org/2000/svg" xmlns:xlink="http://www.w3.org/1999/xlink" version="1.1">
<metadata>
Created by FontForge 20150824 at Mon Jun 27 12:29:58 2016
 By Everything Fonts
Copyright (c) 2015 Sabrina Mariela Lopez (typesenses@live.com.ar), with Reserved Font Name "Blend"
</metadata>
<defs>
<font id="TypesensesBlendScript" horiz-adv-x="505" >
  <font-face 
    font-family="TypesensesBlendScript"
    font-weight="400"
    font-stretch="normal"
    units-per-em="1250"
    panose-1="2 0 0 0 0 0 0 0 0 0"
    ascent="937"
    descent="-313"
    x-height="526"
    cap-height="908"
    bbox="-380 -455 2144 1139.33"
    underline-thickness="50"
    underline-position="-150"
    unicode-range="U+0020-FB02"
  />
<missing-glyph horiz-adv-x="625" 
 />
    <glyph glyph-name="f_f" unicode="ff" horiz-adv-x="624" 
d="M664 360q4 8 18 5q4 -3 5 -5q-11 -29 -46 -54.5t-91 -25.5q-48 0 -92 21q9 -35 9 -92q0 -93 -20.5 -202t-59.5 -191t-82 -82q-63 0 -63 126q0 129 72 422q-62 -40 -122 -40q-27 0 -49 5q11 -33 11 -87q0 -92 -24 -204.5t-65.5 -196.5t-83.5 -84q-63 0 -63 126
q0 146 96 526q35 140 61 227.5t58 168.5t65.5 118.5t71.5 37.5q48 0 48 -52q0 -120 -240 -481l-6 -26q-103 -457 -103 -563q0 -49 17 -49q45 0 93.5 163t48.5 289q0 104 -33 104l2 23q6 0 36 -10.5t59 -10.5q65 0 130 47l4 14q69 272 116.5 382t114.5 110q48 0 48 -52
q0 -65 -64 -199t-152 -224l-5 -24q-33 -145 -47.5 -214.5t-29 -156t-14.5 -133.5q0 -49 17 -49q33 0 65 83.5t50 193t18 195.5q0 39 -5.5 61t-16.5 21l2 23q7 0 23 -10t43 -20t61 -10q86 0 114 56zM270 846q-72 0 -178 -438q81 130 139 247t58 165q0 26 -19 26zM557 786
q-63 0 -159 -403q75 86 126.5 202.5t51.5 174.5q0 26 -19 26z" />
    <glyph glyph-name="B_y" unicode="By" horiz-adv-x="1287" 
d="M678 926q51 0 76 -35t25 -94q0 -106 -69 -232t-166 -177q92 -17 122 -115q92 -26 132 -69q17 86 67 199q8 17 15.5 25t12 9.5t14.5 1.5q12 0 19 -7.5t7 -19.5q0 -7 -52 -127t-52 -161q0 -23 16 -23q27 0 67.5 42t79.5 102.5t74 121t56 102.5l22 42q13 30 22.5 41t23.5 11
q16 0 19 -13.5t-2 -19.5q-30 -71 -89.5 -244t-86.5 -245q34 -1 60 -9t35 -16l9 -7q3 -1 -1 -2q-9 -1 -20 2q-40 9 -91 9q-34 -86 -66 -151t-71 -122.5t-82.5 -87.5t-90.5 -30q-72 0 -72 69q0 90 101 203.5t229 136.5q41 105 63 168q10 28 15.5 49.5t-0.5 21.5q-8 0 -40 -49
q-105 -159 -170 -159q-49 0 -49 68q0 20 3 44q-1 16 -37 37t-85 35q5 -28 5 -52q0 -59 -20.5 -123.5t-62.5 -126t-100 -110.5t-139.5 -79t-173.5 -30q-105 0 -159 54t-54 137q0 91 69 182.5t193 142.5q68 233 68 356q0 168 -115 168q-53 0 -96.5 -40.5t-64.5 -96t-21 -107.5
q0 -42 16 -67.5t46 -25.5q8 0 15.5 2t10.5 4l4 2q6 5 14 -2l1 -4q-13 -19 -45 -19q-40 0 -60.5 31t-20.5 80q0 58 24 118t71.5 104t105.5 44q161 0 161 -236v-17v-26q-1 -19 3 -19q9 0 26 45q161 386 306 386zM167 38q0 7 54 182q-111 -50 -171.5 -133.5t-60.5 -165.5
q0 -69 44 -113.5t124 -44.5q94 0 183.5 48t151 120t98.5 153t37 149q0 10 -2 28q-57 12 -136 12q-107 0 -198 -27q-25 -76 -66 -214q-3 -12 -25 -12q-33 0 -33 18zM447 363q-5 0 -9.5 10t-4.5 18q0 5 2 5q60 0 132 79.5t118.5 182.5t46.5 172q0 71 -54 71q-52 0 -108 -59.5
t-106.5 -161.5t-89 -199.5t-76.5 -211.5q89 25 191 25q64 0 132 -11q-20 86 -114 86q-9 0 -29 -3t-31 -3zM702 -340q114 0 259 351q-61 -13 -117.5 -52t-93.5 -86t-58.5 -94t-21.5 -79q0 -40 32 -40z" />
    <glyph glyph-name="D_y" unicode="Dy" horiz-adv-x="1445" 
d="M108 456q6 5 14 -2l1 -4q-19 -25 -55 -25q-43 0 -65.5 34.5t-22.5 89.5q0 59 23 118t71 101.5t108 42.5q164 0 164 -243q0 -74 -21 -200l8 6q85 238 185 389t199 151q77 0 116 -70.5t39 -189.5q0 -85 -20 -184t-57 -198.5t-93 -191.5t-123 -163t-152.5 -113.5
t-176.5 -42.5q-88 0 -131.5 47t-43.5 125q0 86 48.5 188t129.5 184q41 199 41 296q0 187 -112 187q-79 0 -130 -78.5t-51 -164.5q0 -46 17 -74.5t50 -28.5q10 0 20 3.5t15 6.5zM199 46q0 11 5.5 39.5t19.5 88.5t21 95q-67 -77 -107 -169t-40 -166q0 -65 32 -102.5t97 -37.5
q80 0 159 46t143 121.5t119.5 172.5t92.5 198.5t58.5 199t21.5 175.5q0 85 -26 133.5t-78 48.5q-56 0 -119.5 -68t-120.5 -176t-111 -249q107 65 217 65q13 0 13 -14q0 -11 -9 -11q-4 4 -15 4q-111 0 -216 -72q-61 -167 -101 -334q-1 -7 -10 -7q-8 0 -27 6t-19 13zM1065 439
q12 0 19 -7.5t7 -19.5q0 -7 -52 -127t-52 -161q0 -23 16 -23q27 0 67.5 42t79.5 102.5t74 121t56 102.5l22 42q13 30 22.5 41t23.5 11q16 0 19 -13.5t-2 -19.5q-30 -71 -89.5 -244t-86.5 -245q34 -1 60 -9t35 -16l9 -7q3 -1 -1 -2q-9 -1 -20 2q-40 9 -91 9q-34 -86 -66 -151
t-71 -122.5t-82.5 -87.5t-90.5 -30q-72 0 -72 69q0 90 101.5 203.5t228.5 136.5q26 65 63 168q10 26 15.5 48.5t-0.5 22.5q-8 0 -40 -49q-105 -159 -170 -159q-49 0 -49 68q0 96 75 268q8 17 15.5 25t12 9.5t14.5 1.5zM860 -340q114 0 259 351q-80 -17 -150 -77.5
t-105.5 -124.5t-35.5 -109q0 -40 32 -40z" />
    <glyph glyph-name="D_r" unicode="Dr" horiz-adv-x="1393" 
d="M1143 715q0 -45 -25 -140q15 -16 48.5 -33t53 -37t19.5 -55q0 -39 -45.5 -174t-45.5 -181q0 -62 38 -62q10 0 22.5 6t24.5 15t25.5 23.5t25 28.5t25.5 32.5t23.5 32.5t21 32t17.5 27.5t14 22.5t8 14q5 8 19 5q4 -3 4 -5q-6 -11 -15.5 -29t-38.5 -64t-57 -81t-64.5 -64
t-65.5 -29q-39 0 -61.5 29.5t-22.5 74.5q0 56 27 136t54 146t27 90q0 14 -13 23.5t-37 23t-39 27.5q-41 -141 -108.5 -285.5t-115.5 -184.5q-4 -3 -9 0t-6 8t2 8q40 30 109.5 182.5t110.5 291.5q-26 36 -26 96q0 37 14 61.5t39 24.5q23 0 23 -37zM108 456q6 5 14 -2l1 -4
q-19 -25 -55 -25q-43 0 -65.5 34.5t-22.5 89.5q0 59 23 118t71 101.5t108 42.5q164 0 164 -243q0 -74 -21 -200l8 6q85 238 185 389t199 151q77 0 116 -70.5t39 -189.5q0 -85 -20 -184t-57 -198.5t-93 -191.5t-123 -163t-152.5 -113.5t-176.5 -42.5q-88 0 -131.5 47
t-43.5 125q0 86 48.5 188t129.5 184q41 199 41 296q0 187 -112 187q-79 0 -130 -78.5t-51 -164.5q0 -46 17 -74.5t50 -28.5q10 0 20 3.5t15 6.5zM199 46q0 11 5.5 39.5t19.5 88.5t21 95q-67 -77 -107 -169t-40 -166q0 -65 32 -102.5t97 -37.5q80 0 159 46t143 121.5
t119.5 172.5t92.5 198.5t58.5 199t21.5 175.5q0 85 -26 133.5t-78 48.5q-56 0 -119.5 -68t-120.5 -176t-111 -249q107 65 217 65q13 0 13 -14q0 -11 -9 -11q-4 4 -15 4q-111 0 -216 -72q-61 -167 -101 -334q-1 -7 -10 -7q-8 0 -27 6t-19 13z" />
    <glyph glyph-name="F_l" unicode="Fl" horiz-adv-x="1257" 
d="M1257 267q4 9 19 5q4 -3 4 -5q-6 -11 -16.5 -30t-41 -67.5t-58.5 -85t-63 -67t-61 -30.5q-47 0 -70 59t-23 158q0 132 28 271t80.5 236.5t111.5 97.5q49 0 49 -62q0 -58 -57.5 -181.5t-144.5 -262.5q-5 -65 -5 -112q0 -171 50 -171q17 0 48.5 33.5t64 81t53.5 80.5t32 52
zM1161 776q-44 0 -84 -127.5t-59 -295.5q72 121 121 231.5t49 152.5q0 39 -27 39zM465 371q23 -10 85 -14q29 106 49 169t59 145t86 136q-37 3 -122.5 10.5t-136.5 11.5t-115.5 8t-106.5 4q-73 0 -132.5 -24.5t-95.5 -65.5t-55 -90t-19 -101q0 -92 55 -156.5t153 -64.5
q37 0 70 14t53.5 33.5t35.5 39.5t22 34l6 14q1 4 6.5 4.5t9 -2.5t1.5 -7q-68 -151 -204 -151q-112 0 -173.5 75.5t-61.5 182.5q0 122 78 214t216 92q64 0 142.5 -6t133 -12t142.5 -17t122 -15q115 113 294 113q49 0 77 -16t28 -40q0 -36 -61 -65t-174 -29q-36 0 -134 7
q-41 -48 -74 -121.5t-51 -134t-43 -156.5q-5 -19 -7 -28q56 11 102 45.5t68 71.5q25 43 48 43q17 0 17 -20q0 -2 -22 -39.5t-43.5 -94t-21.5 -104.5l3 -44l-2 -3q-2 -2 -6 -2q-21 0 -21 66q0 59 16 120l-1 1q-1 0 -18.5 -13t-52 -28.5t-72.5 -21.5q-16 -61 -29 -104
t-33 -96.5t-41 -90t-51.5 -74t-65.5 -60t-82.5 -36.5t-102.5 -14q-85 0 -123 39.5t-38 90.5q0 33 15 50q6 6 18 2q3 -1 2 -3q-12 -14 -12 -43q0 -43 32.5 -77t105.5 -34q34 0 63.5 8t53.5 20.5t46 36t38.5 44.5t33.5 56t28 61.5t25.5 70t23 73t21.5 77.5q-67 6 -88 15
q-7 3 -2.5 12.5t10.5 7.5zM1063 920q-148 0 -243 -93q73 -7 112 -7q51 0 92 6t65.5 16t37 21.5t12.5 22.5q0 15 -20 24.5t-56 9.5z" />
    <glyph glyph-name="F_r" unicode="Fr" horiz-adv-x="1373" 
d="M1123 715q0 -45 -25 -140q15 -16 48.5 -33t53 -37t19.5 -55q0 -39 -45.5 -174t-45.5 -181q0 -62 38 -62q15 0 32.5 11t36.5 31t36 40.5t35.5 47.5t29.5 44t24 39l13 21q5 8 19 5q4 -3 4 -5q-6 -11 -15.5 -29t-38.5 -64t-57 -81t-64.5 -64t-65.5 -29q-39 0 -61.5 29.5
t-22.5 74.5q0 56 27 136t54 146t27 90q0 14 -13 23.5t-37 23t-39 27.5q-41 -141 -108.5 -285.5t-115.5 -184.5q-4 -3 -9 0t-6 8t2 8q40 30 109.5 182.5t110.5 291.5q-26 36 -26 96q0 37 14 61.5t39 24.5q23 0 23 -37zM465 371q23 -10 85 -14q29 106 49 169t59 145t86 136
q-37 3 -122.5 10.5t-136.5 11.5t-115.5 8t-106.5 4q-73 0 -132.5 -24.5t-95.5 -65.5t-55 -90t-19 -101q0 -92 55 -156.5t153 -64.5q37 0 70 14t53.5 33.5t35.5 39.5t22 34l6 14q1 4 6.5 4.5t9 -2.5t1.5 -7q-68 -151 -204 -151q-112 0 -173.5 75.5t-61.5 182.5q0 122 78 214
t216 92q64 0 142.5 -6t133 -12t142.5 -17t122 -15q115 113 294 113q49 0 77 -16t28 -40q0 -36 -61 -65t-174 -29q-36 0 -134 7q-41 -48 -74 -121.5t-51 -134t-43 -156.5q-5 -19 -7 -28q56 11 102 45.5t68 71.5q25 43 48 43q17 0 17 -20q0 -2 -22 -39.5t-43.5 -94
t-21.5 -104.5l3 -44l-2 -3q-2 -2 -6 -2q-21 0 -21 66q0 59 16 120l-1 1q-1 0 -18.5 -13t-52 -28.5t-72.5 -21.5q-16 -61 -29 -104t-33 -96.5t-41 -90t-51.5 -74t-65.5 -60t-82.5 -36.5t-102.5 -14q-85 0 -123 39.5t-38 90.5q0 33 15 50q6 6 18 2q3 -1 2 -3q-12 -14 -12 -43
q0 -43 32.5 -77t105.5 -34q34 0 63.5 8t53.5 20.5t46 36t38.5 44.5t33.5 56t28 61.5t25.5 70t23 73t21.5 77.5q-67 6 -88 15q-7 3 -2.5 12.5t10.5 7.5zM1063 920q-148 0 -243 -93q73 -7 112 -7q51 0 92 6t65.5 16t37 21.5t12.5 22.5q0 15 -20 24.5t-56 9.5z" />
    <glyph glyph-name="G_r" unicode="Gr" horiz-adv-x="1206" 
d="M956 715q0 -45 -25 -140q15 -16 48.5 -33t53 -37t19.5 -55q0 -39 -45.5 -174t-45.5 -181q0 -62 38 -62q10 0 22.5 6t24.5 15t25.5 23.5t25 28.5t25.5 32.5t23.5 32.5t21 32t17.5 27.5t14 22.5t8 14q5 8 19 5q4 -3 4 -5q-6 -11 -15.5 -29t-38.5 -64t-57 -81t-64.5 -64
t-65.5 -29q-39 0 -61.5 29.5t-22.5 74.5q0 56 27 136t54 146t27 90q0 14 -13 23.5t-37 23t-39 27.5q-41 -141 -108.5 -285.5t-115.5 -184.5q-4 -3 -9 0t-6 8t2 8q40 30 109.5 182.5t110.5 291.5q-26 36 -26 96q0 37 14 61.5t39 24.5q23 0 23 -37zM591 333q0 1 2 5.5t2.5 5.5
t2.5 5.5t3 6t3 5t4 5t5 4t5.5 3t6.5 1.5t8 1q14 0 20.5 -8.5t2.5 -22.5q-5 -17 -21 -76.5t-25 -90.5t-29.5 -89t-37.5 -91.5t-45.5 -77.5t-57.5 -68t-69 -41t-85 -17q-26 0 -47 6t-33 14.5t-20 18.5t-11 16.5t-3 9.5q0 11 10 11q9 0 17.5 -12.5t28 -25.5t56.5 -13
q36 0 69.5 20.5t59 51.5t50.5 77.5t42.5 89t36.5 96.5q1 4 2.5 8.5t2.5 11t0.5 11t-3.5 4.5t-7.5 -4.5t-8.5 -9t-9 -12t-7 -9.5q-95 -130 -177 -130q-63 0 -100 40t-49 110q-34 -7 -73 -7q-125 0 -182.5 54t-57.5 121q0 31 11.5 52t27.5 21q2 0 3 -4t0 -8.5t-2 -4.5
q-9 0 -15.5 -15t-6.5 -37q0 -26 10.5 -51t33.5 -50t69 -40t109 -15q38 0 70 7q-2 16 -2 51q0 98 33.5 214t87.5 215.5t131 166t156 66.5q59 0 88 -34.5t29 -94.5q0 -69 -36 -157.5t-96 -173.5t-147.5 -157t-180.5 -104q3 -142 90 -142q43 0 90.5 41.5t82.5 96.5t56.5 95.5
t25.5 53.5zM589 886q-75 0 -156 -117t-132.5 -274.5t-54.5 -281.5q88 32 170 103t137 153.5t88.5 166.5t33.5 146q0 104 -86 104z" />
    <glyph glyph-name="I_m" unicode="Im" horiz-adv-x="1546" 
d="M797 -110q3 8 15 6q4 -3 3 -6t-4 -7.5t-13 -16t-22 -20.5t-32 -16t-43 -7q-66 0 -96.5 46.5t-30.5 125.5q0 96 38.5 212.5t95.5 198t105 81.5q60 0 60 -81q0 -35 -23 -138q-2 -10 -3 -15.5t-2.5 -15t-1 -14t3.5 -4.5q6 0 35 51q157 298 239 298q50 0 50 -62
q0 -27 -20 -125l-3.5 -17.5t-3 -18.5t-1 -17.5t3.5 -6.5q7 0 33 39q96 144 156 144q46 0 46 -55q0 -32 -36.5 -175t-36.5 -198q0 -43 20 -43q29 0 83.5 58.5t93.5 116.5l40 59q5 8 19 5q4 -3 4 -5q-6 -11 -17.5 -29t-44 -64t-61.5 -81t-65 -64t-61 -29q-68 0 -68 92
q0 56 36 190.5t36 164.5q0 24 -12 24q-29 0 -104.5 -108.5t-126.5 -221.5q-13 -29 -30 -29q-10 0 -17 5.5t-7 14.5q0 26 45.5 182t45.5 191q0 30 -19 30q-74 0 -319 -525q-8 -10 -12 -11q-14 0 -25.5 6.5t-11.5 16.5q0 30 49 196t49 209q0 36 -22 36q-38 0 -88.5 -77
t-87.5 -190.5t-37 -205.5q0 -146 107 -146q31 0 55 11.5t32 22.5zM333 561q21 0 21 -41q0 -65 -50.5 -135t-134.5 -70q-59 0 -88.5 40t-29.5 107t28 144t75 144.5t118 112.5t148 45q95 0 141.5 -71t46.5 -191q0 -117 -42 -257t-109.5 -260t-162 -201t-189.5 -81
q-64 0 -94.5 36.5t-30.5 88.5q0 41 17.5 72.5t43.5 31.5q7 0 10.5 -3t3.5 -5v-3q-23 0 -39.5 -27.5t-16.5 -63.5q0 -40 23.5 -67.5t70.5 -27.5q102 0 215 143t185 335.5t72 337.5q0 89 -32.5 140.5t-100.5 51.5q-78 0 -148 -44t-115 -110t-71.5 -139.5t-26.5 -135.5
q0 -56 22 -89t65 -33q53 0 93.5 38t57 80t16.5 72q0 19 -8 19q1 16 16 16z" />
    <glyph glyph-name="I_n" unicode="In" horiz-adv-x="1296" 
d="M780 10q-3 -11 -12 -11q-14 0 -25.5 6.5t-11.5 16.5q0 30 49 196t49 209q0 36 -22 36q-38 0 -88.5 -77t-87.5 -190.5t-37 -205.5q0 -146 107 -146q31 0 55 11.5t32 22.5l9 12q3 8 15 6q4 -3 3 -6t-4 -7.5t-13 -16t-22 -20.5t-32 -16t-43 -7q-66 0 -96.5 46.5t-30.5 125.5
q0 96 38.5 212.5t95.5 198t105 81.5q60 0 60 -81q0 -46 -32 -174q-7 -28 1 -28q7 0 27 35q172 309 244 309q48 0 48 -56q0 -36 -36 -167.5t-36 -169.5q0 -55 36 -55q23 0 49.5 18.5t51 48.5t40.5 53t30 47q5 8 19 5q4 -3 4 -5q-4 -8 -11.5 -21.5t-30 -48t-46 -61t-56 -48
t-62.5 -21.5q-77 0 -77 99q0 59 37.5 190.5t37.5 143.5q0 15 -10 15q-31 0 -108.5 -116.5t-141 -237.5t-71.5 -151zM333 561q21 0 21 -41q0 -65 -50.5 -135t-134.5 -70q-59 0 -88.5 40t-29.5 107t28 144t75 144.5t118 112.5t148 45q95 0 141.5 -71t46.5 -191
q0 -117 -42 -257t-109.5 -260t-162 -201t-189.5 -81q-64 0 -94.5 36.5t-30.5 88.5q0 41 17.5 72.5t43.5 31.5q7 0 10.5 -3t3.5 -5v-3q-23 0 -39.5 -27.5t-16.5 -63.5q0 -40 23.5 -67.5t70.5 -27.5q102 0 215 143t185 335.5t72 337.5q0 89 -32.5 140.5t-100.5 51.5
q-78 0 -148 -44t-115 -110t-71.5 -139.5t-26.5 -135.5q0 -56 22 -89t65 -33q53 0 93.5 38t57 80t16.5 72q0 19 -8 19q1 16 16 16z" />
    <glyph glyph-name="I_r" unicode="Ir" horiz-adv-x="1109" 
d="M859 715q0 -45 -25 -140q15 -16 48.5 -33t53 -37t19.5 -55q0 -39 -45.5 -174t-45.5 -181q0 -62 38 -62q25 0 58 30t67 78t50.5 74t31.5 52q4 9 19 5q4 -3 4 -5q-6 -11 -15.5 -29t-38.5 -64t-57 -81t-64.5 -64t-65.5 -29q-39 0 -61.5 29.5t-22.5 74.5q0 56 27 136t54 146
t27 90q0 14 -13 23.5t-37 23t-39 27.5q-41 -141 -108.5 -285.5t-115.5 -184.5q-4 -3 -9 0t-6 8t2 8q40 30 109.5 182.5t110.5 291.5q-26 36 -26 96q0 37 14 61.5t39 24.5q23 0 23 -37zM333 561q21 0 21 -41q0 -65 -50.5 -135t-134.5 -70q-59 0 -88.5 40t-29.5 107t28 144
t75 144.5t118 112.5t148 45q95 0 141.5 -71t46.5 -191q0 -117 -42 -257t-109.5 -260t-162 -201t-189.5 -81q-64 0 -94.5 36.5t-30.5 88.5q0 41 17.5 72.5t43.5 31.5q7 0 10.5 -3t3.5 -5v-3q-23 0 -39.5 -27.5t-16.5 -63.5q0 -40 23.5 -67.5t70.5 -27.5q102 0 215 143
t185 335.5t72 337.5q0 89 -32.5 140.5t-100.5 51.5q-78 0 -148 -44t-115 -110t-71.5 -139.5t-26.5 -135.5q0 -56 22 -89t65 -33q53 0 93.5 38t57 80t16.5 72q0 19 -8 19q1 16 16 16z" />
    <glyph glyph-name="I_s" unicode="Is" horiz-adv-x="1114" 
d="M1113 410q2 -3 -3 -3l-18 3q-27 12 -75 12q-46 0 -92 -33q23 -88 23 -155q0 -126 -48 -213t-113 -87q-72 0 -72 94q0 79 49.5 183.5t120.5 169.5l-12 108q-2 21 -10 21q-7 0 -22 -27q-207 -391 -282 -414q-5 -1 -7 4t-1 11t4 7q44 14 138 172t175 328q0 166 60 166
q27 0 27 -29q0 -16 -65 -149v-1q0 -59 30 -169q49 33 97 33q30 0 54 -8t33 -16zM889 306q0 17 -2 51q-62 -63 -105 -162.5t-43 -166.5q0 -60 36 -60q48 0 81 101t33 237zM333 561q21 0 21 -41q0 -65 -50.5 -135t-134.5 -70q-59 0 -88.5 40t-29.5 107t28 144t75 144.5
t118 112.5t148 45q95 0 141.5 -71t46.5 -191q0 -117 -42 -257t-109.5 -260t-162 -201t-189.5 -81q-64 0 -94.5 36.5t-30.5 88.5q0 41 17.5 72.5t43.5 31.5q7 0 10.5 -3t3.5 -5v-3q-23 0 -39.5 -27.5t-16.5 -63.5q0 -40 23.5 -67.5t70.5 -27.5q102 0 215 143t185 335.5
t72 337.5q0 89 -32.5 140.5t-100.5 51.5q-78 0 -148 -44t-115 -110t-71.5 -139.5t-26.5 -135.5q0 -56 22 -89t65 -33q53 0 93.5 38t57 80t16.5 72q0 19 -8 19q1 16 16 16z" />
    <glyph glyph-name="I_v" unicode="Iv" horiz-adv-x="1230" 
d="M867 406q0 -52 -31.5 -171.5t-31.5 -157.5q0 -55 35 -55q44 0 89.5 62t77.5 145t52 172q-33 71 -33 135q0 67 39 67q38 0 38 -81q0 -45 -15 -118q42 -85 92 -85q68 0 132 118q4 8 18 4q5 -2 5 -4q-3 -6 -7.5 -15.5t-21 -34.5t-33.5 -44t-43.5 -34.5t-52.5 -15.5
q-54 0 -99 72q-37 -145 -105.5 -261t-138.5 -116q-85 0 -85 108q0 54 37.5 179t37.5 152q0 36 -22 36q-38 0 -88.5 -77t-87.5 -190.5t-37 -205.5q0 -146 107 -146q31 0 55 11.5t32 22.5l9 12q3 8 15 6q4 -3 3 -6t-4 -7.5t-13 -16t-22 -20.5t-32 -16t-43 -7q-66 0 -96.5 46.5
t-30.5 125.5q0 96 38.5 212.5t95.5 198t105 81.5q60 0 60 -81zM333 561q21 0 21 -41q0 -65 -50.5 -135t-134.5 -70q-59 0 -88.5 40t-29.5 107t28 144t75 144.5t118 112.5t148 45q95 0 141.5 -71t46.5 -191q0 -117 -42 -257t-109.5 -260t-162 -201t-189.5 -81
q-64 0 -94.5 36.5t-30.5 88.5q0 41 17.5 72.5t43.5 31.5q7 0 10.5 -3t3.5 -5v-3q-23 0 -39.5 -27.5t-16.5 -63.5q0 -40 23.5 -67.5t70.5 -27.5q102 0 215 143t185 335.5t72 337.5q0 89 -32.5 140.5t-100.5 51.5q-78 0 -148 -44t-115 -110t-71.5 -139.5t-26.5 -135.5
q0 -56 22 -89t65 -33q53 0 93.5 38t57 80t16.5 72q0 19 -8 19q1 16 16 16z" />
    <glyph glyph-name="I_w" unicode="Iw" horiz-adv-x="1459" 
d="M1550 450q4 8 19 4q4 -2 4 -4q-2 -5 -6 -12.5t-17 -26.5t-27 -34t-36 -27t-44 -12q-63 0 -113 70q-20 -100 -55.5 -194t-84 -161.5t-93.5 -67.5q-86 0 -86 146q0 33 3 66q0 5 1 13t1.5 12.5t1 9.5t0 7.5t-1.5 2.5q-5 0 -31 -42q-96 -153 -164 -153q-69 0 -69 78
q0 50 37.5 174.5t37.5 156.5q0 36 -22 36q-35 0 -87 -84.5t-91.5 -205t-39.5 -211.5q0 -147 108 -147q31 0 55 11.5t32 22.5l9 12q3 8 15 6q4 -3 3 -6t-4 -7.5t-13 -16t-22 -20.5t-32 -16t-43 -7q-66 0 -97 46t-31 125q0 99 41.5 223.5t100 211.5t102.5 87q60 0 60 -81
q0 -53 -30 -167t-30 -149q0 -38 26 -38q31 0 81 66.5t83 128t52 103.5q10 24 19 33t25 9q23 0 23 -27q0 -4 -28.5 -123t-28.5 -179q0 -73 40 -73t83 69.5t74.5 164.5t48.5 192q-36 74 -36 142t37 68q39 0 39 -97q0 -52 -12 -116q45 -81 106 -81q58 0 107 89zM333 561
q21 0 21 -41q0 -65 -50.5 -135t-134.5 -70q-59 0 -88.5 40t-29.5 107t28 144t75 144.5t118 112.5t148 45q95 0 141.5 -71t46.5 -191q0 -117 -42 -257t-109.5 -260t-162 -201t-189.5 -81q-64 0 -94.5 36.5t-30.5 88.5q0 41 17.5 72.5t43.5 31.5q7 0 10.5 -3t3.5 -5v-3
q-23 0 -39.5 -27.5t-16.5 -63.5q0 -40 23.5 -67.5t70.5 -27.5q102 0 215 143t185 335.5t72 337.5q0 89 -32.5 140.5t-100.5 51.5q-78 0 -148 -44t-115 -110t-71.5 -139.5t-26.5 -135.5q0 -56 22 -89t65 -33q53 0 93.5 38t57 80t16.5 72q0 19 -8 19q1 16 16 16z" />
    <glyph glyph-name="I_x" unicode="Ix" horiz-adv-x="1167" 
d="M1167 267q4 8 19 4q4 -2 4 -4q-4 -8 -11.5 -21.5t-30.5 -48t-46 -61t-55.5 -48t-61.5 -21.5q-103 0 -138 178q-24 -30 -52 -69.5t-46.5 -65t-37.5 -49.5t-33 -35.5t-25 -11.5q-16 0 -16 12q0 3 3 8q16 24 202 243q-4 21 -8 51.5t-6.5 48.5t-6.5 37t-9 27.5t-12 8.5
q-37 0 -122 -150.5t-158 -327.5q-1 -3 -7 -3t-10.5 2t-3.5 4q50 122 105 231t116.5 193t101.5 84q32 0 49.5 -36t28.5 -101q20 25 47 61t42.5 56.5t33.5 41.5t30.5 30.5t22.5 9.5q13 0 16 -9.5t-3 -16.5q-3 -4 -31 -34.5t-73.5 -80.5t-79.5 -89q20 -126 33 -161
q22 -53 58 -54q29 0 66.5 33.5t61 66t43.5 67.5zM333 561q21 0 21 -41q0 -65 -50.5 -135t-134.5 -70q-59 0 -88.5 40t-29.5 107t28 144t75 144.5t118 112.5t148 45q95 0 141.5 -71t46.5 -191q0 -117 -42 -257t-109.5 -260t-162 -201t-189.5 -81q-64 0 -94.5 36.5t-30.5 88.5
q0 41 17.5 72.5t43.5 31.5q7 0 10.5 -3t3.5 -5v-3q-23 0 -39.5 -27.5t-16.5 -63.5q0 -40 23.5 -67.5t70.5 -27.5q102 0 215 143t185 335.5t72 337.5q0 89 -32.5 140.5t-100.5 51.5q-78 0 -148 -44t-115 -110t-71.5 -139.5t-26.5 -135.5q0 -56 22 -89t65 -33q53 0 93.5 38
t57 80t16.5 72q0 19 -8 19q1 16 16 16z" />
    <glyph glyph-name="O_m" unicode="Om" horiz-adv-x="1645" 
d="M879 10q-5 -11 -12 -11q-14 0 -25.5 6.5t-11.5 16.5q0 30 49 196t49 209q0 36 -22 36q-38 0 -88.5 -77t-87.5 -190.5t-37 -205.5q0 -146 107 -146q31 0 55 11.5t33 22.5l8 12q3 8 15 6q4 -3 3 -6t-4 -7.5t-13 -16t-22 -20.5t-32 -16t-43 -7q-66 0 -96.5 46.5t-30.5 125.5
q0 96 38.5 212.5t95.5 198t105 81.5q60 0 60 -81q0 -44 -24 -141q-4 -18 -5 -29.5t3 -16.5q6 0 35 51q157 298 239 298q50 0 50 -62q0 -28 -20 -126l-3.5 -17.5t-3 -18.5t-1 -17t3.5 -6q6 0 21 21q104 162 168 162q46 0 46 -55q0 -32 -36.5 -175t-36.5 -198q0 -43 20 -43
q29 0 83.5 58.5t94.5 116.5l39 59q5 8 19 5q4 -3 4 -5q-6 -11 -17.5 -29t-44 -64t-61.5 -81t-65 -64t-61 -29q-68 0 -68 92q0 56 36 190.5t36 164.5q0 24 -12 24q-30 0 -106.5 -110.5t-124.5 -219.5q-13 -29 -30 -29q-10 0 -17 5.5t-7 14.5q0 26 45.5 182t45.5 191
q0 30 -19 30q-72 0 -319 -525zM-25 137q0 149 60.5 301t157.5 230q32 113 96.5 184t156.5 71q107 0 165.5 -93t58.5 -244q0 -121 -36 -253.5t-96.5 -245t-151 -185.5t-189.5 -73q-112 0 -167 86t-55 222zM456 217q7 8 15 3q4 -3 1 -8q-3 -7 -14.5 -19t-41.5 -27t-65 -15
q-87 0 -135 92.5t-48 243.5q0 61 -6 61q-10 0 -31 -41q-42 -86 -65.5 -192t-23.5 -202q0 -117 38 -189t116 -72t148.5 47.5t121.5 125t89 174.5t57 199t19 196q0 139 -41 222.5t-129 83.5q-64 0 -114.5 -52t-83.5 -139q40 17 82 17q16 0 30 -4t20 -8l6 -4q7 -5 -4 -10
q-6 -2 -11 0q-15 7 -41 7q-50 0 -96 -37q-32 -108 -32 -223q0 -118 36 -195.5t104 -77.5q26 0 51 11t36 21z" />
    <glyph glyph-name="O_n" unicode="On" horiz-adv-x="1424" 
d="M908 10q-3 -11 -12 -11q-14 0 -25.5 6.5t-11.5 16.5q0 30 49 196t49 209q0 36 -22 36q-38 0 -88.5 -77t-87.5 -190.5t-37 -205.5q0 -146 107 -146q31 0 55 11.5t32 22.5l9 12q3 8 15 6q4 -3 3 -6t-4 -7.5t-13 -16t-22 -20.5t-32 -16t-43 -7q-66 0 -96.5 46.5t-30.5 125.5
q0 96 38.5 212.5t95.5 198t105 81.5q60 0 60 -81q0 -46 -32 -174q-7 -28 1 -28q7 0 27 35q171 309 244 309q48 0 48 -56q0 -36 -36 -167.5t-36 -169.5q0 -55 36 -55q71 0 171 167q5 8 19 5q4 -3 4 -5q-4 -8 -11.5 -21.5t-30 -48t-46 -61t-56 -48t-62.5 -21.5q-77 0 -77 99
q0 59 37.5 190.5t37.5 143.5q0 15 -10 15q-31 0 -108.5 -116.5t-141 -237.5t-71.5 -151zM-25 137q0 149 60.5 301t157.5 230q32 113 96.5 184t156.5 71q107 0 165.5 -93t58.5 -244q0 -121 -36 -253.5t-96.5 -245t-151 -185.5t-189.5 -73q-112 0 -167 86t-55 222zM456 217
q7 8 15 3q4 -3 1 -8q-3 -7 -14.5 -19t-41.5 -27t-65 -15q-87 0 -135 92.5t-48 243.5q0 61 -6 61q-10 0 -31 -41q-42 -86 -65.5 -192t-23.5 -202q0 -117 38 -189t116 -72t148.5 47.5t121.5 125t89 174.5t57 199t19 196q0 139 -41 222.5t-129 83.5q-64 0 -114.5 -52
t-83.5 -139q40 17 82 17q16 0 30 -4t20 -8l6 -4q7 -5 -4 -10q-6 -2 -11 0q-15 7 -41 7q-50 0 -96 -37q-32 -108 -32 -223q0 -118 36 -195.5t104 -77.5q26 0 51 11t36 21z" />
    <glyph glyph-name="O_r" unicode="Or" horiz-adv-x="1188" 
d="M938 715q0 -45 -25 -140q15 -16 48.5 -33t53 -37t19.5 -55q0 -39 -45.5 -174t-45.5 -181q0 -62 38 -62q11 0 25 7t28 19.5t28 27.5t29 34.5t26.5 36t24.5 36.5t20.5 31.5t16 26t9.5 15.5q5 8 19 5q4 -3 4 -5q-6 -11 -15.5 -29t-38.5 -64t-57 -81t-64.5 -64t-65.5 -29
q-39 0 -61.5 29.5t-22.5 74.5q0 56 27 136t54 146t27 90q0 14 -13 23.5t-37 23t-39 27.5q-41 -141 -108.5 -285.5t-115.5 -184.5q-4 -3 -9 0t-6 8t2 8q40 30 109.5 182.5t110.5 291.5q-26 36 -26 96q0 37 14 61.5t39 24.5q23 0 23 -37zM-25 137q0 149 60.5 301t157.5 230
q32 113 96.5 184t156.5 71q107 0 165.5 -93t58.5 -244q0 -121 -36 -253.5t-96.5 -245t-151 -185.5t-189.5 -73q-112 0 -167 86t-55 222zM456 217q7 8 15 3q4 -3 1 -8q-3 -7 -14.5 -19t-41.5 -27t-65 -15q-87 0 -135 92.5t-48 243.5q0 61 -6 61q-10 0 -31 -41
q-42 -86 -65.5 -192t-23.5 -202q0 -117 38 -189t116 -72t148.5 47.5t121.5 125t89 174.5t57 199t19 196q0 139 -41 222.5t-129 83.5q-64 0 -114.5 -52t-83.5 -139q40 17 82 17q16 0 30 -4t20 -8l6 -4q7 -5 -4 -10q-6 -2 -11 0q-15 7 -41 7q-50 0 -96 -37q-32 -108 -32 -223
q0 -118 36 -195.5t104 -77.5q26 0 51 11t36 21z" />
    <glyph glyph-name="O_s" unicode="Os" horiz-adv-x="1192" 
d="M1191 410q2 -3 -3 -3l-18 3q-27 12 -75 12q-46 0 -92 -33q23 -88 23 -155q0 -126 -48 -213t-113 -87q-72 0 -72 94q0 79 49.5 183.5t120.5 169.5l-12 108q-3 21 -10 21t-22 -27q-84 -160 -162 -280.5t-120 -133.5q-5 -1 -7 4t-1 11t4 7q44 14 138 172t175 328
q0 166 60 166q27 0 27 -29q0 -16 -65 -149v-1q0 -59 30 -169q49 33 97 33q30 0 54 -8t33 -16zM967 306q0 17 -2 51q-62 -63 -105 -162.5t-43 -166.5q0 -60 36 -60q48 0 81 101t33 237zM-25 137q0 149 60.5 301t157.5 230q32 113 96.5 184t156.5 71q107 0 165.5 -93
t58.5 -244q0 -121 -36 -253.5t-96.5 -245t-151 -185.5t-189.5 -73q-112 0 -167 86t-55 222zM456 217q7 8 15 3q4 -3 1 -8q-3 -7 -14.5 -19t-41.5 -27t-65 -15q-87 0 -135 92.5t-48 243.5q0 61 -6 61q-10 0 -31 -41q-42 -86 -65.5 -192t-23.5 -202q0 -117 38 -189t116 -72
t148.5 47.5t121.5 125t89 174.5t57 199t19 196q0 139 -41 222.5t-129 83.5q-64 0 -114.5 -52t-83.5 -139q40 17 82 17q16 0 30 -4t20 -8l6 -4q7 -5 -4 -10q-6 -2 -11 0q-15 7 -41 7q-50 0 -96 -37q-32 -108 -32 -223q0 -118 36 -195.5t104 -77.5q26 0 51 11t36 21z" />
    <glyph glyph-name="O_v" unicode="Ov" horiz-adv-x="1333" 
d="M970 406q0 -52 -31.5 -171.5t-31.5 -157.5q0 -55 35 -55q44 0 89.5 62t77.5 145t52 172q-33 71 -33 135q0 67 39 67q38 0 38 -81q0 -45 -15 -118q42 -85 92 -85q39 0 74.5 36.5t57.5 81.5q3 8 18 4q5 -2 5 -4q-3 -6 -7.5 -15.5t-21 -34.5t-33.5 -44t-43.5 -34.5
t-52.5 -15.5q-54 0 -99 72q-37 -145 -105.5 -261t-138.5 -116q-85 0 -85 108q0 54 37.5 179t37.5 152q0 36 -22 36q-38 0 -88.5 -77t-87.5 -190.5t-37 -205.5q0 -146 107 -146q31 0 55 11.5t33 22.5l8 12q3 8 15 6q4 -3 3 -6t-4 -7.5t-13 -16t-22 -20.5t-32 -16t-43 -7
q-66 0 -96.5 46.5t-30.5 125.5q0 96 38.5 212.5t95.5 198t105 81.5q60 0 60 -81zM-25 137q0 149 60.5 301t157.5 230q32 113 96.5 184t156.5 71q107 0 165.5 -93t58.5 -244q0 -121 -36 -253.5t-96.5 -245t-151 -185.5t-189.5 -73q-112 0 -167 86t-55 222zM456 217q7 8 15 3
q4 -3 1 -8q-3 -7 -14.5 -19t-41.5 -27t-65 -15q-87 0 -135 92.5t-48 243.5q0 61 -6 61q-10 0 -31 -41q-42 -86 -65.5 -192t-23.5 -202q0 -117 38 -189t116 -72t148.5 47.5t121.5 125t89 174.5t57 199t19 196q0 139 -41 222.5t-129 83.5q-64 0 -114.5 -52t-83.5 -139
q40 17 82 17q16 0 30 -4t20 -8l6 -4q7 -5 -4 -10q-6 -2 -11 0q-15 7 -41 7q-50 0 -96 -37q-32 -108 -32 -223q0 -118 36 -195.5t104 -77.5q26 0 51 11t36 21z" />
    <glyph glyph-name="O_w" unicode="Ow" horiz-adv-x="1563" 
d="M1654 450q4 8 19 4q4 -2 4 -4q-2 -5 -6 -12.5t-17 -26.5t-27 -34t-36 -27t-44 -12q-63 0 -113 70q-20 -100 -55.5 -194t-84 -161.5t-93.5 -67.5q-86 0 -86 146q0 37 4 66q0 3 1 8t1.5 8.5t1 8t0.5 8v6.5t-1 4.5t-2 1.5q-5 0 -31 -42q-96 -153 -164 -153q-69 0 -69 78
q0 50 37.5 174.5t37.5 156.5q0 36 -22 36q-35 0 -87 -84.5t-91.5 -205t-39.5 -211.5q0 -147 108 -147q31 0 55 11.5t32 22.5l9 12q3 8 15 6q4 -3 3 -6t-4 -7.5t-13 -16t-22 -20.5t-32 -16t-43 -7q-66 0 -97 46t-31 125q0 99 41.5 223.5t100 211.5t102.5 87q60 0 60 -81
q0 -53 -30 -167t-30 -149q0 -38 26 -38q31 0 80.5 65t84 128.5t51.5 104.5q10 24 19 33t25 9q23 0 23 -27q0 -4 -28.5 -123t-28.5 -179q0 -73 40 -73t83 69.5t74.5 164.5t48.5 192q-36 74 -36 142t37 68q39 0 39 -97q0 -52 -12 -116q45 -81 106 -81q58 0 107 89zM-25 137
q0 149 60.5 301t157.5 230q32 113 96.5 184t156.5 71q107 0 165.5 -93t58.5 -244q0 -121 -36 -253.5t-96.5 -245t-151 -185.5t-189.5 -73q-112 0 -167 86t-55 222zM456 217q7 8 15 3q4 -3 1 -8q-3 -7 -14.5 -19t-41.5 -27t-65 -15q-87 0 -135 92.5t-48 243.5q0 61 -6 61
q-10 0 -31 -41q-42 -86 -65.5 -192t-23.5 -202q0 -117 38 -189t116 -72t148.5 47.5t121.5 125t89 174.5t57 199t19 196q0 139 -41 222.5t-129 83.5q-64 0 -114.5 -52t-83.5 -139q40 17 82 17q16 0 30 -4t20 -8l6 -4q7 -5 -4 -10q-6 -2 -11 0q-15 7 -41 7q-50 0 -96 -37
q-32 -108 -32 -223q0 -118 36 -195.5t104 -77.5q26 0 51 11t36 21z" />
    <glyph glyph-name="O_y" unicode="Oy" horiz-adv-x="1252" 
d="M872 439q12 0 19 -7.5t7 -19.5q0 -7 -52 -127t-52 -161q0 -23 16 -23q27 0 67.5 42t79.5 102.5t74 121t57 102.5l21 42q13 30 22.5 41t23.5 11q16 0 19 -13.5t-2 -19.5q-30 -71 -89.5 -244t-86.5 -245q34 -1 60 -9t35 -16l9 -7q1 -2 -4 -2l-17 2q-41 9 -91 9
q-34 -86 -66 -151t-71 -122.5t-82.5 -87.5t-90.5 -30q-72 0 -72 69q0 90 101 203.5t229 136.5q44 112 63 168q11 34 15.5 52.5t-0.5 18.5q-8 0 -40 -49q-105 -159 -170 -159q-49 0 -49 68q0 96 75 268q8 17 15.5 25t12 9.5t14.5 1.5zM667 -340q114 0 259 351
q-61 -13 -117.5 -52t-93.5 -86t-58.5 -94t-21.5 -79q0 -40 32 -40zM-25 137q0 149 60.5 301t157.5 230q32 113 96.5 184t156.5 71q107 0 165.5 -93t58.5 -244q0 -121 -36 -253.5t-96.5 -245t-151 -185.5t-189.5 -73q-112 0 -167 86t-55 222zM456 217q7 8 15 3q4 -3 1 -8
q-3 -7 -14.5 -19t-41.5 -27t-65 -15q-87 0 -135 92.5t-48 243.5q0 61 -6 61q-10 0 -31 -41q-42 -86 -65.5 -192t-23.5 -202q0 -117 38 -189t116 -72t148.5 47.5t121.5 125t89 174.5t57 199t19 196q0 139 -41 222.5t-129 83.5q-64 0 -114.5 -52t-83.5 -139q40 17 82 17
q16 0 30 -4t20 -8l6 -4q7 -5 -4 -10q-6 -2 -11 0q-15 7 -41 7q-50 0 -96 -37q-32 -108 -32 -223q0 -118 36 -195.5t104 -77.5q26 0 51 11t36 21z" />
    <glyph glyph-name="O_v_e" unicode="Ove" horiz-adv-x="1649" 
d="M942 22q43 0 88.5 60.5t77.5 143t52 170.5q-31 71 -31 136q0 71 38 71t38 -81q0 -49 -18 -131q50 -105 126 -106q25 101 82 180t114 79q46 0 46 -44q0 -52 -57 -127t-127 -101q-14 -54 -14 -100q0 -101 74 -101q33 0 69.5 23t67 59.5t48.5 62.5t33 51q5 8 19 5q4 -3 4 -5
q-5 -9 -13.5 -24.5t-35.5 -55t-55 -69.5t-69 -55t-79 -25q-61 0 -90.5 40t-29.5 107q0 35 8 77q-75 6 -129 96q-24 -91 -60.5 -172.5t-86 -139.5t-96.5 -58q-85 0 -85 108q0 54 37.5 179t37.5 152q0 36 -22 36q-38 0 -88.5 -77t-87.5 -190.5t-37 -205.5q0 -146 107 -146
q31 0 55 11.5t33 22.5l8 12q3 8 15 6q4 -3 3 -6t-4 -7.5t-13 -16t-22 -20.5t-32 -16t-43 -7q-66 0 -96.5 46.5t-30.5 125.5q0 96 38.5 212.5t95.5 198t105 81.5q60 0 60 -81q0 -52 -31.5 -171.5t-31.5 -157.5q0 -55 35 -55zM1500 511q-23 0 -60.5 -65.5t-61.5 -146.5
q58 27 98.5 89t40.5 101q0 22 -17 22zM-25 137q0 149 60.5 301t157.5 230q32 113 96.5 184t156.5 71q107 0 165.5 -93t58.5 -244q0 -121 -36 -253.5t-96.5 -245t-151 -185.5t-189.5 -73q-112 0 -167 86t-55 222zM456 217q7 8 15 3q4 -3 1 -8q-3 -7 -14.5 -19t-41.5 -27
t-65 -15q-87 0 -135 92.5t-48 243.5q0 61 -6 61q-10 0 -31 -41q-42 -86 -65.5 -192t-23.5 -202q0 -117 38 -189t116 -72t148.5 47.5t121.5 125t89 174.5t57 199t19 196q0 139 -41 222.5t-129 83.5q-64 0 -114.5 -52t-83.5 -139q40 17 82 17q16 0 30 -4t20 -8l6 -4
q7 -5 -4 -10q-6 -2 -11 0q-15 7 -41 7q-50 0 -96 -37q-32 -108 -32 -223q0 -118 36 -195.5t104 -77.5q26 0 51 11t36 21z" />
    <glyph glyph-name="O_w_e" unicode="Owe" horiz-adv-x="1875" 
d="M1118 197q0 2 1 9t1.5 12.5t0.5 11t-0.5 9t-1.5 3.5q-3 0 -7.5 -7t-12 -19.5t-10.5 -16.5q-97 -152 -164 -152q-69 0 -69 78q0 50 37.5 174.5t37.5 156.5q0 36 -22 36q-35 0 -87 -84.5t-91.5 -205t-39.5 -211.5q0 -147 108 -147q31 0 55 11.5t32 22.5l9 12q3 8 15 6
q4 -3 3 -6t-4 -7.5t-13 -16t-22 -20.5t-32 -16t-43 -7q-66 0 -97 46t-31 125q0 99 41.5 223.5t100 211.5t102.5 87q60 0 60 -81q0 -53 -30 -167t-30 -149q0 -38 26 -38q25 0 59.5 37.5t69 97.5t53 95t34.5 68q12 24 20.5 33t23.5 9q23 0 23 -27q0 -4 -28.5 -123t-28.5 -179
q0 -73 40 -73q49 0 98 95t75 212q-42 67 -42 136q0 62 37 62q44 0 44 -88q0 -48 -14 -112q42 -56 103 -56q19 0 28 2q23 105 81.5 189.5t117.5 84.5q46 0 46 -44q0 -50 -55.5 -125.5t-130.5 -109.5q-12 -49 -12 -93q0 -101 74 -101q32 0 67 21.5t65 56t50 62.5t36 56
q5 8 19 5q4 -3 4 -5q-5 -9 -13.5 -24.5t-35.5 -55t-55 -69.5t-69 -55t-79 -25q-61 0 -90.5 40t-29.5 107q0 26 5 61q-8 -1 -23 -1q-62 0 -108 54q-19 -77 -49 -147t-70.5 -118.5t-79.5 -48.5q-86 0 -86 146q0 33 3 66zM1726 511q-24 0 -61.5 -67.5t-61.5 -150.5
q60 33 100 95.5t40 100.5q0 22 -17 22zM-25 137q0 149 60.5 301t157.5 230q32 113 96.5 184t156.5 71q107 0 165.5 -93t58.5 -244q0 -121 -36 -253.5t-96.5 -245t-151 -185.5t-189.5 -73q-112 0 -167 86t-55 222zM456 217q7 8 15 3q4 -3 1 -8q-3 -7 -14.5 -19t-41.5 -27
t-65 -15q-87 0 -135 92.5t-48 243.5q0 61 -6 61q-10 0 -31 -41q-42 -86 -65.5 -192t-23.5 -202q0 -117 38 -189t116 -72t148.5 47.5t121.5 125t89 174.5t57 199t19 196q0 139 -41 222.5t-129 83.5q-64 0 -114.5 -52t-83.5 -139q40 17 82 17q16 0 30 -4t20 -8l6 -4
q7 -5 -4 -10q-6 -2 -11 0q-15 7 -41 7q-50 0 -96 -37q-32 -108 -32 -223q0 -118 36 -195.5t104 -77.5q26 0 51 11t36 21z" />
    <glyph glyph-name="O_w_n" unicode="Own" horiz-adv-x="2121" 
d="M1207 19q41 0 85.5 73t76 172.5t47.5 196.5q-38 66 -38 132q0 62 36 62q39 0 39 -97q0 -44 -9 -100q31 -46 71 -46q36 0 92.5 27.5t76.5 27.5q37 0 37 -52q0 -33 -27 -127q-6 -20 -7 -29t3 -11q7 0 36 47q149 253 212 253q48 0 48 -56q0 -36 -36 -167.5t-36 -169.5
q0 -55 36 -55q67 0 171 167q5 8 19 5q4 -3 4 -5q-4 -8 -11.5 -21.5t-30 -48t-46 -61t-56 -48t-62.5 -21.5q-77 0 -77 99q0 59 37.5 190.5t37.5 143.5q0 15 -10 15q-31 0 -109.5 -119t-142 -237.5t-74.5 -148.5q-4 -11 -13 -11q-14 0 -24.5 6.5t-10.5 16.5q0 24 60 186.5
t60 206.5q0 25 -14 25q-5 0 -54.5 -25t-88.5 -25q-40 0 -76 39q-19 -102 -55 -201.5t-86 -171t-97 -71.5q-86 0 -86 146q0 33 3 66q0 2 1 9t1.5 12.5t0.5 11t-0.5 9t-1.5 3.5q-3 0 -7.5 -7t-12 -19.5t-10.5 -16.5q-97 -152 -164 -152q-69 0 -69 78q0 50 37.5 174.5
t37.5 156.5q0 36 -22 36q-35 0 -87 -84.5t-91.5 -205t-39.5 -211.5q0 -147 108 -147q31 0 55 11.5t32 22.5l9 12q3 8 15 6q4 -3 3 -6t-4 -7.5t-13 -16t-22 -20.5t-32 -16t-43 -7q-66 0 -97 46t-31 125q0 99 41.5 223.5t100 211.5t102.5 87q60 0 60 -81q0 -53 -30 -167
t-30 -149q0 -38 26 -38q25 0 59.5 37.5t69 97.5t53 95t34.5 68q12 24 20.5 33t23.5 9q23 0 23 -27q0 -4 -28.5 -123t-28.5 -179q0 -73 40 -73zM-25 137q0 149 60.5 301t157.5 230q32 113 96.5 184t156.5 71q107 0 165.5 -93t58.5 -244q0 -121 -36 -253.5t-96.5 -245
t-151 -185.5t-189.5 -73q-112 0 -167 86t-55 222zM456 217q7 8 15 3q4 -3 1 -8q-3 -7 -14.5 -19t-41.5 -27t-65 -15q-87 0 -135 92.5t-48 243.5q0 61 -6 61q-10 0 -31 -41q-42 -86 -65.5 -192t-23.5 -202q0 -117 38 -189t116 -72t148.5 47.5t121.5 125t89 174.5t57 199
t19 196q0 139 -41 222.5t-129 83.5q-64 0 -114.5 -52t-83.5 -139q40 17 82 17q16 0 30 -4t20 -8l6 -4q7 -5 -4 -10q-6 -2 -11 0q-15 7 -41 7q-50 0 -96 -37q-32 -108 -32 -223q0 -118 36 -195.5t104 -77.5q26 0 51 11t36 21z" />
    <glyph glyph-name="P_r" unicode="Pr" horiz-adv-x="1455" 
d="M1205 715q0 -45 -25 -140q15 -16 48.5 -33t53 -37t19.5 -55q0 -39 -45.5 -174t-45.5 -181q0 -62 38 -62q10 0 22.5 6t24.5 15t25.5 23.5t25 28.5t25.5 32.5t23.5 32.5t21 32t17.5 27.5t14 22.5t8 14q5 8 19 5q4 -3 4 -5q-6 -11 -15.5 -29t-38.5 -64t-57 -81t-64.5 -64
t-65.5 -29q-39 0 -61.5 29.5t-22.5 74.5q0 56 27 136t54 146t27 90q0 14 -13 23.5t-37 23t-39 27.5q-41 -141 -108.5 -285.5t-115.5 -184.5q-4 -3 -9 0t-6 8t2 8q40 30 109.5 182.5t110.5 291.5q-26 36 -26 96q0 37 14 61.5t39 24.5q23 0 23 -37zM420 -17q-2 -9 -15 -9
q-10 0 -21 1.5t-21 6.5t-9 13q7 38 29.5 149.5t33 169.5t21 145t10.5 154q0 306 -220 306q-57 0 -108 -25.5t-86.5 -67t-61.5 -94.5t-38.5 -109t-12.5 -108q0 -81 30.5 -132.5t87.5 -51.5q31 0 57 11.5t41.5 27.5t26.5 32.5t15 27.5l4 12q1 9 11 6q5 -1 4 -6
q-4 -13 -12.5 -29.5t-26.5 -42t-49.5 -42t-70.5 -16.5q-67 0 -102.5 59.5t-35.5 151.5q0 71 21.5 143t61 134.5t103.5 102t141 39.5q65 0 114.5 -22t79 -57.5t47.5 -87t24.5 -103t6.5 -113.5q0 -41 -6 -127q-4 -46 6 -46q11 0 33 53q32 79 67.5 147t78 127t90.5 93t95 34
q69 0 104 -50.5t35 -131.5q0 -69 -24.5 -146t-66 -142t-104 -108t-130.5 -43q-44 0 -64 19.5t-20 45.5q0 15 6.5 25.5t14.5 10.5q3 0 5 -2.5t2 -5.5v-2q-4 0 -7.5 -6.5t-3.5 -15.5q0 -14 13 -25t42 -11q65 0 133 75.5t110 179t42 186.5q0 122 -87 122q-67 0 -139 -81.5
t-130.5 -208t-104.5 -269t-70 -273.5z" />
    <glyph glyph-name="S_t" unicode="St" horiz-adv-x="960" 
d="M1009 650q4 1 7 -3.5t3 -10t-4 -6.5q-62 -13 -134 -18q-56 -130 -136 -265q-17 -116 -17 -190q0 -124 35 -124t104 93.5t93 140.5q4 9 19 5q4 -3 4 -5q-6 -11 -16 -29t-39 -64t-57 -81t-64 -64t-64 -29q-37 0 -56 47.5t-19 131.5q0 98 23.5 214.5t60.5 216.5q-78 2 -97 6
q-4 0 -4.5 5.5t2 10t6.5 4.5q35 -4 102 -4q33 84 68.5 133.5t66.5 49.5t31 -43q0 -44 -37 -138q70 5 119 16zM890 782q-30 0 -78 -150q33 0 50 1q37 90 37 130q0 19 -9 19zM804 610q-31 -108 -49 -206q58 110 98 207q-16 -1 -49 -1zM481 444q-9 -10 -33 3q-21 14 -9 23
q31 23 61 100t30 151q0 73 -35 117.5t-113 44.5q-95 0 -158 -83.5t-63 -198.5q0 -62 19 -115.5t49 -92t66 -73t72.5 -65.5t66.5 -62t49 -69.5t19 -80.5q0 -79 -65 -132.5t-181 -53.5q-85 0 -146.5 16.5t-93 44t-45.5 56t-14 58.5q0 33 13.5 55.5t32.5 22.5q8 0 12 -5t5 -9
v-5q-7 0 -12.5 -12.5t-5.5 -33.5q0 -26 12 -52.5t39 -53t79.5 -43t123.5 -16.5q87 0 131 43t44 111q0 60 -35 115t-84.5 101.5t-99 96.5t-84.5 120.5t-35 152.5q0 124 75.5 210t194.5 86q105 0 150.5 -57t45.5 -148q0 -77 -25.5 -156t-52.5 -111z" />
    <glyph glyph-name="T_h" unicode="Th" horiz-adv-x="1172" 
d="M1172 267q5 8 19 5q4 -3 4 -5q-4 -8 -11.5 -21.5t-30 -48t-46 -61t-56 -48t-62.5 -21.5q-77 0 -77 99q0 59 37.5 190.5t37.5 143.5q0 15 -10 15q-42 0 -161.5 -198.5t-158.5 -292.5q-8 -19 -15 -25t-18 -6q-19 0 -19 23q0 11 3 27t11 49t16.5 65t26.5 100t34 129
q54 210 107.5 327t114.5 117q44 0 44 -49q0 -38 -35.5 -113t-70.5 -134t-108 -175l-40 -146q-5 -17 -6 -27.5t3 -11.5q7 0 33 52q71 131 140 226.5t111 95.5q48 0 48 -56q0 -36 -36 -167.5t-36 -169.5q0 -55 36 -55q68 0 171 167zM916 797q-12 0 -25 -14.5t-27 -47t-25 -61
t-26.5 -81.5t-23 -81t-23.5 -85q170 278 170 344q0 26 -20 26zM591 797q8 0 11.5 -4t3.5 -8v-4q-21 0 -39 -61t-67 -278q-6 -25 -9 -39.5t-8.5 -39t-10.5 -45.5q-102 -443 -359 -443q-71 0 -105.5 39t-34.5 82q0 31 15 31q4 0 6 -2t2 -4l1 -2q-5 0 -5 -18q0 -35 25.5 -68
t84.5 -33q99 0 171 102.5t124 318.5q48 201 78.5 299.5t56.5 137.5t59 39zM1052 996q2 16 15 16t13 -25q0 -17 -8.5 -33.5t-28.5 -36t-59.5 -35t-95.5 -29t-143.5 -21t-196.5 -7.5q-84 0 -158 -10.5t-144.5 -36t-120.5 -65.5t-80 -103t-30 -144q0 -72 38 -122t94 -50
q25 0 44.5 7t26.5 15l7 7q5 8 15 5q2 -2 2 -5q-10 -24 -36 -37t-59 -13q-69 0 -114 58t-45 141q0 89 31.5 159.5t83.5 115t125.5 74t151.5 41.5t167 12q129 0 226 8t149.5 19.5t84.5 28t41 29t9 25.5q0 12 -5 12z" />
    <glyph glyph-name="T_l" unicode="Tl" horiz-adv-x="972" 
d="M972 267q5 8 19 5q4 -3 4 -5q-6 -11 -16.5 -30t-41 -67.5t-58.5 -85t-63 -67t-61 -30.5q-47 0 -70 59t-23 158q0 131 29.5 272.5t82 241t110.5 99.5q49 0 49 -62q0 -115 -204 -451q-5 -49 -5 -113q0 -171 50 -171q46 0 198 247zM878 784q-42 0 -83.5 -131t-60.5 -298
q171 292 171 390q0 39 -27 39zM591 794q8 0 11.5 -4t3.5 -8v-4q-21 0 -39 -61t-67 -278q-6 -25 -9 -39.5t-8.5 -39t-10.5 -45.5q-102 -443 -359 -443q-71 0 -105.5 39t-34.5 82q0 31 15 31q4 0 6 -2t2 -4l1 -2q-5 0 -5 -18q0 -35 25.5 -68t84.5 -33q99 0 171 102.5
t124 318.5q48 201 78.5 299.5t56.5 137.5t59 39zM1052 993q2 16 15 16t13 -25q0 -17 -8.5 -33.5t-28.5 -36t-59.5 -35t-95.5 -29t-143.5 -21t-196.5 -7.5q-84 0 -158 -10.5t-144.5 -36t-120.5 -65.5t-80 -103t-30 -144q0 -72 38 -122t94 -50q25 0 44.5 7.5t26.5 14.5l7 7
q5 8 15 5q2 -2 2 -5q-10 -24 -36 -37t-59 -13q-69 0 -114 58t-45 141q0 89 31.5 159.5t83.5 115t125.5 74t151.5 41.5t167 12q129 0 226 8t149.5 19.5t84.5 28t41 29t9 25.5q0 12 -5 12z" />
    <glyph glyph-name="T_r" unicode="Tr" horiz-adv-x="1088" 
d="M838 715q0 -45 -25 -140q15 -16 48.5 -33t53 -37t19.5 -55q0 -39 -45.5 -174t-45.5 -181q0 -62 38 -62q67 0 207 234q5 8 19 5q4 -3 4 -5q-6 -11 -15.5 -29t-38.5 -64t-57 -81t-64.5 -64t-65.5 -29q-39 0 -61.5 29.5t-22.5 74.5q0 56 27 136t54 146t27 90q0 14 -13 23.5
t-37 23t-39 27.5q-41 -141 -108.5 -285.5t-115.5 -184.5q-4 -3 -9 0t-6 8t2 8q40 30 109.5 182.5t110.5 291.5q-26 36 -26 96q0 37 14 61.5t39 24.5q23 0 23 -37zM591 794q8 0 11.5 -4t3.5 -8v-4q-21 0 -39 -61t-67 -278q-6 -25 -9 -39.5t-8.5 -39t-10.5 -45.5
q-102 -443 -359 -443q-71 0 -105.5 39t-34.5 82q0 31 15 31q4 0 6 -2t2 -4l1 -2q-5 0 -5 -18q0 -35 25.5 -68t84.5 -33q99 0 171 102.5t124 318.5q48 201 78.5 299.5t56.5 137.5t59 39zM1052 993q2 16 15 16t13 -25q0 -17 -8.5 -33.5t-28.5 -36t-59.5 -35t-95.5 -29
t-143.5 -21t-196.5 -7.5q-84 0 -158 -10.5t-144.5 -36t-120.5 -65.5t-80 -103t-30 -144q0 -72 38 -122t94 -50q25 0 44.5 7.5t26.5 14.5l7 7q5 8 15 5q2 -2 2 -5q-10 -24 -36 -37t-59 -13q-69 0 -114 58t-45 141q0 89 31.5 159.5t83.5 115t125.5 74t151.5 41.5t167 12
q129 0 226 8t149.5 19.5t84.5 28t41 29t9 25.5q0 12 -5 12z" />
    <glyph glyph-name="T_w" unicode="Tw" horiz-adv-x="1461" 
d="M1553 450q4 8 19 4q4 -2 4 -4q-2 -5 -6 -12.5t-17 -26.5t-27 -34t-36 -27t-44 -12q-63 0 -113 70q-20 -100 -55.5 -194t-84 -161.5t-93.5 -67.5q-86 0 -86 146q0 22 4 66q0 2 1.5 18.5t1 18t-1.5 8.5q-5 0 -31 -42q-93 -153 -164 -153q-69 0 -69 78q0 50 37.5 174.5
t37.5 156.5q0 36 -22 36q-35 0 -87 -84.5t-91.5 -205t-39.5 -211.5q0 -147 108 -147q31 0 55 11.5t33 22.5l8 12q3 8 15 6q4 -3 3 -6t-4 -7.5t-13 -16t-22 -20.5t-32 -16t-43 -7q-66 0 -97 46t-31 125q0 99 41.5 223.5t100 211.5t102.5 87q60 0 60 -81q0 -53 -30 -167
t-30 -149q0 -38 26 -38q24 0 57.5 36t66 91t55 96.5t37.5 74.5q11 24 19.5 33t24.5 9q23 0 23 -27q0 -4 -28.5 -123t-28.5 -179q0 -73 40 -73t83 69.5t74.5 164.5t48.5 192q-36 74 -36 142t37 68q39 0 39 -97q0 -52 -12 -116q45 -81 106 -81q58 0 107 89zM591 794
q8 0 11.5 -4t3.5 -8v-4q-21 0 -39 -61t-67 -278q-6 -25 -9 -39.5t-8.5 -39t-10.5 -45.5q-102 -443 -359 -443q-71 0 -105.5 39t-34.5 82q0 31 15 31q4 0 6 -2t2 -4l1 -2q-5 0 -5 -18q0 -35 25.5 -68t84.5 -33q99 0 171 102.5t124 318.5q48 201 78.5 299.5t56.5 137.5t59 39z
M1052 993q2 16 15 16t13 -25q0 -17 -8.5 -33.5t-28.5 -36t-59.5 -35t-95.5 -29t-143.5 -21t-196.5 -7.5q-84 0 -158 -10.5t-144.5 -36t-120.5 -65.5t-80 -103t-30 -144q0 -72 38 -122t94 -50q25 0 44.5 7.5t26.5 14.5l7 7q5 8 15 5q2 -2 2 -5q-10 -24 -36 -37t-59 -13
q-69 0 -114 58t-45 141q0 89 31.5 159.5t83.5 115t125.5 74t151.5 41.5t167 12q129 0 226 8t149.5 19.5t84.5 28t41 29t9 25.5q0 12 -5 12z" />
    <glyph glyph-name="T_w_e" unicode="Twe" horiz-adv-x="1774" 
d="M1017 197q0 2 1 9t1.5 12.5t0.5 11t-0.5 9t-1.5 3.5q-3 0 -7.5 -7t-12 -19.5t-10.5 -16.5q-97 -152 -164 -152q-69 0 -69 78q0 50 37.5 174.5t37.5 156.5q0 36 -22 36q-35 0 -87 -84.5t-91.5 -205t-39.5 -211.5q0 -147 108 -147q31 0 55 11.5t33 22.5l8 12q3 8 15 6
q4 -3 3 -6t-4 -7.5t-13 -16t-22 -20.5t-32 -16t-43 -7q-66 0 -97 46t-31 125q0 99 41.5 223.5t100 211.5t102.5 87q60 0 60 -81q0 -53 -30 -167t-30 -149q0 -38 26 -38q25 0 59.5 37.5t69 97.5t53 95t34.5 68q12 24 20.5 33t23.5 9q23 0 23 -27q0 -4 -28.5 -123t-28.5 -179
q0 -73 40 -73q49 0 98 95t75 212q-42 67 -42 136q0 62 37 62q44 0 44 -88q0 -48 -14 -112q42 -56 103 -56q19 0 28 2q23 105 81.5 189.5t117.5 84.5q46 0 46 -44q0 -50 -55.5 -125.5t-130.5 -109.5q-12 -49 -12 -93q0 -101 74 -101q32 0 67 21.5t65 56t50 62.5t36 56
q5 8 19 5q4 -3 4 -5q-5 -9 -13.5 -24.5t-35.5 -55t-55 -69.5t-69 -55t-79 -25q-61 0 -90.5 40t-29.5 107q0 26 5 61q-8 -1 -23 -1q-62 0 -108 54q-19 -77 -49 -147t-70.5 -118.5t-79.5 -48.5q-86 0 -86 146q0 33 3 66zM1625 511q-24 0 -61.5 -67.5t-61.5 -150.5
q60 33 100 95.5t40 100.5q0 22 -17 22zM591 794q8 0 11.5 -4t3.5 -8v-4q-21 0 -39 -61t-67 -278q-6 -25 -9 -39.5t-8.5 -39t-10.5 -45.5q-102 -443 -359 -443q-71 0 -105.5 39t-34.5 82q0 31 15 31q4 0 6 -2t2 -4l1 -2q-5 0 -5 -18q0 -35 25.5 -68t84.5 -33q99 0 171 102.5
t124 318.5q48 201 78.5 299.5t56.5 137.5t59 39zM1052 993q2 16 15 16t13 -25q0 -17 -8.5 -33.5t-28.5 -36t-59.5 -35t-95.5 -29t-143.5 -21t-196.5 -7.5q-84 0 -158 -10.5t-144.5 -36t-120.5 -65.5t-80 -103t-30 -144q0 -72 38 -122t94 -50q25 0 44.5 7.5t26.5 14.5l7 7
q5 8 15 5q2 -2 2 -5q-10 -24 -36 -37t-59 -13q-69 0 -114 58t-45 141q0 89 31.5 159.5t83.5 115t125.5 74t151.5 41.5t167 12q129 0 226 8t149.5 19.5t84.5 28t41 29t9 25.5q0 12 -5 12z" />
    <glyph glyph-name="W_r" unicode="Wr" horiz-adv-x="1695" 
d="M1445 715q0 -45 -25 -140q15 -16 48.5 -33t53 -37t19.5 -55q0 -39 -45.5 -174t-45.5 -181q0 -62 38 -62q10 0 22.5 6t24.5 15t25.5 23.5t25 28.5t25.5 32.5t23.5 32.5t21 32t17.5 27.5t14 22.5t8 14q5 8 19 5q4 -3 4 -5q-6 -11 -15.5 -29t-38.5 -64t-57 -81t-64.5 -64
t-65.5 -29q-39 0 -61.5 29.5t-22.5 74.5q0 56 27 136t54 146t27 90q0 14 -13 23.5t-37 23t-39 27.5q-41 -141 -108.5 -285.5t-115.5 -184.5q-4 -3 -9 0t-6 8t2 8q40 30 109.5 182.5t110.5 291.5q-26 36 -26 96q0 37 14 61.5t39 24.5q23 0 23 -37zM916 651q20 0 20 -22
q0 -12 -29 -113t-58.5 -234t-29.5 -224q0 -90 36 -90q25 0 53 30t54.5 82t53 117t51 140.5t46 147.5t40 143t31 121t21.5 87l9 38q5 19 29 18q20 -1 20 -15v-3q-4 -19 -26 -106.5t-67 -233t-94.5 -276.5t-111.5 -227.5t-116 -96.5q-44 0 -65.5 46t-22.5 122q0 40 2.5 84
t2.5 49q0 15 -5 15q-12 0 -36 -51q-174 -366 -301 -366q-93 0 -93 109q0 70 32 189.5t71 228.5t71 228.5t32 188.5q0 146 -139 146q-97 0 -182.5 -47.5t-141 -120.5t-87 -158.5t-31.5 -164.5q0 -97 47.5 -157.5t141.5 -60.5q26 0 47.5 4.5t34 10t22 12.5t12.5 11t5 7
q4 8 16 5q5 -1 3 -5q-1 -3 -3 -7.5t-11.5 -15.5t-23.5 -20t-41 -16t-61 -7q-105 0 -158.5 69t-53.5 177q0 84 32.5 172.5t90 163.5t147.5 123t195 48q106 0 150.5 -52t44.5 -148q0 -84 -49.5 -257t-99 -339t-49.5 -232q0 -51 36 -51q40 0 87.5 46.5t93 124t83.5 155.5
t73 164q16 39 31 77.5t24.5 63.5t18.5 49.5t14.5 38.5t12 27t11 19t10.5 11t12 6.5t15 1.5z" />
    <glyph glyph-name="b_b" unicode="bb" horiz-adv-x="813" 
d="M284 348q45 0 106 50q12 125 43 238.5t80 190t103 76.5q56 0 56 -61q0 -83 -64.5 -202t-151.5 -208q-19 -119 -19 -213q0 -199 81 -199q29 0 56 37.5t44 88t29 108.5q-31 43 -31 99q0 66 35 66q34 0 34 -71q0 -34 -10 -89q19 -17 44 -17q36 0 70.5 36t59.5 82q4 9 19 5
q4 -3 4 -5q-3 -6 -7.5 -15.5t-21 -34.5t-33.5 -44t-43.5 -34.5t-52.5 -15.5q-24 0 -45 16q-23 -98 -64.5 -171.5t-89.5 -73.5q-130 0 -130 299q0 42 3 85q-61 -45 -105 -45h-8v-2q0 -74 -16.5 -150t-51.5 -131.5t-78 -55.5q-130 0 -130 299q0 135 30 277t84.5 241t116.5 99
q56 0 56 -61q0 -124 -230 -518q-5 -62 -5 -105q0 -199 81 -199q27 0 50 30.5t37.5 78t23 100.5t8.5 102q-30 11 -47 38.5t-17 56.5q0 43 31 43q25 0 39.5 -33t16.5 -88h10zM240 870q-48 0 -101.5 -156t-76.5 -339q199 364 199 465q0 30 -21 30zM626 870q-41 0 -88 -120
t-76 -281q76 86 130.5 194t54.5 177q0 30 -21 30z" />
    <glyph glyph-name="b_e" unicode="be" horiz-adv-x="745" 
d="M745 267q4 9 19 5q4 -3 4 -5q-5 -9 -13.5 -24.5t-35.5 -55t-55 -69.5t-69 -55t-79 -25q-61 0 -90.5 40t-29.5 107q0 26 5 61q-8 -1 -23 -1q-56 0 -99 30q-12 -109 -53.5 -198.5t-96.5 -89.5q-130 0 -130 299q0 135 30 277t84.5 241t116.5 99q56 0 56 -61
q0 -124 -230 -518q-5 -62 -5 -105q0 -199 81 -199q48 0 81 87.5t42 188.5q-45 48 -45 105q0 45 31 45q42 0 42 -108q0 -11 -2 -37q40 -33 97 -33q19 0 28 2q23 105 81.5 189.5t117.5 84.5q46 0 46 -44q0 -50 -55.5 -125.5t-130.5 -109.5q-12 -49 -12 -93q0 -101 74 -101
q31 0 65 20.5t63.5 53.5t50.5 62.5t39 59.5zM240 870q-48 0 -101.5 -156t-76.5 -339q199 364 199 465q0 30 -21 30zM596 511q-24 0 -61.5 -67.5t-61.5 -150.5q60 33 100 95.5t40 100.5q0 22 -17 22z" />
    <glyph glyph-name="b_j" unicode="bj" horiz-adv-x="757" 
d="M490 365q-98 -149 -167 -149q-20 0 -40 15q-23 -98 -64.5 -171t-89.5 -73q-130 0 -130 299q0 135 30 277t84.5 241t116.5 99q56 0 56 -61q0 -124 -230 -518q-5 -62 -5 -105q0 -199 81 -199q42 0 76 70.5t53 164.5q-33 47 -33 106q0 58 37 58q34 0 34 -71q0 -34 -10 -89
q15 -17 37 -17q31 0 69.5 37t74.5 94.5t59.5 99t40.5 78.5q19 40 32 58.5t28 18.5q20 0 20 -21q0 -1 -14.5 -41.5t-38.5 -123.5t-43 -175q-14 -69 -19 -92q44 21 78 21q22 0 38.5 -5t22.5 -11l5 -5q3 -3 -6 -7q-10 -3 -15 -1q-14 8 -45 8q-38 0 -83 -25
q-23 -110 -44.5 -187.5t-53 -156t-73 -119.5t-91.5 -41q-71 0 -71 70q0 81 85.5 211t188.5 208q4 20 12.5 64.5t13.5 67.5q7 37 25 119q4 18 -1 18q-6 0 -31 -39zM263 -321q36 0 67 33.5t55.5 98t42 131.5t36.5 162q-90 -76 -163.5 -196.5t-73.5 -185.5q0 -43 36 -43z
M240 870q-48 0 -101.5 -156t-76.5 -339q199 364 199 465q0 30 -21 30zM684 873q9 0 16 -7.5t7 -19.5q0 -17 -18.5 -42.5t-33.5 -25.5q-10 0 -10 23q0 24 11 48t28 24z" />
    <glyph glyph-name="b_m" unicode="bm" horiz-adv-x="1178" 
d="M360 22q0 24 60 186.5t60 206.5q0 25 -14 25q-9 0 -41 -22.5t-75 -47.5t-75 -29v-17q0 -74 -16.5 -150t-51.5 -131.5t-78 -55.5q-130 0 -130 299q0 135 30 277t84.5 241t116.5 99q56 0 56 -61q0 -124 -230 -518q-5 -62 -5 -105q0 -199 81 -199q36 0 64 53.5t41.5 124.5
t13.5 138v6q-30 4 -47 29.5t-17 53.5q0 19 8.5 31.5t22.5 12.5q46 0 55 -106q40 5 116 54.5t103 49.5q37 0 37 -52q0 -33 -27 -127q-6 -20 -7 -29t3 -11q11 0 36 46q63 115 126.5 194.5t102.5 79.5q40 0 40 -60q0 -30 -27 -159q-7 -37 1 -37q5 0 27 30q113 162 169 162
q41 0 41 -53q0 -36 -36.5 -178t-36.5 -197q0 -43 20 -43q29 0 83.5 58.5t93.5 116.5l40 59q5 8 19 5q4 -3 4 -5q-6 -11 -17.5 -29t-44 -64t-61.5 -81t-65 -64t-61 -29q-68 0 -68 92q0 58 36.5 191.5t36.5 171.5q0 16 -8 16q-29 0 -112.5 -119t-123.5 -211q-13 -29 -30 -29
q-10 0 -17 5.5t-7 14.5q0 25 46 183.5t46 197.5q0 22 -10 22q-26 0 -92.5 -99.5t-125.5 -207t-116 -221.5q-4 -8 -12 -8q-14 0 -24.5 6.5t-10.5 16.5zM240 870q-48 0 -101.5 -156t-76.5 -339q199 364 199 465q0 30 -21 30z" />
    <glyph glyph-name="b_n" unicode="bn" horiz-adv-x="929" 
d="M360 22q0 24 60 186.5t60 206.5q0 25 -14 25q-9 0 -41 -22.5t-75 -47.5t-75 -29v-17q0 -74 -16.5 -150t-51.5 -131.5t-78 -55.5q-130 0 -130 299q0 135 30 277t84.5 241t116.5 99q56 0 56 -61q0 -124 -230 -518q-5 -62 -5 -105q0 -199 81 -199q36 0 64 53.5t41.5 124.5
t13.5 138v6q-30 4 -47 29.5t-17 53.5q0 19 8.5 31.5t22.5 12.5q46 0 55 -106q40 5 116 54.5t103 49.5q37 0 37 -52q0 -33 -27 -127q-6 -20 -7 -29t3 -11q10 0 32 40q149 260 216 260q48 0 48 -56q0 -36 -36 -167.5t-36 -169.5q0 -55 36 -55q71 0 171 167q5 8 19 5q4 -3 4 -5
q-4 -8 -11.5 -21.5t-30 -48t-46 -61t-56 -48t-62.5 -21.5q-77 0 -77 99q0 59 37.5 190.5t37.5 143.5q0 15 -10 15q-31 0 -109.5 -119t-142 -237.5t-74.5 -148.5q-4 -11 -13 -11q-14 0 -24.5 6.5t-10.5 16.5zM240 870q-48 0 -101.5 -156t-76.5 -339q199 364 199 465
q0 30 -21 30z" />
    <glyph glyph-name="b_r" unicode="br" horiz-adv-x="771" 
d="M771 267q4 9 19 5q4 -3 4 -5q-6 -11 -15.5 -29t-38.5 -64t-57 -81t-64.5 -64t-65.5 -29q-39 0 -61.5 29.5t-22.5 74.5q0 56 27 136t54 146.5t27 89.5q0 13 -11 24t-33 26t-35 28q-19 -82 -48 -156.5t-70.5 -128t-81.5 -53.5q-13 0 -25 6q-16 -94 -55 -164.5t-89 -70.5
q-130 0 -130 299q0 135 30 277t84.5 241t116.5 99q56 0 56 -61q0 -124 -230 -518q-5 -62 -5 -105q0 -199 81 -199q42 0 74 65t48 152q-19 19 -29.5 50.5t-10.5 60.5q0 55 32 55q36 0 36 -91q0 -26 -5 -63q14 -7 26 -7q35 0 72 54.5t63 127t43 149.5l-3 5q-33 47 -33 104
q0 31 11 50.5t30 19.5q32 0 32 -60q0 -43 -13 -111q14 -16 46 -35.5t49 -40.5t17 -55q0 -39 -45.5 -174t-45.5 -181q0 -62 38 -62q24 0 58 30.5t66 76t51.5 76t31.5 51.5zM240 870q-48 0 -101.5 -156t-76.5 -339q199 364 199 465q0 30 -21 30z" />
    <glyph glyph-name="b_s" unicode="bs" horiz-adv-x="775" 
d="M775 410q2 -3 -3 -3q-9 -1 -18 3q-30 12 -75 12q-46 0 -92 -33q23 -88 23 -155q0 -126 -48 -213t-113 -87q-72 0 -72 94q0 79 49.5 183.5t120.5 169.5q-2 16 -3.5 30.5t-2.5 22t-1 13.5q-4 47 -11 47q-3 0 -8 -6.5t-9 -14t-8.5 -15.5t-4.5 -9q-52 -100 -107 -166.5
t-99 -66.5q-10 0 -20 5q-17 -94 -55.5 -164t-88.5 -70q-130 0 -130 299q0 135 30 277t84.5 241t116.5 99q56 0 56 -61q0 -124 -230 -518q-5 -62 -5 -105q0 -199 81 -199q42 0 74 64.5t48 150.5q-18 20 -29 51.5t-11 61.5q0 55 32 55q36 0 36 -91q0 -27 -5 -64q9 -6 21 -6
q31 0 75.5 52.5t84 123t72.5 146.5v23q0 170 49 170q23 0 23 -36q0 -44 -50 -160q3 -47 30 -152q49 33 97 33q30 0 54 -8t33 -16zM551 306q0 17 -2 51q-62 -63 -105 -162.5t-43 -166.5q0 -60 36 -60q48 0 81 101t33 237zM240 870q-48 0 -101.5 -156t-76.5 -339
q199 364 199 465q0 30 -21 30z" />
    <glyph glyph-name="b_w" unicode="bw" horiz-adv-x="1109" 
d="M635 200q-96 -153 -164 -153q-69 0 -69 78q0 49 59 213.5t59 193.5q0 11 -6 11q-8 0 -35 -29.5t-58 -65.5t-72.5 -68.5t-74.5 -37.5q0 -3 0.5 -9t0.5 -9q0 -74 -16.5 -150t-51.5 -131.5t-78 -55.5q-130 0 -130 299q0 135 30 277t84.5 241t116.5 99q56 0 56 -61
q0 -124 -230 -518q-5 -62 -5 -105q0 -199 81 -199q36 0 64 53.5t41.5 124.5t13.5 138v6q-30 4 -47 29.5t-17 53.5q0 19 8.5 31.5t22.5 12.5q46 0 55 -105q30 5 70.5 38.5t72 71t65.5 68.5t55 31q37 0 37 -47q0 -46 -56 -207t-56 -200q0 -38 26 -38q24 0 58 37t67.5 93.5
t54.5 96t36 71.5q11 24 19.5 33t24.5 9q23 0 23 -27q0 -4 -28.5 -123t-28.5 -179q0 -73 40 -73t83 69.5t74.5 164.5t48.5 192q-36 74 -36 142t37 68q39 0 39 -97q0 -52 -12 -116q45 -81 106 -81q32 0 60 27t47 62q4 8 19 4q4 -2 4 -4q-2 -5 -6 -12.5t-17 -26.5t-27 -34
t-36 -27t-44 -12q-63 0 -113 70q-20 -100 -55.5 -194t-84 -161.5t-93.5 -67.5q-86 0 -86 146q0 25 4 65q5 46 0 46q-4 0 -30 -42zM240 870q-48 0 -101.5 -156t-76.5 -339q199 364 199 465q0 30 -21 30z" />
    <glyph glyph-name="b_x" unicode="bx" horiz-adv-x="915" 
d="M548 445q-18 0 -77 -85q-23 -32 -37.5 -51t-37 -44t-43 -37t-39.5 -12q-18 0 -32 11q-24 -97 -65 -168.5t-88 -71.5q-130 0 -130 299q0 135 30 277t84.5 241t116.5 99q56 0 56 -61q0 -124 -230 -518q-5 -62 -5 -105q0 -199 81 -199q42 0 76 69t52 161q-31 45 -31 106
q0 63 36 63q34 0 34 -71q0 -39 -11 -94q12 -12 31 -12q27 0 58 31t71 87q4 6 14 20t15 20.5t14 18.5t14 18t13 14.5t13.5 13t12.5 9.5t13.5 7t12.5 2q32 0 49.5 -36t28.5 -101q20 25 47 61t42.5 56.5t33.5 41.5t30.5 30.5t22.5 9.5q13 0 16 -9.5t-3 -16.5q-3 -4 -31 -34.5
t-73.5 -80.5t-79.5 -89q20 -126 33 -161q22 -53 58 -54q22 0 48.5 18t50.5 47.5t40.5 53t31.5 48.5q4 8 19 4q4 -2 4 -4q-4 -8 -11.5 -21.5t-30.5 -48t-46 -61t-55.5 -48t-61.5 -21.5q-103 0 -138 178q-24 -30 -52 -69.5t-46.5 -65t-37.5 -49.5t-33 -35.5t-25 -11.5
q-10 0 -14 6t1 14q15 23 201 242q-3 20 -7 50t-6.5 47.5t-6.5 36t-9 27t-12 8.5zM240 870q-48 0 -101.5 -156t-76.5 -339q199 364 199 465q0 30 -21 30z" />
    <glyph glyph-name="b_y" unicode="by" horiz-adv-x="903" 
d="M489 457q-11 0 -48.5 -26.5t-85 -55t-80.5 -33.5v-18q0 -74 -16.5 -150t-51.5 -131.5t-78 -55.5q-130 0 -130 299q0 135 30 277t84.5 241t116.5 99q56 0 56 -61q0 -124 -230 -518q-5 -62 -5 -105q0 -199 81 -199q36 0 64 53.5t41.5 124.5t13.5 138v6q-30 4 -47 29.5
t-17 53.5q0 19 8.5 31.5t22.5 12.5q46 0 55 -106q41 5 125.5 62.5t111.5 57.5q33 0 33 -40q0 -35 -45.5 -159.5t-45.5 -155.5q0 -20 14 -20q33 0 83 56.5t96.5 136.5t75.5 134.5t41 80.5q12 27 21.5 37t22.5 10q16 0 19 -13.5t-2 -19.5q-30 -71 -89.5 -244t-86.5 -245
q34 -1 60 -9t35 -16l9 -7l-10 -1q-7 0 -11 1q-41 9 -91 9q-34 -86 -66 -151t-71 -122.5t-82.5 -87.5t-90.5 -30q-72 0 -72 69q0 90 101 203.5t229 136.5q25 62 69 185q8 23 10.5 37t-1.5 17q-8 0 -29 -33q-59 -83 -100.5 -125.5t-79.5 -42.5q-55 0 -55 66q0 52 46 174
t46 137q0 6 -4 6zM318 -340q114 0 259 351q-61 -13 -117.5 -52t-93.5 -86t-58.5 -94t-21.5 -79q0 -40 32 -40zM240 870q-48 0 -101.5 -156t-76.5 -339q199 364 199 465q0 30 -21 30z" />
    <glyph glyph-name="b_z" unicode="bz" horiz-adv-x="838" 
d="M630 493q-20 0 -45.5 -20.5t-49 -51.5t-52 -66.5t-55.5 -66.5t-58.5 -51.5t-61.5 -20.5q-16 0 -27 7q-24 -96 -64.5 -166t-87.5 -70q-130 0 -130 299q0 135 30 277t84.5 241t116.5 99q56 0 56 -61q0 -124 -230 -518q-5 -62 -5 -105q0 -199 81 -199q41 0 74.5 66.5
t52.5 157.5q-30 41 -30 105q0 30 9.5 50t26.5 20q34 0 34 -71q0 -43 -12 -97q11 -9 26 -9q30 0 64 29.5t66 71t64.5 83t70.5 71t74 29.5q35 0 53 -22t18 -60q0 -68 -55.5 -148.5t-126.5 -109.5q29 -10 48 -30q49 19 92 19q22 0 38.5 -5.5t22.5 -10.5l5 -5q3 -3 -6 -6
q-10 -4 -15 -2q-14 8 -46 8q-38 0 -77 -14q35 -45 35 -120q0 -87 -43 -179t-116 -154t-149 -62q-77 0 -77 80q0 99 94.5 238t213.5 200q-26 32 -74 32h-3q-7 0 -12 6.5t-5 11.5t4 5q70 0 132.5 89.5t62.5 159.5q0 46 -36 46zM584 56q0 43 -13 70q-76 -37 -145.5 -117.5
t-108 -162.5t-38.5 -137q0 -51 40 -51q56 0 119 66t104.5 160t41.5 172zM240 870q-48 0 -101.5 -156t-76.5 -339q199 364 199 465q0 30 -21 30z" />
    <glyph glyph-name="c_c" unicode="cc" horiz-adv-x="750" 
d="M543 293q30 34 58.5 95.5t28.5 102.5q0 44 -35 44q-36 0 -81.5 -70.5t-77 -167.5t-31.5 -170q0 -106 69 -106q39 0 81.5 25.5t75.5 61.5t61 72t43 62l15 25q5 8 19 5q4 -3 4 -5q-6 -11 -16.5 -30t-44.5 -67.5t-68.5 -85t-83.5 -67t-95 -30.5q-59 0 -87 42.5t-28 114.5
q0 29 5 69q-133 -199 -256 -199q-57 0 -84.5 40.5t-27.5 107.5q0 79 31 165.5t84 146.5t108 60q78 0 78 -75q0 -44 -25.5 -99.5t-55.5 -87.5q-8 -8 -18 1q-6 7 -2 13q30 34 53 83t23 88q0 44 -35 44q-38 0 -83 -61.5t-75 -146.5t-30 -150q0 -95 68 -95q34 0 72.5 22t67 49.5
t58.5 64.5t40.5 53t19.5 30q29 117 90 209t121 92q78 0 78 -75q0 -49 -29.5 -112.5t-62.5 -101.5q-8 -8 -18 1q-6 7 -2 13z" />
    <glyph glyph-name="e_e" unicode="ee" horiz-adv-x="676" 
d="M676 267q4 9 19 5q4 -3 4 -5q-6 -11 -16.5 -29.5t-42 -66t-62.5 -83.5t-72 -65.5t-75 -29.5q-55 0 -81.5 44t-26.5 116q0 27 3 56q-111 -171 -218 -171q-62 0 -91 39t-29 103q0 69 29.5 146.5t76.5 131t94 53.5q46 0 46 -44q0 -55 -60 -132t-120 -92q-9 -39 -9 -74
q0 -98 74 -98q29 0 62 19.5t57.5 45t48 57t34 48t15.5 25.5q25 111 81 194.5t119 83.5q46 0 46 -44q0 -55 -61 -132.5t-121 -92.5q-18 -79 -18 -137q0 -112 60 -112q31 0 72 34.5t76.5 81.5t57 79.5t28.5 45.5zM527 511q-30 0 -64 -62t-57 -149q50 17 94 82.5t44 106.5
q0 22 -17 22zM179 478q-25 0 -62 -65.5t-57 -144.5q50 17 93 82t43 106q0 22 -17 22z" />
    <glyph glyph-name="f_e" unicode="fe" horiz-adv-x="631" 
d="M236 248q-55 0 -97 7q15 -31 15 -95q0 -92 -24 -204.5t-65.5 -196.5t-83.5 -84q-63 0 -63 126q0 146 96 526q35 140 61 227.5t58 168.5t65.5 118.5t71.5 37.5q48 0 48 -52q0 -120 -240 -481l-6 -26q-103 -457 -103 -563q0 -49 17 -49q45 0 93.5 163t48.5 289
q0 104 -32 104h-1l2 23q1 0 48 -8t91 -8q30 0 57 6q24 104 82 185.5t116 81.5q46 0 46 -44q0 -50 -52.5 -120t-131.5 -106q-14 -56 -14 -102q0 -101 74 -101q102 0 218 196q5 8 19 5q4 -3 4 -5q-5 -9 -13.5 -24.5t-35.5 -55t-55 -69.5t-69 -55t-79 -25q-61 0 -90.5 40
t-29.5 107q0 32 6 68q-28 -5 -52 -5zM270 846q-72 0 -178 -438q81 130 139 247t58 165q0 26 -19 26zM482 511q-23 0 -60 -64t-61 -145q63 34 100.5 92t37.5 95q0 22 -17 22z" />
    <glyph glyph-name="f_f_e" unicode="ffe" horiz-adv-x="942" 
d="M576 284q-73 0 -119 20q10 -34 10 -96q0 -93 -20.5 -201.5t-59.5 -190.5t-82 -82q-63 0 -63 126q0 129 72 422q-62 -40 -122 -40q-27 0 -49 5q11 -33 11 -87q0 -92 -24 -204.5t-65.5 -196.5t-83.5 -84q-63 0 -63 126q0 146 96 526q35 140 61 227.5t58 168.5t65.5 118.5
t71.5 37.5q48 0 48 -52q0 -120 -240 -481l-6 -26q-103 -457 -103 -563q0 -49 17 -49q45 0 93.5 163t48.5 289q0 104 -33 104l2 23q7 0 36.5 -10.5t58.5 -10.5q65 0 130 47l4 14q69 272 116.5 382t114.5 110q48 0 48 -52q0 -65 -64 -199t-152 -224l-5 -24
q-33 -145 -47.5 -214.5t-29 -156t-14.5 -133.5q0 -49 17 -49q50 0 91.5 166.5t41.5 300.5q0 87 -22 87l2 23q5 0 22.5 -9t51.5 -18.5t79 -9.5q13 0 37 2q28 95 82 165t107 70q46 0 46 -44q0 -51 -49.5 -112t-127.5 -88q-21 -73 -21 -128q0 -101 74 -101q99 0 218 196
q4 8 19 4q4 -2 4 -4q-5 -9 -13.5 -24.5t-35.5 -55t-55 -69.5t-69 -55t-79 -25q-61 0 -90.5 40t-29.5 107q0 45 13 100q-10 -1 -30 -1zM270 846q-72 0 -178 -438q81 130 139 247t58 165q0 26 -19 26zM557 786q-63 0 -159 -403q75 86 126.5 202.5t51.5 174.5q0 26 -19 26z
M793 511q-21 0 -54.5 -55t-58.5 -129q61 26 95.5 75.5t34.5 86.5q0 22 -17 22z" />
    <glyph glyph-name="f_f_y" unicode="ffy" horiz-adv-x="1110" 
d="M421 321l2 23q50 0 101 17t83 36.5t61.5 36t42.5 16.5q33 0 33 -37q0 -35 -42.5 -144.5t-42.5 -140.5q0 -20 14 -20q33 0 83 56.5t96.5 136.5t75.5 134.5t41 80.5q12 27 21.5 37t22.5 10q16 0 19 -13.5t-2 -19.5q-30 -71 -89.5 -244t-86.5 -245q34 -1 60 -9t35 -16l9 -7
q1 -1 -1 -2l-20 2q-41 9 -91 9q-34 -86 -66 -151t-71 -122.5t-82.5 -87.5t-90.5 -30q-72 0 -72 69q0 90 101 203.5t229 136.5q26 65 63 168q26 71 15 71q-6 0 -22 -22q-119 -179 -187 -179q-55 0 -55 66q0 52 39.5 151t39.5 114q0 6 -4 6q-6 0 -37 -20t-84.5 -42.5
t-111.5 -26.5q17 -34 17 -113q0 -93 -20.5 -202t-59.5 -191t-82 -82q-63 0 -63 126q0 129 72 422q-62 -40 -122 -40q-27 0 -49 5q11 -33 11 -87q0 -92 -24 -204.5t-65.5 -196.5t-83.5 -84q-63 0 -63 126q0 146 96 526q35 140 61 227.5t58 168.5t65.5 118.5t71.5 37.5
q48 0 48 -52q0 -120 -240 -481l-6 -26q-103 -457 -103 -563q0 -49 17 -49q45 0 93.5 163t48.5 289q0 104 -33 104l2 23q6 0 36.5 -10.5t58.5 -10.5q65 0 130 47l4 14q69 272 116.5 382t114.5 110q48 0 48 -52q0 -65 -64 -199t-152 -224l-5 -24q-33 -145 -47.5 -214.5
t-29 -156t-14.5 -133.5q0 -49 17 -49q50 0 91.5 166.5t41.5 300.5q0 84 -22 87zM525 -340q114 0 259 351q-61 -13 -117.5 -52t-93.5 -86t-58.5 -94t-21.5 -79q0 -40 32 -40zM270 846q-72 0 -178 -438q81 130 139 247t58 165q0 26 -19 26zM557 786q-63 0 -159 -403
q75 86 126.5 202.5t51.5 174.5q0 26 -19 26z" />
    <glyph glyph-name="f_j" unicode="fj" horiz-adv-x="662" 
d="M192 242q-27 0 -49 5q11 -33 11 -87q0 -92 -24 -204.5t-65.5 -196.5t-83.5 -84q-63 0 -63 126q0 146 96 526q35 140 61 227.5t58 168.5t65.5 118.5t71.5 37.5q48 0 48 -52q0 -120 -240 -481l-6 -26q-103 -457 -103 -563q0 -49 17 -49q45 0 93.5 163t48.5 289
q0 104 -33 104l2 23q3 0 35 -10.5t60 -10.5q34 0 70.5 21t64.5 49t59.5 72.5t49.5 74.5t41 72q31 57 43 67q8 6 15 6q20 0 20 -21q0 -1 -14.5 -41.5t-38.5 -123.5t-43 -175q-14 -69 -19 -92q44 21 78 21q22 0 38.5 -5t21.5 -11l6 -5q3 -3 -6 -6q-10 -4 -15 -2q-16 8 -45 8
q-38 0 -83 -25q-23 -110 -44.5 -187.5t-53 -156t-73 -119.5t-91.5 -41q-71 0 -71 70q0 81 85.5 211t188.5 208q4 20 12.5 64.5t13.5 67.5q4 19 13.5 62.5t14.5 66.5q6 26 -1 26q-4 0 -33 -38q-107 -142 -204 -142zM168 -321q36 0 67 33.5t55.5 98t42 131.5t36.5 162
q-90 -76 -163.5 -196.5t-73.5 -185.5q0 -43 36 -43zM270 846q-72 0 -178 -438q81 130 139 247t58 165q0 26 -19 26zM589 873q9 0 16 -7.5t7 -19.5q0 -17 -18.5 -42.5t-33.5 -25.5q-9 4 -10 25t10.5 45.5t28.5 24.5z" />
    <glyph glyph-name="f_m" unicode="fm" horiz-adv-x="1120" 
d="M417 425q-11 0 -35 -28.5t-50.5 -62t-67 -62t-78.5 -28.5q-28 0 -43 4q11 -35 11 -88q0 -92 -24 -204.5t-65.5 -196.5t-83.5 -84q-63 0 -63 126q0 146 96 526q35 140 61 227.5t58 168.5t65.5 118.5t71.5 37.5q48 0 48 -52q0 -120 -240 -481l-6 -26q-103 -457 -103 -563
q0 -49 17 -49q45 0 93.5 163t48.5 289q0 104 -33 104l2 23q5 0 33.5 -9.5t55.5 -9.5q30 0 60.5 19.5t55.5 47.5t48.5 56t46.5 47.5t42 19.5q32 0 32 -47q0 -28 -14 -79q-13 -55 -9 -56q10 0 39 51q135 241 208 241q50 0 50 -62q0 -24 -24 -142q-10 -43 0 -43q7 0 21 22
q105 161 168 161q46 0 46 -55q0 -32 -36.5 -175t-36.5 -198q0 -43 20 -43q29 0 83.5 58.5t93.5 116.5l40 59q5 8 19 5q4 -3 4 -5q-6 -11 -17.5 -29t-44 -64t-61.5 -81t-65 -64t-61 -29q-68 0 -68 92q0 56 36 190.5t36 164.5q0 24 -12 24q-29 0 -105.5 -110t-125.5 -220
q-13 -29 -30 -29q-10 0 -17 5.5t-7 14.5q0 26 45.5 182t45.5 191q0 30 -19 30q-63 0 -302 -484l-7.5 -15l-6.5 -13l-7 -14q-6 -10 -13 -10q-14 0 -24.5 6.5t-10.5 16.5q0 19 60.5 188.5t60.5 201.5q0 13 -6 13zM270 846q-72 0 -178 -438q81 130 139 247t58 165q0 26 -19 26z
" />
    <glyph glyph-name="f_n" unicode="fn" horiz-adv-x="887" 
d="M887 267q6 8 19 5q4 -3 4 -5q-6 -10 -17 -27t-42 -61t-59.5 -77t-63.5 -60.5t-61 -27.5q-71 0 -71 83q0 43 30.5 169t30.5 146q0 14 -7 14q-29 0 -151 -185.5t-140 -251.5q-4 -14 -24 -14q-35 0 -35 18q0 17 70 249.5t70 262.5q0 10 -4 10q-11 0 -41 -42.5t-63.5 -93
t-79.5 -93t-84 -42.5q-9 0 -25 2q11 -29 11 -86q0 -92 -24 -204.5t-65.5 -196.5t-83.5 -84q-63 0 -63 126q0 146 96 526q35 140 61 227.5t58 168.5t65.5 118.5t71.5 37.5q48 0 48 -52q0 -120 -240 -481l-6 -26q-103 -457 -103 -563q0 -49 17 -49q45 0 93.5 163t48.5 289
q0 104 -33 104l2 23q10 0 33.5 -9.5t37.5 -9.5q30 0 64.5 30t65.5 72.5t60 84.5t56.5 72t46.5 30q30 0 30 -50q0 -43 -64 -273q-3 -13 -4.5 -20t-3 -15.5t0 -12t5.5 -3.5q10 0 36 40q153 238 220 238q36 0 36 -45q0 -33 -32 -164t-32 -168t24 -37q12 0 27.5 9t31.5 23.5
t34 34.5t33.5 39t31 39.5t25.5 35t18 26.5zM270 846q-72 0 -178 -438q81 130 139 247t58 165q0 26 -19 26z" />
    <glyph glyph-name="f_r" unicode="fr" horiz-adv-x="668" 
d="M153 258h-15q16 -32 16 -98q0 -92 -24 -204.5t-65.5 -196.5t-83.5 -84q-63 0 -63 126q0 146 96 526q35 140 61 227.5t58 168.5t65.5 118.5t71.5 37.5q48 0 48 -52q0 -120 -240 -481l-6 -26q-103 -457 -103 -563q0 -49 17 -49q45 0 93.5 163t48.5 289q0 104 -33 104l2 23
q1 0 19.5 -2.5t36.5 -2.5q72 0 134 93t91 204q-33 42 -33 95q0 54 38 54q32 0 32 -61q0 -31 -12 -84q13 -14 45.5 -37t49 -44.5t16.5 -51.5q0 -39 -45.5 -174t-45.5 -181q0 -62 38 -62q68 0 207 234q5 8 19 5q4 -3 4 -5q-6 -11 -15.5 -29t-38.5 -64t-57 -81t-64.5 -64
t-65.5 -29q-39 0 -61.5 29.5t-22.5 74.5q0 56 27 136t54 146.5t27 89.5q0 12 -10 23.5t-32.5 29.5t-34.5 29q-20 -72 -54.5 -138t-86 -114t-103.5 -48zM270 846q-72 0 -178 -438q81 130 139 247t58 165q0 26 -19 26z" />
    <glyph glyph-name="f_s" unicode="fs" horiz-adv-x="677" 
d="M153 258h-15q16 -31 16 -98q0 -92 -24 -204.5t-65.5 -196.5t-83.5 -84q-63 0 -63 126q0 146 96 526q35 140 61 227.5t58 168.5t65.5 118.5t71.5 37.5q48 0 48 -52q0 -120 -240 -481l-6 -26q-103 -457 -103 -563q0 -49 17 -49q45 0 93.5 163t48.5 289q0 104 -33 104l2 23
q4 0 23.5 -2.5t32.5 -2.5q39 0 80.5 26t77.5 69t66 91t54 99v20q0 170 49 170q23 0 23 -36q0 -45 -50 -155q1 -51 30 -157q49 33 97 33q30 0 54 -8t33 -16l9 -8q2 -3 -3 -3q-9 -1 -18 3q-27 12 -75 12q-46 0 -92 -33q23 -88 23 -155q0 -126 -48 -213t-113 -87q-72 0 -72 94
q0 79 49.5 183.5t120.5 169.5q-2 19 -4.5 43.5t-4 36.5t-3 24.5t-3.5 17.5t-4 5q-5 0 -23 -32q-134 -218 -253 -218zM452 306q0 17 -2 51q-62 -63 -105 -162.5t-43 -166.5q0 -60 36 -60q48 0 81 101t33 237zM270 846q-72 0 -178 -438q81 130 139 247t58 165q0 26 -19 26z
" />
    <glyph glyph-name="f_t" unicode="ft" horiz-adv-x="600" 
d="M649 650q4 1 7 -3.5t3 -10t-4 -6.5q-58 -13 -134 -18q-56 -130 -136 -265q-17 -116 -17 -190q0 -124 35 -124q25 0 72 55t78.5 103.5t46.5 75.5q5 8 19 5q4 -3 4 -5q-6 -11 -16 -29t-39 -64t-57 -81t-64 -64t-64 -29q-37 0 -56 47.5t-19 131.5q0 51 6 107
q-55 -44 -122 -44q-30 0 -50 6q12 -31 12 -88q0 -92 -24 -204.5t-65.5 -196.5t-83.5 -84q-63 0 -63 126q0 146 96 526q35 140 61 227.5t58 168.5t65.5 118.5t71.5 37.5q48 0 48 -52q0 -120 -240 -481l-6 -26q-103 -457 -103 -563q0 -49 17 -49q45 0 93.5 163t48.5 289
q0 104 -33 104l2 23q6 0 36 -10.5t59 -10.5q72 0 126 51q21 148 74 293q-67 2 -97 6q-4 0 -4.5 5.5t2 10t6.5 4.5q46 -4 102 -4q33 84 68.5 133.5t66.5 49.5t31 -43q0 -44 -37 -138q70 5 119 16zM270 846q-72 0 -178 -438q81 130 139 247t58 165q0 26 -19 26zM530 782
q-30 0 -78 -150q33 0 50 1q37 90 37 130q0 19 -9 19zM444 610q-31 -108 -49 -206q58 110 98 207q-16 -1 -49 -1z" />
    <glyph glyph-name="f_v" unicode="fv" horiz-adv-x="819" 
d="M900 437q4 8 18 4q5 -2 5 -4q-3 -6 -7.5 -15.5t-21 -34.5t-33.5 -44t-43.5 -34.5t-52.5 -15.5q-54 0 -99 72q-37 -145 -105.5 -261t-138.5 -116q-85 0 -85 108q0 54 25 135t50 143.5t25 69.5q0 6 -5 6q-9 0 -27.5 -21t-42 -51.5t-50.5 -61t-61 -51.5t-65 -21q-28 0 -43 4
q11 -35 11 -88q0 -92 -24 -204.5t-65.5 -196.5t-83.5 -84q-63 0 -63 126q0 146 96 526q35 140 61 227.5t58 168.5t65.5 118.5t71.5 37.5q48 0 48 -52q0 -120 -240 -481l-6 -26q-103 -457 -103 -563q0 -49 17 -49q45 0 93.5 163t48.5 289q0 104 -33 104l2 23q6 0 34 -9.5
t55 -9.5q30 0 62 22t58.5 54t52 63.5t49.5 53.5t43 22q33 0 33 -43q0 -38 -45.5 -173t-45.5 -190t35 -55q44 0 89.5 62t77.5 145t52 172q-33 71 -33 135q0 67 39 67q38 0 38 -81q0 -45 -15 -118q42 -85 92 -85q69 0 132 118zM270 846q-72 0 -178 -438q81 130 139 247t58 165
q0 26 -19 26z" />
    <glyph glyph-name="f_w" unicode="fw" horiz-adv-x="1042" 
d="M568 200q-93 -153 -164 -153q-69 0 -69 78q0 56 56 216t56 181q0 9 -5 9q-11 0 -42 -45t-65.5 -98.5t-81.5 -98.5t-85 -45q-9 0 -25 2q11 -29 11 -86q0 -92 -24 -204.5t-65.5 -196.5t-83.5 -84q-63 0 -63 126q0 146 96 526q35 140 61 227.5t58 168.5t65.5 118.5
t71.5 37.5q48 0 48 -52q0 -120 -240 -481l-6 -26q-103 -457 -103 -563q0 -49 17 -49q45 0 93.5 163t48.5 289q0 104 -33 104l2 23q11 0 32 -9.5t39 -9.5q30 0 65 31.5t67 76t62 89.5t58 76.5t47 31.5q35 0 35 -46q0 -53 -54 -204.5t-54 -203.5q0 -38 26 -38q25 0 60 38.5
t68 94.5t54.5 97.5t33.5 67.5q10 24 19 33t25 9q23 0 23 -27q0 -4 -28.5 -123t-28.5 -179q0 -73 40 -73t83 69.5t74.5 164.5t48.5 192q-36 74 -36 142t37 68q39 0 39 -97q0 -52 -12 -116q45 -81 106 -81q56 0 107 89q4 8 19 4q4 -2 4 -4q-2 -5 -6 -12.5t-17 -26.5t-27 -34
t-36 -27t-44 -12q-63 0 -113 70q-20 -100 -55.5 -194t-84 -161.5t-93.5 -67.5q-86 0 -86 146q0 23 4 67l2 26l-1 18q-5 0 -31 -42zM270 846q-72 0 -178 -438q81 130 139 247t58 165q0 26 -19 26z" />
    <glyph glyph-name="f_x" unicode="fx" horiz-adv-x="804" 
d="M437 450q-9 0 -36 -31.5t-57 -69.5t-75.5 -69.5t-88.5 -31.5q-17 0 -39 4q13 -32 13 -92q0 -92 -24 -204.5t-65.5 -196.5t-83.5 -84q-63 0 -63 126q0 146 96 526q35 140 61 227.5t58 168.5t65.5 118.5t71.5 37.5q48 0 48 -52q0 -120 -240 -481l-6 -26
q-103 -457 -103 -563q0 -49 17 -49q45 0 93.5 163t48.5 289q0 104 -33 104l2 23q4 0 29.5 -7.5t53.5 -7.5q35 0 69.5 21.5t61.5 52.5t52 62.5t50 53t46 21.5q32 0 49.5 -36t28.5 -101q20 25 47 61t42.5 56.5t33.5 41.5t30.5 30.5t22.5 9.5q13 0 16 -9.5t-3 -16.5
q-3 -4 -31 -34.5t-73.5 -80.5t-79.5 -89q20 -126 33 -161q22 -53 58 -54q29 0 66.5 33.5t61 66t43.5 67.5q4 8 19 4q4 -2 4 -4q-4 -8 -11.5 -21.5t-30.5 -48t-46 -61t-55.5 -48t-61.5 -21.5q-103 0 -138 178q-24 -30 -52 -69.5t-46.5 -65t-37.5 -49.5t-33 -35.5t-25 -11.5
q-10 0 -14 6t1 14q20 30 202 243q-4 21 -8 51.5t-6.5 48.5t-6.5 37t-9 27.5t-12 8.5zM270 846q-72 0 -178 -438q81 130 139 247t58 165q0 26 -19 26z" />
    <glyph glyph-name="f_y" unicode="fy" horiz-adv-x="820" 
d="M393 411q-6 0 -32.5 -24t-58 -52.5t-73 -52.5t-73.5 -24h-18q16 -31 16 -98q0 -92 -24 -204.5t-65.5 -196.5t-83.5 -84q-63 0 -63 126q0 146 96 526q35 140 61 227.5t58 168.5t65.5 118.5t71.5 37.5q48 0 48 -52q0 -120 -240 -481l-6 -26q-103 -457 -103 -563
q0 -49 17 -49q45 0 93.5 163t48.5 289q0 104 -33 104l2 23q3 0 23 -3t36 -3q32 0 73 26.5t73 58t66 58t53 26.5q33 0 33 -37q0 -35 -42.5 -144.5t-42.5 -140.5q0 -20 14 -20q33 0 83 57t96 136t76 135t41 81q12 26 21.5 36t22.5 10q16 0 19 -13.5t-2 -19.5
q-30 -71 -89.5 -244t-86.5 -245q34 -1 60 -9t35 -16l9 -7q1 -1 -1 -2l-20 2q-41 9 -91 9q-34 -86 -66 -151t-71 -122.5t-82.5 -87.5t-90.5 -30q-72 0 -72 69q0 90 101 203.5t229 136.5q13 34 37.5 100t31.5 85q8 22 11 37.5t-2 16.5q-6 0 -22 -22q-119 -179 -187 -179
q-55 0 -55 66q0 52 39.5 151t39.5 114q0 6 -4 6zM235 -340q114 0 259 351q-61 -13 -117.5 -52t-93.5 -86t-58.5 -94t-21.5 -79q0 -40 32 -40zM270 846q-72 0 -178 -438q81 130 139 247t58 165q0 26 -19 26z" />
    <glyph glyph-name="f_z" unicode="fz" horiz-adv-x="733" 
d="M192 242q-27 0 -49 5q11 -33 11 -87q0 -92 -24 -204.5t-65.5 -196.5t-83.5 -84q-63 0 -63 126q0 146 96 526q35 140 61 227.5t58 168.5t65.5 118.5t71.5 37.5q48 0 48 -52q0 -120 -240 -481l-6 -26q-103 -457 -103 -563q0 -49 17 -49q45 0 93.5 163t48.5 289
q0 104 -33 104l2 23q7 0 36.5 -10.5t58.5 -10.5q43 0 84.5 27t74 65t64 76t65.5 65t67 27q35 0 53 -22t18 -60q0 -68 -55.5 -148.5t-126.5 -109.5q28 -10 48 -30q49 19 92 19q22 0 38.5 -5.5t21.5 -10.5l6 -5q3 -3 -6 -6q-10 -4 -15 -2q-18 8 -46 8q-38 0 -77 -14
q35 -45 35 -120q0 -87 -43 -179t-116 -154t-149 -62q-77 0 -77 80q0 99 94.5 238t213.5 200q-26 32 -74 32h-3q-8 1 -12.5 7t-4.5 11t4 5q70 0 132.5 89.5t62.5 159.5q0 46 -36 46q-21 0 -48.5 -26t-57.5 -63t-63.5 -73.5t-77 -62.5t-86.5 -26zM479 56q0 43 -13 70
q-76 -37 -145.5 -117.5t-108 -162.5t-38.5 -137q0 -51 40 -51q56 0 119 66t104.5 160t41.5 172zM270 846q-72 0 -178 -438q81 130 139 247t58 165q0 26 -19 26z" />
    <glyph glyph-name="g_m" unicode="gm" horiz-adv-x="1230" 
d="M517 425q-12 0 -52 -45.5t-116.5 -140t-124.5 -149.5q-134 -463 -281 -463q-31 0 -47.5 15t-16.5 41q0 28 13.5 58t44 66.5t58.5 66.5t78.5 81.5t82.5 86.5l24 83q4 15 6 27t1 18.5t-4 6.5q-7 0 -31 -31q-62 -80 -99 -80q-66 0 -66 106q0 71 31.5 157.5t85 150.5
t107.5 64t54 -67q0 -32 -12 -65t-25 -43q-2 -1 -6 1.5t-6 6.5t0 6q8 7 15.5 33t7.5 50q0 45 -24 45q-31 0 -75.5 -71t-76 -159.5t-31.5 -138.5q0 -43 24 -43q21 0 50 28t55.5 70.5t41.5 69t25 45.5q15 31 40 31q9 0 14 -5.5t3 -14.5q-40 -158 -49 -189q31 36 76 92t73.5 91
t60.5 70.5t55 53t38 17.5q42 0 42 -50q0 -29 -25 -118q-4 -15 2 -15q11 0 30 36q137 257 217 257q50 0 50 -62q0 -42 -26 -151q-8 -34 2 -34q6 0 21 21q107 162 168 162q46 0 46 -55q0 -32 -36.5 -175t-36.5 -198q0 -43 20 -43q29 0 83.5 58.5t93.5 116.5l40 59q5 8 19 5
q4 -3 4 -5q-6 -11 -17.5 -29t-44 -64t-61.5 -81t-65 -64t-61 -29q-68 0 -68 92q0 56 36 190.5t36 164.5q0 24 -12 24q-29 0 -105.5 -110t-125.5 -220q-13 -29 -30 -29q-10 0 -17 5.5t-7 14.5q0 26 45.5 182t45.5 191q0 30 -19 30q-24 0 -67 -56t-92.5 -146.5t-89 -169
t-75.5 -156.5q-4 -8 -12 -8q-14 0 -24.5 6.5t-10.5 16.5q0 18 58 181.5t58 200.5q0 21 -11 21zM-64 -340q96 0 206 340q-23 -24 -72 -75.5t-69 -74.5t-48.5 -57.5t-39 -57.5t-10.5 -42q0 -33 33 -33z" />
    <glyph glyph-name="g_n" unicode="gn" horiz-adv-x="996" 
d="M559 557q40 0 40 -53q0 -47 -69 -293q-7 -28 4 -28t31 32q64 103 126 174.5t99 71.5q36 0 36 -45q0 -33 -32 -164t-32 -168t24 -37q30 0 82.5 55t89.5 110l38 55q6 8 19 5q4 -3 4 -5q-6 -10 -17 -27t-42 -61t-59.5 -77t-63.5 -60.5t-61 -27.5q-71 0 -71 83q0 43 30.5 169
t30.5 146q0 14 -7 14q-29 0 -151 -185.5t-140 -251.5q-4 -14 -24 -14q-35 0 -35 18t69.5 248.5t69.5 262.5q0 20 -11 20q-17 0 -63.5 -67.5t-120.5 -180.5t-128 -181q-135 -468 -282 -468q-31 0 -47.5 15t-16.5 41q0 35 25.5 78t54.5 74.5t94.5 98.5t102.5 108l24 83
q3 9 5 18t3 16.5t0 12.5t-5 5q-9 0 -21 -18q-66 -93 -109 -93q-66 0 -66 106q0 71 31.5 157.5t85 150.5t107.5 64t54 -67q0 -32 -12 -65t-25 -43q-2 -1 -6 1.5t-6 6.5t0 6q8 7 15.5 33t7.5 50q0 45 -24 45q-31 0 -75.5 -71t-76 -159.5t-31.5 -138.5q0 -43 24 -43
q29 0 72 53.5t72 106.5l28 53q15 31 40 31q9 0 14 -5.5t3 -14.5q-33 -133 -46 -178q39 54 116 175t124 179t80 58zM-64 -340q96 0 206 339q-27 -29 -73 -77t-68.5 -73t-49 -57.5t-37.5 -55.5t-11 -43q0 -33 33 -33z" />
    <glyph glyph-name="g_r" unicode="gr" horiz-adv-x="833" 
d="M267 343q9 0 14 -5.5t3 -14.5q-60 -246 -85 -325h8q45 0 77 -9.5t42 -19.5l9 -10q2 -3 -3 -3q-9 -1 -18 3q-33 16 -106 16h-16q-113 -348 -271 -348q-40 0 -66 21t-26 66q0 84 88.5 172t226.5 108q26 85 32 109q3 10 4.5 18.5t2.5 17t0 13t-4 4.5q-9 0 -24 -22
q-60 -85 -106 -85q-66 0 -66 106q0 74 31.5 164.5t86 157.5t109.5 67q54 0 54 -67q0 -32 -12 -65t-25 -43q-2 -1 -6 1.5t-6 6.5t0 6q8 7 15.5 33t7.5 50q0 45 -24 45q-32 0 -77 -73.5t-77 -166t-32 -146.5q0 -43 24 -43q68 0 175 230q14 31 40 31zM583 715q0 -45 -25 -140
q15 -16 48.5 -33t53 -37t19.5 -55q0 -39 -45.5 -174t-45.5 -181q0 -62 38 -62q68 0 207 234q5 8 19 5q4 -3 4 -5q-6 -11 -15.5 -29t-38.5 -64t-57 -81t-64.5 -64t-65.5 -29q-39 0 -61.5 29.5t-22.5 74.5q0 56 27 136t54 146t27 90q0 14 -13 23.5t-37 23t-39 27.5
q-41 -141 -108.5 -285.5t-115.5 -184.5q-4 -3 -9 0t-6 8t2 8q40 30 109.5 182.5t110.5 291.5q-26 36 -26 96q0 37 14 61.5t39 24.5q23 0 23 -37zM-90 -340q122 0 226 309q-83 -15 -148.5 -61.5t-95.5 -98t-30 -94.5q0 -55 48 -55z" />
    <glyph glyph-name="g_s" unicode="gs" horiz-adv-x="847" 
d="M846 410q4 -5 -13 -2l-8 2q-36 12 -75 12q-46 0 -92 -33q23 -88 23 -155q0 -126 -48 -213t-113 -87q-72 0 -72 94q0 79 49.5 183.5t120.5 169.5l-12 108q-3 21 -10 21t-22 -27q-84 -160 -162 -280.5t-120 -133.5q-5 -1 -7 4t-1 11t4 7q44 14 138 172t175 328
q0 166 60 166q27 0 27 -29q0 -16 -65 -149v-1q0 -59 30 -169q49 33 97 33q30 0 54 -8t33 -16zM622 306q0 17 -2 51q-62 -63 -105 -162.5t-43 -166.5q0 -60 36 -60q48 0 81 101t33 237zM267 343q9 0 14 -5.5t3 -14.5q-60 -246 -85 -325h8q45 0 77 -9.5t42 -19.5l9 -10
q2 -3 -3 -3q-9 -1 -18 3q-33 16 -106 16h-16q-113 -348 -271 -348q-40 0 -66 21t-26 66q0 84 88.5 172t226.5 108q26 85 32 109q3 10 4.5 18.5t2.5 17t0 13t-4 4.5q-9 0 -24 -22q-60 -85 -106 -85q-66 0 -66 106q0 74 31.5 164.5t86 157.5t109.5 67q54 0 54 -67
q0 -32 -12 -65t-25 -43q-2 -1 -6 1.5t-6 6.5t0 6q8 7 15.5 33t7.5 50q0 45 -24 45q-32 0 -77 -73.5t-77 -166t-32 -146.5q0 -43 24 -43q68 0 175 230q14 31 40 31zM-90 -340q122 0 226 309q-83 -15 -148.5 -61.5t-95.5 -98t-30 -94.5q0 -55 48 -55z" />
    <glyph glyph-name="g_v" unicode="gv" horiz-adv-x="929" 
d="M1010 437q3 8 18 4q5 -2 5 -4q-3 -6 -7.5 -15.5t-21 -34.5t-33.5 -44t-43.5 -34.5t-52.5 -15.5q-54 0 -99 72q-37 -145 -105.5 -261t-138.5 -116q-85 0 -85 108q0 51 24 130t48 141.5t24 74.5q0 8 -6 8q-18 0 -62 -50t-124.5 -153t-126.5 -157q-134 -463 -281 -463
q-31 0 -47.5 15t-16.5 41q0 28 13.5 58t44 66.5t58.5 66.5t78.5 81.5t82.5 86.5l24 83q6 18 7 34.5t-4 17.5q-10 0 -29 -29q-63 -82 -101 -82q-66 0 -66 106q0 71 31.5 157.5t85 150.5t107.5 64t54 -67q0 -32 -12 -65t-25 -43q-2 -1 -6 1.5t-6 6.5t0 6q8 7 15.5 33t7.5 50
q0 45 -24 45q-31 0 -75.5 -71t-76 -159.5t-31.5 -138.5q0 -43 24 -43q10 0 21 6t23 17.5t23 23.5t23.5 30.5t21.5 32t20.5 33t17 28.5t14.5 25l8 16q17 32 40 32q9 0 14 -5.5t3 -14.5q-4 -15 -20.5 -81t-27.5 -107q31 38 76 96.5t75.5 97t64 77t59 58t44.5 19.5q39 0 39 -43
q0 -32 -46 -173.5t-46 -189.5q0 -55 35 -55q44 0 89.5 62t77.5 145t52 172q-33 71 -33 135q0 67 39 67q38 0 38 -81q0 -45 -15 -118q42 -85 92 -85q72 0 132 118zM-64 -340q96 0 206 340q-23 -24 -72 -75.5t-69 -74.5t-48.5 -57.5t-39 -57.5t-10.5 -42q0 -33 33 -33z" />
    <glyph glyph-name="g_w" unicode="gw" horiz-adv-x="1153" 
d="M679 200q-95 -153 -164 -153t-69 78q0 58 56.5 218t56.5 183q0 14 -8 14q-20 0 -69.5 -70.5t-126.5 -189.5t-130 -186q-135 -467 -282 -467q-31 0 -47.5 15t-16.5 41q0 35 25.5 78t54.5 74.5t94.5 98.5t102.5 108l24 83q6 20 7.5 34.5t-4.5 17.5q-8 0 -29 -28
q-62 -83 -101 -83q-66 0 -66 106q0 71 31.5 157.5t85 150.5t107.5 64t54 -67q0 -32 -12 -65t-25 -43q-2 -1 -6 1.5t-6 6.5t0 6q8 7 15.5 33t7.5 50q0 45 -24 45q-31 0 -75.5 -71t-76 -159.5t-31.5 -138.5q0 -43 24 -43q60 0 172 213q17 31 40 31q9 0 14 -5.5t3 -14.5
q-21 -83 -46 -177q33 45 76.5 112t76 117t67 98t63.5 74t51 26q40 0 40 -50q0 -43 -54 -197.5t-54 -206.5q0 -38 26 -38q30 0 77 60.5t81.5 123.5t57.5 114q10 24 19 33t25 9q23 0 23 -27q0 -4 -28.5 -123t-28.5 -179q0 -73 40 -73t83 69.5t74.5 164.5t48.5 192
q-36 74 -36 142t37 68q39 0 39 -97q0 -52 -12 -116q45 -81 106 -81q55 0 107 89q4 8 19 4q4 -2 4 -4q-2 -5 -6 -12.5t-17 -26.5t-27 -34t-36 -27t-44 -12q-63 0 -113 70q-20 -100 -55.5 -194t-84 -161.5t-93.5 -67.5q-86 0 -86 146q0 23 3 56q0 4 1 14t1.5 15.5t1 12.5t0 10
t-1.5 3q-5 0 -31 -42zM-64 -340q96 0 206 339q-27 -29 -73 -77t-68.5 -73t-49 -57.5t-37.5 -55.5t-11 -43q0 -33 33 -33z" />
    <glyph glyph-name="g_x" unicode="gx" horiz-adv-x="912" 
d="M912 267q4 8 19 4q4 -2 4 -4q-4 -8 -11.5 -21.5t-30.5 -48t-46 -61t-55.5 -48t-61.5 -21.5q-103 0 -138 178q-24 -30 -52 -69.5t-46.5 -65t-37.5 -49.5t-33 -35.5t-25 -11.5q-10 0 -14 6t1 14q16 24 202 243q-4 21 -8 51.5t-6.5 48.5t-6.5 37t-9 27.5t-12 8.5
q-18 0 -63 -49t-131 -156t-127 -155q-134 -463 -281 -463q-31 0 -47.5 15t-16.5 41q0 28 13.5 58t44 66.5t58.5 66.5t78.5 81.5t82.5 86.5l24 83q6 18 7.5 34.5t-2.5 17.5q-8 0 -26 -22q-67 -89 -106 -89q-66 0 -66 106q0 71 31.5 157.5t85 150.5t107.5 64t54 -67
q0 -32 -12 -65t-25 -43q-2 -1 -6 1.5t-6 6.5t0 6q8 7 15.5 33t7.5 50q0 45 -24 45q-31 0 -75.5 -71t-76 -159.5t-31.5 -138.5q0 -43 24 -43q58 0 172 213q17 31 40 31q9 0 14 -5.5t3 -14.5q-39 -153 -49 -189q29 35 78.5 96.5t79.5 98t66 76.5t62.5 59t44.5 19
q32 0 49.5 -36t28.5 -101q20 25 47 61t42.5 56.5t33.5 41.5t30.5 30.5t22.5 9.5q13 0 16 -9.5t-3 -16.5q-3 -4 -31 -34.5t-73.5 -80.5t-79.5 -89q20 -126 33 -161q22 -53 58 -54q29 0 66.5 33.5t61 66t43.5 67.5zM-64 -340q96 0 206 340q-23 -24 -72 -75.5t-69 -74.5
t-48.5 -57.5t-39 -57.5t-10.5 -42q0 -33 33 -33z" />
    <glyph glyph-name="g_y" unicode="gy" horiz-adv-x="952" 
d="M228 369q-2 -1 -6 1.5t-6 6.5t0 6q8 7 15.5 33t7.5 50q0 45 -24 45q-31 0 -75.5 -71t-76 -159.5t-31.5 -138.5q0 -43 24 -43q61 0 172 213q16 31 40 31q9 0 14 -5.5t3 -14.5q-40 -158 -49 -189q27 32 74.5 90.5t74 89.5t60.5 67.5t59 52.5t44 16q38 0 38 -40
q0 -32 -42.5 -141.5t-42.5 -140.5q0 -20 14 -20q33 0 83 56.5t96.5 136.5t75.5 134.5t41 80.5q12 27 21.5 37t22.5 10q16 0 19 -13.5t-2 -19.5q-30 -71 -89.5 -244t-86.5 -245q34 -1 60 -9t35 -16l9 -7q1 -1 -1 -2l-20 2q-41 9 -91 9q-34 -86 -66 -151t-71 -122.5
t-82.5 -87.5t-90.5 -30q-72 0 -72 69q0 90 101 203.5t229 136.5q43 109 69 185q8 23 10.5 37t-1.5 17q-6 0 -22 -22q-119 -179 -187 -179q-55 0 -55 66q0 47 38 146t38 115q0 10 -6 10q-11 0 -31 -17.5t-51 -52t-61 -70t-75 -89.5t-78 -92q-134 -463 -281 -463
q-31 0 -47.5 15t-16.5 41q0 28 13.5 58t44 66.5t58.5 66.5t78.5 81.5t82.5 86.5l24 83q6 20 8 38t-3 20q-7 0 -28 -30q-61 -87 -104 -87q-66 0 -66 106q0 71 31.5 157.5t85 150.5t107.5 64t54 -67q0 -32 -12 -65t-25 -43zM367 -340q114 0 259 351q-61 -13 -117.5 -52
t-93.5 -86t-58.5 -94t-21.5 -79q0 -40 32 -40zM-64 -340q96 0 206 340q-23 -24 -72 -75.5t-69 -74.5t-48.5 -57.5t-39 -57.5t-10.5 -42q0 -33 33 -33z" />
    <glyph glyph-name="g_z" unicode="gz" horiz-adv-x="817" 
d="M450 198q70 0 132.5 89.5t62.5 159.5q0 46 -36 46q-21 0 -53.5 -24.5t-75 -71.5t-80 -92t-91 -111t-85.5 -104q-134 -463 -281 -463q-31 0 -47.5 15t-16.5 41q0 28 13.5 58t44 66.5t58.5 66.5t78.5 81.5t82.5 86.5l22 76q5 18 7 38t-2 21q-5 0 -28 -28q-64 -83 -102 -83
q-66 0 -66 106q0 71 31.5 157.5t85 150.5t107.5 64t54 -67q0 -32 -12 -65t-25 -43q-2 -1 -6 1.5t-6 6.5t0 6q8 7 15.5 33t7.5 50q0 45 -24 45q-31 0 -75.5 -71t-76 -159.5t-31.5 -138.5q0 -43 24 -43q29 0 72 53.5t72 106.5l28 53q17 31 40 31q9 0 14 -5.5t3 -14.5
q-39 -153 -49 -189q24 29 83.5 103.5t91 111t78 85.5t81 70.5t61.5 21.5q35 0 53 -22t18 -60q0 -68 -55.5 -148.5t-126.5 -109.5q28 -10 48 -30q49 19 92 19q22 0 38.5 -5.5t21.5 -10.5l6 -5q3 -3 -6 -6q-10 -4 -15 -2q-16 8 -46 8q-38 0 -77 -14q35 -45 35 -120
q0 -87 -43 -179t-116 -154t-149 -62q-77 0 -77 80q0 99 94.5 238t213.5 200q-26 32 -74 32q-9 0 -14.5 6t-5.5 12q0 5 4 5zM563 56q0 43 -13 70q-76 -37 -145.5 -117.5t-108 -162.5t-38.5 -137q0 -51 40 -51q56 0 119 66t104.5 160t41.5 172zM-64 -340q96 0 206 340
q-23 -24 -72 -75.5t-69 -74.5t-48.5 -57.5t-39 -57.5t-10.5 -42q0 -33 33 -33z" />
    <glyph glyph-name="i_t" unicode="it" horiz-adv-x="540" 
d="M589 650q4 1 7 -3.5t3 -10t-4 -6.5q-55 -13 -134 -18q-56 -130 -136 -265q-17 -116 -17 -190q0 -124 35 -124t102 91t95 143q4 9 19 5q4 -3 4 -5q-6 -11 -16 -29t-39 -64t-57 -81t-64 -64t-64 -29q-37 0 -56 47.5t-19 131.5q0 29 1 43q-114 -184 -193 -184q-78 0 -78 106
q0 85 75 280q14 35 50 35q20 0 20 -23q0 -3 -23.5 -59t-47.5 -129.5t-24 -118.5q0 -58 39 -58q62 0 179 186q3 4 4.5 6.5t2.5 4.5q17 175 79 342q-78 2 -97 6q-4 0 -4.5 5.5t2 10t6.5 4.5q40 -4 102 -4q33 84 68.5 133.5t66.5 49.5t31 -43q0 -44 -37 -138q79 6 119 16z
M470 782q-30 0 -78 -150q33 0 50 1q37 90 37 130q0 19 -9 19zM169 729q27 0 27 -32q0 -20 -20.5 -49.5t-41.5 -29.5q-14 0 -14 30q0 28 13.5 54.5t35.5 26.5zM384 610q-31 -108 -49 -206q58 110 98 207q-16 -1 -49 -1z" />
    <glyph glyph-name="j_m" unicode="jm" horiz-adv-x="1136" 
d="M424 425q-35 0 -118 -72.5t-179 -181.5q-19 -89 -35 -155t-39.5 -140t-47.5 -121t-56 -78t-68 -31q-59 0 -59 56q0 62 67.5 177t171.5 243l29 145q3 15 9.5 45t8.5 42q1 3 2 9t2 9.5t2 9t1.5 9t0.5 7t-1 5t-2 1.5q-7 0 -29 -36q-11 -17 -31 -51t-30 -50q-6 -9 -20 -5
q-3 3 -3 5q62 99 166 291q11 21 15.5 29t12.5 20t14.5 16.5t14.5 4.5q20 0 20 -21q0 -1 -14.5 -41.5t-38.5 -123.5t-43 -175l-12 -57q99 110 183 179t128 69q41 0 41 -48q0 -20 -14 -78q-13 -54 -9 -56q10 0 39 51q135 241 208 241q50 0 50 -62q0 -40 -26 -151q-8 -34 2 -34
q7 0 21 22q105 161 168 161q46 0 46 -55q0 -32 -36.5 -175t-36.5 -198q0 -43 20 -43q29 0 83.5 58.5t93.5 116.5l40 59q5 8 19 5q4 -3 4 -5q-6 -11 -17.5 -29t-44 -64t-61.5 -81t-65 -64t-61 -29q-68 0 -68 92q0 56 36 190.5t36 164.5q0 24 -12 24q-30 0 -106.5 -110.5
t-124.5 -219.5q-13 -29 -30 -29q-10 0 -17 5.5t-7 14.5q0 26 45.5 182t45.5 191q0 30 -19 30q-11 0 -25.5 -11.5t-32.5 -35t-35.5 -49t-40 -65.5t-39.5 -71t-41.5 -78.5t-39 -76t-38 -76t-32.5 -65.5q-4 -8 -12 -8q-14 0 -24.5 6.5t-10.5 16.5q0 22 60 188.5t60 196.5
q0 18 -14 18zM-124 -321q28 0 53.5 31.5t47.5 92t39 124.5t36 153q-87 -112 -144.5 -216.5t-57.5 -153.5q0 -31 26 -31zM277 873q9 0 16 -7.5t7 -19.5q0 -17 -18.5 -42.5t-33.5 -25.5q-10 0 -10 23q0 24 11 48t28 24z" />
    <glyph glyph-name="j_n" unicode="jn" horiz-adv-x="907" 
d="M448 524q-8 0 -23 -11t-37 -33.5t-43 -46t-52 -60.5t-53.5 -64.5t-57.5 -70.5t-54 -66q-19 -89 -35 -155t-39.5 -140t-48 -121.5t-56.5 -78.5t-68 -31q-59 0 -59 56q0 62 67.5 177t171.5 243l29 145q3 15 9.5 45t8.5 42q1 3 2 9t2 9.5t2 9t1.5 9t0.5 7t-1 5t-2 1.5
q-7 0 -29 -36q-19 -33 -61 -101q-6 -9 -20 -5q-3 3 -3 5q79 126 166 291q11 21 15.5 29t12.5 20t14.5 16.5t14.5 4.5q20 0 20 -21q0 -1 -14.5 -41.5t-38.5 -123.5t-43 -175l-11 -54q13 16 43 53t45 55t42 51t43 50.5t38.5 42.5t38 38.5t32 27.5t29.5 20t23 6q40 0 40 -53
q0 -43 -69 -293q-7 -28 4 -28t31 32q62 102 125 174t100 72q36 0 36 -45q0 -33 -32 -164t-32 -168t24 -37q23 0 58.5 31t70 76.5t53.5 72t28 40.5q5 8 19 5q4 -3 4 -5q-6 -10 -17 -27t-42 -61t-59.5 -77t-63.5 -60.5t-61 -27.5q-71 0 -71 83q0 43 30.5 169t30.5 146
q0 14 -7 14q-29 0 -151 -185.5t-140 -251.5q-4 -14 -24 -14q-35 0 -35 18t69.5 248.5t69.5 262.5q0 20 -11 20zM-124 -321q28 0 53.5 31.5t47.5 92t39 124.5t36 153q-87 -112 -144.5 -216.5t-57.5 -153.5q0 -31 26 -31zM277 873q9 0 16 -7.5t7 -19.5q0 -17 -18.5 -42.5
t-33.5 -25.5q-10 0 -10 23q0 24 11 48t28 24z" />
    <glyph glyph-name="j_r" unicode="jr" horiz-adv-x="713" 
d="M223 628q20 0 20 -21q0 -1 -14.5 -41.5t-38.5 -123.5t-43 -175q-14 -69 -19 -92q44 21 78 21q22 0 38.5 -5t21.5 -11l6 -5q3 -3 -6 -7q-10 -3 -15 -1q-14 8 -45 8q-38 0 -83 -25q-23 -110 -44.5 -187.5t-53 -156t-73 -119.5t-91.5 -41q-71 0 -71 70q0 81 85.5 211
t188.5 208q4 20 12.5 64.5t13.5 67.5q3 15 9.5 45t8.5 42q1 3 2 9t2 9.5t2 9t1.5 9t0.5 7t-1 5t-2 1.5q-7 0 -29 -36q-11 -17 -31 -51t-30 -50q-6 -9 -20 -5q-3 3 -3 5q43 69 166 291q30 55 41 64q8 6 16 6zM713 267q5 8 19 5q4 -3 4 -5q-6 -11 -15.5 -29t-38.5 -64t-57 -81
t-64.5 -64t-65.5 -29q-39 0 -61.5 29.5t-22.5 74.5q0 56 27 136t54 146t27 90q0 14 -13.5 23.5t-37 23t-38.5 27.5q-48 -167 -115 -283q-5 -9 -20 -5q-3 3 -3 5q71 123 120 304q-25 37 -25 95q0 37 14 61.5t39 24.5q23 0 23 -37t-26 -139q13 -15 37 -28.5t41 -22t30.5 -28
t13.5 -47.5q0 -39 -45.5 -174t-45.5 -181q0 -62 38 -62q68 0 207 234zM-144 -321q36 0 67 33.5t55.5 98t42 131.5t36.5 162q-90 -77 -163.5 -197t-73.5 -185q0 -43 36 -43zM277 873q9 0 16 -7.5t7 -19.5q0 -17 -18.5 -42.5t-33.5 -25.5q-10 0 -10 23q0 24 11 48t28 24z" />
    <glyph glyph-name="j_s" unicode="js" horiz-adv-x="728" 
d="M223 628q20 0 20 -21q0 -1 -14.5 -41.5t-38.5 -123.5t-43 -175q-14 -69 -19 -92q44 21 78 21q22 0 38.5 -5t21.5 -11l6 -5q3 -3 -6 -6q-10 -4 -15 -2q-14 8 -45 8q-38 0 -83 -25q-23 -110 -44.5 -187.5t-53 -156t-73 -119.5t-91.5 -41q-71 0 -71 70q0 81 85.5 211
t188.5 208q4 20 12.5 64.5t13.5 67.5q3 15 9.5 45t8.5 42q1 3 2 9t2 9.5t2 9t1.5 9t0.5 7t-1 5t-2 1.5q-7 0 -29 -36q-5 -8 -27 -44.5t-34 -56.5q-5 -6 -14 -6q-8 2 -9 6q78 124 166 291q19 36 31.5 53t25.5 17zM-144 -321q36 0 67 33.5t55.5 98t42 131.5t36.5 162
q-90 -77 -163.5 -197t-73.5 -185q0 -43 36 -43zM277 873q9 0 16 -7.5t7 -19.5q0 -17 -18.5 -42.5t-33.5 -25.5q-10 0 -10 23q0 24 11 48t28 24zM476 519q-7 0 -26 -35q-54 -97 -125 -217q-6 -9 -20 -5q-3 3 -3 5q103 171 180 324q0 166 60 166q27 0 27 -29q0 -19 -65 -144
v-6q0 -59 30 -169q49 33 97 33q30 0 54 -8t33 -16l9 -8q2 -3 -3 -3q-9 -1 -18 3q-26 12 -75 12q-46 0 -92 -33q23 -88 23 -155q0 -126 -48 -213t-113 -87q-72 0 -72 94q0 79 49.5 183.5t120.5 169.5q-9 81 -13 115q-3 23 -10 23zM503 306q0 17 -2 51q-62 -63 -105 -162.5
t-43 -166.5q0 -60 36 -60q48 0 81 101t33 237z" />
    <glyph glyph-name="j_v" unicode="jv" horiz-adv-x="833" 
d="M441 450q-27 0 -123.5 -86t-190.5 -193q-19 -89 -35 -155t-39.5 -140t-47.5 -121t-56.5 -78t-67.5 -31q-59 0 -59 56q0 62 67.5 177t171.5 243l29 145q3 15 9.5 45t8.5 42q1 3 2 9t2 9.5t2 9t1.5 9t0.5 7t-1 5t-2 1.5q-7 0 -29 -36q-5 -8 -27 -44.5t-34 -56.5
q-6 -9 -20 -5q-3 3 -3 5q101 160 166 291q18 36 30.5 53t26.5 17q20 0 20 -21q0 -1 -14.5 -41.5t-38.5 -123.5t-43 -175l-12 -58q101 113 195 193.5t130 80.5q39 0 39 -43q0 -32 -46 -173.5t-46 -189.5q0 -55 35 -55q44 0 89.5 62t77.5 145t52 172q-33 71 -33 135
q0 67 39 67q38 0 38 -81q0 -45 -15 -118q42 -85 92 -85q67 0 132 118q4 8 18 4q5 -2 5 -4q-3 -6 -7.5 -15.5t-21 -34.5t-33.5 -44t-43.5 -34.5t-52.5 -15.5q-54 0 -99 72q-37 -145 -105.5 -261t-138.5 -116q-85 0 -85 108q0 51 24 130t48 141.5t24 74.5q0 8 -6 8zM-124 -321
q28 0 53.5 31.5t47.5 92t39 124.5t36 153q-87 -112 -144.5 -216.5t-57.5 -153.5q0 -31 26 -31zM277 873q9 0 16 -7.5t7 -19.5q0 -17 -18.5 -42.5t-33.5 -25.5q-10 0 -10 23q0 24 11 48t28 24z" />
    <glyph glyph-name="j_w" unicode="jw" horiz-adv-x="1066" 
d="M464 540q-9 0 -25 -11.5t-39.5 -35.5t-46 -49t-55 -64t-56 -68t-60 -73.5t-55.5 -67.5q-19 -89 -35 -155t-39.5 -140t-47.5 -121t-56 -78t-68 -31q-59 0 -59 56q0 62 67.5 177t171.5 243l29 145q3 15 9.5 45t8.5 42q1 3 2 9t2 9.5t2 9t1.5 9t0.5 7t-1 5t-2 1.5
q-7 0 -29 -36q-5 -8 -27 -44.5t-34 -56.5q-6 -9 -20 -5q-3 3 -3 5q62 99 166 291q11 21 15.5 29t12.5 20t14.5 16.5t14.5 4.5q20 0 20 -21q0 -1 -14.5 -41.5t-38.5 -123.5t-43 -175l-11 -54q169 208 224 266q89 94 126 94q40 0 40 -50q0 -43 -54 -197.5t-54 -206.5
q0 -38 26 -38q24 0 57 35.5t66.5 92t54 94.5t38.5 76q12 24 20.5 33t23.5 9q23 0 23 -27q0 -4 -28.5 -123t-28.5 -179q0 -73 40 -73t83 69.5t74.5 164.5t48.5 192q-36 74 -36 142t37 68q39 0 39 -97q0 -52 -12 -116q45 -81 106 -81q58 0 107 89q4 8 19 4q4 -2 4 -4
q-2 -5 -6 -12.5t-17 -26.5t-27 -34t-36 -27t-44 -12q-63 0 -113 70q-20 -100 -55.5 -194t-84 -161.5t-93.5 -67.5q-86 0 -86 146q0 25 4 69q2 22 2.5 25t-1.5 17q-5 0 -31 -42q-93 -153 -164 -153q-69 0 -69 78q0 58 56.5 218t56.5 183q0 14 -8 14zM-124 -321
q28 0 53.5 31.5t47.5 92t39 124.5t36 153q-87 -112 -144.5 -216.5t-57.5 -153.5q0 -31 26 -31zM277 873q9 0 16 -7.5t7 -19.5q0 -17 -18.5 -42.5t-33.5 -25.5q-10 0 -10 23q0 24 11 48t28 24z" />
    <glyph glyph-name="j_x" unicode="jx" horiz-adv-x="805" 
d="M440 450q-27 0 -123 -86t-190 -193q-19 -89 -35 -155t-39.5 -140t-47.5 -121t-56.5 -78t-67.5 -31q-59 0 -59 56q0 62 67.5 177t171.5 243l29 145q3 15 9.5 45t8.5 42q1 3 2 9t2 9.5t2 9t1.5 9t0.5 7t-1 5t-2 1.5q-7 0 -29 -36q-11 -17 -31 -51t-30 -50q-6 -9 -20 -5
q-3 3 -3 5q62 99 166 291q11 21 15.5 29t12.5 20t14.5 16.5t14.5 4.5q20 0 20 -21q0 -1 -14.5 -41.5t-38.5 -123.5t-43 -175l-12 -58q101 113 195 193.5t130 80.5q32 0 49.5 -36t28.5 -101q20 25 47 61t42.5 56.5t33.5 41.5t30.5 30.5t22.5 9.5q13 0 16 -9.5t-3 -16.5
q-3 -4 -31 -34.5t-73.5 -80.5t-79.5 -89q20 -126 33 -161q22 -53 58 -54q71 0 171 167q4 8 19 4q4 -2 4 -4q-4 -8 -11.5 -21.5t-30.5 -48t-46 -61t-55.5 -48t-61.5 -21.5q-103 0 -138 178q-24 -30 -52 -69.5t-46.5 -65t-37.5 -49.5t-33 -35.5t-25 -11.5q-10 0 -14 6t1 14
q16 24 202 243q-4 22 -8 51.5t-6.5 48.5t-6 37t-8 27t-11.5 9zM-124 -321q28 0 53.5 31.5t47.5 92t39 124.5t36 153q-87 -112 -144.5 -216.5t-57.5 -153.5q0 -31 26 -31zM277 873q9 0 16 -7.5t7 -19.5q0 -17 -18.5 -42.5t-33.5 -25.5q-10 0 -10 23q0 24 11 48t28 24z" />
    <glyph glyph-name="j_y" unicode="jy" horiz-adv-x="828" 
d="M420 450q42 0 42 -42q0 -28 -42.5 -138t-42.5 -142q0 -20 14 -20q32 0 81.5 56t96 134.5t76 133t40.5 79.5q14 31 23.5 41.5t22.5 10.5q16 0 19 -13.5t-2 -19.5q-30 -71 -89.5 -244t-86.5 -245q34 -1 60 -9t35 -16l9 -7q1 -1 -1 -2l-20 2q-41 9 -91 9q-34 -86 -66 -151
t-71 -122.5t-82.5 -87.5t-90.5 -30q-72 0 -72 69q0 90 101 203.5t229 136.5q34 87 63 168q1 2 2.5 7.5t3 9t3.5 10t3 11t2.5 10t2.5 9.5t1 7.5t-0.5 5t-2.5 1.5q-8 0 -22 -22q-118 -179 -187 -179q-55 0 -55 66q0 46 38 146.5t38 112.5t-10 12q-24 0 -99.5 -68.5
t-165.5 -171.5q-19 -89 -35 -155t-39.5 -140t-47.5 -121t-56.5 -78t-67.5 -31q-59 0 -59 56q0 62 67.5 177t171.5 243l29 145q3 15 9.5 45t8.5 42q1 3 2 9t2 9.5t2 9t1.5 9t0.5 7t-1 5t-2 1.5q-7 0 -29 -36q-11 -17 -31 -51t-30 -50q-6 -9 -20 -5q-3 3 -3 5q79 126 166 291
q11 21 15.5 29t12.5 20t14.5 16.5t14.5 4.5q20 0 20 -21q0 -1 -14.5 -41.5t-38.5 -123.5t-43 -175l-12 -57q94 106 172.5 173t112.5 67zM243 -340q114 0 259 351q-61 -13 -117.5 -52t-93.5 -86t-58.5 -94t-21.5 -79q0 -40 32 -40zM-124 -321q28 0 53.5 31.5t47.5 92
t39 124.5t36 153q-87 -112 -144.5 -216.5t-57.5 -153.5q0 -31 26 -31zM277 873q9 0 16 -7.5t7 -19.5q0 -17 -18.5 -42.5t-33.5 -25.5q-9 4 -10 25t10.5 45.5t28.5 24.5z" />
    <glyph glyph-name="k_f" unicode="kf" horiz-adv-x="757" 
d="M797 360q4 8 18 5q4 -3 5 -5q-10 -29 -60 -73.5t-123 -44.5q-31 0 -50 6q12 -31 12 -88q0 -92 -24 -204.5t-65.5 -196.5t-83.5 -84q-63 0 -63 126q0 51 7 104q-35 6 -71.5 43t-62 79.5t-51.5 101t-36 86t-19 55.5q-2 4 -2 12.5t3 8.5q55 0 108.5 76.5t53.5 129.5
q0 27 -19 27q-37 0 -97 -97.5t-102.5 -194.5t-64.5 -161q-10 -29 -16 -36t-20 -7q-19 0 -20 23q0 11 1.5 23.5t7 39.5t12.5 55.5t21 90.5t28 126q119 532 232 532q42 0 42 -53q0 -108 -220 -500v-2l-10 -40q-5 -19 -7.5 -33t1.5 -17q6 0 23 33q120 251 206 251q60 0 60 -61
t-54.5 -133t-126.5 -91l2 -3q16 -34 43.5 -86.5t77 -130t83.5 -103.5q24 148 83 378q35 140 61 227.5t58 168.5t65.5 118.5t71.5 37.5q48 0 48 -52q0 -120 -240 -481l-6 -26q-103 -457 -103 -563q0 -49 17 -49q45 0 93.5 163t48.5 289q0 104 -33 104l2 23q6 0 36 -10.5
t59 -10.5q52 0 95 27t65 67zM715 846q-72 0 -178 -438q81 130 139 247t58 165q0 26 -19 26zM255 885q-19 0 -40.5 -40.5t-44.5 -118.5t-38 -137t-36 -149q177 330 177 416q0 29 -18 29z" />
    <glyph glyph-name="k_j" unicode="kj" horiz-adv-x="837" 
d="M510 267q-39 -63 -60.5 -95.5t-57 -80t-64 -69.5t-53.5 -22q-42 0 -69 42t-35.5 92t-17.5 92t-20 42q-5 0 -5 13q0 10 3 10q55 0 108.5 76.5t53.5 129.5q0 27 -19 27q-37 0 -97 -96.5t-103.5 -196t-63.5 -160.5q-10 -29 -16 -36t-20 -7q-19 0 -20 23q0 11 1.5 23.5
t7 39.5t12.5 55.5t21 90.5t28 126q119 532 232 532q42 0 42 -53q0 -108 -220 -500q-2 -10 -12 -51q-5 -20 -6.5 -29t2.5 -12q6 0 23 33q120 251 206 251q60 0 60 -61t-54.5 -133t-125.5 -90q24 -24 43 -85.5t34.5 -108t35.5 -46.5q35 0 84.5 61.5t118.5 172.5
q34 54 69 115.5t64.5 116.5t32.5 59q3 5 7.5 13t7 12.5t6 11t6 10t5.5 8t6 6.5t6 4.5t6.5 3.5t6.5 1q20 0 20 -21q0 -1 -14.5 -41.5t-38.5 -123.5t-43 -175q-14 -69 -19 -92q44 21 78 21q22 0 38.5 -5t22.5 -11l5 -5q3 -3 -6 -6q-10 -4 -15 -2q-16 8 -45 8q-38 0 -83 -25
q-23 -110 -44.5 -187.5t-53 -156t-73 -119.5t-91.5 -41q-71 0 -71 70q0 81 85.5 211t188.5 208q4 20 12.5 64.5t13.5 67.5q3 15 9.5 45t8.5 42q1 3 2 9t2 9.5t2 9t1.5 9t0.5 7t-1 5t-2 1.5q-7 0 -29 -36q-11 -17 -31 -51t-30 -50zM343 -321q36 0 67 33.5t55.5 98t42 131.5
t36.5 162q-90 -76 -163.5 -196.5t-73.5 -185.5q0 -43 36 -43zM255 885q-19 0 -40.5 -40.5t-44.5 -118.5t-38 -137t-36 -149q177 330 177 416q0 29 -18 29zM764 873q9 0 16 -7.5t7 -19.5q0 -17 -18.5 -42.5t-33.5 -25.5q-10 0 -10 23q0 24 11 48t28 24z" />
    <glyph glyph-name="k_m" unicode="km" horiz-adv-x="1333" 
d="M630 425q-21 0 -120 -158q-39 -63 -60.5 -95.5t-57 -80t-64 -69.5t-53.5 -22q-42 0 -69 42t-35.5 92t-17.5 92t-20 42q-5 0 -5 13q0 10 3 10q55 0 108.5 76.5t53.5 129.5q0 27 -19 27q-28 0 -70 -56t-81 -136.5t-68.5 -148.5t-44.5 -112q-11 -29 -16.5 -36t-19.5 -7
q-19 0 -20 23q0 11 1.5 23.5t7 39.5t12.5 55.5t21 90.5t28 126q119 532 232 532q42 0 42 -53q0 -108 -220 -500q-4 -16 -10 -42q-5 -21 -7 -32.5t1 -17.5q6 0 23 33q120 251 206 251q60 0 60 -61t-54.5 -133t-125.5 -90q24 -24 43 -85.5t34.5 -108t35.5 -46.5
q19 0 42.5 18.5t53.5 58.5t51 71t56 86q78 122 104 152q35 39 61 39q32 0 32 -47q0 -21 -14 -79q-1 -6 -4 -15.5t-4.5 -15.5t-2.5 -12.5t-0.5 -9.5t2.5 -3q10 0 39 51q135 241 208 241q50 0 50 -62q0 -34 -26 -151q-8 -34 2 -34q7 0 21 22q105 161 168 161q46 0 46 -55
q0 -32 -36.5 -175t-36.5 -198q0 -43 20 -43q29 0 83.5 58.5t94.5 116.5l39 59q5 8 19 5q4 -3 4 -5q-6 -11 -17.5 -29t-44 -64t-61.5 -81t-65 -64t-61 -29q-68 0 -68 92q0 56 36 190.5t36 164.5q0 24 -12 24q-30 0 -107.5 -111t-123.5 -219q-12 -29 -30 -29q-10 0 -17 5.5
t-7 14.5q0 26 45.5 182t45.5 191q0 30 -19 30q-11 0 -25.5 -11.5t-32.5 -35t-35.5 -49t-40 -65.5t-39.5 -71t-41.5 -78.5t-39 -76t-38 -76t-32.5 -65.5q-4 -8 -12 -8q-14 0 -24.5 6.5t-10.5 16.5q0 19 60.5 188.5t60.5 201.5q0 13 -6 13zM255 885q-19 0 -40.5 -40.5
t-44.5 -118.5t-38 -137t-36 -149q177 330 177 416q0 29 -18 29z" />
    <glyph glyph-name="k_n" unicode="kn" horiz-adv-x="1101" 
d="M650 515q-27 0 -163 -248q-26 -48 -36.5 -67t-34 -59.5t-37.5 -58t-34 -41t-37 -32.5t-33 -9q-42 0 -69 42t-35.5 92t-17.5 92t-20 42q-5 0 -5 13q0 10 3 10q55 0 108.5 76.5t53.5 129.5q0 27 -19 27q-28 0 -69.5 -56t-81 -136.5t-68.5 -148t-45 -112.5
q-11 -29 -16.5 -36t-19.5 -7q-19 0 -20 23q0 11 1.5 23.5t7 39.5t12.5 55.5t21 90.5t28 126q119 532 232 532q42 0 42 -53q0 -108 -220 -500q-6 -27 -12 -51q-9 -41 -4 -41q7 0 23 33q120 251 206 251q60 0 60 -61t-54.5 -133t-125.5 -90q24 -24 43 -85.5t34.5 -108
t35.5 -46.5q19 0 39 17t46.5 57.5t43 69.5t50.5 90q98 179 136 230q46 59 76 60q30 0 30 -50q0 -36 -64 -273q-3 -13 -4.5 -20t-3 -15.5t0 -12t5.5 -3.5q11 0 31 32q64 103 126 174.5t99 71.5q36 0 36 -45q0 -33 -32 -164t-32 -168t24 -37q30 0 82.5 55t90.5 110l37 55
q6 8 19 5q4 -3 4 -5q-6 -10 -17 -27t-42 -61t-59.5 -77t-63.5 -60.5t-61 -27.5q-71 0 -71 83q0 43 30.5 169t30.5 146q0 14 -7 14q-29 0 -151 -185.5t-140 -251.5q-4 -14 -24 -14q-35 0 -35 18q0 17 70 249.5t70 262.5q0 10 -4 10zM255 885q-19 0 -40.5 -40.5t-44.5 -118.5
t-38 -137t-36 -149q177 330 177 416q0 29 -18 29z" />
    <glyph glyph-name="k_r" unicode="kr" horiz-adv-x="854" 
d="M854 267q5 8 19 5q4 -3 4 -5q-6 -11 -15.5 -29t-38.5 -64t-57 -81t-64.5 -64t-65.5 -29q-39 0 -61.5 29.5t-22.5 74.5q0 56 27 136t54 146t27 90q0 14 -12.5 23.5t-36 22.5t-38.5 26q-24 -87 -58 -179.5t-74.5 -176.5t-84.5 -138t-81 -54q-42 0 -69 42t-35.5 92t-17.5 92
t-20 42q-3 0 -4 6t-0.5 11.5t2.5 5.5q55 0 108.5 76.5t53.5 129.5q0 27 -19 27q-28 0 -70 -56t-81 -135.5t-68.5 -149t-44.5 -112.5q-10 -29 -16 -36t-20 -7q-19 0 -20 23q0 11 1.5 23.5t7 39.5t12.5 55.5t21 90.5t28 126q119 532 232 532q42 0 42 -53q0 -108 -220 -500
q-2 -8 -5 -21t-5 -21q-5 -20 -7 -32.5t1 -17.5q6 0 23 33q122 251 206 251q60 0 60 -61t-54.5 -133t-125.5 -90q24 -24 43 -85.5t34.5 -108t35.5 -46.5q38 0 93.5 93.5t101.5 213t76 229.5q-27 37 -27 97q0 37 14 61.5t39 24.5q23 0 23 -37q0 -45 -24 -141q15 -16 48.5 -33
t52.5 -36.5t19 -54.5q0 -39 -45.5 -174t-45.5 -181q0 -62 38 -62q65 0 207 234zM255 885q-19 0 -40.5 -40.5t-44.5 -118.5t-38 -137t-36 -149q177 330 177 416q0 29 -18 29z" />
    <glyph glyph-name="k_s" unicode="ks" horiz-adv-x="873" 
d="M68 323q-13 -50 -6 -50q8 0 23 33q118 251 206 251q60 0 60 -61t-54.5 -133t-125.5 -90q24 -24 43 -85.5t34.5 -108t35.5 -46.5q32 0 71.5 59t96.5 175q140 287 151 312v8q0 170 60 170q27 0 27 -29q0 -19 -65 -154q1 -58 44 -177q56 45 112 45q30 0 54 -8t33 -16l9 -8
q2 -3 -3 -3q-9 -1 -18 3q-27 12 -75 12q-52 0 -106 -44q37 -104 37 -184q0 -111 -50 -185.5t-111 -74.5q-72 0 -72 94q0 76 46 177t114 167q-5 26 -14 64q-3 13 -6 27.5t-4.5 21.5t-3.5 14t-3.5 9.5t-4.5 2.5q-9 0 -26 -35l-102 -209q-32 -68 -52.5 -107t-47 -81t-51 -60.5
t-49.5 -18.5q-42 0 -69 42t-35.5 92t-17.5 92t-20 42q-5 0 -5 13q0 10 3 10q55 0 108.5 76.5t53.5 129.5q0 27 -19 27q-28 0 -69.5 -56t-81 -136.5t-68.5 -148t-45 -112.5q-11 -29 -16.5 -36t-19.5 -7q-20 0 -20 23q0 11 1.5 23.5t7.5 39.5t12.5 55t20.5 91l28 126
q119 532 232 532q42 0 42 -53q0 -108 -220 -500q-2 -8 -5 -21t-5 -21zM653 266q0 31 -9 83q-60 -64 -100.5 -160t-40.5 -161q0 -60 36 -60q45 0 79.5 90.5t34.5 207.5zM255 885q-19 0 -40.5 -40.5t-44.5 -118.5t-38 -137t-36 -149q177 330 177 416q0 29 -18 29z" />
    <glyph glyph-name="k_v" unicode="kv" horiz-adv-x="1035" 
d="M648 450q-24 0 -138 -183q-39 -63 -60.5 -95.5t-57 -80t-64 -69.5t-53.5 -22q-42 0 -69 42t-35.5 92t-17.5 92t-20 42q-5 0 -5 14q0 9 3 9q55 0 108.5 76.5t53.5 129.5q0 27 -19 27q-28 0 -69.5 -56t-81 -136t-68.5 -148t-45 -113q-11 -29 -16.5 -36t-19.5 -7
q-19 0 -20 23q0 11 1.5 23.5t7 39.5t12.5 55.5t21 90.5t28 126q119 532 232 532q42 0 42 -53q0 -108 -220 -500q-1 -7 -10 -42q-1 -2 -3 -10t-3 -13.5t-2.5 -12.5t-1 -10.5t3.5 -3.5q7 0 23 33q120 251 206 251q60 0 60 -61t-54.5 -133t-125.5 -90q24 -24 43 -85.5
t34.5 -108t35.5 -46.5q19 0 42.5 18.5t53.5 58.5t51 71t56 86q86 134 114 168q40 48 66 48q33 0 33 -43q0 -38 -45.5 -173t-45.5 -190t35 -55q44 0 89.5 62t77.5 145t52 172q-33 71 -33 135q0 67 39 67q38 0 38 -81q0 -45 -15 -118q42 -85 92 -85q39 0 74.5 36.5t57.5 81.5
q3 8 18 4q5 -2 5 -4q-3 -6 -7.5 -15.5t-21 -34.5t-33.5 -44t-43.5 -34.5t-52.5 -15.5q-54 0 -99 72q-37 -145 -105.5 -261t-138.5 -116q-85 0 -85 108q0 54 25 135t50 143.5t25 69.5q0 6 -5 6zM255 885q-19 0 -40.5 -40.5t-44.5 -118.5t-38 -137t-36 -149q177 330 177 416
q0 29 -18 29z" />
    <glyph glyph-name="k_w" unicode="kw" horiz-adv-x="1257" 
d="M657 531q-9 0 -26 -21t-44 -66t-46.5 -80t-53.5 -97q-26 -48 -36.5 -67t-34 -59.5t-37.5 -58t-34 -41t-37 -32.5t-33 -9q-42 0 -69 42t-35.5 92t-17.5 92t-20 42q-5 0 -5 13q0 10 3 10q55 0 108.5 76.5t53.5 129.5q0 27 -19 27q-37 0 -97 -97.5t-102.5 -194.5t-64.5 -161
q-10 -29 -16 -36t-20 -7q-19 0 -20 23q0 11 1.5 23.5t7 39.5t12.5 55.5t21 90.5t28 126q119 532 232 532q42 0 42 -53q0 -108 -220 -500l-12 -51q-9 -41 -4 -41q6 0 23 33q119 251 206 251q60 0 60 -61t-54.5 -133t-125.5 -90q24 -24 43 -85.5t34.5 -108t35.5 -46.5
q19 0 39 17t46.5 57.5t43 69.5t50.5 90l18 33q36 66 56 100.5t50 82t53 69t42 21.5q35 0 35 -46q0 -53 -54 -204.5t-54 -203.5q0 -38 26 -38q69 0 216 298q12 24 20.5 33t23.5 9q23 0 23 -27q0 -4 -28.5 -123t-28.5 -179q0 -73 40 -73t83 69.5t74.5 164.5t48.5 192
q-36 74 -36 142t37 68q39 0 39 -97q0 -52 -12 -116q45 -81 106 -81q58 0 107 89q4 8 19 4q4 -2 4 -4q-2 -5 -6 -12.5t-17 -26.5t-27 -34t-36 -27t-44 -12q-63 0 -113 70q-20 -100 -55.5 -194t-84 -161.5t-93.5 -67.5q-86 0 -86 146q0 33 3 66q0 5 1 12.5t2 12.5t1 10
t-0.5 7.5t-1.5 2.5q-5 0 -31 -42q-93 -153 -164 -153q-69 0 -69 78q0 56 56 216t56 181q0 9 -5 9zM255 885q-19 0 -40.5 -40.5t-44.5 -118.5t-38 -137t-36 -149q177 330 177 416q0 29 -18 29z" />
    <glyph glyph-name="k_y" unicode="ky" horiz-adv-x="1035" 
d="M608 411q-4 0 -10 -6t-15.5 -21t-18.5 -29t-25.5 -41t-28.5 -47q-39 -63 -60.5 -95.5t-57 -80t-64 -69.5t-53.5 -22q-42 0 -69 42t-35.5 92t-17.5 92t-20 42q-5 0 -5 14q0 9 2 9h1q55 0 108.5 76.5t53.5 129.5q0 27 -19 27q-37 0 -97 -97.5t-102 -193.5t-65 -162
q-10 -29 -16 -36t-20 -7q-19 0 -20 23q0 11 1.5 23.5t7 39.5t12.5 55.5t21 90.5t28 126q119 532 232 532q42 0 42 -53q0 -108 -220 -500q-1 -8 -10 -42q-1 -2 -3 -10t-3 -13.5t-2.5 -12.5t-1 -10.5t3.5 -3.5q8 0 23 33q118 251 206 251q60 0 60 -61t-54.5 -133t-125.5 -90
q24 -24 43 -85.5t34.5 -108t35.5 -46.5q19 0 42.5 18.5t53.5 58.5t51 71t56 86q12 18 34.5 55.5t33 53t26.5 37t29 29.5t26 8q33 0 33 -37q0 -35 -42.5 -144.5t-42.5 -140.5q0 -20 14 -20q32 0 79 52t92.5 129t76 133t48.5 95q13 26 22 36t22 10q16 0 19 -13.5t-2 -19.5
q-30 -71 -89.5 -244t-86.5 -245q34 -1 60 -9t35 -16l9 -7l-10 -1q-7 0 -11 1q-40 9 -91 9q-34 -86 -66 -151t-71 -122.5t-82.5 -87.5t-90.5 -30q-72 0 -72 69q0 90 101 203.5t229 136.5q25 62 69 185q8 23 10.5 37t-1.5 17q-7 0 -21 -20q-119 -181 -188 -181q-55 0 -55 66
q0 52 39.5 151t39.5 114q0 6 -4 6zM450 -340q114 0 259 351q-61 -13 -117.5 -52t-93.5 -86t-58.5 -94t-21.5 -79q0 -40 32 -40zM255 885q-19 0 -40.5 -40.5t-44.5 -118.5t-38 -137t-36 -149q177 330 177 416q0 29 -18 29z" />
    <glyph glyph-name="k_z" unicode="kz" horiz-adv-x="908" 
d="M700 493q-17 0 -40.5 -19.5t-50.5 -56.5t-46 -66t-45 -71q-5 -9 -8 -13q-39 -63 -60.5 -95.5t-57 -80t-64 -69.5t-53.5 -22q-42 0 -69 42t-35.5 92t-17.5 92t-20 42q-5 0 -5 13q0 10 3 10q55 0 108.5 76.5t53.5 129.5q0 27 -19 27q-37 0 -97 -97.5t-102.5 -194.5
t-64.5 -161q-10 -29 -16 -36t-20 -7q-19 0 -20 23q0 11 1.5 23.5t7 39.5t12.5 55.5t21 90.5t28 126q119 532 232 532q42 0 42 -53q0 -108 -220 -500q-2 -9 -5.5 -23.5t-4.5 -18.5q-5 -21 -6.5 -30t0.5 -20q8 0 23 33q50 108 104 179.5t102 71.5q60 0 60 -61t-54.5 -133
t-125.5 -90q24 -24 43 -85.5t34.5 -108t35.5 -46.5q19 0 42.5 18.5t53.5 58.5t51 71t56 86q8 13 27.5 45t32 50.5t32 47t35 46t34.5 35.5t37.5 26.5t36.5 8.5q35 0 53 -22t18 -60q0 -68 -55.5 -148.5t-126.5 -109.5q29 -10 48 -30q49 19 92 19q22 0 38.5 -5.5t22.5 -10.5
l5 -5q3 -3 -6 -6q-10 -4 -15 -2q-16 8 -46 8q-38 0 -77 -14q35 -45 35 -120q0 -87 -43 -179t-116 -154t-149 -62q-77 0 -77 80q0 99 94.5 238t213.5 200q-26 32 -74 32q-9 0 -14.5 6t-5.5 12q0 5 4 5q70 0 132.5 89.5t62.5 159.5q0 46 -36 46zM654 56q0 43 -13 70
q-76 -37 -145.5 -117.5t-108 -162.5t-38.5 -137q0 -51 40 -51q56 0 119 66t104.5 160t41.5 172zM255 885q-19 0 -40.5 -40.5t-44.5 -118.5t-38 -137t-36 -149q177 330 177 416q0 29 -18 29z" />
    <glyph glyph-name="l_l" unicode="ll" horiz-adv-x="590" 
d="M590 267q4 9 19 5q4 -3 4 -5q-6 -13 -17.5 -33.5t-44 -73.5t-63.5 -93.5t-71 -74t-71 -33.5q-81 0 -83 199q-109 -141 -174 -141q-49 0 -71.5 46t-22.5 141q0 132 32 284.5t88 264t115 111.5q49 0 49 -62q0 -74 -63 -213t-154 -286q-5 -49 -5 -112q0 -141 51 -141
q50 0 155 151q5 132 37.5 276t86.5 247.5t111 103.5q49 0 49 -62q0 -75 -64.5 -225.5t-153.5 -288.5q-4 -45 -4 -97q0 -75 10.5 -119t29.5 -44q30 0 84 65.5t90 123t51 86.5zM519 756q0 39 -27 39q-45 0 -91 -151.5t-66 -332.5q77 129 130.5 254.5t53.5 190.5zM224 831
q-44 0 -90 -148t-67 -328q77 132 130.5 256t53.5 181q0 39 -27 39z" />
    <glyph glyph-name="l_t" unicode="lt" horiz-adv-x="593" 
d="M106 17q9 0 22.5 10t27.5 25t31 37t31 41.5t30 44t25.5 40t20 32.5t11.5 18q17 173 80 345q-78 2 -97 6q-4 0 -4.5 5.5t2 10t6.5 4.5q37 -4 102 -4q33 84 68.5 133.5t66.5 49.5t31 -43q0 -44 -37 -138q72 5 119 16q4 1 7 -3.5t3 -10t-4 -6.5q-61 -14 -134 -18
q-56 -130 -136 -265q-17 -116 -17 -190q0 -124 35 -124t104 93.5t93 140.5q4 9 19 5q4 -3 4 -5q-6 -11 -16 -29t-39 -64t-57 -81t-64 -64t-64 -29q-37 0 -56 47.5t-19 131.5q0 26 1 40q-30 -52 -61.5 -98t-76.5 -91.5t-77 -45.5q-47 0 -70 59t-23 158q0 132 32 284.5t88 264
t115 111.5q49 0 49 -62q0 -74 -63 -213t-154 -286q-5 -49 -5 -112q0 -171 50 -171zM223 828q-44 0 -90 -148t-67 -328q77 132 130.5 256t53.5 181q0 39 -27 39zM523 782q-30 0 -78 -150q33 0 50 1q37 90 37 130q0 19 -9 19zM437 610q-31 -108 -49 -206q58 110 98 207
q-16 -1 -49 -1z" />
    <glyph glyph-name="m_m" unicode="mm" horiz-adv-x="1691" 
d="M1058 330q138 238 208 238q50 0 50 -62q0 -42 -26 -151q-8 -34 2 -34q6 0 21 21q104 162 168 162q46 0 46 -55q0 -32 -36.5 -175t-36.5 -198q0 -43 20 -43q29 0 83.5 58.5t94.5 116.5l39 59q5 8 19 5q4 -3 4 -5q-6 -11 -17.5 -29t-44 -64t-61.5 -81t-65 -64t-61 -29
q-68 0 -68 92q0 56 36 190.5t36 164.5q0 24 -12 24q-30 0 -107.5 -112t-123.5 -218q-12 -29 -30 -29q-10 0 -17 5.5t-7 14.5q0 26 45.5 182t45.5 191q0 30 -19 30q-15 0 -37.5 -22t-51.5 -67t-54 -87t-61 -110t-55 -105.5t-52 -103.5l-6 -12q-4 -8 -12 -8q-14 0 -24.5 6.5
t-10.5 16.5q0 19 57 178t57 191q0 13 -6 13q-15 0 -42 -39t-74 -119q-110 -191 -161 -254q-59 -73 -99 -73q-69 0 -69 101q0 70 44.5 245.5t44.5 220.5q0 28 -16 28q-31 0 -112 -139t-134 -255q-13 -29 -30 -29q-10 0 -17 5.5t-7 14.5q0 26 33.5 153t33.5 162q0 24 -12 24
q-38 0 -131.5 -148t-168.5 -316q-4 -8 -12 -8q-14 0 -24.5 6.5t-10.5 16.5q0 19 60.5 188.5t60.5 201.5q0 13 -6 13q-8 0 -19 -10.5t-28 -36t-30 -47l-39 -64.5q-4 -9 -19 -5q-4 3 -4 5q28 47 43.5 72t39 57.5t42.5 47t36 14.5q32 0 32 -47q0 -32 -26 -120q-5 -18 -6 -25.5
t3 -9.5q9 0 36 46q122 202 193 202q48 0 48 -51q0 -26 -6 -65q-1 -6 -2.5 -17t-2.5 -17t-1.5 -13t0 -10t2.5 -3q3 0 11.5 9t12.5 17q127 214 183 214q50 0 50 -60q0 -54 -45.5 -240.5t-45.5 -242.5q0 -52 26 -52q17 0 41 22.5t53.5 64.5t56 84.5t60.5 97.5q10 17 15 25
q76 125 104 156q32 35 57 35q32 0 32 -47q0 -26 -13 -75q-16 -56 -9 -56q11 0 38 50z" />
    <glyph glyph-name="n_n" unicode="nn" horiz-adv-x="1214" 
d="M763 455q-25 0 -116 -161q-11 -18 -16 -27q-43 -74 -74.5 -122t-74 -89.5t-75.5 -41.5q-71 0 -71 83q0 43 30.5 169t30.5 146q0 14 -7 14q-29 0 -151 -185.5t-140 -251.5q-4 -14 -24 -14q-35 0 -35 18q0 17 70 249.5t70 262.5q0 10 -4 10q-3 0 -12 -11.5t-26 -39.5
t-30.5 -51t-41.5 -71.5t-43 -74.5q-4 -9 -19 -5q-4 3 -4 5q18 31 46.5 81t46 81t39 63.5t38.5 48.5t31 16q30 0 30 -50q0 -43 -64 -273q-3 -13 -4.5 -20t-3 -15.5t0 -12t5.5 -3.5q11 0 31 32q63 102 125.5 174t99.5 72q36 0 36 -45q0 -33 -32 -164t-32 -168t24 -37
q37 0 85 59.5t107 160.5q6 10 17 29q29 49 44.5 74t38.5 57t42.5 46t37.5 14q29 0 29 -47q0 -45 -31 -154q-5 -20 -6.5 -27.5t2.5 -10.5q6 0 37 49q146 251 211 251q48 0 48 -56q0 -36 -36 -167.5t-36 -169.5q0 -55 36 -55q70 0 171 167q5 8 19 5q4 -3 4 -5
q-4 -8 -11.5 -21.5t-30 -48t-46 -61t-56 -48t-62.5 -21.5q-77 0 -77 99q0 59 37.5 190.5t37.5 143.5q0 15 -10 15q-31 0 -109.5 -118.5t-142.5 -238t-74 -148.5q-4 -11 -13 -11q-14 0 -24.5 6.5t-10.5 16.5q0 26 63 195t63 221q0 17 -8 17z" />
    <glyph glyph-name="o_b" unicode="ob" horiz-adv-x="855" 
d="M892 360q4 9 19 5q4 -3 4 -5q-3 -6 -7.5 -15.5t-21 -34.5t-33.5 -44t-43.5 -34.5t-52.5 -15.5q-24 0 -45 16q-23 -98 -64.5 -171.5t-89.5 -73.5q-130 0 -130 299q0 36 1 55q-11 -3 -21 -3q-68 0 -124 87q-16 -102 -47 -198.5t-76.5 -164.5t-90.5 -68q-43 0 -64 42
t-21 110q0 77 23 158.5t65.5 139.5t91.5 58q18 0 30 -10t15 -20l4 -11q1 -3 -3 -4q-9 -1 -14 4q-4 8 -19 8q-30 0 -63 -62t-54 -146t-21 -148q0 -86 40 -86q36 0 75 70.5t67 170t40 198.5q-37 77 -37 144q0 56 30 56q41 0 41 -110q0 -36 -7 -94q51 -101 118 -101q13 0 24 4
q9 129 39.5 250.5t81.5 204.5t107 83t56 -61q0 -75 -72 -234t-152 -231q-11 -86 -11 -158q0 -199 81 -199q29 0 56 37.5t44 88t29 108.5q-31 43 -31 99q0 66 35 66q34 0 34 -71q0 -34 -10 -89q19 -17 44 -17q23 0 45.5 14.5t40 37t27.5 37.5t17 29zM690 840q0 30 -21 30
q-45 0 -96 -141t-77 -316q70 76 132 218.5t62 208.5z" />
    <glyph glyph-name="o_b_e" unicode="obe" horiz-adv-x="1174" 
d="M1174 267q5 8 19 5q4 -3 4 -5q-5 -9 -13.5 -24.5t-35.5 -55t-55 -69.5t-69 -55t-79 -25q-61 0 -90.5 40t-29.5 107q0 26 5 61q-8 -1 -23 -1q-56 0 -99 30q-12 -109 -53.5 -198.5t-96.5 -89.5q-130 0 -130 299q0 36 1 55q-11 -3 -21 -3q-68 0 -124 87q-16 -102 -47 -198.5
t-76.5 -164.5t-90.5 -68q-43 0 -64 42t-21 110q0 77 23 158.5t65.5 139.5t91.5 58q18 0 30 -10t15 -20l4 -11q1 -3 -3 -4q-10 -2 -14 4q-6 8 -19 8q-30 0 -63 -62t-54 -146t-21 -148q0 -86 40 -86q36 0 75 70.5t67 170t40 198.5q-37 77 -37 144q0 56 30 56q41 0 41 -110
q0 -36 -7 -94q51 -101 118 -101q13 0 24 4q9 129 39.5 250.5t81.5 204.5t107 83t56 -61q0 -75 -72 -234t-152 -231q-11 -86 -11 -158q0 -199 81 -199q48 0 81 87.5t42 188.5q-45 48 -45 105q0 45 31 45q42 0 42 -108q0 -11 -2 -37q40 -33 97 -33q19 0 28 2
q23 105 81.5 189.5t117.5 84.5q46 0 46 -44q0 -50 -55.5 -125.5t-130.5 -109.5q-12 -49 -12 -93q0 -101 74 -101q33 0 69 22.5t66.5 58.5t48.5 62t34 53zM669 870q-45 0 -96 -141t-77 -316q70 76 132 218.5t62 208.5q0 30 -21 30zM1025 511q-24 0 -61.5 -67.5t-61.5 -150.5
q60 33 100 95.5t40 100.5q0 22 -17 22z" />
    <glyph glyph-name="o_b_r" unicode="obr" horiz-adv-x="1200" 
d="M1200 267q5 8 19 5q4 -3 4 -5q-6 -11 -15.5 -29t-38.5 -64t-57 -81t-64.5 -64t-65.5 -29q-39 0 -61.5 29.5t-22.5 74.5q0 56 27 136t54 146.5t27 89.5q0 13 -11 24t-33 26t-35 28q-19 -82 -48 -156.5t-70.5 -128t-81.5 -53.5q-13 0 -25 6q-16 -94 -55 -164.5t-89 -70.5
q-130 0 -130 299q0 36 1 55q-11 -3 -21 -3q-68 0 -124 87q-16 -102 -47 -198.5t-76.5 -164.5t-90.5 -68q-43 0 -64 42t-21 110q0 77 23 158.5t65.5 139.5t91.5 58q18 0 30 -10t15 -20l4 -11q1 -3 -3 -4q-10 -2 -14 4q-6 8 -19 8q-30 0 -63 -62t-54 -146t-21 -148
q0 -86 40 -86q36 0 75 70.5t67 170t40 198.5q-37 77 -37 144q0 56 30 56q41 0 41 -110q0 -36 -7 -94q51 -101 118 -101q13 0 24 4q9 129 39.5 250.5t81.5 204.5t107 83t56 -61q0 -75 -72 -234t-152 -231q-11 -86 -11 -158q0 -199 81 -199q42 0 74 65t48 152
q-19 19 -29.5 50.5t-10.5 60.5q0 55 32 55q36 0 36 -91q0 -26 -5 -63q14 -7 26 -7q35 0 72 54.5t63 127t43 149.5l-3 5q-33 47 -33 104q0 31 11 50.5t30 19.5q32 0 32 -60q0 -43 -13 -111q14 -16 46 -35.5t49 -40.5t17 -55q0 -39 -45.5 -174t-45.5 -181q0 -62 38 -62
q68 0 207 234zM669 870q-45 0 -96 -141t-77 -316q70 76 132 218.5t62 208.5q0 30 -21 30z" />
    <glyph glyph-name="o_b_s" unicode="obs" horiz-adv-x="1205" 
d="M561 20q42 0 74 64.5t48 150.5q-18 20 -29 51.5t-11 61.5q0 55 32 55q36 0 36 -91q0 -27 -5 -64q9 -6 21 -6q31 0 75.5 52.5t84 123t72.5 146.5v23q0 170 49 170q23 0 23 -36q0 -44 -50 -160q3 -47 30 -152q49 33 97 33q30 0 54 -8t33 -16l9 -8q4 -5 -13 -2l-8 2
q-48 12 -75 12q-46 0 -92 -33q23 -88 23 -155q0 -126 -48 -213t-113 -87q-72 0 -72 94q0 79 49.5 183.5t120.5 169.5q-3 34 -8 77q-3 36 -10 36t-21 -28q-51 -104 -110 -177t-105 -73q-10 0 -20 5q-17 -94 -55.5 -164t-88.5 -70q-130 0 -130 299q0 36 1 55q-11 -3 -21 -3
q-68 0 -124 87q-16 -102 -47 -198.5t-76.5 -164.5t-90.5 -68q-43 0 -64 42t-21 110q0 77 23 158.5t65.5 139.5t91.5 58q18 0 30 -10t15 -20l4 -11q1 -3 -3 -4q-10 -2 -14 4q-6 8 -19 8q-30 0 -63 -62t-54 -146t-21 -148q0 -86 40 -86q36 0 75 70.5t67 170t40 198.5
q-37 77 -37 144q0 56 30 56q41 0 41 -110q0 -36 -7 -94q51 -101 118 -101q13 0 24 4q9 129 39.5 250.5t81.5 204.5t107 83t56 -61q0 -75 -72 -234t-152 -231q-11 -86 -11 -158q0 -199 81 -199zM980 306q0 17 -2 51q-62 -63 -105 -162.5t-43 -166.5q0 -60 36 -60q48 0 81 101
t33 237zM669 870q-45 0 -96 -141t-77 -316q70 76 132 218.5t62 208.5q0 30 -21 30z" />
    <glyph glyph-name="o_b_y" unicode="oby" horiz-adv-x="1332" 
d="M561 20q36 0 64 53.5t41.5 124.5t13.5 138v6q-30 4 -47 29.5t-17 53.5q0 19 8.5 31.5t22.5 12.5q46 0 55 -106q41 5 125.5 62.5t111.5 57.5q33 0 33 -40q0 -35 -45.5 -159.5t-45.5 -155.5q0 -20 14 -20q32 0 81.5 56t96 134.5t76 133t40.5 79.5q1 1 2 4q23 47 44 48
q16 0 19 -13.5t-2 -19.5q-30 -71 -89.5 -244t-86.5 -245q34 -1 60 -9t35 -16l9 -7q1 -1 -1 -2q-8 -1 -20 2q-41 9 -91 9q-34 -86 -66 -151t-71 -122.5t-82.5 -87.5t-90.5 -30q-72 0 -72 69q0 90 101 203.5t229 136.5q25 62 69 185q8 23 10.5 37t-1.5 17q-6 0 -22 -22
q-119 -179 -187 -179q-55 0 -55 66q0 52 46 174t46 137q0 6 -4 6q-11 0 -48.5 -26.5t-85.5 -55t-81 -33.5q0 -3 0.5 -9t0.5 -9q0 -74 -16.5 -150t-51.5 -131.5t-78 -55.5q-130 0 -130 299q0 36 1 55q-11 -3 -21 -3q-68 0 -124 87q-16 -102 -47 -198.5t-76.5 -164.5
t-90.5 -68q-43 0 -64 42t-21 110q0 77 23 158.5t65.5 139.5t91.5 58q18 0 30 -10t15 -20l4 -11q1 -4 -4 -4q-9 -1 -13 4q-6 8 -19 8q-30 0 -63 -62t-54 -146t-21 -148q0 -86 40 -86q36 0 75 70.5t67 170t40 198.5q-37 77 -37 144q0 56 30 56q41 0 41 -110q0 -36 -7 -94
q51 -101 118 -101q13 0 24 4q9 129 39.5 250.5t81.5 204.5t107 83t56 -61q0 -75 -72 -234t-152 -231q-11 -86 -11 -158q0 -199 81 -199zM747 -340q114 0 259 351q-61 -13 -117.5 -52t-93.5 -86t-58.5 -94t-21.5 -79q0 -40 32 -40zM669 870q-45 0 -96 -141t-77 -316
q70 76 132 218.5t62 208.5q0 30 -21 30z" />
    <glyph glyph-name="o_e" unicode="oe" horiz-adv-x="758" 
d="M425 305h2q28 101 84.5 177t111.5 76q46 0 46 -44q0 -51 -57 -122t-127 -98q-19 -68 -19 -122q0 -101 74 -101q32 0 67 21.5t65 56t50 62.5t36 56q5 8 19 5q4 -3 4 -5q-5 -9 -13.5 -24.5t-35.5 -55t-55 -69.5t-69 -55t-79 -25q-61 0 -90.5 40t-29.5 107q0 46 12 97
q-81 1 -145 88q-17 -90 -48 -174t-73.5 -143t-84.5 -59q-43 0 -64 42t-21 110q0 72 21 150t61 135t87 57q18 0 30 -10t16 -20l3 -11q1 -4 -4 -4q-8 0 -13 4q-8 8 -19 8q-41 0 -84 -124t-43 -218q0 -86 40 -86q50 0 101 118t75 257q-42 78 -42 145q0 58 34 58q43 0 43 -100
q0 -40 -10 -102q56 -98 144 -98zM614 525q-22 0 -58.5 -62t-62.5 -142q57 27 97.5 86t40.5 96q0 22 -17 22z" />
    <glyph glyph-name="o_f" unicode="of" horiz-adv-x="741" 
d="M781 360q4 8 18 5q4 -3 5 -5q-10 -29 -60 -73.5t-123 -44.5q-27 0 -49 5q11 -33 11 -87q0 -92 -24 -204.5t-65.5 -196.5t-83.5 -84q-63 0 -63 126q0 146 96 526q1 5 5 20q-21 -9 -40 -9q-68 0 -124 87q-16 -102 -47 -198.5t-76.5 -164.5t-90.5 -68q-43 0 -64 42t-21 110
q0 77 23 158.5t65.5 139.5t91.5 58q18 0 30 -10t15 -20l4 -11q1 -3 -3 -4q-10 -1 -14 4q-6 8 -19 8q-30 0 -63 -62t-54 -146t-21 -148q0 -86 40 -86q36 0 75 70.5t67 170t40 198.5q-37 77 -37 144q0 56 30 56q41 0 41 -110q0 -36 -7 -94q51 -101 118 -101q21 0 48 16
q67 257 121 379.5t123 122.5q48 0 48 -52q0 -65 -73 -205t-155 -221l-18 -81q-103 -457 -103 -563q0 -49 17 -49q45 0 93.5 163t48.5 289q0 104 -33 104l2 23q6 0 37 -10.5t58 -10.5q49 0 92 24.5t68 69.5zM718 820q0 26 -19 26q-69 0 -169 -402q70 81 129 203t59 173z" />
    <glyph glyph-name="o_f_e" unicode="ofe" horiz-adv-x="1060" 
d="M665 248q-55 0 -97 7q15 -31 15 -95q0 -92 -24 -204.5t-65.5 -196.5t-83.5 -84q-63 0 -63 126q0 146 96 526q3 13 5 20q-21 -9 -40 -9q-68 0 -124 87q-16 -102 -47 -198.5t-76.5 -164.5t-90.5 -68q-43 0 -64 42t-21 110q0 77 23 158.5t65.5 139.5t91.5 58q18 0 30 -10
t15 -20l4 -11q1 -3 -3 -4q-10 -1 -14 4q-6 8 -19 8q-30 0 -63 -62t-54 -146t-21 -148q0 -86 40 -86q36 0 75 70.5t67 170t40 198.5q-37 77 -37 144q0 56 30 56q41 0 41 -110q0 -36 -7 -94q51 -101 118 -101q21 0 48 16q67 257 121 379.5t123 122.5q48 0 48 -52
q0 -65 -73 -205t-155 -221l-18 -81q-103 -457 -103 -563q0 -49 17 -49q45 0 93.5 163t48.5 289q0 100 -33 104l2 23q4 0 27 -5t51 -8t61 -3q30 0 57 6q24 104 82 185.5t116 81.5q46 0 46 -44q0 -50 -52.5 -120t-131.5 -106q-14 -56 -14 -102q0 -101 74 -101q32 0 67 21
t64.5 55.5t49.5 62.5t37 57q5 8 19 5q4 -3 4 -5q-5 -9 -13.5 -24.5t-35.5 -55t-55 -69.5t-69 -55t-79 -25q-61 0 -90.5 40t-29.5 107q0 32 6 68q-28 -5 -52 -5zM718 820q0 26 -19 26q-69 0 -169 -402q70 81 129 203t59 173zM911 511q-23 0 -60 -64t-61 -145q63 34 100.5 92
t37.5 95q0 22 -17 22z" />
    <glyph glyph-name="o_f_f" unicode="off" horiz-adv-x="1053" 
d="M1093 360q4 8 18 5q4 -3 5 -5q-8 -24 -42.5 -52t-94.5 -28q-55 0 -93 25q10 -34 10 -96q0 -93 -20.5 -202t-59.5 -191t-82 -82q-63 0 -63 126q0 129 72 422q-62 -40 -122 -40q-27 0 -49 5q11 -33 11 -87q0 -92 -24 -204.5t-65.5 -196.5t-83.5 -84q-63 0 -63 126
q0 146 96 526q3 13 5 20q-21 -9 -40 -9q-68 0 -124 87q-16 -102 -47 -198.5t-76.5 -164.5t-90.5 -68q-43 0 -64 42t-21 110q0 77 23 158.5t65.5 139.5t91.5 58q18 0 30 -10t15 -20l4 -11q1 -3 -3 -4q-10 -1 -14 4q-6 8 -19 8q-30 0 -63 -62t-54 -146t-21 -148q0 -86 40 -86
q36 0 75 70.5t67 170t40 198.5q-37 77 -37 144q0 56 30 56q41 0 41 -110q0 -36 -7 -94q51 -101 118 -101q21 0 48 16q67 257 121 379.5t123 122.5q48 0 48 -52q0 -65 -73 -205t-155 -221l-18 -81q-103 -457 -103 -563q0 -49 17 -49q45 0 93.5 163t48.5 289q0 97 -33 104
l2 23q5 0 36 -10.5t59 -10.5q65 0 130 47l4 14q69 272 116.5 382t114.5 110q48 0 48 -52q0 -65 -64 -199t-152 -224l-5 -24q-33 -145 -47.5 -214.5t-29 -156t-14.5 -133.5q0 -49 17 -49q50 0 91.5 166.5t41.5 300.5q0 87 -22 87l2 23q4 0 21.5 -10t45.5 -20t60 -10
q86 0 114 56zM986 786q-63 0 -159 -403q75 86 126.5 202.5t51.5 174.5q0 26 -19 26zM718 820q0 26 -19 26q-69 0 -169 -402q70 81 129 203t59 173z" />
    <glyph glyph-name="o_f_r" unicode="ofr" horiz-adv-x="1097" 
d="M582 258h-15q16 -32 16 -98q0 -92 -24 -204.5t-65.5 -196.5t-83.5 -84q-63 0 -63 126q0 146 96 526q3 13 5 20q-21 -9 -40 -9q-68 0 -124 87q-16 -102 -47 -198.5t-76.5 -164.5t-90.5 -68q-43 0 -64 42t-21 110q0 77 23 158.5t65.5 139.5t91.5 58q18 0 30 -10t15 -20
l4 -11q1 -3 -3 -4q-10 -1 -14 4q-6 8 -19 8q-30 0 -63 -62t-54 -146t-21 -148q0 -86 40 -86q36 0 75 70.5t67 170t40 198.5q-37 77 -37 144q0 56 30 56q41 0 41 -110q0 -36 -7 -94q51 -101 118 -101q21 0 48 16q67 257 121 379.5t123 122.5q48 0 48 -52q0 -65 -73 -205
t-155 -221l-18 -81q-103 -457 -103 -563q0 -49 17 -49q45 0 93.5 163t48.5 289q0 104 -33 104l2 23q2 0 19.5 -2.5t36.5 -2.5q72 0 134 93t91 204q-33 42 -33 95q0 54 38 54q32 0 32 -61q0 -31 -12 -84q13 -14 45.5 -37t49 -44.5t16.5 -51.5q0 -39 -45.5 -174t-45.5 -181
q0 -62 38 -62q67 0 207 234q5 8 19 5q4 -3 4 -5q-6 -11 -15.5 -29t-38.5 -64t-57 -81t-64.5 -64t-65.5 -29q-39 0 -61.5 29.5t-22.5 74.5q0 56 27 136t54 146.5t27 89.5q0 12 -10 23.5t-32.5 29.5t-34.5 29q-20 -72 -54.5 -138t-86 -114t-103.5 -48zM718 820q0 26 -19 26
q-69 0 -169 -402q70 81 129 203t59 173z" />
    <glyph glyph-name="o_f_t" unicode="oft" horiz-adv-x="1028" 
d="M1028 267q4 9 19 5q4 -3 4 -5q-6 -11 -16 -29t-39 -64t-57 -81t-64 -64t-64 -29q-37 0 -56 47.5t-19 131.5q0 51 6 106q-56 -43 -121 -43q-27 0 -49 5q11 -33 11 -87q0 -92 -24 -204.5t-65.5 -196.5t-83.5 -84q-63 0 -63 126q0 146 96 526q3 13 5 20q-21 -9 -40 -9
q-68 0 -124 87q-16 -102 -47 -198.5t-76.5 -164.5t-90.5 -68q-43 0 -64 42t-21 110q0 77 23 158.5t65.5 139.5t91.5 58q18 0 30 -10t15 -20l4 -11q1 -3 -3 -4q-10 -1 -14 4q-6 8 -19 8q-30 0 -63 -62t-54 -146t-21 -148q0 -86 40 -86q36 0 75 70.5t67 170t40 198.5
q-37 77 -37 144q0 56 30 56q41 0 41 -110q0 -36 -7 -94q51 -101 118 -101q21 0 48 16q67 257 121 379.5t123 122.5q48 0 48 -52q0 -65 -73 -205t-155 -221l-18 -81q-103 -457 -103 -563q0 -49 17 -49q45 0 93.5 163t48.5 289q0 104 -33 104l2 23q4 0 36 -10.5t59 -10.5
q70 0 125 49q21 155 74 295q-78 2 -97 6q-4 0 -4.5 5.5t2 10t6.5 4.5q52 -4 102 -4q33 84 68.5 133.5t66.5 49.5t31 -43q0 -44 -37 -138q77 6 119 16q4 1 7 -3.5t3 -10t-4 -6.5q-57 -12 -134 -18q-56 -130 -136 -265q-17 -116 -17 -190q0 -124 35 -124t104 93.5t93 140.5z
M718 820q0 26 -19 26q-69 0 -169 -402q70 81 129 203t59 173zM958 782q-30 0 -78 -150q33 0 50 1q37 90 37 130q0 19 -9 19zM872 610q-31 -108 -49 -206q58 110 98 207q-16 -1 -49 -1z" />
    <glyph glyph-name="o_f_y" unicode="ofy" horiz-adv-x="1249" 
d="M822 411q-6 0 -32.5 -24t-58 -52.5t-73 -52.5t-73.5 -24h-18q16 -31 16 -98q0 -92 -24 -204.5t-65.5 -196.5t-83.5 -84q-63 0 -63 126q0 146 96 526q3 13 5 20q-21 -9 -40 -9q-68 0 -124 87q-16 -102 -47 -198.5t-76.5 -164.5t-90.5 -68q-43 0 -64 42t-21 110
q0 77 23 158.5t65.5 139.5t91.5 58q18 0 30 -10t15 -20l4 -11q1 -3 -3 -4q-10 -1 -14 4q-6 8 -19 8q-30 0 -63 -62t-54 -146t-21 -148q0 -86 40 -86q36 0 75 70.5t67 170t40 198.5q-37 77 -37 144q0 56 30 56q41 0 41 -110q0 -36 -7 -94q51 -101 118 -101q21 0 48 16
q67 257 121 379.5t123 122.5q48 0 48 -52q0 -65 -73 -205t-155 -221l-18 -81q-103 -457 -103 -563q0 -49 17 -49q45 0 93.5 163t48.5 289q0 104 -33 104l2 23q4 0 23 -3t36 -3q32 0 73 26.5t73 58t66 58t53 26.5q33 0 33 -37q0 -35 -42.5 -144.5t-42.5 -140.5q0 -20 14 -20
q33 0 83 56.5t96.5 136.5t75.5 134.5t41 80.5q12 27 21.5 37t22.5 10q16 0 19 -13.5t-2 -19.5q-30 -71 -89.5 -244t-86.5 -245q34 -1 60 -9t35 -16l9 -7l-10 -1q-7 0 -11 1q-40 9 -91 9q-34 -86 -66 -151t-71 -122.5t-82.5 -87.5t-90.5 -30q-72 0 -72 69q0 90 101 203.5
t229 136.5q41 105 64 171q11 33 15 49.5t-1 18.5q-8 0 -22 -22q-117 -179 -187 -179q-55 0 -55 66q0 52 39.5 151t39.5 114q0 6 -4 6zM664 -340q114 0 259 351q-61 -13 -117.5 -52t-93.5 -86t-58.5 -94t-21.5 -79q0 -40 32 -40zM718 820q0 26 -19 26q-69 0 -169 -402
q70 81 129 203t59 173z" />
    <glyph glyph-name="o_j" unicode="oj" horiz-adv-x="754" 
d="M197 461q-4 8 -19 8q-30 0 -63 -62t-54 -146t-21 -148q0 -86 40 -86q36 0 74 68t65.5 164.5t40.5 194.5q-35 86 -35 156q0 56 30 56q41 0 41 -110q0 -46 -8 -105q45 -99 102 -99q35 0 74 40t60.5 77t40.5 77q20 42 33.5 62t28.5 20q20 0 20 -21q0 -1 -14.5 -41.5
t-38.5 -123.5t-43 -175q-14 -69 -19 -92q44 21 78 21q22 0 38.5 -5t21.5 -11l6 -5q3 -3 -6 -6q-10 -4 -15 -2q-16 8 -45 8q-38 0 -83 -25q-23 -110 -44.5 -187.5t-53 -156t-73 -119.5t-91.5 -41q-71 0 -71 70q0 81 85.5 211t188.5 208q4 20 12.5 64.5t13.5 67.5q8 43 25 117
q3 15 3.5 21t-2.5 10q-3 0 -7.5 -4t-14 -15t-14.5 -16q-51 -54 -97 -54q-58 0 -105 84q-17 -101 -48 -193.5t-75 -157.5t-89 -65q-43 0 -64 42t-21 110q0 77 23 158.5t65.5 139.5t91.5 58q18 0 30 -10t15 -20l4 -11q1 -3 -3 -4q-9 -1 -14 4zM260 -321q36 0 67 33.5t55.5 98
t42 131.5t36.5 162q-90 -76 -163.5 -196.5t-73.5 -185.5q0 -43 36 -43zM681 873q9 0 16 -7.5t7 -19.5q0 -17 -18.5 -42.5t-33.5 -25.5q-9 4 -10 25t10.5 45.5t28.5 24.5z" />
    <glyph glyph-name="o_l" unicode="ol" horiz-adv-x="734" 
d="M734 267q4 9 19 5q4 -3 4 -5q-6 -11 -16.5 -30t-41 -67.5t-58.5 -85t-63 -67t-61 -30.5q-47 0 -70 59t-23 158q0 60 8 137q-12 -3 -24 -3q-68 0 -124 87q-16 -102 -47 -198.5t-76.5 -164.5t-90.5 -68q-43 0 -64 42t-21 110q0 77 23 158.5t65.5 139.5t91.5 58q18 0 30 -10
t15 -20l4 -11q1 -3 -3 -4q-10 -1 -14 4q-6 8 -19 8q-30 0 -63 -62t-54 -146t-21 -148q0 -86 40 -86q36 0 75 70.5t67 170t40 198.5q-37 77 -37 144q0 56 30 56q41 0 41 -110q0 -36 -7 -94q51 -101 118 -101q13 0 28 5q17 123 49.5 234.5t79.5 187.5t95 76q49 0 49 -62
q0 -74 -65.5 -214t-143.5 -208q-13 -109 -13 -189q0 -171 50 -171q32 0 100.5 97t97.5 150zM653 831q-41 0 -83 -125t-66 -291q67 69 121.5 192.5t54.5 184.5q0 39 -27 39z" />
    <glyph glyph-name="o_m" unicode="om" horiz-adv-x="1197" 
d="M186 447q-8 8 -19 8q-41 0 -84 -124t-43 -218q0 -86 40 -86q52 0 105 127.5t74 269.5q-44 54 -44 127q0 54 33 54q43 0 43 -100q0 -36 -6 -78q14 -11 30 -11q32 0 110 52t99 52q36 0 36 -55q0 -43 -27 -136q-8 -28 -10 -40t1 -16q10 0 29 35q143 260 219 260q50 0 50 -62
q0 -27 -21 -130q-4 -20 -6 -34t3 -21q6 0 21 21q104 162 168 162q46 0 46 -55q0 -32 -36.5 -175t-36.5 -198q0 -43 20 -43q29 0 83.5 58.5t94.5 116.5l39 59q5 8 19 5q4 -3 4 -5q-6 -11 -17.5 -29t-44 -64t-61.5 -81t-65 -64t-61 -29q-68 0 -68 92q0 56 36 190.5t36 164.5
q0 24 -12 24q-30 0 -107 -111t-124 -219q-13 -29 -30 -29q-10 0 -17 5.5t-7 14.5q0 26 45.5 182t45.5 191q0 30 -19 30q-11 0 -25.5 -11.5t-32.5 -35t-35.5 -49t-40 -65.5t-39.5 -71t-41.5 -78.5t-39 -76t-38 -76t-32.5 -65.5q-4 -8 -12 -8q-14 0 -24.5 6.5t-10.5 16.5
q0 23 66.5 206.5t66.5 238.5q0 23 -11 23q-10 0 -43.5 -24t-74.5 -48t-69 -24q-15 0 -32 10q-15 -93 -46 -185t-76.5 -158.5t-89.5 -66.5q-43 0 -64 42t-21 110q0 72 21 150t61 135t87 57q18 0 30 -10t16 -20l3 -11q1 -4 -4 -4q-8 0 -13 4z" />
    <glyph glyph-name="o_n" unicode="on" horiz-adv-x="967" 
d="M499 487q-10 0 -43 -23.5t-73.5 -46.5t-68.5 -23q-15 0 -32 10q-15 -93 -46 -185t-76.5 -158.5t-89.5 -66.5q-43 0 -64 42t-21 110q0 72 21 150t61 135t87 57q18 0 30 -10t16 -20l3 -11q1 -3 -3 -4q-10 -2 -14 4q-6 8 -19 8q-41 0 -84 -124t-43 -218q0 -86 40 -86
q52 0 105 127.5t74 269.5q-44 54 -44 127q0 54 33 54q43 0 43 -100q0 -36 -6 -78q14 -11 30 -11q33 0 110 52t97 52q39 0 39 -53q0 -44 -54 -232q-13 -52 -2 -52q10 0 46 56q62 96 118.5 159t91.5 63q36 0 36 -45q0 -33 -32 -164t-32 -168t24 -37q19 0 47 22t55 54.5
t51 63.5t40 55l17 25q8 9 21 4q3 -1 2 -4q-6 -10 -17 -27t-42 -61t-59.5 -77t-63.5 -60.5t-61 -27.5q-71 0 -71 83q0 43 30.5 169t30.5 146q0 14 -7 14q-29 0 -151 -185.5t-140 -251.5q-4 -14 -24 -14q-35 0 -35 18q0 20 64.5 227.5t64.5 246.5q0 20 -10 20z" />
    <glyph glyph-name="o_n_n" unicode="onn" horiz-adv-x="1554" 
d="M499 487q-10 0 -43 -23.5t-73.5 -46.5t-68.5 -23q-15 0 -32 10q-15 -93 -46 -185t-76.5 -158.5t-89.5 -66.5q-43 0 -64 42t-21 110q0 72 21 150t61 135t87 57q18 0 30 -10t16 -20l3 -11q1 -3 -3 -4q-9 -1 -14 4q-4 8 -19 8q-41 0 -84 -124t-43 -218q0 -86 40 -86
q52 0 105 127.5t74 269.5q-44 54 -44 127q0 54 33 54q43 0 43 -100q0 -36 -6 -78q14 -11 30 -11q33 0 110 52t97 52q39 0 39 -53q0 -38 -54 -233q-2 -5 -3.5 -12t-3.5 -16.5t-1 -16t6 -6.5q11 0 41 48q64 99 122 164.5t93 65.5q36 0 36 -45q0 -33 -32 -164t-32 -168t24 -37
q37 0 85 59.5t107 160.5q6 10 17 29q29 49 44.5 74t38.5 57t42.5 46t37.5 14q29 0 29 -47q0 -51 -31 -154q-5 -20 -6.5 -27.5t2.5 -10.5q6 0 37 49q146 251 211 251q48 0 48 -56q0 -36 -36 -167.5t-36 -169.5q0 -55 36 -55q70 0 171 167q5 8 19 5q4 -3 4 -5
q-4 -8 -11.5 -21.5t-30 -48t-46 -61t-56 -48t-62.5 -21.5q-77 0 -77 99q0 59 37.5 190.5t37.5 143.5q0 15 -10 15q-31 0 -109.5 -118.5t-142.5 -238t-74 -148.5q-4 -11 -13 -11q-14 0 -24.5 6.5t-10.5 16.5q0 26 63 195t63 221q0 17 -8 17q-25 0 -116 -161q-11 -18 -16 -27
q-43 -74 -74.5 -122t-74 -89.5t-75.5 -41.5q-71 0 -71 83q0 43 30.5 169t30.5 146q0 14 -7 14q-29 0 -151.5 -186t-139.5 -251q-4 -14 -24 -14q-35 0 -35 18q0 20 64.5 227.5t64.5 246.5q0 20 -10 20z" />
    <glyph glyph-name="o_o" unicode="oo" horiz-adv-x="840" 
d="M601 467q-6 2 -12 2q-30 0 -63 -62t-54 -146t-21 -148q0 -86 40 -86q36 0 75 70.5t67 170t40 198.5q-37 77 -37 144q0 56 30 56q41 0 41 -110q0 -36 -7 -94q51 -101 118 -101q60 0 108 89q4 9 19 5q4 -3 4 -5q-2 -5 -6 -12.5t-17 -26.5t-27 -34t-36 -27t-44 -12
q-68 0 -124 87q-16 -102 -47 -198.5t-76.5 -164.5t-90.5 -68q-43 0 -64 42t-21 110t19 142.5t52 129.5q-48 -31 -102 -31q-43 0 -82 32q-12 -89 -41.5 -176t-74.5 -148.5t-90 -61.5q-43 0 -64 42t-21 110q0 110 47.5 206.5t113.5 96.5q18 0 30 -10t15 -20l4 -11q1 -3 -3 -4
q-9 -1 -14 4q-6 8 -19 8q-40 0 -79.5 -106t-39.5 -197q0 -86 40 -86q36 0 73.5 60t63.5 145.5t37 170.5q-46 59 -46 118q0 45 32 45q43 0 43 -100q0 -27 -3 -57q34 -39 79 -39q77 0 137 57q36 36 73 36q16 0 26.5 -9t13.5 -17l2 -9q1 -2 -3 -3q-7 -1 -14 3z" />
    <glyph glyph-name="o_o_l" unicode="ool" horiz-adv-x="1145" 
d="M601 467q-6 2 -12 2q-30 0 -63 -62t-54 -146t-21 -148q0 -86 40 -86q36 0 75 70.5t67 170t40 198.5q-37 77 -37 144q0 56 30 56q41 0 41 -110q0 -36 -7 -94q51 -101 118 -101q13 0 28 5q17 123 49.5 234.5t79.5 187.5t95 76q49 0 49 -62q0 -74 -65.5 -214t-143.5 -208
q-13 -109 -13 -189q0 -171 50 -171q32 0 103.5 100t94.5 147q4 9 19 5q4 -3 4 -5q-6 -11 -16.5 -30t-41 -67.5t-58.5 -85t-63 -67t-61 -30.5q-47 0 -70 59t-23 158q0 60 8 137q-12 -3 -24 -3q-68 0 -124 87q-16 -102 -47 -198.5t-76.5 -164.5t-90.5 -68q-43 0 -64 42
t-21 110t19 142.5t52 129.5q-48 -31 -102 -31q-43 0 -82 32q-12 -89 -41.5 -176t-74.5 -148.5t-90 -61.5q-43 0 -64 42t-21 110q0 110 47.5 206.5t113.5 96.5q18 0 30 -10t15 -20l4 -11q1 -3 -3 -4q-10 -1 -14 4q-6 8 -19 8q-40 0 -79.5 -106t-39.5 -197q0 -86 40 -86
q36 0 73.5 60t63.5 145.5t37 170.5q-46 59 -46 118q0 45 32 45q43 0 43 -100q0 -27 -3 -57q34 -39 79 -39q77 0 137 57q36 36 73 36q16 0 26.5 -9t13.5 -17l2 -9q1 -2 -3 -3q-7 -1 -14 3zM1064 831q-41 0 -83 -125t-66 -291q67 69 121.5 192.5t54.5 184.5q0 39 -27 39z" />
    <glyph glyph-name="o_o_m" unicode="oom" horiz-adv-x="1608" 
d="M601 467q-6 2 -12 2q-30 0 -63 -62t-54 -146t-21 -148q0 -86 40 -86q52 0 105 127.5t74 269.5q-44 54 -44 127q0 54 33 54q43 0 43 -100q0 -36 -6 -78q14 -11 30 -11q32 0 110 52t99 52q36 0 36 -55q0 -37 -27 -136q-14 -54 -9 -56q10 0 29 35q143 260 219 260
q50 0 50 -62q0 -35 -20 -125q-13 -60 -4 -60q7 0 34 40q97 143 155 143q46 0 46 -55q0 -32 -36.5 -175t-36.5 -198q0 -43 20 -43q29 0 83.5 58.5t93.5 116.5l40 59q5 8 19 5q4 -3 4 -5q-6 -11 -17.5 -29t-44 -64t-61.5 -81t-65 -64t-61 -29q-68 0 -68 92q0 56 36 190.5
t36 164.5q0 24 -12 24q-30 0 -106.5 -110.5t-124.5 -219.5q-13 -29 -30 -29q-10 0 -17 5.5t-7 14.5q0 26 45.5 182t45.5 191q0 30 -19 30q-11 0 -25.5 -11.5t-32.5 -35t-35.5 -49t-40 -65.5t-39.5 -71t-41.5 -78.5t-39 -76t-38 -76t-32.5 -65.5q-4 -8 -12 -8
q-14 0 -24.5 6.5t-10.5 16.5q0 23 66.5 206.5t66.5 238.5q0 23 -11 23q-10 0 -43.5 -24t-74.5 -48t-69 -24q-15 0 -32 10q-15 -93 -46 -185t-76.5 -158.5t-89.5 -66.5q-43 0 -64 42t-21 110t19 142.5t52 129.5q-48 -31 -102 -31q-43 0 -82 32q-12 -89 -41.5 -176
t-74.5 -148.5t-90 -61.5q-43 0 -64 42t-21 110q0 110 47.5 206.5t113.5 96.5q18 0 30 -10t15 -20l4 -11q1 -3 -3 -4q-10 -1 -14 4q-6 8 -19 8q-40 0 -79.5 -106t-39.5 -197q0 -86 40 -86q36 0 73.5 60t63.5 145.5t37 170.5q-46 59 -46 118q0 45 32 45q43 0 43 -100
q0 -27 -3 -57q34 -39 79 -39q77 0 137 57q36 36 73 36q16 0 26.5 -9t13.5 -17l2 -9q1 -2 -3 -3q-7 -1 -14 3z" />
    <glyph glyph-name="o_o_n" unicode="oon" horiz-adv-x="1378" 
d="M601 467q-6 2 -12 2q-30 0 -63 -62t-54 -146t-21 -148q0 -86 40 -86q52 0 105 127.5t74 269.5q-44 54 -44 127q0 54 33 54q43 0 43 -100q0 -36 -6 -78q14 -11 30 -11q33 0 110 52t97 52q39 0 39 -53q0 -38 -54 -233q-2 -5 -3.5 -12t-3.5 -16.5t-1 -16t6 -6.5q9 0 38 43
q152 235 218 235q36 0 36 -45q0 -33 -32 -164t-32 -168t24 -37q29 0 83.5 57.5t84 99.5t42.5 63q5 8 19 5q4 -3 4 -5q-6 -10 -17 -27t-42 -61t-59.5 -77t-63.5 -60.5t-61 -27.5q-71 0 -71 83q0 43 30.5 169t30.5 146q0 14 -7 14q-29 0 -151.5 -186t-139.5 -251
q-4 -14 -24 -14q-35 0 -35 18q0 20 64.5 227.5t64.5 246.5q0 20 -10 20t-43 -23.5t-73.5 -46.5t-68.5 -23q-15 0 -32 10q-15 -93 -46 -185t-76.5 -158.5t-89.5 -66.5q-43 0 -64 42t-21 110t19 142.5t52 129.5q-48 -31 -102 -31q-43 0 -82 32q-12 -89 -41.5 -176
t-74.5 -148.5t-90 -61.5q-43 0 -64 42t-21 110q0 110 47.5 206.5t113.5 96.5q18 0 30 -10t15 -20l4 -11q1 -3 -3 -4q-10 -1 -14 4q-6 8 -19 8q-40 0 -79.5 -106t-39.5 -197q0 -86 40 -86q36 0 73.5 60t63.5 145.5t37 170.5q-46 59 -46 118q0 45 32 45q43 0 43 -100
q0 -27 -3 -57q34 -39 79 -39q77 0 137 57q36 36 73 36q16 0 26.5 -9t13.5 -17l2 -9q1 -2 -3 -3q-7 -1 -14 3z" />
    <glyph glyph-name="o_o_r" unicode="oor" horiz-adv-x="1190" 
d="M601 467q-6 2 -12 2q-30 0 -63 -62t-54 -146t-21 -148q0 -86 40 -86q50 0 101 118t75 258q-41 79 -41 148q0 54 33 54q43 0 43 -100q0 -42 -10 -105q33 -57 73 -57q41 0 78 69t57 161l-3 5q-33 47 -33 104q0 31 11 50.5t30 19.5q32 0 32 -60q0 -53 -13 -112
q14 -15 46 -34.5t49 -40.5t17 -55q0 -39 -45.5 -174t-45.5 -181q0 -62 38 -62q68 0 207 234q5 8 19 5q4 -3 4 -5q-6 -11 -15.5 -29t-38.5 -64t-57 -81t-64.5 -64t-65.5 -29q-39 0 -61.5 29.5t-22.5 74.5q0 56 27 136t54 146.5t27 89.5q0 13 -10.5 24t-32.5 26t-35 27
q-23 -96 -64.5 -164t-89.5 -68q-42 0 -77 49q-17 -90 -48 -174t-73.5 -143t-84.5 -59q-43 0 -64 42t-21 110t19 142.5t52 129.5q-48 -31 -102 -31q-43 0 -82 32q-12 -89 -41.5 -176t-74.5 -148.5t-90 -61.5q-43 0 -64 42t-21 110q0 110 47.5 206.5t113.5 96.5q18 0 30 -10
t15 -20l4 -11q1 -3 -3 -4q-10 -1 -14 4q-6 8 -19 8q-40 0 -79.5 -106t-39.5 -197q0 -86 40 -86q36 0 73.5 60t63.5 145.5t37 170.5q-46 59 -46 118q0 45 32 45q43 0 43 -100q0 -27 -3 -57q34 -39 79 -39q77 0 137 57q39 36 73 36q16 0 26.5 -9t13.5 -17l2 -9q1 -2 -3 -3
q-7 -1 -14 3z" />
    <glyph glyph-name="o_o_s" unicode="oos" horiz-adv-x="1193" 
d="M601 467q-6 2 -12 2q-30 0 -63 -62t-54 -146t-21 -148q0 -86 40 -86q50 0 101 118t75 258q-41 79 -41 148q0 54 33 54q43 0 43 -100q0 -42 -10 -105q33 -57 73 -57q38 0 89 66.5t93 156.5v21q0 170 49 170q23 0 23 -36q0 -47 -50 -159q3 -48 30 -153q49 33 97 33
q30 0 54 -8t33 -16l9 -8q4 -5 -13 -2l-8 2q-48 12 -75 12q-46 0 -92 -33q23 -88 23 -155q0 -126 -48 -213t-113 -87q-72 0 -72 94q0 79 49.5 183.5t120.5 169.5l-4 35q-9 81 -13 84q-1 1 -2 1q-6 0 -19 -23q-92 -157 -162 -157q-42 0 -77 49q-17 -90 -48 -174t-73.5 -143
t-84.5 -59q-43 0 -64 42t-21 110t19 142.5t52 129.5q-48 -31 -102 -31q-43 0 -82 32q-12 -89 -41.5 -176t-74.5 -148.5t-90 -61.5q-43 0 -64 42t-21 110q0 110 47.5 206.5t113.5 96.5q18 0 30 -10t15 -20l4 -11q1 -3 -3 -4q-10 -1 -14 4q-6 8 -19 8q-40 0 -79.5 -106
t-39.5 -197q0 -86 40 -86q36 0 73.5 60t63.5 145.5t37 170.5q-46 59 -46 118q0 45 32 45q43 0 43 -100q0 -27 -3 -57q34 -39 79 -39q77 0 137 57q36 36 73 36q16 0 26.5 -9t13.5 -17l2 -9q1 -2 -3 -3q-7 -1 -14 3zM968 306q0 17 -2 51q-62 -63 -105 -162.5t-43 -166.5
q0 -60 36 -60q48 0 81 101t33 237z" />
    <glyph glyph-name="o_o_y" unicode="ooy" horiz-adv-x="1321" 
d="M601 467q-6 2 -12 2q-30 0 -63 -62t-54 -146t-21 -148q0 -86 40 -86q52 0 105 127.5t74 269.5q-44 54 -44 127q0 54 33 54q43 0 43 -100q0 -36 -6 -78q14 -11 30 -11q32 0 109.5 52t101.5 52q35 0 35 -44q0 -47 -51 -183t-51 -165q0 -20 14 -20q32 0 81.5 56t96 134.5
t76 133t40.5 79.5q1 2 5.5 12t7 15t7.5 12t11.5 10t14.5 3q16 0 19 -13.5t-2 -19.5q-30 -71 -89.5 -244t-86.5 -245q34 -1 60 -9t35 -16l9 -7h-19h-2q-40 9 -91 9q-34 -86 -66 -151t-71 -122.5t-82.5 -87.5t-90.5 -30q-72 0 -72 69q0 90 101 203.5t229 136.5q26 65 63 168
q12 32 16 50t-1 21q-7 0 -38 -45q-106 -156 -171 -156q-55 0 -55 66q0 54 51.5 182t51.5 153q0 15 -10 15q-11 0 -43.5 -24t-73 -48t-70.5 -24q-15 0 -32 10q-15 -93 -46 -185t-76.5 -158.5t-89.5 -66.5q-43 0 -64 42t-21 110t19 142.5t52 129.5q-48 -31 -102 -31
q-43 0 -82 32q-12 -89 -41.5 -176t-74.5 -148.5t-90 -61.5q-43 0 -64 42t-21 110q0 110 47.5 206.5t113.5 96.5q18 0 30 -10t15 -20l4 -11q1 -3 -3 -4q-10 -1 -14 4q-6 8 -19 8q-40 0 -79.5 -106t-39.5 -197q0 -86 40 -86q36 0 73.5 60t63.5 145.5t37 170.5q-46 59 -46 118
q0 45 32 45q43 0 43 -100q0 -27 -3 -57q34 -39 79 -39q77 0 137 57q36 36 73 36q16 0 26.5 -9t13.5 -17l2 -9q1 -2 -3 -3q-7 -1 -14 3zM736 -340q114 0 259 351q-61 -13 -117.5 -52t-93.5 -86t-58.5 -94t-21.5 -79q0 -40 32 -40z" />
    <glyph glyph-name="o_r" unicode="or" horiz-adv-x="779" 
d="M779 267q5 8 19 5q4 -3 4 -5q-6 -11 -15.5 -29t-38.5 -64t-57 -81t-64.5 -64t-65.5 -29q-39 0 -61.5 29.5t-22.5 74.5q0 56 27 136t54 146.5t27 89.5q0 13 -10.5 24t-32.5 26t-35 27q-23 -96 -64.5 -164t-89.5 -68q-42 0 -77 49q-17 -90 -48 -174t-73.5 -143t-84.5 -59
q-43 0 -64 42t-21 110q0 72 21 150t61 135t87 57q18 0 30 -10t16 -20l3 -11q1 -3 -3 -4q-10 -1 -14 4q-6 8 -19 8q-41 0 -84 -124t-43 -218q0 -86 40 -86q50 0 101 118t75 258q-41 79 -41 148q0 54 33 54q43 0 43 -100q0 -42 -10 -105q33 -57 73 -57q41 0 78 69t57 161l-3 5
q-33 47 -33 104q0 31 11 50.5t30 19.5q32 0 32 -60q0 -53 -13 -112q14 -15 46 -34.5t49 -40.5t17 -55q0 -39 -45.5 -174t-45.5 -181q0 -62 38 -62q68 0 207 234z" />
    <glyph glyph-name="o_s" unicode="os" horiz-adv-x="782" 
d="M353 321q-42 0 -77 49q-17 -90 -48 -174t-73.5 -143t-84.5 -59q-43 0 -64 42t-21 110q0 72 21 150t61 135t87 57q18 0 30 -10t16 -20l3 -11q1 -3 -3 -4q-9 -1 -14 4q-6 8 -19 8q-41 0 -84 -124t-43 -218q0 -86 40 -86q50 0 101 118t75 258q-41 79 -41 148q0 54 33 54
q43 0 43 -100q0 -42 -10 -105q33 -57 73 -57q38 0 89 66.5t93 156.5v21q0 170 49 170q23 0 23 -36q0 -47 -50 -159q3 -48 30 -153q49 33 97 33q30 0 54 -8t33 -16l9 -8q4 -5 -13 -2l-8 2q-48 12 -75 12q-46 0 -92 -33q23 -88 23 -155q0 -126 -48 -213t-113 -87q-72 0 -72 94
q0 79 49.5 183.5t120.5 169.5l-4 36q-9 84 -15 84q-5 0 -19 -23q-92 -157 -162 -157zM557 306q0 17 -2 51q-62 -63 -105 -162.5t-43 -166.5q0 -60 36 -60q48 0 81 101t33 237z" />
    <glyph glyph-name="o_t" unicode="ot" horiz-adv-x="717" 
d="M717 267q4 9 19 5q4 -3 4 -5q-6 -11 -16 -29t-39 -64t-57 -81t-64 -64t-64 -29q-37 0 -56 47.5t-19 131.5q0 75 14 164q-12 -5 -31 -5q-68 0 -124 87q-16 -102 -47 -198.5t-76.5 -164.5t-90.5 -68q-43 0 -64 42t-21 110q0 77 23 158.5t65.5 139.5t91.5 58q18 0 30 -10
t15 -20l4 -11q1 -3 -3 -4q-10 -1 -14 4q-6 8 -19 8q-30 0 -63 -62t-54 -146t-21 -148q0 -86 40 -86q36 0 75 70.5t67 170t40 198.5q-37 77 -37 144q0 56 30 56q41 0 41 -110q0 -36 -7 -94q51 -101 118 -101q19 0 37 9q23 129 65 240q-102 4 -122 8q-4 0 -4.5 5.5t2 10
t6.5 4.5q64 -6 127 -6q33 84 68.5 133.5t66.5 49.5t31 -43t-37 -138q63 3 119 16q4 1 7 -3.5t3 -10t-4 -6.5q-73 -15 -134 -18q-57 -142 -128 -217q-25 -140 -25 -238q0 -124 35 -124t104 93.5t93 140.5zM656 763q0 19 -9 19q-30 0 -78 -150q35 0 52 1q35 92 35 130z
M612 611q-16 -1 -51 -1q-23 -81 -43 -173q52 69 94 174z" />
    <glyph glyph-name="o_t_r" unicode="otr" horiz-adv-x="1138" 
d="M1138 267q5 8 19 5q4 -3 4 -5q-6 -11 -15.5 -29t-38.5 -64t-57 -81t-64.5 -64t-65.5 -29q-39 0 -61.5 29.5t-22.5 74.5q0 56 27 136t54 146t27 90q0 14 -14 24.5t-39 24t-40 29.5q-28 -87 -69.5 -180.5t-89 -178.5t-99.5 -140t-93 -55q-37 0 -56 47.5t-19 131.5
q0 75 14 164q-12 -5 -31 -5q-68 0 -124 87q-16 -102 -47 -198.5t-76.5 -164.5t-90.5 -68q-43 0 -64 42t-21 110q0 77 23 158.5t65.5 139.5t91.5 58q18 0 30 -10t15 -20l4 -11q1 -4 -4 -4q-8 0 -13 4q-8 8 -19 8q-30 0 -63 -62t-54 -146t-21 -148q0 -86 40 -86q36 0 75 70.5
t67 170t40 198.5q-37 77 -37 144q0 56 30 56q41 0 41 -110q0 -36 -7 -94q51 -101 118 -101q19 0 37 9q23 126 65 240q-91 2 -122 8q-4 0 -4.5 5.5t2 10t6.5 4.5q30 -4 127 -6q33 84 68.5 133.5t66.5 49.5t31 -43q0 -41 -37 -138q42 3 92 14q4 1 7 -3.5t3 -10t-4 -6.5
q-33 -9 -106 -16q-61 -146 -129 -217q-25 -140 -25 -238q0 -124 35 -124q40 0 104 93.5t120 216.5t91 231q-23 34 -23 92q0 37 14 61.5t39 24.5q23 0 23 -37q0 -42 -29 -137q16 -18 50 -35t54.5 -37t20.5 -56q0 -39 -45.5 -174t-45.5 -181q0 -62 38 -62q10 0 22.5 6t24.5 15
t25.5 23.5t25 28.5t25.5 32.5t23.5 32.5t21 32t17.5 27.5t14 22.5t8 14zM647 782q-30 0 -78 -150q35 0 52 1q35 92 35 130q0 19 -9 19zM561 610q-23 -81 -43 -173q52 69 94 174q-8 0 -25 -0.5t-26 -0.5z" />
    <glyph glyph-name="o_s_m" unicode="osm" horiz-adv-x="1580" 
d="M552 392q-2 14 -4 33.5t-3 30.5t-2.5 22.5t-3.5 17t-5 5.5q-6 0 -31 -43q-36 -61 -76 -99t-74 -38q-42 0 -77 49q-17 -90 -48 -174t-73.5 -143t-84.5 -59q-43 0 -64 42t-21 110q0 72 21 150t61 135t87 57q18 0 30 -10t16 -20l3 -11q1 -3 -3 -4q-9 -1 -14 4q-4 8 -19 8
q-41 0 -84 -124t-43 -218q0 -86 40 -86q50 0 101 118t75 258q-41 79 -41 148q0 54 33 54q43 0 43 -100q0 -42 -10 -105q33 -57 73 -57q38 0 89 66.5t93 156.5v21q0 170 49 170q23 0 23 -36q0 -47 -50 -159q2 -54 27 -140q75 62 152 62q143 0 143 -165q0 -17 -4 -57
q-2 -26 4 -26t30 43q64 124 130 206.5t115 82.5q50 0 50 -62q0 -35 -20 -125q-13 -60 -4 -60t31 37q97 146 158 146q46 0 46 -55q0 -32 -36.5 -175t-36.5 -198q0 -43 20 -43q29 0 83.5 58.5t93.5 116.5l40 59q5 8 19 5q4 -3 4 -5q-6 -11 -17.5 -29t-44 -64t-61.5 -81
t-65 -64t-61 -29q-68 0 -68 92q0 56 36 190.5t36 164.5q0 24 -12 24q-30 0 -106.5 -110.5t-124.5 -219.5q-13 -29 -30 -29q-10 0 -17 5.5t-7 14.5q0 26 45.5 182t45.5 191q0 30 -19 30q-33 0 -97.5 -89.5t-126.5 -214.5t-90 -221q-3 -11 -12 -11q-14 0 -25 6.5t-11 16.5
q0 16 29.5 135.5t29.5 184.5q0 122 -93 122q-75 0 -146 -64q25 -94 25 -166q0 -126 -48 -213t-113 -87q-72 0 -72 94q0 76 48 183t121 181zM443 -32q48 0 81 101t33 237q0 29 -3 58q-64 -72 -105.5 -172.5t-41.5 -163.5q0 -60 36 -60z" />
    <glyph glyph-name="o_s_n" unicode="osn" horiz-adv-x="1344" 
d="M551 399q-2 15 -5 43.5t-5.5 43.5t-6.5 15q-7 0 -31 -43q-36 -61 -76 -99t-74 -38q-42 0 -77 49q-17 -90 -48 -174t-73.5 -143t-84.5 -59q-43 0 -64 42t-21 110q0 72 21 150t61 135t87 57q18 0 30 -10t16 -20l3 -11q1 -3 -3 -4q-9 -1 -14 4q-5 8 -19 8q-41 0 -84 -124
t-43 -218q0 -86 40 -86q50 0 101 118t75 258q-41 79 -41 148q0 54 33 54q43 0 43 -100q0 -42 -10 -105q33 -57 73 -57q38 0 89 66.5t93 156.5v21q0 170 49 170q23 0 23 -36q0 -47 -50 -159q2 -49 23 -129q119 124 220 124q116 0 116 -142q0 -55 -21 -148q0 -1 -1.5 -7.5
t-3 -13.5t-2.5 -14t0.5 -11.5t4.5 -4.5q10 0 37 41q59 89 115 146.5t92 57.5t36 -45q0 -33 -32 -164t-32 -168t24 -37q30 0 82.5 55t89.5 110l38 55q6 8 19 5q4 -3 4 -5q-6 -10 -17 -27t-42 -61t-59.5 -77t-63.5 -60.5t-61 -27.5q-71 0 -71 83q0 43 30.5 169t30.5 146
q0 14 -7 14q-20 0 -82 -78t-125 -185.5t-83 -176.5q-3 -11 -20 -11q-38 0 -38 15q0 23 27 107.5t54 184.5t27 161q0 94 -66 94q-101 0 -213 -126q28 -106 28 -177q0 -126 -48 -213t-113 -87q-72 0 -72 94q0 77 47.5 180.5t120.5 190.5zM557 306q0 31 -3 64
q-65 -84 -106 -178.5t-41 -163.5q0 -60 36 -60q48 0 81 101t33 237z" />
    <glyph glyph-name="o_s_s" unicode="oss" horiz-adv-x="1101" 
d="M556 331q-9 170 -22 170q-3 0 -8 -7t-13 -19.5t-10 -15.5q-86 -138 -150 -138q-42 0 -77 49q-17 -90 -48 -174t-73.5 -143t-84.5 -59q-43 0 -64 42t-21 110q0 72 21 150t61 135t87 57q18 0 30 -10t16 -20l3 -11q1 -4 -4 -4q-8 0 -13 4q-8 8 -19 8q-41 0 -84 -124
t-43 -218q0 -86 40 -86q50 0 101 118t75 258q-41 79 -41 148q0 54 33 54q43 0 43 -100q0 -42 -10 -105q33 -57 73 -57q38 0 89 66.5t93 156.5v21q0 170 49 170q23 0 23 -36q0 -47 -50 -159q1 -31 6.5 -59.5t18 -73.5t15.5 -57q26 26 77.5 75.5t86 84t56.5 62.5q-2 28 -2 42
q0 84 44 84q27 0 27 -32q0 -36 -46 -94q4 -23 11.5 -49.5t14 -45t18 -49.5t17.5 -47q55 39 105 39q30 0 54 -8t33 -16l9 -8q4 -5 -13 -2l-8 2q-48 12 -75 12q-50 0 -99 -38q29 -89 29 -164q0 -125 -48 -205.5t-112 -80.5q-72 0 -72 94q0 77 47 179t115 167q-5 30 -32 135
q-10 37 -22 37t-45 -33q-27 -27 -83.5 -81t-82.5 -80q14 -63 14 -118q0 -91 -46 -162.5t-109 -71.5q-33 0 -49 19t-16 49q0 98 160 263zM878 271q0 35 -7 80q-60 -64 -101 -160.5t-41 -162.5q0 -60 36 -60q45 0 79 88.5t34 214.5zM449 34q48 0 78 80.5t30 190.5
q-138 -147 -138 -237q0 -34 30 -34z" />
    <glyph glyph-name="o_s_w" unicode="osw" horiz-adv-x="1490" 
d="M551 404q-1 6 -2 18t-2 18q-8 61 -13 61q-6 0 -31 -43q-84 -137 -150 -137q-42 0 -77 49q-17 -90 -48 -174t-73.5 -143t-84.5 -59q-43 0 -64 42t-21 110q0 72 21 150t61 135t87 57q18 0 30 -10t16 -20l3 -11q1 -3 -3 -4q-9 -1 -14 4q-6 8 -19 8q-41 0 -84 -124t-43 -218
q0 -86 40 -86q50 0 101 118t75 258q-41 79 -41 148q0 54 33 54q43 0 43 -100q0 -42 -10 -105q33 -57 73 -57q38 0 89 66.5t93 156.5v21q0 170 49 170q23 0 23 -36q0 -47 -50 -159q2 -46 23 -124q125 135 244 135q101 0 101 -100q0 -58 -42 -188.5t-42 -165.5q0 -38 26 -38
q25 0 60 38.5t68 94.5t54.5 97.5t33.5 67.5q10 24 19 33t25 9q23 0 23 -27q0 -4 -28.5 -123t-28.5 -179q0 -73 40 -73t83 69.5t74.5 164.5t48.5 192q-36 74 -36 142t37 68q39 0 39 -97q0 -52 -12 -116q45 -81 106 -81q58 0 107 89q4 8 19 4q4 -2 4 -4q-2 -5 -6 -12.5
t-17 -26.5t-27 -34t-36 -27t-44 -12q-63 0 -113 70q-20 -100 -55.5 -194t-84 -161.5t-93.5 -67.5q-86 0 -86 146q0 22 4 66q0 6 1 14.5t1.5 13t0.5 9t-0.5 6.5t-1.5 2q-5 0 -31 -42q-93 -153 -164 -153q-69 0 -69 78q0 53 47.5 189.5t47.5 180.5q0 56 -52 56
q-119 0 -239 -137q29 -112 29 -180q0 -126 -48 -213t-113 -87q-72 0 -72 94q0 73 47.5 179.5t120.5 196.5zM557 306q0 34 -3 67q-65 -85 -106 -183t-41 -162q0 -60 36 -60q48 0 81 101t33 237z" />
    <glyph glyph-name="o_s_y" unicode="osy" horiz-adv-x="1271" 
d="M547 440q-6 61 -13 61q-6 0 -31 -43q-86 -137 -150 -137q-42 0 -77 49q-17 -90 -48 -174t-73.5 -143t-84.5 -59q-43 0 -64 42t-21 110q0 72 21 150t61 135t87 57q18 0 30 -10t16 -20l3 -11q1 -3 -3 -4q-10 -2 -14 4q-6 8 -19 8q-41 0 -84 -124t-43 -218q0 -86 40 -86
q50 0 101 118t75 258q-41 79 -41 148q0 54 33 54q43 0 43 -100q0 -42 -10 -105q33 -57 73 -57q38 0 89 66.5t93 156.5v21q0 170 49 170q23 0 23 -36q0 -47 -50 -159q2 -50 25 -134q93 85 185 85q114 0 114 -110q0 -53 -31 -154.5t-31 -120.5q0 -20 14 -20q33 0 83 56.5
t96.5 136.5t75.5 134.5t41 80.5q13 27 22 37t22 10q16 0 19 -13.5t-2 -19.5q-30 -71 -89.5 -244t-86.5 -245q34 -1 60 -9t35 -16l9 -7l-10 -1q-7 0 -11 1q-40 9 -91 9q-34 -86 -66 -151t-71 -122.5t-82.5 -87.5t-90.5 -30q-72 0 -72 69q0 90 101 203.5t229 136.5
q25 62 69 185q8 23 10.5 37t-1.5 17q-6 0 -40 -48q-106 -153 -169 -153q-55 0 -55 66q0 38 32 142.5t32 143.5q0 67 -65 67q-88 0 -179 -86q27 -98 27 -173q0 -126 -48 -213t-113 -87q-72 0 -72 94q0 82 47.5 187t120.5 183q0 5 -4 42zM686 -340q114 0 259 351
q-61 -13 -117.5 -52t-93.5 -86t-58.5 -94t-21.5 -79q0 -40 32 -40zM443 -32q48 0 81 101t33 237q0 32 -3 64q-65 -75 -106 -172t-41 -170q0 -60 36 -60z" />
    <glyph glyph-name="o_v" unicode="ov" horiz-adv-x="889" 
d="M186 447q-6 8 -19 8q-41 0 -84 -124t-43 -218q0 -86 40 -86q52 0 105 127.5t74 269.5q-44 54 -44 127q0 54 33 54q43 0 43 -100q0 -36 -6 -78q14 -11 30 -11q32 0 109.5 52t101.5 52q35 0 35 -47q0 -45 -49 -195.5t-49 -200.5q0 -55 35 -55q44 0 89.5 62t77.5 145t52 172
q-33 71 -33 135q0 67 39 67q38 0 38 -81q0 -45 -15 -118q42 -85 92 -85q38 0 74 36.5t58 81.5q3 8 18 4q5 -2 5 -4q-3 -6 -7.5 -15.5t-21 -34.5t-33.5 -44t-43.5 -34.5t-52.5 -15.5q-54 0 -99 72q-37 -145 -105.5 -261t-138.5 -116q-85 0 -85 108q0 53 26 136t52 153t26 91
q0 14 -10 14q-11 0 -43.5 -24t-73 -48t-70.5 -24q-15 0 -32 10q-15 -93 -46 -185t-76.5 -158.5t-89.5 -66.5q-43 0 -64 42t-21 110q0 72 21 150t61 135t87 57q18 0 30 -10t16 -20l3 -11q1 -3 -3 -4q-10 -2 -14 4z" />
    <glyph glyph-name="o_v_e" unicode="ove" horiz-adv-x="1205" 
d="M186 447q-6 8 -19 8q-41 0 -84 -124t-43 -218q0 -86 40 -86q52 0 105 127.5t74 269.5q-44 54 -44 127q0 54 33 54q43 0 43 -100q0 -36 -6 -78q14 -11 30 -11q32 0 109.5 52t101.5 52q35 0 35 -47q0 -45 -49 -195.5t-49 -200.5q0 -55 35 -55q43 0 88.5 60.5t77.5 143
t52 170.5q-31 71 -31 136q0 71 38 71t38 -81q0 -49 -18 -131q50 -105 126 -106q25 101 82 180t114 79q46 0 46 -44q0 -52 -57 -127t-127 -101q-14 -54 -14 -100q0 -101 74 -101q102 0 218 196q5 8 19 5q4 -3 4 -5q-5 -9 -13.5 -24.5t-35.5 -55t-55 -69.5t-69 -55t-79 -25
q-61 0 -90.5 40t-29.5 107q0 35 8 77q-75 6 -129 96q-24 -91 -60.5 -172.5t-86 -139.5t-96.5 -58q-85 0 -85 108q0 53 26 136t52 153t26 91q0 14 -10 14q-11 0 -43.5 -24t-73 -48t-70.5 -24q-15 0 -32 10q-15 -93 -46 -185t-76.5 -158.5t-89.5 -66.5q-43 0 -64 42t-21 110
q0 72 21 150t61 135t87 57q18 0 30 -10t16 -20l3 -11q1 -3 -3 -4q-10 -2 -14 4zM1056 511q-23 0 -60.5 -65.5t-61.5 -146.5q58 27 98.5 89t40.5 101q0 22 -17 22z" />
    <glyph glyph-name="o_v_y" unicode="ovy" horiz-adv-x="1378" 
d="M186 447q-6 8 -19 8q-41 0 -84 -124t-43 -218q0 -86 40 -86q52 0 105 127.5t74 269.5q-44 54 -44 127q0 54 33 54q43 0 43 -100q0 -36 -6 -78q14 -11 30 -11q32 0 109.5 52t101.5 52q35 0 35 -47q0 -45 -49 -195.5t-49 -200.5q0 -55 35 -55q48 0 94.5 65t75.5 152t41 174
q-25 25 -40.5 60t-15.5 64q0 49 36 49q51 0 51 -105q0 -17 -4 -61q25 -18 54 -18q39 0 76.5 20t67.5 40.5t51 20.5q33 0 33 -40q0 -35 -45.5 -159.5t-45.5 -155.5q0 -20 14 -20q33 0 83 57t96 136t76 135t41 81q12 26 21.5 36t22.5 10q16 0 19 -13.5t-2 -19.5
q-30 -71 -89.5 -244t-86.5 -245q34 -1 60 -9t35 -16l9 -7l-10 -1q-7 0 -11 1q-41 9 -91 9q-34 -86 -66 -151t-71 -122.5t-82.5 -87.5t-90.5 -30q-72 0 -72 69q0 90 101 203.5t229 136.5q48 122 69 185q8 23 10.5 37t-1.5 17q-7 0 -36 -42q-107 -159 -173 -159q-55 0 -55 66
q0 52 46 174t46 137q0 6 -4 6q-7 0 -25 -12t-37.5 -26.5t-50.5 -26.5t-62 -12q-30 0 -57 16q-14 -92 -48 -183.5t-86.5 -158t-105.5 -66.5q-85 0 -85 108q0 53 26 136t52 153t26 91q0 14 -10 14q-11 0 -43.5 -24t-73 -48t-70.5 -24q-15 0 -32 10q-15 -93 -46 -185
t-76.5 -158.5t-89.5 -66.5q-43 0 -64 42t-21 110q0 72 21 150t61 135t87 57q18 0 30 -10t16 -20l3 -11q1 -3 -3 -4q-10 -2 -14 4zM793 -340q114 0 259 351q-61 -13 -117.5 -52t-93.5 -86t-58.5 -94t-21.5 -79q0 -40 32 -40z" />
    <glyph glyph-name="o_u" unicode="ou" horiz-adv-x="934" 
d="M197 461q-6 8 -19 8q-30 0 -63 -62t-54 -146t-21 -148q0 -86 40 -86q36 0 74.5 70.5t66.5 170t40 198.5q-36 78 -36 144q0 56 30 56q41 0 41 -110q0 -36 -7 -95q49 -100 112 -100q25 0 47.5 12.5t31.5 29.5q21 36 42 36q24 0 26 -27q0 -7 -52 -127t-52 -161q0 -23 16 -23
q27 0 69 45.5t87.5 118.5t74.5 124.5t56 102.5q25 47 50 47q22 0 22 -21q0 -11 -31.5 -85.5t-63 -172.5t-31.5 -166q0 -61 34 -61q24 0 57.5 30t66 76.5t51 75t32.5 52.5q4 9 19 5q4 -3 4 -5q-6 -11 -16 -29t-39 -64t-56.5 -81t-63 -64t-62.5 -29q-74 0 -74 118q0 51 12 111
q4 20 5.5 34t-2.5 17q-6 0 -31 -41q-112 -172 -176 -172q-49 0 -49 68q0 79 54 219q-24 -16 -57 -16q-64 0 -118 86q-16 -102 -47 -198t-76.5 -164t-90.5 -68q-43 0 -64 42t-21 110q0 77 23 158.5t65.5 139.5t91.5 58q18 0 30 -10t15 -20l4 -11q1 -4 -4 -4q-9 -1 -13 4z" />
    <glyph glyph-name="o_w" unicode="ow" horiz-adv-x="1112" 
d="M501 487q-11 0 -43.5 -23.5t-73 -46.5t-70.5 -23q-15 0 -32 10q-15 -93 -46 -185t-76.5 -158.5t-89.5 -66.5q-43 0 -64 42t-21 110q0 72 21 150t61 135t87 57q18 0 30 -10t16 -20l3 -11q1 -3 -3 -4q-10 -2 -14 4q-6 8 -19 8q-41 0 -84 -124t-43 -218q0 -86 40 -86
q52 0 105 127.5t74 269.5q-44 54 -44 127q0 54 33 54q43 0 43 -100q0 -36 -6 -78q14 -11 30 -11q33 0 111 52t100 52q33 0 33 -41q0 -39 -47.5 -175t-47.5 -185q0 -38 26 -38q25 0 59.5 37.5t68.5 96.5t53.5 95.5t34.5 68.5q11 24 19.5 33t24.5 9q23 0 23 -27
q0 -4 -28.5 -123t-28.5 -179q0 -73 40 -73t83 69.5t74.5 164.5t48.5 192q-36 74 -36 142t37 68q39 0 39 -97q0 -52 -12 -116q45 -81 106 -81q58 0 107 89q4 8 19 4q4 -2 4 -4q-2 -5 -6 -12.5t-17 -26.5t-27 -34t-36 -27t-44 -12q-63 0 -113 70q-20 -100 -55.5 -194
t-84 -161.5t-93.5 -67.5q-86 0 -86 146q0 34 4 63q3 22 3.5 34t-2.5 14q-5 0 -31 -42q-94 -153 -164 -153q-69 0 -69 78q0 59 51 198t51 155q0 9 -6 9z" />
    <glyph glyph-name="o_w_e" unicode="owe" horiz-adv-x="1424" 
d="M501 487q-11 0 -43.5 -23.5t-73 -46.5t-70.5 -23q-15 0 -32 10q-15 -93 -46 -185t-76.5 -158.5t-89.5 -66.5q-43 0 -64 42t-21 110q0 72 21 150t61 135t87 57q18 0 30 -10t16 -20l3 -11q1 -3 -3 -4q-10 -2 -14 4q-6 8 -19 8q-41 0 -84 -124t-43 -218q0 -86 40 -86
q52 0 105 127.5t74 269.5q-44 54 -44 127q0 54 33 54q43 0 43 -100q0 -36 -6 -78q14 -11 30 -11q33 0 111 52t100 52q33 0 33 -41q0 -39 -47.5 -175t-47.5 -185q0 -38 26 -38q23 0 57.5 37t66.5 90t55.5 97.5t36.5 73.5q10 24 19 33t25 9q23 0 23 -27q0 -4 -28.5 -123
t-28.5 -179q0 -73 40 -73q49 0 98 95t75 212q-42 67 -42 136q0 62 37 62q44 0 44 -88q0 -48 -14 -112q42 -56 103 -56q19 0 28 2q23 105 81.5 189.5t117.5 84.5q46 0 46 -44q0 -50 -55.5 -125.5t-130.5 -109.5q-12 -49 -12 -93q0 -101 74 -101q57 0 116.5 61.5t101.5 134.5
q5 8 19 5q4 -3 4 -5q-5 -9 -13.5 -24.5t-35.5 -55t-55 -69.5t-69 -55t-79 -25q-61 0 -90.5 40t-29.5 107q0 26 5 61q-8 -1 -23 -1q-62 0 -108 54q-19 -77 -49 -147t-70.5 -118.5t-79.5 -48.5q-86 0 -86 146q0 9 0.5 21.5t2 26.5t1.5 20q0 7 1.5 20.5t1.5 16t-2 6.5
q-6 0 -31 -42q-91 -153 -164 -153q-69 0 -69 78q0 59 51 198t51 155q0 9 -6 9zM1275 511q-24 0 -61.5 -67.5t-61.5 -150.5q60 33 100 95.5t40 100.5q0 22 -17 22z" />
    <glyph glyph-name="o_w_h" unicode="owh" horiz-adv-x="1617" 
d="M501 487q-11 0 -43.5 -23.5t-73 -46.5t-70.5 -23q-15 0 -32 10q-15 -93 -46 -185t-76.5 -158.5t-89.5 -66.5q-43 0 -64 42t-21 110q0 72 21 150t61 135t87 57q18 0 30 -10t16 -20l3 -11q1 -3 -3 -4q-10 -2 -14 4q-6 8 -19 8q-41 0 -84 -124t-43 -218q0 -86 40 -86
q52 0 105 127.5t74 269.5q-44 54 -44 127q0 54 33 54q43 0 43 -100q0 -36 -6 -78q14 -11 30 -11q33 0 111 52t100 52q33 0 33 -41q0 -39 -47.5 -175t-47.5 -185q0 -38 26 -38q24 0 57 35t66.5 92t53.5 94t39 77q12 24 20.5 33t23.5 9q23 0 23 -27q0 -4 -28.5 -123
t-28.5 -179q0 -73 40 -73t83 69.5t74.5 164.5t48.5 192q-36 74 -36 142t37 68q39 0 39 -97q0 -52 -12 -116q45 -81 106 -81q20 0 41 12q0 2 1.5 6t2.5 7q35 136 73 246.5t85.5 190t88.5 79.5q44 0 44 -49q0 -69 -73 -219t-155 -234l-10 -37q-21 -70 -38 -139
q-6 -24 -7.5 -36.5t1.5 -13.5q6 0 33 52q174 322 251 322q48 0 48 -56q0 -36 -36 -167.5t-36 -169.5q0 -55 36 -55q68 0 171 167q5 8 19 5q4 -3 4 -5q-4 -8 -11.5 -21.5t-30 -48t-46 -61t-56 -48t-62.5 -21.5q-77 0 -77 99q0 59 37.5 190.5t37.5 143.5q0 15 -10 15
q-42 0 -161.5 -199t-158.5 -293q-12 -30 -33 -30q-19 0 -19 23q0 10 2.5 24.5t10 45t14.5 57.5t23.5 89t29.5 113q-15 -7 -34 -7q-63 0 -113 70q-20 -100 -55.5 -194t-84 -161.5t-93.5 -67.5q-86 0 -86 146q0 22 4 66q0 2 1 8.5t1.5 12t0.5 11.5t-0.5 9.5t-1.5 3.5
q-6 0 -31 -42q-91 -153 -164 -153q-69 0 -69 78q0 59 51 198t51 155q0 9 -6 9zM1386 869q-17 0 -39 -38.5t-47 -111t-42.5 -131t-41.5 -143.5q71 85 130.5 212.5t59.5 185.5q0 26 -20 26z" />
    <glyph glyph-name="o_w_l" unicode="owl" horiz-adv-x="1417" 
d="M501 487q-11 0 -43.5 -23.5t-73 -46.5t-70.5 -23q-15 0 -32 10q-15 -93 -46 -185t-76.5 -158.5t-89.5 -66.5q-43 0 -64 42t-21 110q0 72 21 150t61 135t87 57q18 0 30 -10t16 -20l3 -11q1 -3 -3 -4q-10 -2 -14 4q-6 8 -19 8q-41 0 -84 -124t-43 -218q0 -86 40 -86
q52 0 105 127.5t74 269.5q-44 54 -44 127q0 54 33 54q43 0 43 -100q0 -36 -6 -78q14 -11 30 -11q33 0 111 52t100 52q33 0 33 -41q0 -39 -47.5 -175t-47.5 -185q0 -38 26 -38q24 0 57.5 36t67.5 93.5t54 95t37 73.5q12 24 20.5 33t23.5 9q23 0 23 -27q0 -4 -28.5 -123
t-28.5 -179q0 -73 40 -73t83 69.5t74.5 164.5t48.5 192q-36 74 -36 142t37 68q39 0 39 -97q0 -52 -12 -116q45 -81 106 -81q12 0 22 3q16 123 48.5 235t80 188.5t95.5 76.5q49 0 49 -62q0 -43 -27 -125t-77.5 -171t-104.5 -133q-13 -106 -13 -182q0 -171 50 -171
q32 0 103.5 100t94.5 147q4 9 19 5q4 -3 4 -5q-6 -11 -16.5 -30t-41 -67.5t-58.5 -85t-63 -67t-61 -30.5q-47 0 -70 59t-23 158q0 59 8 136q-6 -2 -19 -2q-63 0 -113 70q-20 -100 -55.5 -194t-84 -161.5t-93.5 -67.5q-86 0 -86 146q0 23 3 62q0 6 2.5 23t2 18.5l-2.5 7.5
q-5 0 -31 -42q-96 -153 -164 -153q-69 0 -69 78q0 59 51 198t51 155q0 9 -6 9zM1363 792q0 39 -27 39q-41 0 -83.5 -127.5t-66.5 -295.5q67 67 122 196t55 188z" />
    <glyph glyph-name="o_w_n" unicode="own" horiz-adv-x="1670" 
d="M501 487q-11 0 -43.5 -23.5t-73 -46.5t-70.5 -23q-15 0 -32 10q-15 -93 -46 -185t-76.5 -158.5t-89.5 -66.5q-43 0 -64 42t-21 110q0 72 21 150t61 135t87 57q18 0 30 -10t16 -20l3 -11q1 -3 -3 -4q-9 -1 -14 4q-6 8 -19 8q-41 0 -84 -124t-43 -218q0 -86 40 -86
q52 0 105 127.5t74 269.5q-44 54 -44 127q0 54 33 54q43 0 43 -100q0 -36 -6 -78q14 -11 30 -11q33 0 111 52t100 52q33 0 33 -41q0 -39 -47.5 -175t-47.5 -185q0 -38 26 -38q30 0 78.5 63t81.5 124t56 111q12 24 20.5 33t23.5 9q23 0 23 -27q0 -4 -28.5 -123t-28.5 -179
q0 -73 40 -73q41 0 85.5 73t76 172.5t47.5 196.5q-38 66 -38 132q0 62 36 62q39 0 39 -97q0 -44 -9 -100q31 -46 71 -46q36 0 92.5 27.5t76.5 27.5q37 0 37 -52q0 -33 -27 -127q-6 -20 -7 -29t3 -11q9 0 36 47q62 109 119.5 181t92.5 72q48 0 48 -56q0 -36 -36 -167.5
t-36 -169.5q0 -55 36 -55q71 0 171 167q5 8 19 5q4 -3 4 -5q-4 -8 -11.5 -21.5t-30 -48t-46 -61t-56 -48t-62.5 -21.5q-77 0 -77 99q0 59 37.5 190.5t37.5 143.5q0 15 -10 15q-31 0 -109.5 -119t-142 -237.5t-74.5 -148.5q-4 -11 -13 -11q-14 0 -24.5 6.5t-10.5 16.5
q0 24 60 186.5t60 206.5q0 25 -14 25q-5 0 -54.5 -25t-88.5 -25q-40 0 -76 39q-19 -102 -55 -201.5t-86 -171t-97 -71.5q-86 0 -86 146q0 23 3 56q0 7 1 16.5t1.5 15.5l1 12t0 8.5t-1.5 2.5q-5 0 -31 -42q-96 -153 -164 -153q-69 0 -69 78q0 59 51 198t51 155q0 9 -6 9z" />
    <glyph glyph-name="o_w_r" unicode="owr" horiz-adv-x="1466" 
d="M501 487q-11 0 -43.5 -23.5t-73 -46.5t-70.5 -23q-15 0 -32 10q-15 -93 -46 -185t-76.5 -158.5t-89.5 -66.5q-43 0 -64 42t-21 110q0 72 21 150t61 135t87 57q18 0 30 -10t16 -20l3 -11q1 -3 -3 -4q-9 -1 -14 4q-6 8 -19 8q-41 0 -84 -124t-43 -218q0 -86 40 -86
q52 0 105 127.5t74 269.5q-44 54 -44 127q0 54 33 54q43 0 43 -100q0 -36 -6 -78q14 -11 30 -11q33 0 111 52t100 52q33 0 33 -41q0 -39 -47.5 -175t-47.5 -185q0 -38 26 -38q31 0 81 66t81.5 124t49.5 98l2 4q0 4 2 6q10 24 19 33t25 9q23 0 23 -27q0 -4 -28.5 -123
t-28.5 -179q0 -73 40 -73q47 0 93.5 88t74.5 202q-38 68 -38 145q0 70 38 70q43 0 43 -88q0 -51 -16 -125q27 -40 59 -40q47 0 93.5 93.5t72.5 208.5l-3 5q-33 47 -33 104q0 31 11 50.5t30 19.5q32 0 32 -60q0 -44 -13 -111q14 -16 46 -35.5t49 -40.5t17 -55
q0 -39 -45.5 -174t-45.5 -181q0 -62 38 -62q10 0 22.5 6t24.5 15t25.5 23.5t25 28.5t25.5 32.5t23.5 32.5t21 32t17.5 27.5t14 22.5t8 14q5 8 19 5q4 -3 4 -5q-6 -11 -15.5 -29t-38.5 -64t-57 -81t-64.5 -64t-65.5 -29q-39 0 -61.5 29.5t-22.5 74.5q0 56 27 136t54 146.5
t27 89.5q0 13 -10.5 24t-32.5 26t-35 27q-29 -122 -81 -215t-108 -93q-33 0 -61 34q-31 -117 -85 -205.5t-109 -88.5q-86 0 -86 146q0 36 4 64q2 17 3 29t-2 18q-5 0 -31 -42q-93 -153 -164 -153q-69 0 -69 78q0 59 51 198t51 155q0 9 -6 9z" />
    <glyph glyph-name="o_w_s" unicode="ows" horiz-adv-x="1484" 
d="M501 487q-11 0 -43.5 -23.5t-73 -46.5t-70.5 -23q-15 0 -32 10q-15 -93 -46 -185t-76.5 -158.5t-89.5 -66.5q-43 0 -64 42t-21 110q0 72 21 150t61 135t87 57q18 0 30 -10t16 -20l3 -11q1 -3 -3 -4q-9 -1 -14 4q-4 8 -19 8q-41 0 -84 -124t-43 -218q0 -86 40 -86
q52 0 105 127.5t74 269.5q-44 54 -44 127q0 54 33 54q43 0 43 -100q0 -36 -6 -78q14 -11 30 -11q33 0 111 52t100 52q33 0 33 -41q0 -39 -47.5 -175t-47.5 -185q0 -38 26 -38q23 0 56.5 35.5t65.5 88t55.5 97t38.5 77.5q10 24 19 33t25 9q23 0 23 -27q0 -4 -28.5 -123
t-28.5 -179q0 -73 40 -73q47 0 93 86t74 198q-37 72 -37 149q0 72 38 72q44 0 44 -88q0 -52 -18 -131q29 -47 62 -47q31 0 74.5 49.5t81.5 116.5t70 140v23q0 170 49 170q23 0 23 -36q0 -45 -50 -160q3 -47 30 -152q49 33 97 33q30 0 54 -8t33 -16l9 -8q4 -5 -13 -2l-8 2
q-48 12 -75 12q-46 0 -92 -33q23 -88 23 -155q0 -126 -48 -213t-113 -87q-72 0 -72 94q0 79 49.5 183.5t120.5 169.5q-1 9 -2 17.5t-1.5 13t-0.5 5.5q-8 77 -14 77q-7 0 -30 -43q-120 -219 -200 -219q-33 0 -65 40q-31 -115 -84.5 -201t-107.5 -86q-86 0 -86 146q0 30 4 68
q3 19 3.5 27t-2.5 16q-6 0 -31 -42q-92 -153 -164 -153q-69 0 -69 78q0 59 51 198t51 155q0 9 -6 9zM1259 306q0 17 -2 51q-62 -63 -105 -162.5t-43 -166.5q0 -60 36 -60q48 0 81 101t33 237z" />
    <glyph glyph-name="o_w_t" unicode="owt" horiz-adv-x="1400" 
d="M501 487q-11 0 -43.5 -23.5t-73 -46.5t-70.5 -23q-15 0 -32 10q-15 -93 -46 -185t-76.5 -158.5t-89.5 -66.5q-43 0 -64 42t-21 110q0 72 21 150t61 135t87 57q18 0 30 -10t16 -20l3 -11q1 -4 -4 -4q-8 0 -13 4q-8 8 -19 8q-41 0 -84 -124t-43 -218q0 -86 40 -86
q52 0 105 127.5t74 269.5q-44 54 -44 127q0 54 33 54q43 0 43 -100q0 -36 -6 -78q14 -11 30 -11q33 0 111 52t100 52q33 0 33 -41q0 -39 -47.5 -175t-47.5 -185q0 -38 26 -38q67 0 216 298q12 25 20.5 33.5t23.5 8.5q23 0 23 -27q0 -4 -28.5 -123t-28.5 -179q0 -73 40 -73
t83 69.5t74.5 164.5t48.5 192q-36 74 -36 142t37 68q39 0 39 -97q0 -52 -12 -116q45 -81 106 -81q12 0 30 7q22 123 66 242q-78 2 -97 6q-4 0 -4.5 5.5t2 10t6.5 4.5q48 -4 102 -4q33 84 68.5 133.5t66.5 49.5t31 -43q0 -46 -35 -138q78 6 117 16q4 1 7 -3.5t3 -10t-4 -6.5
q-63 -13 -132 -18q-57 -142 -130 -220q-25 -138 -25 -235q0 -124 35 -124t104 93.5t93 140.5q4 9 19 5q4 -3 4 -5q-6 -11 -16 -29t-39 -64t-57 -81t-64 -64t-64 -29q-37 0 -56 47.5t-19 131.5q0 74 14 163q-12 -4 -26 -4q-63 0 -113 70q-20 -100 -55.5 -194t-84 -161.5
t-93.5 -67.5q-86 0 -86 146q0 27 4 67l2 26l-1 18q-6 0 -31 -42q-91 -153 -164 -153q-69 0 -69 78q0 59 51 198t51 155q0 9 -6 9zM1339 763q0 19 -9 19q-30 0 -78 -150q35 0 52 1q35 91 35 130zM1201 435q50 66 95 176q-17 -1 -52 -1q-25 -84 -43 -175z" />
    <glyph glyph-name="o_x" unicode="ox" horiz-adv-x="871" 
d="M499 479q-11 0 -43 -21.5t-72 -42.5t-70 -21q-15 0 -32 10q-15 -93 -46 -185t-76.5 -158.5t-89.5 -66.5q-43 0 -64 42t-21 110q0 72 21 150t61 135t87 57q18 0 30 -10t16 -20l3 -11q1 -3 -3 -4q-10 -1 -14 4q-6 8 -19 8q-41 0 -84 -124t-43 -218q0 -86 40 -86
q52 0 105 127.5t74 269.5q-44 54 -44 127q0 54 33 54q43 0 43 -100q0 -36 -6 -78q14 -11 30 -11q32 0 107 48t99 48q34 0 51.5 -42.5t31.5 -122.5q20 25 47 60.5t42.5 56t33.5 41.5t30.5 30.5t22.5 9.5q13 0 16 -9.5t-3 -16.5q-3 -4 -31 -34.5t-73.5 -80.5t-79.5 -90
q21 -135 40 -174q21 -39 51 -40q29 0 66.5 33.5t61 66t43.5 67.5q4 8 19 4q4 -2 4 -4q-4 -8 -11.5 -21.5t-30.5 -48t-46 -61t-55.5 -48t-61.5 -21.5q-99 0 -137 179q-24 -31 -52.5 -70.5t-47 -65t-37.5 -49.5t-33 -35.5t-25 -11.5q-10 0 -14 6t1 14q16 24 202 243
q-4 25 -9 59t-8 56.5t-7.5 44t-10 32t-12.5 10.5z" />
    <glyph glyph-name="o_y" unicode="oy" horiz-adv-x="910" 
d="M501 490q-11 0 -43.5 -24t-73 -48t-70.5 -24q-15 0 -32 10q-15 -93 -46 -185t-76.5 -158.5t-89.5 -66.5q-43 0 -64 42t-21 110q0 72 21 150t61 135t87 57q18 0 30 -10t16 -20l3 -11q1 -3 -3 -4q-10 -1 -14 4q-6 8 -19 8q-41 0 -84 -124t-43 -218q0 -86 40 -86
q52 0 105 127.5t74 269.5q-44 54 -44 127q0 54 33 54q43 0 43 -100q0 -36 -6 -78q14 -11 30 -11q32 0 109.5 52t101.5 52q35 0 35 -44q0 -47 -51 -183t-51 -165q0 -20 14 -20q33 0 83 56.5t96.5 136.5t75.5 134.5t41 80.5q12 27 21.5 37t22.5 10q16 0 19 -13.5t-2 -19.5
q-30 -71 -89.5 -244t-86.5 -245q34 -1 60 -9t35 -16l9 -7q1 -1 -1 -2l-20 2q-41 9 -91 9q-34 -86 -66 -151t-71 -122.5t-82.5 -87.5t-90.5 -30q-72 0 -72 69q0 90 101 203.5t229 136.5q33 85 64 171q17 51 17 62q0 6 -3 6q-7 0 -21 -20q-119 -181 -188 -181q-55 0 -55 66
q0 54 51.5 182t51.5 153q0 15 -10 15zM325 -340q114 0 259 351q-61 -13 -117.5 -52t-93.5 -86t-58.5 -94t-21.5 -79q0 -40 32 -40z" />
    <glyph glyph-name="o_z" unicode="oz" horiz-adv-x="763" 
d="M343 432q39 0 121 47t113 47q35 0 53 -22t18 -60q0 -68 -55.5 -148.5t-126.5 -109.5q28 -10 48 -30q49 19 92 19q22 0 38.5 -5.5t21.5 -10.5l6 -5q3 -3 -6 -6q-10 -4 -15 -2q-16 8 -46 8q-38 0 -77 -14q35 -45 35 -120q0 -87 -43 -179t-116 -154t-149 -62q-77 0 -77 80
q0 99 94.5 238t213.5 200q-26 32 -74 32q-9 0 -14.5 6t-5.5 12q0 5 4 5q70 0 132.5 89.5t62.5 159.5q0 46 -36 46q-17 0 -53 -20.5t-80 -41.5t-80 -21q-28 0 -57 17q-12 -94 -43.5 -192t-78.5 -169.5t-93 -71.5q-43 0 -64 42t-21 110q0 72 21 150t61 135t87 57q18 0 30 -10
t16 -20l3 -11q1 -3 -3 -4q-10 -1 -14 4q-6 8 -19 8q-41 0 -84 -124t-43 -218q0 -86 40 -86q36 0 75.5 69t67.5 164.5t39 185.5q-47 49 -47 111q0 48 33 48q43 0 43 -100q0 -25 -3 -52q24 -21 55 -21zM509 56q0 43 -13 70q-76 -37 -145.5 -117.5t-108 -162.5t-38.5 -137
q0 -51 40 -51q56 0 119 66t104.5 160t41.5 172z" />
    <glyph glyph-name="o_z_y" unicode="ozy" horiz-adv-x="1287" 
d="M855 425q-30 0 -106.5 -79.5t-205.5 -229.5q20 -43 20 -96q0 -83 -38 -176t-97.5 -156t-116.5 -63q-63 0 -63 59q0 116 256 417q-17 74 -95 74q-7 0 -12 6t-5 12q0 5 4 5q70 0 132.5 89.5t62.5 159.5q0 46 -36 46q-17 0 -53 -20.5t-80 -41.5t-80 -21q-28 0 -57 17
q-12 -94 -43.5 -192t-78.5 -169.5t-93 -71.5q-43 0 -64 42t-21 110q0 72 21 150t61 135t87 57q18 0 30 -10t16 -20l3 -11q1 -3 -3 -4q-10 -1 -14 4q-6 8 -19 8q-41 0 -84 -124t-43 -218q0 -86 40 -86q36 0 75.5 69t67.5 164.5t39 185.5q-47 49 -47 111q0 48 33 48
q43 0 43 -100q0 -25 -3 -52q24 -21 55 -21q39 0 121 47t113 47q35 0 53 -22t18 -60q0 -68 -55.5 -148.5t-126.5 -109.5q42 -16 67 -53q162 185 203 228q96 96 139 97q43 0 43 -46q0 -39 -41 -146.5t-41 -137.5q0 -20 14 -20q33 0 83 56.5t96.5 136.5t75.5 134.5t41 80.5
q12 27 21.5 37t22.5 10q16 0 19 -13.5t-2 -19.5q-30 -71 -89.5 -244t-86.5 -245q34 -1 60 -9t35 -16l9 -7q1 -1 -1 -2q-8 -1 -20 2q-40 9 -91 9q-34 -86 -66 -151t-71 -122.5t-82.5 -87.5t-90.5 -30q-72 0 -72 69q0 90 101 203.5t229 136.5q19 49 66 176q23 63 12 63
q-7 0 -37 -44q-106 -157 -172 -157q-55 0 -55 66q0 41 39 147.5t39 125.5q0 12 -8 12zM702 -340q114 0 259 351q-61 -13 -117.5 -52t-93.5 -86t-58.5 -94t-21.5 -79q0 -40 32 -40zM509 56q0 13 -1 19q-87 -105 -160 -219t-73 -167q0 -31 25 -31q37 0 87 66t86 161t36 171z
" />
    <glyph glyph-name="p_p" unicode="pp" horiz-adv-x="990" 
d="M766 327q4 0 3.5 -8t-3.5 -9q-33 -6 -68.5 -82t-35.5 -128q0 -34 19 -34q28 0 67.5 73t67.5 167t28 152q0 53 -26 53q-45 0 -131 -141.5t-163 -319.5t-107 -295q-3 -12 -7 -16.5t-13 -4.5q-10 0 -23 7t-13 16q0 26 114 438q14 49 31 112t24.5 91.5t17 61t15.5 48.5t12 27
q-84 -9 -165 -61q3 -16 3 -35q0 -65 -31 -159.5t-84.5 -171t-105.5 -76.5q-22 0 -35.5 18.5t-13.5 51.5q0 75 61.5 181t156.5 180q-2 48 -32 48q-50 0 -141.5 -155.5t-170.5 -344t-111 -309.5q-3 -12 -7 -16.5t-13 -4.5q-10 0 -21 6.5t-11 16.5q0 11 42 176t84 315
q13 47 35 127q49 180 68.5 235.5t40.5 55.5q17 0 17 -22q0 -7 -3.5 -23t-13.5 -53t-19.5 -71.5t-31.5 -111.5t-40 -141q-16 -54 -22 -79q-14 -64 -9 -65q6 0 29 53q54 124 106.5 219.5t107 160.5t95.5 65q49 0 65 -51q97 62 196 63h4q17 0 17 -22t-90 -344q-1 -3 -3.5 -12.5
t-4 -16.5t-4.5 -17t-4 -17.5t-2.5 -15t-1 -11t2.5 -3.5q3 0 32 57q186 390 282 390q67 0 67 -108q0 -75 -30.5 -170.5t-80 -165t-95.5 -69.5q-52 0 -52 66t44.5 147.5t83.5 81.5zM185 68q41 0 102.5 137t71.5 231q-84 -71 -138 -167t-54 -167q0 -34 18 -34z" />
    <glyph glyph-name="p_p_y" unicode="ppy" horiz-adv-x="1502" 
d="M818 511q-45 0 -131 -141.5t-163 -319.5t-107 -295q-3 -12 -7 -16.5t-13 -4.5q-10 0 -23 7t-13 16q0 26 114 438q14 49 31 112t24.5 91.5t17 61t15.5 48.5t12 27q-84 -9 -165 -61q3 -16 3 -35q0 -65 -31 -159.5t-84.5 -171t-105.5 -76.5q-22 0 -35.5 18.5t-13.5 51.5
q0 75 61.5 181t156.5 180q-2 48 -32 48q-50 0 -141.5 -155.5t-170.5 -344t-111 -309.5q-3 -12 -7 -16.5t-13 -4.5q-10 0 -21 6.5t-11 16.5q0 11 42 176t84 315q13 47 35 127q49 180 68.5 235.5t40.5 55.5q17 0 17 -22q0 -7 -3.5 -23t-13.5 -53t-19.5 -71.5t-31.5 -111.5
t-40 -141q-16 -54 -22 -79q-14 -64 -9 -65q6 0 29 53q54 124 106.5 219.5t107 160.5t95.5 65q49 0 65 -51q97 62 197 63h3q17 0 17 -22q0 -34 -98 -372q-8 -28 -11 -45.5t2 -19.5q6 0 32 57q80 171 154 280.5t128 109.5t69 -63q55 31 101 31q114 0 114 -110
q0 -53 -31 -154.5t-31 -120.5q0 -20 14 -20q33 0 83 56.5t96.5 136.5t75.5 134.5t41 80.5q12 27 21.5 37t22.5 10q16 0 19 -13.5t-2 -19.5q-30 -71 -89.5 -244t-86.5 -245q34 -1 60 -9t35 -16l9 -7l-10 -1q-7 0 -11 1q-41 9 -91 9q-34 -86 -66 -151t-71 -122.5t-82.5 -87.5
t-90.5 -30q-72 0 -72 69q0 90 101 203.5t229 136.5q38 98 64 172q11 33 14.5 49t-0.5 18q-3 0 -7 -4t-9 -10t-9 -12t-8.5 -13t-6.5 -9q-104 -153 -169 -153q-55 0 -55 66q0 38 32 142.5t32 143.5q0 65 -64 65q-47 0 -99 -29q0 -4 0.5 -11.5t0.5 -11.5q0 -76 -31 -171
t-82.5 -165.5t-103.5 -70.5q-28 0 -42.5 17.5t-14.5 47.5q0 72 67 179t155 175v6q0 54 -32 54zM917 -340q114 0 259 351q-61 -13 -117.5 -52t-93.5 -86t-58.5 -94t-21.5 -79q0 -40 32 -40zM673 66q30 0 69.5 63t68.5 147t37 149q-79 -65 -138 -166t-59 -161q0 -32 22 -32z
M185 68q41 0 102.5 137t71.5 231q-84 -71 -138 -167t-54 -167q0 -34 18 -34z" />
    <glyph glyph-name="p_m" unicode="pm" horiz-adv-x="1304" 
d="M522 513q-52 0 -112 -39q3 -16 3 -35q0 -76 -31 -171t-82.5 -165.5t-103.5 -70.5q-28 0 -42.5 17.5t-14.5 47.5q0 70 67 180.5t155 183.5q-2 50 -32 50q-50 0 -141.5 -155.5t-170.5 -344t-111 -309.5q-3 -12 -7 -16.5t-13 -4.5q-10 0 -21 6.5t-11 16.5q0 11 42 176
t84 315q13 47 35 127q49 180 68.5 235.5t40.5 55.5q17 0 17 -22q0 -7 -3.5 -23t-13.5 -53t-19.5 -71.5t-31.5 -111.5t-40 -141q-16 -54 -22 -79q-14 -64 -9 -65q6 0 31 57q84 191 166 316t141 125q49 0 65 -51q61 41 116 41q115 0 115 -123q0 -33 -7 -84q-7 -54 -4 -56
q7 0 32 45q56 106 118 178.5t104 72.5q50 0 50 -62q0 -35 -20 -125q-2 -9 -3.5 -15.5t-3.5 -18.5t-1 -19t4 -7q7 0 31 37q101 146 158 146q46 0 46 -55q0 -32 -36.5 -175t-36.5 -198q0 -43 20 -43q29 0 83.5 58.5t93.5 116.5l40 59q5 8 19 5q4 -3 4 -5q-6 -11 -17.5 -29
t-44 -64t-61.5 -81t-65 -64t-61 -29q-68 0 -68 92q0 56 36 190.5t36 164.5q0 24 -12 24q-30 0 -107 -111t-124 -219q-13 -29 -30 -29q-10 0 -17 5.5t-7 14.5q0 26 45.5 182t45.5 191q0 30 -19 30q-48 0 -152.5 -181t-161.5 -344q-4 -11 -12 -11q-14 0 -25 6.5t-11 16.5
q0 19 46.5 184.5t46.5 223.5q0 83 -66 83zM184 66q31 0 71.5 66t69.5 153t35 151q-80 -71 -139 -175t-59 -163q0 -32 22 -32z" />
    <glyph glyph-name="p_n" unicode="pn" horiz-adv-x="1064" 
d="M531 535q-57 0 -123 -50q5 -23 5 -46q0 -76 -31 -171t-82.5 -165.5t-103.5 -70.5q-28 0 -42.5 17.5t-14.5 47.5q0 68 66.5 181t154.5 192q-3 41 -31 41q-50 0 -141.5 -155.5t-170.5 -344t-111 -309.5q-3 -12 -7 -16.5t-13 -4.5q-10 0 -21 6.5t-11 16.5q0 11 42 176
t84 315q13 47 35 127q49 180 68.5 235.5t40.5 55.5q17 0 17 -22q0 -7 -3.5 -23t-13.5 -53t-19.5 -71.5t-31.5 -111.5t-40 -141q-16 -54 -22 -79q-14 -64 -9 -65q6 0 29 53q54 124 106.5 219.5t107 160.5t95.5 65q45 0 62 -41q73 53 129 53q109 0 109 -131q0 -58 -24 -159
q0 -1 -2 -8.5t-3 -13.5t-2 -13.5t0 -11.5t5 -4q12 0 47 57q56 82 109.5 135t87.5 53q36 0 36 -45q0 -33 -32 -164t-32 -168t24 -37q22 0 57.5 31.5t70.5 76t54 72t28 40.5q5 8 19 5q4 -3 4 -5q-6 -10 -17 -27t-42 -61t-59.5 -77t-63.5 -60.5t-61 -27.5q-71 0 -71 83
q0 43 30.5 169t30.5 146q0 14 -7 14q-20 0 -82 -78t-125 -185.5t-83 -176.5q-3 -11 -20 -11q-38 0 -38 15q0 21 57.5 211t57.5 252q0 82 -63 82zM184 66q32 0 73 68.5t70.5 158t32.5 151.5q-79 -77 -138.5 -183t-59.5 -163q0 -32 22 -32z" />
    <glyph glyph-name="p_r" unicode="pr" horiz-adv-x="910" 
d="M101 87q0 2 4 3.5t9 0.5t5 -3q7 -26 35 -26q43 0 90 74.5t76.5 167t29.5 153.5q0 54 -27 54q-45 0 -134 -155t-168 -344.5t-111 -309.5q-3 -12 -7 -16.5t-13 -4.5q-10 0 -23 7t-13 16q0 11 42 176t84 315q87 313 103 358q23 60 43 60q17 0 17 -22q0 -11 -9.5 -47
t-39 -141.5t-57.5 -211.5l-18 -68q-9 -33 -11 -45.5t1 -19.5q7 0 34 60q52 118 101.5 209t101 154.5t88.5 63.5q67 0 67 -108q0 -76 -32.5 -170t-89 -164.5t-114.5 -70.5q-57 0 -64 55zM660 715q0 -45 -26 -139q13 -15 37 -28.5t41 -22t30.5 -28t13.5 -47.5
q0 -39 -45.5 -174t-45.5 -181q0 -62 38 -62q68 0 207 234q5 8 19 5q4 -3 4 -5q-6 -11 -15.5 -29t-38.5 -64t-57 -81t-64.5 -64t-65.5 -29q-39 0 -61.5 29.5t-22.5 74.5q0 56 27 136t54 146t27 90q0 14 -13.5 24t-37.5 23.5t-39 27.5q-43 -142 -109.5 -287t-113.5 -184
q-4 -3 -9 0t-6 8t2 8q40 30 109.5 182.5t110.5 291.5q-26 36 -26 96q0 37 14 61.5t39 24.5q23 0 23 -37z" />
    <glyph glyph-name="p_s" unicode="ps" horiz-adv-x="921" 
d="M101 87q0 2 4 3.5t9 0.5t5 -3q7 -26 35 -26q43 0 90 74.5t76.5 167t29.5 153.5q0 54 -27 54q-45 0 -134 -155t-168 -344.5t-111 -309.5q-3 -12 -7 -16.5t-13 -4.5q-10 0 -23 7t-13 16q0 11 42 176t84 315q87 313 103 358q23 60 43 60q17 0 17 -22q0 -11 -9.5 -47
t-39 -140.5t-57.5 -212.5l-18 -68q-9 -33 -11 -45.5t1 -19.5q6 0 32 57q53 120 103 211.5t101.5 155t88.5 63.5q67 0 67 -108q0 -76 -32.5 -170t-89 -164.5t-114.5 -70.5q-57 0 -64 55zM920 410q2 -3 -3 -3l-18 3q-24 12 -75 12q-46 0 -92 -33q23 -88 23 -155
q0 -126 -48 -213t-113 -87q-72 0 -72 94q0 79 49.5 183.5t120.5 169.5l-12 108q-2 21 -10 21q-7 0 -28 -38q-200 -379 -276 -403q-5 -1 -7 4t-1 11t4 7q44 14 138 172t175 328q0 166 60 166q27 0 27 -29q0 -16 -65 -149v-1q0 -59 30 -169q49 33 97 33q30 0 54 -8t33 -16z
M696 306q0 17 -2 51q-62 -63 -105 -162.5t-43 -166.5q0 -60 36 -60q48 0 81 101t33 237z" />
    <glyph glyph-name="p_v" unicode="pv" horiz-adv-x="1001" 
d="M522 513q-52 0 -112 -39q3 -16 3 -35q0 -76 -31 -171t-82.5 -165.5t-103.5 -70.5q-28 0 -42.5 17.5t-14.5 47.5q0 70 67 180.5t155 183.5q-2 50 -32 50q-50 0 -141.5 -155.5t-170.5 -344t-111 -309.5q-3 -12 -7 -16.5t-13 -4.5q-10 0 -21 6.5t-11 16.5q0 11 42 176
t84 315q13 47 35 127q49 180 68.5 235.5t40.5 55.5q17 0 17 -22q0 -7 -3.5 -23t-13.5 -53t-19.5 -71.5t-31.5 -111.5t-40 -141q-16 -54 -22 -79q-14 -64 -9 -65q6 0 33 61q54 121 104.5 214t105.5 158t95 65q49 0 65 -51q61 41 116 41q115 0 115 -124q0 -58 -30.5 -179
t-30.5 -155q0 -55 35 -55q44 0 89.5 62t77.5 145t52 172q-33 71 -33 135q0 67 39 67q38 0 38 -81q0 -45 -15 -118q42 -85 92 -85q24 0 48 14.5t41.5 38t26.5 38t16 27.5q3 8 18 4q5 -2 5 -4q-3 -6 -7.5 -15.5t-21 -34.5t-33.5 -44t-43.5 -34.5t-52.5 -15.5q-54 0 -99 72
q-37 -145 -105.5 -261t-138.5 -116q-85 0 -85 108q0 42 33.5 166t33.5 173q0 78 -64 78zM184 66q31 0 71.5 66t69.5 153t35 151q-80 -71 -139 -175t-59 -163q0 -32 22 -32z" />
    <glyph glyph-name="p_w" unicode="pw" horiz-adv-x="1229" 
d="M565 551q-73 0 -158 -65q6 -21 6 -47q0 -76 -31 -171t-82.5 -165.5t-103.5 -70.5q-28 0 -42.5 17.5t-14.5 47.5q0 66 66 178.5t155 195.5q-3 40 -31 40q-50 0 -141.5 -155.5t-170.5 -344t-111 -309.5q-3 -12 -7 -16.5t-13 -4.5q-10 0 -21 6.5t-11 16.5q0 11 42 176
t84 315q13 47 35 127q49 180 68.5 235.5t40.5 55.5q17 0 17 -22q0 -7 -3.5 -23t-13.5 -53t-19.5 -71.5t-31.5 -111.5t-40 -141q-16 -54 -22 -79q-14 -64 -9 -65q6 0 29 53q86 196 168 320.5t141 124.5q43 0 61 -40q90 68 163 68q101 0 101 -100q0 -58 -42 -188.5t-42 -165.5
q0 -38 26 -38q69 0 216 298q12 24 20.5 33t23.5 9q23 0 23 -27q0 -4 -28.5 -123t-28.5 -179q0 -73 40 -73t83 69.5t74.5 164.5t48.5 192q-36 74 -36 142t37 68q39 0 39 -97q0 -52 -12 -116q45 -81 106 -81q58 0 107 89q4 8 19 4q4 -2 4 -4q-2 -5 -6 -12.5t-17 -26.5t-27 -34
t-36 -27t-44 -12q-63 0 -113 70q-20 -100 -55.5 -194t-84 -161.5t-93.5 -67.5q-86 0 -86 146q0 39 4 67q2 16 2.5 25.5t-1.5 18.5q-5 0 -31 -42q-96 -153 -164 -153q-69 0 -69 78q0 53 47.5 189.5t47.5 180.5q0 56 -52 56zM184 66q32 0 73.5 69t71 159t32.5 152
q-81 -79 -140 -185.5t-59 -162.5q0 -32 22 -32z" />
    <glyph glyph-name="p_y" unicode="py" horiz-adv-x="1013" 
d="M511 491q-47 0 -99 -29q0 -4 0.5 -11.5t0.5 -11.5q0 -76 -31 -171t-82.5 -165.5t-103.5 -70.5q-28 0 -42.5 17.5t-14.5 47.5q0 72 67 179t155 175v6q0 54 -32 54q-50 0 -142 -155.5t-171 -344t-110 -309.5q-3 -12 -7 -16.5t-13 -4.5q-10 0 -21 6.5t-11 16.5q0 11 42 176
t84 315q13 47 35 127q49 180 68.5 235.5t40.5 55.5q17 0 17 -22q0 -7 -3.5 -23t-13.5 -53t-19.5 -71.5t-31.5 -111.5t-40 -141q-16 -54 -22 -79q-14 -64 -9 -65q6 0 29 53q54 124 106.5 219.5t107 160.5t95.5 65q54 0 69 -63q55 31 101 31q114 0 114 -110q0 -53 -31 -154.5
t-31 -120.5q0 -20 14 -20q33 0 83 56.5t96.5 136.5t75.5 134.5t41 80.5q12 27 21.5 37t22.5 10q16 0 19 -13.5t-2 -19.5q-30 -71 -89.5 -244t-86.5 -245q34 -1 60 -9t35 -16l9 -7q1 -1 -1 -2l-20 2q-40 9 -91 9q-34 -86 -66 -151t-71 -122.5t-82.5 -87.5t-90.5 -30
q-72 0 -72 69q0 90 101 203.5t229 136.5q14 35 39.5 104t29.5 81q8 23 10.5 37t-1.5 17q-6 0 -22 -22q-122 -179 -187 -179q-55 0 -55 66q0 38 32 142.5t32 143.5q0 65 -64 65zM428 -340q114 0 259 351q-61 -13 -117.5 -52t-93.5 -86t-58.5 -94t-21.5 -79q0 -40 32 -40z
M184 66q30 0 69.5 63t68.5 147t37 149q-79 -65 -138 -166t-59 -161q0 -32 22 -32z" />
    <glyph glyph-name="q_m" unicode="qm" horiz-adv-x="1305" 
d="M539 10q-5 -11 -12 -11q-14 0 -25 6.5t-12 16.5q-1 22 46 185t47 196q0 22 -15 22q-46 0 -131 -143t-156 -315.5t-89 -268.5q-1 -3 -7 -4.5t-11.5 1t-4.5 8.5q15 66 61 187t106 250t130 223.5t122 94.5q44 0 44 -56q0 -37 -21 -128q0 -1 -2 -9t-3.5 -14.5t-3 -14.5
t-0.5 -12.5t4 -4.5q7 0 32 46q75 140 135.5 221.5t106.5 81.5q50 0 50 -62q0 -35 -20 -125q-2 -9 -3.5 -15.5t-3.5 -18.5t-1 -19t4 -7t6.5 3t7.5 8.5t7 10l7 10.5t5 8q97 143 156 143q46 0 46 -55q0 -32 -36.5 -175t-36.5 -198q0 -43 20 -43q29 0 83.5 58.5t94.5 116.5
l39 59q5 8 19 5q4 -3 4 -5q-6 -11 -17.5 -29t-44 -64t-61.5 -81t-65 -64t-61 -29q-68 0 -68 92q0 56 36 190.5t36 164.5q0 24 -12 24q-30 0 -106 -109t-125 -221q-13 -29 -30 -29q-10 0 -17 5.5t-7 14.5q0 26 45.5 182t45.5 191q0 30 -19 30q-74 0 -319 -525zM174 87
q-73 -103 -126 -103q-75 0 -75 125q0 85 34 186.5t96.5 177.5t129.5 76q34 0 50.5 -22t16.5 -58q0 -76 -55 -161q-2 -2 -6.5 -2t-7.5 2.5t-1 6.5q43 74 43 140q0 61 -36 61q-45 0 -96.5 -80.5t-84 -183t-32.5 -170.5q0 -64 33 -64q27 0 63 39t70.5 98t50.5 90t27 54
q23 48 43 48q28 0 12 -55q-93 -337 -156 -594q-3 -16 -20 -16q-13 0 -25.5 8.5t-9.5 19.5q7 28 44.5 166.5t56.5 218.5q3 12 4.5 22t0.5 15.5t-3 5.5q-3 0 -6.5 -3t-8 -9t-8 -11t-9.5 -14.5t-9 -13.5z" />
    <glyph glyph-name="q_n" unicode="qn" horiz-adv-x="1055" 
d="M539 10q-3 -11 -12 -11q-14 0 -25 6.5t-12 16.5q-1 22 46 185t47 196q0 22 -15 22q-46 0 -131 -143t-156 -315.5t-89 -268.5q-1 -3 -7 -4.5t-11.5 1t-4.5 8.5q14 63 60 183.5t106 250.5t130.5 225.5t122.5 95.5q44 0 44 -56q0 -30 -25 -142q0 -1 -2 -9t-3.5 -15t-3 -15
t-1 -12.5t3.5 -4.5q8 0 32 44q168 300 239 300q48 0 48 -56q0 -36 -36 -167.5t-36 -169.5q0 -55 36 -55q71 0 171 167q5 8 19 5q4 -3 4 -5q-4 -8 -11.5 -21.5t-30 -48t-46 -61t-56 -48t-62.5 -21.5q-77 0 -77 99q0 59 37.5 190.5t37.5 143.5q0 15 -10 15
q-31 0 -108.5 -116.5t-141 -237.5t-71.5 -151zM174 87q-73 -103 -126 -103q-75 0 -75 125q0 85 34 186.5t96.5 177.5t129.5 76q34 0 50.5 -22t16.5 -58q0 -76 -55 -161q-2 -2 -6.5 -2t-7.5 2.5t-1 6.5q43 73 43 140q0 61 -36 61q-45 0 -96.5 -80.5t-84 -183t-32.5 -170.5
q0 -64 33 -64q21 0 49 26.5t51 59t50 80t38 69.5l23 46q23 48 43 48q28 0 12 -55q-93 -337 -156 -594q-3 -16 -20 -16q-13 0 -25.5 8.5t-9.5 19.5q26 107 102 389q4 14 4.5 26t-3.5 13q-3 0 -6.5 -3t-8 -9t-8 -11t-9.5 -14.5t-9 -13.5z" />
    <glyph glyph-name="q_r" unicode="qr" horiz-adv-x="875" 
d="M174 87q-73 -103 -126 -103q-75 0 -75 125q0 85 34 186.5t96.5 177.5t129.5 76q34 0 50.5 -22t16.5 -58q0 -76 -55 -161q-2 -2 -6.5 -2t-7.5 2.5t-1 6.5q0 1 0.5 1t0.5 1q42 75 42 138q0 61 -36 61q-45 0 -96.5 -80.5t-84 -183t-32.5 -170.5q0 -64 33 -64q27 0 63.5 39.5
t69.5 96t51.5 92.5t26.5 53q22 48 43 48q28 0 12 -55q-86 -312 -156 -594q-5 -16 -20 -16q-13 0 -25.5 8.5t-9.5 19.5q29 123 98 374q0 2 2.5 11t3.5 14.5t2 13t0.5 11.5t-3.5 4t-6.5 -3t-8 -9t-8 -11t-9.5 -14.5t-9 -13.5zM625 715q0 -45 -25 -140q15 -16 48.5 -33t53 -37
t19.5 -55q0 -39 -45.5 -174t-45.5 -181q0 -62 38 -62q24 0 57.5 30t66 76.5t51 75t32.5 52.5q4 9 19 5q4 -3 4 -5q-6 -11 -15.5 -29t-38.5 -64t-57 -81t-64.5 -64t-65.5 -29q-39 0 -61.5 29.5t-22.5 74.5q0 56 27 136t54 146t27 90q0 14 -13 23.5t-37 23t-39 27.5
q-41 -141 -108.5 -285.5t-115.5 -184.5q-4 -3 -9 0t-6 8t2 8q40 30 109.5 182.5t110.5 291.5q-26 36 -26 96q0 37 14 61.5t39 24.5q23 0 23 -37z" />
    <glyph glyph-name="q_s" unicode="qs" horiz-adv-x="892" 
d="M891 410q2 -3 -3 -3q-9 -1 -18 3q-27 12 -75 12q-46 0 -92 -33q23 -88 23 -155q0 -126 -48 -213t-113 -87q-72 0 -72 94q0 79 49.5 183.5t120.5 169.5l-12 108q-3 21 -10 21t-22 -27q-84 -160 -162 -280.5t-120 -133.5q-5 -1 -7 4t-1 11t4 7q44 14 138 172t175 328
q0 166 60 166q27 0 27 -29q0 -16 -65 -149v-1q0 -59 30 -169q49 33 97 33q30 0 54 -8t33 -16zM174 87q-71 -103 -126 -103q-75 0 -75 125q0 85 34 186.5t96.5 177.5t129.5 76q34 0 50.5 -22t16.5 -58q0 -76 -55 -161q-2 -2 -6.5 -2t-7.5 2.5t-1 6.5q43 74 43 140
q0 61 -36 61q-45 0 -96.5 -80.5t-84 -183t-32.5 -170.5q0 -64 33 -64q27 0 63.5 39.5t69.5 96t51.5 92.5t26.5 53q21 48 43 48q28 0 12 -55q-86 -312 -156 -594q-5 -16 -20 -16q-13 0 -25.5 8.5t-9.5 19.5q17 74 92 354l3 10q3 11 5 20t4.5 20t2 17.5t-3.5 6.5t-6.5 -3
t-8 -9t-8 -11t-9.5 -14.5t-9 -13.5zM667 306q0 17 -2 51q-62 -63 -105 -162.5t-43 -166.5q0 -60 36 -60q48 0 81 101t33 237z" />
    <glyph glyph-name="q_v" unicode="qv" horiz-adv-x="994" 
d="M174 87q-74 -103 -126 -103q-75 0 -75 125q0 85 34 186.5t96.5 177.5t129.5 76q34 0 50.5 -22t16.5 -58q0 -76 -55 -161q-2 -2 -6.5 -2t-7.5 2.5t-1 6.5q43 73 43 140q0 61 -36 61q-45 0 -96.5 -80.5t-84 -183t-32.5 -170.5q0 -64 33 -64q27 0 63.5 39.5t68.5 95
t51.5 91.5t26.5 53q0 1 0.5 1t0.5 1q15 48 43 48t12 -55q-93 -337 -156 -594q-3 -16 -20 -16q-13 0 -25.5 8.5t-9.5 19.5q34 141 97 371q1 3 3 11.5t3.5 15t2.5 14t0.5 12t-3.5 4.5q-4 0 -10 -6.5t-17.5 -24t-13.5 -20.5zM1075 437q4 8 18 4q5 -2 5 -4q-3 -6 -7.5 -15.5
t-21 -34.5t-33.5 -44t-43.5 -34.5t-52.5 -15.5q-54 0 -99 72q-37 -145 -105.5 -261t-138.5 -116q-85 0 -85 108q0 55 35.5 169.5t35.5 137.5q0 22 -15 22q-46 0 -131 -143t-156 -315.5t-89 -268.5q-1 -3 -7 -4.5t-11.5 1t-4.5 8.5q13 59 58.5 179.5t106 251t131.5 227.5
t123 97q45 0 45 -59q0 -43 -32.5 -162.5t-32.5 -159.5q0 -55 35 -55q44 0 89.5 62t77.5 145t52 172q-33 71 -33 135q0 67 39 67q38 0 38 -81q0 -45 -15 -118q42 -85 92 -85q69 0 132 118z" />
    <glyph glyph-name="q_w" unicode="qw" horiz-adv-x="1224" 
d="M592 474q-46 0 -137 -155t-168 -340.5t-95 -280.5q-1 -3 -7 -4.5t-11.5 1t-4.5 8.5q15 66 64.5 194.5t114 267t138.5 240.5t126 102q47 0 47 -53q0 -41 -41.5 -165t-41.5 -170q0 -38 26 -38q24 0 57.5 36t66 90.5t54.5 96t38 75.5q11 24 19.5 33t24.5 9q23 0 23 -27
q0 -4 -28.5 -123t-28.5 -179q0 -73 40 -73t83 69.5t74.5 164.5t48.5 192q-36 74 -36 142t37 68q39 0 39 -97q0 -52 -12 -116q45 -81 106 -81q58 0 107 89q4 8 19 4q4 -2 4 -4q-2 -5 -6 -12.5t-17 -26.5t-27 -34t-36 -27t-44 -12q-63 0 -113 70q-20 -100 -55.5 -194
t-84 -161.5t-93.5 -67.5q-86 0 -86 146q0 22 4 66q0 2 1 9t1 12t0.5 11t0 9.5t-1.5 3.5q-6 0 -31 -42q-92 -153 -164 -153q-69 0 -69 78q0 52 43 180.5t43 151.5q0 17 -11 17zM174 87q-73 -103 -126 -103q-75 0 -75 125q0 85 34 186.5t96.5 177.5t129.5 76q34 0 50.5 -22
t16.5 -58q0 -76 -55 -161q-2 -2 -6.5 -2t-7.5 2.5t-1 6.5q43 75 43 140q0 61 -36 61q-45 0 -96.5 -80.5t-84 -183t-32.5 -170.5q0 -64 33 -64q26 0 61 37t68 93t51.5 90.5t30.5 60.5q23 48 43 48q28 0 12 -55q-93 -337 -156 -594q-3 -16 -20 -16q-13 0 -25.5 8.5t-9.5 19.5
q31 129 95 365q17 63 8 63q-3 0 -6.5 -3t-8 -9t-8 -11t-9.5 -14.5t-9 -13.5z" />
    <glyph glyph-name="q_y" unicode="qy" horiz-adv-x="1000" 
d="M568 425q-46 0 -131 -143t-156 -315.5t-89 -268.5q-1 -3 -7 -4.5t-11.5 1t-4.5 8.5q15 63 60.5 183t105.5 250.5t130.5 226t122.5 95.5q43 0 43 -46q0 -39 -41 -146.5t-41 -137.5q0 -20 14 -20q33 0 83 56.5t96.5 136.5t75.5 134.5t41 80.5q12 27 21.5 37t22.5 10
q16 0 19 -13.5t-2 -19.5q-30 -71 -89.5 -244t-86.5 -245q34 -1 60 -9t35 -16l9 -7q2 -1 -1 -2q-8 -1 -20 2q-41 9 -91 9q-34 -86 -66 -151t-71 -122.5t-82.5 -87.5t-90.5 -30q-72 0 -72 69q0 90 101 203.5t229 136.5q26 65 63 168q11 29 15.5 48.5t-0.5 22.5q-8 0 -22 -22
q-117 -179 -187 -179q-55 0 -55 66q0 41 39 147.5t39 125.5q0 12 -8 12zM174 87q-72 -103 -126 -103q-75 0 -75 125q0 85 34 186.5t96.5 177.5t129.5 76q34 0 50.5 -22t16.5 -58q0 -76 -55 -161q-2 -2 -6.5 -2t-7.5 2.5t-1 6.5q43 76 43 140q0 61 -36 61q-45 0 -96.5 -80.5
t-84 -183t-32.5 -170.5q0 -64 33 -64q27 0 63 39t70.5 98t50.5 90t27 54q23 48 43 48q28 0 12 -55q-93 -337 -156 -594q-3 -16 -20 -16q-13 0 -25.5 8.5t-9.5 19.5q25 104 96 368q3 9 5 17.5t4 19t1.5 17t-3.5 6.5t-6.5 -3t-8 -9t-8 -11t-9.5 -14.5t-9 -13.5zM415 -340
q114 0 259 351q-61 -13 -117.5 -52t-93.5 -86t-58.5 -94t-21.5 -79q0 -40 32 -40z" />
    <glyph glyph-name="r_r" unicode="rr" horiz-adv-x="802" 
d="M802 267q4 9 19 5q4 -3 4 -5q-6 -11 -15.5 -29t-38.5 -64t-57 -81t-64.5 -64t-65.5 -29q-39 0 -61.5 29.5t-22.5 74.5q0 56 27 136t54 146t27 90q0 13 -11.5 22t-34 21.5t-36.5 23.5q-37 -126 -108 -276q-30 -62 -53 -104t-51 -82.5t-55.5 -60.5t-55.5 -20
q-39 0 -61.5 29.5t-22.5 74.5q0 56 27 136t54 146t27 90q0 14 -13.5 23.5t-37 23t-38.5 27.5q-48 -167 -115 -283q-5 -9 -20 -5q-3 3 -3 5q71 123 120 304q-25 37 -25 95q0 37 14 61.5t39 24.5q23 0 23 -37t-26 -139q13 -15 37 -28.5t41 -22t30.5 -28t13.5 -47.5
q0 -39 -45.5 -174t-45.5 -181q0 -62 38 -62q65 0 179 234q74 152 114 296q-31 38 -31 103q0 37 14 61.5t39 24.5q28 0 28 -52q0 -47 -24 -132q14 -13 47 -29.5t50.5 -35.5t17.5 -53q0 -39 -45.5 -174t-45.5 -181q0 -62 38 -62q25 0 58 29.5t66.5 77t50.5 75t32 52.5z" />
    <glyph glyph-name="s_j" unicode="sj" horiz-adv-x="740" 
d="M613 628q20 0 20 -21q0 -1 -14.5 -41.5t-38.5 -123.5t-43 -175q-14 -69 -19 -92q44 21 78 21q22 0 38.5 -5t21.5 -11l6 -5q3 -3 -6 -6q-10 -4 -15 -2q-16 8 -45 8q-38 0 -83 -25q-23 -110 -44.5 -187.5t-53 -156t-73 -119.5t-91.5 -41q-71 0 -71 70q0 81 85.5 211
t188.5 208q4 20 12.5 64.5t13.5 67.5q3 15 9.5 45t8.5 42q1 3 2 9t2 9.5t2 9t1.5 9t0.5 7t-1 5t-2 1.5q-8 0 -31 -39q-132 -232 -177 -248q-4 -2 -5 5q-3 17 4 19q8 3 20.5 16.5t29 37t33.5 50t37 60.5t37 63t36 63.5t30.5 55.5t24.5 45.5t15 27.5q11 20 15.5 28t12.5 20
t14.5 16t13.5 4zM51 -19q-58 0 -85.5 39.5t-27.5 100.5q0 63 25.5 120.5t59.5 64.5q74 125 127 233v4q0 170 60 170q27 0 27 -29q0 -23 -65 -150q0 -54 27 -157t27 -159q0 -101 -43 -169t-132 -68zM23 267q-3 -4 -8.5 -5.5t-10 0t-4.5 3.5q-39 -55 -39 -142q0 -48 19 -79
t58 -31q61 0 96 80t35 194q0 42 -10 130q-3 25 -6 37.5t-4 13.5t-4 1q-8 0 -28 -38q-44 -81 -94 -164zM246 -321q36 0 67 33.5t55.5 98t42 131.5t36.5 162q-90 -76 -163.5 -196.5t-73.5 -185.5q0 -43 36 -43zM667 873q9 0 16 -7.5t7 -19.5q0 -17 -18.5 -42.5t-33.5 -25.5
q-10 0 -10 23q0 24 11 48t28 24z" />
    <glyph glyph-name="s_m" unicode="sm" horiz-adv-x="1224" 
d="M174 519q-7 0 -28 -38q-61 -110 -123 -214q-6 -9 -20 -5q-3 3 -3 5q103 171 180 324q0 166 60 166q27 0 27 -29q0 -19 -65 -144v-6q0 -60 27 -156q75 62 152 62q143 0 143 -165q0 -17 -2 -37q-3 -46 2 -46q8 0 30 43q64 124 130 206.5t115 82.5q50 0 50 -62
q0 -35 -20 -125q-13 -60 -4 -60q6 0 34 40q96 143 155 143q46 0 46 -55q0 -32 -36.5 -175t-36.5 -198q0 -43 20 -43q29 0 83.5 58.5t93.5 116.5l40 59q5 8 19 5q4 -3 4 -5q-6 -11 -17.5 -29t-44 -64t-61.5 -81t-65 -64t-61 -29q-68 0 -68 92q0 56 36 190.5t36 164.5
q0 24 -12 24q-30 0 -107.5 -112t-123.5 -218q-12 -29 -30 -29q-10 0 -17 5.5t-7 14.5q0 26 45.5 182t45.5 191q0 30 -19 30q-33 0 -97.5 -90t-126.5 -214.5t-90 -220.5q-3 -11 -12 -11q-14 0 -25 6.5t-11 16.5q0 16 29.5 135.5t29.5 184.5q0 122 -93 122q-75 0 -146 -64
q25 -94 25 -166q0 -126 -48 -213t-113 -87q-72 0 -72 94q0 76 48 183t121 181l-9 81q-6 46 -13 46zM201 306q0 29 -3 58q-64 -72 -105.5 -172.5t-41.5 -163.5q0 -60 36 -60q48 0 81 101t33 237z" />
    <glyph glyph-name="s_n" unicode="sn" horiz-adv-x="988" 
d="M174 519q-4 0 -9.5 -7t-11.5 -18t-7 -13q-60 -110 -123 -214q-6 -9 -20 -5q-3 3 -3 5q103 171 180 324q0 166 60 166q27 0 27 -29q0 -19 -65 -144v-6q0 -55 23 -145q119 124 220 124q116 0 116 -142q0 -55 -21 -148q0 -1 -1.5 -7.5t-3 -13.5t-2.5 -14t0.5 -11.5t4.5 -4.5
q10 0 39 45q59 88 114 144t91 56t36 -45q0 -33 -32 -164t-32 -168t24 -37q30 0 82.5 55t89.5 110l38 55q6 8 19 5q4 -3 4 -5q-6 -10 -17 -27t-42 -61t-59.5 -77t-63.5 -60.5t-61 -27.5q-71 0 -71 83q0 43 30.5 169t30.5 146q0 14 -7 14q-20 0 -82 -78t-125 -185.5
t-83 -176.5q-3 -11 -20 -11q-38 0 -38 15q0 23 27 107.5t54 184.5t27 161q0 94 -66 94q-101 0 -213 -126q28 -106 28 -177q0 -126 -48 -213t-113 -87q-72 0 -72 94q0 77 47.5 180.5t120.5 190.5q-1 9 -3.5 29.5t-3.5 31.5q0 1 -0.5 9.5t-1.5 15.5t-2.5 15.5t-4 13.5t-5.5 5z
M201 306q0 31 -3 64q-65 -84 -106 -178.5t-41 -163.5q0 -60 36 -60q48 0 81 101t33 237z" />
    <glyph glyph-name="s_r" unicode="sr" horiz-adv-x="797" 
d="M51 -19q-58 0 -85.5 39.5t-27.5 100.5q0 63 25.5 120.5t59.5 64.5q74 125 127 233v4q0 170 60 170q27 0 27 -29q0 -23 -65 -150q0 -54 27 -157t27 -159q0 -101 -43 -169t-132 -68zM547 715q0 -45 -26 -139q13 -15 37 -28.5t41 -22t30.5 -28t13.5 -47.5q0 -39 -45.5 -174
t-45.5 -181q0 -62 38 -62q25 0 58 29.5t66.5 77t50.5 75t32 52.5q4 9 19 5q4 -3 4 -5q-6 -11 -15.5 -29t-38.5 -64t-57 -81t-64.5 -64t-65.5 -29q-39 0 -61.5 29.5t-22.5 74.5q0 56 27 136t54 146t27 90q0 14 -13.5 24t-37.5 23.5t-39 27.5q-43 -142 -109.5 -287
t-113.5 -184q-4 -3 -9 0t-6 8t2 8q40 30 109.5 182.5t110.5 291.5q-26 36 -26 96q0 37 14 61.5t39 24.5q23 0 23 -37zM23 267q-3 -4 -8.5 -5.5t-10 0t-4.5 3.5q-39 -55 -39 -142q0 -48 19 -79t58 -31q61 0 96 80t35 194q0 42 -10 130q-7 52 -14 52q-8 0 -28 -38
q-44 -81 -94 -164z" />
    <glyph glyph-name="s_s" unicode="ss" horiz-adv-x="745" 
d="M174 519q-4 0 -9.5 -7t-11.5 -18t-7 -13q-60 -110 -123 -214q-6 -9 -20 -5q-3 3 -3 5q103 171 180 324q0 166 60 166q27 0 27 -29q0 -19 -65 -144v-6q0 -27 4 -56t9 -48t14 -52t13 -50q26 26 77.5 75.5t86 84t56.5 62.5q-2 28 -2 42q0 84 44 84q27 0 27 -32
q0 -36 -46 -95q5 -29 14.5 -59.5t25 -71.5t21.5 -59q55 39 105 39q30 0 54 -8t33 -16l9 -8q2 -3 -3 -3q-9 -1 -18 3q-33 12 -75 12q-50 0 -99 -38q29 -89 29 -164q0 -125 -48 -205.5t-112 -80.5q-72 0 -72 94q0 77 47 179t115 167q-5 30 -32 135q-10 37 -22 37
q-10 0 -31 -19q-28 -28 -89.5 -87t-90.5 -88q14 -63 14 -118q0 -91 -46 -162.5t-109 -71.5q-33 0 -49 19t-16 49q0 98 160 263q-3 61 -12 128q-8 60 -14 60zM522 271q0 35 -7 80q-60 -64 -101 -160.5t-41 -162.5q0 -60 36 -60q45 0 79 88.5t34 214.5zM93 34q48 0 78 80.5
t30 190.5q-138 -147 -138 -237q0 -34 30 -34z" />
    <glyph glyph-name="s_s_m" unicode="ssm" horiz-adv-x="1546" 
d="M174 519q-7 0 -28 -38q-60 -110 -123 -214q-6 -9 -20 -5q-3 3 -3 5q103 171 180 324q0 166 60 166q27 0 27 -29q0 -19 -65 -144v-6q0 -27 4 -56t9 -48t14 -52t13 -50q26 26 77.5 75.5t86 84t56.5 62.5q-2 28 -2 42q0 84 44 84q27 0 27 -32q0 -36 -46 -95q4 -21 11 -46
t12.5 -41.5t17 -47t16.5 -43.5q79 69 161 69q143 0 143 -165q0 -21 -1 -33q-5 -50 1 -50q8 0 28 40q65 127 131.5 209.5t115.5 82.5q50 0 50 -62q0 -35 -20 -125q-2 -9 -3.5 -15.5t-3.5 -18.5t-1 -19t4 -7q5 0 33 40q96 143 156 143q46 0 46 -55q0 -32 -36.5 -175
t-36.5 -198q0 -43 20 -43q29 0 83.5 58.5t93.5 116.5l40 59q5 8 19 5q4 -3 4 -5q-6 -11 -17.5 -29t-44 -64t-61.5 -81t-65 -64t-61 -29q-68 0 -68 92q0 56 36 190.5t36 164.5q0 24 -12 24q-29 0 -108 -114t-123 -216q-12 -29 -30 -29q-10 0 -17 5.5t-7 14.5q0 26 45.5 182
t45.5 191q0 30 -19 30q-33 0 -97 -88.5t-126 -213t-91 -223.5q-2 -11 -12 -11q-14 0 -25 6.5t-11 16.5q0 16 29.5 135.5t29.5 184.5q0 122 -93 122q-77 0 -154 -70q32 -94 32 -174q0 -125 -48 -205.5t-112 -80.5q-72 0 -72 94q0 73 45.5 176.5t115.5 178.5q-11 52 -31 126
q-10 37 -22 37q-11 0 -44 -33q-24 -24 -81 -78t-86 -83q14 -63 14 -118q0 -91 -46 -162.5t-109 -71.5q-33 0 -49 19t-16 49q0 98 160 263q-2 40 -12 131q0 1 -1 8t-2 14.5t-2 16t-3.5 13.5t-5.5 5zM522 271q0 41 -8 86q-62 -72 -101.5 -169.5t-39.5 -159.5q0 -60 36 -60
q45 0 79 88.5t34 214.5zM93 34q48 0 78 80.5t30 190.5q-138 -147 -138 -237q0 -34 30 -34z" />
    <glyph glyph-name="s_s_n" unicode="ssn" horiz-adv-x="1310" 
d="M174 519q-4 0 -9 -7t-11.5 -18.5t-7.5 -12.5q-60 -110 -123 -214q-6 -9 -20 -5q-3 3 -3 5q103 171 180 324q0 166 60 166q27 0 27 -29q0 -19 -65 -144v-6q0 -27 4 -56t9 -48t14 -52t13 -50q26 26 77.5 75.5t86 84t56.5 62.5q-2 28 -2 42q0 84 44 84q27 0 27 -32
q0 -36 -46 -95q4 -20 10.5 -44.5t11.5 -38.5t17 -46t15 -41q122 134 228 134q116 0 116 -142q0 -56 -21 -149q0 -1 -1.5 -7.5l-3 -13t-2.5 -13.5t0.5 -11.5t4.5 -4.5q10 0 31 32q61 93 118.5 153t94.5 60q36 0 36 -45q0 -33 -32 -164t-32 -168t24 -37q10 0 22.5 6t25.5 16.5
t27 24.5t27.5 29.5t27 32t25 32t22 30t17.5 25t12 17.5l4 7q6 8 19 5q4 -3 4 -5q-6 -10 -17 -27t-42 -61t-59.5 -77t-63.5 -60.5t-61 -27.5q-71 0 -71 83q0 43 30.5 169t30.5 146q0 14 -7 14q-20 0 -82 -78t-125 -185.5t-83 -176.5q-3 -11 -20 -11q-38 0 -38 15
q0 23 27 107.5t54 184.5t27 161q0 94 -66 94q-105 0 -221 -135q35 -101 35 -182q0 -125 -48 -205.5t-112 -80.5q-72 0 -72 94q0 74 44.5 173.5t114.5 186.5q-7 39 -29 121q-10 37 -22 37t-44 -32q-24 -24 -81 -78.5t-86 -83.5q14 -63 14 -118q0 -91 -46 -162.5t-109 -71.5
q-33 0 -49 19t-16 49q0 98 160 263q-2 39 -12 128q-5 60 -14 60zM522 271q0 43 -8 91q-62 -82 -101.5 -174.5t-39.5 -159.5q0 -60 36 -60q45 0 79 88.5t34 214.5zM93 34q48 0 78 80.5t30 190.5q-138 -147 -138 -237q0 -34 30 -34z" />
    <glyph glyph-name="s_s_w" unicode="ssw" horiz-adv-x="1456" 
d="M174 519q-7 0 -28 -38q-60 -110 -123 -214q-6 -9 -20 -5q-3 3 -3 5q103 171 180 324q0 166 60 166q27 0 27 -29q0 -19 -65 -144v-6q0 -27 4 -56t9 -48t14 -52t13 -50q26 26 77.5 75.5t86 84t56.5 62.5q-2 28 -2 42q0 84 44 84q27 0 27 -32q0 -36 -46 -95q7 -40 52 -166
q129 146 254 146q101 0 101 -100q0 -58 -42 -188.5t-42 -165.5q0 -38 26 -38q70 0 216 298q12 25 20.5 33.5t23.5 8.5q23 0 23 -27q0 -4 -28.5 -123t-28.5 -179q0 -73 40 -73t83 69.5t74.5 164.5t48.5 192q-36 74 -36 142t37 68q39 0 39 -97q0 -52 -12 -116q45 -81 106 -81
q59 0 107 89q4 8 19 4q4 -2 4 -4q-2 -5 -6 -12.5t-17 -26.5t-27 -34t-36 -27t-44 -12q-63 0 -113 70q-20 -100 -55.5 -194t-84 -161.5t-93.5 -67.5q-86 0 -86 146q0 26 4 68q0 1 1 8.5t1 12t0.5 10.5t0 9t-1.5 3q-5 0 -31 -42q-96 -153 -164 -153q-69 0 -69 78
q0 53 47.5 189.5t47.5 180.5q0 56 -52 56q-124 0 -247 -146q36 -101 36 -185q0 -125 -48 -205.5t-112 -80.5q-72 0 -72 94q0 71 44.5 173.5t114.5 190.5q-5 24 -16 66t-13 51q-10 37 -22 37q-10 0 -31 -19q-28 -28 -89.5 -87t-90.5 -88q14 -63 14 -118q0 -91 -46 -162.5
t-109 -71.5q-33 0 -49 19t-16 49q0 98 160 263q-2 55 -13 144q-5 44 -13 44zM373 28q0 -60 36 -60q45 0 79 88.5t34 214.5q0 39 -9 93q-62 -85 -101 -179.5t-39 -156.5zM93 34q48 0 78 80.5t30 190.5q-138 -147 -138 -237q0 -34 30 -34z" />
    <glyph glyph-name="s_s_y" unicode="ssy" horiz-adv-x="1237" 
d="M174 519q-6 0 -27 -37q-49 -88 -124 -215q-6 -9 -20 -5q-3 3 -3 5q103 171 180 324q0 166 60 166q27 0 27 -29q0 -19 -65 -144v-6q0 -27 4 -56t9 -48t14 -52t13 -50q26 26 77.5 75.5t86 84t56.5 62.5q-2 28 -2 42q0 84 44 84q27 0 27 -32q0 -36 -46 -95q4 -21 10.5 -45
t12.5 -40t16.5 -45.5t15.5 -42.5q98 93 194 93q114 0 114 -110q0 -53 -31 -154.5t-31 -120.5q0 -20 14 -20q32 0 81.5 56t96 134.5t76 133t40.5 79.5q1 2 5.5 12t7 15t7.5 12t11.5 10t14.5 3q16 0 19 -13.5t-2 -19.5q-30 -71 -89.5 -244t-86.5 -245q34 -1 60 -9t35 -16l9 -7
q1 -1 -1 -2q-8 -1 -20 2q-40 9 -91 9q-34 -86 -66 -151t-71 -122.5t-82.5 -87.5t-90.5 -30q-72 0 -72 69q0 90 101 203.5t229 136.5q48 122 69 185q8 23 10.5 37t-1.5 17q-5 0 -12 -8.5t-16.5 -23t-10.5 -15.5q-106 -154 -170 -154q-55 0 -55 66q0 38 32 142.5t32 143.5
q0 67 -65 67q-92 0 -187 -93q34 -97 34 -180q0 -125 -48 -205.5t-112 -80.5q-72 0 -72 94q0 80 45 180.5t115 179.5q-5 24 -30 121q-10 37 -22 37t-44 -32q-24 -24 -81 -78.5t-86 -83.5q14 -63 14 -118q0 -91 -46 -162.5t-109 -71.5q-33 0 -49 19t-16 49q0 98 160 263
q-2 45 -12 132q-6 56 -14 56zM652 -340q114 0 259 351q-61 -13 -117.5 -52t-93.5 -86t-58.5 -94t-21.5 -79q0 -40 32 -40zM373 28q0 -60 36 -60q45 0 79 88.5t34 214.5q0 39 -9 91q-62 -76 -101 -169.5t-39 -164.5zM93 34q48 0 78 80.5t30 190.5q-138 -147 -138 -237
q0 -34 30 -34z" />
    <glyph glyph-name="s_v" unicode="sv" horiz-adv-x="909" 
d="M174 519q-4 0 -9 -7t-11.5 -18.5t-7.5 -12.5q-48 -88 -123 -214q-6 -9 -20 -5q-3 3 -3 5q103 171 180 324q0 166 60 166q27 0 27 -29q0 -19 -65 -144v-6q0 -59 24 -148q107 105 203 105q115 0 115 -124q0 -58 -30.5 -179t-30.5 -155q0 -55 35 -55q44 0 89.5 62t77.5 145
t52 172q-33 71 -33 135q0 67 39 67q38 0 38 -81q0 -45 -15 -118q42 -85 92 -85q66 0 132 118q4 8 18 4q5 -2 5 -4q-3 -6 -7.5 -15.5t-21 -34.5t-33.5 -44t-43.5 -34.5t-52.5 -15.5q-54 0 -99 72q-37 -145 -105.5 -261t-138.5 -116q-85 0 -85 108q0 42 33.5 166t33.5 173
q0 78 -64 78q-96 0 -197 -106q27 -98 27 -173q0 -126 -48 -213t-113 -87q-72 0 -72 94q0 76 47.5 180.5t120.5 188.5q-13 122 -21 122zM201 306q0 31 -3 61q-64 -80 -105.5 -176.5t-41.5 -162.5q0 -60 36 -60q48 0 81 101t33 237z" />
    <glyph glyph-name="s_w" unicode="sw" horiz-adv-x="1134" 
d="M174 519q-7 0 -28 -38q-60 -110 -123 -214q-6 -9 -20 -5q-3 3 -3 5q103 171 180 324q0 166 60 166q27 0 27 -29q0 -19 -65 -144v-6q0 -58 22 -141q126 136 245 136q101 0 101 -100q0 -58 -42 -188.5t-42 -165.5q0 -38 26 -38q23 0 56.5 36t66 90t55.5 96.5t38 75.5
q12 24 20.5 33t23.5 9q23 0 23 -27q0 -4 -28.5 -123t-28.5 -179q0 -73 40 -73t83 69.5t74.5 164.5t48.5 192q-36 74 -36 142t37 68q39 0 39 -97q0 -52 -12 -116q45 -81 106 -81q58 0 107 89q4 8 19 4q4 -2 4 -4q-2 -5 -6 -12.5t-17 -26.5t-27 -34t-36 -27t-44 -12
q-63 0 -113 70q-20 -100 -55.5 -194t-84 -161.5t-93.5 -67.5q-86 0 -86 146q0 22 4 66l2.5 30t-1.5 15q-5 0 -31 -42q-94 -153 -164 -153q-69 0 -69 78q0 53 47.5 189.5t47.5 180.5q0 56 -52 56q-119 0 -239 -137q29 -112 29 -180q0 -126 -48 -213t-113 -87q-72 0 -72 94
q0 73 47.5 179.5t120.5 196.5q-1 12 -3.5 34t-4 33t-3.5 24t-4.5 18.5t-5.5 5.5zM201 306q0 34 -3 67q-65 -85 -106 -183t-41 -162q0 -60 36 -60q48 0 81 101t33 237z" />
    <glyph glyph-name="s_y" unicode="sy" horiz-adv-x="915" 
d="M23 267q-5 -9 -20 -3q-4 1 -3 3q99 162 180 324q0 166 60 166q27 0 27 -29q0 -19 -65 -144v-6q0 -58 25 -150q93 85 185 85q114 0 114 -110q0 -53 -31 -154.5t-31 -120.5q0 -20 14 -20q33 0 83 57t96 136t76 135t41 81q12 26 21.5 36t22.5 10q16 0 19 -13.5t-2 -19.5
q-30 -71 -89.5 -244t-86.5 -245q34 -1 60 -9t35 -16l9 -7l-10 -1q-7 0 -11 1q-40 9 -91 9q-34 -86 -66 -151t-71 -122.5t-82.5 -87.5t-90.5 -30q-72 0 -72 69q0 90 101 203.5t229 136.5q14 35 39 104t30 81q8 23 10.5 37t-1.5 17q-7 0 -40 -49q-103 -152 -169 -152
q-55 0 -55 66q0 38 32 142.5t32 143.5q0 67 -65 67q-88 0 -179 -86q27 -98 27 -173q0 -126 -48 -213t-113 -87q-72 0 -72 94q0 82 47.5 187t120.5 183q-12 121 -21 121q-7 0 -28 -38q-60 -110 -123 -214zM330 -340q114 0 259 351q-61 -13 -117.5 -52t-93.5 -86t-58.5 -94
t-21.5 -79q0 -40 32 -40zM201 306q0 32 -3 64q-65 -75 -106 -172t-41 -170q0 -60 36 -60q48 0 81 101t33 237z" />
    <glyph glyph-name="t_i" unicode="ti" horiz-adv-x="540" 
d="M310 648q4 1 7 -3.5t3 -10t-4 -6.5q-48 -11 -107 -16q-56 -130 -136 -265q-17 -116 -17 -190q0 -124 35 -124q56 0 195 231q16 57 55 160q14 35 50 35q20 0 20 -23q0 -3 -23.5 -59t-47.5 -129.5t-24 -118.5q0 -58 39 -58q62 0 180 188q3 5 5 8q5 8 19 5q4 -3 4 -5
q-5 -9 -13.5 -24.5t-35 -55t-51.5 -69.5t-58.5 -55t-60.5 -25q-78 0 -78 106q0 21 5 54q-47 -78 -101 -138t-99 -60q-37 0 -56 47.5t-19 131.5q0 97 23.5 213.5t60.5 217.5q-109 1 -158 10q-4 0 -4.5 5.5t2 10t6.5 4.5q61 -8 163 -8q33 84 68.5 133.5t66.5 49.5t31 -43
q0 -48 -37 -138q42 3 92 14zM218 782q-30 0 -78 -150q34 0 50 1q37 90 37 130q0 19 -9 19zM457 729q27 0 27 -32q0 -20 -20.5 -49.5t-41.5 -29.5q-14 0 -14 30q0 28 13.5 54.5t35.5 26.5zM132 610q-31 -108 -49 -206q58 110 98 207q-16 -1 -49 -1z" />
    <glyph glyph-name="t_l" unicode="tl" horiz-adv-x="593" 
d="M310 648q4 1 7 -3.5t3 -10t-4 -6.5q-36 -9 -107 -16q-56 -130 -136 -265q-17 -116 -17 -190q0 -124 35 -124q25 0 71.5 54t74.5 97t48 77q7 131 39.5 269t85.5 236t108 98q49 0 49 -62q0 -74 -63 -213t-154 -286q-5 -49 -5 -112q0 -171 50 -171q32 0 103.5 100t94.5 147
q4 9 19 5q4 -3 4 -5q-6 -11 -16.5 -30t-41 -67.5t-58.5 -85t-63 -67t-61 -30.5q-47 0 -70 59t-23 158v13q-130 -217 -212 -217q-37 0 -56 47.5t-19 131.5q0 97 23.5 213.5t60.5 217.5q-109 1 -158 10q-4 0 -4.5 5.5t2 10t6.5 4.5q58 -8 163 -8q33 84 68.5 133.5t66.5 49.5
t31 -43q0 -48 -37 -138q46 3 92 14zM512 831q-44 0 -90 -148t-67 -328q77 132 130.5 256t53.5 181q0 39 -27 39zM218 782q-30 0 -78 -150q34 0 50 1q37 90 37 130q0 19 -9 19zM132 610q-31 -108 -49 -206q58 110 98 207q-16 -1 -49 -1z" />
    <glyph glyph-name="t_r" unicode="tr" horiz-adv-x="709" 
d="M91 33q40 0 104 93.5t120 216.5t91 231q-23 34 -23 92q0 37 14 61.5t39 24.5q23 0 23 -37q0 -42 -29 -137q16 -18 50 -35t54.5 -37t20.5 -56q0 -39 -45.5 -174t-45.5 -181q0 -62 38 -62q65 0 207 234q5 8 19 5q4 -3 4 -5q-6 -11 -15.5 -29t-38.5 -64t-57 -81t-64.5 -64
t-65.5 -29q-39 0 -61.5 29.5t-22.5 74.5q0 56 27 136t54 146t27 90q0 14 -14 24.5t-39 24t-40 29.5q-28 -87 -69.5 -180.5t-89 -178.5t-99.5 -140t-93 -55q-37 0 -56 47.5t-19 131.5q0 97 23.5 213.5t60.5 217.5q-109 1 -158 10q-4 0 -4.5 5.5t2 10t6.5 4.5q64 -8 163 -8
q33 84 68.5 133.5t66.5 49.5t31 -43q0 -48 -37 -138q46 3 92 14q4 1 7 -3.5t3 -10t-4 -6.5q-46 -11 -107 -16q-56 -130 -136 -265q-17 -116 -17 -190q0 -124 35 -124zM140 632q34 0 50 1q37 90 37 130q0 19 -9 19q-30 0 -78 -150zM181 611q-16 -1 -49 -1q-31 -108 -49 -206
q58 110 98 207z" />
    <glyph glyph-name="t_t" unicode="tt" horiz-adv-x="576" 
d="M-23 640q39 -6 111 -9q73 184 136 184q31 0 31 -43q0 -47 -40 -144h40q86 0 122 1q64 154 122 154q31 0 31 -43q0 -34 -25 -104q31 2 84 14q4 1 7 -3.5t3 -10t-4 -6.5q-36 -10 -99 -16q-45 -113 -135 -268q-17 -105 -17 -189q0 -124 35 -124q25 0 72.5 55.5t78 102.5
t46.5 76q4 9 19 5q4 -3 4 -5q-6 -11 -16 -29t-39 -64t-57 -81t-64 -64t-64 -29q-37 0 -56 47.5t-19 131.5q0 27 1 40q-25 -43 -52 -80t-69 -71.5t-77 -34.5q-91 0 -91 155q0 89 23.5 204.5t60.5 217.5q-81 5 -107 10q-4 0 -4.5 5.5t2 10t6.5 4.5zM288 267q19 181 80 340
q-33 -1 -113 -1h-49q-51 -121 -133 -260q-17 -99 -17 -174q0 -106 51 -106q29 0 72.5 47t71 90t37.5 64zM218 782q-31 0 -79 -153q32 0 49 -1q39 96 39 135q0 19 -9 19zM468 611l-48 -3q-30 -100 -49 -204q59 112 97 207zM133 608q-31 -103 -50 -204q56 107 96 202zM427 631
l50 3q25 70 25 97q0 19 -9 19q-27 0 -66 -119z" />
    <glyph glyph-name="v_e" unicode="ve" horiz-adv-x="858" 
d="M858 267q5 8 19 5q4 -3 4 -5q-5 -9 -13.5 -24.5t-35.5 -55t-55 -69.5t-69 -55t-79 -25q-61 0 -90.5 40t-29.5 107q0 35 8 77q-75 6 -129 96q-24 -91 -60.5 -172.5t-86 -139.5t-96.5 -58q-85 0 -85 108q0 54 25 135t50 143.5t25 69.5q0 6 -5 6q-15 0 -114 -156l-18 -27
q-5 -9 -20 -5q-3 3 -3 5q17 24 40.5 62t38.5 61t33 46.5t33 35t29 11.5q33 0 33 -43q0 -38 -45.5 -173t-45.5 -190t35 -55q43 0 88.5 60.5t77.5 143t52 170.5q-31 71 -31 136q0 71 38 71t38 -81q0 -49 -18 -131q50 -105 126 -106q25 101 82 180t114 79q46 0 46 -44
q0 -52 -57 -127t-127 -101q-14 -54 -14 -100q0 -101 74 -101q33 0 69 22.5t66.5 58.5t48.5 62t34 53zM709 511q-23 0 -60.5 -65.5t-61.5 -146.5q58 27 98.5 89t40.5 101q0 22 -17 22z" />
    <glyph glyph-name="v_j" unicode="vj" horiz-adv-x="873" 
d="M488 293q-54 0 -99 72q-37 -145 -105.5 -261t-138.5 -116q-85 0 -85 108q0 54 25 135t50 143.5t25 69.5q0 6 -5 6q-15 0 -114 -156l-18 -27q-5 -9 -20 -5q-3 3 -3 5q17 24 40.5 62t38.5 61t33 46.5t33 35t29 11.5q33 0 33 -43q0 -38 -45.5 -173t-45.5 -190t35 -55
q44 0 89.5 62t77.5 145t52 172q-33 71 -33 135q0 67 39 67q38 0 38 -81q0 -45 -15 -118q42 -85 92 -85q28 0 59 26.5t58.5 69t44.5 73t32 61.5q20 41 33 60t28 19q20 0 20 -21q0 -1 -14.5 -41.5t-38.5 -123.5t-43 -175q-14 -69 -19 -92q44 21 78 21q22 0 38.5 -5t22.5 -11
l5 -5q3 -3 -6 -6q-10 -4 -15 -2q-15 8 -45 8q-38 0 -83 -25q-23 -110 -44.5 -187.5t-53 -156t-73 -119.5t-91.5 -41q-71 0 -71 70q0 81 85.5 211t188.5 208q4 20 12.5 64.5t13.5 67.5q2 13 20 95l1 7q2 7 3.5 13.5t2.5 14t1 12t-2 4.5q-3 0 -7.5 -5t-12 -15.5t-12.5 -16.5
q-67 -83 -119 -83zM379 -321q36 0 67 33.5t55.5 98t42 131.5t36.5 162q-90 -76 -163.5 -196.5t-73.5 -185.5q0 -43 36 -43zM800 873q9 0 16 -7.5t7 -19.5q0 -17 -18.5 -42.5t-33.5 -25.5q-9 4 -10 25t10.5 45.5t28.5 24.5z" />
    <glyph glyph-name="v_l" unicode="vl" horiz-adv-x="847" 
d="M847 267q4 9 19 5q4 -3 4 -5q-6 -11 -16.5 -30t-41 -67.5t-58.5 -85t-63 -67t-61 -30.5q-47 0 -70 59t-23 158q0 54 4 99q-23 -10 -43 -10q-62 0 -108 74q-37 -145 -106 -262t-139 -117q-85 0 -85 108q0 54 25 135t50 143.5t25 69.5q0 6 -5 6q-15 0 -114 -156l-18 -27
q-5 -9 -20 -5q-3 3 -3 5q17 24 40.5 62t38.5 61t33 46.5t33 35t29 11.5q33 0 33 -43q0 -38 -45.5 -173t-45.5 -190t35 -55q44 0 89.5 62t78 146t51.5 173q-33 69 -33 133q0 67 39 67q38 0 38 -81q0 -44 -15 -117q44 -86 102 -86q21 0 43 13q10 93 32.5 186.5t52 171
t67.5 126t76 48.5q49 0 49 -62q0 -71 -66.5 -219t-145.5 -229q-10 -97 -10 -163q0 -171 50 -171q17 0 48.5 32.5t63 78.5t53.5 81t33 55zM766 831q-41 0 -85 -132.5t-67 -303.5q67 82 123 210t56 187q0 39 -27 39z" />
    <glyph glyph-name="v_m" unicode="vm" horiz-adv-x="1316" 
d="M443 402q51 0 108.5 32.5t79.5 32.5q37 0 37 -52q0 -30 -14 -83l-2 -8q-2 -7 -3.5 -13.5t-3.5 -16t-2 -13t1 -5.5q10 0 39 51q135 241 208 241q50 0 50 -62q0 -35 -20 -125q-13 -60 -4 -60t31 36q99 147 158 147q46 0 46 -55q0 -32 -36.5 -175t-36.5 -198q0 -43 20 -43
q29 0 83.5 58.5t93.5 116.5l40 59q5 8 19 5q4 -3 4 -5q-6 -11 -17.5 -29t-44 -64t-61.5 -81t-65 -64t-61 -29q-68 0 -68 92q0 56 36 190.5t36 164.5q0 24 -12 24q-30 0 -106.5 -110.5t-124.5 -219.5q-13 -29 -30 -29q-10 0 -17 5.5t-7 14.5q0 26 45.5 182t45.5 191
q0 30 -19 30q-11 0 -25.5 -11t-32.5 -34.5t-34.5 -48t-39.5 -64.5t-39 -69.5t-41 -78.5t-38.5 -76t-38.5 -76.5t-33 -66.5q-5 -11 -13 -11q-14 0 -24.5 6.5t-10.5 16.5q0 24 60 186.5t60 206.5q0 25 -14 25q-8 0 -30.5 -15t-58 -30t-74.5 -15q-30 0 -57 16
q-14 -92 -48 -183.5t-86.5 -158t-105.5 -66.5q-85 0 -85 108q0 54 25 135t50 143.5t25 69.5q0 6 -5 6q-15 0 -114 -156l-18 -27q-5 -9 -20 -5q-3 3 -3 5q17 24 40.5 62t38.5 61t33 46.5t33 35t29 11.5q33 0 33 -43q0 -38 -45.5 -173t-45.5 -190t35 -55q48 0 94.5 65
t75.5 152t41 174q-25 25 -40.5 60t-15.5 64q0 49 36 49q51 0 51 -105q0 -17 -4 -61q25 -18 54 -18z" />
    <glyph glyph-name="v_n" unicode="vn" horiz-adv-x="1068" 
d="M547 10q-4 -11 -13 -11q-14 0 -24.5 6.5t-10.5 16.5q0 24 60 186.5t60 206.5q0 25 -14 25q-8 0 -30.5 -15t-58 -30t-74.5 -15q-30 0 -57 16q-14 -92 -48 -183.5t-86.5 -158t-105.5 -66.5q-85 0 -85 108q0 54 25 135t50 143.5t25 69.5q0 6 -5 6q-15 0 -114 -156l-18 -27
q-5 -9 -20 -5q-3 3 -3 5q17 24 40.5 62t38.5 61t33 46.5t33 35t29 11.5q33 0 33 -43q0 -38 -45.5 -173t-45.5 -190t35 -55q48 0 94.5 65t75.5 152t41 174q-25 25 -40.5 60t-15.5 64q0 49 36 49q51 0 51 -105q0 -17 -4 -61q25 -18 54 -18q51 0 108.5 32.5t79.5 32.5
q37 0 37 -52q0 -40 -22 -111q-6 -20 -9.5 -35.5t0.5 -20.5q9 0 32 40q149 260 216 260q48 0 48 -56q0 -36 -36 -167.5t-36 -169.5q0 -55 36 -55q71 0 171 167q5 8 19 5q4 -3 4 -5q-4 -8 -11.5 -21.5t-30 -48t-46 -61t-56 -48t-62.5 -21.5q-77 0 -77 99q0 59 37.5 190.5
t37.5 143.5q0 15 -10 15q-31 0 -109.5 -119t-142 -237.5t-74.5 -148.5z" />
    <glyph glyph-name="v_r" unicode="vr" horiz-adv-x="926" 
d="M926 267q5 8 19 5q4 -3 4 -5q-6 -11 -15.5 -29t-38.5 -64t-57 -81t-64.5 -64t-65.5 -29q-39 0 -61.5 29.5t-22.5 74.5q0 56 27 136t54 146.5t27 89.5q0 13 -11 24t-33 26t-35 28q-28 -118 -81 -208t-111 -90q-52 0 -97 69q-20 -84 -51.5 -158t-76.5 -126.5t-91 -52.5
q-85 0 -85 108q0 54 25 135t50 143.5t25 69.5q0 6 -5 6q-15 0 -114 -156l-18 -27q-5 -9 -20 -5q-3 3 -3 5q17 24 40.5 62t38.5 61t33 46.5t33 35t29 11.5q33 0 33 -43q0 -38 -45.5 -173t-45.5 -190t35 -55q42 0 82.5 54t67.5 128.5t44 156.5q-34 74 -34 139q0 66 38 66
t38 -81q0 -56 -15 -125q41 -78 94 -78q34 0 69.5 47t60 110.5t40.5 133.5l-3 5q-33 47 -33 104q0 31 11 50.5t30 19.5q32 0 32 -60q0 -44 -13 -111q14 -16 46 -35.5t49 -40.5t17 -55q0 -39 -45.5 -174t-45.5 -181q0 -62 38 -62q10 0 22.5 6t24.5 15t25.5 23.5t25 28.5
t25.5 32.5t23.5 32.5t21 32t17.5 27.5t14 22.5t8 14z" />
    <glyph glyph-name="v_s" unicode="vs" horiz-adv-x="910" 
d="M634 448q-105 -192 -183 -192q-46 0 -87 67q-21 -84 -52.5 -157.5t-76.5 -125.5t-90 -52q-85 0 -85 108q0 54 25 135t50 143.5t25 69.5q0 6 -5 6q-15 0 -114 -156l-18 -27q-5 -9 -20 -5q-3 3 -3 5q17 24 40.5 62t38.5 61t33 46.5t33 35t29 11.5q33 0 33 -43
q0 -38 -45.5 -173t-45.5 -190t35 -55q42 0 82 54t67 128t44 156q-33 72 -33 140q0 66 38 66t38 -81q0 -53 -16 -130q37 -73 85 -73q44 0 103 84t105 193v28q0 170 49 170q23 0 23 -36q0 -44 -50 -164q3 -44 30 -148q49 33 97 33q30 0 54 -8t33 -16l9 -8q4 -5 -13 -2l-8 2
q-48 12 -75 12q-46 0 -92 -33q23 -88 23 -155q0 -126 -48 -213t-113 -87q-72 0 -72 94q0 79 49.5 183.5t120.5 169.5q-12 112 -17 112q-4 0 -30 -45zM685 306q0 17 -2 51q-62 -63 -105 -162.5t-43 -166.5q0 -60 36 -60q48 0 81 101t33 237z" />
    <glyph glyph-name="v_x" unicode="vx" horiz-adv-x="1012" 
d="M645 450q-9 0 -39.5 -39t-69 -78.5t-68.5 -39.5q-42 0 -81 65q-24 -90 -60.5 -172t-85.5 -140t-96 -58q-85 0 -85 108q0 54 25 135t50 143.5t25 69.5q0 6 -5 6q-15 0 -114 -156l-18 -27q-5 -9 -20 -5q-3 3 -3 5q17 24 40.5 62t38.5 61t33 46.5t33 35t29 11.5q33 0 33 -43
q0 -38 -45.5 -173t-45.5 -190t35 -55q43 0 88 60.5t77 142.5t52 170q-31 75 -31 139q0 69 39 69q38 0 38 -81q0 -52 -17 -128q34 -75 74 -75q20 0 47 25.5t49.5 56.5t50 56.5t49.5 25.5q32 0 49.5 -36t28.5 -101q20 25 47 61t42.5 56.5t33.5 41.5t30.5 30.5t22.5 9.5
q13 0 16 -9.5t-3 -16.5q-3 -4 -31 -34.5t-73.5 -80.5t-79.5 -89q20 -126 33 -161q22 -53 58 -54q42 0 88.5 53t82.5 114q4 8 19 4q4 -2 4 -4q-4 -8 -11.5 -21.5t-30.5 -48t-46 -61t-55.5 -48t-61.5 -21.5q-103 0 -138 178q-24 -30 -52 -69.5t-46.5 -65t-37.5 -49.5
t-33 -35.5t-25 -11.5q-10 0 -14 6t1 14q16 24 202 243q-4 21 -8 51.5t-6.5 48.5t-6.5 37t-9 27.5t-12 8.5z" />
    <glyph glyph-name="v_y" unicode="vy" horiz-adv-x="1031" 
d="M617 457q-7 0 -25 -12t-37.5 -26.5t-50.5 -26.5t-62 -12q-30 0 -57 16q-14 -92 -48 -183.5t-86.5 -158t-105.5 -66.5q-85 0 -85 108q0 54 25 135t50 143.5t25 69.5q0 6 -5 6q-15 0 -114 -156l-18 -27q-5 -9 -20 -5q-3 3 -3 5q17 24 40.5 62t38.5 61t33 46.5t33 35
t29 11.5q33 0 33 -43q0 -38 -45.5 -173t-45.5 -190t35 -55q48 0 94.5 65t75.5 152t41 174q-25 25 -40.5 60t-15.5 64q0 49 36 49q51 0 51 -105q0 -17 -4 -61q25 -18 54 -18q39 0 76.5 20t67.5 40.5t51 20.5q33 0 33 -40q0 -35 -45.5 -159.5t-45.5 -155.5q0 -20 14 -20
q32 0 81.5 56t96 134.5t76 133t40.5 79.5q1 2 5.5 12t7 15t7.5 12t11.5 10t14.5 3q16 0 19 -13.5t-2 -19.5q-30 -71 -89.5 -244t-86.5 -245q34 -1 60 -9t35 -16l9 -7l-8 -1q-8 0 -13 1q-40 9 -91 9q-34 -86 -66 -151t-71 -122.5t-82.5 -87.5t-90.5 -30q-72 0 -72 69
q0 90 101 203.5t229 136.5q48 122 69 185q8 23 10.5 37t-1.5 17q-3 0 -7 -4t-9 -10.5t-9 -12.5t-8.5 -13t-6.5 -9q-103 -152 -169 -152q-55 0 -55 66q0 52 46 174t46 137q0 6 -4 6zM446 -340q114 0 259 351q-61 -13 -117.5 -52t-93.5 -86t-58.5 -94t-21.5 -79q0 -40 32 -40z
" />
    <glyph glyph-name="v_z" unicode="vz" horiz-adv-x="938" 
d="M571 198q70 0 132.5 89.5t62.5 159.5q0 46 -36 46q-25 0 -54 -31.5t-53 -68.5t-60.5 -68.5t-74.5 -31.5q-54 0 -99 72q-37 -145 -105.5 -261t-138.5 -116q-85 0 -85 108q0 54 25 135t50 143.5t25 69.5q0 6 -5 6q-15 0 -114 -156l-18 -27q-5 -9 -20 -5q-3 3 -3 5
q17 24 40.5 62t38.5 61t33 46.5t33 35t29 11.5q33 0 33 -43q0 -38 -45.5 -173t-45.5 -190t35 -55q44 0 89.5 62t77.5 145t52 172q-33 71 -33 135q0 67 39 67q38 0 38 -81q0 -45 -15 -118q42 -85 92 -85q27 0 54 21.5t49.5 51.5t46 60.5t52.5 52t59 21.5q35 0 53 -22t18 -60
q0 -68 -55.5 -148.5t-126.5 -109.5q29 -10 48 -30q49 19 92 19q22 0 38.5 -5.5t22.5 -10.5l5 -5q3 -3 -6 -6q-10 -4 -15 -2q-17 8 -46 8q-38 0 -77 -14q35 -45 35 -120q0 -87 -43 -179t-116 -154t-149 -62q-77 0 -77 80q0 99 94.5 238t213.5 200q-26 32 -74 32q-9 0 -14.5 6
t-5.5 12q0 5 4 5zM684 56q0 43 -13 70q-76 -37 -145.5 -117.5t-108 -162.5t-38.5 -137q0 -51 40 -51q56 0 119 66t104.5 160t41.5 172z" />
    <glyph glyph-name="w_e" unicode="we" horiz-adv-x="1106" 
d="M320 200q-93 -153 -164 -153q-69 0 -69 78q0 56 56 216t56 181q0 9 -5 9q-7 0 -19 -13t-31.5 -44t-33.5 -55.5t-43.5 -76t-43.5 -75.5q-5 -9 -20 -5q-3 3 -3 5q14 24 35.5 62.5t35 62.5t32.5 56t33 51.5t29 38t28.5 27t25.5 8.5q35 0 35 -46q0 -53 -54 -204.5t-54 -203.5
q0 -38 26 -38q69 0 216 298q12 24 20.5 33t23.5 9q23 0 23 -27q0 -4 -28.5 -123t-28.5 -179q0 -73 40 -73q49 0 98 95t75 212q-42 67 -42 136q0 62 37 62q44 0 44 -88q0 -48 -14 -112q42 -56 103 -56q19 0 28 2q23 105 81.5 189.5t117.5 84.5q46 0 46 -44
q0 -50 -55.5 -125.5t-130.5 -109.5q-12 -49 -12 -93q0 -101 74 -101q96 0 218 196q5 8 19 5q4 -3 4 -5q-5 -9 -13.5 -24.5t-35.5 -55t-55 -69.5t-69 -55t-79 -25q-61 0 -90.5 40t-29.5 107q0 26 5 61q-8 -1 -23 -1q-62 0 -108 54q-19 -77 -49 -147t-70.5 -118.5t-79.5 -48.5
q-86 0 -86 146q0 22 4 66q0 2 1.5 18.5t1 18t-1.5 8.5q-5 0 -31 -42zM957 511q-24 0 -61.5 -67.5t-61.5 -150.5q60 33 100 95.5t40 100.5q0 22 -17 22z" />
    </font>
</defs>
</svg>
