<?xml version="1.0" standalone="no"?>
<!DOCTYPE svg PUBLIC "-//W3C//DTD SVG 1.1//EN" "http://www.w3.org/Graphics/SVG/1.1/DTD/svg11.dtd" >
<svg xmlns="http://www.w3.org/2000/svg" xmlns:xlink="http://www.w3.org/1999/xlink" version="1.1">
<metadata>
Created by FontForge 20170910 at Tue Oct 10 16:14:36 2017
 By Jimmy Wärting
Copyright (c) 2017 by Studio Kmzero &#38; Zetafonts. All rights reserved.
</metadata>
<defs>
<font id="HeadingProTrial-LightItalic" horiz-adv-x="2531" >
  <font-face 
    font-family="Heading Pro Trial"
    font-weight="300"
    font-style="italic"
    font-stretch="normal"
    units-per-em="2048"
    panose-1="2 0 5 6 0 0 0 2 0 4"
    ascent="1638"
    descent="-410"
    x-height="1202"
    cap-height="1520"
    bbox="-241 -840 2479 1910"
    underline-thickness="102"
    underline-position="-205"
    slope="-12"
    unicode-range="U+000D-FB06"
  />
<missing-glyph horiz-adv-x="982" 
 />
    <glyph glyph-name="f_t" unicode="ft" horiz-adv-x="1139" 
d="M291 1204h123l2 8q21 96 44 170t59.5 125t92.5 77.5t142 26.5q57 0 96 -15.5t59 -30.5l-34 -98q-17 10 -54.5 23t-83.5 13q-51 0 -82.5 -15t-52.5 -49t-36.5 -89.5t-33.5 -137.5l-2 -8h431l86 391h117l-86 -391h258l-22 -107h-260l-157 -714q-15 -66 -24 -115t-9 -83
q0 -51 24.5 -71.5t84.5 -20.5q23 0 46 3.5t43 8.5t37 11t28 11l-9 -98q-26 -14 -72 -30t-103 -16q-56 0 -93.5 11t-60.5 33t-33 54t-10 74q0 46 10 103t25 125l156 714h-431l-240 -1097h-117l241 1097h-122z" />
    <glyph glyph-name="ff" unicode="ff" horiz-adv-x="1105" 
d="M1381 1487q-21 8 -46.5 13t-54.5 5q-51 0 -83 -15t-53.5 -49t-37.5 -90t-35 -139l-2 -8h177l-23 -106h-177l-244 -1098h-1l-2 -10q-22 -96 -44.5 -170t-61 -125t-100.5 -77.5t-162 -26.5q-45 0 -86.5 13.5t-77 31.5t-62 37t-40.5 30q-37 -55 -93.5 -83.5t-145.5 -28.5
q-56 0 -94.5 15.5t-58.5 29.5l35 95q17 -9 54 -21.5t83 -12.5q51 0 82.5 15t53 49t37 90t34.5 139l2 10l244 1098h-138l23 106h139l2 8q22 96 46 170t61 125t93 77.5t142 26.5q37 0 69.5 -8.5t54.5 -19.5l-42 -96q-21 8 -46.5 13t-54.5 5q-51 0 -83 -15t-53.5 -49t-37.5 -90
t-35 -139l-2 -8h419l2 8q22 96 46 170t61 125t93 77.5t142 26.5q37 0 69.5 -8.5t55.5 -19.5zM425 -303q69 0 111.5 14.5t69 49t43.5 90.5t36 139l210 946l36 162h-418l-245 -1098l-2 -10q-14 -57 -27 -107t-29 -92q14 -11 35 -27t48.5 -31t60.5 -25.5t71 -10.5z" />
    <glyph glyph-name="ffi" unicode="ffi" horiz-adv-x="1508" 
d="M846 1487q-21 8 -46.5 13t-54.5 5q-51 0 -83 -15t-53.5 -49t-37.5 -90t-35 -139l-2 -8h420l2 8q22 96 45.5 170t60.5 125t93 77.5t142 26.5q37 0 69.5 -8.5t55.5 -19.5l-43 -96q-21 8 -46.5 13t-54.5 5q-51 0 -83 -15t-53.5 -49t-37.5 -90t-35 -139l-2 -8h555l-265 -1204
h-117l242 1098h-438l-244 -1098h-1l-2 -10q-22 -96 -44.5 -170t-61 -125t-100.5 -77.5t-162 -26.5q-45 0 -86.5 13.5t-77 31.5t-62 37t-40.5 30q-37 -55 -93.5 -83.5t-145.5 -28.5q-56 0 -94.5 15.5t-58.5 29.5l35 95q17 -9 54 -21.5t83 -12.5q51 0 82.5 15t53 49t37 90
t34.5 139l210 946l36 162h-138l23 106h139l2 8q22 96 46 170t61 125t93 77.5t142 26.5q37 0 69.5 -8.5t55.5 -19.5zM423 -303q69 0 111.5 14.5t69 49t43.5 90.5t36 139l209 936l38 172h-419l-245 -1098l-2 -10q-14 -57 -27 -107t-29 -92q14 -11 35 -27t48.5 -31t60.5 -25.5
t71 -10.5zM1554 1490q0 35 21.5 58.5t67.5 23.5q35 0 50.5 -13.5t15.5 -36.5q0 -34 -19.5 -58t-74.5 -24q-61 0 -61 50z" />
    <glyph glyph-name="ffl" unicode="ffl" horiz-adv-x="1457" 
d="M1194 0l331 1503q-13 5 -37.5 9t-66.5 4q-8 0 -16 -0.5t-16 -0.5q-69 -1 -121 -17.5t-91 -52.5t-66.5 -93t-46.5 -140l-2 -8h177l-23 -106h-177l-245 -1098l-2 -10q-22 -96 -45.5 -170t-60.5 -125t-93 -77.5t-141 -26.5q-56 0 -94.5 15.5t-58.5 29.5l35 95
q17 -9 54 -21.5t83 -12.5q51 0 82.5 15t53 49t37 90t34.5 139l210 946l36 162h-411l-245 -1098l-2 -10q-22 -96 -45.5 -170t-60.5 -125t-93 -77.5t-141 -26.5q-56 0 -94.5 15.5t-58.5 29.5l35 95q17 -9 54 -21.5t83 -12.5q51 0 82.5 15t53 49t37 90t34.5 139l2 10l244 1098
h-138l23 106h139l2 8q22 96 46 170t61 125t93 77.5t142 26.5q37 0 69.5 -8.5t54.5 -19.5l-42 -96q-21 8 -46.5 13t-54.5 5q-51 0 -83 -15t-53.5 -49t-37.5 -90t-35 -139l-2 -8h412l2 8q22 96 57 170.5t88.5 126t128.5 79t176 27.5q70 0 117.5 -6t76.5 -14t43 -16t18 -11
l-2 -1h2l-344 -1567h-117z" />
    <glyph glyph-name="f_j" unicode="fj" horiz-adv-x="951" 
d="M847 1487q-21 8 -46.5 13t-54.5 5q-51 0 -83 -15t-53.5 -49t-37.5 -90t-35 -139l-2 -8h538l-267 -1214q-21 -96 -44 -170t-59.5 -125t-92.5 -77.5t-142 -26.5q-57 0 -96.5 15.5t-58.5 29.5l34 99q17 -10 54.5 -23t83.5 -13q51 0 82.5 15t52.5 49t36.5 89.5t33.5 137.5
l243 1108h-421l-4 -15l-240 -1083h-2l-2 -10q-22 -96 -45.5 -170t-60.5 -125t-93 -77.5t-141 -26.5q-56 0 -94.5 15.5t-58.5 29.5l35 95q17 -9 54 -21.5t83 -12.5q51 0 82.5 15t53 49t37 90t34.5 139l247 1108h-138l23 106h140l2 8q22 96 45.5 170t60.5 125t93 77.5
t142 26.5q37 0 69.5 -8.5t55.5 -19.5zM1003 1490q0 35 21 58.5t68 23.5q35 0 50.5 -13.5t15.5 -36.5q0 -34 -20 -58t-75 -24q-60 0 -60 50z" />
    <glyph glyph-name="fl" unicode="fl" horiz-adv-x="915" 
d="M1127 1567h2l-344 -1567h-117l331 1503q-13 5 -37.5 9t-66.5 4q-8 0 -16 -0.5t-16 -0.5q-69 -1 -121 -17.5t-91 -52.5t-66.5 -93t-46.5 -140l-2 -8h177l-23 -106h-177l-245 -1098l-2 -10q-22 -96 -45.5 -170t-60.5 -125t-93 -77.5t-141 -26.5q-56 0 -94.5 15.5
t-58.5 29.5l35 95q17 -9 54 -21.5t83 -12.5q51 0 82.5 15t53 49t37 90t34.5 139l2 10l244 1098h-138l23 106h139l2 8q22 96 57 170.5t88.5 126t128.5 79t176 27.5q70 0 117.5 -6t76.5 -14t43 -16t18 -11z" />
    <glyph glyph-name="fi" unicode="fi" horiz-adv-x="880" 
d="M283 1204h139l2 8q22 96 46 170t61 125t93 77.5t142 26.5q37 0 69.5 -8.5t54.5 -19.5l-42 -96q-21 8 -46.5 13t-54.5 5q-51 0 -83 -15t-53.5 -49t-37.5 -90t-35 -139l-2 -8h473l-264 -1204h-117l241 1098h-356l-245 -1098l-2 -10q-22 -96 -45.5 -170t-60.5 -125
t-93 -77.5t-141 -26.5q-56 0 -94.5 15.5t-58.5 29.5l35 95q17 -9 54 -21.5t83 -12.5q51 0 82.5 15t53 49t37 90t34.5 139l2 10l244 1098h-138zM942 1490q0 35 21.5 58.5t67.5 23.5q35 0 50.5 -13.5t15.5 -36.5q0 -34 -19.5 -58t-74.5 -24q-61 0 -61 50z" />
    <glyph glyph-name=".notdef" horiz-adv-x="982" 
 />
    <glyph glyph-name="space" unicode=" " horiz-adv-x="392" 
 />
    <glyph glyph-name="exclam" unicode="!" horiz-adv-x="423" 
d="M243 374l236 1146h133l-268 -1146h-101zM141 40q0 20 5 37.5t16.5 31t30 21t44.5 7.5q37 0 52.5 -14.5t15.5 -40.5q0 -98 -101 -98q-33 0 -48 15t-15 41z" />
    <glyph glyph-name="quotedbl" unicode="&#x22;" horiz-adv-x="600" 
d="M370 1139l76 381h115l-91 -381h-100zM620 1139l78 381h113l-91 -381h-100z" />
    <glyph glyph-name="numbersign" unicode="#" horiz-adv-x="967" 
d="M908 484h-149l-162 -484h-104l162 484h-201l-162 -484h-104l162 484h-138l21 88h146l141 420h-140l22 89h148l147 440h105l-148 -440h201l147 440h105l-148 -440h138l-22 -89h-146l-140 -420h140zM484 572h200l141 420h-201z" />
    <glyph glyph-name="percent" unicode="%" horiz-adv-x="1367" 
d="M364 1213q15 66 32.5 124t49 101t81.5 67.5t128 24.5q51 0 85 -11t54.5 -30.5t28.5 -47.5t8 -62q0 -36 -7 -77.5t-17 -87.5l-59 -270q-15 -68 -33.5 -126t-50 -100.5t-81 -67t-126.5 -24.5q-50 0 -84 11t-55 31t-30.5 48.5t-9.5 64.5q0 43 12 96zM478 724q65 0 98 40.5
t49 111.5l74 338q8 38 15 72.5t7 62.5q0 38 -18.5 60.5t-68.5 22.5q-45 0 -72.5 -17t-44 -46t-26 -68.5t-19.5 -84.5l-61 -273q-8 -38 -14.5 -71.5t-6.5 -61.5q0 -39 18.5 -62.5t69.5 -23.5zM500 0h-116l813 1520h114zM951 568q15 67 33 124.5t49.5 100.5t81.5 67.5
t128 24.5q51 0 84.5 -10.5t53.5 -30t28.5 -47.5t8.5 -62q0 -36 -7 -78t-18 -89l-58 -268q-15 -68 -33.5 -126t-50 -101t-80.5 -67t-126 -24q-50 0 -84 11t-55 31t-30.5 48.5t-9.5 64.5q0 43 12 96zM1066 80q64 0 97.5 40.5t49.5 111.5l74 337q8 38 15 72t7 62q0 38 -18.5 61
t-68.5 23q-45 0 -72.5 -17t-44 -46t-26 -68.5t-19.5 -84.5l-60 -272q-8 -38 -15 -72t-7 -62q0 -39 18.5 -62t69.5 -23z" />
    <glyph glyph-name="ampersand" unicode="&#x26;" horiz-adv-x="902" 
d="M859 455v-2l7 -62q-18 -80 -45 -153.5t-74 -129.5t-117.5 -90t-175.5 -34q-73 0 -122 17t-78 48t-41.5 73t-12.5 93q0 41 6.5 85.5t17.5 92.5l14 65l9 42q13 57 38 106.5t58.5 87.5t75 64t87.5 35q-64 16 -91 61.5t-27 113.5q0 27 4 57.5t11 62.5l21 98q20 89 56 152.5
t85 104t109.5 59t129.5 18.5h194l-23 -108h-192q-53 0 -93.5 -19t-70 -51t-49 -74t-29.5 -88l-23 -98q-12 -53 -12 -94q0 -71 38.5 -108t124.5 -37h178l27 119h117l-26 -118h58l-22 -106h-60l-62 -285zM359 474l-16 -75q-11 -46 -17 -85.5t-6 -73.5t8 -61t26 -45.5
t48.5 -28.5t75.5 -10q73 0 120 26t76.5 69t46 97.5t28.5 110.5l15 66l4 18l57 254h-192q-50 0 -93.5 -18.5t-79 -50.5t-60 -75t-35.5 -92z" />
    <glyph glyph-name="quoteright" unicode="&#x2019;" horiz-adv-x="236" 
d="M294 1175q27 57 44 102.5t17 71.5q0 27 -21 27h-20l30 139l147 1l-29 -135q-3 -12 -10 -36t-18.5 -54t-27.5 -65t-36 -69z" />
    <glyph glyph-name="parenleft" unicode="(" horiz-adv-x="546" 
d="M394 -87q-61 0 -101 16t-63.5 43.5t-33 65t-9.5 79.5q0 39 6 80t15 82l211 961q6 25 15.5 62t25.5 77.5t41 81t61.5 73t86.5 52.5t117 20h24l-22 -104h-25q-38 0 -67 -15.5t-51 -40t-37.5 -54.5t-26 -59t-16.5 -54t-9 -39l-212 -964q-8 -34 -12 -65t-4 -59q0 -60 24 -97
t85 -37h24l-23 -105h-24z" />
    <glyph glyph-name="parenright" unicode=")" horiz-adv-x="535" 
d="M87 -87l23 105h25q44 0 77.5 20.5t58.5 55.5t42 82t29 100l213 965q4 17 10 50.5t6 71.5q0 26 -4.5 51t-17 44.5t-33.5 31.5t-54 12h-25l23 104h24q63 0 103.5 -18t64 -47.5t32 -67t8.5 -76.5q0 -45 -8 -87t-14 -71l-211 -959q-14 -65 -37 -130.5t-62.5 -118t-99.5 -85.5
t-148 -33h-25z" />
    <glyph glyph-name="asterisk" unicode="*" horiz-adv-x="854" 
d="M735 1214l311 103l11 -98l-312 -88l133 -242l-97 -61l-118 252l-229 -252l-70 60l237 243l-271 86l50 98l267 -101l60 306h104z" />
    <glyph glyph-name="plus" unicode="+" horiz-adv-x="831" 
d="M506 650h-255l23 105h255l57 255h104l-56 -255h255l-23 -105h-255l-56 -254h-104z" />
    <glyph glyph-name="comma" unicode="," horiz-adv-x="390" 
d="M128 40q0 43 23 70t74 27q36 0 51 -19.5t15 -48.5q0 -36 -11.5 -71.5t-29 -67.5t-39 -60.5t-41.5 -50.5l-53 29q31 40 47.5 70.5t28.5 65.5q-65 0 -65 56z" />
    <glyph glyph-name="hyphen" unicode="-" horiz-adv-x="460" 
d="M129 538l23 105h439l-23 -105h-439z" />
    <glyph glyph-name="period" unicode="." horiz-adv-x="398" 
d="M128 40q0 41 22 69t74 28q37 0 52.5 -14.5t15.5 -40.5q0 -98 -101 -98q-33 0 -48 15t-15 41z" />
    <glyph glyph-name="slash" unicode="/" horiz-adv-x="706" 
d="M155 -80h-116l846 1679h116z" />
    <glyph glyph-name="colon" unicode=":" horiz-adv-x="306" 
d="M84 40q0 41 22 69t74 28q37 0 52.5 -14.5t15.5 -40.5q0 -98 -101 -98q-33 0 -48 15t-15 41zM320 1115q0 41 22 69t74 28q37 0 52.5 -14.5t15.5 -40.5q0 -98 -101 -98q-33 0 -48 15t-15 41z" />
    <glyph glyph-name="less" unicode="&#x3c;" horiz-adv-x="624" 
d="M196 654l22 97l543 349l-29 -134l-404 -264l288 -263l-29 -134z" />
    <glyph glyph-name="equal" unicode="=" horiz-adv-x="831" 
d="M294 843l23 105h615l-23 -105h-615zM211 464l23 105h615l-23 -105h-615z" />
    <glyph glyph-name="greater" unicode="&#x3e;" horiz-adv-x="625" 
d="M178 307l30 131l409 264l-287 265l31 131l383 -348l-22 -95z" />
    <glyph glyph-name="question" unicode="?" horiz-adv-x="818" 
d="M977 1274q0 -99 -28 -177.5t-71.5 -144.5t-95.5 -123.5t-101 -114t-87.5 -115.5t-54.5 -129l-22 -96h-102l21 97q18 84 56.5 150.5t85 125t96 113t90 113.5t66.5 126.5t26 152.5q0 82 -35 125.5t-113 43.5q-86 0 -140.5 -47t-76.5 -119l-41 -135h-112l16 74
q15 72 45.5 134t77 107t110 70.5t144.5 25.5q118 0 182 -61.5t64 -195.5zM314 40q0 20 5 37.5t16.5 31t30 21t44.5 7.5q37 0 52.5 -14.5t15.5 -40.5q0 -98 -101 -98q-32 0 -47.5 15t-15.5 41z" />
    <glyph glyph-name="at.001" horiz-adv-x="1134" 
d="M933 -228h-330q-101 0 -180 24.5t-134 75t-83.5 127t-28.5 180.5q0 97 27 220l111 509q38 174 95 294t132.5 195t171 108.5t211.5 33.5q90 0 150 -26.5t96.5 -71t52 -103.5t15.5 -124q0 -42 -5.5 -85t-15.5 -85l-202 -919h-108l22 101q-32 -52 -80.5 -84.5t-120.5 -32.5
q-57 0 -94.5 14t-59 39t-30.5 58.5t-9 72.5q0 47 9.5 98t20.5 102l60 273q15 69 35 137.5t56 123.5t93.5 89.5t147.5 34.5q72 0 106 -32t43 -83l1 2l2 9q17 79 17 144q0 54 -12.5 99t-39.5 77t-69.5 50t-103.5 18q-89 0 -162.5 -26.5t-132.5 -88.5t-104 -163t-78 -250
l-111 -506q-12 -54 -17.5 -100t-5.5 -88q0 -92 26 -156.5t71 -105t106 -58.5t132 -18h3h327zM769 212q56 0 93.5 27t62.5 71t41 100t29 115l46 208q11 48 20 96t9 90q0 28 -5.5 51.5t-19 41t-36.5 27t-57 9.5h-3q-55 -1 -90.5 -23.5t-59 -60.5t-38 -90t-27.5 -111l-59 -269
q-10 -45 -18 -87.5t-8 -78.5q0 -26 5.5 -47.5t19.5 -36.5t37 -23.5t58 -8.5z" />
    <glyph glyph-name="A" unicode="A" horiz-adv-x="802" 
d="M639 1521h181l-36 -1521h-120l12 366h-401l-148 -366h-120zM319 473h361l31 939h-11z" />
    <glyph glyph-name="B" unicode="B" horiz-adv-x="880" 
d="M776 499q4 16 5.5 31.5t1.5 30.5q0 38 -11 70t-32.5 55.5t-53.5 36.5t-73 13h-192l-138 -623h195q46 0 87 8t76 36t63 82.5t48 147.5zM900 1180q9 42 9 80q0 33 -8 60.5t-25.5 48t-46 32t-69.5 11.5h-190l-125 -569h174q113 0 174 61.5t86 177.5zM869 388
q-24 -107 -58.5 -180.5t-84 -119.5t-117 -66t-156.5 -20h-311l334 1518h310q57 0 102.5 -12.5t77.5 -39.5t49 -68.5t17 -99.5q0 -26 -3 -54.5t-11 -60.5l-21 -97q-12 -57 -31.5 -106t-48 -87t-66.5 -64.5t-87 -37.5q67 -15 103.5 -70t36.5 -136q0 -43 -10 -87z" />
    <glyph glyph-name="C" unicode="C" horiz-adv-x="836" 
d="M857 442l-7 -31q-9 -47 -23.5 -97t-36.5 -97.5t-54 -90t-76.5 -74t-102.5 -50t-133 -18.5q-77 0 -127 19.5t-79.5 52.5t-41.5 78t-12 96t8.5 103.5t19.5 105.5l141 641q12 55 28 110t39 105.5t54.5 94.5t75.5 76t101.5 51t132.5 19h1q78 0 129 -20t81 -54t42 -78t12 -93
q0 -46 -7.5 -92t-18.5 -89l-7 -31h-117l7 30q11 42 17.5 81t6.5 74q0 36 -8.5 65.5t-28 51t-52 33.5t-80.5 12q-72 0 -120 -26.5t-80 -73.5t-52.5 -110.5t-36.5 -137.5l-141 -637q-11 -51 -19 -98t-8 -89q0 -36 8 -65t26.5 -50t50 -32.5t79.5 -11.5q69 0 116.5 24t80 67
t53 100.5t34.5 125.5l6 30h119z" />
    <glyph glyph-name="D" unicode="D" horiz-adv-x="881" 
d="M791 1519q76 0 126 -19t79.5 -52t41.5 -77.5t12 -96.5q0 -48 -8 -99t-19 -104l-137 -624q-19 -84 -47 -164.5t-76.5 -143t-122.5 -101t-184 -38.5h-316l335 1519h316zM567 1407l-286 -1296h196h4q58 0 103 18.5t80 59t61 104.5t46 155l136 622q23 104 23 171
q0 84 -36 123.5t-114 42.5h-3h-11h-199z" />
    <glyph glyph-name="E" unicode="E" horiz-adv-x="745" 
d="M135 0l334 1519l565 1l-25 -112l-448 -1l-125 -570h378l-24 -110h-378l-136 -616h447l-24 -111h-564z" />
    <glyph glyph-name="F" unicode="F" horiz-adv-x="730" 
d="M567 1407l-135 -611h371l-25 -111h-369l-151 -685h-118l335 1519h555l-24 -112h-439z" />
    <glyph glyph-name="G" unicode="G" horiz-adv-x="847" 
d="M583 760h343l-77 -349q-10 -47 -25 -97t-37.5 -97.5t-54 -90t-75.5 -74t-101.5 -50t-132.5 -18.5h-1q-77 0 -127 19.5t-79 52.5t-41 77.5t-12 95.5t8.5 104t20.5 107l140 640q12 55 28 110t39 105.5t54.5 94.5t75.5 76.5t102 51t133 18.5h1q78 0 129 -20t81 -54t42 -78.5
t12 -93.5q0 -45 -7.5 -91t-18.5 -89l-7 -31h-118l7 30q11 42 17.5 81.5t6.5 74.5t-8.5 64.5t-28 51t-52 33.5t-80.5 12q-72 0 -120 -27t-80 -73.5t-52.5 -110t-36.5 -137.5l-141 -637q-11 -51 -19 -98t-8 -89q0 -36 8 -65t26.5 -50t50 -32.5t79.5 -11.5q69 0 116.5 24.5
t79.5 67t52.5 100.5t35.5 125l52 238h-223z" />
    <glyph glyph-name="H" unicode="H" horiz-adv-x="934" 
d="M141 0l335 1520h118l-154 -699h417l154 699h117l-334 -1520h-118l156 710h-416l-156 -710h-119z" />
    <glyph glyph-name="I" unicode="I" horiz-adv-x="402" 
d="M143 0l334 1520h119l-335 -1520h-118z" />
    <glyph glyph-name="K" unicode="K" horiz-adv-x="857" 
d="M140 0l335 1520h118l-154 -699h138l455 698h129l-484 -749l180 -770h-128l-174 710h-140l-156 -710h-119z" />
    <glyph glyph-name="L" unicode="L" horiz-adv-x="707" 
d="M140 0l335 1520h117l-310 -1408h436l-24 -112h-554z" />
    <glyph glyph-name="M" unicode="M" horiz-adv-x="1196" 
d="M560 1405l-299 -1405h-118l334 1520h184l29 -1121l521 1121h184l-335 -1520h-118l319 1406l-543 -1169h-128z" />
    <glyph glyph-name="O" unicode="O" horiz-adv-x="858" 
d="M767 1536q77 0 127 -19t79.5 -52t41.5 -77.5t12 -95.5t-8.5 -104.5t-20.5 -106.5l-140 -640q-12 -55 -28 -110.5t-39 -106t-54.5 -94.5t-75.5 -76.5t-102 -51t-133 -18.5h-1q-77 0 -127 19.5t-79.5 52.5t-41.5 78t-12 96t8.5 103.5t19.5 105.5l141 641q12 55 28 110
t38.5 106t54.5 94.5t76 76t102 51t133 18.5h1zM742 1426q-72 0 -120 -26.5t-80 -73.5t-53 -110.5t-37 -136.5l-140 -638q-11 -51 -19.5 -98t-8.5 -89q0 -35 8 -64.5t27 -50.5t50.5 -32.5t79.5 -11.5q72 0 120.5 26.5t81 73.5t53 110.5t36.5 137.5l140 637q11 51 19.5 98
t8.5 88q0 35 -8 64.5t-26.5 50.5t-50 33t-78.5 12h-3z" />
    <glyph glyph-name="P" unicode="P" horiz-adv-x="852" 
d="M985 959q-23 -107 -60.5 -176t-89.5 -109t-119.5 -56t-149.5 -16h-173l-132 -602h-117l334 1520h304q61 0 110 -11.5t83.5 -38t53 -69t18.5 -104.5q0 -58 -16 -129zM913 1168q12 54 12 95q0 71 -38.5 107.5t-126.5 36.5h-190l-152 -694h172q61 0 106 12.5t78 42
t55.5 76.5t37.5 116z" />
    <glyph glyph-name="Q" unicode="Q" horiz-adv-x="858" 
d="M376 -13q-62 6 -103 27t-65 53t-34 73.5t-10 88.5q0 51 9 104t20 106l141 641q12 55 28 110t38.5 106t54.5 94.5t76 76t102 51t133 18.5h1q77 0 127 -19t79.5 -52t41.5 -77.5t12 -95.5t-8.5 -104.5t-20.5 -106.5l-140 -640q-17 -77 -42 -153.5t-67 -139.5t-106 -106.5
t-159 -53.5l-26 -122h-108zM742 1426q-72 0 -120 -26.5t-80 -73.5t-53 -110.5t-37 -136.5l-140 -638q-11 -51 -19.5 -98t-8.5 -89q0 -35 8 -64.5t27 -50.5t50.5 -32.5t79.5 -11.5q2 0 3 -0.5t3 -0.5q70 1 117.5 28.5t79.5 74t52 110t36 136.5l140 637q11 51 19.5 98t8.5 88
q0 35 -8 64.5t-26.5 50.5t-50 33t-78.5 12h-2h-1z" />
    <glyph glyph-name="R" unicode="R" horiz-adv-x="886" 
d="M142 0l334 1519h311q138 0 203 -50.5t65 -169.5q0 -35 -5.5 -77t-16.5 -91l-31 -144q-24 -109 -94 -191t-168 -123q51 -37 73.5 -86t22.5 -125q0 -17 -1 -35t-3 -38l-24 -222q-1 -11 -1.5 -22t-0.5 -22q0 -34 4 -65t10 -58h-124q-5 21 -7.5 47t-2.5 56q0 29 3 61l24 221
q3 25 3 47q0 54 -13.5 93t-35.5 64.5t-49.5 38t-54.5 12.5h-163l-140 -640h-118zM916 1133q9 40 13 72.5t4 58.5q0 48 -13 76t-35.5 43t-53.5 19.5t-67 4.5h-195l-145 -656h192q49 0 93 18.5t79 50.5t59.5 75t35.5 92z" />
    <glyph glyph-name="S" unicode="S" horiz-adv-x="795" 
d="M811 374q-19 -91 -53 -163.5t-85 -122.5t-120 -77t-157 -27q-78 0 -129.5 15t-82.5 43t-43.5 67.5t-12.5 88.5q0 41 7 86.5t18 96.5l13 61h117l-12 -54q-11 -45 -16.5 -83t-5.5 -69q0 -36 9 -62.5t29 -44t52.5 -26t79.5 -8.5q60 0 106 20.5t79 57.5t55 87.5t34 110.5
l2 12q10 50 10 94q0 72 -28.5 119.5t-85.5 85.5l-127 85q-37 25 -65 52t-46.5 57.5t-28 65.5t-9.5 78q0 63 19 140l4 18q20 84 55.5 150.5t86 112.5t116 70.5t145.5 24.5q68 0 117 -17t80 -48.5t45.5 -75.5t14.5 -99q0 -59 -15 -126l-19 -91h-117l24 121q7 32 7 66t-9 63.5
t-28.5 51t-50 33.5t-73.5 12q-59 0 -104 -21.5t-77.5 -58.5t-53 -85.5t-30.5 -103.5l-7 -35q-2 -14 -3.5 -26.5t-1.5 -24.5q0 -67 32.5 -118.5t87.5 -87.5l126 -83q74 -49 108 -114.5t34 -152.5q0 -57 -13 -119z" />
    <glyph glyph-name="T" unicode="T" horiz-adv-x="702" 
d="M718 1407l-309 -1407h-118l310 1407h-280l24 112h677l-23 -112h-281z" />
    <glyph glyph-name="U" unicode="U" horiz-adv-x="897" 
d="M1115 1519l-251 -1141q-18 -84 -44.5 -156.5t-72.5 -125t-118 -82.5t-182 -30h-1q-78 0 -129 15.5t-82 43.5t-43.5 67.5t-12.5 88.5q0 40 6.5 85t17.5 94l251 1141h118l-250 -1133q-10 -46 -17 -85.5t-7 -72.5q0 -32 8 -56.5t28 -42t53.5 -26.5t84.5 -9q76 0 123.5 20.5
t76.5 59t45.5 92.5t31.5 120l249 1133h117z" />
    <glyph glyph-name="V" unicode="V" horiz-adv-x="796" 
d="M335 1521h120l-39 -1412h11l581 1412h120l-640 -1521h-181z" />
    <glyph glyph-name="W" unicode="W" horiz-adv-x="1298" 
d="M364 1521h120l-110 -1412l515 1412h181l-106 -1412l511 1412h120l-565 -1521h-177l103 1415l-519 -1415h-177z" />
    <glyph glyph-name="X" unicode="X" horiz-adv-x="784" 
d="M648 0l-113 668l-400 -668h-133l484 792l-125 728h129l103 -611l371 611h128l-451 -731l140 -789h-133z" />
    <glyph glyph-name="Y" unicode="Y" horiz-adv-x="731" 
d="M557 608l-134 -608h-117l134 608l-105 911h128l76 -739l404 739h122z" />
    <glyph glyph-name="Z" unicode="Z" horiz-adv-x="716" 
d="M47 0l23 104l785 1303h-470l24 112h602l-22 -102l-790 -1306h498l-24 -111h-626z" />
    <glyph glyph-name="bracketleft" unicode="[" horiz-adv-x="544" 
d="M127 -87l372 1693h291l-22 -104h-175l-327 -1484h175l-23 -105h-291z" />
    <glyph glyph-name="bracketright" unicode="]" horiz-adv-x="543" 
d="M87 -87l23 105h176l326 1484h-175l23 104h291l-373 -1693h-291z" />
    <glyph glyph-name="asciicircum" unicode="^" horiz-adv-x="937" 
d="M1019 859h-125l-89 635h-16l-369 -635h-124l435 740h178z" />
    <glyph glyph-name="underscore" unicode="_" horiz-adv-x="814" 
d="M10 -129l22 100h743l-21 -100h-744z" />
    <glyph glyph-name="quoteleft" unicode="&#x2018;" horiz-adv-x="236" 
d="M469.972 1503.91q-26.999 -56.9961 -43.998 -102.494q-16.999 -45.4971 -16.999 -71.4951q0 -26.998 20.999 -26.998h19.999l-29.998 -138.992l-146.991 -1l28.998 134.992q3 11.999 9.99902 35.998q7 23.998 18.499 53.9961q11.5 29.998 27.499 64.9961t35.9971 68.9961
z" />
    <glyph glyph-name="b" unicode="b" horiz-adv-x="868" 
d="M139 0l345 1567h117l-112 -508q19 35 43.5 64.5t55 50.5t68.5 33t84 12h1q69 0 114 -17.5t71.5 -47.5t37 -71t10.5 -88q0 -57 -10.5 -118.5t-24.5 -121.5l-68 -307q-12 -55 -26.5 -111t-35 -107.5t-49 -96t-69 -78t-95 -52.5t-126.5 -19h-1q-46 0 -78.5 11.5t-54.5 32
t-34 49t-16 62.5l-30 -139h-117zM476 94q72 0 118.5 27.5t76.5 75.5t48.5 113t35.5 139l67 307q13 57 22.5 109t9.5 97q0 33 -7.5 60t-25 46.5t-47 30t-74.5 10.5h-3q-65 -1 -109.5 -29t-75 -74.5t-50.5 -106.5t-36 -126l-84 -383l-56 -251q-3 24 -3 50q0 37 5 77.5t13 81.5
t17.5 81.5t17.5 77.5l41 185q10 44 20 91.5t23 95.5t29.5 94t39.5 86l-63 -286q-4 -14 -7 -28l-6 -28l-51 -233q-14 -59 -25 -118t-11 -110q0 -35 7 -65t24.5 -51.5t46 -33.5t72.5 -12z" />
    <glyph glyph-name="f.001" horiz-adv-x="548" 
d="M291 1204h123l2 8q21 96 44 170t59.5 125t92.5 77.5t142 26.5q57 0 96 -15.5t59 -30.5l-34 -98q-17 10 -54.5 23t-83.5 13q-51 0 -82.5 -15t-52.5 -49t-36.5 -89.5t-33.5 -137.5l-2 -8h260l-24 -107h-260l-240 -1097h-117l241 1097h-122z" />
    <glyph glyph-name="g" unicode="g" horiz-adv-x="863" 
d="M993 1202l-267 -1212q-21 -95 -49.5 -169.5t-72 -125.5t-104.5 -77.5t-147 -26.5q-36 0 -71 2.5t-66.5 8t-58 13t-44.5 18.5l34 98q17 -9 43.5 -15t56.5 -9.5t62 -5.5t60 -2q51 0 88 15t65 49t49 89.5t39 137.5l33 152q-39 -70 -99.5 -114.5t-152.5 -44.5
q-69 0 -114 17.5t-71.5 47.5t-37 70.5t-10.5 87.5q0 57 11 119t25 122l67 308q12 55 26.5 110.5t35 107t49 96t69 78t94.5 52.5t126 19h1q46 0 79 -11.5t54.5 -32t33.5 -49t16 -62.5l31 139h117zM432 93q66 0 112 29t77.5 77t51.5 111t36 131l60 273l1 7q13 59 24 117.5
t11 109.5q0 35 -7 64.5t-24.5 51t-46 33.5t-71.5 12q-72 0 -118.5 -28t-76.5 -76t-48.5 -112.5t-34.5 -138.5l-68 -308q-12 -56 -22 -108t-10 -97q0 -33 7.5 -60.5t25 -47t47 -30t74.5 -10.5z" />
    <glyph glyph-name="i" unicode="i" horiz-adv-x="390" 
d="M452 1490q0 35 21.5 58.5t68.5 23.5q35 0 50 -13.5t15 -36.5q0 -34 -19.5 -58t-74.5 -24q-61 0 -61 50zM138 0l265 1202h116l-264 -1202h-117z" />
    <glyph glyph-name="k" unicode="k" horiz-adv-x="805" 
d="M598 1567l-201 -911h111l397 546h123l-443 -600l219 -602h-130l-193 545h-108l-120 -545h-117l345 1567h117z" />
    <glyph glyph-name="l" unicode="l" horiz-adv-x="393" 
d="M137 0l344 1567h117l-344 -1567h-117z" />
    <glyph glyph-name="m" unicode="m" horiz-adv-x="1410" 
d="M368 516l-113 -516h-117l264 1202h117l-31 -141q48 69 116 113t162 44h1q58 0 97.5 -13.5t64 -38t36 -58t13.5 -72.5q24 39 54 72.5t66.5 58t81 38t97.5 13.5q64 0 106 -16t67 -43t35 -64t10 -80q0 -60 -14 -126.5t-28 -132.5l-166 -756h-117l167 756q14 62 26.5 118.5
t12.5 103.5q0 30 -7 54t-23.5 41t-44.5 26.5t-70 9.5q-72 0 -122 -33.5t-84.5 -88.5t-57 -125.5t-38.5 -144.5l-44 -201h-1l-113 -516h-117l167 756q14 62 26.5 118.5t12.5 103.5q0 30 -7 54t-23.5 41t-44.5 26.5t-70 9.5q-72 0 -122 -33.5t-84.5 -88.5t-57 -125.5
t-38.5 -144.5l-44 -201h-1z" />
    <glyph glyph-name="r" unicode="r" horiz-adv-x="551" 
d="M787 1091q-13 3 -33.5 9.5t-50.5 6.5q-66 0 -112.5 -29t-78.5 -77t-53 -111t-37 -131l-166 -759h-117l264 1202h117l-32 -147q19 36 44 66t56 51.5t69 34t85 12.5q17 0 35.5 -3t33.5 -8z" />
    <glyph glyph-name="s" unicode="s" horiz-adv-x="740" 
d="M753 369q0 -82 -26.5 -152.5t-77 -122t-123.5 -81t-167 -29.5q-68 0 -115 16t-76 45.5t-41.5 71t-12.5 92.5q0 33 5 70t13 76h117q-12 -51 -12 -101q0 -33 7 -62t24 -51t45 -34.5t69 -12.5q61 0 107.5 19t77.5 52.5t46.5 79t15.5 97.5q0 57 -27.5 97t-69.5 72.5t-90 62
t-90 66t-69.5 84.5t-27.5 118q0 82 25.5 151t74 119.5t119.5 78.5t162 28q121 0 179.5 -53t58.5 -163q0 -59 -16 -132h-115q5 26 8.5 50t3.5 46q0 66 -32.5 104t-110.5 38q-50 0 -93 -19t-74.5 -51.5t-50 -75.5t-18.5 -91q0 -55 28 -94t70 -72t90.5 -63t90.5 -68t70 -87
t28 -119z" />
    <glyph glyph-name="v" unicode="v" horiz-adv-x="702" 
d="M957 1202l-514 -1202h-185l15 1202h120l-27 -1093h16l455 1093h120z" />
    <glyph glyph-name="w" unicode="w" horiz-adv-x="1146" 
d="M290 1202h120l-77 -1093h14l403 1093h188l-77 -1093h13l404 1093h119l-454 -1202h-196l75 1093h-5l-405 -1093h-197z" />
    <glyph glyph-name="x" unicode="x" horiz-adv-x="714" 
d="M589 0l-119 521l-349 -521h-117l420 625l-139 577h123l111 -480l324 480h115l-392 -577l146 -625h-123z" />
    <glyph glyph-name="y" unicode="y" horiz-adv-x="697" 
d="M393 1202l-30 -1099h14l85 201l371 898h121l-341 -808l-168 -402q-34 -74 -67 -132.5t-68.5 -104.5t-76 -79.5t-90.5 -56.5l-38 75q70 38 120.5 108t98.5 176l9 22h-83l22 1202h121z" />
    <glyph glyph-name="z" unicode="z" horiz-adv-x="695" 
d="M46 0l21 100l691 996h-442l23 106h571l-21 -99l-692 -995h468l-24 -108h-595z" />
    <glyph glyph-name="braceleft" unicode="{" horiz-adv-x="600" 
d="M228 817q50 7 83 21.5t56 43t39.5 75t34.5 117.5q11 45 20.5 90.5t19.5 90.5q20 91 45.5 157.5t63.5 109.5t92 63.5t131 20.5h38l-23 -104h-27q-57 0 -90.5 -15.5t-53 -44.5t-29.5 -69.5t-22 -89.5l-58 -245q-14 -57 -30 -104t-38.5 -82t-53 -58.5t-72.5 -33.5
q50 -13 70 -45.5t20 -86.5q0 -30 -5 -66t-14 -79l-59 -292q-5 -24 -8.5 -45.5t-3.5 -39.5q0 -21 5.5 -37.5t19.5 -27.5t37 -17t58 -6h27l-23 -105h-37q-110 0 -155 42t-45 131q0 37 6.5 81.5t17.5 98.5l38 179q9 45 14 80t5 61q0 29 -6.5 49t-20.5 33.5t-36.5 21.5t-54.5 13
l24 114v0z" />
    <glyph glyph-name="bar" unicode="|" horiz-adv-x="584" 
d="M135 -82l370 1684h118l-370 -1684h-118z" />
    <glyph glyph-name="braceright" unicode="}" horiz-adv-x="600" 
d="M707 703q-50 -8 -83.5 -22.5t-57 -43t-40.5 -75t-33 -117.5l-39 -180q-21 -92 -46.5 -158.5t-63.5 -109.5t-92 -63.5t-131 -20.5h-38l24 105h27q50 0 81.5 12t51.5 34.5t31.5 55t20.5 72.5l68 290q14 60 30 107t38 81.5t52.5 57t72.5 32.5q-49 13 -68.5 47.5t-19.5 89.5
q0 30 5 65t13 76l50 244q8 38 14 71.5t6 59.5q0 21 -5.5 37.5t-19 28t-36.5 17.5t-58 6h-28l23 104h38q110 0 155.5 -42.5t45.5 -132.5q0 -36 -6.5 -80t-17.5 -97l-39 -179q-10 -45 -15 -80t-5 -61q0 -29 6.5 -49t21 -33.5t37 -21.5t54.5 -13z" />
    <glyph glyph-name="asciitilde" unicode="~" horiz-adv-x="830" 
d="M896 708q-42 -55 -91 -78t-103 -23q-44 0 -82.5 14t-73 31t-65.5 31t-61 14q-39 0 -71.5 -14.5t-69.5 -55.5l-29 72q43 57 93 79t107 22q37 0 75 -14t74.5 -31t70 -31t61.5 -14q18 0 34.5 3.5t33 11.5t33.5 21.5t36 33.5z" />
    <glyph glyph-name="exclamdown" unicode="&#xa1;" horiz-adv-x="438" 
d="M389.977 847.948l-235.986 -1145.93h-132.991l267.983 1145.93h100.994zM491.97 1181.93q0 -19.999 -4.99902 -37.498q-5 -17.498 -16.499 -30.998q-11.5 -13.499 -29.999 -20.998q-18.498 -7.5 -44.4971 -7.5q-36.9971 0 -52.4961 14.499t-15.499 40.498
q0 97.9941 100.993 97.9941q32.998 0 47.9971 -14.999q14.999 -15 14.999 -40.998z" />
    <glyph glyph-name="cent" unicode="&#xa2;" horiz-adv-x="894" 
d="M732 384q1 2 1 5h116l-13 -60q-14 -59 -37 -116.5t-61.5 -105t-97 -80t-143.5 -40.5l-34 -157h-108l34 157q-57 7 -94 27t-59 50.5t-31 69.5t-9 83q0 55 10 114t23 116l68 308q17 77 40 154.5t62.5 141.5t102 108.5t157.5 55.5l36 161h108l-36 -160q60 -6 99 -25.5
t62.5 -48.5t32.5 -65.5t9 -76.5q0 -32 -4.5 -66t-11.5 -67l-11 -54h-117l3 13q8 29 12.5 58.5t4.5 55.5q0 12 -1 23t-4 21q-3 22 -7.5 45.5t-14.5 45.5t-26 40t-41 30l-2 -9h-32q-3 -12 -9 -19.5t-17 -7.5q-72 0 -118.5 -28t-76.5 -76t-49 -112.5t-35 -138.5l-68 -307
q-13 -56 -22.5 -108t-9.5 -97q0 -33 7.5 -60.5t25 -47t47 -30t74.5 -10.5q11 0 14 -7t2 -18h32l-5 -23q18 10 34.5 24t31.5 29t28.5 29.5t25.5 25.5q24 19 40.5 46t28 57.5t19 63t14.5 63.5z" />
    <glyph glyph-name="sterling" unicode="&#xa3;" horiz-adv-x="871" 
d="M300 724h110q1 57 -1 115.5t-2 116.5q0 56 3 108.5t12 100.5q13 78 41.5 145.5t75.5 117.5t114 78.5t159 28.5q62 0 104.5 -15.5t69 -44.5t38.5 -70t12 -93q0 -65 -15 -141l-116 -1q4 23 6 47.5t2 49.5q0 31 -5.5 59.5t-19 50.5t-37.5 35t-61 13q-137 0 -203.5 -117
t-66.5 -338q0 -15 1.5 -40.5t3.5 -54.5t3.5 -57.5t1.5 -50.5v-21.5t-1 -21.5h269l-23 -107h-255q-10 -77 -29.5 -151.5t-46.5 -140.5t-60.5 -121.5t-71.5 -94.5q21 5 41 6.5t40 1.5q59 0 114 -9.5t109 -9.5q42 0 74.5 5t70.5 19l10 -99q-32 -16 -74.5 -25.5t-93.5 -9.5
q-38 0 -74.5 4t-73 8.5t-74 8.5t-77.5 4q-18 0 -45 -2.5t-52 -5.5q-29 -4 -60 -7l24 114q39 24 74.5 70.5t65.5 106.5t52 129t34 137q2 14 4 29.5t4 32.5h-128z" />
    <glyph glyph-name="fraction" unicode="&#x2044;" horiz-adv-x="538" 
d="M28 -54l-98 22l890 1585l96 -23z" />
    <glyph glyph-name="yen" unicode="&#xa5;" horiz-adv-x="857" 
d="M658 710h179l-16 -77h-206l-14 -25l-33 -149h215l-17 -77h-215l-84 -382h-117l84 382h-207l17 77h207l33 149l-3 25h-199l17 77h173l-92 809h127l75 -739l404 739h123z" />
    <glyph glyph-name="section" unicode="&#xa7;" horiz-adv-x="820" 
d="M223 546q0 70 19 131.5t57.5 109t97.5 78.5t139 40q-32 22 -62.5 46.5t-53.5 55t-37 68t-14 86.5q0 82 25.5 151t74 119.5t119.5 78.5t162 28q239 0 239 -215q0 -29 -4.5 -61.5t-12.5 -70.5h-116q12 54 12 98q0 65 -32 102.5t-110 37.5q-50 0 -92.5 -19.5t-74.5 -52
t-50 -75.5t-18 -91q0 -55 28 -94t69.5 -71.5t90.5 -63t90.5 -68t69.5 -86.5t28 -119q0 -71 -19 -132.5t-58 -108.5t-98.5 -78t-139.5 -40q32 -22 62.5 -46.5t54 -54.5t37.5 -68t14 -87q0 -82 -25.5 -151t-74 -119.5t-119 -78.5t-160.5 -28q-122 0 -180.5 53t-58.5 162
q0 60 16 133l116 -1q-12 -53 -12 -97q0 -65 32 -102.5t111 -37.5q49 0 92 19t74.5 51.5t50 75.5t18.5 91q0 55 -28 94t-70 71.5t-90.5 63t-90.5 68t-70 86.5t-28 119zM347 574q0 -48 19 -82.5t49 -63.5q33 -14 80 -14q62 0 108.5 19t77 52.5t46 79t15.5 97.5q0 47 -19 81.5
t-50 63.5q-15 7 -35.5 11t-42.5 4q-62 0 -108.5 -19t-77.5 -52.5t-46.5 -79t-15.5 -97.5z" />
    <glyph glyph-name="currency" unicode="&#xa4;" horiz-adv-x="754" 
d="M295 660q0 46 18 88.5t48 77.5l-49 65l90 74l52 -66q29 15 61.5 23.5t65.5 8.5t61.5 -9.5t51.5 -26.5l84 70l59 -73l-86 -71q16 -40 16 -80q0 -45 -17.5 -86.5t-46.5 -76.5l51 -65l-91 -75l-51 66q-31 -17 -64 -26t-67 -9q-33 0 -62 9.5t-52 26.5l-80 -65l-57 73l81 66
q-16 36 -16 81zM387 676q0 -49 31 -82.5t82 -33.5q33 0 64 13t56 35.5t40 52.5t15 63q0 24 -8 45.5t-23 37.5t-36 25t-46 9q-33 0 -64 -13.5t-56 -36t-40 -52.5t-15 -63z" />
    <glyph glyph-name="quotesingle" unicode="'" horiz-adv-x="339" 
d="M370 1139l76 381h115l-91 -381h-100z" />
    <glyph glyph-name="quotedblleft" unicode="&#x201c;" horiz-adv-x="473" 
d="M406.976 1514.91q-26.999 -56.9961 -43.998 -102.493t-16.999 -71.4961q0 -26.998 20.999 -26.998h19.999l-29.998 -138.991l-146.991 -1l28.998 134.991q3 11.999 9.99902 35.998q7 23.998 18.499 53.9971q11.5 29.998 27.499 64.9951q15.999 34.998 35.9971 68.9961z
M665.959 1513.91q-26.998 -56.9961 -43.9971 -102.493t-16.999 -71.4961q0 -26.998 20.999 -26.998h19.999l-29.998 -138.991l-146.991 -1l28.998 134.991q3 12 9.99902 35.998q7 23.998 18.499 53.9971q11.499 29.998 27.498 64.9961q15.999 34.9971 35.998 68.9951z" />
    <glyph glyph-name="guillemotleft" unicode="&#xab;" horiz-adv-x="731" 
d="M288 189l-98 401l274 404h120l-278 -404l101 -401h-119zM591 189l-98 401l274 404h120l-278 -404l101 -401h-119z" />
    <glyph glyph-name="guilsinglright" unicode="&#x203a;" horiz-adv-x="392" 
d="M106 189l281 401l-96 404h116l93 -404l-278 -401h-116z" />
    <glyph glyph-name="endash" unicode="&#x2013;" horiz-adv-x="770" 
d="M167 537l23 106h686l-23 -106h-686z" />
    <glyph glyph-name="dagger" unicode="&#x2020;" horiz-adv-x="921" 
d="M732 970l-244 -1111h-116l244 1111h-300l25 111h299l97 440h115l-96 -440h301l-25 -111h-300z" />
    <glyph glyph-name="periodcentered" unicode="&#xb7;" horiz-adv-x="382" 
d="M236 568q0 41 22 69t74 28q37 0 52.5 -14.5t15.5 -40.5q0 -98 -101 -98q-33 0 -48 15t-15 41z" />
    <glyph glyph-name="paragraph" unicode="&#xb6;" horiz-adv-x="970" 
d="M347 -369l234 1068q-75 2 -128 24t-87.5 59.5t-50.5 89t-16 114.5q0 132 32 232t92 167t145.5 101t193.5 34h110l-416 -1889h-109zM647 -369l416 1889h110l-416 -1889h-110z" />
    <glyph glyph-name="bullet" unicode="&#x2022;" horiz-adv-x="617" 
d="M667 739q0 -48 -20.5 -90.5t-54.5 -74.5t-79 -50.5t-93 -18.5q-36 0 -65.5 12.5t-50.5 34t-32.5 51t-11.5 64.5q0 48 21 90.5t56 74.5t79 51t91 19q36 0 65.5 -12.5t50.5 -34.5t32.5 -52t11.5 -64z" />
    <glyph glyph-name="quotesinglbase" unicode="&#x201a;" horiz-adv-x="370" 
d="M64 -197q27 57 44 102.5t17 71.5q0 27 -21 27h-20l30 139l147 1l-29 -135q-3 -12 -10 -36t-18.5 -54t-27.5 -65t-36 -69z" />
    <glyph glyph-name="quotedblbase" unicode="&#x201e;" horiz-adv-x="621" 
d="M64 -197q27 57 44 102.5t17 71.5q0 27 -21 27h-20l30 139l147 1l-29 -135q-3 -12 -10 -36t-18.5 -54t-27.5 -65t-36 -69zM323 -197q27 57 44 102.5t17 71.5q0 27 -21 27h-20l30 139l147 1l-29 -135q-3 -12 -10 -36t-18.5 -54t-27.5 -65t-36 -69z" />
    <glyph glyph-name="quotedblright" unicode="&#x201d;" horiz-adv-x="420" 
d="M223 1180q27 57 44 102.5t17 71.5q0 27 -21 27h-20l30 139l147 1l-29 -135q-3 -12 -10 -36t-18.5 -54t-27.5 -65t-36 -69zM482 1180q27 57 44 102.5t17 71.5q0 27 -21 27h-20l30 139l147 1l-29 -135q-3 -12 -10 -36t-18.5 -54t-27.5 -65t-36 -69z" />
    <glyph glyph-name="perthousand" unicode="&#x2030;" horiz-adv-x="1922" 
d="M364 1213q14 66 32 124t49.5 101t81.5 67.5t128 24.5q51 0 85 -11t54.5 -30.5t28.5 -47.5t8 -62q0 -36 -7 -77.5t-17 -87.5l-55 -253q-15 -68 -33.5 -126t-50 -101t-81.5 -67.5t-127 -24.5q-98 0 -138 41.5t-40 113.5q0 44 12 98zM481 741q65 0 98.5 40.5t48.5 111.5
l72 321q8 38 14.5 72t6.5 62q0 38 -18.5 61t-68.5 23q-45 0 -72.5 -17t-44 -46t-26 -68.5t-19.5 -84.5l-57 -256q-8 -38 -14.5 -72t-6.5 -62q0 -39 18.5 -62t68.5 -23zM499 0h-115l812 1520h114zM932 511q15 66 32.5 124t49 101t81.5 67.5t129 24.5q51 0 85 -10.5t54 -30.5
t28.5 -48t8.5 -62q0 -36 -7 -78t-18 -89l-46 -210q-15 -68 -33.5 -126t-50 -100.5t-81 -67t-126.5 -24.5q-50 0 -84 10.5t-55 30.5t-30.5 48.5t-9.5 64.5q0 44 12 97zM1059 80q64 0 97.5 40.5t49.5 111.5l62 279q8 38 15 72.5t7 62.5q0 38 -18.5 61t-68.5 23
q-45 0 -72.5 -17t-44 -46t-26.5 -68.5t-20 -84.5l-47 -215q-8 -38 -15 -72t-7 -62q0 -39 18.5 -62t69.5 -23zM1478 510q15 67 33 125t49.5 101t81.5 67.5t128 24.5q51 0 85 -11t54 -30.5t28.5 -47.5t8.5 -62q0 -36 -7 -77.5t-18 -88.5l-47 -211q-15 -68 -33.5 -126
t-50 -100.5t-80.5 -67t-126 -24.5q-99 0 -139.5 41t-40.5 112q0 22 3.5 46.5t9.5 51.5zM1605 80q65 0 98.5 40.5t48.5 111.5l62 279q8 38 15 72.5t7 62.5q0 38 -18.5 61t-68.5 23q-45 0 -72.5 -17t-44 -46t-26 -68.5t-19.5 -84.5l-48 -215q-8 -38 -14.5 -72t-6.5 -62
q0 -39 18.5 -62t68.5 -23z" />
    <glyph glyph-name="grave" unicode="`" horiz-adv-x="462" 
d="M561 1532l74 -246h-95l-96 246h117z" />
    <glyph glyph-name="acute" unicode="&#xb4;" horiz-adv-x="581" 
d="M755 1532l-205 -246h-98l182 246h121z" />
    <glyph glyph-name="circumflex" unicode="&#x2c6;" horiz-adv-x="619" 
d="M398 1285l187 229h118l86 -229h-110l-51 155l-119 -155h-111z" />
    <glyph glyph-name="tilde" unicode="&#x2dc;" horiz-adv-x="631" 
d="M882 1465q-42 -56 -82.5 -86.5t-88.5 -30.5q-32 0 -55.5 11t-43.5 24.5t-40 24.5t-44 11q-26 0 -51.5 -14.5t-54.5 -47.5l-53 36q47 59 88 88.5t89 29.5q31 0 55.5 -11.5t45.5 -25t41 -25t44 -11.5q22 0 45 16t52 47z" />
    <glyph glyph-name="macron" unicode="&#xaf;" horiz-adv-x="623" 
d="M415 1388l22 99h402l-21 -99h-403z" />
    <glyph glyph-name="breve" unicode="&#x2d8;" horiz-adv-x="640" 
d="M866 1497q-28 -97 -97.5 -154.5t-181.5 -57.5q-50 0 -86.5 12t-59.5 33.5t-34 51.5t-11 66q0 26 4 49h81q-1 -8 -1.5 -15t-0.5 -14q0 -52 29.5 -79t95.5 -27q72 0 116 34.5t65 100.5h81z" />
    <glyph glyph-name="dotaccent" unicode="&#x2d9;" horiz-adv-x="516" 
d="M416 1385q0 42 22 69.5t75 27.5q36 0 51.5 -14t15.5 -40q0 -98 -101 -98q-32 0 -47.5 14.5t-15.5 40.5z" />
    <glyph glyph-name="dieresis" unicode="&#xa8;" horiz-adv-x="558" 
d="M389 1389q0 19 4.5 35.5t15 29t26.5 20t40 7.5q32 0 46 -13.5t14 -37.5q0 -92 -91 -92q-29 0 -42 13.5t-13 37.5zM581 1389q0 19 4.5 35.5t15 29t27 20t39.5 7.5q33 0 46.5 -13.5t13.5 -37.5q0 -45 -21.5 -68.5t-69.5 -23.5q-29 0 -42 13.5t-13 37.5z" />
    <glyph glyph-name="ring" unicode="&#x2da;" horiz-adv-x="378" 
d="M348 1403q0 38 10 72.5t32.5 60t57 40.5t84.5 15q71 0 100 -28.5t29 -77.5q0 -188 -193 -188q-63 0 -91.5 28.5t-28.5 77.5zM437 1426q0 -22 12 -35t39 -13q84 0 84 84q0 21 -12 33.5t-43 12.5q-22 0 -37 -7t-24.5 -18.5t-14 -26t-4.5 -30.5z" />
    <glyph glyph-name="cedilla" unicode="&#xb8;" horiz-adv-x="499" 
d="M67 -203q11 -10 21.5 -17.5t22.5 -13t28 -8t38 -2.5q45 0 71 19t26 51q0 12 -7 20t-18 13.5t-25 8t-28 2.5q-10 0 -19 -1t-17 -3l32 157h78l-21 -89q5 0 11 1q5 1 12.5 1.5t15.5 0.5q16 0 31.5 -6t27.5 -18t19 -29t7 -39q0 -42 -18 -72.5t-48 -50.5t-67.5 -29.5
t-76.5 -9.5q-100 0 -134 59z" />
    <glyph glyph-name="hungarumlaut" unicode="&#x2dd;" horiz-adv-x="431" 
d="M586 1532l-204 -246h-96l182 246h118zM776 1532l-203 -246h-96l182 246h117z" />
    <glyph glyph-name="ogonek" unicode="&#x2db;" horiz-adv-x="590" 
d="M345 -348q-20 -14 -52.5 -24t-72.5 -10q-30 0 -56.5 8t-46 24.5t-31 43t-11.5 64.5q0 59 19.5 103t50 76t67.5 54t72 38l57 -29q-28 -16 -55.5 -36.5t-49.5 -47.5t-35.5 -60t-13.5 -75q0 -35 17.5 -54.5t55.5 -19.5q32 0 53.5 5.5t38.5 15.5z" />
    <glyph glyph-name="caron" unicode="&#x2c7;" horiz-adv-x="681" 
d="M588 1514l49 -155l121 155h110l-188 -229h-118l-86 229h112z" />
    <glyph glyph-name="emdash" unicode="&#x2014;" horiz-adv-x="1278" 
d="M236 537l23 105h1039l-23 -105h-1039z" />
    <glyph glyph-name="AE" unicode="&#xc6;" horiz-adv-x="1016" 
d="M8 0l764 1519h117l426 1l-24 -112l-343 -1l-126 -570h274l-24 -110h-274l-136 -616h343l-24 -111h-460l80 366h-296l-181 -366h-116zM625 473l206 939h-8l-465 -939h267z" />
    <glyph glyph-name="Lslash" unicode="&#x141;" horiz-adv-x="805" 
d="M242 0l110 500l-122 -91l29 135l123 92l194 884h118l-172 -778l228 171l-30 -137l-228 -170l-108 -494h436l-24 -112h-554z" />
    <glyph glyph-name="OE" unicode="&#x152;" horiz-adv-x="1262" 
d="M619 0l15 70q-19 -16 -37.5 -31.5t-41 -27.5t-50.5 -19t-65 -7q-73 0 -121 18t-76.5 50t-40 75.5t-11.5 94.5q0 48 8 101t20 107l144 657q18 84 45.5 164.5t74.5 143.5t118.5 101t177.5 38q36 0 61.5 -6.5t44 -17t31.5 -24.5t23 -29l14 62l565 1l-25 -111l-447 -1
l-126 -572h378l-24 -110h-378l-136 -616h447l-24 -111h-564zM481 96q54 0 100 28.5t81 73.5l248 1123q-17 45 -51 74t-90 29q-64 0 -110 -23.5t-79 -67.5q-35 -48 -61 -117t-47 -166l-127 -575q-27 -122 -27 -200q0 -48 11 -86q14 -48 50.5 -70.5t101.5 -22.5z" />
    <glyph glyph-name="ordmasculine" unicode="&#xba;" horiz-adv-x="637" 
d="M364 1213q15 66 32.5 124t49 101t81.5 67.5t129 24.5q51 0 84.5 -10.5t53.5 -30t28 -47.5t8 -62q0 -36 -7 -78t-17 -88l-26 -123q-14 -67 -32.5 -125t-50 -100.5t-81 -67t-126.5 -24.5q-99 0 -139.5 41.5t-40.5 113.5q0 43 12 96zM510 870q66 0 99 39t49 110l44 198
q8 38 14.5 72t6.5 62q0 38 -18.5 61t-69.5 23q-46 0 -74 -16.5t-44.5 -46t-26 -69t-19.5 -84.5l-29 -132q-9 -38 -15.5 -72t-6.5 -61q0 -38 19 -61t71 -23zM255 706h436l-20 -95h-437z" />
    <glyph glyph-name="dotlessi" unicode="&#x131;" horiz-adv-x="390" 
d="M138 0l264 1202h117l-264 -1202h-117z" />
    <glyph glyph-name="Euro" unicode="&#x20ac;" horiz-adv-x="894" 
d="M906 1079l7 30q11 42 17.5 81.5t6.5 74.5t-8.5 64.5t-28 51t-51.5 33.5t-80 12q-72 0 -120 -26.5t-80 -73.5t-53 -110.5t-37 -137.5l-33 -147h463l-30 -88h-452l-38 -171h421l-28 -87h-412l-32 -144q-11 -51 -19 -98t-8 -89q0 -36 8 -65t26.5 -50t50 -32.5t79.5 -11.5
q69 0 116.5 24t80 67t53 100.5t34.5 125.5l6 30h119l-6 -31q-14 -71 -40.5 -146.5t-75 -138t-123.5 -102.5t-187 -40q-77 0 -127 19t-79.5 52.5t-41.5 78t-12 95.5t8.5 104.5t20.5 106.5l31 145h-81l29 87h71l38 171h-82l30 88h71l33 149q12 55 28 110t38.5 106t54.5 94.5
t76 76t102 51t133 18.5q78 0 129 -20t81 -54t42 -78.5t12 -93.5q0 -45 -7.5 -91t-18.5 -89l-7 -31h-118z" />
    <glyph glyph-name="trademark" unicode="&#x2122;" horiz-adv-x="1278" 
d="M918 1262h-1l-147 -686h-106l209 945h129l45 -657h9l336 657h127l-207 -945h-106l156 686h-1l-278 -541h-124zM624 1420l-186 -844h-106l186 844h-173l22 101h451l-22 -101h-172z" />
    <glyph glyph-name="copyright" unicode="&#xa9;" horiz-adv-x="1352" 
d="M1357 425q-38 -171 -110 -290.5t-168.5 -194t-212.5 -108t-242 -33.5q-105 0 -192.5 23.5t-151.5 74.5t-99.5 131.5t-35.5 194.5q0 93 25 205l112 508q37 171 109 289.5t168 193t211.5 108t240.5 33.5h1h2q105 0 192.5 -23.5t151.5 -74.5t99.5 -131.5t35.5 -195.5
q0 -91 -24 -203zM647 -104q102 0 197 27t175 89t140 162.5t93 249.5l112 508q22 98 22 179q0 97 -30 164.5t-82 109t-123.5 60t-153.5 19.5h-3h-3h-3q-101 -1 -195.5 -28t-173.5 -89t-139 -162.5t-93 -248.5l-112 -508q-22 -101 -22 -183q0 -97 29.5 -163.5t82 -108
t124.5 -59.5t158 -18zM967 465h108l-3 -10q-10 -41 -22 -85.5t-31 -87t-46.5 -81t-67.5 -67t-94.5 -45.5t-127.5 -17q-71 0 -117.5 17.5t-73.5 47.5t-38 71t-11 88q0 54 10 112.5t23 115.5l61 277q6 26 11.5 53t12.5 54q18 72 44.5 138t71 117t110 81.5t160.5 30.5
q74 0 121.5 -17t75 -46.5t38 -68t10.5 -80.5q0 -43 -7.5 -87t-15.5 -84l-3 -12h-108l3 12q9 38 16.5 74.5t7.5 70.5q0 29 -7.5 53.5t-25.5 42.5t-49 28.5t-78 10.5q-71 0 -117 -27.5t-76 -75t-49 -111.5t-35 -138l-58 -264q-14 -64 -25.5 -120t-13.5 -104q0 -34 6.5 -63
t24 -50t47.5 -33t76 -12q70 0 115.5 23t74 62t44 90t26.5 107z" />
    <glyph glyph-name="minus" unicode="&#x2212;" horiz-adv-x="831" 
d="M251 650l23 105h615l-23 -105h-615z" />
    <glyph glyph-name="degree" unicode="&#xb0;" horiz-adv-x="510" 
d="M754 1364q0 -51 -20 -97t-54.5 -81.5t-81.5 -56t-100 -20.5q-38 0 -68 13t-50.5 36t-31 53.5t-10.5 66.5q0 51 20 97.5t54.5 82t80.5 56.5t99 21q39 0 69 -13.5t50.5 -36.5t31.5 -54t11 -67zM668 1351q0 44 -24 72t-70 28q-33 0 -60.5 -12.5t-48 -34.5t-31.5 -50.5
t-11 -61.5q0 -44 23.5 -72t69.5 -28q33 0 60.5 12.5t48 34.5t32 51t11.5 61z" />
    <glyph glyph-name="plusminus" unicode="&#xb1;" horiz-adv-x="831" 
d="M540 801h-255l23 105h255l57 255h104l-56 -255h255l-23 -105h-255l-56 -254h-104zM181 324l23 105h615l-23 -105h-615z" />
    <glyph glyph-name="onehalf" unicode="&#xbd;" horiz-adv-x="1386" 
d="M438 1666q57 29 109.5 69.5t90.5 84.5h96l-207 -944h-107l177 801q-38 -38 -84.5 -66.5t-97.5 -49.5zM894 302l22 99q20 72 63 130t96.5 108.5t110.5 97t104 95.5t77 103.5t30 121.5q0 104 -90 104q-36 0 -61.5 -14.5t-43 -38t-28 -52.5t-17.5 -58l-10 -43h-104l11 51
q12 55 32.5 101.5t53.5 81t80 54t111 19.5q86 0 130 -45t44 -136q0 -88 -29.5 -154.5t-75.5 -120t-102 -99.5t-108.5 -92t-95 -97t-61.5 -116h329l-22 -100h-446zM364 -54l-98 22l890 1585l96 -23z" />
    <glyph glyph-name="Eth" unicode="&#xd0;" horiz-adv-x="909" 
d="M562 650h-391l23 105h391zM786 1519q76 0 126 -19t79.5 -52t41.5 -77.5t12 -96.5q0 -48 -8 -99t-19 -104l-137 -624q-19 -84 -47 -164.5t-76.5 -143t-122.5 -101t-184 -38.5h-316l335 1519h316zM562 1407l-286 -1296h196h4q58 0 103 18.5t80 59t61 104.5t46 155l136 622
q23 104 23 171q0 84 -36 123.5t-114 42.5h-3h-11h-199z" />
    <glyph glyph-name="multiply" unicode="&#xd7;" horiz-adv-x="833" 
d="M498 701l-145 186l91 74l145 -186l223 184l58 -72l-225 -185l145 -185l-90 -73l-145 184l-226 -185l-57 72z" />
    <glyph glyph-name="eth" unicode="&#xf0;" horiz-adv-x="885" 
d="M782 1416q-21 21 -42.5 34t-39 19.5t-29.5 9t-15 2.5l70 90q4 -1 19.5 -3.5t37.5 -10.5t48.5 -23.5t52.5 -42.5l111 82l40 -54l-111 -81q27 -45 44.5 -111t17.5 -161q0 -59 -8 -129t-26 -154h1l-101 -458q-12 -55 -27.5 -109t-37 -103t-51 -91t-71.5 -72.5t-97.5 -48
t-127.5 -17.5q-74 0 -122 18t-76.5 49.5t-39.5 74t-11 90.5q0 55 10.5 114.5t23.5 117.5l64 292q12 55 26.5 111t34.5 107.5t48 96t68.5 77.5t94.5 52t127 19q45 0 77.5 -11t54.5 -31t34 -47t17 -60q2 22 3 42t1 39q0 79 -14.5 135t-37.5 94l-121 -88l-40 52zM462 94
q72 0 118.5 27t77 77t50.5 122t40 161l49 224q13 59 24 118t11 110q0 35 -7 64.5t-24 51.5t-45.5 34t-71.5 12q-72 0 -119 -28t-77 -76t-48.5 -112.5t-34.5 -137.5l-64 -294q-13 -57 -23 -109t-10 -97q0 -33 7.5 -60t25 -46.5t47 -30t74.5 -10.5z" />
    <glyph glyph-name="divide" unicode="&#xf7;" horiz-adv-x="831" 
d="M251 650l23 105h615l-23 -105h-615zM554 948q0 41 22 69t74 28q37 0 52.5 -14.5t15.5 -40.5q0 -98 -101 -98q-33 0 -48 15t-15 41zM437 416q0 41 22 69t74 28q37 0 52.5 -14.5t15.5 -40.5q0 -98 -101 -98q-33 0 -48 15t-15 41z" />
    <glyph glyph-name="thorn" unicode="&#xfe;" horiz-adv-x="917" 
d="M63 -365l415 1885h116l-101 -459q19 34 43.5 63t55 50t68 33t83.5 12h1q69 0 114 -17.5t72 -48t37.5 -71t10.5 -87.5q0 -57 -11 -118.5t-25 -121.5l-67 -307q-12 -55 -26.5 -111t-35 -107.5t-49 -96t-69 -78t-95 -52.5t-126.5 -19q-46 0 -79 11t-54.5 31.5t-34 48.5
t-16.5 62l-110 -502h-117zM704 1109q-61 0 -104.5 -24.5t-74.5 -66t-51.5 -96t-36.5 -115.5l-95 -434q-5 -31 -8.5 -60.5t-3.5 -56.5q0 -35 7 -65t24.5 -51.5t46 -33.5t72.5 -12q72 0 118 27.5t76 75.5t48.5 113t35.5 139l67 307q13 57 22.5 109t9.5 97q0 33 -7 60
t-24.5 46.5t-47 30t-74.5 10.5z" />
    <glyph glyph-name=".DOT" horiz-adv-x="40" 
d="M189 385v5q0 3 1 4v3l3 8q1 6 7 12l2 3q6 6 10 8l2 1q4 2 6 2q6 2 8 2q4 1 7.5 1.5t8.5 0.5h6q2 0 4 -0.5t4 -0.5l12 -3q33 -10 33 -51q0 -39 -31 -49q-4 -2 -6 -2q-4 -1 -7.5 -1.5t-8.5 -0.5h-6h-6h-5q-6 1 -11 3l-10 4q-2 0 -4 2q-1 0 -3 2q-3 2 -5 5l-3 3l-3 5
q0 1 -0.5 2t-0.5 2l-2 4l-2 11v5v5v5z" />
    <glyph glyph-name="p" unicode="p" horiz-adv-x="870" 
d="M57 -365l345 1567h116l-31 -142q38 70 98.5 114.5t152.5 44.5q69 0 114 -17.5t72 -48t37.5 -71.5t10.5 -88q0 -57 -10.5 -117.5t-24.5 -120.5l-69 -308q-12 -55 -26 -111t-34.5 -107.5t-49 -96t-69 -78t-95 -52.5t-126.5 -19q-47 0 -79.5 11.5t-54.5 32t-34 49t-16 62.5
l-110 -504h-117zM474 94q72 0 118 27.5t76 75.5t48.5 112.5t35.5 138.5l68 307q13 57 23 109t10 97q0 33 -7.5 60t-25 46.5t-47.5 30.5t-75 11h-3q-65 -1 -109.5 -29t-75.5 -74.5t-51 -107.5t-36 -127l-86 -393q-6 -32 -9.5 -62.5t-3.5 -58.5q0 -35 7 -65t24.5 -52t46 -34
t72.5 -12z" />
    <glyph glyph-name="q" unicode="q" horiz-adv-x="868" 
d="M534 -365l111 505q-20 -35 -44 -63.5t-54.5 -49.5t-68 -32.5t-83.5 -11.5h-1q-69 0 -114 17.5t-71.5 48t-37 71t-10.5 87.5q0 57 11 118.5t25 121.5l67 308q12 55 26.5 110.5t35 107t49 96t69 78t94.5 52.5t126 19h1q46 0 78.5 -11.5t54.5 -32t33.5 -48.5t16.5 -62
l31 138h117l-346 -1567h-116zM435 93q61 0 105 25t75 67.5t51.5 99t36.5 118.5l84 381q9 43 15 84t6 79q0 35 -7 64.5t-24 51.5t-46 34t-72 12q-72 0 -118 -28t-76.5 -76t-49 -112.5t-34.5 -138.5l-67 -308q-13 -57 -22.5 -109t-9.5 -97q0 -33 7 -60t24.5 -46.5t47 -30
t74.5 -10.5z" />
    <glyph glyph-name="e" unicode="e" horiz-adv-x="822" 
d="M819 406l-4 -20q-10 -47 -23 -95t-32.5 -92.5t-48.5 -84t-70.5 -68.5t-98 -45.5t-131.5 -16.5q-74 0 -122 18t-76.5 49.5t-40 74t-11.5 90.5q0 55 10.5 114t23.5 116l68 309q12 55 26.5 111t36 107.5t51.5 96t72.5 78t99.5 52.5t133 19t125 -18t77.5 -48t39.5 -69.5
t11 -84.5q0 -46 -8 -94.5t-19 -94.5l-36 -164h-1l-4 -21l-537 -85l-20 -93q-12 -56 -22 -107.5t-10 -96.5q0 -33 7.5 -60.5t25 -47t47.5 -30.5t75 -11h3q71 0 115.5 23t72.5 62.5t44.5 93t30.5 114.5l4 19h116zM657 1109q-72 0 -118.5 -28t-76.5 -76t-49 -112.5t-35 -138.5
l-25 -111l417 68l22 99q9 43 17 84t8 77q0 30 -7.5 55.5t-25.5 43.5t-49 28.5t-78 10.5z" />
    <glyph glyph-name="a" unicode="a" horiz-adv-x="867" 
d="M619 0l28 129q-38 -65 -97 -105.5t-151 -40.5q-69 0 -113.5 17t-71 47t-37 70.5t-10.5 87.5q0 57 11 119t24 122l67 309q13 59 27.5 116t35 108.5t49 95t68.5 75.5t94 50t126 18h1q45 0 77.5 -11t54.5 -31t34.5 -47t17.5 -60l29 133h117l-265 -1202h-116zM435 91
q65 0 110.5 28t77.5 74.5t53 107.5t37 128l61 275l3 15q13 60 24.5 119t11.5 111q0 35 -7 64.5t-24.5 51t-46 33.5t-71.5 12q-72 0 -119 -31t-78 -81.5t-49.5 -114t-32.5 -129.5l-67 -308q-14 -66 -25.5 -121.5t-11.5 -100.5q0 -32 7.5 -56.5t25.5 -41.5t47.5 -26t73.5 -9z
" />
    <glyph glyph-name="u" unicode="u" horiz-adv-x="898" 
d="M908 1202h116l-264 -1202h-116l31 143q-39 -70 -99 -114.5t-152 -44.5q-69 0 -114 17.5t-71.5 47.5t-37 70.5t-10.5 87.5q0 57 10.5 118t24.5 121l166 756h117l-167 -756q-12 -56 -22 -108t-10 -97q0 -33 7.5 -60.5t25 -47t47.5 -30t75 -10.5q72 0 119.5 33.5t79 88.5
t51 125.5t36.5 144.5l24 114l19 87l30 -12l-35 -159q-10 -45 -20.5 -93t-23.5 -96.5t-30 -95t-40 -87.5l63 286l37 170l19 87z" />
    <glyph glyph-name="n" unicode="n" horiz-adv-x="891" 
d="M654 0l167 756q13 58 24 112.5t11 100.5q0 31 -7 57t-24 44.5t-46 28.5t-72 10q-69 0 -117.5 -34t-82.5 -90t-56.5 -127t-38.5 -145l-157 -713h-117l264 1202h117l-34 -152q20 34 48.5 65t64 53.5t77 36t87.5 13.5q63 0 104.5 -15.5t66 -43.5t34.5 -65.5t10 -81.5
q0 -60 -13 -125.5t-27 -130.5l-166 -756h-117z" />
    <glyph glyph-name="h" unicode="h" horiz-adv-x="891" 
d="M654 0l167 756q13 56 22.5 107.5t9.5 96.5q0 33 -7.5 60.5t-25 47t-47 30.5t-74.5 11q-69 0 -116.5 -34t-80 -90t-53.5 -127t-37 -145l-157 -713h-117l345 1567h116l-111 -509q38 70 102.5 115t156.5 45q66 0 110 -17t69.5 -46.5t36 -70t10.5 -86.5q0 -57 -11 -119.5
t-25 -122.5l-166 -756h-117z" />
    <glyph glyph-name="d" unicode="d" horiz-adv-x="864" 
d="M841 508h1l-5 -21l-3 -13q-22 -104 -52 -193.5t-78.5 -155.5t-120 -104t-176.5 -38q-72 0 -119.5 17.5t-75.5 48.5t-39 73t-11 91q0 55 10.5 114.5t23.5 119.5l67 308q13 59 28 116.5t35.5 109t49 95t68.5 75t94 49.5t126 18q46 0 78.5 -11.5t54.5 -32t33.5 -49
t16.5 -62.5l111 504h117zM434 91q47 0 84.5 16.5t66 45.5t49.5 67.5t37.5 82.5t28 90.5t21.5 91.5v2l54 249q12 54 21.5 108t9.5 102q0 36 -7 66t-24 51.5t-45.5 34t-71.5 12.5q-72 0 -118.5 -30t-77 -79.5t-49 -113.5t-33.5 -133l-67 -308q-15 -68 -26 -124t-11 -99
q0 -65 34 -98.5t124 -33.5z" />
    <glyph glyph-name="t" unicode="t" horiz-adv-x="606" 
d="M630 1595l-86 -391h249l-22 -107h-251l-157 -714q-15 -67 -24 -116t-9 -83q0 -50 24 -70.5t84 -20.5q47 0 89.5 12t64.5 22l-8 -98q-13 -7 -31.5 -15t-41.5 -15t-49 -11.5t-54 -4.5q-56 0 -93.5 11t-60.5 33t-33 54t-10 74q0 46 10 103t25 125l156 714h-120l23 107h121
l86 391h118z" />
    <glyph glyph-name="j" unicode="j" horiz-adv-x="394" 
d="M449 1490q0 35 21.5 58.5t68.5 23.5q35 0 50.5 -13.5t15.5 -36.5q0 -34 -20 -58t-75 -24q-61 0 -61 50zM519 1202l-266 -1212q-21 -96 -44.5 -170t-60 -125t-92 -77.5t-141.5 -26.5q-57 0 -96.5 15.5t-59.5 29.5l35 99q17 -10 54 -23t84 -13q51 0 82.5 15t52.5 49
t36 89.5t33 137.5l267 1212h116z" />
    <glyph glyph-name="ae" unicode="&#xe6;" horiz-adv-x="1401" 
d="M645 0l32 145q-20 -35 -44.5 -65t-55.5 -51.5t-69 -33.5t-85 -12h-1q-69 0 -114 17.5t-71.5 48t-37 71t-10.5 87.5q0 57 11 118.5t25 121.5l67 306q12 55 26.5 111t35 107.5t49 96.5t69 78t94.5 52.5t126 19.5h1q46 0 79.5 -11.5t55 -32.5t33.5 -49.5t16 -62.5l31 140
h113l-29 -130q19 31 43.5 58t55 46.5t67.5 30.5t82 11h1q72 0 119 -16.5t74.5 -45t38 -67t10.5 -81.5q0 -48 -9 -99t-20 -99l-36 -163h-1l-4 -21l-537 -85l-17 -77l-3 -16q-12 -57 -22 -109t-10 -97q0 -34 7.5 -61.5t25.5 -47.5t48.5 -31t75.5 -11q73 0 118.5 23t74 63
t44.5 94t29 116l6 19h113l-5 -20q-10 -47 -22.5 -95t-31 -92.5t-45.5 -83.5t-67 -68t-96 -45.5t-131 -16.5h-1q-44 0 -76 11t-53.5 29.5t-34 44t-18.5 54.5l-27 -124h-113zM463 90q72 0 120 34t80 89.5t52 126.5t36 146l46 210l5 21q13 60 24 119t11 111q0 36 -7 66
t-24.5 51.5t-46.5 34t-73 12.5q-73 0 -119.5 -28t-77 -76.5t-49 -113.5t-34.5 -140l-67 -305q-12 -57 -22 -110t-10 -98q0 -33 7.5 -61t25.5 -47.5t48 -30.5t75 -11zM1204 1112q-49 0 -86.5 -18t-66.5 -47.5t-50 -67t-36 -77.5t-25 -79t-17 -70l-25 -111l422 68l22 100
q9 43 16.5 84t7.5 77q0 31 -7.5 56.5t-26 44.5t-49.5 29.5t-79 10.5z" />
    <glyph glyph-name="Thorn" unicode="&#xde;" horiz-adv-x="899" 
d="M594 1520l-73 -332h187q61 0 110 -11.5t83 -38t52.5 -69.5t18.5 -105q0 -58 -16 -129l-37 -167q-23 -107 -60.5 -176.5t-89.5 -110t-119.5 -56.5t-149.5 -16h-173l-68 -309h-117l334 1520h118zM838 835q12 54 12 96q0 72 -38.5 108.5t-126.5 36.5h-189l-145 -656h173
q60 0 105 12.5t78 42t55.5 77t38.5 116.5z" />
    <glyph glyph-name="semicolon" unicode=";" horiz-adv-x="309" 
d="M84 40q0 43 23 70t74 27q36 0 51 -19.5t15 -48.5q0 -36 -11.5 -71.5t-29 -67.5t-39 -60.5t-41.5 -50.5l-53 29q31 40 47.5 70.5t28.5 65.5q-65 0 -65 56zM321 1115q0 41 22 69t74 28q37 0 52.5 -14.5t15.5 -40.5q0 -98 -101 -98q-33 0 -48 15t-15 41z" />
    <glyph glyph-name="backslash" unicode="\" horiz-adv-x="660" 
d="M428 1599h115l10 -1679h-117z" />
    <glyph glyph-name="oe" unicode="&#x153;" horiz-adv-x="1403" 
d="M1364 406l-4 -20q-10 -47 -23 -95t-32.5 -92.5t-48.5 -84t-70.5 -68.5t-98 -45.5t-131.5 -16.5h-1q-51 0 -90 9t-66.5 25.5t-46 39t-28.5 50.5q-46 -56 -114.5 -90t-170.5 -34q-74 0 -122 18t-76.5 49.5t-39.5 73.5t-11 91q0 55 10 114t23 116l68 309q12 55 27 110.5
t36.5 107t51 96.5t72 78t99.5 52.5t132 19.5h1q51 0 90 -9t66.5 -25.5t45.5 -39.5t29 -51q45 56 114 90.5t171 34.5q76 0 125.5 -17.5t78 -47.5t39.5 -70t11 -85q0 -47 -8 -95t-19 -94l-24 -109l-16 -76l-536 -85l-20 -92q-3 -14 -6 -27t-7 -27q-8 -42 -14.5 -80t-6.5 -72
q0 -33 7.5 -60.5t25.5 -47t48 -30t75 -10.5q72 0 117 22.5t73 62.5t44.5 93t30.5 115l4 19h116zM686 1109q-72 0 -118.5 -28t-76.5 -76t-49 -113t-35 -139l-68 -306q-13 -56 -22.5 -108t-9.5 -97q0 -33 7.5 -60.5t25 -47t47 -30t74.5 -10.5q72 0 118.5 27.5t76.5 75.5
t48.5 113t35.5 139l67 307q13 57 22.5 109t9.5 97q0 33 -7 60t-24.5 46.5t-47 30t-74.5 10.5zM1203 1109q-65 0 -109.5 -22.5t-74.5 -62.5t-49 -94.5t-34 -118.5l-12 -56l-25 -112l416 67l22 100q9 43 17 84t8 77q0 30 -7.5 55.5t-25.5 43.5t-49 28.5t-77 10.5z" />
    <glyph glyph-name="questiondown" unicode="&#xbf;" horiz-adv-x="853" 
d="M131.992 -67.9961q0 98.9941 27.998 177.489t71.4961 144.491q43.4971 65.9961 95.4941 123.492q51.9961 57.4971 100.993 113.993q48.9971 56.4971 87.4951 115.493q38.4971 58.9961 54.4961 128.992l21.999 95.9941h101.994l-20.999 -96.9941
q-17.999 -83.9951 -56.4971 -150.491q-38.4971 -66.4951 -84.9941 -124.992q-46.4971 -58.4961 -95.9941 -112.993q-49.4971 -54.4961 -89.9951 -113.493q-40.4971 -58.9961 -66.4951 -126.492q-25.999 -67.4951 -25.999 -152.49q0 -81.9951 34.998 -125.492
q34.998 -43.498 112.993 -43.498q85.9951 0 140.491 46.9971q54.4971 46.998 76.4951 118.993l40.998 134.992h111.993l-15.999 -73.9961q-14.999 -71.9951 -45.4971 -133.991t-76.9961 -106.994q-46.4971 -44.9971 -109.993 -70.4951q-63.4961 -25.499 -144.491 -25.499
q-117.992 0 -181.988 61.4961q-63.9961 61.4971 -63.9961 195.488zM794.951 1165.93q0 -19.999 -4.99902 -37.498q-5 -17.498 -16.499 -30.998q-11.5 -13.499 -29.998 -20.998q-18.499 -7.5 -44.498 -7.5q-36.9971 0 -52.4961 14.499t-15.499 40.498
q0 97.9941 100.993 97.9941q31.998 0 47.4971 -14.999t15.499 -40.998z" />
    <glyph glyph-name="brokenbar" unicode="&#xa6;" horiz-adv-x="584" 
d="M335 832l170 770h118l-169 -770h-119zM425 698l-172 -780h-118l171 780h119z" />
    <glyph glyph-name="Oslash" unicode="&#xd8;" horiz-adv-x="858" 
d="M767 1536q77 0 127 -19t79.5 -52t41.5 -77.5t12 -95.5t-8.5 -104.5t-20.5 -106.5l-140 -640q-12 -55 -28 -110.5t-39 -106t-54.5 -94.5t-75.5 -76.5t-102 -51t-133 -18.5h-1q-77 0 -127 19.5t-79.5 52.5t-41.5 78t-12 96t8.5 103.5t19.5 105.5l141 641q12 55 28 110
t38.5 106t54.5 94.5t76 76t102 51t133 18.5h1zM742 1426q-72 0 -120 -26.5t-80 -73.5t-53 -110.5t-37 -136.5l-140 -638q-11 -51 -19.5 -98t-8.5 -89q0 -35 8 -64.5t27 -50.5t50.5 -32.5t79.5 -11.5q72 0 120.5 26.5t81 73.5t53 110.5t36.5 137.5l140 637q11 51 19.5 98
t8.5 88q0 35 -8 64.5t-26.5 50.5t-50 33t-78.5 12h-3zM230 -80h-116l846 1679h116z" />
    <glyph glyph-name="germandbls" unicode="&#xdf;" horiz-adv-x="834" 
d="M578 937h58q63 1 105 22t68.5 53t40.5 70.5t23 74.5l7 31q5 20 8.5 43.5t3.5 48.5q0 28 -6.5 54.5t-24 47.5t-48 33.5t-77.5 12.5q-72 0 -120 -28t-80 -76t-52.5 -113t-36.5 -139l-236 -1072h-117l236 1072q12 55 27.5 110.5t38 107t54 96.5t75 78t101.5 52.5t133 19.5h1
q78 0 126.5 -21t76 -54.5t37.5 -75t10 -82.5q0 -33 -4 -62.5t-9 -52.5l-7 -31q-8 -35 -22 -73.5t-38 -76t-60 -70t-88 -53.5q60 -29 83.5 -82t23.5 -120q0 -41 -6.5 -84.5t-17.5 -89.5l-12 -51q-19 -83 -46.5 -165.5t-75.5 -149.5t-123 -108.5t-188 -41.5l24 109
q72 0 120 28t80.5 76t53.5 112.5t39 138.5l11 52q11 48 18.5 91t7.5 80q0 34 -8 61t-26.5 46.5t-50 30.5t-77.5 12h-58z" />
    <glyph glyph-name="Germandbls" unicode="&#x1e9e;" horiz-adv-x="888" 
d="M635 934l330 487h-190h-3q-72 0 -119.5 -28t-80 -76t-53 -113t-36.5 -138l-234 -1066h-118l235 1068q12 55 28 111t38.5 107.5t54 96t75.5 78t101.5 52.5t133.5 19h311l-25 -113l-343 -498q54 -9 89.5 -30t56.5 -51.5t30 -69.5t9 -83q0 -42 -6 -87t-16 -92l-11 -51
q-18 -83 -45.5 -166t-76 -149.5t-124 -108t-188.5 -41.5l24 111q72 0 120 28t80.5 76t53.5 112.5t39 138.5l11 50q11 48 19 91.5t8 80.5q0 34 -8.5 62t-28.5 47t-52.5 29.5t-81.5 10.5h-30z" />
    <glyph glyph-name="zerooldstyle.001" horiz-adv-x="877" 
d="M220 430l74 341q12 55 26.5 109.5t35 104.5t50 92.5t71 74t98 49.5t131.5 18q73 0 121 -17t76.5 -46t39.5 -69.5t11 -86.5q0 -54 -10.5 -112t-23.5 -116l-75 -339q-12 -56 -26 -110.5t-34.5 -104.5t-49.5 -93t-71 -74t-98.5 -49t-131.5 -18q-73 0 -121 17t-76 46.5
t-39 69.5t-11 87q0 53 10 111t23 115zM459 95q72 0 117 25t73.5 70t45.5 107t34 136l58 264q8 32 14 61t11 57l-504 -565q-1 -32 5 -60.5t22.5 -49.5t46 -33t77.5 -12zM682 1108q-72 0 -117 -25.5t-73.5 -70.5t-46 -107.5t-33.5 -135.5l-58 -262q-6 -29 -12.5 -56t-11.5 -53
l503 558q1 31 -5 59t-23 48.5t-47 32.5t-76 12z" />
    <glyph glyph-name="guilsinglleft" unicode="&#x2039;" horiz-adv-x="447" 
d="M292 189l-98 401l274 404h120l-278 -404l101 -401h-119z" />
    <glyph glyph-name="guillemotright" unicode="&#xbb;" horiz-adv-x="693" 
d="M105 189l281 401l-96 404h116l93 -404l-278 -401h-116zM405 189l282 401l-96 404h116l93 -404l-278 -401h-117z" />
    <glyph glyph-name="logicalnot" unicode="&#xac;" horiz-adv-x="831" 
d="M762 650h-511l23 105h615l-79 -359h-104z" />
    <glyph glyph-name="ellipsis" unicode="&#x2026;" horiz-adv-x="1083" 
d="M128 40q0 41 22 69t74 28q37 0 52.5 -14.5t15.5 -40.5q0 -98 -101 -98q-33 0 -48 15t-15 41zM471 40q0 20 5 37.5t16.5 31t30 21t44.5 7.5q36 0 51.5 -14.5t15.5 -40.5q0 -98 -101 -98q-32 0 -47 15t-15 41zM813 40q0 40 21.5 68.5t74.5 28.5q37 0 52 -14.5t15 -40.5
q0 -98 -101 -98q-32 0 -47 15t-15 41z" />
    <glyph glyph-name="Lambda" unicode="&#x39b;" horiz-adv-x="848" 
d="M149 0h-121l627 1520h207l-43 -1520h-120l45 1408h-20z" />
    <glyph glyph-name="Csmall" unicode="&#xf763;" horiz-adv-x="810" 
d="M700 389h116l-2 -11q-10 -43 -22.5 -88.5t-32 -89.5t-48 -83t-70 -68.5t-98 -47t-131.5 -17.5q-74 0 -122 18t-76.5 49.5t-39.5 73.5t-11 91q0 54 10 113t23 117l63 286l25 110q18 74 45.5 142.5t73.5 120.5t114 83t166 31q76 0 125.5 -18t77.5 -48t39 -69.5t11 -83.5
t-7.5 -88t-15.5 -86l-3 -13h-116l3 13q9 37 16 74t7 71q0 29 -7.5 54.5t-25.5 44t-49 29t-79 10.5q-72 0 -118 -28t-76 -76t-49 -112.5t-36 -138.5l-59 -271q-15 -65 -26.5 -122t-13.5 -106q0 -35 6.5 -64t24 -51t47.5 -34t76 -12q71 0 117 23.5t75 62.5t44.5 90.5
t26.5 108.5z" />
    <glyph glyph-name="cacute" unicode="&#x107;" horiz-adv-x="810" 
d="M968 1571l-205 -246h-98l182 246h121zM700 389h116l-2 -11q-10 -43 -22.5 -88.5t-32 -89.5t-48 -83t-70 -68.5t-98 -47t-131.5 -17.5q-74 0 -122 18t-76.5 49.5t-39.5 73.5t-11 91q0 54 10 113t23 117l63 286l25 110q18 74 45.5 142.5t73.5 120.5t114 83t166 31
q76 0 125.5 -18t77.5 -48t39 -69.5t11 -83.5t-7.5 -88t-15.5 -86l-3 -13h-116l3 13q9 37 16 74t7 71q0 29 -7.5 54.5t-25.5 44t-49 29t-79 10.5q-72 0 -118 -28t-76 -76t-49 -112.5t-36 -138.5l-59 -271q-15 -65 -26.5 -122t-13.5 -106q0 -35 6.5 -64t24 -51t47.5 -34
t76 -12q71 0 117 23.5t75 62.5t44.5 90.5t26.5 108.5z" />
    <glyph glyph-name="Alpha" unicode="&#x391;" horiz-adv-x="802" 
d="M639 1521h181l-36 -1521h-120l12 366h-401l-148 -366h-120zM319 473h361l31 939h-11z" />
    <glyph glyph-name="afii10017" unicode="&#x410;" horiz-adv-x="802" 
d="M639 1521h181l-36 -1521h-120l12 366h-401l-148 -366h-120zM319 473h361l31 939h-11z" />
    <glyph glyph-name="ccedilla" unicode="&#xe7;" horiz-adv-x="810" 
d="M242 -203q11 -10 21.5 -17.5t22.5 -13t28 -8t38 -2.5q45 0 71 19t26 51q0 12 -7 20t-18 13.5t-25 8t-28 2.5q-10 0 -19 -1t-17 -3l32 157h78l-21 -89q5 0 11 1q5 1 12.5 1.5t15.5 0.5q16 0 31.5 -6t27.5 -18t19 -29t7 -39q0 -42 -18 -72.5t-48 -50.5t-67.5 -29.5
t-76.5 -9.5q-100 0 -134 59zM700 389h116l-2 -11q-10 -43 -22.5 -88.5t-32 -89.5t-48 -83t-70 -68.5t-98 -47t-131.5 -17.5q-74 0 -122 18t-76.5 49.5t-39.5 73.5t-11 91q0 54 10 113t23 117l63 286l25 110q18 74 45.5 142.5t73.5 120.5t114 83t166 31q76 0 125.5 -18
t77.5 -48t39 -69.5t11 -83.5t-7.5 -88t-15.5 -86l-3 -13h-116l3 13q9 37 16 74t7 71q0 29 -7.5 54.5t-25.5 44t-49 29t-79 10.5q-72 0 -118 -28t-76 -76t-49 -112.5t-36 -138.5l-59 -271q-15 -65 -26.5 -122t-13.5 -106q0 -35 6.5 -64t24 -51t47.5 -34t76 -12q71 0 117 23.5
t75 62.5t44.5 90.5t26.5 108.5z" />
    <glyph glyph-name="ccaron" unicode="&#x10d;" horiz-adv-x="810" 
d="M662 1514l49 -155l121 155h110l-188 -229h-118l-86 229h112zM700 389h116l-2 -11q-10 -43 -22.5 -88.5t-32 -89.5t-48 -83t-70 -68.5t-98 -47t-131.5 -17.5q-74 0 -122 18t-76.5 49.5t-39.5 73.5t-11 91q0 54 10 113t23 117l63 286l25 110q18 74 45.5 142.5t73.5 120.5
t114 83t166 31q76 0 125.5 -18t77.5 -48t39 -69.5t11 -83.5t-7.5 -88t-15.5 -86l-3 -13h-116l3 13q9 37 16 74t7 71q0 29 -7.5 54.5t-25.5 44t-49 29t-79 10.5q-72 0 -118 -28t-76 -76t-49 -112.5t-36 -138.5l-59 -271q-15 -65 -26.5 -122t-13.5 -106q0 -35 6.5 -64t24 -51
t47.5 -34t76 -12q71 0 117 23.5t75 62.5t44.5 90.5t26.5 108.5z" />
    <glyph glyph-name="cdotaccent" unicode="&#x10b;" horiz-adv-x="810" 
d="M641 1385q0 42 22 69.5t75 27.5q36 0 51.5 -14t15.5 -40q0 -98 -101 -98q-32 0 -47.5 14.5t-15.5 40.5zM700 389h116l-2 -11q-10 -43 -22.5 -88.5t-32 -89.5t-48 -83t-70 -68.5t-98 -47t-131.5 -17.5q-74 0 -122 18t-76.5 49.5t-39.5 73.5t-11 91q0 54 10 113t23 117
l63 286l25 110q18 74 45.5 142.5t73.5 120.5t114 83t166 31q76 0 125.5 -18t77.5 -48t39 -69.5t11 -83.5t-7.5 -88t-15.5 -86l-3 -13h-116l3 13q9 37 16 74t7 71q0 29 -7.5 54.5t-25.5 44t-49 29t-79 10.5q-72 0 -118 -28t-76 -76t-49 -112.5t-36 -138.5l-59 -271
q-15 -65 -26.5 -122t-13.5 -106q0 -35 6.5 -64t24 -51t47.5 -34t76 -12q71 0 117 23.5t75 62.5t44.5 90.5t26.5 108.5z" />
    <glyph glyph-name="dollar" unicode="$" horiz-adv-x="871" 
d="M844 374q-17 -83 -47 -150.5t-74 -117t-102 -79.5t-132 -39l-22 -102h-118l22 101q-60 5 -101 22.5t-65.5 44.5t-35 63t-10.5 80q0 41 7.5 87t19.5 97l11 50h116l-10 -43q-10 -45 -15.5 -83t-5.5 -69q0 -36 9 -62.5t29 -44t52.5 -26t79.5 -8.5q60 0 106 20.5t79 57.5
t54.5 87.5t33.5 110.5l2 12q5 27 8 50.5t3 45.5q0 71 -28.5 118t-85.5 85l-127 85q-75 50 -112.5 108.5t-37.5 143.5q0 31 5 65.5t15 75.5l4 18q36 151 121.5 243.5t218.5 110.5l22 102h119l-23 -102q106 -14 152 -75t46 -158q0 -60 -15 -129l-17 -80l-118 1l23 109
q7 34 7 69q0 34 -8.5 63t-27.5 50t-49 32.5t-72 11.5q-59 0 -104 -21.5t-77.5 -58.5t-53 -85.5t-30.5 -103.5l-7 -35q-5 -28 -5 -50q0 -67 32 -119t88 -88l125 -83q75 -49 109 -114.5t34 -153.5q0 -27 -3.5 -56.5t-9.5 -61.5z" />
    <glyph glyph-name="a.end" horiz-adv-x="917" 
d="M647 0l31 140q-39 -69 -99.5 -113t-151.5 -44h-1q-69 0 -113.5 17.5t-71 48t-37 71t-10.5 87.5q0 57 11 118t24 121l68 309q12 55 26.5 110.5t35 107t49 96.5t69 78t95 52t126.5 19q46 0 78.5 -11.5t54 -31.5t33.5 -48.5t17 -61.5l30 137h117l-265 -1202h-116zM468 93
q61 0 104.5 25t74.5 67t51.5 98t36.5 118l91 414q7 35 11 68t4 63q0 35 -7 65t-24.5 51.5t-46.5 34t-72 12.5q-72 0 -118 -28t-76 -76t-49 -112.5t-35 -138.5l-67 -308q-12 -56 -22 -108t-10 -97q0 -33 7.5 -60.5t25 -47t47 -30t74.5 -10.5z" />
    <glyph glyph-name="kgreenlandic" unicode="&#x138;" horiz-adv-x="805" 
d="M517 1201l-120 -545h111l397 546h123l-443 -600l219 -602h-130l-193 545h-108l-120 -545h-117l264 1201h117z" />
    <glyph glyph-name="Ksmall" unicode="&#xf76b;" horiz-adv-x="805" 
d="M517 1201l-120 -545h111l397 546h123l-443 -600l219 -602h-130l-193 545h-108l-120 -545h-117l264 1201h117z" />
    <glyph glyph-name="Vsmall" unicode="&#xf776;" horiz-adv-x="702" 
d="M957 1202l-514 -1202h-185l15 1202h120l-27 -1093h16l455 1093h120z" />
    <glyph glyph-name="Asmall" unicode="&#xf761;" horiz-adv-x="759" 
d="M740 0h-120l7 278h-328l-114 -278h-121l506 1202h193zM342 381h288l20 713h-15z" />
    <glyph glyph-name="mu" unicode="&#xb5;" horiz-adv-x="916" 
d="M1049 1202l-166 -756q-12 -53 -25.5 -108t-33.5 -106t-48 -96.5t-67.5 -79t-93.5 -53t-125 -19.5q-46 0 -80 12t-57 33t-35.5 50.5t-16.5 64.5l-112 -509h-116l344 1567h117l-158 -717q-13 -59 -22.5 -115.5t-9.5 -105.5q0 -38 7 -69t24 -54t44.5 -35.5t69.5 -12.5
q75 0 122.5 29.5t77 78.5t47 112.5t32.5 132.5l166 756h115z" />
    <glyph glyph-name="Beta" unicode="&#x392;" horiz-adv-x="880" 
d="M776 499q4 16 5.5 31.5t1.5 30.5q0 38 -11 70t-32.5 55.5t-53.5 36.5t-73 13h-192l-138 -623h195q46 0 87 8t76 36t63 82.5t48 147.5zM900 1180q9 42 9 80q0 33 -8 60.5t-25.5 48t-46 32t-69.5 11.5h-190l-125 -569h174q113 0 174 61.5t86 177.5zM869 388
q-24 -107 -58.5 -180.5t-84 -119.5t-117 -66t-156.5 -20h-311l334 1518h310q57 0 102.5 -12.5t77.5 -39.5t49 -68.5t17 -99.5q0 -26 -3 -54.5t-11 -60.5l-21 -97q-12 -57 -31.5 -106t-48 -87t-66.5 -64.5t-87 -37.5q67 -15 103.5 -70t36.5 -136q0 -43 -10 -87z" />
    <glyph glyph-name="Epsilon" unicode="&#x395;" horiz-adv-x="745" 
d="M135 0l334 1519l565 1l-25 -112l-448 -1l-125 -570h378l-24 -110h-378l-136 -616h447l-24 -111h-564z" />
    <glyph glyph-name="Osmall" unicode="&#xf76f;" horiz-adv-x="825" 
d="M261 755q12 55 27 111t36.5 107.5t51.5 96t72.5 78t99 52.5t132.5 19q73 0 121 -18t76 -49.5t39.5 -74t11.5 -90.5q0 -55 -10.5 -114t-23.5 -117l-67 -308q-12 -55 -27 -111t-36.5 -107.5t-51 -96t-72 -78t-99.5 -52.5t-132 -19h-1q-74 0 -121.5 18.5t-76 49.5
t-39.5 73.5t-11 90.5q0 55 10 114t23 116zM656 1109q-72 0 -118.5 -28t-76.5 -76t-49 -113t-35 -139l-68 -306q-12 -56 -22 -108t-10 -97q0 -33 7.5 -60.5t25 -47t47.5 -30t75 -10.5q72 0 118 27.5t76 75.5t48 112.5t35 138.5l68 308q13 57 23 109t10 97q0 33 -7.5 60
t-25 46.5t-47 30t-74.5 10.5z" />
    <glyph glyph-name="afii10019" unicode="&#x412;" horiz-adv-x="880" 
d="M776 499q4 16 5.5 31.5t1.5 30.5q0 38 -11 70t-32.5 55.5t-53.5 36.5t-73 13h-192l-138 -623h195q46 0 87 8t76 36t63 82.5t48 147.5zM900 1180q9 42 9 80q0 33 -8 60.5t-25.5 48t-46 32t-69.5 11.5h-190l-125 -569h174q113 0 174 61.5t86 177.5zM869 388
q-24 -107 -58.5 -180.5t-84 -119.5t-117 -66t-156.5 -20h-311l334 1518h310q57 0 102.5 -12.5t77.5 -39.5t49 -68.5t17 -99.5q0 -26 -3 -54.5t-11 -60.5l-21 -97q-12 -57 -31.5 -106t-48 -87t-66.5 -64.5t-87 -37.5q67 -15 103.5 -70t36.5 -136q0 -43 -10 -87z" />
    <glyph glyph-name="Gamma" unicode="&#x393;" horiz-adv-x="698" 
d="M570 1409l-310 -1409h-118l335 1520h556l-25 -111h-438z" />
    <glyph glyph-name="Zeta" unicode="&#x396;" horiz-adv-x="716" 
d="M47 0l23 104l785 1303h-470l24 112h602l-22 -102l-790 -1306h498l-24 -111h-626z" />
    <glyph glyph-name="Eta" unicode="&#x397;" horiz-adv-x="934" 
d="M141 0l335 1520h118l-154 -699h417l154 699h117l-334 -1520h-118l156 710h-416l-156 -710h-119z" />
    <glyph glyph-name="Iota" unicode="&#x399;" horiz-adv-x="402" 
d="M143 0l334 1520h119l-335 -1520h-118z" />
    <glyph glyph-name="Kappa" unicode="&#x39a;" horiz-adv-x="857" 
d="M140 0l335 1520h118l-154 -699h138l455 698h129l-484 -749l180 -770h-128l-174 710h-140l-156 -710h-119z" />
    <glyph glyph-name="Mu" unicode="&#x39c;" horiz-adv-x="1196" 
d="M560 1405l-299 -1405h-118l334 1520h184l29 -1121l521 1121h184l-335 -1520h-118l319 1406l-543 -1169h-128z" />
    <glyph glyph-name="Omicron" unicode="&#x39f;" horiz-adv-x="824" 
d="M766 1536q77 0 127 -19t79.5 -52t41.5 -77.5t12 -95.5t-8.5 -104.5t-20.5 -106.5l-140 -640q-12 -55 -28 -110.5t-39 -106t-54.5 -94.5t-75.5 -76.5t-102 -51t-133 -18.5h-1q-77 0 -127 19.5t-79.5 52.5t-41.5 78t-12 96t8.5 103.5t19.5 105.5l141 641q12 55 28 110
t38.5 106t54.5 94.5t76 76t102 51t133 18.5h1zM741 1426q-72 0 -120 -26.5t-80 -73.5t-53 -110.5t-37 -136.5l-140 -638q-11 -51 -19.5 -98t-8.5 -89q0 -35 8 -64.5t27 -50.5t50.5 -32.5t79.5 -11.5q72 0 120.5 26.5t81 73.5t53 110.5t36.5 137.5l140 637q11 51 19.5 98
t8.5 88q0 35 -8 64.5t-26.5 50.5t-50 33t-78.5 12h-3z" />
    <glyph glyph-name="Rho" unicode="&#x3a1;" horiz-adv-x="915" 
d="M985 959q-23 -107 -60.5 -176t-89.5 -109t-119.5 -56t-149.5 -16h-173l-132 -602h-117l334 1520h304q61 0 110 -11.5t83.5 -38t53 -69t18.5 -104.5q0 -58 -16 -129zM913 1168q12 54 12 95q0 71 -38.5 107.5t-126.5 36.5h-190l-152 -694h172q61 0 106 12.5t78 42
t55.5 76.5t37.5 116z" />
    <glyph glyph-name="Tau" unicode="&#x3a4;" horiz-adv-x="702" 
d="M718 1407l-309 -1407h-118l310 1407h-280l24 112h677l-23 -112h-281z" />
    <glyph glyph-name="Upsilon" unicode="&#x3a5;" horiz-adv-x="731" 
d="M557 608l-134 -608h-117l134 608l-105 911h128l76 -739l404 739h122z" />
    <glyph glyph-name="Chi" unicode="&#x3a7;" horiz-adv-x="836" 
d="M675 0l-113 668l-400 -668h-133l484 792l-125 728h129l103 -611l371 611h128l-451 -731l140 -789h-133z" />
    <glyph glyph-name="Pi" unicode="&#x3a0;" horiz-adv-x="936" 
d="M142 0l335 1520h652l-334 -1520h-118l310 1408h-417l-309 -1408h-119z" />
    <glyph glyph-name="Xi" unicode="&#x39e;" horiz-adv-x="817" 
d="M459 1520l567 1l-24 -111l-567 -1zM377 837h430l-25 -110h-430zM149 111h566l-24 -111h-566z" />
    <glyph glyph-name="registered" unicode="&#xae;" horiz-adv-x="1352" 
d="M623 -201q-104 0 -192 23.5t-151.5 74.5t-99 131.5t-35.5 194.5q0 93 25 205l112 508q37 171 109 289.5t168 193t211.5 108t240.5 33.5h1q105 0 193.5 -23t152 -74t99.5 -131.5t36 -195.5q0 -45 -5.5 -96t-18.5 -108l-112 -507q-38 -171 -110 -290.5t-168.5 -194
t-212.5 -108t-242 -33.5h-1zM650 -104q102 1 196.5 28t173.5 88.5t139 162.5t93 249l112 508q22 98 22 179q0 97 -30 164.5t-82 109t-123.5 60t-153.5 19.5h-3q-102 0 -197 -26.5t-175.5 -88.5t-141 -163t-93.5 -250l-112 -508q-22 -101 -22 -183q0 -96 29 -162.5t81 -107.5
t123.5 -59.5t155.5 -19.5h3h2h3zM403 99l258 1172h281q137 0 196.5 -51.5t59.5 -149.5q0 -26 -3.5 -53.5t-10.5 -59.5l-9 -40q-23 -106 -88.5 -183.5t-159.5 -115.5q24 -15 43 -32.5t32 -39t20 -48.5t7 -62q0 -38 -9 -89l-44 -248h-108l43 237q7 35 7 69q0 49 -14 81.5
t-36 53.5t-49.5 32.5t-53.5 17.5h-146l-108 -491h-108zM1076 958q10 43 10 78q0 39 -12 64.5t-34 40.5t-52.5 21.5t-67.5 6.5h-174l-105 -476h171q98 0 163.5 57.5t91.5 166.5z" />
    <glyph glyph-name="Xsmall" unicode="&#xf778;" horiz-adv-x="766" 
d="M616 0l-119 521l-349 -521h-117l420 625l-140 577h124l111 -480l324 480h115l-392 -577l146 -625h-123z" />
    <glyph glyph-name="Rsmall" unicode="&#xf772;" horiz-adv-x="859" 
d="M137 0l264 1202h291q141 0 202 -53.5t61 -154.5q0 -50 -14 -115l-9 -42q-11 -54 -34 -101t-55.5 -86.5t-73.5 -69.5t-89 -49q25 -17 43.5 -35t30.5 -41.5t18 -53t6 -69.5q0 -17 -1 -36.5t-3 -41.5l-9 -94q-1 -13 -1.5 -25.5t-0.5 -24.5q0 -62 13 -110h-122q-4 20 -6 42.5
t-2 48.5q0 30 3 65l9 95q1 12 1.5 23t0.5 22q0 56 -13 93t-34 59.5t-48 34t-55 17.5h-148l-109 -500h-116zM825 879q9 45 9 78q0 39 -11.5 65.5t-33.5 42t-52.5 22t-67.5 6.5h-176l-107 -483h173q99 0 165 58t92 169z" />
    <glyph glyph-name="ordfeminine" unicode="&#xaa;" horiz-adv-x="680" 
d="M630 784l21 95q-29 -51 -68.5 -81t-95.5 -30q-49 0 -82.5 11t-54 31t-29.5 48.5t-9 63.5q0 45 12 98l44 200q15 67 34 124.5t50.5 100t80.5 67t123 24.5q57 0 83.5 -29t32.5 -78l20 91h108l-162 -736h-108zM522 867q66 0 104 37.5t54 109.5l46 209q8 33 12.5 62.5
t4.5 55.5q0 44 -20.5 70.5t-73.5 26.5q-44 0 -73 -16.5t-48.5 -45t-31.5 -67.5t-22 -85l-31 -142q-7 -33 -11.5 -62.5t-4.5 -54.5q0 -45 20 -71.5t75 -26.5zM282 706h436l-21 -95h-436z" />
    <glyph glyph-name="Delta" unicode="&#x394;" horiz-adv-x="801" 
d="M9 0l627 1520h207l-43 -1520h-791zM175 112h508l42 1296h-20z" />
    <glyph glyph-name="Bsmall" unicode="&#xf762;" horiz-adv-x="873" 
d="M677 1202q140 0 205 -52.5t65 -151.5q0 -54 -18 -118l-2 -7q-26 -98 -81 -162t-134 -98q60 -27 90.5 -80t30.5 -128q0 -37 -7 -75l-1 -7q-15 -79 -44.5 -139t-77.5 -101t-115 -62t-156 -21h-290l264 1202h271zM710 330q10 39 10 75q0 75 -44 114t-124 39h-172l-26 -117
l-72 -332h175q45 0 84.5 10t72 34t56.5 65.5t38 104.5zM811 881q4 20 5.5 37t1.5 33q0 42 -11.5 69t-33 43.5t-52 23t-67.5 6.5h-156l-95 -430h152q100 0 164.5 50t90.5 160z" />
    <glyph glyph-name="Psmall" unicode="&#xf770;" horiz-adv-x="813" 
d="M825 879q10 43 10 78q0 39 -12 65t-34 42t-52.5 22.5t-67.5 6.5h-176l-116 -523h173q99 0 165 58t92 169zM137 0l264 1202h291q141 0 202 -53.5t61 -154.5q0 -50 -14 -115l-17 -82q-18 -81 -56 -144t-92 -106t-122 -65t-145 -22h-156l-100 -460h-116z" />
    <glyph glyph-name="afii10067" unicode="&#x432;" horiz-adv-x="873" 
d="M677 1202q140 0 205 -52.5t65 -151.5q0 -54 -18 -118l-2 -7q-26 -98 -81 -162t-134 -98q60 -27 90.5 -80t30.5 -128q0 -37 -7 -75l-1 -7q-15 -79 -44.5 -139t-77.5 -101t-115 -62t-156 -21h-290l264 1202h271zM710 330q10 39 10 75q0 75 -44 114t-124 39h-172l-26 -117
l-72 -332h175q45 0 84.5 10t72 34t56.5 65.5t38 104.5zM811 881q4 20 5.5 37t1.5 33q0 42 -11.5 69t-33 43.5t-52 23t-67.5 6.5h-156l-95 -430h152q100 0 164.5 50t90.5 160z" />
    <glyph glyph-name="commaaccent" unicode="&#xf6c3;" horiz-adv-x="415" 
d="M105 -146q0 40 20.5 63.5t65.5 23.5q33 0 47 -17t14 -43q0 -33 -10.5 -65t-26.5 -61.5t-35.5 -55t-37.5 -46.5l-48 26q15 19 25.5 35t19 31t14.5 29.5t11 31.5q-59 0 -59 48z" />
    <glyph glyph-name="Kcommaaccent" unicode="&#x136;" horiz-adv-x="857" 
d="M140 0l335 1520h118l-154 -699h138l455 698h129l-484 -749l180 -770h-128l-174 710h-140l-156 -710h-119zM385 -146q0 40 20.5 63.5t65.5 23.5q33 0 47 -17t14 -43q0 -33 -10.5 -65t-26.5 -61.5t-35.5 -55t-37.5 -46.5l-48 26q15 19 25.5 35t19 31t14.5 29.5t11 31.5
q-59 0 -59 48z" />
    <glyph glyph-name="Lcommaaccent" unicode="&#x13b;" horiz-adv-x="707" 
d="M140 0l335 1520h117l-310 -1408h436l-24 -112h-554zM308 -146q0 40 20.5 63.5t65.5 23.5q33 0 47 -17t14 -43q0 -33 -10.5 -65t-26.5 -61.5t-35.5 -55t-37.5 -46.5l-48 26q15 19 25.5 35t19 31t14.5 29.5t11 31.5q-59 0 -59 48z" />
    <glyph glyph-name="daggerdbl" unicode="&#x2021;" horiz-adv-x="922" 
d="M492 403l125 567h-300l24 111h300l96 440h116l-97 -440h301l-24 -111h-301l-124 -567h300l-24 -111h-300l-96 -433h-115l94 433h-299l24 111h300z" />
    <glyph glyph-name="Theta" unicode="&#x398;" horiz-adv-x="858" 
d="M767 1536q77 0 127 -19t79.5 -52t41.5 -77.5t12 -95.5t-8.5 -104.5t-20.5 -106.5l-140 -640q-12 -55 -28 -110.5t-39 -106t-54.5 -94.5t-75.5 -76.5t-102 -51t-133 -18.5h-1q-77 0 -127 19.5t-79.5 52.5t-41.5 78t-12 96t8.5 103.5t19.5 105.5l141 641q12 55 28 110
t38.5 106t54.5 94.5t76 76t102 51t133 18.5h1zM742 1426q-72 0 -120 -26.5t-80 -73.5t-53 -110.5t-37 -136.5l-59 -268h427l60 269q11 51 19.5 98t8.5 88q0 35 -8 64.5t-26.5 50.5t-50 33t-78.5 12h-2h-1zM449 95q2 0 3 -0.5t3 -0.5q70 1 117.5 28.5t79.5 74t52 110
t36 136.5l56 258h-427l-57 -260q-11 -51 -19.5 -98t-8.5 -89q0 -35 8 -64.5t27 -50.5t50.5 -32.5t79.5 -11.5z" />
    <glyph glyph-name="Tsmall" unicode="&#xf774;" horiz-adv-x="599" 
d="M597 1092l-240 -1092h-115l241 1092h-240l24 110h594l-24 -110h-240z" />
    <glyph glyph-name="Ssmall" unicode="&#xf773;" horiz-adv-x="740" 
d="M753 369q0 -82 -26.5 -152.5t-77 -122t-123.5 -81t-167 -29.5q-68 0 -115 16t-76 45.5t-41.5 71t-12.5 92.5q0 33 5 70t13 76h117q-12 -51 -12 -101q0 -33 7 -62t24 -51t45 -34.5t69 -12.5q61 0 107.5 19t77.5 52.5t46.5 79t15.5 97.5q0 57 -27.5 97t-69.5 72.5t-90 62
t-90 66t-69.5 84.5t-27.5 118q0 82 25.5 151t74 119.5t119.5 78.5t162 28q121 0 179.5 -53t58.5 -163q0 -59 -16 -132h-115q5 26 8.5 50t3.5 46q0 66 -32.5 104t-110.5 38q-50 0 -93 -19t-74.5 -51.5t-50 -75.5t-18.5 -91q0 -55 28 -94t70 -72t90.5 -63t90.5 -68t70 -87
t28 -119z" />
    <glyph glyph-name="Ismall" unicode="&#xf769;" horiz-adv-x="390" 
d="M138 0l264 1202h117l-264 -1202h-117z" />
    <glyph glyph-name="Zsmall" unicode="&#xf77a;" horiz-adv-x="695" 
d="M46 0l21 100l691 996h-442l23 106h571l-21 -99l-692 -995h468l-24 -108h-595z" />
    <glyph glyph-name="Iotadieresis" unicode="&#x3aa;" horiz-adv-x="402" 
d="M143 0l334 1520h119l-335 -1520h-118zM401 1707q0 19 4.5 35.5t15 29t26.5 20t40 7.5q32 0 46 -13.5t14 -37.5q0 -92 -91 -92q-29 0 -42 13.5t-13 37.5zM593 1707q0 19 4.5 35.5t15 29t27 20t39.5 7.5q33 0 46.5 -13.5t13.5 -37.5q0 -45 -21.5 -68.5t-69.5 -23.5
q-29 0 -42 13.5t-13 37.5z" />
    <glyph glyph-name="Etatonos" unicode="&#x389;" horiz-adv-x="934" 
d="M141 0l335 1520h118l-154 -699h417l154 699h117l-334 -1520h-118l156 710h-416l-156 -710h-119zM404 1523l-69 -246h-92l45 246h116z" />
    <glyph glyph-name="Iotatonos" unicode="&#x38a;" horiz-adv-x="402" 
d="M143 0l334 1520h119l-335 -1520h-118zM667 1892l-69 -246h-92l45 246h116z" />
    <glyph glyph-name="Epsilontonos" unicode="&#x388;" horiz-adv-x="745" 
d="M135 0l334 1519l565 1l-25 -112l-448 -1l-125 -570h378l-24 -110h-378l-136 -616h447l-24 -111h-564zM397 1524l-69 -246h-92l45 246h116z" />
    <glyph glyph-name="Alphatonos" unicode="&#x386;" horiz-adv-x="802" 
d="M639 1521h181l-36 -1521h-120l12 366h-401l-148 -366h-120zM319 473h361l31 939h-11zM543 1521l-69 -246h-92l45 246h116z" />
    <glyph glyph-name="Phi" unicode="&#x3a6;" horiz-adv-x="1030" 
d="M457 0l27 124q-77 0 -127.5 19t-80.5 51.5t-42 76.5t-12 95q0 49 8.5 101t19.5 104l84 377q12 55 27.5 109.5t38 104t54 92.5t75 74.5t101.5 49.5t133 18l28 124h118l-28 -124q77 0 127.5 -19t80 -51t41.5 -76t12 -94q0 -49 -8.5 -101.5t-19.5 -104.5l-82 -378
q-12 -55 -28 -109.5t-38.5 -104t-54 -92.5t-75.5 -74.5t-101.5 -49.5t-132.5 -18l-27 -124h-118zM369 573q-11 -51 -19 -97t-8 -86q0 -35 8 -63.5t27 -49t51 -31.5t80 -11l231 1051q-72 0 -119.5 -25.5t-79.5 -71t-52.5 -107.5t-36.5 -136zM996 948q11 51 19 96.5t8 85.5
q0 35 -8 63.5t-27 49t-51 32t-80 11.5l-231 -1052q72 0 119.5 26t80 71t52.5 107.5t36 136.5z" />
    <glyph glyph-name="Upsilondieresis" unicode="&#x3ab;" horiz-adv-x="731" 
d="M557 608l-134 -608h-117l134 608l-105 911h128l76 -739l404 739h122zM579 1707q0 19 4.5 35.5t15 29t26.5 20t40 7.5q32 0 46 -13.5t14 -37.5q0 -92 -91 -92q-29 0 -42 13.5t-13 37.5zM771 1707q0 19 4.5 35.5t15 29t27 20t39.5 7.5q33 0 46.5 -13.5t13.5 -37.5
q0 -45 -21.5 -68.5t-69.5 -23.5q-29 0 -42 13.5t-13 37.5z" />
    <glyph glyph-name="Upsilontonos" unicode="&#x38e;" horiz-adv-x="959" 
d="M740 608l-134 -608h-117l134 608l-105 911h128l76 -739l404 739h122zM457 1532l-69 -246h-92l45 246h116z" />
    <glyph glyph-name="Sigma" unicode="&#x3a3;" horiz-adv-x="812" 
d="M665 746l-423 -635h498l-25 -111h-625l22 104l431 657l-139 655l22 104h614l-23 -111h-486l140 -635z" />
    <glyph glyph-name="afii10020" unicode="&#x413;" horiz-adv-x="743" 
d="M570 1409l-310 -1409h-118l335 1520h556l-25 -111h-438z" />
    <glyph glyph-name="lira" unicode="&#x20a4;" horiz-adv-x="871" 
d="M327 858h82q-1 26 -1 52v52q0 54 3 105.5t11 97.5q13 78 41.5 145.5t75.5 117.5t114 78.5t159 28.5q62 0 104.5 -15.5t69 -44.5t38.5 -70t12 -93q0 -65 -15 -141l-116 -1q4 23 6 47.5t2 49.5q0 31 -5.5 59.5t-19 50.5t-37.5 35t-61 13q-137 0 -203.5 -117t-66.5 -338
q0 -18 2 -48.5t4 -63.5h300l-21 -95h-275q0 -40 -3.5 -80t-8.5 -80h253l-21 -96h-250q-28 -124 -76.5 -228.5t-111.5 -169.5q21 5 41 6.5t40 1.5q59 0 114 -9.5t109 -9.5q42 0 74.5 5t70.5 19l10 -99q-32 -16 -74.5 -25.5t-93.5 -9.5q-38 0 -74.5 4t-73 8.5t-74 8.5t-77.5 4
q-18 0 -45 -2.5t-52 -5.5q-29 -4 -60 -7l24 114q36 21 68.5 62t60.5 94t50.5 114.5t36.5 124.5h-136l21 96h132q4 37 5 77t1 83h-103z" />
    <glyph glyph-name="Omega" unicode="&#x3a9;" horiz-adv-x="914" 
d="M139 0l25 112h166l38 185q-34 12 -57 31t-36.5 44.5t-19 56t-5.5 64.5q0 33 4.5 69t11.5 72.5t15 73t16 70.5l65 302q12 55 28 110t39 106t54.5 94.5t75.5 76t102 51t134 18.5h1q77 0 127 -19t79.5 -52t41.5 -77.5t12 -95.5t-9 -104t-20 -106l-66 -304q-16 -71 -34 -147
t-48.5 -143t-79 -118.5t-124.5 -73.5l-42 -184h166l-24 -112h-271l72 331l13 62q71 0 113.5 33t68 87t40.5 123.5t32 143.5l65 300q11 51 19.5 98t8.5 89q0 35 -8 64.5t-27 50.5t-50.5 32.5t-79.5 11.5q-72 0 -120.5 -26.5t-81 -73.5t-53 -110.5t-36.5 -137.5l-65 -299
q-15 -69 -31.5 -136t-16.5 -122q0 -29 6 -52.5t21 -40t40 -26t63 -9.5l-24 -111h-1l-61 -282h-272z" />
    <glyph glyph-name="Psi" unicode="&#x3a8;" horiz-adv-x="1031" 
d="M457 0l90 411q-77 0 -127.5 18.5t-80 51t-41.5 76.5t-12 95q0 49 8.5 101.5t19.5 105.5l146 662l117 -2l-145 -659q-11 -51 -19 -96.5t-8 -85.5q0 -35 8 -63.5t27 -49t51.5 -32t80.5 -11.5l219 998h118l-220 -998q72 0 119.5 25.5t80 70.5t52.5 107t36 136l146 660l118 1
l-146 -663q-18 -83 -45 -163t-75 -143.5t-123 -102.5t-188 -39l-90 -411h-117z" />
    <glyph glyph-name="Omicrontonos" unicode="&#x38c;" horiz-adv-x="824" 
d="M766 1536q77 0 127 -19t79.5 -52t41.5 -77.5t12 -95.5t-8.5 -104.5t-20.5 -106.5l-140 -640q-12 -55 -28 -110.5t-39 -106t-54.5 -94.5t-75.5 -76.5t-102 -51t-133 -18.5h-1q-77 0 -127 19.5t-79.5 52.5t-41.5 78t-12 96t8.5 103.5t19.5 105.5l141 641q12 55 28 110
t38.5 106t54.5 94.5t76 76t102 51t133 18.5h1zM741 1426q-72 0 -120 -26.5t-80 -73.5t-53 -110.5t-37 -136.5l-140 -638q-11 -51 -19.5 -98t-8.5 -89q0 -35 8 -64.5t27 -50.5t50.5 -32.5t79.5 -11.5q72 0 120.5 26.5t81 73.5t53 110.5t36.5 137.5l140 637q11 51 19.5 98
t8.5 88q0 35 -8 64.5t-26.5 50.5t-50 33t-78.5 12h-3zM427 1537l-69 -246h-92l45 246h116z" />
    <glyph glyph-name="afii10022" unicode="&#x415;" horiz-adv-x="745" 
d="M135 0l334 1519l565 1l-25 -112l-448 -1l-125 -570h378l-24 -110h-378l-136 -616h447l-24 -111h-564z" />
    <glyph glyph-name="afii10028" unicode="&#x41a;" horiz-adv-x="857" 
d="M140 0l335 1520h118l-154 -699h138l455 698h129l-484 -749l180 -770h-128l-174 710h-140l-156 -710h-119z" />
    <glyph glyph-name="afii10030" unicode="&#x41c;" horiz-adv-x="1196" 
d="M560 1405l-299 -1405h-118l334 1520h184l29 -1121l521 1121h184l-335 -1520h-118l319 1406l-543 -1169h-128z" />
    <glyph glyph-name="afii10031" unicode="&#x41d;" horiz-adv-x="934" 
d="M141 0l335 1520h118l-154 -699h417l154 699h117l-334 -1520h-118l156 710h-416l-156 -710h-119z" />
    <glyph glyph-name="afii10032" unicode="&#x41e;" horiz-adv-x="858" 
d="M767 1536q77 0 127 -19t79.5 -52t41.5 -77.5t12 -95.5t-8.5 -104.5t-20.5 -106.5l-140 -640q-12 -55 -28 -110.5t-39 -106t-54.5 -94.5t-75.5 -76.5t-102 -51t-133 -18.5h-1q-77 0 -127 19.5t-79.5 52.5t-41.5 78t-12 96t8.5 103.5t19.5 105.5l141 641q12 55 28 110
t38.5 106t54.5 94.5t76 76t102 51t133 18.5h1zM742 1426q-72 0 -120 -26.5t-80 -73.5t-53 -110.5t-37 -136.5l-140 -638q-11 -51 -19.5 -98t-8.5 -89q0 -35 8 -64.5t27 -50.5t50.5 -32.5t79.5 -11.5q72 0 120.5 26.5t81 73.5t53 110.5t36.5 137.5l140 637q11 51 19.5 98
t8.5 88q0 35 -8 64.5t-26.5 50.5t-50 33t-78.5 12h-3z" />
    <glyph glyph-name="afii10033" unicode="&#x41f;" horiz-adv-x="934" 
d="M142 0l335 1520h652l-334 -1520h-118l310 1408h-417l-309 -1408h-119z" />
    <glyph glyph-name="afii10034" unicode="&#x420;" horiz-adv-x="875" 
d="M985 959q-23 -107 -60.5 -176t-89.5 -109t-119.5 -56t-149.5 -16h-173l-132 -602h-117l334 1520h304q61 0 110 -11.5t83.5 -38t53 -69t18.5 -104.5q0 -58 -16 -129zM913 1168q12 54 12 95q0 71 -38.5 107.5t-126.5 36.5h-190l-152 -694h172q61 0 106 12.5t78 42
t55.5 76.5t37.5 116z" />
    <glyph glyph-name="afii10035" unicode="&#x421;" horiz-adv-x="836" 
d="M857 442l-7 -31q-9 -47 -23.5 -97t-36.5 -97.5t-54 -90t-76.5 -74t-102.5 -50t-133 -18.5q-77 0 -127 19.5t-79.5 52.5t-41.5 78t-12 96t8.5 103.5t19.5 105.5l141 641q12 55 28 110t39 105.5t54.5 94.5t75.5 76t101.5 51t132.5 19h1q78 0 129 -20t81 -54t42 -78t12 -93
q0 -46 -7.5 -92t-18.5 -89l-7 -31h-117l7 30q11 42 17.5 81t6.5 74q0 36 -8.5 65.5t-28 51t-52 33.5t-80.5 12q-72 0 -120 -26.5t-80 -73.5t-52.5 -110.5t-36.5 -137.5l-141 -637q-11 -51 -19 -98t-8 -89q0 -36 8 -65t26.5 -50t50 -32.5t79.5 -11.5q69 0 116.5 24t80 67
t53 100.5t34.5 125.5l6 30h119z" />
    <glyph glyph-name="afii10036" unicode="&#x422;" horiz-adv-x="702" 
d="M718 1407l-309 -1407h-118l310 1407h-280l24 112h677l-23 -112h-281z" />
    <glyph glyph-name="afii10038" unicode="&#x424;" horiz-adv-x="1030" 
d="M457 0l27 124q-77 0 -127.5 19t-80.5 51.5t-42 76.5t-12 95q0 49 8.5 101t19.5 104l84 377q12 55 27.5 109.5t38 104t54 92.5t75 74.5t101.5 49.5t133 18l28 124h118l-28 -124q77 0 127.5 -19t80 -51t41.5 -76t12 -94q0 -49 -8.5 -101.5t-19.5 -104.5l-82 -378
q-12 -55 -28 -109.5t-38.5 -104t-54 -92.5t-75.5 -74.5t-101.5 -49.5t-132.5 -18l-27 -124h-118zM369 573q-11 -51 -19 -97t-8 -86q0 -35 8 -63.5t27 -49t51 -31.5t80 -11l231 1051q-72 0 -119.5 -25.5t-79.5 -71t-52.5 -107.5t-36.5 -136zM996 948q11 51 19 96.5t8 85.5
q0 35 -8 63.5t-27 49t-51 32t-80 11.5l-231 -1052q72 0 119.5 26t80 71t52.5 107.5t36 136.5z" />
    <glyph glyph-name="afii10039" unicode="&#x425;" horiz-adv-x="834" 
d="M673 0l-113 668l-400 -668h-133l484 792l-125 728h129l103 -611l371 611h128l-451 -731l140 -789h-133z" />
    <glyph glyph-name="afii10023" unicode="&#x401;" horiz-adv-x="745" 
d="M135 0l334 1519l565 1l-25 -112l-448 -1l-125 -570h378l-24 -110h-378l-136 -616h447l-24 -111h-564zM620 1707q0 19 4.5 35.5t15 29t26.5 20t40 7.5q32 0 46 -13.5t14 -37.5q0 -92 -91 -92q-29 0 -42 13.5t-13 37.5zM812 1707q0 19 4.5 35.5t15 29t27 20t39.5 7.5
q33 0 46.5 -13.5t13.5 -37.5q0 -45 -21.5 -68.5t-69.5 -23.5q-29 0 -42 13.5t-13 37.5z" />
    <glyph glyph-name="afii10054" unicode="&#x405;" horiz-adv-x="895" 
d="M851 374q-19 -91 -53 -163.5t-85 -122.5t-120 -77t-157 -27q-78 0 -129.5 15t-82.5 43t-43.5 67.5t-12.5 88.5q0 41 7 86.5t18 96.5l13 61h117l-12 -54q-11 -45 -16.5 -83t-5.5 -69q0 -36 9 -62.5t29 -44t52.5 -26t79.5 -8.5q60 0 106 20.5t79 57.5t55 87.5t34 110.5
l2 12q10 50 10 94q0 72 -28.5 119.5t-85.5 85.5l-127 85q-37 25 -65 52t-46.5 57.5t-28 65.5t-9.5 78q0 63 19 140l4 18q20 84 55.5 150.5t86 112.5t116 70.5t145.5 24.5q68 0 117 -17t80 -48.5t45.5 -75.5t14.5 -99q0 -59 -15 -126l-19 -91h-117l24 121q7 32 7 66t-9 63.5
t-28.5 51t-50 33.5t-73.5 12q-59 0 -104 -21.5t-77.5 -58.5t-53 -85.5t-30.5 -103.5l-7 -35q-2 -14 -3.5 -26.5t-1.5 -24.5q0 -67 32.5 -118.5t87.5 -87.5l126 -83q74 -49 108 -114.5t34 -152.5q0 -57 -13 -119z" />
    <glyph glyph-name="omicron" unicode="&#x3bf;" horiz-adv-x="825" 
d="M261 755q12 55 27 111t36.5 107.5t51.5 96t72.5 78t99 52.5t132.5 19q73 0 121 -18t76 -49.5t39.5 -74t11.5 -90.5q0 -55 -10.5 -114t-23.5 -117l-67 -308q-12 -55 -27 -111t-36.5 -107.5t-51 -96t-72 -78t-99.5 -52.5t-132 -19h-1q-74 0 -121.5 18.5t-76 49.5
t-39.5 73.5t-11 90.5q0 55 10 114t23 116zM656 1109q-72 0 -118.5 -28t-76.5 -76t-49 -113t-35 -139l-68 -306q-12 -56 -22 -108t-10 -97q0 -33 7.5 -60.5t25 -47t47.5 -30t75 -10.5q72 0 118 27.5t76 75.5t48 112.5t35 138.5l68 308q13 57 23 109t10 97q0 33 -7.5 60
t-25 46.5t-47 30t-74.5 10.5z" />
    <glyph glyph-name="rho" unicode="&#x3c1;" horiz-adv-x="869" 
d="M57 -365l213 970l21 95l12 55q12 55 27 111t36.5 107.5t51.5 96t72.5 78t99.5 52.5t133 19q72 0 119.5 -19.5t75 -52.5t39 -77t11.5 -94q0 -53 -9.5 -109.5t-21.5 -111.5l-68 -307q-12 -55 -26.5 -110.5t-35 -107t-49 -96.5t-69 -78t-95 -52.5t-126.5 -19.5h-1
q-46 0 -78.5 11.5t-54.5 32t-34 49t-16 62.5l-110 -504h-117zM387 605l-47 -212q-7 -36 -11.5 -70.5t-4.5 -66.5q0 -35 7 -65t24.5 -51.5t46 -33.5t72.5 -12q72 0 118.5 27.5t76.5 75.5t48.5 113t35.5 139l67 307q13 57 22.5 108.5t9.5 96.5q0 33 -7.5 60t-25 46.5t-47 30.5
t-74.5 11q-72 0 -118.5 -28t-76.5 -76t-48.5 -112.5t-34.5 -138.5l-32 -149h-1z" />
    <glyph glyph-name="afii10024" unicode="&#x416;" horiz-adv-x="1372" 
d="M627 0l163 711h-136l-493 -711h-133l531 770l-152 749h117l141 -699h149l162 700h115l-162 -700h140l465 699h125l-496 -749l179 -770h-118l-168 711h-151l-163 -711h-115z" />
    <glyph glyph-name="afii10049" unicode="&#x42f;" horiz-adv-x="887" 
d="M606 0l146 641h-165q-30 0 -67 -15t-73.5 -46t-69.5 -79.5t-56 -115.5l-77 -221q-17 -49 -38 -91t-40 -73h-122q23 35 46.5 77.5t39.5 89.5l76 221q19 55 40.5 98t47.5 77t58.5 60.5t73.5 49.5q-63 32 -96.5 90t-33.5 136q0 44 10 88l33 145q24 106 59 180t85.5 120
t118 66.5t156.5 20.5h310l-348 -1519h-114zM421 987q-7 -31 -7 -63q0 -38 11 -70t32.5 -55t53.5 -36t73 -13h193l152 660h-196q-46 0 -87 -7.5t-76.5 -36t-64.5 -83.5t-51 -150z" />
    <glyph glyph-name="afii10055" unicode="&#x406;" horiz-adv-x="402" 
d="M143 0l334 1520h119l-335 -1520h-118z" />
    <glyph glyph-name="afii10056" unicode="&#x407;" horiz-adv-x="402" 
d="M143 0l334 1520h119l-335 -1520h-118zM401 1707q0 19 4.5 35.5t15 29t26.5 20t40 7.5q32 0 46 -13.5t14 -37.5q0 -92 -91 -92q-29 0 -42 13.5t-13 37.5zM593 1707q0 19 4.5 35.5t15 29t27 20t39.5 7.5q33 0 46.5 -13.5t13.5 -37.5q0 -45 -21.5 -68.5t-69.5 -23.5
q-29 0 -42 13.5t-13 37.5z" />
    <glyph glyph-name="afii10057" unicode="&#x408;" horiz-adv-x="604" 
d="M815 1519l-251 -1140q-19 -84 -42.5 -156.5t-65.5 -125t-108.5 -82.5t-170.5 -30h-1q-62 0 -99.5 11t-64.5 38l63 97q12 -9 23.5 -15.5t25.5 -11t32 -6.5t42 -2h3h3q53 0 90.5 12t65.5 44t49 89t41 147l249 1131h116z" />
    <glyph glyph-name="afii10018" unicode="&#x411;" horiz-adv-x="881" 
d="M849 352q-22 -99 -60 -166.5t-89 -109t-115 -59t-139 -17.5h-305l335 1520h553l-25 -111h-436l-108 -491h173q66 0 118 -10t88 -34.5t55 -66t19 -104.5q0 -61 -18 -143zM776 560q7 32 10.5 58t3.5 49q0 77 -43.5 109t-137.5 32h-173l-153 -694h188q57 0 100 15.5
t74.5 45.5t52 74.5t33.5 102.5z" />
    <glyph glyph-name="afii10046" unicode="&#x42c;" horiz-adv-x="893" 
d="M852 352q-23 -99 -61.5 -166.5t-90 -109t-115 -59t-138.5 -17.5h-303l349 1520h114l-140 -604h174q66 0 117.5 -10t87.5 -34t54.5 -64.5t18.5 -101.5q0 -59 -20 -147zM784 559q8 33 12 61t4 51q0 76 -44 107t-139 31h-174l-160 -699h190q58 0 101 15.5t74.5 46t53 76
t35.5 104.5z" />
    <glyph glyph-name="kappa" unicode="&#x3ba;" horiz-adv-x="839" 
d="M523 1201l-120 -545h111l397 546h123l-443 -600l219 -602h-130l-193 545h-108l-120 -545h-117l264 1201h117z" />
    <glyph glyph-name="nu" unicode="&#x3bd;" horiz-adv-x="702" 
d="M957 1202l-514 -1202h-185l15 1202h120l-27 -1093h16l455 1093h120z" />
    <glyph glyph-name="eta" unicode="&#x3b7;" horiz-adv-x="891" 
d="M574 -365l247 1121q13 58 24 112.5t11 100.5q0 31 -7 57t-24.5 44.5t-46 28.5t-71.5 10q-69 0 -117.5 -34t-82.5 -90t-56.5 -127t-38.5 -145l-157 -713h-117l264 1202h117l-34 -152q20 34 48.5 65t64 53.5t77 36t87.5 13.5q63 0 104.5 -15.5t66 -43.5t34.5 -65.5
t10 -81.5q0 -60 -13 -125.5t-27 -130.5l-247 -1121h-116z" />
    <glyph glyph-name="theta" unicode="&#x3b8;" horiz-adv-x="825" 
d="M190 430l144 658q12 55 26.5 109.5t35 104.5t49.5 92.5t71 74t98 49.5t132 18q73 0 121 -17t76.5 -46t39.5 -69.5t11 -86.5q0 -53 -10.5 -111t-23.5 -116l-144 -658q-12 -55 -26.5 -110t-35 -104.5t-49.5 -92.5t-71 -74t-98.5 -49t-131.5 -18q-73 0 -121 17t-76 46.5
t-39 69.5t-11 87q0 53 10 111t23 115zM721 1426q-71 0 -116 -25.5t-73.5 -70.5t-46 -107t-33.5 -136l-61 -276h391l61 277q13 57 23 108t10 93q0 31 -7.5 56.5t-25 43.5t-47.5 27.5t-75 9.5zM429 95q72 0 117 25t73.5 70t45.5 107t34 136l59 268h-391l-59 -269
q-13 -57 -23 -108t-10 -93q0 -31 7.5 -56t25 -43t47 -27.5t74.5 -9.5z" />
    <glyph glyph-name="beta" unicode="&#x3b2;" horiz-adv-x="865" 
d="M857 445q-29 -127 -64.5 -215t-85 -142.5t-116.5 -79t-158 -24.5h-32l25 108h31q50 0 91.5 13t75 46t60 91t47.5 148l27 115q12 52 12 89q0 45 -14.5 72t-39 41.5t-56 19t-65.5 4.5h-186l-252 -1095h-115l351 1526q19 82 47 151t72.5 118.5t110 77t158.5 27.5
q122 0 181.5 -52t59.5 -170q0 -75 -24 -178q-20 -87 -46 -149.5t-56.5 -104t-66 -65t-75.5 -33.5q63 -8 95 -47.5t32 -120.5q0 -69 -24 -171zM433 837h187q40 0 78 11.5t71 39t59 72.5t41 112l18 75q9 41 14 74.5t5 62.5q0 76 -36 110.5t-116 34.5q-53 0 -92 -15t-67.5 -47
t-49 -81.5t-36.5 -118.5z" />
    <glyph glyph-name="c" unicode="c" horiz-adv-x="810" 
d="M700 389h116l-2 -11q-10 -43 -22.5 -88.5t-32 -89.5t-48 -83t-70 -68.5t-98 -47t-131.5 -17.5q-74 0 -122 18t-76.5 49.5t-39.5 73.5t-11 91q0 54 10 113t23 117l63 286l25 110q18 74 45.5 142.5t73.5 120.5t114 83t166 31q76 0 125.5 -18t77.5 -48t39 -69.5t11 -83.5
t-7.5 -88t-15.5 -86l-3 -13h-116l3 13q9 37 16 74t7 71q0 29 -7.5 54.5t-25.5 44t-49 29t-79 10.5q-72 0 -118 -28t-76 -76t-49 -112.5t-36 -138.5l-59 -271q-15 -65 -26.5 -122t-13.5 -106q0 -35 6.5 -64t24 -51t47.5 -34t76 -12q71 0 117 23.5t75 62.5t44.5 90.5
t26.5 108.5z" />
    <glyph glyph-name="afii10029" unicode="&#x41b;" horiz-adv-x="989" 
d="M729 0l310 1408h-418l-214 -976q-27 -124 -57.5 -209.5t-73.5 -139t-104 -77t-149 -23.5l24 112q57 0 94 18t63 58t45 104.5t40 157.5l239 1088l103 -1h550l-334 -1520h-118z" />
    <glyph glyph-name="afii10053" unicode="&#x404;" horiz-adv-x="914" 
d="M908 1079l7 30q11 42 17.5 81t6.5 74q0 36 -8.5 65.5t-28 51t-52 33.5t-80.5 12q-72 0 -120 -26.5t-80 -73.5t-52.5 -110.5t-36.5 -137.5l-53 -241h396l-25 -110h-396l-63 -286q-11 -51 -19 -98t-8 -89q0 -36 8 -65t26.5 -50t50 -32.5t79.5 -11.5q69 0 116.5 24t80 67
t53 100.5t34.5 125.5l6 30h119l-7 -31q-9 -47 -23.5 -97t-36.5 -97.5t-54 -90t-76.5 -74t-102.5 -50t-133 -18.5q-77 0 -127 19.5t-79.5 52.5t-41.5 77.5t-12 95.5t8.5 104.5t20.5 106.5l140 640q12 55 28 110t39 105.5t54.5 94.5t75.5 76t101.5 51t132.5 19h1h1
q78 0 129 -20t80.5 -54t41.5 -78t12 -93q0 -45 -7.5 -91.5t-18.5 -89.5l-7 -31h-117z" />
    <glyph glyph-name="afii10047" unicode="&#x42d;" horiz-adv-x="914" 
d="M315 1080l7 29q10 45 24.5 94.5t37 97t54 90t76 75t103 51.5t134.5 19q75 0 124.5 -18.5t78.5 -51t41 -76t12 -94.5t-9 -106t-22 -111l-147 -639q-12 -53 -28 -107.5t-38.5 -105t-54.5 -95t-76 -77.5t-103 -52t-135 -19q-77 0 -126.5 19.5t-79 52.5t-41 76.5t-11.5 92.5
q0 46 7.5 93.5t18.5 92.5l6 30h115l-6 -29q-11 -45 -17 -85t-6 -75q0 -36 8 -65.5t27.5 -50.5t50.5 -32.5t78 -11.5q76 0 126 28t82.5 76t52 111.5t35.5 134.5l66 286h-397l25 108h397l55 241q13 54 21 102t8 90q0 37 -8 66.5t-27 50.5t-50.5 32t-77.5 11q-72 0 -121 -26
t-81.5 -69.5t-52 -102t-34.5 -122.5l-7 -29h-115z" />
    <glyph glyph-name="afii10085" unicode="&#x443;" horiz-adv-x="697" 
d="M514 167l-102 -255q-45 -111 -113.5 -184t-147.5 -109l-38 75q54 29 106 86.5t86 142.5l100 249zM953 1202l-514 -1202h-185l15 1202h120l-27 -1093h16l455 1093h120z" />
    <glyph glyph-name="afii10048" unicode="&#x42e;" horiz-adv-x="1277" 
d="M142 0l335 1520h118l-156 -709h225l60 269q12 55 28 110t38.5 106t54.5 94.5t76 76t102 51t133 18.5h1q77 0 127 -19t79.5 -52t41.5 -77.5t12 -95.5t-8.5 -104.5t-20.5 -106.5l-140 -640q-12 -55 -28 -110.5t-39 -106t-54.5 -94.5t-75.5 -76.5t-102.5 -51t-133.5 -18.5
h-1q-77 0 -127 19t-79.5 52.5t-41.5 78t-12 95.5t8.5 104.5t20.5 106.5l57 261h-225l-154 -701h-119zM1130 1426q-71 0 -119 -27t-80.5 -74t-53 -110.5t-36.5 -136.5l-140 -637q-11 -51 -19 -98t-8 -88q0 -36 8 -65.5t26.5 -50.5t50.5 -32.5t80 -11.5q2 0 3 -0.5t3 -0.5
q70 1 117.5 28.5t79 74t52 109.5t36.5 136l140 638q11 51 19 97.5t8 87.5q0 35 -7.5 64.5t-26.5 51t-50 33.5t-78 12h-3h-2z" />
    <glyph glyph-name="afii10040" unicode="&#x426;" horiz-adv-x="952" 
d="M1130 1520l-310 -1408h117l-62 -287h-118l38 175h-652l335 1520h118l-310 -1408h416l311 1408h117z" />
    <glyph glyph-name="afii10070" unicode="&#x435;" horiz-adv-x="822" 
d="M819 406l-4 -20q-10 -47 -23 -95t-32.5 -92.5t-48.5 -84t-70.5 -68.5t-98 -45.5t-131.5 -16.5q-74 0 -122 18t-76.5 49.5t-40 74t-11.5 90.5q0 55 10.5 114t23.5 116l68 309q12 55 26.5 111t36 107.5t51.5 96t72.5 78t99.5 52.5t133 19t125 -18t77.5 -48t39.5 -69.5
t11 -84.5q0 -46 -8 -94.5t-19 -94.5l-36 -164h-1l-4 -21l-537 -85l-20 -93q-12 -56 -22 -107.5t-10 -96.5q0 -33 7.5 -60.5t25 -47t47.5 -30.5t75 -11h3q71 0 115.5 23t72.5 62.5t44.5 93t30.5 114.5l4 19h116zM657 1109q-72 0 -118.5 -28t-76.5 -76t-49 -112.5t-35 -138.5
l-25 -111l417 68l22 99q9 43 17 84t8 77q0 30 -7.5 55.5t-25.5 43.5t-49 28.5t-78 10.5z" />
    <glyph glyph-name="afii10071" unicode="&#x451;" horiz-adv-x="822" 
d="M819 406l-4 -20q-10 -47 -23 -95t-32.5 -92.5t-48.5 -84t-70.5 -68.5t-98 -45.5t-131.5 -16.5q-74 0 -122 18t-76.5 49.5t-40 74t-11.5 90.5q0 55 10.5 114t23.5 116l68 309q12 55 26.5 111t36 107.5t51.5 96t72.5 78t99.5 52.5t133 19t125 -18t77.5 -48t39.5 -69.5
t11 -84.5q0 -46 -8 -94.5t-19 -94.5l-36 -164h-1l-4 -21l-537 -85l-20 -93q-12 -56 -22 -107.5t-10 -96.5q0 -33 7.5 -60.5t25 -47t47.5 -30.5t75 -11h3q71 0 115.5 23t72.5 62.5t44.5 93t30.5 114.5l4 19h116zM657 1109q-72 0 -118.5 -28t-76.5 -76t-49 -112.5t-35 -138.5
l-25 -111l417 68l22 99q9 43 17 84t8 77q0 30 -7.5 55.5t-25.5 43.5t-49 28.5t-78 10.5zM554 1389q0 19 4.5 35.5t15 29t26.5 20t40 7.5q32 0 46 -13.5t14 -37.5q0 -92 -91 -92q-29 0 -42 13.5t-13 37.5zM746 1389q0 19 4.5 35.5t15 29t27 20t39.5 7.5q33 0 46.5 -13.5
t13.5 -37.5q0 -45 -21.5 -68.5t-69.5 -23.5q-29 0 -42 13.5t-13 37.5z" />
    <glyph glyph-name="uni2206" unicode="&#x2206;" horiz-adv-x="850" 
d="M197 112h480l-8 -112h-640l628 1520h206l-42 -1520h-121l44 1382h-28z" />
    <glyph glyph-name="Ohm" unicode="&#x2126;" horiz-adv-x="911" 
d="M138 0l24 112h166l39 184q-34 12 -57 31t-36.5 44.5t-19.5 56.5t-6 65q0 67 16 141.5t31 143.5l66 302q12 55 28 110t38.5 106t54.5 94.5t76 76t102 51t133 18.5h1q77 0 127 -19t79.5 -52t41.5 -77.5t12 -95.5t-8.5 -104t-20.5 -106l-66 -304q-10 -48 -21 -98t-26 -98.5
t-34.5 -93.5t-48 -82.5t-67 -66t-89.5 -43.5l-41 -184h166l-24 -112h-272l80 367l6 26q47 0 81 15t58.5 41.5t41.5 63.5t29.5 80t22 90.5t20.5 96.5l66 300q11 51 19 98t8 89q0 36 -8 65t-26.5 50t-50 32.5t-79.5 11.5h-1q-72 0 -120 -26.5t-80.5 -73.5t-53.5 -110.5
t-37 -137.5l-65 -299q-15 -69 -31.5 -136t-16.5 -122q0 -29 6 -52.5t21 -40t40 -26t63 -9.5l-24 -111h-1l-61 -282h-271z" />
    <glyph glyph-name="summation" unicode="&#x2211;" horiz-adv-x="862" 
d="M698 746l-424 -635h498l-24 -111h-626l23 104l431 656l-140 656l23 104h613l-23 -111h-486l141 -635z" />
    <glyph glyph-name="iota" unicode="&#x3b9;" horiz-adv-x="390" 
d="M452 1490q0 35 21.5 58.5t68.5 23.5q35 0 50 -13.5t15 -36.5q0 -34 -19.5 -58t-74.5 -24q-61 0 -61 50zM138 0l265 1202h116l-264 -1202h-117z" />
    <glyph glyph-name="afii10065" unicode="&#x430;" horiz-adv-x="867" 
d="M619 0l28 129q-38 -65 -97 -105.5t-151 -40.5q-69 0 -113.5 17t-71 47t-37 70.5t-10.5 87.5q0 57 11 119t24 122l67 309q13 59 27.5 116t35 108.5t49 95t68.5 75.5t94 50t126 18h1q45 0 77.5 -11t54.5 -31t34.5 -47t17.5 -60l29 133h117l-265 -1202h-116zM435 91
q65 0 110.5 28t77.5 74.5t53 107.5t37 128l61 275l3 15q13 60 24.5 119t11.5 111q0 35 -7 64.5t-24.5 51t-46 33.5t-71.5 12q-72 0 -119 -31t-78 -81.5t-49.5 -114t-32.5 -129.5l-67 -308q-14 -66 -25.5 -121.5t-11.5 -100.5q0 -32 7.5 -56.5t25.5 -41.5t47.5 -26t73.5 -9z
" />
    <glyph glyph-name="a.alt" horiz-adv-x="916" 
d="M647 0l31 142q-38 -69 -98.5 -114t-152.5 -45q-66 0 -110.5 19t-71.5 51.5t-38.5 76t-11.5 93.5v18t1 18q2 54 14 104.5t24 105.5l58 263q6 28 12 55t13 55q18 74 44.5 142t70 120t108 83t157.5 31q46 0 78.5 -11.5t54.5 -32t34 -49t17 -61.5l31 138h115l-264 -1202h-116
zM467 93q48 0 85.5 16t65.5 43.5t49 64.5t36 80q11 33 21 68t19 72l80 364q7 37 11.5 73.5t4.5 70.5q0 35 -6.5 65t-23.5 52t-45.5 34.5t-72.5 12.5q-45 0 -79.5 -11.5t-61 -32t-45.5 -49t-34 -62.5q-20 -49 -35 -106t-29 -120l-55 -256q-14 -62 -25.5 -120t-11.5 -106
q0 -40 10 -69q12 -37 44.5 -60.5t97.5 -23.5z" />
    <glyph glyph-name="alpha" unicode="&#x3b1;" horiz-adv-x="867" 
d="M630 0l31 142q-38 -69 -98.5 -114t-152.5 -45q-66 0 -110.5 19t-71.5 51.5t-38.5 76t-11.5 93.5v18t1 18q2 54 14 104.5t24 105.5l58 263q6 28 12 55t13 55q18 74 44.5 142t70 120t108 83t157.5 31q46 0 78.5 -11.5t54.5 -32t34 -49t17 -61.5l31 138h115l-264 -1202h-116
zM450 93q48 0 85.5 16t65.5 43.5t49 64.5t36 80q11 33 21 68t19 72l80 364q7 37 11.5 73.5t4.5 70.5q0 35 -6.5 65t-23.5 52t-45.5 34.5t-72.5 12.5q-45 0 -79.5 -11.5t-61 -32t-45.5 -49t-34 -62.5q-20 -49 -35 -106t-29 -120l-55 -256q-14 -62 -25.5 -120t-11.5 -106
q0 -40 10 -69q12 -37 44.5 -60.5t97.5 -23.5z" />
    <glyph glyph-name="alphatonos" unicode="&#x3ac;" horiz-adv-x="867" 
d="M630 0l31 142q-38 -69 -98.5 -114t-152.5 -45q-66 0 -110.5 19t-71.5 51.5t-38.5 76t-11.5 93.5v18t1 18q2 54 14 104.5t24 105.5l58 263q6 28 12 55t13 55q18 74 44.5 142t70 120t108 83t157.5 31q46 0 78.5 -11.5t54.5 -32t34 -49t17 -61.5l31 138h115l-264 -1202h-116
zM450 93q48 0 85.5 16t65.5 43.5t49 64.5t36 80q11 33 21 68t19 72l80 364q7 37 11.5 73.5t4.5 70.5q0 35 -6.5 65t-23.5 52t-45.5 34.5t-72.5 12.5q-45 0 -79.5 -11.5t-61 -32t-45.5 -49t-34 -62.5q-20 -49 -35 -106t-29 -120l-55 -256q-14 -62 -25.5 -120t-11.5 -106
q0 -40 10 -69q12 -37 44.5 -60.5t97.5 -23.5zM838 1532l-69 -246h-92l45 246h116z" />
    <glyph glyph-name="parenleftsuperior" unicode="&#x207d;" horiz-adv-x="363" 
d="M519 794q-57 0 -94.5 16t-60 43.5t-31.5 64t-9 78.5q0 39 6 79.5t15 81.5l83 378q5 24 14.5 60.5t25 77t40 80.5t60 72.5t83 52.5t111.5 20h25l-21 -95h-24q-37 0 -65.5 -16t-50.5 -40.5t-37.5 -55t-26 -60t-16.5 -54.5t-9 -39l-86 -385q-8 -34 -12 -65.5t-4 -60.5
q0 -60 23.5 -98.5t81.5 -38.5h24l-21 -96h-24z" />
    <glyph glyph-name="parenrightsuperior" unicode="&#x207e;" horiz-adv-x="362" 
d="M457 1898q56 0 93 -15.5t59 -42t31 -62.5t9 -77q0 -39 -6.5 -81t-15.5 -84l-87 -379q-6 -24 -15.5 -60.5t-26 -76.5t-41 -80.5t-60 -72.5t-83.5 -52t-111 -20h-24l21 92h24q37 0 66.5 16t51.5 41t38 56t27 60.5t17.5 55t9.5 39.5l89 385q8 35 12.5 68t4.5 62
q0 60 -23 97.5t-81 37.5h-25l21 93h25z" />
    <glyph glyph-name="eng" unicode="&#x14b;" horiz-adv-x="891" 
d="M769 -8q-21 -96 -44.5 -170.5t-60 -125.5t-92.5 -77.5t-142 -26.5q-56 0 -95.5 16t-59.5 31l34 96q17 -10 54.5 -22t83.5 -12q51 0 82.5 15t53 49t37 89.5t33.5 137.5l2 8h-1l167 756q13 56 22.5 107.5t9.5 96.5q0 33 -7.5 60.5t-25 47t-47 30.5t-74.5 11
q-69 0 -116.5 -34t-80 -90t-53.5 -127t-37 -145l-157 -713h-117l264 1202h117l-31 -144q38 70 102.5 115t156.5 45q66 0 110 -17t69.5 -46.5t36 -70t10.5 -86.5q0 -57 -11 -119.5t-25 -122.5l-44 -201l-122 -555z" />
    <glyph glyph-name="Eng" unicode="&#x14a;" horiz-adv-x="934" 
d="M141 0l335 1519v1h118v-1h17l161 -1188l261 1189h119l-334 -1514h1l-5 -19q-20 -86 -44.5 -159t-67.5 -126.5t-111 -84t-173 -30.5q-63 0 -100.5 11t-64.5 38l62 97q24 -18 50.5 -26.5t76.5 -8.5q54 0 90.5 12.5t63.5 45t48.5 89t44.5 145.5l3 11l-170 1192l-262 -1193
h-119z" />
    <glyph glyph-name="iacute" unicode="&#xed;" horiz-adv-x="390" 
d="M138 0l264 1202h117l-264 -1202h-117zM730 1532l-205 -246h-98l182 246h121z" />
    <glyph glyph-name="afii61352" unicode="&#x2116;" horiz-adv-x="1773" 
d="M1233 1065q12 55 26.5 111t36 107.5t51.5 96.5t72.5 78t99.5 52.5t132 19.5h1q73 0 121 -18t76 -49.5t39 -73.5t11 -91q0 -55 -10 -114.5t-23 -116.5l-45 -206q-12 -55 -27 -111t-36.5 -107.5t-51 -96.5t-72 -78t-99.5 -52t-132 -19h-1q-74 0 -121.5 18t-76 49.5
t-39.5 74t-11 90.5q0 55 10 114t23 116zM143 0l334 1519v1h119v-1h16l157 -1205l266 1206h118l-334 -1520h-126l-159 1238l-273 -1238h-118zM1627 1420q-72 0 -118.5 -28t-76.5 -76t-48.5 -112.5t-34.5 -138.5l-45 -206q-13 -57 -23 -109t-10 -97q0 -33 7.5 -59.5t25 -46
t47.5 -30t75 -10.5q72 0 118 27.5t76.5 75.5t49 112.5t34.5 138.5l45 206q13 57 22.5 109t9.5 97q0 33 -7.5 60t-25 46.5t-47 30t-74.5 10.5zM1112 207l23 106h500l-23 -106h-500z" />
    <glyph glyph-name="N" unicode="N" horiz-adv-x="933" 
d="M141 0l335 1520h187l81 -1368l298 1368h117l-328 -1520h-184l-90 1375l-297 -1375h-119z" />
    <glyph glyph-name="J" unicode="J" horiz-adv-x="604" 
d="M453 1519h362l-251 -1140q-19 -84 -42.5 -156.5t-65.5 -125t-108.5 -82.5t-170.5 -30q-63 0 -100.5 11t-64.5 38l63 97q12 -9 23.5 -15.5t25.5 -11t32 -6.5t42 -2h3h3q53 0 90.5 12t65.5 44t49 89t41 147l224 1019h-246z" />
    <glyph glyph-name="Jcircumflex" unicode="&#x134;" horiz-adv-x="604" 
d="M453 1519h362l-251 -1140q-19 -84 -42.5 -156.5t-65.5 -125t-108.5 -82.5t-170.5 -30q-63 0 -100.5 11t-64.5 38l63 97q12 -9 23.5 -15.5t25.5 -11t32 -6.5t42 -2h3h3q53 0 90.5 12t65.5 44t49 89t41 147l224 1019h-246zM455 1600l187 229h118l86 -229h-110l-51 155
l-119 -155h-111z" />
    <glyph glyph-name="afii10076" unicode="&#x43a;" horiz-adv-x="839" 
d="M523 1201l-120 -545h111l397 546h123l-443 -600l219 -602h-130l-193 545h-108l-120 -545h-117l264 1201h117z" />
    <glyph glyph-name="o" unicode="o" horiz-adv-x="825" 
d="M261 755q12 55 27 111t36.5 107.5t51.5 96t72.5 78t99 52.5t132.5 19q73 0 121 -18t76 -49.5t39.5 -74t11.5 -90.5q0 -55 -10.5 -114t-23.5 -117l-67 -308q-12 -55 -27 -111t-36.5 -107.5t-51 -96t-72 -78t-99.5 -52.5t-132 -19h-1q-74 0 -121.5 18.5t-76 49.5
t-39.5 73.5t-11 90.5q0 55 10 114t23 116zM656 1109q-72 0 -118.5 -28t-76.5 -76t-49 -113t-35 -139l-68 -306q-12 -56 -22 -108t-10 -97q0 -33 7.5 -60.5t25 -47t47.5 -30t75 -10.5q72 0 118 27.5t76 75.5t48 112.5t35 138.5l68 308q13 57 23 109t10 97q0 33 -7.5 60
t-25 46.5t-47 30t-74.5 10.5z" />
    <glyph glyph-name="afii10096" unicode="&#x44e;" horiz-adv-x="1229" 
d="M142 0l264 1202h118l-126 -571h246l-23 -105h-246l-116 -526h-117zM654 755q12 55 27 111t36.5 107.5t51.5 96t72.5 78t99 52.5t132.5 19q73 0 121 -18t76 -49.5t39.5 -74t11.5 -90.5q0 -55 -10.5 -114t-23.5 -117l-67 -308q-12 -55 -27 -111t-36.5 -107.5t-51 -96
t-72 -78t-99.5 -52.5t-132 -19h-1q-74 0 -121.5 18.5t-76 49.5t-39.5 73.5t-11 90.5q0 55 10 114t23 116zM1049 1109q-72 0 -118.5 -28t-76.5 -76t-49 -113t-35 -139l-68 -306q-12 -56 -22 -108t-10 -97q0 -33 7.5 -60.5t25 -47t47.5 -30t75 -10.5q72 0 118 27.5t76 75.5
t48 112.5t35 138.5l68 308q13 57 23 109t10 97q0 33 -7.5 60t-25 46.5t-47 30t-74.5 10.5z" />
    <glyph glyph-name="afii10080" unicode="&#x43e;" horiz-adv-x="825" 
d="M261 755q12 55 27 111t36.5 107.5t51.5 96t72.5 78t99 52.5t132.5 19q73 0 121 -18t76 -49.5t39.5 -74t11.5 -90.5q0 -55 -10.5 -114t-23.5 -117l-67 -308q-12 -55 -27 -111t-36.5 -107.5t-51 -96t-72 -78t-99.5 -52.5t-132 -19h-1q-74 0 -121.5 18.5t-76 49.5
t-39.5 73.5t-11 90.5q0 55 10 114t23 116zM656 1109q-72 0 -118.5 -28t-76.5 -76t-49 -113t-35 -139l-68 -306q-12 -56 -22 -108t-10 -97q0 -33 7.5 -60.5t25 -47t47.5 -30t75 -10.5q72 0 118 27.5t76 75.5t48 112.5t35 138.5l68 308q13 57 23 109t10 97q0 33 -7.5 60
t-25 46.5t-47 30t-74.5 10.5z" />
    <glyph glyph-name="Pallino" horiz-adv-x="40" 
d="M472 411q0 16 12.5 27t27.5 11q12 0 19 -8t7 -19q0 -15 -12.5 -26.5t-27.5 -11.5q-12 0 -19 8t-7 19z" />
    <glyph glyph-name="afii10068" unicode="&#x433;" horiz-adv-x="629" 
d="M126 0l263 1202h506l-25 -116h-389l-238 -1086h-117z" />
    <glyph glyph-name="afii10082" unicode="&#x440;" horiz-adv-x="870" 
d="M57 -365l345 1567h116l-31 -142q19 35 43.5 64t55 50t68 33t83.5 12h1q69 0 114 -17.5t72 -48t37.5 -71.5t10.5 -88q0 -57 -10.5 -118t-24.5 -121l-68 -307q-12 -55 -26.5 -111t-35 -107.5t-49 -96t-69 -78t-95 -52.5t-126.5 -19q-47 0 -79.5 11.5t-54.5 32.5t-33.5 49.5
t-15.5 62.5l-111 -505h-117zM698 1109q-64 0 -109 -27t-76 -72t-51.5 -104t-35.5 -124l-84 -383q-8 -38 -12.5 -74.5t-4.5 -69.5q0 -35 7 -64.5t24 -51t45.5 -33.5t72.5 -12q72 0 118.5 27.5t76.5 75.5t48.5 113t35.5 139l67 307q13 57 22.5 109t9.5 97q0 33 -7.5 60
t-25 46.5t-47 30t-74.5 10.5z" />
    <glyph glyph-name="afii10074" unicode="&#x438;" horiz-adv-x="902" 
d="M132 0l275 1202h115l-234 -1020h8l576 1020h175l-284 -1202h-115l237 1039l-581 -1039h-172z" />
    <glyph glyph-name="afii10098" unicode="&#x491;" horiz-adv-x="783" 
d="M498 1092l-240 -1092h-116l264 1202h429l37 170l112 -1l-62 -279h-424z" />
    <glyph glyph-name="afii10051" unicode="&#x402;" horiz-adv-x="1070" 
d="M736 1407l-82 -371q19 35 44 64.5t55.5 51t68.5 33.5t84 12h1q69 0 114 -17.5t72 -47.5t37.5 -71t10.5 -88q0 -57 -11 -118t-24 -121l-63 -286q-12 -55 -26.5 -111t-35 -107.5t-49 -96t-69 -78t-95 -52.5t-126.5 -19q-47 0 -80 11.5t-55 32.5t-33.5 49.5t-15.5 63.5
l-31 -141h-118l310 1407h-280l24 112h677l-23 -112h-281zM647 94q72 0 118.5 27.5t76.5 75.5t48.5 113t35.5 139l63 285q13 56 22.5 108t9.5 97q0 33 -7.5 60t-25 46.5t-47 30.5t-74.5 11h-3q-63 -1 -107 -28t-75 -72t-51.5 -103.5t-36.5 -122.5l-37 -170l-23 -107
q-13 -60 -24 -119t-11 -111q0 -35 7 -64.5t24 -50.5t45.5 -33t71.5 -12z" />
    <glyph glyph-name="afii10050" unicode="&#x490;" horiz-adv-x="850" 
d="M570 1409l-310 -1409h-118l335 1521h482l38 173h112l-62 -285h-477z" />
    <glyph glyph-name="afii10042" unicode="&#x428;" horiz-adv-x="1167" 
d="M1358 1518l-334 -1518h-881l334 1518h118l-310 -1406h274l307 1396h118l-308 -1396h254l310 1406h118z" />
    <glyph glyph-name="afii10090" unicode="&#x448;" horiz-adv-x="1156" 
d="M1282 1202l-264 -1202h-882l264 1202h119l-240 -1092h273l238 1082h118l-238 -1082h253l241 1092h118z" />
    <glyph glyph-name="afii10091" unicode="&#x449;" horiz-adv-x="1185" 
d="M1287 1202l-240 -1092h95l-63 -285h-116l38 175h-859l264 1202h118l-240 -1092h274l238 1082h117l-238 -1082h254l241 1092h117z" />
    <glyph glyph-name="afii10079" unicode="&#x43d;" horiz-adv-x="907" 
d="M137 0l264 1202h117l-123 -556h401l122 556h116l-264 -1202h-117l118 531h-401l-116 -531h-117z" />
    <glyph glyph-name="afii10081" unicode="&#x43f;" horiz-adv-x="907" 
d="M137 0l264 1202h634l-264 -1202h-117l241 1092h-401l-240 -1092h-117z" />
    <glyph glyph-name="afii10088" unicode="&#x446;" horiz-adv-x="946" 
d="M525 1202l-241 -1092h399l241 1092h117l-240 -1092h124l-63 -285h-115l38 175h-643l264 1202h119z" />
    <glyph glyph-name="afii10083" unicode="&#x441;" horiz-adv-x="810" 
d="M700 389h116l-2 -11q-10 -43 -22.5 -88.5t-32 -89.5t-48 -83t-70 -68.5t-98 -47t-131.5 -17.5q-74 0 -122 18t-76.5 49.5t-39.5 73.5t-11 91q0 54 10 113t23 117l63 286l25 110q18 74 45.5 142.5t73.5 120.5t114 83t166 31q76 0 125.5 -18t77.5 -48t39 -69.5t11 -83.5
t-7.5 -88t-15.5 -86l-3 -13h-116l3 13q9 37 16 74t7 71q0 29 -7.5 54.5t-25.5 44t-49 29t-79 10.5q-72 0 -118 -28t-76 -76t-49 -112.5t-36 -138.5l-59 -271q-15 -65 -26.5 -122t-13.5 -106q0 -35 6.5 -64t24 -51t47.5 -34t76 -12q71 0 117 23.5t75 62.5t44.5 90.5
t26.5 108.5z" />
    <glyph glyph-name="afii10087" unicode="&#x445;" horiz-adv-x="765" 
d="M616 0l-119 521l-349 -521h-117l420 625l-139 577h123l111 -480l324 480h115l-392 -577l146 -625h-123z" />
    <glyph glyph-name="afii10078" unicode="&#x43c;" horiz-adv-x="1113" 
d="M642 400h19l408 803h183l-265 -1203h-117l240 1077h-7l-413 -829h-143l-41 829h-7l-234 -1077h-117l264 1203h183z" />
    <glyph glyph-name="afii10102" unicode="&#x455;" horiz-adv-x="847" 
d="M810 369q0 -82 -26.5 -152.5t-77 -122t-123.5 -81t-167 -29.5q-68 0 -115 16t-76 45.5t-41.5 71t-12.5 92.5q0 33 5 70t13 76h117q-12 -51 -12 -101q0 -33 7 -62t24 -51t45 -34.5t69 -12.5q61 0 107.5 19t77.5 52.5t46.5 79t15.5 97.5q0 57 -27.5 97t-69.5 72.5t-90 62
t-90 66t-69.5 84.5t-27.5 118q0 82 25.5 151t74 119.5t119.5 78.5t162 28q121 0 179.5 -53t58.5 -163q0 -59 -16 -132h-115q5 26 8.5 50t3.5 46q0 66 -32.5 104t-110.5 38q-50 0 -93 -19t-74.5 -51.5t-50 -75.5t-18.5 -91q0 -55 28 -94t70 -72t90.5 -63t90.5 -68t70 -87
t28 -119z" />
    <glyph glyph-name="afii10100" unicode="&#x453;" horiz-adv-x="706" 
d="M111 0l264 1202h506l-25 -116h-389l-239 -1086h-117zM888 1569l-205 -246h-98l182 246h121z" />
    <glyph glyph-name="afii10089" unicode="&#x447;" horiz-adv-x="918" 
d="M524 1202l-87 -391q-12 -56 -22 -107.5t-10 -96.5q0 -33 7.5 -60.5t25 -47t47.5 -30.5t75 -11q69 0 116 34t79.5 90t53.5 127t38 145l76 348h117l-265 -1202h-116l112 509q-39 -70 -103 -115t-157 -45q-66 0 -110 17t-69.5 47t-36 70t-10.5 87q0 57 11 119t25 122l86 391
h117z" />
    <glyph glyph-name="afii10103" unicode="&#x456;" horiz-adv-x="390" 
d="M452 1490q0 35 21.5 58.5t68.5 23.5q35 0 50 -13.5t15 -36.5q0 -34 -19.5 -58t-74.5 -24q-61 0 -61 50zM138 0l265 1202h116l-264 -1202h-117z" />
    <glyph glyph-name="afii10106" unicode="&#x459;" horiz-adv-x="926" 
d="M460 780h172q67 0 119 -10t88 -35t54.5 -66t18.5 -104q0 -61 -18 -143l-15 -70q-23 -99 -60.5 -166.5t-89 -109t-115 -59t-138.5 -17.5h-305l240 1092h-142l23 110h261zM776 423q13 59 13 106q0 78 -43 109.5t-137 31.5h-173l-123 -556h188q57 0 100 15.5t74 45.5
t52 74.5t34 102.5z" />
    <glyph glyph-name="afii10108" unicode="&#x45b;" horiz-adv-x="877" 
d="M427 947l-56 -254q38 70 102.5 115t156.5 45q66 0 110 -17t69.5 -46.5t36 -70t10.5 -86.5q0 -57 -11 -119.5t-25 -122.5l-86 -391h-116l86 391q13 56 22.5 107.5t9.5 96.5q0 33 -7.5 60.5t-25 47t-47 30.5t-74.5 11q-69 0 -116.5 -34t-79.5 -90t-53.5 -127t-37.5 -145
l-76 -348h-117l208 947h-73l22 101h73l34 154h117l-34 -154h80l-22 -101h-80z" />
    <glyph glyph-name="afii10045" unicode="&#x42b;" horiz-adv-x="1227" 
d="M850 352q-22 -99 -60 -166.5t-89 -109t-115 -59t-139 -17.5h-305l335 1520h117l-133 -602h173q66 0 118 -10t88 -34.5t55 -66t19 -104.5q0 -61 -18 -143zM777 560q7 32 10.5 58t3.5 49q0 77 -43.5 109t-137.5 32h-173l-153 -694h189q57 0 100 15.5t74 45.5t51.5 74.5
t33.5 102.5zM1097 0l334 1520h-118l-335 -1520h119z" />
    <glyph glyph-name="afii10092" unicode="&#x44a;" horiz-adv-x="930" 
d="M883 352q-22 -99 -59.5 -166.5t-89 -109t-115.5 -59t-139 -17.5h-304l239 1091h-147l24 111h265l-92 -422h172q67 0 119 -10t88 -35t54.5 -66.5t18.5 -104.5q0 -60 -18 -142zM780 423q7 32 10.5 58t3.5 49q0 77 -43.5 108.5t-136.5 31.5h-174l-122 -556h188q114 0 174 61
t86 177z" />
    <glyph glyph-name="afii10043" unicode="&#x429;" horiz-adv-x="1200" 
d="M1358 1518l-309 -1408h111l-63 -285h-116l39 175h-877l335 1518h117l-309 -1406h273l308 1396h117l-307 -1396h253l310 1406h118z" />
    <glyph glyph-name="afii10099" unicode="&#x452;" horiz-adv-x="875" 
d="M520 1332l-62 -272q40 70 105 115.5t158 45.5q66 0 109 -16.5t68.5 -45t36 -68t10.5 -84.5q0 -58 -12.5 -122t-27.5 -127l-173 -758h-1q-19 -83 -43.5 -154t-66.5 -123t-108.5 -81t-168.5 -29q-63 0 -100.5 10.5t-64.5 37.5l64 94q22 -17 47.5 -25.5t74.5 -9.5h4h3
q53 0 90.5 12.5t66 45t50.5 89.5t43 148l2 11h2l167 732q14 57 24.5 111t10.5 99q0 33 -7.5 60t-25.5 46.5t-47.5 30t-74.5 10.5q-70 0 -118 -34.5t-81.5 -91t-55 -128t-38.5 -146.5l-164 -715h-114l305 1332h-73l22 97h73l35 152h114l-35 -152h81l-22 -97h-82z" />
    <glyph glyph-name="afii10846" unicode="&#x4d9;" horiz-adv-x="894" 
d="M317.98 796.951l4 19.999q9.99902 46.9971 22.998 94.9941q13 47.9971 32.498 92.4941q19.499 44.4971 48.4971 83.9951q28.999 39.498 70.4961 68.4961t97.9941 45.4971q56.4961 16.499 131.492 16.499q73.9951 0 121.992 -17.999t76.4951 -49.4971t39.998 -73.9951
q11.499 -42.498 11.499 -90.4951q0 -54.9961 -10.499 -113.993q-10.5 -58.9961 -23.499 -115.992l-67.9961 -308.981q-11.999 -54.9971 -26.498 -110.993q-14.499 -55.9971 -35.998 -107.493q-21.498 -51.4971 -51.4971 -95.9941q-29.998 -44.498 -72.4951 -77.9951
q-42.4971 -33.498 -99.4941 -52.4971q-56.9961 -18.999 -132.991 -18.999q-75.9961 0 -124.993 17.999t-77.4951 47.9971t-39.4971 69.4961q-11 39.4971 -11 84.4941q0 45.9971 8 94.4941q7.99902 48.4971 18.999 94.4941l35.9971 163.99h1l4 20.999l536.968 84.9951
l19.998 92.9941q12 55.9961 21.999 107.493t9.99902 96.4941q0 32.998 -7.49902 60.4961q-7.5 27.498 -24.999 46.9971t-47.4971 30.498q-29.998 11 -74.9951 11h-3q-70.9951 0 -115.493 -22.999q-44.4971 -22.998 -72.4951 -62.4961t-44.4971 -92.9941
q-16.499 -53.4971 -30.498 -114.493l-4 -18.999h-115.993zM479.971 93.9941q71.9961 0 118.493 27.998q46.4971 27.999 76.4951 75.9961t48.9971 112.493t34.998 138.491l24.998 110.993l-416.975 -67.9961l-21.999 -98.9941q-8.99902 -42.9971 -16.998 -83.9941
q-8 -40.998 -8 -76.9951q0 -29.999 7.5 -55.4971q7.49902 -25.498 25.498 -43.4971t48.9971 -28.499q30.998 -10.499 77.9951 -10.499z" />
    <glyph glyph-name="iotadieresis" unicode="&#x3ca;" horiz-adv-x="390" 
d="M138 0l264 1202h117l-264 -1202h-117zM359 1480q0 19 4.5 35.5t15 29t26.5 20t40 7.5q32 0 46 -13.5t14 -37.5q0 -92 -91 -92q-29 0 -42 13.5t-13 37.5zM551 1480q0 19 4.5 35.5t15 29t27 20t39.5 7.5q33 0 46.5 -13.5t13.5 -37.5q0 -45 -21.5 -68.5t-69.5 -23.5
q-29 0 -42 13.5t-13 37.5z" />
    <glyph glyph-name="afii10104" unicode="&#x457;" horiz-adv-x="390" 
d="M138 0l264 1202h117l-264 -1202h-117zM362 1480q0 19 4.5 35.5t15 29t26.5 20t40 7.5q32 0 46 -13.5t14 -37.5q0 -92 -91 -92q-29 0 -42 13.5t-13 37.5zM554 1480q0 19 4.5 35.5t15 29t27 20t39.5 7.5q33 0 46.5 -13.5t13.5 -37.5q0 -45 -21.5 -68.5t-69.5 -23.5
q-29 0 -42 13.5t-13 37.5z" />
    <glyph glyph-name="afii10084" unicode="&#x442;" horiz-adv-x="603" 
d="M600 1092l-241 -1091h-115l240 1091h-223l23 110h563l-24 -110h-223z" />
    <glyph glyph-name="Nu" unicode="&#x39d;" horiz-adv-x="933" 
d="M141 0l335 1520h187l81 -1368l298 1368h117l-328 -1520h-184l-90 1375l-297 -1375h-119z" />
    <glyph glyph-name="afii10044" unicode="&#x42a;" horiz-adv-x="961" 
d="M895 352q-22 -99 -59.5 -166.5t-89 -109t-115.5 -59t-139 -17.5h-304l309 1408h-159l24 112h278l-133 -602h172q66 0 118 -10t88 -34.5t55 -66t19 -104.5q0 -61 -18 -143zM823 560q7 32 10.5 58t3.5 49q0 77 -43.5 109t-137.5 32h-173l-153 -694h188q114 0 174 61t86 177
z" />
    <glyph glyph-name="afii10026" unicode="&#x418;" horiz-adv-x="934" 
d="M712 0l305 1371l-693 -1371h-185l341 1520h118l-305 -1369l684 1369h187l-334 -1520h-118z" />
    <glyph glyph-name="afii10037" unicode="&#x423;" horiz-adv-x="781" 
d="M567 550l-280 -550h-118l282 552l-90 967h127l61 -795l418 795h121z" />
    <glyph glyph-name="afii10105" unicode="&#x458;" horiz-adv-x="394" 
d="M449 1490q0 35 21.5 58.5t68.5 23.5q35 0 50.5 -13.5t15.5 -36.5q0 -34 -20 -58t-75 -24q-61 0 -61 50zM519 1202l-266 -1212q-21 -96 -44.5 -170t-60 -125t-92 -77.5t-141.5 -26.5q-57 0 -96.5 15.5t-59.5 29.5l35 99q17 -10 54 -23t84 -13q51 1 82.5 16t52.5 48.5
t36 89t33 137.5l267 1212h116z" />
    <glyph glyph-name="afii10097" unicode="&#x44f;" horiz-adv-x="809" 
d="M569 0l116 500h-148q-34 -6 -69 -19.5t-69 -41t-65.5 -73t-56.5 -115.5l-34 -95q-36 -95 -75 -156h-120q23 35 43.5 74.5t36.5 85.5l33 94q22 61 44 105t47.5 75.5t56.5 54t71 42.5q-60 30 -92.5 85t-32.5 129q0 44 12 92l11 42q18 78 48.5 138t77.5 101.5t112.5 62.5
t154.5 21h291l-277 -1202h-116zM383 837q-9 -41 -9 -75q0 -75 41 -113.5t122 -38.5h173l111 483h-176q-45 0 -85 -10t-72 -34t-56 -65.5t-39 -104.5z" />
    <glyph glyph-name="Dsmall" unicode="&#xf764;" horiz-adv-x="873" 
d="M423 0h-281l264 1202h282q76 0 126 -18.5t79.5 -51.5t41.5 -78t12 -97q0 -48 -8 -99t-19 -104l-67 -307q-13 -56 -29 -111t-39.5 -105t-55 -92t-75.5 -73t-101 -48.5t-130 -17.5zM283 111h165q58 0 103 18.5t80 59t61 104.5t46 155l66 305q11 52 17 94.5t6 77.5
q0 85 -36.5 123.5t-115.5 41.5h-176z" />
    <glyph glyph-name="Esmall" unicode="&#xf765;" horiz-adv-x="727" 
d="M137 0l264 1202h532l-24 -112h-416l-92 -414h333l-24 -112h-333l-100 -452h416l-25 -112h-531z" />
    <glyph glyph-name="Fsmall" unicode="&#xf766;" horiz-adv-x="691" 
d="M137 0l264 1202h533l-25 -116h-417l-93 -418h336l-25 -117h-336l-121 -551h-116z" />
    <glyph glyph-name="Gsmall" unicode="&#xf767;" horiz-adv-x="813" 
d="M539 607h321l-11 -28h6l-44 -201q-9 -43 -22 -89t-32.5 -89.5t-48 -83t-70 -69t-98 -46.5t-131.5 -17q-74 0 -121.5 18t-76 49t-39.5 73t-11 91q0 55 10 114.5t23 117.5l62 285q6 28 12 55t13 55q18 74 45.5 142.5t73.5 120.5t114 83t166 31q76 0 125.5 -18t77.5 -48
t39 -69.5t11 -82.5q0 -44 -7.5 -88.5t-16.5 -86.5l-2 -13h-117l3 13q9 37 16.5 74.5t7.5 71.5q0 29 -7.5 54t-26 43.5t-49.5 29t-78 10.5q-72 0 -118 -28t-76.5 -76t-49.5 -112.5t-35 -138.5l-60 -271q-14 -65 -25.5 -122t-13.5 -106q-1 -35 6 -64t24.5 -51t47.5 -34t76 -12
q71 0 116.5 23.5t74 63t44.5 91t28 107.5l29 131h-206z" />
    <glyph glyph-name="Hsmall" unicode="&#xf768;" horiz-adv-x="907" 
d="M137 0l264 1202h117l-123 -556h401l122 556h116l-264 -1202h-117l118 531h-401l-116 -531h-117z" />
    <glyph glyph-name="Jsmall" unicode="&#xf76a;" horiz-adv-x="576" 
d="M53 129q25 -17 52 -25.5t72 -8.5h4h3q52 0 89 12t64.5 44.5t49 89.5t41.5 147l179 814h116l-177 -798h1l-6 -25v-1q-19 -84 -43 -156.5t-65.5 -125t-107.5 -82.5t-170 -30q-63 0 -100.5 11t-65.5 38z" />
    <glyph glyph-name="Lsmall" unicode="&#xf76c;" horiz-adv-x="681" 
d="M517 1202l-240 -1086h417l-25 -116h-532l264 1202h116z" />
    <glyph glyph-name="Msmall" unicode="&#xf76d;" horiz-adv-x="1103" 
d="M631 400h19l408 803h183l-265 -1203h-117l240 1077h-7l-413 -829h-143l-41 829h-7l-234 -1077h-117l264 1203h183z" />
    <glyph glyph-name="Nsmall" unicode="&#xf76e;" horiz-adv-x="914" 
d="M596 0l-114 1030l-227 -1030h-118l257 1202h176l117 -1013h7l223 1013h118l-264 -1202h-175z" />
    <glyph glyph-name="Qsmall" unicode="&#xf771;" horiz-adv-x="825" 
d="M354 -13q-57 6 -94.5 26t-60 50.5t-31.5 69t-9 82.5q0 55 10.5 114t23.5 117l68 309q12 55 27 111t36.5 107.5t51.5 96t72.5 78t99 52.5t132.5 19q73 0 121 -18t76 -49.5t39.5 -74t11.5 -90.5q0 -55 -10.5 -114t-23.5 -117l-67 -308q-12 -52 -25.5 -104t-32.5 -101
t-45.5 -92.5t-63 -77.5t-85 -56.5t-112.5 -29.5l-26 -121h-109zM656 1109q-72 0 -118.5 -28t-76.5 -76t-49 -113t-35 -139l-68 -306q-12 -56 -22 -108t-10 -97q0 -33 7.5 -60.5t25 -47t47.5 -30t75 -10.5q72 0 118 27.5t76 75.5t48 112.5t35 138.5l68 308q13 57 23 109
t10 97q0 33 -7.5 60t-25 46.5t-47 30t-74.5 10.5z" />
    <glyph glyph-name="Usmall" unicode="&#xf775;" horiz-adv-x="882" 
d="M1026 1202l-181 -824q-18 -82 -43.5 -152t-69 -122.5t-110.5 -83.5t-169 -35l-1 -1q-4 0 -7 0.5t-6 0.5t-6 -0.5t-6 -0.5l-1 1q-70 2 -117 18t-75 44t-39.5 66t-11.5 85q0 40 7 85t18 95l182 824h117l-180 -816q-11 -45 -17.5 -85t-6.5 -73q0 -31 8 -55t26.5 -41.5
t50 -27t79.5 -10.5q71 2 115.5 23.5t72.5 59.5t44 91t30 118l180 816h117z" />
    <glyph glyph-name="Wsmall" unicode="&#xf777;" horiz-adv-x="1146" 
d="M290 1202h120l-77 -1093h14l403 1093h188l-77 -1093h13l404 1093h119l-454 -1202h-196l75 1093h-5l-405 -1093h-197z" />
    <glyph glyph-name="Ysmall" unicode="&#xf779;" horiz-adv-x="670" 
d="M929 1202l-431 -730l-103 -472h-117l104 472l-113 730h119l83 -590l342 590h116z" />
    <glyph glyph-name="epsilon" unicode="&#x3b5;" horiz-adv-x="882" 
d="M727 389h115l-2 -11q-10 -43 -22.5 -88.5t-32 -89.5t-48 -83t-70 -68.5t-98 -47t-131.5 -17.5q-74 0 -121.5 18t-76 49t-39.5 73t-11 91q0 55 10 114.5t23 117.5l62 285l25 110q18 74 45.5 142.5t73.5 120.5t114 83t166 31q76 0 125.5 -18t77.5 -48t39 -69.5t11 -83.5
t-7.5 -88t-15.5 -86l-3 -13h-116l2 13q9 37 16.5 74.5t7.5 71.5q0 29 -7.5 54t-26 43.5t-49.5 29t-78 10.5q-72 0 -118 -28t-76.5 -76t-49.5 -112.5t-35 -138.5l-21 -95l381 3l-23 -107l-381 -1l-15 -71q-15 -65 -26.5 -122t-13.5 -106q-1 -35 6 -64t24.5 -51t47.5 -34
t76 -12q71 0 116.5 23.5t74 63t44.5 91t28 107.5z" />
    <glyph glyph-name="afii10095" unicode="&#x44d;" horiz-adv-x="881" 
d="M320 379q-11 -42 -19 -82t-8 -75q0 -29 7.5 -53t25.5 -41.5t48 -27t75 -9.5q52 0 90.5 14.5t67.5 39.5t49.5 59.5t35.5 74.5q17 47 30 98t27 105l18 73l-381 1l25 105l382 -4l24 96q16 62 27 117.5t11 100.5q0 32 -7.5 58t-25 44.5t-46 28.5t-71.5 10q-76 0 -123.5 -25.5
t-77 -66t-46 -91.5t-29.5 -103l-1 -13h-114l3 13q10 41 23 86t33.5 88.5t50 83t72 69.5t100 48t133.5 18q70 0 117 -16.5t75 -45.5t39.5 -69t11.5 -87q0 -37 -6 -77t-15 -82q-7 -28 -13 -55t-12 -55l-72 -285q-13 -53 -28.5 -108t-38 -106.5t-53.5 -97t-74.5 -79t-102 -53
t-134.5 -19.5q-74 0 -121.5 16.5t-75 44.5t-38.5 65.5t-11 79.5q0 46 9 94.5t20 93.5l3 11h113z" />
    <glyph glyph-name="afii10101" unicode="&#x454;" horiz-adv-x="881" 
d="M727 389h115l-2 -11q-10 -43 -22.5 -88.5t-32 -89.5t-48 -83t-70 -68.5t-98 -47t-131.5 -17.5q-74 0 -121.5 18t-76 49t-39.5 73t-11 91q0 55 10 114.5t23 117.5l62 285l25 110q18 74 45.5 142.5t73.5 120.5t114 83t166 31q76 0 125.5 -18t77.5 -48t39 -69.5t11 -83.5
t-7.5 -88t-15.5 -86l-3 -13h-116l2 13q9 37 16.5 74.5t7.5 71.5q0 29 -7.5 54t-26 43.5t-49.5 29t-78 10.5q-72 0 -118 -28t-76.5 -76t-49.5 -112.5t-35 -138.5l-21 -95l381 3l-23 -107l-381 -1l-15 -71q-15 -65 -26.5 -122t-13.5 -106q-1 -35 6 -64t24.5 -51t47.5 -34
t76 -12q71 0 116.5 23.5t74 63t44.5 91t28 107.5z" />
    <glyph glyph-name="afii10061" unicode="&#x40c;" horiz-adv-x="857" 
d="M140 0l335 1520h118l-154 -699h138l455 698h129l-484 -749l180 -770h-128l-174 710h-140l-156 -710h-119zM1057 1850l-205 -246h-98l182 246h121z" />
    <glyph glyph-name="tau" unicode="&#x3c4;" horiz-adv-x="599" 
d="M597 1092l-240 -1092h-115l241 1092h-240l24 110h594l-24 -110h-240z" />
    <glyph glyph-name="spessoresmall" horiz-adv-x="759" 
d="M599 712h171l-14 -65h-171zM683 901l64 136l49 -14l-64 -137z" />
    <glyph glyph-name="afii10041" unicode="&#x427;" horiz-adv-x="937" 
d="M595 1520l-114 -520q-11 -51 -19.5 -99.5t-8.5 -90.5q0 -36 8 -66t26.5 -51.5t50 -33.5t79.5 -12q69 0 116.5 34t81 89.5t55 126.5t37.5 145l105 478h118l-335 -1520h-117l153 697q-39 -70 -103 -114.5t-157 -44.5q-70 0 -116 19t-73.5 51.5t-38.5 76t-11 93.5
q0 53 9.5 110t21.5 112l115 520h117z" />
    <glyph glyph-name="afii10052" unicode="&#x403;" horiz-adv-x="739" 
d="M1046 1520l-25 -108h-437l-325 -1412h-114l349 1520h552zM1064 1847l-209 -246h-96l186 246h119z" />
    <glyph glyph-name="afii10093" unicode="&#x44b;" horiz-adv-x="1246" 
d="M987 0l265 1202h117l-264 -1202h-118zM850 352q-23 -99 -60.5 -166.5t-89 -109t-115 -59t-138.5 -17.5h-305l264 1202h118l-93 -422h172q67 0 119.5 -10t88.5 -34.5t54.5 -66.5t18.5 -105q0 -60 -18 -142zM747 423q13 59 13 106q0 78 -43 109.5t-137 31.5h-173l-123 -556
h188q57 0 100 15.5t74 45.5t52 74.5t34 102.5z" />
    <glyph glyph-name="afii10094" unicode="&#x44c;" horiz-adv-x="893" 
d="M849 352q-22 -99 -60 -166.5t-89 -109t-115 -59t-139 -17.5h-305l264 1202h118l-93 -422h172q67 0 119 -10t88 -35t54.5 -66t18.5 -104q0 -61 -18 -143zM746 423q13 59 13 106q0 78 -43 109.5t-137 31.5h-173l-123 -556h189q57 0 99.5 15.5t73.5 45.5t52 74.5t34 102.5z
" />
    <glyph glyph-name="afii10069" unicode="&#x434;" horiz-adv-x="919" 
d="M1033 1202l-242 -1092h123l-62 -285h-117l39 175h-628l-39 -175h-116l63 285h3q45 0 94.5 60t99.5 169.5t98 264.5t90 345l56 253h538zM550 923q-29 -130 -63 -253.5t-75 -230.5t-90.5 -192t-107.5 -137h461l217 982h-305z" />
    <glyph glyph-name="afii10021" unicode="&#x414;" horiz-adv-x="1000" 
d="M1185 1520l-310 -1407h120l-62 -288h-119l39 176h-707l-39 -176h-118l63 288h7q41 0 81 44t77.5 116t72 164t63.5 188t52 187.5t39 163.5l120 544h621zM562 974q-31 -143 -67 -275.5t-78 -245t-89.5 -200.5t-102.5 -140h532l285 1295h-385z" />
    <glyph glyph-name="afii10058" unicode="&#x409;" horiz-adv-x="1490" 
d="M1442 352q-22 -99 -59.5 -166.5t-89 -109t-115.5 -59t-139 -17.5h-305l310 1408h-421l-214 -976q-27 -124 -57.5 -209.5t-73.5 -139t-104 -77t-149 -23.5l24 112q57 0 94 18t63 58t45 104.5t40 157.5l239 1088l109 -1h548l-133 -602h172q67 0 119 -10t88 -35t54.5 -66.5
t18.5 -104.5q0 -59 -18 -141zM1369 560q7 32 10.5 58t3.5 49q0 77 -43 109t-137 32h-173l-153 -694h188q57 0 99.5 15.5t73.5 45.5t52 74.5t34 103.5z" />
    <glyph glyph-name="afii10059" unicode="&#x40a;" horiz-adv-x="1433" 
d="M142 0l335 1520h118l-141 -641h416l141 641h118l-141 -641h172q66 0 118 -10t88 -35t55 -66.5t19 -104.5q0 -61 -18 -143l-37 -168q-22 -99 -59.5 -166.5t-89 -109t-115.5 -59t-139 -17.5h-305l169 768h-417l-169 -768h-118zM1304 521q14 64 14 107q0 77 -44 108.5
t-138 31.5h-172l-144 -654h188q57 0 99.5 15.5t73.5 45.5t52 74.5t34 103.5z" />
    <glyph glyph-name="afii10060" unicode="&#x40b;" horiz-adv-x="1066" 
d="M824 0l127 576q12 56 22 107.5t10 96.5q0 33 -7.5 60.5t-25 47t-47.5 30.5t-75 11q-69 0 -116 -34t-79.5 -90t-53.5 -127t-37 -145l-118 -533h-115l305 1387h115l-112 -508q39 69 104 114t157 45q66 0 110 -17t69.5 -46.5t36 -70t10.5 -86.5q0 -57 -11 -119.5t-25 -122.5
l-127 -576h-117zM734 1407l-309 -1407h-118l310 1407h-280l24 112h677l-23 -112h-281z" />
    <glyph glyph-name="afii10072" unicode="&#x436;" horiz-adv-x="1138" 
d="M891 1201l-120 -545h44l397 546h121l-441 -600l218 -602h-129l-193 545h-41l-120 -545h-117l120 545h-40l-431 -545h-130l484 602l-179 600h123l155 -546h42l120 545h117z" />
    <glyph glyph-name="afii10077" unicode="&#x43b;" horiz-adv-x="974" 
d="M730 0l240 1092h-418l-145 -660q-27 -124 -58 -209.5t-74 -139t-103.5 -77t-147.5 -23.5l24 110q57 0 94 18t63.5 58t45.5 105t40 158l169 770h651l-265 -1202h-116z" />
    <glyph glyph-name="afii10107" unicode="&#x45a;" horiz-adv-x="1409" 
d="M1363 352q-22 -99 -59.5 -166.5t-89 -109t-116 -59t-139.5 -17.5h-303l141 642h-398l-142 -642h-117l264 1202h117l-99 -450h400l99 450h115l-99 -450h173q66 0 118 -10t88 -34.5t55 -66.5t19 -105q0 -60 -18 -142zM1253 394q7 32 10.5 58t3.5 49q0 77 -43.5 109
t-137.5 32h-173l-2 -8l-114 -520h189q113 0 172.5 61t85.5 177z" />
    <glyph glyph-name="i.trk" horiz-adv-x="423" 
d="M461 1490q0 35 21.5 58.5t68.5 23.5q35 0 50.5 -13.5t15.5 -36.5q0 -34 -20 -58t-75 -24q-61 0 -61 50zM147 0l265 1202h116l-264 -1202h-117z" />
    <glyph glyph-name="zero.slash" horiz-adv-x="876" 
d="M220 430l144 658q12 55 26.5 109.5t35 104t49.5 92.5t70.5 74.5t98 49.5t131.5 18h1q73 0 121 -17t76.5 -46t39.5 -69.5t11 -86.5q0 -53 -10.5 -111t-23.5 -116l-145 -658q-12 -55 -26 -110t-34.5 -104.5t-49.5 -92.5t-71 -74t-98.5 -49t-131.5 -18q-73 0 -121 17
t-76 46.5t-39 69.5t-11 87q0 53 10 111t23 115zM751 1426q-71 0 -116 -25.5t-73.5 -70.5t-46 -107t-33.5 -136l-117 -530l517 574q10 44 16.5 83.5t6.5 73.5q0 31 -7.5 56.5t-25 43.5t-47 28t-74.5 10zM459 95h3q70 0 114.5 25.5t73 70.5t45.5 107t34 135l116 528l-519 -581
q-9 -42 -15 -79t-6 -69q0 -31 7.5 -56.5t25 -43.5t47 -27.5t74.5 -9.5z" />
    <glyph glyph-name="afii10066" unicode="&#x431;" horiz-adv-x="883" 
d="M1073 1568q-27 -39 -56 -70.5t-67 -53.5t-89.5 -34t-122.5 -12q-69 0 -119 -25.5t-86.5 -70.5t-61.5 -107t-45 -135q22 35 50 64.5t61 50.5t72 32.5t84 11.5q67 0 110.5 -16.5t69.5 -45t36.5 -67.5t10.5 -84q0 -59 -13 -123.5t-27 -127.5l-70 -306q-13 -57 -28 -113.5
t-37 -108.5t-52 -96t-72.5 -77t-100 -51.5t-133.5 -18.5q-72 0 -119.5 18t-75 48.5t-39 71.5t-11.5 88q0 56 11.5 116.5t25.5 120.5l90 396l3 12q30 130 65.5 245t87.5 202t125.5 137.5t177.5 51.5q72 0 118 11.5t72.5 25.5t37 26t13.5 14h104zM412 91q72 0 119 28t78 76.5
t50.5 114t36.5 140.5l70 305q14 58 24.5 112t10.5 99q0 33 -7.5 59.5t-25 46t-47 30t-74.5 10.5q-43 0 -77.5 -12t-61.5 -34t-48 -52.5t-37 -66.5q-20 -45 -35.5 -97.5t-28.5 -106.5l-4 -19l-63 -276q-14 -58 -24.5 -112t-10.5 -99q0 -33 7.5 -59.5t25 -46t47.5 -30
t75 -10.5z" />
    <glyph glyph-name="afii10073" unicode="&#x437;" horiz-adv-x="863" 
d="M477 651l105 1q43 0 83 11t73.5 34t57.5 59t36 87l8 32q6 25 8.5 47t2.5 42q0 78 -42.5 113.5t-123.5 35.5q-47 0 -87 -16.5t-72 -46.5t-55.5 -73t-35.5 -95l-20 -85h-112l11 49q42 181 139 278t257 97q71 0 120.5 -16t80 -45t44.5 -70t14 -91q0 -29 -4 -60t-12 -64
q-14 -60 -38 -108.5t-54 -83.5t-65 -56t-69 -26q58 -8 86 -53t28 -115q0 -48 -14 -109q-17 -73 -47.5 -135.5t-78.5 -108t-116.5 -71.5t-159.5 -26q-124 0 -182.5 58.5t-58.5 169.5q0 32 4.5 69t14.5 79l11 47h112l-20 -83q-9 -41 -9 -75q0 -73 39 -115t114 -42
q50 0 92.5 14.5t76.5 46.5t59 82.5t42 121.5q6 24 6 50q0 29 -9 55.5t-28.5 47t-51 33t-77.5 12.5h-105l8 41l2 8l1 5z" />
    <glyph glyph-name="afii10086" unicode="&#x444;" horiz-adv-x="1335" 
d="M527 -370l97 443q-36 -42 -86 -65.5t-118 -23.5h-1q-68 0 -112.5 17.5t-71 47.5t-37 71t-10.5 88q0 56 10.5 117.5t24.5 122.5l67 308q12 53 26 108t34 106t48.5 96.5t69 79t95.5 53.5t128 20h1q68 0 107 -24t58 -64l86 390h116l-86 -392q36 42 86 66t119 24t114 -17.5
t72 -47.5t37.5 -71t10.5 -88q0 -57 -11 -118t-24 -121l-68 -308q-12 -55 -26.5 -111t-35 -107.5t-49 -96t-69 -78t-95 -52.5t-126.5 -19q-69 0 -108.5 24.5t-58.5 66.5l-97 -445h-117zM914 94q72 0 118.5 27.5t76.5 75.5t48.5 113t35.5 139l67 307q13 57 22.5 109t9.5 97
q0 33 -7.5 60t-25 46.5t-47 30t-74.5 10.5h-3q-69 -1 -114.5 -32t-77.5 -82l-175 -798q11 -47 44 -75t102 -28zM461 94q69 0 114 27.5t76 73.5l177 805q-10 50 -42.5 79.5t-100.5 29.5q-75 0 -122 -29t-76.5 -78t-47 -113t-32.5 -134l-67 -307q-13 -58 -22.5 -109.5
t-9.5 -95.5q0 -34 7.5 -61.5t25 -47t47 -30t73.5 -10.5z" />
    <glyph glyph-name="gamma" unicode="&#x3b3;" horiz-adv-x="741" 
d="M232 -367l87 393h117l-86 -393h-118zM978 1202l-514 -1202h-185l15 1202h120l-27 -1093h16l455 1093h120z" />
    <glyph glyph-name="pi" unicode="&#x3c0;" horiz-adv-x="1071" 
d="M1089 1092l-240 -1092h-115l241 1092h-408l-240 -1092h-115l241 1092h-181l24 110h997l-24 -110h-180z" />
    <glyph glyph-name="uni03BC" unicode="&#x3bc;" horiz-adv-x="916" 
d="M1049 1202l-166 -756q-12 -53 -25.5 -108t-33.5 -106t-48 -96.5t-67.5 -79t-93.5 -53t-125 -19.5q-46 0 -80 12t-57 33t-35.5 50.5t-16.5 64.5l-112 -509h-116l344 1567h117l-158 -717q-13 -59 -22.5 -115.5t-9.5 -105.5q0 -38 7 -69t24 -54t44.5 -35.5t69.5 -12.5
q75 0 122.5 29.5t77 78.5t47 112.5t32.5 132.5l166 756h115z" />
    <glyph glyph-name="phi" unicode="&#x3c6;" horiz-adv-x="942" 
d="M331 -365l77 350q-65 4 -107 23t-67.5 50t-35.5 71.5t-10 86.5q0 55 10.5 114t23.5 116l68 309q12 53 26 107t34.5 104t48.5 94t67.5 78t92 55t121.5 25l77 349h116l-77 -349q65 -3 108 -22.5t68 -50.5t35 -72t10 -87q0 -55 -10 -114t-23 -117l-67 -307
q-12 -54 -26.5 -108t-34.5 -104t-48 -94.5t-68 -78t-92.5 -54.5t-122.5 -24l-77 -350h-117zM867 756q12 57 22 108.5t10 96.5q0 30 -6 55.5t-20.5 45t-39 31.5t-61.5 15l-223 -1013q63 6 104 35.5t68.5 76.5t45 109t33.5 133zM338 447q-13 -57 -23 -109t-10 -97
q0 -30 6 -55.5t21 -44.5t39.5 -31t60.5 -15l224 1013q-63 -6 -104 -36t-68.5 -77.5t-45 -109.5t-32.5 -132z" />
    <glyph glyph-name="sigma" unicode="&#x3c3;" horiz-adv-x="825" 
d="M1023 1109l-143 10q25 -30 34.5 -68.5t9.5 -83.5q0 -52 -9.5 -108.5t-22.5 -113.5l-65 -297q-12 -55 -27 -111t-36.5 -107.5t-51 -96t-72 -78t-99.5 -52.5t-132 -19h-1q-74 0 -121.5 18.5t-76 49.5t-39.5 73.5t-11 90.5q0 55 10 114t23 116l68 309q12 55 27 111
t36.5 107.5t51.5 96t72.5 78t99 52.5t132.5 19h367zM656 1109q-72 0 -118.5 -28t-76.5 -76t-49 -113t-35 -139l-68 -306q-12 -56 -22 -108t-10 -97q0 -33 7.5 -60.5t25 -47t47.5 -30t75 -10.5q72 0 118 27.5t76 75.5t48 112.5t35 138.5l68 308q13 57 23 109t10 97
q0 33 -7.5 60t-25 46.5t-47 30t-74.5 10.5z" />
    <glyph glyph-name="upsilon" unicode="&#x3c5;" horiz-adv-x="882" 
d="M1026 1202l-181 -824q-18 -82 -43.5 -152t-69 -122.5t-110.5 -83.5t-169 -35l-1 -1q-4 0 -7 0.5t-6 0.5t-6 -0.5t-6 -0.5l-1 1q-70 2 -117 18t-75 44t-39.5 66t-11.5 85q0 40 7 85t18 95l182 824h117l-180 -816q-11 -45 -17.5 -85t-6.5 -73q0 -31 8 -55t26.5 -41.5
t50 -27t79.5 -10.5q71 2 115.5 23.5t72.5 59.5t44 91t30 118l180 816h117z" />
    <glyph glyph-name="psi" unicode="&#x3c8;" horiz-adv-x="938" 
d="M507 1202l-180 -816q-10 -46 -17 -85.5t-7 -72.5q0 -55 27 -89.5t99 -42.5l323 1471h117l-323 -1471q62 6 101.5 29t65 60.5t40.5 88t29 112.5l180 816h116l-181 -824q-18 -80 -42.5 -149.5t-66.5 -121.5t-106 -83.5t-161 -37.5l-77 -352h-117l77 352q-63 4 -105.5 21.5
t-68 45t-36 64.5t-10.5 82q0 40 6.5 85t17.5 94l182 824h117z" />
    <glyph glyph-name="lambda" unicode="&#x3bb;" horiz-adv-x="741" 
d="M29 0l506 1202h87l3 62q3 85 -23.5 142t-68.5 86l72 75q62 -36 99 -109t33 -183l-3 -73h2l-24 -1202h-120l28 1014h-4l3 80h-19l-451 -1094h-120z" />
    <glyph glyph-name="omicrontonos" unicode="&#x3cc;" horiz-adv-x="825" 
d="M803 1532l-68 -246h-98l45 246h121zM261 755q12 55 27 111t36.5 107.5t51.5 96t72.5 78t99 52.5t132.5 19q73 0 121 -18t76 -49.5t39.5 -74t11.5 -90.5q0 -55 -10.5 -114t-23.5 -117l-67 -308q-12 -55 -27 -111t-36.5 -107.5t-51 -96t-72 -78t-99.5 -52.5t-132 -19h-1
q-74 0 -121.5 18.5t-76 49.5t-39.5 73.5t-11 90.5q0 55 10 114t23 116zM656 1109q-72 0 -118.5 -28t-76.5 -76t-49 -113t-35 -139l-68 -306q-12 -56 -22 -108t-10 -97q0 -33 7.5 -60.5t25 -47t47.5 -30t75 -10.5q72 0 118 27.5t76 75.5t48 112.5t35 138.5l68 308
q13 57 23 109t10 97q0 33 -7.5 60t-25 46.5t-47 30t-74.5 10.5z" />
    <glyph glyph-name="etatonos" unicode="&#x3ae;" horiz-adv-x="891" 
d="M863 1532l-69 -246h-92l45 246h116zM574 -365l247 1121q13 58 24 112.5t11 100.5q0 31 -7 57t-24.5 44.5t-46 28.5t-71.5 10q-69 0 -117.5 -34t-82.5 -90t-56.5 -127t-38.5 -145l-157 -713h-117l264 1202h117l-34 -152q20 34 48.5 65t64 53.5t77 36t87.5 13.5
q63 0 104.5 -15.5t66 -43.5t34.5 -65.5t10 -81.5q0 -60 -13 -125.5t-27 -130.5l-247 -1121h-116z" />
    <glyph glyph-name="chi" unicode="&#x3c7;" horiz-adv-x="763" 
d="M613 0l-119 521l-349 -521h-117l420 625l-139 577h123l111 -480l324 480h115l-392 -577l146 -625h-123z" />
    <glyph glyph-name="omega" unicode="&#x3c9;" horiz-adv-x="1288" 
d="M874 779l-66 -297q-14 -64 -22 -119.5t-8 -100.5q0 -78 29.5 -121.5t103.5 -43.5q52 0 88 22t62.5 66t46 109.5t39.5 152.5l62 283q13 57 20.5 107.5t7.5 93.5q0 39 -8 71t-26.5 54.5t-48.5 35t-74 13.5l26 109q73 -2 121 -22t76.5 -53.5t40.5 -79t12 -99.5
q0 -53 -8.5 -110.5t-22.5 -117.5l-60 -273q-11 -49 -24.5 -103.5t-32.5 -107.5t-46 -101t-65.5 -84.5t-89.5 -58t-119 -21.5q-50 0 -86 13t-61.5 36t-41 53.5t-23.5 66.5q-24 -36 -53 -67t-64.5 -53.5t-76.5 -35.5t-89 -13q-60 0 -100 17.5t-63 47.5t-32.5 70t-9.5 86
q0 63 12.5 129t25.5 126l60 273q20 91 48.5 176.5t77 153t122 109t183.5 44.5l-22 -110q-69 -2 -117 -30.5t-81 -78t-55.5 -117.5t-40.5 -149l-62 -283q-16 -69 -25 -124.5t-9 -97.5q0 -64 25.5 -96t88.5 -32q58 0 101 27t75 77.5t55 121.5t43 159l65 297h116z" />
    <glyph glyph-name="omegatonos" unicode="&#x3ce;" horiz-adv-x="1244" 
d="M1010 1532l-66 -246h-99l43 246h122zM844 779l-66 -297q-14 -64 -22 -119.5t-8 -100.5q0 -78 29.5 -121.5t103.5 -43.5q52 0 88 22t62.5 66t46 109.5t39.5 152.5l62 283q13 57 20.5 107.5t7.5 93.5q0 39 -8 71t-26.5 54.5t-48.5 35t-74 13.5l26 109q73 -2 121 -22
t76.5 -53.5t40.5 -79t12 -99.5q0 -53 -8.5 -110.5t-22.5 -117.5l-60 -273q-11 -49 -24.5 -103.5t-32.5 -107.5t-46 -101t-65.5 -84.5t-89.5 -58t-119 -21.5q-50 0 -86 13t-61.5 36t-41 53.5t-23.5 66.5q-24 -36 -53 -67t-64.5 -53.5t-76.5 -35.5t-89 -13q-60 0 -100 17.5
t-63 47.5t-32.5 70t-9.5 86q0 63 12.5 129t25.5 126l60 273q20 91 48.5 176.5t77 153t122 109t183.5 44.5l-22 -110q-69 -2 -117 -30.5t-81 -78t-55.5 -117.5t-40.5 -149l-62 -283q-16 -69 -25 -124.5t-9 -97.5q0 -64 25.5 -96t88.5 -32q58 0 101 27t75 77.5t55 121.5
t43 159l65 297h116z" />
    <glyph glyph-name="epsilontonos" unicode="&#x3ad;" horiz-adv-x="883" 
d="M727 389h115l-2 -11q-10 -43 -22.5 -88.5t-32 -89.5t-48 -83t-70 -68.5t-98 -47t-131.5 -17.5q-74 0 -121.5 18t-76 49t-39.5 73t-11 91q0 55 10 114.5t23 117.5l62 285l25 110q18 74 45.5 142.5t73.5 120.5t114 83t166 31q76 0 125.5 -18t77.5 -48t39 -69.5t11 -83.5
t-7.5 -88t-15.5 -86l-3 -13h-116l2 13q9 37 16.5 74.5t7.5 71.5q0 29 -7.5 54t-26 43.5t-49.5 29t-78 10.5q-72 0 -118 -28t-76.5 -76t-49.5 -112.5t-35 -138.5l-21 -95l381 3l-23 -107l-381 -1l-15 -71q-15 -65 -26.5 -122t-13.5 -106q-1 -35 6 -64t24.5 -51t47.5 -34
t76 -12q71 0 116.5 23.5t74 63t44.5 91t28 107.5zM833 1532l-69 -246h-92l45 246h116z" />
    <glyph glyph-name="xi" unicode="&#x3be;" horiz-adv-x="945" 
d="M497 1057q-10 -43 -10 -80q0 -39 11.5 -66t31.5 -43.5t48 -23.5t60 -7h187l-24 -108h-185q-59 0 -108.5 -14t-87 -46.5t-62.5 -84.5t-34 -127l-13 -91q-3 -28 -5 -52t-2 -46q0 -91 36.5 -133.5t127.5 -40.5l45 -13l51 -97h-122q-66 0 -113.5 15t-78.5 47t-45.5 82.5
t-14.5 121.5q0 114 16 208.5t51 163.5t90.5 110.5t134.5 50.5q-54 16 -84 60.5t-30 117.5q0 44 12 98l18 83q18 89 43 161.5t69.5 124.5t116.5 80t185 28q78 0 127.5 -20t78.5 -53t40 -76.5t11 -91.5q0 -46 -7 -93t-16 -92l-3 -16h-117l3 15q8 44 14 84.5t6 75.5t-7.5 64
t-25.5 49.5t-49 32t-78 11.5h-3q-71 0 -117.5 -17.5t-76.5 -54t-48 -92t-33 -132.5zM533 -365l18 55q23 65 38.5 115t15.5 85q0 48 -35 71t-123 23q-17 0 -15.5 17t10 38t19 38t12.5 17q70 0 117.5 -12t77 -34.5t42.5 -54.5t13 -72q0 -48 -15.5 -106.5t-40.5 -124.5l-19 -55
h-115z" />
    <glyph glyph-name="upsilondieresis" unicode="&#x3cb;" horiz-adv-x="882" 
d="M1026 1202l-181 -824q-18 -82 -43.5 -152t-69 -122.5t-110.5 -83.5t-169 -35l-1 -1q-4 0 -7 0.5t-6 0.5t-6 -0.5t-6 -0.5l-1 1q-70 2 -117 18t-75 44t-39.5 66t-11.5 85q0 40 7 85t18 95l182 824h117l-180 -816q-11 -45 -17.5 -85t-6.5 -73q0 -31 8 -55t26.5 -41.5
t50 -27t79.5 -10.5q71 2 115.5 23.5t72.5 59.5t44 91t30 118l180 816h117zM594 1418q0 19 4.5 35.5t15 29t26.5 20t40 7.5q32 0 46 -13.5t14 -37.5q0 -92 -91 -92q-29 0 -42 13.5t-13 37.5zM786 1418q0 19 4.5 35.5t15 29t27 20t39.5 7.5q33 0 46.5 -13.5t13.5 -37.5
q0 -45 -21.5 -68.5t-69.5 -23.5q-29 0 -42 13.5t-13 37.5z" />
    <glyph glyph-name="upsilontonos" unicode="&#x3cd;" horiz-adv-x="882" 
d="M843 1532l-66 -246h-98l43 246h121zM1026 1202l-181 -824q-18 -82 -43.5 -152t-69 -122.5t-110.5 -83.5t-169 -35l-1 -1q-4 0 -7 0.5t-6 0.5t-6 -0.5t-6 -0.5l-1 1q-70 2 -117 18t-75 44t-39.5 66t-11.5 85q0 40 7 85t18 95l182 824h117l-180 -816q-11 -45 -17.5 -85
t-6.5 -73q0 -31 8 -55t26.5 -41.5t50 -27t79.5 -10.5q71 2 115.5 23.5t72.5 59.5t44 91t30 118l180 816h117z" />
    <glyph glyph-name="uni03C2" unicode="&#x3c2;" horiz-adv-x="882" 
d="M438 -16q-74 0 -121.5 18t-76 49t-39.5 73t-11 91q0 55 10 114.5t23 117.5l62 285q6 28 12 55t13 55q18 74 45.5 142.5t73.5 120.5t114 83t166 31q76 0 125.5 -18t77.5 -48t39 -69.5t11 -82.5q0 -44 -7.5 -88.5t-16.5 -86.5l-2 -13h-117l3 13q9 37 16.5 74.5t7.5 71.5
q0 29 -7.5 54t-26 43.5t-49.5 29t-78 10.5q-72 0 -118.5 -28t-76.5 -76t-49 -112.5t-35 -138.5l-60 -271q-14 -65 -25.5 -122t-13.5 -108q-1 -34 6 -63t25 -50.5t48.5 -33.5t77.5 -12zM524 -365l18 55q23 65 38.5 115t15.5 85q0 48 -35 71t-123 23q-17 0 -15.5 17t10 38
t19 38t12.5 17q70 0 117.5 -12t77 -34.5t42.5 -54.5t13 -72q0 -48 -15.5 -106.5t-40.5 -124.5l-19 -55h-115z" />
    <glyph glyph-name="zeta" unicode="&#x3b6;" horiz-adv-x="679" 
d="M292 1202h487l-25 -117l-411 -617q-44 -69 -65 -127t-21 -103q0 -69 45 -107t132 -44h1h1q7 -1 14 -1h15q2 0 3 -0.5t2 -0.5q58 -5 98 -18t64.5 -34t35.5 -49.5t11 -64.5q0 -47 -15.5 -104t-40.5 -125l-20 -55h-114l17 55q23 63 38 112t15 84q0 49 -35.5 73t-122.5 26
q-69 2 -120 20.5t-84 50t-49.5 73t-16.5 90.5q0 57 21.5 119.5t63.5 126.5l411 620h-360z" />
    <glyph glyph-name="delta" unicode="&#x3b4;" horiz-adv-x="824" 
d="M667 1462q-1 0 8.5 -14.5t25 -37.5t36 -52.5t41.5 -59.5l114 -162h-3q21 -30 29.5 -68.5t8.5 -81.5q0 -55 -10 -114t-23 -116l-67 -308q-12 -55 -27 -111t-36.5 -107.5t-51 -96t-72 -78t-99.5 -52.5t-132 -19q-74 0 -122 18t-76.5 49.5t-39.5 73.5t-11 91q0 55 10 114
t23 116l68 309q12 55 27 110.5t36.5 107t51 96.5t72 78t99.5 52.5t132 19.5h1h5l-167 243l11 54h1l11 51h530l-23 -105h-381zM656 1109q-72 0 -118.5 -28t-76.5 -76t-49 -113t-35 -139l-68 -306q-12 -56 -22 -108t-10 -97q0 -33 7.5 -60.5t25 -47t47.5 -30t75 -10.5
q72 0 118 27.5t76 75.5t48 112.5t35 138.5l68 308q13 57 23 109t10 97q0 33 -7.5 60t-25 46.5t-47 30t-74.5 10.5z" />
    <glyph glyph-name="_480" horiz-adv-x="894" 
d="M531 -365l18 55q23 65 38.5 115t15.5 85q0 48 -35 71t-123 23q-17 0 -15.5 17t10 38t19 38t12.5 17q70 0 117.5 -12t77 -34.5t42.5 -54.5t13 -72q0 -48 -15.5 -106.5t-40.5 -124.5l-19 -55h-115z" />
    <glyph glyph-name="aacute" unicode="&#xe1;" horiz-adv-x="867" 
d="M619 0l28 129q-38 -65 -97 -105.5t-151 -40.5q-69 0 -113.5 17t-71 47t-37 70.5t-10.5 87.5q0 57 11 119t24 122l67 309q13 59 27.5 116t35 108.5t49 95t68.5 75.5t94 50t126 18h1q45 0 77.5 -11t54.5 -31t34.5 -47t17.5 -60l29 133h117l-265 -1202h-116zM435 91
q65 0 110.5 28t77.5 74.5t53 107.5t37 128l61 275l3 15q13 60 24.5 119t11.5 111q0 35 -7 64.5t-24.5 51t-46 33.5t-71.5 12q-72 0 -119 -31t-78 -81.5t-49.5 -114t-32.5 -129.5l-67 -308q-14 -66 -25.5 -121.5t-11.5 -100.5q0 -32 7.5 -56.5t25.5 -41.5t47.5 -26t73.5 -9z
M955 1532l-205 -246h-98l182 246h121z" />
    <glyph glyph-name="abreve" unicode="&#x103;" horiz-adv-x="867" 
d="M619 0l28 129q-38 -65 -97 -105.5t-151 -40.5q-69 0 -113.5 17t-71 47t-37 70.5t-10.5 87.5q0 57 11 119t24 122l67 309q13 59 27.5 116t35 108.5t49 95t68.5 75.5t94 50t126 18h1q45 0 77.5 -11t54.5 -31t34.5 -47t17.5 -60l29 133h117l-265 -1202h-116zM435 91
q65 0 110.5 28t77.5 74.5t53 107.5t37 128l61 275l3 15q13 60 24.5 119t11.5 111q0 35 -7 64.5t-24.5 51t-46 33.5t-71.5 12q-72 0 -119 -31t-78 -81.5t-49.5 -114t-32.5 -129.5l-67 -308q-14 -66 -25.5 -121.5t-11.5 -100.5q0 -32 7.5 -56.5t25.5 -41.5t47.5 -26t73.5 -9z
M985 1497q-28 -97 -97.5 -154.5t-181.5 -57.5q-50 0 -86.5 12t-59.5 33.5t-34 51.5t-11 66q0 26 4 49h81q-1 -8 -1.5 -15t-0.5 -14q0 -52 29.5 -79t95.5 -27q72 0 116 34.5t65 100.5h81z" />
    <glyph glyph-name="Aogonek" unicode="&#x104;" horiz-adv-x="802" 
d="M639 1521h181l-36 -1521h-120l12 366h-401l-148 -366h-120zM319 473h361l31 939h-11zM804 -348q-20 -14 -52.5 -24t-72.5 -10q-30 0 -56.5 8t-46 24.5t-31 43t-11.5 64.5q0 59 19.5 103t50 76t67.5 54t72 38l57 -29q-28 -16 -55.5 -36.5t-49.5 -47.5t-35.5 -60t-13.5 -75
q0 -35 17.5 -54.5t55.5 -19.5q32 0 53.5 5.5t38.5 15.5z" />
    <glyph glyph-name="Aring" unicode="&#xc5;" horiz-adv-x="802" 
d="M639 1521h181l-36 -1521h-120l12 366h-401l-148 -366h-120zM319 473h361l31 939h-11zM635 1722q0 38 10 72.5t32.5 60t57 40.5t84.5 15q71 0 100 -28.5t29 -77.5q0 -188 -193 -188q-63 0 -91.5 28.5t-28.5 77.5zM724 1745q0 -22 12 -35t39 -13q84 0 84 84q0 21 -12 33.5
t-43 12.5q-22 0 -37 -7t-24.5 -18.5t-14 -26t-4.5 -30.5z" />
    <glyph glyph-name="Abreve" unicode="&#x102;" horiz-adv-x="802" 
d="M639 1521h181l-36 -1521h-120l12 366h-401l-148 -366h-120zM319 473h361l31 939h-11zM1037 1816q-28 -97 -97.5 -154.5t-181.5 -57.5q-50 0 -86.5 12t-59.5 33.5t-34 51.5t-11 66q0 26 4 49h81q-1 -8 -1.5 -15t-0.5 -14q0 -52 29.5 -79t95.5 -27q72 0 116 34.5t65 100.5
h81z" />
    <glyph glyph-name="Agrave" unicode="&#xc0;" horiz-adv-x="802" 
d="M639 1521h181l-36 -1521h-120l12 366h-401l-148 -366h-120zM319 473h361l31 939h-11zM730 1851l74 -246h-95l-96 246h117z" />
    <glyph glyph-name="Atilde" unicode="&#xc3;" horiz-adv-x="802" 
d="M639 1521h181l-36 -1521h-120l12 366h-401l-148 -366h-120zM319 473h361l31 939h-11zM1045 1784q-42 -56 -82.5 -86.5t-88.5 -30.5q-32 0 -55.5 11t-43.5 24.5t-40 24.5t-44 11q-26 0 -51.5 -14.5t-54.5 -47.5l-53 36q47 59 88 88.5t89 29.5q31 0 55.5 -11.5t45.5 -25
t41 -25t44 -11.5q22 0 45 16t52 47z" />
    <glyph glyph-name="Amacron" unicode="&#x100;" horiz-adv-x="802" 
d="M639 1521h181l-36 -1521h-120l12 366h-401l-148 -366h-120zM319 473h361l31 939h-11zM579 1707l22 99h402l-21 -99h-403z" />
    <glyph glyph-name="Adieresis" unicode="&#xc4;" horiz-adv-x="802" 
d="M639 1521h181l-36 -1521h-120l12 366h-401l-148 -366h-120zM319 473h361l31 939h-11zM617 1708q0 19 4.5 35.5t15 29t26.5 20t40 7.5q32 0 46 -13.5t14 -37.5q0 -92 -91 -92q-29 0 -42 13.5t-13 37.5zM809 1708q0 19 4.5 35.5t15 29t27 20t39.5 7.5q33 0 46.5 -13.5
t13.5 -37.5q0 -45 -21.5 -68.5t-69.5 -23.5q-29 0 -42 13.5t-13 37.5z" />
    <glyph glyph-name="Acircumflex" unicode="&#xc2;" horiz-adv-x="802" 
d="M639 1521h181l-36 -1521h-120l12 366h-401l-148 -366h-120zM319 473h361l31 939h-11zM562 1604l187 229h118l86 -229h-110l-51 155l-119 -155h-111z" />
    <glyph glyph-name="A.fat" horiz-adv-x="858" 
d="M704 0l11 366h-411l-149 -366h-122l628 1520h206l-42 -1520h-121zM348 473h371l29 909h-28z" />
    <glyph glyph-name="AEacute" unicode="&#x1fc;" horiz-adv-x="1299" 
d="M1201 1851l-205 -246h-98l182 246h121zM8 0l764 1519h117l426 1l-24 -112l-343 -1l-126 -570h274l-24 -110h-274l-136 -616h343l-24 -111h-460l80 366h-296l-181 -366h-116zM625 473l206 939h-8l-465 -939h267z" />
    <glyph glyph-name="Hbar" unicode="&#x126;" horiz-adv-x="934" 
d="M141 0l335 1520h118l-154 -699h417l154 699h117l-334 -1520h-118l156 710h-416l-156 -710h-119zM641 1707l22 99h402l-21 -99h-403z" />
    <glyph glyph-name="Ncommaaccent" unicode="&#x145;" horiz-adv-x="933" 
d="M141 0l335 1520h187l81 -1368l298 1368h117l-328 -1520h-184l-90 1375l-297 -1375h-119zM382 -146q0 40 20.5 63.5t65.5 23.5q33 0 47 -17t14 -43q0 -33 -10.5 -65t-26.5 -61.5t-35.5 -55t-37.5 -46.5l-48 26q15 19 25.5 35t19 31t14.5 29.5t11 31.5q-59 0 -59 48z" />
    <glyph glyph-name="Nacute" unicode="&#x143;" horiz-adv-x="933" 
d="M141 0l335 1520h187l81 -1368l298 1368h117l-328 -1520h-184l-90 1375l-297 -1375h-119zM1085 1850l-205 -246h-98l182 246h121z" />
    <glyph glyph-name="Ncaron" unicode="&#x147;" horiz-adv-x="933" 
d="M141 0l335 1520h187l81 -1368l298 1368h117l-328 -1520h-184l-90 1375l-297 -1375h-119zM814 1833l49 -155l121 155h110l-188 -229h-118l-86 229h112z" />
    <glyph glyph-name="Ntilde" unicode="&#xd1;" horiz-adv-x="933" 
d="M1136 1784q-42 -56 -82.5 -86.5t-88.5 -30.5q-32 0 -55.5 11t-43.5 24.5t-40 24.5t-44 11q-26 0 -51.5 -14.5t-54.5 -47.5l-53 36q47 59 88 88.5t89 29.5q31 0 55.5 -11.5t45.5 -25t41 -25t44 -11.5q22 0 45 16t52 47zM141 0l335 1520h187l81 -1368l298 1368h117
l-328 -1520h-184l-90 1375l-297 -1375h-119z" />
    <glyph glyph-name="Hcircumflex" unicode="&#x124;" horiz-adv-x="934" 
d="M141 0l335 1520h118l-154 -699h417l154 699h117l-334 -1520h-118l156 710h-416l-156 -710h-119zM625 1604l187 229h118l86 -229h-110l-51 155l-119 -155h-111z" />
    <glyph glyph-name="Icircumflex" unicode="&#xce;" horiz-adv-x="402" 
d="M143 0l334 1520h119l-335 -1520h-118zM347 1604l187 229h118l86 -229h-110l-51 155l-119 -155h-111z" />
    <glyph glyph-name="Imacron" unicode="&#x12a;" horiz-adv-x="402" 
d="M143 0l334 1520h119l-335 -1520h-118zM365 1707l22 99h402l-21 -99h-403z" />
    <glyph glyph-name="Iogonek" unicode="&#x12e;" horiz-adv-x="402" 
d="M143 0l334 1520h119l-335 -1520h-118zM253 -348q-20 -14 -52.5 -24t-72.5 -10q-30 0 -56.5 8t-46 24.5t-31 43t-11.5 64.5q0 59 19.5 103t50 76t67.5 54t72 38l57 -29q-28 -16 -55.5 -36.5t-49.5 -47.5t-35.5 -60t-13.5 -75q0 -35 17.5 -54.5t55.5 -19.5q32 0 53.5 5.5
t38.5 15.5z" />
    <glyph glyph-name="Iacute" unicode="&#xcd;" horiz-adv-x="402" 
d="M143 0l334 1520h119l-335 -1520h-118zM793 1851l-205 -246h-98l182 246h121z" />
    <glyph glyph-name="Ibreve" unicode="&#x12c;" horiz-adv-x="402" 
d="M143 0l334 1520h119l-335 -1520h-118zM824 1816q-28 -97 -97.5 -154.5t-181.5 -57.5q-50 0 -86.5 12t-59.5 33.5t-34 51.5t-11 66q0 26 4 49h81q-1 -8 -1.5 -15t-0.5 -14q0 -52 29.5 -79t95.5 -27q72 0 116 34.5t65 100.5h81z" />
    <glyph glyph-name="Igrave" unicode="&#xcc;" horiz-adv-x="402" 
d="M143 0l334 1520h119l-335 -1520h-118zM515 1851l74 -246h-95l-96 246h117z" />
    <glyph glyph-name="Itilde" unicode="&#x128;" horiz-adv-x="402" 
d="M143 0l334 1520h119l-335 -1520h-118zM832 1784q-42 -56 -82.5 -86.5t-88.5 -30.5q-32 0 -55.5 11t-43.5 24.5t-40 24.5t-44 11q-26 0 -51.5 -14.5t-54.5 -47.5l-53 36q47 59 88 88.5t89 29.5q31 0 55.5 -11.5t45.5 -25t41 -25t44 -11.5q22 0 45 16t52 47z" />
    <glyph glyph-name="Idieresis" unicode="&#xcf;" horiz-adv-x="402" 
d="M143 0l334 1520h119l-335 -1520h-118zM401 1708q0 19 4.5 35.5t15 29t26.5 20t40 7.5q32 0 46 -13.5t14 -37.5q0 -92 -91 -92q-29 0 -42 13.5t-13 37.5zM593 1708q0 19 4.5 35.5t15 29t27 20t39.5 7.5q33 0 46.5 -13.5t13.5 -37.5q0 -45 -21.5 -68.5t-69.5 -23.5
q-29 0 -42 13.5t-13 37.5z" />
    <glyph glyph-name="afii10027" unicode="&#x419;" horiz-adv-x="934" 
d="M712 0l305 1371l-693 -1371h-185l341 1520h118l-304 -1368l683 1368h187l-334 -1520h-118zM1142 1816q-28 -97 -97 -154.5t-182 -57.5q-100 0 -145 44.5t-45 117.5q0 12 1 24.5t3 25.5h80q-8 -66 20.5 -100.5t102.5 -34.5q72 0 116 34.5t65 100.5h81z" />
    <glyph glyph-name="Idotaccent" unicode="&#x130;" horiz-adv-x="402" 
d="M143 0l334 1520h119l-335 -1520h-118zM487 1704q0 42 22 69.5t75 27.5q36 0 51.5 -14t15.5 -40q0 -98 -101 -98q-32 0 -47.5 14.5t-15.5 40.5z" />
    <glyph glyph-name="Emacron" unicode="&#x112;" horiz-adv-x="745" 
d="M135 0l334 1519l565 1l-25 -112l-448 -1l-125 -570h378l-24 -110h-378l-136 -616h447l-24 -111h-564zM582 1707l22 99h402l-21 -99h-403z" />
    <glyph glyph-name="Eogonek" unicode="&#x118;" horiz-adv-x="745" 
d="M135 0l334 1519l565 1l-25 -112l-448 -1l-125 -570h378l-24 -110h-378l-136 -616h447l-24 -111h-564zM702 -348q-20 -14 -52.5 -24t-72.5 -10q-30 0 -56.5 8t-46 24.5t-31 43t-11.5 64.5q0 59 19.5 103t50 76t67.5 54t72 38l57 -29q-28 -16 -55.5 -36.5t-49.5 -47.5
t-35.5 -60t-13.5 -75q0 -35 17.5 -54.5t55.5 -19.5q32 0 53.5 5.5t38.5 15.5z" />
    <glyph glyph-name="Rcommaaccent" unicode="&#x156;" horiz-adv-x="886" 
d="M142 0l334 1519h311q138 0 203 -50.5t65 -169.5q0 -35 -5.5 -77t-16.5 -91l-31 -144q-24 -109 -94 -191t-168 -123q51 -37 73.5 -86t22.5 -125q0 -17 -1 -35t-3 -38l-24 -222q-1 -11 -1.5 -22t-0.5 -22q0 -34 4 -65t10 -58h-124q-5 21 -7.5 47t-2.5 56q0 29 3 61l24 221
q3 25 3 47q0 54 -13.5 93t-35.5 64.5t-49.5 38t-54.5 12.5h-163l-140 -640h-118zM916 1133q9 40 13 72.5t4 58.5q0 48 -13 76t-35.5 43t-53.5 19.5t-67 4.5h-195l-145 -656h192q49 0 93 18.5t79 50.5t59.5 75t35.5 92zM365 -146q0 40 20.5 63.5t65.5 23.5q33 0 47 -17
t14 -43q0 -33 -10.5 -65t-26.5 -61.5t-35.5 -55t-37.5 -46.5l-48 26q15 19 25.5 35t19 31t14.5 29.5t11 31.5q-59 0 -59 48z" />
    <glyph glyph-name="Dcaron" unicode="&#x10e;" horiz-adv-x="881" 
d="M791 1519q76 0 126 -19t79.5 -52t41.5 -77.5t12 -96.5q0 -48 -8 -99t-19 -104l-137 -624q-19 -84 -47 -164.5t-76.5 -143t-122.5 -101t-184 -38.5h-316l335 1519h316zM567 1407l-286 -1296h196h4q58 0 103 18.5t80 59t61 104.5t46 155l136 622q23 104 23 171
q0 84 -36 123.5t-114 42.5h-3h-11h-199zM748 1833l49 -155l121 155h110l-188 -229h-118l-86 229h112z" />
    <glyph glyph-name="Edotaccent" unicode="&#x116;" horiz-adv-x="745" 
d="M135 0l334 1519l565 1l-25 -112l-448 -1l-125 -570h378l-24 -110h-378l-136 -616h447l-24 -111h-564zM712 1704q0 42 22 69.5t75 27.5q36 0 51.5 -14t15.5 -40q0 -98 -101 -98q-32 0 -47.5 14.5t-15.5 40.5z" />
    <glyph glyph-name="Eacute" unicode="&#xc9;" horiz-adv-x="745" 
d="M135 0l334 1519l565 1l-25 -112l-448 -1l-125 -570h378l-24 -110h-378l-136 -616h447l-24 -111h-564zM1016 1851l-205 -246h-98l182 246h121z" />
    <glyph glyph-name="Ebreve" unicode="&#x114;" horiz-adv-x="745" 
d="M135 0l334 1519l565 1l-25 -112l-448 -1l-125 -570h378l-24 -110h-378l-136 -616h447l-24 -111h-564zM1040 1816q-28 -97 -97.5 -154.5t-181.5 -57.5q-50 0 -86.5 12t-59.5 33.5t-34 51.5t-11 66q0 26 4 49h81q-1 -8 -1.5 -15t-0.5 -14q0 -52 29.5 -79t95.5 -27
q72 0 116 34.5t65 100.5h81z" />
    <glyph glyph-name="Ecaron" unicode="&#x11a;" horiz-adv-x="745" 
d="M135 0l334 1519l565 1l-25 -112l-448 -1l-125 -570h378l-24 -110h-378l-136 -616h447l-24 -111h-564zM727 1833l49 -155l121 155h110l-188 -229h-118l-86 229h112z" />
    <glyph glyph-name="Egrave" unicode="&#xc8;" horiz-adv-x="745" 
d="M135 0l334 1519l565 1l-25 -112l-448 -1l-125 -570h378l-24 -110h-378l-136 -616h447l-24 -111h-564zM739 1851l74 -246h-95l-96 246h117z" />
    <glyph glyph-name="Lacute" unicode="&#x139;" horiz-adv-x="707" 
d="M140 0l335 1520h117l-310 -1408h436l-24 -112h-554zM801 1851l-205 -246h-98l182 246h121z" />
    <glyph glyph-name="Lcaron" unicode="&#x13d;" horiz-adv-x="707" 
d="M140 0l335 1520h117l-310 -1408h436l-24 -112h-554zM518 1827l49 -155l121 155h110l-188 -229h-118l-86 229h112z" />
    <glyph glyph-name="Racute" unicode="&#x154;" horiz-adv-x="886" 
d="M142 0l334 1519h311q138 0 203 -50.5t65 -169.5q0 -35 -5.5 -77t-16.5 -91l-31 -144q-24 -109 -94 -191t-168 -123q51 -37 73.5 -86t22.5 -125q0 -17 -1 -35t-3 -38l-24 -222q-1 -11 -1.5 -22t-0.5 -22q0 -34 4 -65t10 -58h-124q-5 21 -7.5 47t-2.5 56q0 29 3 61l24 221
q3 25 3 47q0 54 -13.5 93t-35.5 64.5t-49.5 38t-54.5 12.5h-163l-140 -640h-118zM916 1133q9 40 13 72.5t4 58.5q0 48 -13 76t-35.5 43t-53.5 19.5t-67 4.5h-195l-145 -656h192q49 0 93 18.5t79 50.5t59.5 75t35.5 92zM1009 1851l-205 -246h-98l182 246h121z" />
    <glyph glyph-name="Rcaron" unicode="&#x158;" horiz-adv-x="886" 
d="M142 0l334 1519h311q138 0 203 -50.5t65 -169.5q0 -35 -5.5 -77t-16.5 -91l-31 -144q-24 -109 -94 -191t-168 -123q51 -37 73.5 -86t22.5 -125q0 -17 -1 -35t-3 -38l-24 -222q-1 -11 -1.5 -22t-0.5 -22q0 -34 4 -65t10 -58h-124q-5 21 -7.5 47t-2.5 56q0 29 3 61l24 221
q3 25 3 47q0 54 -13.5 93t-35.5 64.5t-49.5 38t-54.5 12.5h-163l-140 -640h-118zM916 1133q9 40 13 72.5t4 58.5q0 48 -13 76t-35.5 43t-53.5 19.5t-67 4.5h-195l-145 -656h192q49 0 93 18.5t79 50.5t59.5 75t35.5 92zM735 1833l49 -155l121 155h110l-188 -229h-118l-86 229
h112z" />
    <glyph glyph-name="Edieresis" unicode="&#xcb;" horiz-adv-x="745" 
d="M135 0l334 1519l565 1l-25 -112l-448 -1l-125 -570h378l-24 -110h-378l-136 -616h447l-24 -111h-564zM624 1708q0 19 4.5 35.5t15 29t26.5 20t40 7.5q32 0 46 -13.5t14 -37.5q0 -92 -91 -92q-29 0 -42 13.5t-13 37.5zM816 1708q0 19 4.5 35.5t15 29t27 20t39.5 7.5
q33 0 46.5 -13.5t13.5 -37.5q0 -45 -21.5 -68.5t-69.5 -23.5q-29 0 -42 13.5t-13 37.5z" />
    <glyph glyph-name="Ecircumflex" unicode="&#xca;" horiz-adv-x="745" 
d="M135 0l334 1519l565 1l-25 -112l-448 -1l-125 -570h378l-24 -110h-378l-136 -616h447l-24 -111h-564zM564 1604l187 229h118l86 -229h-110l-51 155l-119 -155h-111z" />
    <glyph glyph-name="Ldot" unicode="&#x13f;" horiz-adv-x="707" 
d="M657 700q0 42 22 69.5t74 27.5q37 0 52.5 -14.5t15.5 -40.5q0 -98 -101 -98q-33 0 -48 15t-15 41zM140 0l335 1520h117l-310 -1408h436l-24 -112h-554z" />
    <glyph glyph-name="Cacute" unicode="&#x106;" horiz-adv-x="836" 
d="M857 442l-7 -31q-9 -47 -23.5 -97t-36.5 -97.5t-54 -90t-76.5 -74t-102.5 -50t-133 -18.5q-77 0 -127 19.5t-79.5 52.5t-41.5 78t-12 96t8.5 103.5t19.5 105.5l141 641q12 55 28 110t39 105.5t54.5 94.5t75.5 76t101.5 51t132.5 19h1q78 0 129 -20t81 -54t42 -78t12 -93
q0 -46 -7.5 -92t-18.5 -89l-7 -31h-117l7 30q11 42 17.5 81t6.5 74q0 36 -8.5 65.5t-28 51t-52 33.5t-80.5 12q-72 0 -120 -26.5t-80 -73.5t-52.5 -110.5t-36.5 -137.5l-141 -637q-11 -51 -19 -98t-8 -89q0 -36 8 -65t26.5 -50t50 -32.5t79.5 -11.5q69 0 116.5 24t80 67
t53 100.5t34.5 125.5l6 30h119zM1009 1851l-205 -246h-98l182 246h121z" />
    <glyph glyph-name="Ccaron" unicode="&#x10c;" horiz-adv-x="836" 
d="M857 442l-7 -31q-9 -47 -23.5 -97t-36.5 -97.5t-54 -90t-76.5 -74t-102.5 -50t-133 -18.5q-77 0 -127 19.5t-79.5 52.5t-41.5 78t-12 96t8.5 103.5t19.5 105.5l141 641q12 55 28 110t39 105.5t54.5 94.5t75.5 76t101.5 51t132.5 19h1q78 0 129 -20t81 -54t42 -78t12 -93
q0 -46 -7.5 -92t-18.5 -89l-7 -31h-117l7 30q11 42 17.5 81t6.5 74q0 36 -8.5 65.5t-28 51t-52 33.5t-80.5 12q-72 0 -120 -26.5t-80 -73.5t-52.5 -110.5t-36.5 -137.5l-141 -637q-11 -51 -19 -98t-8 -89q0 -36 8 -65t26.5 -50t50 -32.5t79.5 -11.5q69 0 116.5 24t80 67
t53 100.5t34.5 125.5l6 30h119zM727 1833l49 -155l121 155h110l-188 -229h-118l-86 229h112z" />
    <glyph glyph-name="Ccedilla" unicode="&#xc7;" horiz-adv-x="836" 
d="M857 442l-7 -31q-9 -47 -23.5 -97t-36.5 -97.5t-54 -90t-76.5 -74t-102.5 -50t-133 -18.5q-77 0 -127 19.5t-79.5 52.5t-41.5 78t-12 96t8.5 103.5t19.5 105.5l141 641q12 55 28 110t39 105.5t54.5 94.5t75.5 76t101.5 51t132.5 19h1q78 0 129 -20t81 -54t42 -78t12 -93
q0 -46 -7.5 -92t-18.5 -89l-7 -31h-117l7 30q11 42 17.5 81t6.5 74q0 36 -8.5 65.5t-28 51t-52 33.5t-80.5 12q-72 0 -120 -26.5t-80 -73.5t-52.5 -110.5t-36.5 -137.5l-141 -637q-11 -51 -19 -98t-8 -89q0 -36 8 -65t26.5 -50t50 -32.5t79.5 -11.5q69 0 116.5 24t80 67
t53 100.5t34.5 125.5l6 30h119zM238 -203q11 -10 21.5 -17.5t22.5 -13t28 -8t38 -2.5q45 0 71 19t26 51q0 12 -7 20t-18 13.5t-25 8t-28 2.5q-10 0 -19 -1t-17 -3l32 157h78l-21 -89q5 0 11 1q5 1 12.5 1.5t15.5 0.5q16 0 31.5 -6t27.5 -18t19 -29t7 -39q0 -42 -18 -72.5
t-48 -50.5t-67.5 -29.5t-76.5 -9.5q-100 0 -134 59z" />
    <glyph glyph-name="Ccircumflex" unicode="&#x108;" horiz-adv-x="836" 
d="M857 442l-7 -31q-9 -47 -23.5 -97t-36.5 -97.5t-54 -90t-76.5 -74t-102.5 -50t-133 -18.5q-77 0 -127 19.5t-79.5 52.5t-41.5 78t-12 96t8.5 103.5t19.5 105.5l141 641q12 55 28 110t39 105.5t54.5 94.5t75.5 76t101.5 51t132.5 19h1q78 0 129 -20t81 -54t42 -78t12 -93
q0 -46 -7.5 -92t-18.5 -89l-7 -31h-117l7 30q11 42 17.5 81t6.5 74q0 36 -8.5 65.5t-28 51t-52 33.5t-80.5 12q-72 0 -120 -26.5t-80 -73.5t-52.5 -110.5t-36.5 -137.5l-141 -637q-11 -51 -19 -98t-8 -89q0 -36 8 -65t26.5 -50t50 -32.5t79.5 -11.5q69 0 116.5 24t80 67
t53 100.5t34.5 125.5l6 30h119zM565 1604l187 229h118l86 -229h-110l-51 155l-119 -155h-111z" />
    <glyph glyph-name="Cdotaccent" unicode="&#x10a;" horiz-adv-x="836" 
d="M857 442l-7 -31q-9 -47 -23.5 -97t-36.5 -97.5t-54 -90t-76.5 -74t-102.5 -50t-133 -18.5q-77 0 -127 19.5t-79.5 52.5t-41.5 78t-12 96t8.5 103.5t19.5 105.5l141 641q12 55 28 110t39 105.5t54.5 94.5t75.5 76t101.5 51t132.5 19h1q78 0 129 -20t81 -54t42 -78t12 -93
q0 -46 -7.5 -92t-18.5 -89l-7 -31h-117l7 30q11 42 17.5 81t6.5 74q0 36 -8.5 65.5t-28 51t-52 33.5t-80.5 12q-72 0 -120 -26.5t-80 -73.5t-52.5 -110.5t-36.5 -137.5l-141 -637q-11 -51 -19 -98t-8 -89q0 -36 8 -65t26.5 -50t50 -32.5t79.5 -11.5q69 0 116.5 24t80 67
t53 100.5t34.5 125.5l6 30h119zM707 1704q0 42 22 69.5t75 27.5q36 0 51.5 -14t15.5 -40q0 -98 -101 -98q-32 0 -47.5 14.5t-15.5 40.5z" />
    <glyph glyph-name="Gbreve" unicode="&#x11e;" horiz-adv-x="847" 
d="M583 760h343l-77 -349q-10 -47 -25 -97t-37.5 -97.5t-54 -90t-75.5 -74t-101.5 -50t-132.5 -18.5h-1q-77 0 -127 19.5t-79 52.5t-41 77.5t-12 95.5t8.5 104t20.5 107l140 640q12 55 28 110t39 105.5t54.5 94.5t75.5 76.5t102 51t133 18.5h1q78 0 129 -20t81 -54t42 -78.5
t12 -93.5q0 -45 -7.5 -91t-18.5 -89l-7 -31h-118l7 30q11 42 17.5 81.5t6.5 74.5t-8.5 64.5t-28 51t-52 33.5t-80.5 12q-72 0 -120 -27t-80 -73.5t-52.5 -110t-36.5 -137.5l-141 -637q-11 -51 -19 -98t-8 -89q0 -36 8 -65t26.5 -50t50 -32.5t79.5 -11.5q69 0 116.5 24.5
t79.5 67t52.5 100.5t35.5 125l52 238h-223zM1060 1816q-28 -97 -97.5 -154.5t-181.5 -57.5q-50 0 -86.5 12t-59.5 33.5t-34 51.5t-11 66q0 26 4 49h81q-1 -8 -1.5 -15t-0.5 -14q0 -52 29.5 -79t95.5 -27q72 0 116 34.5t65 100.5h81z" />
    <glyph glyph-name="Gcircumflex" unicode="&#x11c;" horiz-adv-x="847" 
d="M583 760h343l-77 -349q-10 -47 -25 -97t-37.5 -97.5t-54 -90t-75.5 -74t-101.5 -50t-132.5 -18.5h-1q-77 0 -127 19.5t-79 52.5t-41 77.5t-12 95.5t8.5 104t20.5 107l140 640q12 55 28 110t39 105.5t54.5 94.5t75.5 76.5t102 51t133 18.5h1q78 0 129 -20t81 -54t42 -78.5
t12 -93.5q0 -45 -7.5 -91t-18.5 -89l-7 -31h-118l7 30q11 42 17.5 81.5t6.5 74.5t-8.5 64.5t-28 51t-52 33.5t-80.5 12q-72 0 -120 -27t-80 -73.5t-52.5 -110t-36.5 -137.5l-141 -637q-11 -51 -19 -98t-8 -89q0 -36 8 -65t26.5 -50t50 -32.5t79.5 -11.5q69 0 116.5 24.5
t79.5 67t52.5 100.5t35.5 125l52 238h-223zM584 1604l187 229h118l86 -229h-110l-51 155l-119 -155h-111z" />
    <glyph glyph-name="Gcommaaccent" unicode="&#x122;" horiz-adv-x="847" 
d="M583 760h343l-77 -349q-10 -47 -25 -97t-37.5 -97.5t-54 -90t-75.5 -74t-101.5 -50t-132.5 -18.5h-1q-77 0 -127 19.5t-79 52.5t-41 77.5t-12 95.5t8.5 104t20.5 107l140 640q12 55 28 110t39 105.5t54.5 94.5t75.5 76.5t102 51t133 18.5h1q78 0 129 -20t81 -54t42 -78.5
t12 -93.5q0 -45 -7.5 -91t-18.5 -89l-7 -31h-118l7 30q11 42 17.5 81.5t6.5 74.5t-8.5 64.5t-28 51t-52 33.5t-80.5 12q-72 0 -120 -27t-80 -73.5t-52.5 -110t-36.5 -137.5l-141 -637q-11 -51 -19 -98t-8 -89q0 -36 8 -65t26.5 -50t50 -32.5t79.5 -11.5q69 0 116.5 24.5
t79.5 67t52.5 100.5t35.5 125l52 238h-223zM323 -146q0 40 20.5 63.5t65.5 23.5q33 0 47 -17t14 -43q0 -33 -10.5 -65t-26.5 -61.5t-35.5 -55t-37.5 -46.5l-48 26q15 19 25.5 35t19 31t14.5 29.5t11 31.5q-59 0 -59 48z" />
    <glyph glyph-name="Gdotaccent" unicode="&#x120;" horiz-adv-x="847" 
d="M583 760h343l-77 -349q-10 -47 -25 -97t-37.5 -97.5t-54 -90t-75.5 -74t-101.5 -50t-132.5 -18.5h-1q-77 0 -127 19.5t-79 52.5t-41 77.5t-12 95.5t8.5 104t20.5 107l140 640q12 55 28 110t39 105.5t54.5 94.5t75.5 76.5t102 51t133 18.5h1q78 0 129 -20t81 -54t42 -78.5
t12 -93.5q0 -45 -7.5 -91t-18.5 -89l-7 -31h-118l7 30q11 42 17.5 81.5t6.5 74.5t-8.5 64.5t-28 51t-52 33.5t-80.5 12q-72 0 -120 -27t-80 -73.5t-52.5 -110t-36.5 -137.5l-141 -637q-11 -51 -19 -98t-8 -89q0 -36 8 -65t26.5 -50t50 -32.5t79.5 -11.5q69 0 116.5 24.5
t79.5 67t52.5 100.5t35.5 125l52 238h-223zM723 1704q0 42 22 69.5t75 27.5q36 0 51.5 -14t15.5 -40q0 -98 -101 -98q-32 0 -47.5 14.5t-15.5 40.5z" />
    <glyph glyph-name="Oacute" unicode="&#xd3;" horiz-adv-x="858" 
d="M767 1536q77 0 127 -19t79.5 -52t41.5 -77.5t12 -95.5t-8.5 -104.5t-20.5 -106.5l-140 -640q-12 -55 -28 -110.5t-39 -106t-54.5 -94.5t-75.5 -76.5t-102 -51t-133 -18.5h-1q-77 0 -127 19.5t-79.5 52.5t-41.5 78t-12 96t8.5 103.5t19.5 105.5l141 641q12 55 28 110
t38.5 106t54.5 94.5t76 76t102 51t133 18.5h1zM742 1426q-72 0 -120 -26.5t-80 -73.5t-53 -110.5t-37 -136.5l-140 -638q-11 -51 -19.5 -98t-8.5 -89q0 -35 8 -64.5t27 -50.5t50.5 -32.5t79.5 -11.5q72 0 120.5 26.5t81 73.5t53 110.5t36.5 137.5l140 637q11 51 19.5 98
t8.5 88q0 35 -8 64.5t-26.5 50.5t-50 33t-78.5 12h-3zM1029 1851l-205 -246h-98l182 246h121z" />
    <glyph glyph-name="Obreve" unicode="&#x14e;" horiz-adv-x="858" 
d="M767 1536q77 0 127 -19t79.5 -52t41.5 -77.5t12 -95.5t-8.5 -104.5t-20.5 -106.5l-140 -640q-12 -55 -28 -110.5t-39 -106t-54.5 -94.5t-75.5 -76.5t-102 -51t-133 -18.5h-1q-77 0 -127 19.5t-79.5 52.5t-41.5 78t-12 96t8.5 103.5t19.5 105.5l141 641q12 55 28 110
t38.5 106t54.5 94.5t76 76t102 51t133 18.5h1zM742 1426q-72 0 -120 -26.5t-80 -73.5t-53 -110.5t-37 -136.5l-140 -638q-11 -51 -19.5 -98t-8.5 -89q0 -35 8 -64.5t27 -50.5t50.5 -32.5t79.5 -11.5q72 0 120.5 26.5t81 73.5t53 110.5t36.5 137.5l140 637q11 51 19.5 98
t8.5 88q0 35 -8 64.5t-26.5 50.5t-50 33t-78.5 12h-3zM1062 1816q-28 -97 -97.5 -154.5t-181.5 -57.5q-50 0 -86.5 12t-59.5 33.5t-34 51.5t-11 66q0 26 4 49h81q-1 -8 -1.5 -15t-0.5 -14q0 -52 29.5 -79t95.5 -27q72 0 116 34.5t65 100.5h81z" />
    <glyph glyph-name="Ocircumflex" unicode="&#xd4;" horiz-adv-x="858" 
d="M767 1536q77 0 127 -19t79.5 -52t41.5 -77.5t12 -95.5t-8.5 -104.5t-20.5 -106.5l-140 -640q-12 -55 -28 -110.5t-39 -106t-54.5 -94.5t-75.5 -76.5t-102 -51t-133 -18.5h-1q-77 0 -127 19.5t-79.5 52.5t-41.5 78t-12 96t8.5 103.5t19.5 105.5l141 641q12 55 28 110
t38.5 106t54.5 94.5t76 76t102 51t133 18.5h1zM742 1426q-72 0 -120 -26.5t-80 -73.5t-53 -110.5t-37 -136.5l-140 -638q-11 -51 -19.5 -98t-8.5 -89q0 -35 8 -64.5t27 -50.5t50.5 -32.5t79.5 -11.5q72 0 120.5 26.5t81 73.5t53 110.5t36.5 137.5l140 637q11 51 19.5 98
t8.5 88q0 35 -8 64.5t-26.5 50.5t-50 33t-78.5 12h-3zM586 1604l187 229h118l86 -229h-110l-51 155l-119 -155h-111z" />
    <glyph glyph-name="Odieresis" unicode="&#xd6;" horiz-adv-x="858" 
d="M767 1536q77 0 127 -19t79.5 -52t41.5 -77.5t12 -95.5t-8.5 -104.5t-20.5 -106.5l-140 -640q-12 -55 -28 -110.5t-39 -106t-54.5 -94.5t-75.5 -76.5t-102 -51t-133 -18.5h-1q-77 0 -127 19.5t-79.5 52.5t-41.5 78t-12 96t8.5 103.5t19.5 105.5l141 641q12 55 28 110
t38.5 106t54.5 94.5t76 76t102 51t133 18.5h1zM742 1426q-72 0 -120 -26.5t-80 -73.5t-53 -110.5t-37 -136.5l-140 -638q-11 -51 -19.5 -98t-8.5 -89q0 -35 8 -64.5t27 -50.5t50.5 -32.5t79.5 -11.5q72 0 120.5 26.5t81 73.5t53 110.5t36.5 137.5l140 637q11 51 19.5 98
t8.5 88q0 35 -8 64.5t-26.5 50.5t-50 33t-78.5 12h-3zM642 1708q0 19 4.5 35.5t15 29t26.5 20t40 7.5q32 0 46 -13.5t14 -37.5q0 -92 -91 -92q-29 0 -42 13.5t-13 37.5zM834 1708q0 19 4.5 35.5t15 29t27 20t39.5 7.5q33 0 46.5 -13.5t13.5 -37.5q0 -45 -21.5 -68.5
t-69.5 -23.5q-29 0 -42 13.5t-13 37.5z" />
    <glyph glyph-name="Ograve" unicode="&#xd2;" horiz-adv-x="858" 
d="M767 1536q77 0 127 -19t79.5 -52t41.5 -77.5t12 -95.5t-8.5 -104.5t-20.5 -106.5l-140 -640q-12 -55 -28 -110.5t-39 -106t-54.5 -94.5t-75.5 -76.5t-102 -51t-133 -18.5h-1q-77 0 -127 19.5t-79.5 52.5t-41.5 78t-12 96t8.5 103.5t19.5 105.5l141 641q12 55 28 110
t38.5 106t54.5 94.5t76 76t102 51t133 18.5h1zM742 1426q-72 0 -120 -26.5t-80 -73.5t-53 -110.5t-37 -136.5l-140 -638q-11 -51 -19.5 -98t-8.5 -89q0 -35 8 -64.5t27 -50.5t50.5 -32.5t79.5 -11.5q72 0 120.5 26.5t81 73.5t53 110.5t36.5 137.5l140 637q11 51 19.5 98
t8.5 88q0 35 -8 64.5t-26.5 50.5t-50 33t-78.5 12h-3zM762 1851l74 -246h-95l-96 246h117z" />
    <glyph glyph-name="Ohungarumlaut" unicode="&#x150;" horiz-adv-x="858" 
d="M767 1536q77 0 127 -19t79.5 -52t41.5 -77.5t12 -95.5t-8.5 -104.5t-20.5 -106.5l-140 -640q-12 -55 -28 -110.5t-39 -106t-54.5 -94.5t-75.5 -76.5t-102 -51t-133 -18.5h-1q-77 0 -127 19.5t-79.5 52.5t-41.5 78t-12 96t8.5 103.5t19.5 105.5l141 641q12 55 28 110
t38.5 106t54.5 94.5t76 76t102 51t133 18.5h1zM742 1426q-72 0 -120 -26.5t-80 -73.5t-53 -110.5t-37 -136.5l-140 -638q-11 -51 -19.5 -98t-8.5 -89q0 -35 8 -64.5t27 -50.5t50.5 -32.5t79.5 -11.5q72 0 120.5 26.5t81 73.5t53 110.5t36.5 137.5l140 637q11 51 19.5 98
t8.5 88q0 35 -8 64.5t-26.5 50.5t-50 33t-78.5 12h-3zM927 1851l-204 -246h-96l182 246h118zM1117 1851l-203 -246h-96l182 246h117z" />
    <glyph glyph-name="Omacron" unicode="&#x14c;" horiz-adv-x="858" 
d="M767 1536q77 0 127 -19t79.5 -52t41.5 -77.5t12 -95.5t-8.5 -104.5t-20.5 -106.5l-140 -640q-12 -55 -28 -110.5t-39 -106t-54.5 -94.5t-75.5 -76.5t-102 -51t-133 -18.5h-1q-77 0 -127 19.5t-79.5 52.5t-41.5 78t-12 96t8.5 103.5t19.5 105.5l141 641q12 55 28 110
t38.5 106t54.5 94.5t76 76t102 51t133 18.5h1zM742 1426q-72 0 -120 -26.5t-80 -73.5t-53 -110.5t-37 -136.5l-140 -638q-11 -51 -19.5 -98t-8.5 -89q0 -35 8 -64.5t27 -50.5t50.5 -32.5t79.5 -11.5q72 0 120.5 26.5t81 73.5t53 110.5t36.5 137.5l140 637q11 51 19.5 98
t8.5 88q0 35 -8 64.5t-26.5 50.5t-50 33t-78.5 12h-3zM604 1707l22 99h402l-21 -99h-403z" />
    <glyph glyph-name="Otilde" unicode="&#xd5;" horiz-adv-x="858" 
d="M767 1536q77 0 127 -19t79.5 -52t41.5 -77.5t12 -95.5t-8.5 -104.5t-20.5 -106.5l-140 -640q-12 -55 -28 -110.5t-39 -106t-54.5 -94.5t-75.5 -76.5t-102 -51t-133 -18.5h-1q-77 0 -127 19.5t-79.5 52.5t-41.5 78t-12 96t8.5 103.5t19.5 105.5l141 641q12 55 28 110
t38.5 106t54.5 94.5t76 76t102 51t133 18.5h1zM742 1426q-72 0 -120 -26.5t-80 -73.5t-53 -110.5t-37 -136.5l-140 -638q-11 -51 -19.5 -98t-8.5 -89q0 -35 8 -64.5t27 -50.5t50.5 -32.5t79.5 -11.5q72 0 120.5 26.5t81 73.5t53 110.5t36.5 137.5l140 637q11 51 19.5 98
t8.5 88q0 35 -8 64.5t-26.5 50.5t-50 33t-78.5 12h-3zM1070 1784q-42 -56 -82.5 -86.5t-88.5 -30.5q-32 0 -55.5 11t-43.5 24.5t-40 24.5t-44 11q-26 0 -51.5 -14.5t-54.5 -47.5l-53 36q47 59 88 88.5t89 29.5q31 0 55.5 -11.5t45.5 -25t41 -25t44 -11.5q22 0 45 16t52 47z
" />
    <glyph glyph-name="Oslashacute" unicode="&#x1fe;" horiz-adv-x="858" 
d="M767 1536q77 0 127 -19t79.5 -52t41.5 -77.5t12 -95.5t-8.5 -104.5t-20.5 -106.5l-140 -640q-12 -55 -28 -110.5t-39 -106t-54.5 -94.5t-75.5 -76.5t-102 -51t-133 -18.5h-1q-77 0 -127 19.5t-79.5 52.5t-41.5 78t-12 96t8.5 103.5t19.5 105.5l141 641q12 55 28 110
t38.5 106t54.5 94.5t76 76t102 51t133 18.5h1zM742 1426q-72 0 -120 -26.5t-80 -73.5t-53 -110.5t-37 -136.5l-140 -638q-11 -51 -19.5 -98t-8.5 -89q0 -35 8 -64.5t27 -50.5t50.5 -32.5t79.5 -11.5q72 0 120.5 26.5t81 73.5t53 110.5t36.5 137.5l140 637q11 51 19.5 98
t8.5 88q0 35 -8 64.5t-26.5 50.5t-50 33t-78.5 12h-3zM230 -80h-116l846 1679h116zM1011 1851l-205 -246h-98l182 246h121z" />
    <glyph glyph-name="Omegatonos" unicode="&#x38f;" horiz-adv-x="914" 
d="M139 0l25 112h166l38 185q-34 12 -57 31t-36.5 44.5t-19 56t-5.5 64.5q0 33 4.5 69t11.5 72.5t15 73t16 70.5l65 302q12 55 28 110t39 106t54.5 94.5t75.5 76t102 51t134 18.5h1q77 0 127 -19t79.5 -52t41.5 -77.5t12 -95.5t-9 -104t-20 -106l-66 -304q-16 -71 -34 -147
t-48.5 -143t-79 -118.5t-124.5 -73.5l-42 -184h166l-24 -112h-271l72 331l13 62q71 0 113.5 33t68 87t40.5 123.5t32 143.5l65 300q11 51 19.5 98t8.5 89q0 35 -8 64.5t-27 50.5t-50.5 32.5t-79.5 11.5q-72 0 -120.5 -26.5t-81 -73.5t-53 -110.5t-36.5 -137.5l-65 -299
q-15 -69 -31.5 -136t-16.5 -122q0 -29 6 -52.5t21 -40t40 -26t63 -9.5l-24 -111h-1l-61 -282h-272zM399 1532l-69 -246h-92l45 246h116z" />
    <glyph glyph-name="Oslash.fat" horiz-adv-x="911" 
d="M200 -63l-71 16l925 1628l69 -15z" />
    <glyph glyph-name="Dcroat" unicode="&#x110;" horiz-adv-x="909" 
d="M787 1519q76 0 126 -19t79.5 -52t41.5 -77.5t12 -96.5q0 -48 -8 -99t-19 -104l-137 -624q-19 -84 -47 -164.5t-76.5 -143t-122.5 -101t-184 -38.5h-316l335 1519h316zM563 1407l-286 -1296h196h4q58 0 103 18.5t80 59t61 104.5t46 155l136 622q23 104 23 171
q0 84 -36 123.5t-114 42.5h-3h-11h-199zM144 683l22 99h402l-21 -99h-403z" />
    <glyph glyph-name="Wacute" unicode="&#x1e82;" horiz-adv-x="1298" 
d="M364 1521h120l-110 -1412l515 1412h181l-106 -1412l511 1412h120l-565 -1521h-177l103 1415l-519 -1415h-177zM1252 1851l-205 -246h-98l182 246h121z" />
    <glyph glyph-name="Wgrave" unicode="&#x1e80;" horiz-adv-x="1298" 
d="M364 1521h120l-110 -1412l515 1412h181l-106 -1412l511 1412h120l-565 -1521h-177l103 1415l-519 -1415h-177zM962 1851l74 -246h-95l-96 246h117z" />
    <glyph glyph-name="Wdieresis" unicode="&#x1e84;" horiz-adv-x="1298" 
d="M364 1521h120l-110 -1412l515 1412h181l-106 -1412l511 1412h120l-565 -1521h-177l103 1415l-519 -1415h-177zM862 1708q0 19 4.5 35.5t15 29t26.5 20t40 7.5q32 0 46 -13.5t14 -37.5q0 -92 -91 -92q-29 0 -42 13.5t-13 37.5zM1054 1708q0 19 4.5 35.5t15 29t27 20
t39.5 7.5q33 0 46.5 -13.5t13.5 -37.5q0 -45 -21.5 -68.5t-69.5 -23.5q-29 0 -42 13.5t-13 37.5z" />
    <glyph glyph-name="Wcircumflex" unicode="&#x174;" horiz-adv-x="1298" 
d="M364 1521h120l-110 -1412l515 1412h181l-106 -1412l511 1412h120l-565 -1521h-177l103 1415l-519 -1415h-177zM807 1604l187 229h118l86 -229h-110l-51 155l-119 -155h-111z" />
    <glyph glyph-name="afii10148" unicode="&#x474;" horiz-adv-x="16" 
 />
    <glyph glyph-name="Tcommaaccent" unicode="&#x162;" horiz-adv-x="702" 
d="M718 1407l-309 -1407h-118l310 1407h-280l24 112h677l-23 -112h-281zM247 -146q0 40 20.5 63.5t65.5 23.5q33 0 47 -17t14 -43q0 -33 -10.5 -65t-26.5 -61.5t-35.5 -55t-37.5 -46.5l-48 26q15 19 25.5 35t19 31t14.5 29.5t11 31.5q-59 0 -59 48z" />
    <glyph glyph-name="Tbar" unicode="&#x166;" horiz-adv-x="702" 
d="M718 1407l-309 -1407h-118l310 1407h-280l24 112h677l-23 -112h-281zM524 1707l22 99h402l-21 -99h-403z" />
    <glyph glyph-name="Tcaron" unicode="&#x164;" horiz-adv-x="702" 
d="M718 1407l-309 -1407h-118l310 1407h-280l24 112h677l-23 -112h-281zM669 1833l49 -155l121 155h110l-188 -229h-118l-86 229h112z" />
    <glyph glyph-name="Sacute" unicode="&#x15a;" horiz-adv-x="795" 
d="M811 374q-19 -91 -53 -163.5t-85 -122.5t-120 -77t-157 -27q-78 0 -129.5 15t-82.5 43t-43.5 67.5t-12.5 88.5q0 41 7 86.5t18 96.5l13 61h117l-12 -54q-11 -45 -16.5 -83t-5.5 -69q0 -36 9 -62.5t29 -44t52.5 -26t79.5 -8.5q60 0 106 20.5t79 57.5t55 87.5t34 110.5
l2 12q10 50 10 94q0 72 -28.5 119.5t-85.5 85.5l-127 85q-37 25 -65 52t-46.5 57.5t-28 65.5t-9.5 78q0 63 19 140l4 18q20 84 55.5 150.5t86 112.5t116 70.5t145.5 24.5q68 0 117 -17t80 -48.5t45.5 -75.5t14.5 -99q0 -59 -15 -126l-19 -91h-117l24 121q7 32 7 66t-9 63.5
t-28.5 51t-50 33.5t-73.5 12q-59 0 -104 -21.5t-77.5 -58.5t-53 -85.5t-30.5 -103.5l-7 -35q-2 -14 -3.5 -26.5t-1.5 -24.5q0 -67 32.5 -118.5t87.5 -87.5l126 -83q74 -49 108 -114.5t34 -152.5q0 -57 -13 -119zM1009 1851l-205 -246h-98l182 246h121z" />
    <glyph glyph-name="Scaron" unicode="&#x160;" horiz-adv-x="795" 
d="M811 374q-19 -91 -53 -163.5t-85 -122.5t-120 -77t-157 -27q-78 0 -129.5 15t-82.5 43t-43.5 67.5t-12.5 88.5q0 41 7 86.5t18 96.5l13 61h117l-12 -54q-11 -45 -16.5 -83t-5.5 -69q0 -36 9 -62.5t29 -44t52.5 -26t79.5 -8.5q60 0 106 20.5t79 57.5t55 87.5t34 110.5
l2 12q10 50 10 94q0 72 -28.5 119.5t-85.5 85.5l-127 85q-37 25 -65 52t-46.5 57.5t-28 65.5t-9.5 78q0 63 19 140l4 18q20 84 55.5 150.5t86 112.5t116 70.5t145.5 24.5q68 0 117 -17t80 -48.5t45.5 -75.5t14.5 -99q0 -59 -15 -126l-19 -91h-117l24 121q7 32 7 66t-9 63.5
t-28.5 51t-50 33.5t-73.5 12q-59 0 -104 -21.5t-77.5 -58.5t-53 -85.5t-30.5 -103.5l-7 -35q-2 -14 -3.5 -26.5t-1.5 -24.5q0 -67 32.5 -118.5t87.5 -87.5l126 -83q74 -49 108 -114.5t34 -152.5q0 -57 -13 -119zM725 1833l49 -155l121 155h110l-188 -229h-118l-86 229h112z
" />
    <glyph glyph-name="Scedilla" unicode="&#x15e;" horiz-adv-x="795" 
d="M811 374q-19 -91 -53 -163.5t-85 -122.5t-120 -77t-157 -27q-78 0 -129.5 15t-82.5 43t-43.5 67.5t-12.5 88.5q0 41 7 86.5t18 96.5l13 61h117l-12 -54q-11 -45 -16.5 -83t-5.5 -69q0 -36 9 -62.5t29 -44t52.5 -26t79.5 -8.5q60 0 106 20.5t79 57.5t55 87.5t34 110.5
l2 12q10 50 10 94q0 72 -28.5 119.5t-85.5 85.5l-127 85q-37 25 -65 52t-46.5 57.5t-28 65.5t-9.5 78q0 63 19 140l4 18q20 84 55.5 150.5t86 112.5t116 70.5t145.5 24.5q68 0 117 -17t80 -48.5t45.5 -75.5t14.5 -99q0 -59 -15 -126l-19 -91h-117l24 121q7 32 7 66t-9 63.5
t-28.5 51t-50 33.5t-73.5 12q-59 0 -104 -21.5t-77.5 -58.5t-53 -85.5t-30.5 -103.5l-7 -35q-2 -14 -3.5 -26.5t-1.5 -24.5q0 -67 32.5 -118.5t87.5 -87.5l126 -83q74 -49 108 -114.5t34 -152.5q0 -57 -13 -119zM238 -203q11 -10 21.5 -17.5t22.5 -13t28 -8t38 -2.5
q45 0 71 19t26 51q0 12 -7 20t-18 13.5t-25 8t-28 2.5q-10 0 -19 -1t-17 -3l32 157h78l-21 -89q5 0 11 1q5 1 12.5 1.5t15.5 0.5q16 0 31.5 -6t27.5 -18t19 -29t7 -39q0 -42 -18 -72.5t-48 -50.5t-67.5 -29.5t-76.5 -9.5q-100 0 -134 59z" />
    <glyph glyph-name="Scircumflex" unicode="&#x15c;" horiz-adv-x="795" 
d="M811 374q-19 -91 -53 -163.5t-85 -122.5t-120 -77t-157 -27q-78 0 -129.5 15t-82.5 43t-43.5 67.5t-12.5 88.5q0 41 7 86.5t18 96.5l13 61h117l-12 -54q-11 -45 -16.5 -83t-5.5 -69q0 -36 9 -62.5t29 -44t52.5 -26t79.5 -8.5q60 0 106 20.5t79 57.5t55 87.5t34 110.5
l2 12q10 50 10 94q0 72 -28.5 119.5t-85.5 85.5l-127 85q-37 25 -65 52t-46.5 57.5t-28 65.5t-9.5 78q0 63 19 140l4 18q20 84 55.5 150.5t86 112.5t116 70.5t145.5 24.5q68 0 117 -17t80 -48.5t45.5 -75.5t14.5 -99q0 -59 -15 -126l-19 -91h-117l24 121q7 32 7 66t-9 63.5
t-28.5 51t-50 33.5t-73.5 12q-59 0 -104 -21.5t-77.5 -58.5t-53 -85.5t-30.5 -103.5l-7 -35q-2 -14 -3.5 -26.5t-1.5 -24.5q0 -67 32.5 -118.5t87.5 -87.5l126 -83q74 -49 108 -114.5t34 -152.5q0 -57 -13 -119zM564 1604l187 229h118l86 -229h-110l-51 155l-119 -155h-111z
" />
    <glyph glyph-name="Scommaaccent" unicode="&#x218;" horiz-adv-x="795" 
d="M811 374q-19 -91 -53 -163.5t-85 -122.5t-120 -77t-157 -27q-78 0 -129.5 15t-82.5 43t-43.5 67.5t-12.5 88.5q0 41 7 86.5t18 96.5l13 61h117l-12 -54q-11 -45 -16.5 -83t-5.5 -69q0 -36 9 -62.5t29 -44t52.5 -26t79.5 -8.5q60 0 106 20.5t79 57.5t55 87.5t34 110.5
l2 12q10 50 10 94q0 72 -28.5 119.5t-85.5 85.5l-127 85q-37 25 -65 52t-46.5 57.5t-28 65.5t-9.5 78q0 63 19 140l4 18q20 84 55.5 150.5t86 112.5t116 70.5t145.5 24.5q68 0 117 -17t80 -48.5t45.5 -75.5t14.5 -99q0 -59 -15 -126l-19 -91h-117l24 121q7 32 7 66t-9 63.5
t-28.5 51t-50 33.5t-73.5 12q-59 0 -104 -21.5t-77.5 -58.5t-53 -85.5t-30.5 -103.5l-7 -35q-2 -14 -3.5 -26.5t-1.5 -24.5q0 -67 32.5 -118.5t87.5 -87.5l126 -83q74 -49 108 -114.5t34 -152.5q0 -57 -13 -119zM321 -161q0 40 20.5 63.5t65.5 23.5q33 0 47 -17t14 -43
q0 -33 -10.5 -65t-26.5 -61.5t-35.5 -55t-37.5 -46.5l-48 26q15 19 25.5 35t19 31t14.5 29.5t11 31.5q-59 0 -59 48z" />
    <glyph glyph-name="Uogonek" unicode="&#x172;" horiz-adv-x="897" 
d="M1115 1519l-251 -1141q-18 -84 -44.5 -156.5t-72.5 -125t-118 -82.5t-182 -30h-1q-78 0 -129 15.5t-82 43.5t-43.5 67.5t-12.5 88.5q0 40 6.5 85t17.5 94l251 1141h118l-250 -1133q-10 -46 -17 -85.5t-7 -72.5q0 -32 8 -56.5t28 -42t53.5 -26.5t84.5 -9q76 0 123.5 20.5
t76.5 59t45.5 92.5t31.5 120l249 1133h117zM644 -329q-20 -14 -52.5 -24t-72.5 -10q-30 0 -56.5 8t-46 24.5t-31 43t-11.5 64.5q0 59 19.5 103t50 76t67.5 54t72 38l57 -29q-28 -16 -55.5 -36.5t-49.5 -47.5t-35.5 -60t-13.5 -75q0 -35 17.5 -54.5t55.5 -19.5q32 0 53.5 5.5
t38.5 15.5z" />
    <glyph glyph-name="Uring" unicode="&#x16e;" horiz-adv-x="897" 
d="M1115 1519l-251 -1141q-18 -84 -44.5 -156.5t-72.5 -125t-118 -82.5t-182 -30h-1q-78 0 -129 15.5t-82 43.5t-43.5 67.5t-12.5 88.5q0 40 6.5 85t17.5 94l251 1141h118l-250 -1133q-10 -46 -17 -85.5t-7 -72.5q0 -32 8 -56.5t28 -42t53.5 -26.5t84.5 -9q76 0 123.5 20.5
t76.5 59t45.5 92.5t31.5 120l249 1133h117zM681 1722q0 38 10 72.5t32.5 60t57 40.5t84.5 15q71 0 100 -28.5t29 -77.5q0 -188 -193 -188q-63 0 -91.5 28.5t-28.5 77.5zM770 1745q0 -22 12 -35t39 -13q84 0 84 84q0 21 -12 33.5t-43 12.5q-22 0 -37 -7t-24.5 -18.5t-14 -26
t-4.5 -30.5z" />
    <glyph glyph-name="Uacute" unicode="&#xda;" horiz-adv-x="897" 
d="M1115 1519l-251 -1141q-18 -84 -44.5 -156.5t-72.5 -125t-118 -82.5t-182 -30h-1q-78 0 -129 15.5t-82 43.5t-43.5 67.5t-12.5 88.5q0 40 6.5 85t17.5 94l251 1141h118l-250 -1133q-10 -46 -17 -85.5t-7 -72.5q0 -32 8 -56.5t28 -42t53.5 -26.5t84.5 -9q76 0 123.5 20.5
t76.5 59t45.5 92.5t31.5 120l249 1133h117zM1050 1851l-205 -246h-98l182 246h121z" />
    <glyph glyph-name="Ubreve" unicode="&#x16c;" horiz-adv-x="897" 
d="M1115 1519l-251 -1141q-18 -84 -44.5 -156.5t-72.5 -125t-118 -82.5t-182 -30h-1q-78 0 -129 15.5t-82 43.5t-43.5 67.5t-12.5 88.5q0 40 6.5 85t17.5 94l251 1141h118l-250 -1133q-10 -46 -17 -85.5t-7 -72.5q0 -32 8 -56.5t28 -42t53.5 -26.5t84.5 -9q76 0 123.5 20.5
t76.5 59t45.5 92.5t31.5 120l249 1133h117zM1079 1816q-28 -97 -97.5 -154.5t-181.5 -57.5q-50 0 -86.5 12t-59.5 33.5t-34 51.5t-11 66q0 26 4 49h81q-1 -8 -1.5 -15t-0.5 -14q0 -52 29.5 -79t95.5 -27q72 0 116 34.5t65 100.5h81z" />
    <glyph glyph-name="Ugrave" unicode="&#xd9;" horiz-adv-x="897" 
d="M1115 1519l-251 -1141q-18 -84 -44.5 -156.5t-72.5 -125t-118 -82.5t-182 -30h-1q-78 0 -129 15.5t-82 43.5t-43.5 67.5t-12.5 88.5q0 40 6.5 85t17.5 94l251 1141h118l-250 -1133q-10 -46 -17 -85.5t-7 -72.5q0 -32 8 -56.5t28 -42t53.5 -26.5t84.5 -9q76 0 123.5 20.5
t76.5 59t45.5 92.5t31.5 120l249 1133h117zM778 1851l74 -246h-95l-96 246h117z" />
    <glyph glyph-name="Utilde" unicode="&#x168;" horiz-adv-x="897" 
d="M1115 1519l-251 -1141q-18 -84 -44.5 -156.5t-72.5 -125t-118 -82.5t-182 -30h-1q-78 0 -129 15.5t-82 43.5t-43.5 67.5t-12.5 88.5q0 40 6.5 85t17.5 94l251 1141h118l-250 -1133q-10 -46 -17 -85.5t-7 -72.5q0 -32 8 -56.5t28 -42t53.5 -26.5t84.5 -9q76 0 123.5 20.5
t76.5 59t45.5 92.5t31.5 120l249 1133h117zM1091 1784q-42 -56 -82.5 -86.5t-88.5 -30.5q-32 0 -55.5 11t-43.5 24.5t-40 24.5t-44 11q-26 0 -51.5 -14.5t-54.5 -47.5l-53 36q47 59 88 88.5t89 29.5q31 0 55.5 -11.5t45.5 -25t41 -25t44 -11.5q22 0 45 16t52 47z" />
    <glyph glyph-name="Udieresis" unicode="&#xdc;" horiz-adv-x="897" 
d="M1115 1519l-251 -1141q-18 -84 -44.5 -156.5t-72.5 -125t-118 -82.5t-182 -30h-1q-78 0 -129 15.5t-82 43.5t-43.5 67.5t-12.5 88.5q0 40 6.5 85t17.5 94l251 1141h118l-250 -1133q-10 -46 -17 -85.5t-7 -72.5q0 -32 8 -56.5t28 -42t53.5 -26.5t84.5 -9q76 0 123.5 20.5
t76.5 59t45.5 92.5t31.5 120l249 1133h117zM662 1708q0 19 4.5 35.5t15 29t26.5 20t40 7.5q32 0 46 -13.5t14 -37.5q0 -92 -91 -92q-29 0 -42 13.5t-13 37.5zM854 1708q0 19 4.5 35.5t15 29t27 20t39.5 7.5q33 0 46.5 -13.5t13.5 -37.5q0 -45 -21.5 -68.5t-69.5 -23.5
q-29 0 -42 13.5t-13 37.5z" />
    <glyph glyph-name="Ucircumflex" unicode="&#xdb;" horiz-adv-x="897" 
d="M1115 1519l-251 -1141q-18 -84 -44.5 -156.5t-72.5 -125t-118 -82.5t-182 -30h-1q-78 0 -129 15.5t-82 43.5t-43.5 67.5t-12.5 88.5q0 40 6.5 85t17.5 94l251 1141h118l-250 -1133q-10 -46 -17 -85.5t-7 -72.5q0 -32 8 -56.5t28 -42t53.5 -26.5t84.5 -9q76 0 123.5 20.5
t76.5 59t45.5 92.5t31.5 120l249 1133h117zM608 1604l187 229h118l86 -229h-110l-51 155l-119 -155h-111z" />
    <glyph glyph-name="ccircumflex" unicode="&#x109;" horiz-adv-x="810" 
d="M700 389h116l-2 -11q-10 -43 -22.5 -88.5t-32 -89.5t-48 -83t-70 -68.5t-98 -47t-131.5 -17.5q-74 0 -122 18t-76.5 49.5t-39.5 73.5t-11 91q0 54 10 113t23 117l63 286l25 110q18 74 45.5 142.5t73.5 120.5t114 83t166 31q76 0 125.5 -18t77.5 -48t39 -69.5t11 -83.5
t-7.5 -88t-15.5 -86l-3 -13h-116l3 13q9 37 16 74t7 71q0 29 -7.5 54.5t-25.5 44t-49 29t-79 10.5q-72 0 -118 -28t-76 -76t-49 -112.5t-36 -138.5l-59 -271q-15 -65 -26.5 -122t-13.5 -106q0 -35 6.5 -64t24 -51t47.5 -34t76 -12q71 0 117 23.5t75 62.5t44.5 90.5
t26.5 108.5zM500 1285l187 229h118l86 -229h-110l-51 155l-119 -155h-111z" />
    <glyph glyph-name="eacute" unicode="&#xe9;" horiz-adv-x="822" 
d="M819 406l-4 -20q-10 -47 -23 -95t-32.5 -92.5t-48.5 -84t-70.5 -68.5t-98 -45.5t-131.5 -16.5q-74 0 -122 18t-76.5 49.5t-40 74t-11.5 90.5q0 55 10.5 114t23.5 116l68 309q12 55 26.5 111t36 107.5t51.5 96t72.5 78t99.5 52.5t133 19t125 -18t77.5 -48t39.5 -69.5
t11 -84.5q0 -46 -8 -94.5t-19 -94.5l-36 -164h-1l-4 -21l-537 -85l-20 -93q-12 -56 -22 -107.5t-10 -96.5q0 -33 7.5 -60.5t25 -47t47.5 -30.5t75 -11h3q71 0 115.5 23t72.5 62.5t44.5 93t30.5 114.5l4 19h116zM657 1109q-72 0 -118.5 -28t-76.5 -76t-49 -112.5t-35 -138.5
l-25 -111l417 68l22 99q9 43 17 84t8 77q0 30 -7.5 55.5t-25.5 43.5t-49 28.5t-78 10.5zM942 1532l-205 -246h-98l182 246h121z" />
    <glyph glyph-name="ebreve" unicode="&#x115;" horiz-adv-x="822" 
d="M819 406l-4 -20q-10 -47 -23 -95t-32.5 -92.5t-48.5 -84t-70.5 -68.5t-98 -45.5t-131.5 -16.5q-74 0 -122 18t-76.5 49.5t-40 74t-11.5 90.5q0 55 10.5 114t23.5 116l68 309q12 55 26.5 111t36 107.5t51.5 96t72.5 78t99.5 52.5t133 19t125 -18t77.5 -48t39.5 -69.5
t11 -84.5q0 -46 -8 -94.5t-19 -94.5l-36 -164h-1l-4 -21l-537 -85l-20 -93q-12 -56 -22 -107.5t-10 -96.5q0 -33 7.5 -60.5t25 -47t47.5 -30.5t75 -11h3q71 0 115.5 23t72.5 62.5t44.5 93t30.5 114.5l4 19h116zM657 1109q-72 0 -118.5 -28t-76.5 -76t-49 -112.5t-35 -138.5
l-25 -111l417 68l22 99q9 43 17 84t8 77q0 30 -7.5 55.5t-25.5 43.5t-49 28.5t-78 10.5zM968 1497q-28 -97 -97.5 -154.5t-181.5 -57.5q-50 0 -86.5 12t-59.5 33.5t-34 51.5t-11 66q0 26 4 49h81q-1 -8 -1.5 -15t-0.5 -14q0 -52 29.5 -79t95.5 -27q72 0 116 34.5t65 100.5
h81z" />
    <glyph glyph-name="ecaron" unicode="&#x11b;" horiz-adv-x="822" 
d="M819 406l-4 -20q-10 -47 -23 -95t-32.5 -92.5t-48.5 -84t-70.5 -68.5t-98 -45.5t-131.5 -16.5q-74 0 -122 18t-76.5 49.5t-40 74t-11.5 90.5q0 55 10.5 114t23.5 116l68 309q12 55 26.5 111t36 107.5t51.5 96t72.5 78t99.5 52.5t133 19t125 -18t77.5 -48t39.5 -69.5
t11 -84.5q0 -46 -8 -94.5t-19 -94.5l-36 -164h-1l-4 -21l-537 -85l-20 -93q-12 -56 -22 -107.5t-10 -96.5q0 -33 7.5 -60.5t25 -47t47.5 -30.5t75 -11h3q71 0 115.5 23t72.5 62.5t44.5 93t30.5 114.5l4 19h116zM657 1109q-72 0 -118.5 -28t-76.5 -76t-49 -112.5t-35 -138.5
l-25 -111l417 68l22 99q9 43 17 84t8 77q0 30 -7.5 55.5t-25.5 43.5t-49 28.5t-78 10.5zM661 1514l49 -155l121 155h110l-188 -229h-118l-86 229h112z" />
    <glyph glyph-name="ecircumflex" unicode="&#xea;" horiz-adv-x="822" 
d="M819 406l-4 -20q-10 -47 -23 -95t-32.5 -92.5t-48.5 -84t-70.5 -68.5t-98 -45.5t-131.5 -16.5q-74 0 -122 18t-76.5 49.5t-40 74t-11.5 90.5q0 55 10.5 114t23.5 116l68 309q12 55 26.5 111t36 107.5t51.5 96t72.5 78t99.5 52.5t133 19t125 -18t77.5 -48t39.5 -69.5
t11 -84.5q0 -46 -8 -94.5t-19 -94.5l-36 -164h-1l-4 -21l-537 -85l-20 -93q-12 -56 -22 -107.5t-10 -96.5q0 -33 7.5 -60.5t25 -47t47.5 -30.5t75 -11h3q71 0 115.5 23t72.5 62.5t44.5 93t30.5 114.5l4 19h116zM657 1109q-72 0 -118.5 -28t-76.5 -76t-49 -112.5t-35 -138.5
l-25 -111l417 68l22 99q9 43 17 84t8 77q0 30 -7.5 55.5t-25.5 43.5t-49 28.5t-78 10.5zM499 1285l187 229h118l86 -229h-110l-51 155l-119 -155h-111z" />
    <glyph glyph-name="edieresis" unicode="&#xeb;" horiz-adv-x="822" 
d="M819 406l-4 -20q-10 -47 -23 -95t-32.5 -92.5t-48.5 -84t-70.5 -68.5t-98 -45.5t-131.5 -16.5q-74 0 -122 18t-76.5 49.5t-40 74t-11.5 90.5q0 55 10.5 114t23.5 116l68 309q12 55 26.5 111t36 107.5t51.5 96t72.5 78t99.5 52.5t133 19t125 -18t77.5 -48t39.5 -69.5
t11 -84.5q0 -46 -8 -94.5t-19 -94.5l-36 -164h-1l-4 -21l-537 -85l-20 -93q-12 -56 -22 -107.5t-10 -96.5q0 -33 7.5 -60.5t25 -47t47.5 -30.5t75 -11h3q71 0 115.5 23t72.5 62.5t44.5 93t30.5 114.5l4 19h116zM657 1109q-72 0 -118.5 -28t-76.5 -76t-49 -112.5t-35 -138.5
l-25 -111l417 68l22 99q9 43 17 84t8 77q0 30 -7.5 55.5t-25.5 43.5t-49 28.5t-78 10.5zM554 1389q0 19 4.5 35.5t15 29t26.5 20t40 7.5q32 0 46 -13.5t14 -37.5q0 -92 -91 -92q-29 0 -42 13.5t-13 37.5zM746 1389q0 19 4.5 35.5t15 29t27 20t39.5 7.5q33 0 46.5 -13.5
t13.5 -37.5q0 -45 -21.5 -68.5t-69.5 -23.5q-29 0 -42 13.5t-13 37.5z" />
    <glyph glyph-name="edotaccent" unicode="&#x117;" horiz-adv-x="822" 
d="M819 406l-4 -20q-10 -47 -23 -95t-32.5 -92.5t-48.5 -84t-70.5 -68.5t-98 -45.5t-131.5 -16.5q-74 0 -122 18t-76.5 49.5t-40 74t-11.5 90.5q0 55 10.5 114t23.5 116l68 309q12 55 26.5 111t36 107.5t51.5 96t72.5 78t99.5 52.5t133 19t125 -18t77.5 -48t39.5 -69.5
t11 -84.5q0 -46 -8 -94.5t-19 -94.5l-36 -164h-1l-4 -21l-537 -85l-20 -93q-12 -56 -22 -107.5t-10 -96.5q0 -33 7.5 -60.5t25 -47t47.5 -30.5t75 -11h3q71 0 115.5 23t72.5 62.5t44.5 93t30.5 114.5l4 19h116zM657 1109q-72 0 -118.5 -28t-76.5 -76t-49 -112.5t-35 -138.5
l-25 -111l417 68l22 99q9 43 17 84t8 77q0 30 -7.5 55.5t-25.5 43.5t-49 28.5t-78 10.5zM639 1385q0 42 22 69.5t75 27.5q36 0 51.5 -14t15.5 -40q0 -98 -101 -98q-32 0 -47.5 14.5t-15.5 40.5z" />
    <glyph glyph-name="egrave" unicode="&#xe8;" horiz-adv-x="822" 
d="M819 406l-4 -20q-10 -47 -23 -95t-32.5 -92.5t-48.5 -84t-70.5 -68.5t-98 -45.5t-131.5 -16.5q-74 0 -122 18t-76.5 49.5t-40 74t-11.5 90.5q0 55 10.5 114t23.5 116l68 309q12 55 26.5 111t36 107.5t51.5 96t72.5 78t99.5 52.5t133 19t125 -18t77.5 -48t39.5 -69.5
t11 -84.5q0 -46 -8 -94.5t-19 -94.5l-36 -164h-1l-4 -21l-537 -85l-20 -93q-12 -56 -22 -107.5t-10 -96.5q0 -33 7.5 -60.5t25 -47t47.5 -30.5t75 -11h3q71 0 115.5 23t72.5 62.5t44.5 93t30.5 114.5l4 19h116zM657 1109q-72 0 -118.5 -28t-76.5 -76t-49 -112.5t-35 -138.5
l-25 -111l417 68l22 99q9 43 17 84t8 77q0 30 -7.5 55.5t-25.5 43.5t-49 28.5t-78 10.5zM671 1532l74 -246h-95l-96 246h117z" />
    <glyph glyph-name="emacron" unicode="&#x113;" horiz-adv-x="822" 
d="M819 406l-4 -20q-10 -47 -23 -95t-32.5 -92.5t-48.5 -84t-70.5 -68.5t-98 -45.5t-131.5 -16.5q-74 0 -122 18t-76.5 49.5t-40 74t-11.5 90.5q0 55 10.5 114t23.5 116l68 309q12 55 26.5 111t36 107.5t51.5 96t72.5 78t99.5 52.5t133 19t125 -18t77.5 -48t39.5 -69.5
t11 -84.5q0 -46 -8 -94.5t-19 -94.5l-36 -164h-1l-4 -21l-537 -85l-20 -93q-12 -56 -22 -107.5t-10 -96.5q0 -33 7.5 -60.5t25 -47t47.5 -30.5t75 -11h3q71 0 115.5 23t72.5 62.5t44.5 93t30.5 114.5l4 19h116zM657 1109q-72 0 -118.5 -28t-76.5 -76t-49 -112.5t-35 -138.5
l-25 -111l417 68l22 99q9 43 17 84t8 77q0 30 -7.5 55.5t-25.5 43.5t-49 28.5t-78 10.5zM517 1388l22 99h402l-21 -99h-403z" />
    <glyph glyph-name="eogonek" unicode="&#x119;" horiz-adv-x="822" 
d="M819 406l-4 -20q-10 -47 -23 -95t-32.5 -92.5t-48.5 -84t-70.5 -68.5t-98 -45.5t-131.5 -16.5q-74 0 -122 18t-76.5 49.5t-40 74t-11.5 90.5q0 55 10.5 114t23.5 116l68 309q12 55 26.5 111t36 107.5t51.5 96t72.5 78t99.5 52.5t133 19t125 -18t77.5 -48t39.5 -69.5
t11 -84.5q0 -46 -8 -94.5t-19 -94.5l-36 -164h-1l-4 -21l-537 -85l-20 -93q-12 -56 -22 -107.5t-10 -96.5q0 -33 7.5 -60.5t25 -47t47.5 -30.5t75 -11h3q71 0 115.5 23t72.5 62.5t44.5 93t30.5 114.5l4 19h116zM657 1109q-72 0 -118.5 -28t-76.5 -76t-49 -112.5t-35 -138.5
l-25 -111l417 68l22 99q9 43 17 84t8 77q0 30 -7.5 55.5t-25.5 43.5t-49 28.5t-78 10.5zM660 -290q-20 -14 -52.5 -24t-72.5 -10q-30 0 -56.5 8t-46 24.5t-31 43t-11.5 64.5q0 59 19.5 103t50 76t67.5 54t72 38l57 -29q-28 -16 -55.5 -36.5t-49.5 -47.5t-35.5 -60t-13.5 -75
q0 -35 17.5 -54.5t55.5 -19.5q32 0 53.5 5.5t38.5 15.5z" />
    <glyph glyph-name="oacute" unicode="&#xf3;" horiz-adv-x="825" 
d="M261 755q12 55 27 111t36.5 107.5t51.5 96t72.5 78t99 52.5t132.5 19q73 0 121 -18t76 -49.5t39.5 -74t11.5 -90.5q0 -55 -10.5 -114t-23.5 -117l-67 -308q-12 -55 -27 -111t-36.5 -107.5t-51 -96t-72 -78t-99.5 -52.5t-132 -19h-1q-74 0 -121.5 18.5t-76 49.5
t-39.5 73.5t-11 90.5q0 55 10 114t23 116zM656 1109q-72 0 -118.5 -28t-76.5 -76t-49 -113t-35 -139l-68 -306q-12 -56 -22 -108t-10 -97q0 -33 7.5 -60.5t25 -47t47.5 -30t75 -10.5q72 0 118 27.5t76 75.5t48 112.5t35 138.5l68 308q13 57 23 109t10 97q0 33 -7.5 60
t-25 46.5t-47 30t-74.5 10.5zM939 1532l-205 -246h-98l182 246h121z" />
    <glyph glyph-name="obreve" unicode="&#x14f;" horiz-adv-x="825" 
d="M261 755q12 55 27 111t36.5 107.5t51.5 96t72.5 78t99 52.5t132.5 19q73 0 121 -18t76 -49.5t39.5 -74t11.5 -90.5q0 -55 -10.5 -114t-23.5 -117l-67 -308q-12 -55 -27 -111t-36.5 -107.5t-51 -96t-72 -78t-99.5 -52.5t-132 -19h-1q-74 0 -121.5 18.5t-76 49.5
t-39.5 73.5t-11 90.5q0 55 10 114t23 116zM656 1109q-72 0 -118.5 -28t-76.5 -76t-49 -113t-35 -139l-68 -306q-12 -56 -22 -108t-10 -97q0 -33 7.5 -60.5t25 -47t47.5 -30t75 -10.5q72 0 118 27.5t76 75.5t48 112.5t35 138.5l68 308q13 57 23 109t10 97q0 33 -7.5 60
t-25 46.5t-47 30t-74.5 10.5zM963 1497q-28 -97 -97.5 -154.5t-181.5 -57.5q-50 0 -86.5 12t-59.5 33.5t-34 51.5t-11 66q0 26 4 49h81q-1 -8 -1.5 -15t-0.5 -14q0 -52 29.5 -79t95.5 -27q72 0 116 34.5t65 100.5h81z" />
    <glyph glyph-name="ocircumflex" unicode="&#xf4;" horiz-adv-x="825" 
d="M261 755q12 55 27 111t36.5 107.5t51.5 96t72.5 78t99 52.5t132.5 19q73 0 121 -18t76 -49.5t39.5 -74t11.5 -90.5q0 -55 -10.5 -114t-23.5 -117l-67 -308q-12 -55 -27 -111t-36.5 -107.5t-51 -96t-72 -78t-99.5 -52.5t-132 -19h-1q-74 0 -121.5 18.5t-76 49.5
t-39.5 73.5t-11 90.5q0 55 10 114t23 116zM656 1109q-72 0 -118.5 -28t-76.5 -76t-49 -113t-35 -139l-68 -306q-12 -56 -22 -108t-10 -97q0 -33 7.5 -60.5t25 -47t47.5 -30t75 -10.5q72 0 118 27.5t76 75.5t48 112.5t35 138.5l68 308q13 57 23 109t10 97q0 33 -7.5 60
t-25 46.5t-47 30t-74.5 10.5zM489 1285l187 229h118l86 -229h-110l-51 155l-119 -155h-111z" />
    <glyph glyph-name="odieresis" unicode="&#xf6;" horiz-adv-x="825" 
d="M261 755q12 55 27 111t36.5 107.5t51.5 96t72.5 78t99 52.5t132.5 19q73 0 121 -18t76 -49.5t39.5 -74t11.5 -90.5q0 -55 -10.5 -114t-23.5 -117l-67 -308q-12 -55 -27 -111t-36.5 -107.5t-51 -96t-72 -78t-99.5 -52.5t-132 -19h-1q-74 0 -121.5 18.5t-76 49.5
t-39.5 73.5t-11 90.5q0 55 10 114t23 116zM656 1109q-72 0 -118.5 -28t-76.5 -76t-49 -113t-35 -139l-68 -306q-12 -56 -22 -108t-10 -97q0 -33 7.5 -60.5t25 -47t47.5 -30t75 -10.5q72 0 118 27.5t76 75.5t48 112.5t35 138.5l68 308q13 57 23 109t10 97q0 33 -7.5 60
t-25 46.5t-47 30t-74.5 10.5zM534 1389q0 19 4.5 35.5t15 29t26.5 20t40 7.5q32 0 46 -13.5t14 -37.5q0 -92 -91 -92q-29 0 -42 13.5t-13 37.5zM726 1389q0 19 4.5 35.5t15 29t27 20t39.5 7.5q33 0 46.5 -13.5t13.5 -37.5q0 -45 -21.5 -68.5t-69.5 -23.5q-29 0 -42 13.5
t-13 37.5z" />
    <glyph glyph-name="ograve" unicode="&#xf2;" horiz-adv-x="825" 
d="M261 755q12 55 27 111t36.5 107.5t51.5 96t72.5 78t99 52.5t132.5 19q73 0 121 -18t76 -49.5t39.5 -74t11.5 -90.5q0 -55 -10.5 -114t-23.5 -117l-67 -308q-12 -55 -27 -111t-36.5 -107.5t-51 -96t-72 -78t-99.5 -52.5t-132 -19h-1q-74 0 -121.5 18.5t-76 49.5
t-39.5 73.5t-11 90.5q0 55 10 114t23 116zM656 1109q-72 0 -118.5 -28t-76.5 -76t-49 -113t-35 -139l-68 -306q-12 -56 -22 -108t-10 -97q0 -33 7.5 -60.5t25 -47t47.5 -30t75 -10.5q72 0 118 27.5t76 75.5t48 112.5t35 138.5l68 308q13 57 23 109t10 97q0 33 -7.5 60
t-25 46.5t-47 30t-74.5 10.5zM662 1532l74 -246h-95l-96 246h117z" />
    <glyph glyph-name="ohungarumlaut" unicode="&#x151;" horiz-adv-x="825" 
d="M261 755q12 55 27 111t36.5 107.5t51.5 96t72.5 78t99 52.5t132.5 19q73 0 121 -18t76 -49.5t39.5 -74t11.5 -90.5q0 -55 -10.5 -114t-23.5 -117l-67 -308q-12 -55 -27 -111t-36.5 -107.5t-51 -96t-72 -78t-99.5 -52.5t-132 -19h-1q-74 0 -121.5 18.5t-76 49.5
t-39.5 73.5t-11 90.5q0 55 10 114t23 116zM656 1109q-72 0 -118.5 -28t-76.5 -76t-49 -113t-35 -139l-68 -306q-12 -56 -22 -108t-10 -97q0 -33 7.5 -60.5t25 -47t47.5 -30t75 -10.5q72 0 118 27.5t76 75.5t48 112.5t35 138.5l68 308q13 57 23 109t10 97q0 33 -7.5 60
t-25 46.5t-47 30t-74.5 10.5zM779 1532l-204 -246h-96l182 246h118zM969 1532l-203 -246h-96l182 246h117z" />
    <glyph glyph-name="omacron" unicode="&#x14d;" horiz-adv-x="825" 
d="M261 755q12 55 27 111t36.5 107.5t51.5 96t72.5 78t99 52.5t132.5 19q73 0 121 -18t76 -49.5t39.5 -74t11.5 -90.5q0 -55 -10.5 -114t-23.5 -117l-67 -308q-12 -55 -27 -111t-36.5 -107.5t-51 -96t-72 -78t-99.5 -52.5t-132 -19h-1q-74 0 -121.5 18.5t-76 49.5
t-39.5 73.5t-11 90.5q0 55 10 114t23 116zM656 1109q-72 0 -118.5 -28t-76.5 -76t-49 -113t-35 -139l-68 -306q-12 -56 -22 -108t-10 -97q0 -33 7.5 -60.5t25 -47t47.5 -30t75 -10.5q72 0 118 27.5t76 75.5t48 112.5t35 138.5l68 308q13 57 23 109t10 97q0 33 -7.5 60
t-25 46.5t-47 30t-74.5 10.5zM507 1388l22 99h402l-21 -99h-403z" />
    <glyph glyph-name="otilde" unicode="&#xf5;" horiz-adv-x="825" 
d="M261 755q12 55 27 111t36.5 107.5t51.5 96t72.5 78t99 52.5t132.5 19q73 0 121 -18t76 -49.5t39.5 -74t11.5 -90.5q0 -55 -10.5 -114t-23.5 -117l-67 -308q-12 -55 -27 -111t-36.5 -107.5t-51 -96t-72 -78t-99.5 -52.5t-132 -19h-1q-74 0 -121.5 18.5t-76 49.5
t-39.5 73.5t-11 90.5q0 55 10 114t23 116zM656 1109q-72 0 -118.5 -28t-76.5 -76t-49 -113t-35 -139l-68 -306q-12 -56 -22 -108t-10 -97q0 -33 7.5 -60.5t25 -47t47.5 -30t75 -10.5q72 0 118 27.5t76 75.5t48 112.5t35 138.5l68 308q13 57 23 109t10 97q0 33 -7.5 60
t-25 46.5t-47 30t-74.5 10.5zM972 1465q-42 -56 -82.5 -86.5t-88.5 -30.5q-32 0 -55.5 11t-43.5 24.5t-40 24.5t-44 11q-26 0 -51.5 -14.5t-54.5 -47.5l-53 36q47 59 88 88.5t89 29.5q31 0 55.5 -11.5t45.5 -25t41 -25t44 -11.5q22 0 45 16t52 47z" />
    <glyph glyph-name="aogonek" unicode="&#x105;" horiz-adv-x="867" 
d="M619 0l28 129q-38 -65 -97 -105.5t-151 -40.5q-69 0 -113.5 17t-71 47t-37 70.5t-10.5 87.5q0 57 11 119t24 122l67 309q13 59 27.5 116t35 108.5t49 95t68.5 75.5t94 50t126 18h1q45 0 77.5 -11t54.5 -31t34.5 -47t17.5 -60l29 133h117l-265 -1202h-116zM435 91
q65 0 110.5 28t77.5 74.5t53 107.5t37 128l61 275l3 15q13 60 24.5 119t11.5 111q0 35 -7 64.5t-24.5 51t-46 33.5t-71.5 12q-72 0 -119 -31t-78 -81.5t-49.5 -114t-32.5 -129.5l-67 -308q-14 -66 -25.5 -121.5t-11.5 -100.5q0 -32 7.5 -56.5t25.5 -41.5t47.5 -26t73.5 -9z
M739 -348q-20 -14 -52.5 -24t-72.5 -10q-30 0 -56.5 8t-46 24.5t-31 43t-11.5 64.5q0 59 19.5 103t50 76t67.5 54t72 38l57 -29q-28 -16 -55.5 -36.5t-49.5 -47.5t-35.5 -60t-13.5 -75q0 -35 17.5 -54.5t55.5 -19.5q32 0 53.5 5.5t38.5 15.5z" />
    <glyph glyph-name="aring" unicode="&#xe5;" horiz-adv-x="867" 
d="M619 0l28 129q-38 -65 -97 -105.5t-151 -40.5q-69 0 -113.5 17t-71 47t-37 70.5t-10.5 87.5q0 57 11 119t24 122l67 309q13 59 27.5 116t35 108.5t49 95t68.5 75.5t94 50t126 18h1q45 0 77.5 -11t54.5 -31t34.5 -47t17.5 -60l29 133h117l-265 -1202h-116zM435 91
q65 0 110.5 28t77.5 74.5t53 107.5t37 128l61 275l3 15q13 60 24.5 119t11.5 111q0 35 -7 64.5t-24.5 51t-46 33.5t-71.5 12q-72 0 -119 -31t-78 -81.5t-49.5 -114t-32.5 -129.5l-67 -308q-14 -66 -25.5 -121.5t-11.5 -100.5q0 -32 7.5 -56.5t25.5 -41.5t47.5 -26t73.5 -9z
M590 1403q0 38 10 72.5t32.5 60t57 40.5t84.5 15q71 0 100 -28.5t29 -77.5q0 -188 -193 -188q-63 0 -91.5 28.5t-28.5 77.5zM679 1426q0 -22 12 -35t39 -13q84 0 84 84q0 21 -12 33.5t-43 12.5q-22 0 -37 -7t-24.5 -18.5t-14 -26t-4.5 -30.5z" />
    <glyph glyph-name="agrave" unicode="&#xe0;" horiz-adv-x="867" 
d="M619 0l28 129q-38 -65 -97 -105.5t-151 -40.5q-69 0 -113.5 17t-71 47t-37 70.5t-10.5 87.5q0 57 11 119t24 122l67 309q13 59 27.5 116t35 108.5t49 95t68.5 75.5t94 50t126 18h1q45 0 77.5 -11t54.5 -31t34.5 -47t17.5 -60l29 133h117l-265 -1202h-116zM435 91
q65 0 110.5 28t77.5 74.5t53 107.5t37 128l61 275l3 15q13 60 24.5 119t11.5 111q0 35 -7 64.5t-24.5 51t-46 33.5t-71.5 12q-72 0 -119 -31t-78 -81.5t-49.5 -114t-32.5 -129.5l-67 -308q-14 -66 -25.5 -121.5t-11.5 -100.5q0 -32 7.5 -56.5t25.5 -41.5t47.5 -26t73.5 -9z
M683 1532l74 -246h-95l-96 246h117z" />
    <glyph glyph-name="atilde" unicode="&#xe3;" horiz-adv-x="867" 
d="M619 0l28 129q-38 -65 -97 -105.5t-151 -40.5q-69 0 -113.5 17t-71 47t-37 70.5t-10.5 87.5q0 57 11 119t24 122l67 309q13 59 27.5 116t35 108.5t49 95t68.5 75.5t94 50t126 18h1q45 0 77.5 -11t54.5 -31t34.5 -47t17.5 -60l29 133h117l-265 -1202h-116zM435 91
q65 0 110.5 28t77.5 74.5t53 107.5t37 128l61 275l3 15q13 60 24.5 119t11.5 111q0 35 -7 64.5t-24.5 51t-46 33.5t-71.5 12q-72 0 -119 -31t-78 -81.5t-49.5 -114t-32.5 -129.5l-67 -308q-14 -66 -25.5 -121.5t-11.5 -100.5q0 -32 7.5 -56.5t25.5 -41.5t47.5 -26t73.5 -9z
M1000 1465q-42 -56 -82.5 -86.5t-88.5 -30.5q-32 0 -55.5 11t-43.5 24.5t-40 24.5t-44 11q-26 0 -51.5 -14.5t-54.5 -47.5l-53 36q47 59 88 88.5t89 29.5q31 0 55.5 -11.5t45.5 -25t41 -25t44 -11.5q22 0 45 16t52 47z" />
    <glyph glyph-name="amacron" unicode="&#x101;" horiz-adv-x="867" 
d="M619 0l28 129q-38 -65 -97 -105.5t-151 -40.5q-69 0 -113.5 17t-71 47t-37 70.5t-10.5 87.5q0 57 11 119t24 122l67 309q13 59 27.5 116t35 108.5t49 95t68.5 75.5t94 50t126 18h1q45 0 77.5 -11t54.5 -31t34.5 -47t17.5 -60l29 133h117l-265 -1202h-116zM435 91
q65 0 110.5 28t77.5 74.5t53 107.5t37 128l61 275l3 15q13 60 24.5 119t11.5 111q0 35 -7 64.5t-24.5 51t-46 33.5t-71.5 12q-72 0 -119 -31t-78 -81.5t-49.5 -114t-32.5 -129.5l-67 -308q-14 -66 -25.5 -121.5t-11.5 -100.5q0 -32 7.5 -56.5t25.5 -41.5t47.5 -26t73.5 -9z
M534 1388l22 99h402l-21 -99h-403z" />
    <glyph glyph-name="adieresis" unicode="&#xe4;" horiz-adv-x="867" 
d="M619 0l28 129q-38 -65 -97 -105.5t-151 -40.5q-69 0 -113.5 17t-71 47t-37 70.5t-10.5 87.5q0 57 11 119t24 122l67 309q13 59 27.5 116t35 108.5t49 95t68.5 75.5t94 50t126 18h1q45 0 77.5 -11t54.5 -31t34.5 -47t17.5 -60l29 133h117l-265 -1202h-116zM435 91
q65 0 110.5 28t77.5 74.5t53 107.5t37 128l61 275l3 15q13 60 24.5 119t11.5 111q0 35 -7 64.5t-24.5 51t-46 33.5t-71.5 12q-72 0 -119 -31t-78 -81.5t-49.5 -114t-32.5 -129.5l-67 -308q-14 -66 -25.5 -121.5t-11.5 -100.5q0 -32 7.5 -56.5t25.5 -41.5t47.5 -26t73.5 -9z
M571 1389q0 19 4.5 35.5t15 29t26.5 20t40 7.5q32 0 46 -13.5t14 -37.5q0 -92 -91 -92q-29 0 -42 13.5t-13 37.5zM763 1389q0 19 4.5 35.5t15 29t27 20t39.5 7.5q33 0 46.5 -13.5t13.5 -37.5q0 -45 -21.5 -68.5t-69.5 -23.5q-29 0 -42 13.5t-13 37.5z" />
    <glyph glyph-name="acircumflex" unicode="&#xe2;" horiz-adv-x="867" 
d="M619 0l28 129q-38 -65 -97 -105.5t-151 -40.5q-69 0 -113.5 17t-71 47t-37 70.5t-10.5 87.5q0 57 11 119t24 122l67 309q13 59 27.5 116t35 108.5t49 95t68.5 75.5t94 50t126 18h1q45 0 77.5 -11t54.5 -31t34.5 -47t17.5 -60l29 133h117l-265 -1202h-116zM435 91
q65 0 110.5 28t77.5 74.5t53 107.5t37 128l61 275l3 15q13 60 24.5 119t11.5 111q0 35 -7 64.5t-24.5 51t-46 33.5t-71.5 12q-72 0 -119 -31t-78 -81.5t-49.5 -114t-32.5 -129.5l-67 -308q-14 -66 -25.5 -121.5t-11.5 -100.5q0 -32 7.5 -56.5t25.5 -41.5t47.5 -26t73.5 -9z
M517 1285l187 229h118l86 -229h-110l-51 155l-119 -155h-111z" />
    <glyph glyph-name="e.fat" horiz-adv-x="894" 
d="M297 755q12 55 26.5 111t36 107.5t51.5 96t72.5 78t99.5 52.5t133 19t125 -17.5t77.5 -47t39.5 -69.5t11 -85q0 -47 -8.5 -95.5t-18.5 -94.5l-41 -185l-9 -41l-39 -178h-1l-2 -12q-15 -71 -38 -143.5t-67 -132t-115.5 -97t-184.5 -37.5q-74 0 -122 18t-76.5 49.5
t-39.5 74t-11 91.5q0 55 10 114t23 116zM781 606l-417 -66l-20 -93q-12 -56 -22 -107.5t-10 -96.5q0 -33 7.5 -60.5t25 -47t47.5 -30.5t75 -11q72 0 117.5 24t74.5 65t45.5 95.5t30.5 115.5l2 12zM692 1109q-72 0 -118.5 -28t-77 -76t-49.5 -112.5t-35 -138.5l-25 -111
l417 67l22 100q10 43 17.5 84t7.5 77q0 30 -7.5 55.5t-25.5 43.5t-48.5 28.5t-77.5 10.5z" />
    <glyph glyph-name="ibreve" unicode="&#x12d;" horiz-adv-x="390" 
d="M138 0l264 1202h117l-264 -1202h-117zM761 1497q-28 -97 -97.5 -154.5t-181.5 -57.5q-50 0 -86.5 12t-59.5 33.5t-34 51.5t-11 66q0 26 4 49h81q-1 -8 -1.5 -15t-0.5 -14q0 -52 29.5 -79t95.5 -27q72 0 116 34.5t65 100.5h81z" />
    <glyph glyph-name="icircumflex" unicode="&#xee;" horiz-adv-x="390" 
d="M138 0l264 1202h117l-264 -1202h-117zM285 1285l187 229h118l86 -229h-110l-51 155l-119 -155h-111z" />
    <glyph glyph-name="idieresis" unicode="&#xef;" horiz-adv-x="390" 
d="M138 0l264 1202h117l-264 -1202h-117zM339 1389q0 19 4.5 35.5t15 29t26.5 20t40 7.5q32 0 46 -13.5t14 -37.5q0 -92 -91 -92q-29 0 -42 13.5t-13 37.5zM531 1389q0 19 4.5 35.5t15 29t27 20t39.5 7.5q33 0 46.5 -13.5t13.5 -37.5q0 -45 -21.5 -68.5t-69.5 -23.5
q-29 0 -42 13.5t-13 37.5z" />
    <glyph glyph-name="igrave" unicode="&#xec;" horiz-adv-x="390" 
d="M138 0l264 1202h117l-264 -1202h-117zM453 1532l74 -246h-95l-96 246h117z" />
    <glyph glyph-name="ij" unicode="&#x133;" horiz-adv-x="780" 
d="M461 1490q0 35 21.5 58.5t68.5 23.5q35 0 50.5 -13.5t15.5 -36.5q0 -34 -20 -58t-75 -24q-61 0 -61 50zM147 0l265 1202h116l-264 -1202h-117zM817 1490q0 35 21.5 58.5t68.5 23.5q35 0 50.5 -13.5t15.5 -36.5q0 -34 -20 -58t-75 -24q-61 0 -61 50zM888 1202l-267 -1212
q-21 -96 -44 -170t-59.5 -125t-92.5 -77.5t-142 -26.5q-57 0 -96 15.5t-59 29.5l34 99q17 -10 54.5 -23t83.5 -13q51 0 82.5 15t52.5 49t36.5 89.5t33.5 137.5l266 1212h117z" />
    <glyph glyph-name="imacron" unicode="&#x12b;" horiz-adv-x="390" 
d="M138 0l264 1202h117l-264 -1202h-117zM302 1388l22 99h402l-21 -99h-403z" />
    <glyph glyph-name="iogonek" unicode="&#x12f;" horiz-adv-x="390" 
d="M452 1490q0 35 21.5 58.5t68.5 23.5q35 0 50 -13.5t15 -36.5q0 -34 -19.5 -58t-74.5 -24q-61 0 -61 50zM138 0l265 1202h116l-264 -1202h-117zM260 -348q-20 -14 -52.5 -24t-72.5 -10q-30 0 -56.5 8t-46 24.5t-31 43t-11.5 64.5q0 59 19.5 103t50 76t67.5 54t72 38
l57 -29q-28 -16 -55.5 -36.5t-49.5 -47.5t-35.5 -60t-13.5 -75q0 -35 17.5 -54.5t55.5 -19.5q32 0 53.5 5.5t38.5 15.5z" />
    <glyph glyph-name="itilde" unicode="&#x129;" horiz-adv-x="390" 
d="M138 0l264 1202h117l-264 -1202h-117zM769 1465q-42 -56 -82.5 -86.5t-88.5 -30.5q-32 0 -55.5 11t-43.5 24.5t-40 24.5t-44 11q-26 0 -51.5 -14.5t-54.5 -47.5l-53 36q47 59 88 88.5t89 29.5q31 0 55.5 -11.5t45.5 -25t41 -25t44 -11.5q22 0 45 16t52 47z" />
    <glyph glyph-name="jcircumflex" unicode="&#x135;" horiz-adv-x="393" 
d="M284 1285l187 229h118l86 -229h-110l-51 155l-119 -155h-111zM521 1202l-267 -1212q-21 -96 -44 -170t-59.5 -125t-92.5 -77.5t-142 -26.5q-57 0 -96 15.5t-59 29.5l34 99q17 -10 54 -23t84 -13q51 1 82.5 16t52.5 48.5t36.5 89t33.5 137.5l266 1212h117z" />
    <glyph glyph-name="nacute" unicode="&#x144;" horiz-adv-x="891" 
d="M654 0l167 756q13 58 24 112.5t11 100.5q0 31 -7 57t-24 44.5t-46 28.5t-72 10q-69 0 -117.5 -34t-82.5 -90t-56.5 -127t-38.5 -145l-157 -713h-117l264 1202h117l-34 -152q20 34 48.5 65t64 53.5t77 36t87.5 13.5q63 0 104.5 -15.5t66 -43.5t34.5 -65.5t10 -81.5
q0 -60 -13 -125.5t-27 -130.5l-166 -756h-117zM990 1532l-205 -246h-98l182 246h121z" />
    <glyph glyph-name="ncaron" unicode="&#x148;" horiz-adv-x="891" 
d="M654 0l167 756q13 58 24 112.5t11 100.5q0 31 -7 57t-24 44.5t-46 28.5t-72 10q-69 0 -117.5 -34t-82.5 -90t-56.5 -127t-38.5 -145l-157 -713h-117l264 1202h117l-34 -152q20 34 48.5 65t64 53.5t77 36t87.5 13.5q63 0 104.5 -15.5t66 -43.5t34.5 -65.5t10 -81.5
q0 -60 -13 -125.5t-27 -130.5l-166 -756h-117zM716 1514l49 -155l121 155h110l-188 -229h-118l-86 229h112z" />
    <glyph glyph-name="ntilde" unicode="&#xf1;" horiz-adv-x="891" 
d="M654 0l167 756q13 58 24 112.5t11 100.5q0 31 -7 57t-24 44.5t-46 28.5t-72 10q-69 0 -117.5 -34t-82.5 -90t-56.5 -127t-38.5 -145l-157 -713h-117l264 1202h117l-34 -152q20 34 48.5 65t64 53.5t77 36t87.5 13.5q63 0 104.5 -15.5t66 -43.5t34.5 -65.5t10 -81.5
q0 -60 -13 -125.5t-27 -130.5l-166 -756h-117zM1032 1465q-42 -56 -82.5 -86.5t-88.5 -30.5q-32 0 -55.5 11t-43.5 24.5t-40 24.5t-44 11q-26 0 -51.5 -14.5t-54.5 -47.5l-53 36q47 59 88 88.5t89 29.5q31 0 55.5 -11.5t45.5 -25t41 -25t44 -11.5q22 0 45 16t52 47z" />
    <glyph glyph-name="napostrophe" unicode="&#x149;" horiz-adv-x="982" 
d="M735 0l167 756q13 58 24 112.5t11 100.5q0 31 -7 57t-24 44.5t-46 28.5t-72 10q-69 0 -117.5 -34t-82.5 -90t-56.5 -127t-38.5 -145l-157 -713h-117l264 1202h117l-34 -152q20 34 48.5 65t64 53.5t77 36t87.5 13.5q63 0 104.5 -15.5t66 -43.5t34.5 -65.5t10 -81.5
q0 -60 -13 -125.5t-27 -130.5l-166 -756h-117zM249 1132q0 40 20.5 63.5t65.5 23.5q33 0 47 -17t14 -43q0 -33 -10.5 -65t-26.5 -61.5t-35.5 -55t-37.5 -46.5l-48 26q15 19 25.5 35t19 31t14.5 29.5t11 31.5q-59 0 -59 48z" />
    <glyph glyph-name="ncommaaccent" unicode="&#x146;" horiz-adv-x="891" 
d="M654 0l167 756q13 58 24 112.5t11 100.5q0 31 -7 57t-24 44.5t-46 28.5t-72 10q-69 0 -117.5 -34t-82.5 -90t-56.5 -127t-38.5 -145l-157 -713h-117l264 1202h117l-34 -152q20 34 48.5 65t64 53.5t77 36t87.5 13.5q63 0 104.5 -15.5t66 -43.5t34.5 -65.5t10 -81.5
q0 -60 -13 -125.5t-27 -130.5l-166 -756h-117zM360 -146q0 40 20.5 63.5t65.5 23.5q33 0 47 -17t14 -43q0 -33 -10.5 -65t-26.5 -61.5t-35.5 -55t-37.5 -46.5l-48 26q15 19 25.5 35t19 31t14.5 29.5t11 31.5q-59 0 -59 48z" />
    <glyph glyph-name="iotadieresistonos" unicode="&#x390;" horiz-adv-x="390" 
d="M138 0l264 1202h117l-264 -1202h-117zM611 1613l-69 -246h-90l45 246h114zM281 1377q0 19 4.5 35.5t15 29t26.5 20t40 7.5q32 0 46 -13.5t14 -37.5q0 -92 -91 -92q-29 0 -42 13.5t-13 37.5zM578 1377q0 19 4.5 35.5t15 29t27 20t39.5 7.5q33 0 46.5 -13.5t13.5 -37.5
q0 -45 -21.5 -68.5t-69.5 -23.5q-29 0 -42 13.5t-13 37.5z" />
    <glyph glyph-name="iotatonos" unicode="&#x3af;" horiz-adv-x="390" 
d="M138 0l264 1202h117l-264 -1202h-117zM600 1538l-69 -246h-92l45 246h116z" />
    </font>
</defs>
</svg>
