<?xml version="1.0" encoding="UTF-8" standalone="no"?>
<svg
   xmlns:dc="http://purl.org/dc/elements/1.1/"
   xmlns:cc="http://creativecommons.org/ns#"
   xmlns:rdf="http://www.w3.org/1999/02/22-rdf-syntax-ns#"
   xmlns:svg="http://www.w3.org/2000/svg"
   xmlns="http://www.w3.org/2000/svg"
   id="svg1128"
   version="1.1"
   viewBox="0 0 15.601911 12.071884"
   height="12.071884mm"
   width="15.601911mm">
  <defs
     id="defs1122" />
  <metadata
     id="metadata1125">
    <rdf:RDF>
      <cc:Work
         rdf:about="">
        <dc:format>image/svg+xml</dc:format>
        <dc:type
           rdf:resource="http://purl.org/dc/dcmitype/StillImage" />
        <dc:title></dc:title>
      </cc:Work>
    </rdf:RDF>
  </metadata>
  <g
     transform="translate(79.616432,-144.3093)"
     id="layer1">
    <g
       transform="matrix(0.35277777,0,0,-0.35277777,-76.70182,155.73519)"
       id="g254">
      <path
         id="path256"
         style="fill:#f48220;fill-opacity:1;fill-rule:nonzero;stroke:none"
         d="m 0,0 c -1.925,6.067 -4.403,13.287 -6.329,19.354 7.1,10.192 21.276,1.075 34.374,11.219 1.926,-6.066 4.112,-13.661 6.039,-19.728 C 24.9,1.522 9.183,9.325 0,0 M 35.837,12.171 30.025,30.49 c -0.289,0.909 -1.032,1.599 -1.959,1.823 -0.487,0.118 -0.991,0.095 -1.456,-0.052 -0.416,-0.132 -0.798,-0.365 -1.112,-0.682 -1.466,-1.489 -3.209,-2.54 -5.332,-3.213 -2.835,-0.898 -6.001,-1.052 -9.35,-1.213 C 7.265,26.986 3.592,26.809 0.08,25.695 -2.905,24.746 -5.378,23.251 -7.479,21.116 -8.188,20.396 -8.438,19.348 -8.136,18.386 L -2.323,0.065 c 0.288,-0.909 1.031,-1.598 1.958,-1.821 0.489,-0.116 0.991,-0.097 1.457,0.052 0.415,0.132 0.798,0.363 1.113,0.683 1.467,1.489 3.21,2.541 5.334,3.212 2.834,0.899 5.997,1.05 9.348,1.209 3.55,0.171 7.224,0.348 10.735,1.462 2.984,0.947 5.458,2.445 7.561,4.578 0.707,0.721 0.958,1.772 0.654,2.731" />
    </g>
    <g
       transform="matrix(0.35277777,0,0,-0.35277777,-71.019806,151.61072)"
       id="g258">
      <path
         id="path260"
         style="fill:#f48220;fill-opacity:1;fill-rule:nonzero;stroke:none"
         d="M 0,0 C -0.213,-0.145 -0.43,-0.259 -0.656,-0.339 -0.979,0.695 -1.266,1.796 -1.541,2.915 -1.328,2.903 -1.105,2.891 -0.867,2.871 -0.63,2.852 -0.406,2.805 -0.193,2.737 0.022,2.663 0.217,2.553 0.39,2.403 0.56,2.252 0.69,2.05 0.776,1.793 0.858,1.534 0.874,1.303 0.818,1.089 0.766,0.872 0.667,0.675 0.53,0.491 0.391,0.309 0.216,0.145 0,0 m -4.439,5.365 c -0.349,0.163 -0.588,0.431 -0.718,0.818 -0.057,0.164 -0.067,0.333 -0.034,0.51 0.029,0.179 0.099,0.356 0.213,0.53 0.112,0.172 0.264,0.333 0.457,0.474 0.188,0.145 0.419,0.267 0.684,0.364 0.297,-0.925 0.562,-1.909 0.816,-2.916 -0.596,-0.015 -1.07,0.058 -1.418,0.22 M 2.73,2.687 C 2.508,3.22 2.229,3.649 1.888,3.967 1.55,4.283 1.177,4.533 0.762,4.712 0.35,4.887 -0.103,5.006 -0.589,5.061 -1.076,5.112 -1.572,5.153 -2.086,5.166 -2.348,6.247 -2.614,7.318 -2.908,8.337 -2.479,8.45 -2.126,8.438 -1.849,8.306 -1.568,8.176 -1.32,8.011 -1.104,7.818 -0.882,7.622 -0.677,7.447 -0.484,7.294 -0.289,7.139 -0.076,7.088 0.161,7.142 0.414,7.201 0.612,7.347 0.747,7.575 0.883,7.807 0.913,8.085 0.831,8.414 0.728,8.838 0.514,9.174 0.179,9.43 c -0.33,0.252 -0.704,0.44 -1.135,0.556 -0.427,0.111 -0.864,0.156 -1.314,0.131 -0.448,-0.024 -0.832,-0.089 -1.142,-0.185 -0.04,0.115 -0.08,0.229 -0.12,0.343 -0.046,0.125 -0.132,0.225 -0.264,0.29 -0.131,0.069 -0.269,0.068 -0.412,0.01 -0.14,-0.055 -0.24,-0.153 -0.289,-0.286 C -4.553,10.154 -4.552,10.028 -4.502,9.905 -4.458,9.799 -4.413,9.693 -4.37,9.583 -4.872,9.371 -5.34,9.091 -5.766,8.761 -6.194,8.43 -6.539,8.061 -6.801,7.665 -7.066,7.268 -7.222,6.858 -7.278,6.433 -7.336,6.005 -7.257,5.575 -7.058,5.104 -6.734,4.338 -6.169,3.791 -5.37,3.434 -4.572,3.08 -3.619,2.878 -2.474,2.895 -2.188,1.703 -1.896,0.516 -1.577,-0.612 -2.011,-0.711 -2.351,-0.72 -2.608,-0.646 -2.866,-0.575 -3.071,-0.463 -3.23,-0.309 -3.388,-0.151 -3.52,0.023 -3.623,0.215 -3.727,0.409 -3.836,0.586 -3.954,0.745 -4.069,0.902 -4.207,1.029 -4.37,1.116 -4.533,1.204 -4.749,1.215 -5.028,1.15 -5.315,1.08 -5.518,0.931 -5.635,0.705 -5.751,0.48 -5.766,0.199 -5.683,-0.137 c 0.086,-0.337 0.252,-0.669 0.495,-0.989 0.243,-0.32 0.557,-0.605 0.944,-0.84 0.386,-0.235 0.84,-0.393 1.371,-0.459 0.531,-0.069 1.127,-0.005 1.791,0.207 0.103,-0.314 0.215,-0.619 0.328,-0.917 0.05,-0.124 0.138,-0.219 0.275,-0.277 0.128,-0.061 0.27,-0.059 0.414,10e-4 0.145,0.062 0.245,0.163 0.296,0.295 0.054,0.133 0.052,0.258 0.002,0.373 -0.125,0.28 -0.244,0.568 -0.358,0.866 0.591,0.256 1.122,0.573 1.576,0.924 C 1.907,-0.6 2.266,-0.218 2.523,0.175 2.782,0.57 2.928,0.973 2.968,1.385 3.013,1.802 2.927,2.223 2.73,2.687" />
    </g>
    <g
       transform="matrix(0.35277777,0,0,-0.35277777,-73.724906,152.6928)"
       id="g262">
      <path
         id="path264"
         style="fill:#f48220;fill-opacity:1;fill-rule:nonzero;stroke:none"
         d="m 0,0 -0.003,0.001 c -1.055,-0.188 -2.106,-0.417 -3.143,-0.748 -0.995,-0.315 -1.945,-0.698 -2.826,-1.136 l -1.409,-0.699 0.001,-0.004 c -0.272,-0.157 -0.411,-0.486 -0.312,-0.798 0.113,-0.357 0.498,-0.556 0.856,-0.444 0.056,0.018 0.106,0.044 0.152,0.075 l 1.319,0.655 c 0.816,0.406 1.702,0.763 2.63,1.056 1.028,0.326 1.926,0.523 2.991,0.708 L 0.254,-1.33 c 0.031,0.005 0.058,0.008 0.088,0.018 C 0.7,-1.2 0.899,-0.815 0.785,-0.457 0.682,-0.122 0.337,0.068 0,0" />
    </g>
    <g
       transform="matrix(0.35277777,0,0,-0.35277777,-68.975143,147.34328)"
       id="g266">
      <path
         id="path268"
         style="fill:#f48220;fill-opacity:1;fill-rule:nonzero;stroke:none"
         d="m 0,0 c -0.958,-0.304 -1.937,-0.518 -2.928,-0.691 -0.063,-0.002 -0.129,-0.008 -0.194,-0.032 -0.361,-0.114 -0.563,-0.501 -0.447,-0.862 0.109,-0.352 0.479,-0.551 0.834,-0.454 l 0.004,-0.005 c 1.054,0.189 2.106,0.42 3.141,0.749 0.995,0.316 1.944,0.696 2.824,1.134 L 4.646,0.543 V 0.547 C 4.976,0.681 5.151,1.044 5.043,1.388 4.929,1.748 4.544,1.948 4.183,1.833 4.115,1.812 4.056,1.776 4,1.74 L 2.63,1.058 C 1.811,0.649 0.927,0.294 0,0" />
    </g>
  </g>
</svg>
