<?xml version="1.0" encoding="UTF-8" standalone="no"?>
<svg
   xmlns:dc="http://purl.org/dc/elements/1.1/"
   xmlns:cc="http://creativecommons.org/ns#"
   xmlns:rdf="http://www.w3.org/1999/02/22-rdf-syntax-ns#"
   xmlns:svg="http://www.w3.org/2000/svg"
   xmlns="http://www.w3.org/2000/svg"
   id="svg429"
   version="1.1"
   viewBox="0 0 39.687501 39.690436"
   height="39.690437mm"
   width="39.6875mm">
  <defs
     id="defs423">
    <clipPath
       id="clipPath20"
       clipPathUnits="userSpaceOnUse">
      <path
         id="path18"
         d="M 0,1740.998 H 1280 V 0 H 0 Z" />
    </clipPath>
  </defs>
  <metadata
     id="metadata426">
    <rdf:RDF>
      <cc:Work
         rdf:about="">
        <dc:format>image/svg+xml</dc:format>
        <dc:type
           rdf:resource="http://purl.org/dc/dcmitype/StillImage" />
        <dc:title></dc:title>
      </cc:Work>
    </rdf:RDF>
  </metadata>
  <g
     transform="translate(223.57065,35.551321)"
     id="layer1">
    <g
       transform="matrix(2.532432,0,0,2.532432,342.6068,-6.3429145)"
       id="g527">
      <g
         id="g22"
         transform="matrix(0.35277777,0,0,-0.35277777,-211.09977,-1.9500026)">
        <path
           d="m 0,0 c -0.516,-0.799 -1.116,-1.575 -1.812,-2.308 -4.384,-4.614 -10.601,-5.852 -13.882,-2.768 -2.346,2.206 -2.545,6.03 -0.867,9.717 -2.56,0.72 -5.378,1.512 -7.55,2.128 -3.923,1.113 -6.82,2.37 -8.032,2.93 1.34,-0.166 4.443,-0.644 8.338,-1.783 2.228,-0.653 5.135,-1.514 7.743,-2.284 0.619,1.122 1.404,2.216 2.368,3.229 4.386,4.616 10.599,5.852 13.882,2.771 C 2.749,9.226 2.755,4.896 0.557,0.921 2.854,0.137 4.559,-0.595 5.413,-0.987 4.433,-0.87 2.496,-0.583 0,0 M -16.647,26.885 C -28.759,24.947 -37.007,13.557 -35.068,1.447 -33.133,-10.668 -21.745,-18.914 -9.631,-16.979 2.479,-15.041 10.729,-3.652 8.791,8.457 6.852,20.574 -4.537,28.82 -16.647,26.885"
           style="fill:#ff4814;fill-opacity:1;fill-rule:evenodd;stroke:none"
           id="path24" />
      </g>
      <g
         id="g26"
         transform="matrix(0.35277777,0,0,-0.35277777,-211.17555,-5.2348928)">
        <path
           d="M 0,0 -0.024,0.147 C -0.186,1.15 -0.992,1.814 -1.998,1.655 L -2.14,1.629 c -0.967,-0.152 -1.637,-1.01 -1.546,-1.974 0.15,0.548 0.603,0.999 1.2,1.094 0.814,0.132 1.579,-0.419 1.709,-1.232 0.119,-0.741 -0.334,-1.442 -1.031,-1.656 0.09,0 0.179,0.003 0.267,0.015 l 0.145,0.025 C -0.391,-1.938 0.16,-1.005 0,0"
           style="fill:#ff4e00;fill-opacity:1;fill-rule:evenodd;stroke:none"
           id="path28" />
      </g>
    </g>
  </g>
</svg>
