<?xml version="1.0" encoding="UTF-8" standalone="no"?>
<svg
   xmlns:dc="http://purl.org/dc/elements/1.1/"
   xmlns:cc="http://creativecommons.org/ns#"
   xmlns:rdf="http://www.w3.org/1999/02/22-rdf-syntax-ns#"
   xmlns:svg="http://www.w3.org/2000/svg"
   xmlns="http://www.w3.org/2000/svg"
   id="svg1587"
   version="1.1"
   viewBox="0 0 56.024605 15.672854"
   height="15.672854mm"
   width="56.024605mm">
  <defs
     id="defs1581">
    <clipPath
       id="clipPath20"
       clipPathUnits="userSpaceOnUse">
      <path
         id="path18"
         d="M 0,1740.998 H 1280 V 0 H 0 Z" />
    </clipPath>
  </defs>
  <metadata
     id="metadata1584">
    <rdf:RDF>
      <cc:Work
         rdf:about="">
        <dc:format>image/svg+xml</dc:format>
        <dc:type
           rdf:resource="http://purl.org/dc/dcmitype/StillImage" />
        <dc:title></dc:title>
      </cc:Work>
    </rdf:RDF>
  </metadata>
  <g
     transform="translate(244.97063,-38.943332)"
     id="layer1">
    <g
       id="g2238">
      <g
         transform="matrix(0.35277777,0,0,-0.35277777,-232.49976,48.527067)"
         id="g22">
        <path
           id="path24"
           style="fill:#ff4814;fill-opacity:1;fill-rule:evenodd;stroke:none"
           d="m 0,0 c -0.516,-0.799 -1.116,-1.575 -1.812,-2.308 -4.384,-4.614 -10.601,-5.852 -13.882,-2.768 -2.346,2.206 -2.545,6.03 -0.867,9.717 -2.56,0.72 -5.378,1.512 -7.55,2.128 -3.923,1.113 -6.82,2.37 -8.032,2.93 1.34,-0.166 4.443,-0.644 8.338,-1.783 2.228,-0.653 5.135,-1.514 7.743,-2.284 0.619,1.122 1.404,2.216 2.368,3.229 4.386,4.616 10.599,5.852 13.882,2.771 C 2.749,9.226 2.755,4.896 0.557,0.921 2.854,0.137 4.559,-0.595 5.413,-0.987 4.433,-0.87 2.496,-0.583 0,0 M -16.647,26.885 C -28.759,24.947 -37.007,13.557 -35.068,1.447 -33.133,-10.668 -21.745,-18.914 -9.631,-16.979 2.479,-15.041 10.729,-3.652 8.791,8.457 6.852,20.574 -4.537,28.82 -16.647,26.885" />
      </g>
      <g
         transform="matrix(0.35277777,0,0,-0.35277777,-232.57554,45.242177)"
         id="g26">
        <path
           id="path28"
           style="fill:#ff4e00;fill-opacity:1;fill-rule:evenodd;stroke:none"
           d="M 0,0 -0.024,0.147 C -0.186,1.15 -0.992,1.814 -1.998,1.655 L -2.14,1.629 c -0.967,-0.152 -1.637,-1.01 -1.546,-1.974 0.15,0.548 0.603,0.999 1.2,1.094 0.814,0.132 1.579,-0.419 1.709,-1.232 0.119,-0.741 -0.334,-1.442 -1.031,-1.656 0.09,0 0.179,0.003 0.267,0.015 l 0.145,0.025 C -0.391,-1.938 0.16,-1.005 0,0" />
      </g>
      <g
         transform="matrix(0.35277777,0,0,-0.35277777,-189.16475,44.419464)"
         id="g30">
        <path
           id="path32"
           style="fill:#201d1e;fill-opacity:1;fill-rule:nonzero;stroke:none"
           d="m 0,0 h -1.044 c -0.334,0 -0.585,-0.18 -0.701,-0.514 l -2.814,-8.483 c -0.133,-0.398 -0.253,-0.798 -0.354,-1.205 -0.012,0.049 -0.026,0.102 -0.036,0.151 -0.091,0.379 -0.2,0.736 -0.32,1.057 l -3.04,8.498 C -8.494,-0.064 -8.807,0 -8.979,0 h -1.395 c -0.378,0 -0.617,-0.236 -0.617,-0.619 0,-0.135 0.046,-0.289 0.117,-0.434 l 4.745,-12.258 -0.593,-1.68 c -0.488,-1.396 -1.132,-2.101 -1.909,-2.101 -0.172,0 -0.393,0.043 -0.656,0.134 -0.761,0.264 -1.314,0.205 -1.691,-0.152 -0.222,-0.214 -0.335,-0.496 -0.335,-0.848 0,-0.644 0.348,-1.412 2.01,-1.412 1.224,0 2.212,0.395 2.937,1.172 0.7,0.752 1.296,1.799 1.769,3.118 L 0.5,-1.053 c 0.081,0.2 0.12,0.335 0.12,0.434 C 0.62,-0.236 0.381,0 0,0" />
      </g>
      <g
         transform="matrix(0.35277777,0,0,-0.35277777,-221.32817,43.726856)"
         id="g34">
        <path
           id="path36"
           style="fill:#201d1e;fill-opacity:1;fill-rule:nonzero;stroke:none"
           d="m 0,0 c 0.042,-0.05 0.081,-0.103 0.123,-0.155 0.51,-0.637 0.772,-1.488 0.772,-2.532 0,-1.196 -0.336,-2.062 -1.025,-2.638 -0.026,-0.025 -0.046,-0.047 -0.077,-0.068 -0.085,-0.067 -0.182,-0.131 -0.279,-0.19 -0.277,-0.17 -0.607,-0.306 -0.982,-0.416 -0.627,-0.179 -1.385,-0.277 -2.271,-0.277 -0.326,0 -0.619,0.014 -0.886,0.042 -0.029,0.003 -0.063,0.003 -0.088,0.006 v 7.069 c 0.077,0.012 0.162,0.024 0.245,0.034 0.502,0.067 1.071,0.102 1.698,0.102 0.237,0 0.452,-0.016 0.663,-0.038 C -1.188,0.839 -0.48,0.527 0,0 M 2.034,1.287 H 2.032 C 1.73,1.557 1.38,1.787 0.996,1.984 -0.012,2.496 -1.294,2.758 -2.842,2.758 -4.516,2.758 -5.818,2.641 -6.733,2.41 -6.788,2.397 -6.846,2.388 -6.897,2.374 -6.921,2.363 -6.937,2.355 -6.961,2.345 -7.395,2.182 -7.464,1.855 -7.464,1.667 v -16.544 c 0,-0.386 0.229,-0.616 0.616,-0.616 h 1.516 c 0.194,0 0.348,0.058 0.454,0.163 0.108,0.108 0.165,0.259 0.165,0.453 v 6.892 c 0.454,-0.048 0.824,-0.071 1.124,-0.071 4.832,0 7.283,1.816 7.283,5.393 0,1.642 -0.559,2.972 -1.66,3.95" />
      </g>
      <g
         transform="matrix(0.35277777,0,0,-0.35277777,-218.57742,42.774638)"
         id="g38">
        <path
           id="path40"
           style="fill:#201d1e;fill-opacity:1;fill-rule:nonzero;stroke:none"
           d="m 0,0 c -0.01,0 -0.021,0.006 -0.033,0.006 -0.099,0.019 -0.2,0.024 -0.307,0.024 -0.425,0 -0.792,-0.131 -1.081,-0.397 -0.286,-0.256 -0.432,-0.573 -0.45,-0.943 0,-0.025 -0.005,-0.046 -0.005,-0.07 0,-0.404 0.151,-0.744 0.455,-1.015 0.265,-0.235 0.591,-0.366 0.965,-0.387 0.039,-0.003 0.075,-0.01 0.116,-0.01 0.427,0 0.787,0.133 1.085,0.397 0.297,0.271 0.451,0.611 0.451,1.015 0,0.403 -0.154,0.742 -0.451,1.013 C 0.53,-0.175 0.283,-0.056 0,0" />
      </g>
      <g
         transform="matrix(0.35277777,0,0,-0.35277777,-218.369,44.488714)"
         id="g42">
        <path
           id="path44"
           style="fill:#201d1e;fill-opacity:1;fill-rule:nonzero;stroke:none"
           d="m 0,0 c -0.077,0.027 -0.164,0.04 -0.259,0.04 h -1.344 c -0.38,0 -0.615,-0.234 -0.615,-0.617 v -12.141 c 0,-0.367 0.214,-0.589 0.566,-0.607 0.017,0 0.033,-0.008 0.049,-0.008 h 1.344 c 0.024,0 0.043,0.008 0.067,0.011 0.303,0.022 0.494,0.204 0.532,0.503 0.004,0.033 0.018,0.064 0.018,0.101 V -0.577 C 0.358,-0.287 0.229,-0.086 0,0" />
      </g>
      <g
         transform="matrix(0.35277777,0,0,-0.35277777,-213.68591,47.572768)"
         id="g46">
        <path
           id="path48"
           style="fill:#201d1e;fill-opacity:1;fill-rule:nonzero;stroke:none"
           d="m 0,0 c -0.026,0.031 -0.057,0.058 -0.087,0.085 -0.004,0.004 -0.008,0.007 -0.01,0.01 -0.01,0.007 -0.022,0.012 -0.032,0.019 -0.069,0.049 -0.144,0.084 -0.223,0.098 -0.039,0.007 -0.079,0.013 -0.122,0.013 -0.056,0 -0.107,-0.013 -0.155,-0.021 -0.257,-0.044 -0.46,-0.196 -0.591,-0.442 -0.012,-0.028 -0.035,-0.049 -0.045,-0.076 -0.273,-0.585 -0.575,-1.061 -0.907,-1.424 -0.016,-0.016 -0.032,-0.028 -0.05,-0.046 -0.543,-0.568 -1.164,-0.853 -1.883,-0.853 -1.026,0 -1.822,0.362 -2.429,1.1 -0.004,0.005 -0.01,0.011 -0.016,0.021 -0.012,0.012 -0.018,0.027 -0.029,0.037 -0.076,0.098 -0.15,0.197 -0.22,0.311 -0.073,0.113 -0.144,0.234 -0.209,0.36 -0.506,0.95 -0.761,2.106 -0.761,3.451 0,1.532 0.308,2.732 0.911,3.565 0.595,0.817 1.302,1.218 2.156,1.218 0.437,0 0.82,-0.099 1.148,-0.292 0.548,-0.324 0.945,-0.923 1.206,-1.801 0.249,-0.823 0.794,-0.992 1.202,-0.992 0.784,0 1.215,0.457 1.215,1.284 0,0.627 -0.316,1.29 -0.945,1.97 -0.087,0.102 -0.185,0.197 -0.284,0.299 -0.818,0.786 -1.949,1.187 -3.37,1.187 -1.063,0 -2.008,-0.274 -2.84,-0.808 -0.425,-0.271 -0.822,-0.607 -1.184,-1.016 -1.055,-1.202 -1.593,-2.94 -1.593,-5.162 0,-2.326 0.542,-4.089 1.609,-5.239 0.67,-0.724 1.437,-1.225 2.295,-1.5 0.514,-0.164 1.063,-0.247 1.64,-0.247 0.781,0 1.508,0.174 2.152,0.516 0.643,0.335 1.154,0.76 1.514,1.25 0.35,0.478 0.625,0.952 0.812,1.406 0.196,0.471 0.291,0.889 0.291,1.251 0,0.173 -0.055,0.331 -0.166,0.465 z" />
      </g>
      <g
         transform="matrix(0.35277777,0,0,-0.35277777,-209.42898,47.572768)"
         id="g50">
        <path
           id="path52"
           style="fill:#201d1e;fill-opacity:1;fill-rule:nonzero;stroke:none"
           d="M 0,0 C -0.122,0.148 -0.286,0.225 -0.474,0.225 H -0.476 C -0.533,0.225 -0.585,0.212 -0.638,0.204 -0.67,0.198 -0.703,0.198 -0.731,0.187 -0.739,0.185 -0.745,0.179 -0.755,0.179 -0.913,0.127 -1.047,0.027 -1.15,-0.117 -1.194,-0.176 -1.235,-0.24 -1.267,-0.314 c -0.725,-1.563 -1.654,-2.323 -2.84,-2.323 -1.185,0 -2.065,0.48 -2.692,1.466 -0.644,1.007 -0.97,2.293 -0.97,3.814 0,1.532 0.308,2.732 0.911,3.565 0.595,0.817 1.301,1.218 2.155,1.218 0.294,0 0.563,-0.047 0.808,-0.133 0.725,-0.262 1.233,-0.908 1.547,-1.96 0.247,-0.823 0.791,-0.992 1.2,-0.992 h 0.002 c 0.784,0 1.213,0.457 1.213,1.284 0,0.717 -0.413,1.477 -1.229,2.269 -0.816,0.786 -1.949,1.187 -3.366,1.187 H -4.53 c -1.608,0 -2.962,-0.616 -4.027,-1.824 -1.054,-1.202 -1.589,-2.94 -1.589,-5.162 0,-2.326 0.541,-4.089 1.607,-5.239 0.669,-0.724 1.436,-1.225 2.294,-1.5 0.516,-0.164 1.063,-0.247 1.64,-0.247 0.783,0 1.508,0.174 2.156,0.516 0.641,0.335 1.152,0.76 1.512,1.25 0.348,0.478 0.623,0.952 0.812,1.409 0.194,0.468 0.293,0.886 0.293,1.248 0,0.173 -0.057,0.331 -0.166,0.465 z" />
      </g>
      <g
         transform="matrix(0.35277777,0,0,-0.35277777,-207.6508,48.490378)"
         id="g54">
        <path
           id="path56"
           style="fill:#201d1e;fill-opacity:1;fill-rule:nonzero;stroke:none"
           d="m 0,0 c -0.45,0.42 -0.67,0.921 -0.67,1.539 0,0.514 0.119,0.967 0.35,1.336 0.231,0.38 0.599,0.7 1.089,0.961 0.514,0.271 1.032,0.488 1.536,0.641 0.448,0.136 1.01,0.274 1.664,0.417 V 0.69 C 3.969,0.121 3.759,-0.631 1.923,-0.631 1.095,-0.631 0.449,-0.423 0,0 M 5.265,10.689 C 4.496,11.346 3.536,11.682 2.423,11.682 H 2.421 c -1.595,0 -2.846,-0.378 -3.715,-1.132 -0.884,-0.755 -1.33,-1.511 -1.33,-2.245 0,-0.371 0.114,-0.659 0.336,-0.873 0.221,-0.212 0.5,-0.317 0.826,-0.317 h 0.004 c 0.282,0 0.539,0.083 0.764,0.246 0.228,0.167 0.378,0.392 0.439,0.657 0.139,0.521 0.413,1.002 0.814,1.424 0.24,0.255 0.536,0.422 0.882,0.515 0.21,0.058 0.433,0.095 0.68,0.095 0.547,0 0.982,-0.185 1.328,-0.567 0.348,-0.388 0.52,-0.891 0.52,-1.528 V 6.391 C 3.83,6.362 3.702,6.338 3.573,6.313 3.034,6.207 2.571,6.108 2.19,6.014 2.03,5.978 1.856,5.929 1.676,5.876 1.271,5.756 0.815,5.608 0.31,5.423 -0.427,5.149 -1.028,4.85 -1.478,4.532 -1.933,4.209 -2.332,3.772 -2.66,3.232 -2.998,2.681 -3.17,2.062 -3.17,1.391 c 0,-1.144 0.478,-2.057 1.423,-2.716 0.917,-0.638 2.142,-0.965 3.645,-0.965 0.324,0 0.65,0.023 0.974,0.055 0.371,0.042 0.737,0.103 1.099,0.19 0.701,0.166 1.185,0.345 1.476,0.548 0.366,0.255 0.626,0.541 0.777,0.85 0.148,0.308 0.223,0.733 0.223,1.289 v 7.212 c 0,1.215 -0.399,2.17 -1.182,2.835" />
      </g>
      <g
         transform="matrix(0.35277777,0,0,-0.35277777,-201.48527,45.173597)"
         id="g58">
        <path
           id="path60"
           style="fill:#201d1e;fill-opacity:1;fill-rule:nonzero;stroke:none"
           d="m 0,0 v -8.564 c 0,-0.566 -0.202,-1.322 -1.969,-1.322 -1.031,0 -1.915,0.419 -2.695,1.277 -0.771,0.853 -1.168,2.125 -1.168,3.777 0,1.621 0.354,2.956 1.055,3.969 0.686,1.002 1.573,1.488 2.708,1.488 0.606,0 1.148,-0.12 1.62,-0.351 C -0.292,0.196 -0.142,0.104 0,0 M 1.959,8.125 H 0.62 C 0.521,8.125 0.433,8.113 0.358,8.086 0.13,7.999 0,7.799 0,7.509 V 1.731 C -0.658,2.095 -1.437,2.28 -2.318,2.28 -2.981,2.28 -3.605,2.182 -4.178,1.981 -4.753,1.783 -5.281,1.486 -5.755,1.09 -6.698,0.314 -7.384,-0.628 -7.793,-1.708 -8.2,-2.776 -8.409,-3.91 -8.409,-5.078 c 0,-1.202 0.197,-2.297 0.579,-3.239 0.294,-0.722 0.759,-1.362 1.387,-1.905 0.211,-0.181 0.439,-0.348 0.684,-0.511 0.162,-0.102 0.334,-0.197 0.51,-0.284 0.887,-0.446 1.943,-0.674 3.154,-0.674 0.99,0 1.838,0.11 2.54,0.333 0.436,0.135 0.814,0.315 1.13,0.533 0.648,0.444 0.978,1.097 0.978,1.938 V 7.512 c 0,0.38 -0.225,0.613 -0.594,0.613" />
      </g>
      <g
         transform="matrix(0.35277777,0,0,-0.35277777,-197.07554,45.250785)"
         id="g62">
        <path
           id="path64"
           style="fill:#201d1e;fill-opacity:1;fill-rule:nonzero;stroke:none"
           d="m 0,0 c 0.391,-0.542 0.624,-1.221 0.696,-2.019 l -5.67,-0.958 c 0.098,1.032 0.399,1.925 0.893,2.659 0.528,0.782 1.257,1.159 2.225,1.159 0.419,0 0.777,-0.068 1.086,-0.206 C -0.461,0.493 -0.207,0.283 0,0 M 3.131,-6.619 C 3.05,-6.524 2.965,-6.465 2.884,-6.428 2.806,-6.395 2.73,-6.381 2.67,-6.381 c -0.241,0 -0.573,-0.096 -0.763,-0.534 -0.808,-1.584 -1.836,-2.354 -3.142,-2.354 -1.186,0 -2.067,0.443 -2.698,1.361 -0.609,0.891 -0.948,2.012 -1.008,3.341 l 7.348,1.232 c 0.285,0.043 0.486,0.121 0.615,0.235 0.144,0.129 0.215,0.324 0.215,0.579 0,1.313 -0.429,2.487 -1.276,3.489 -0.856,1.016 -2.072,1.531 -3.617,1.531 -1.575,0 -2.923,-0.602 -4.012,-1.781 -1.081,-1.18 -1.632,-2.916 -1.632,-5.155 0,-2.358 0.541,-4.139 1.61,-5.289 1.068,-1.157 2.419,-1.747 4.01,-1.747 0.809,0 1.562,0.171 2.232,0.499 0.668,0.33 1.203,0.745 1.588,1.24 0.38,0.477 0.67,0.955 0.866,1.42 0.206,0.484 0.307,0.891 0.307,1.242 0,0.153 -0.06,0.308 -0.182,0.453" />
      </g>
      <g
         transform="matrix(0.35277777,0,0,-0.35277777,-194.25488,42.307137)"
         id="g66">
        <path
           id="path68"
           style="fill:#201d1e;fill-opacity:1;fill-rule:nonzero;stroke:none"
           d="m 0,0 h -1.344 c -0.193,0 -0.344,-0.055 -0.453,-0.163 -0.106,-0.106 -0.162,-0.259 -0.162,-0.454 v -18.285 c 0,-0.385 0.228,-0.615 0.615,-0.615 H 0 c 0.385,0 0.618,0.23 0.618,0.615 V -0.617 C 0.618,-0.231 0.385,0 0,0" />
      </g>
    </g>
  </g>
</svg>
