<?xml version="1.0" encoding="UTF-8" standalone="no"?>
<svg
   xmlns:dc="http://purl.org/dc/elements/1.1/"
   xmlns:cc="http://creativecommons.org/ns#"
   xmlns:rdf="http://www.w3.org/1999/02/22-rdf-syntax-ns#"
   xmlns:svg="http://www.w3.org/2000/svg"
   xmlns="http://www.w3.org/2000/svg"
   id="svg1926"
   version="1.1"
   viewBox="0 0 210 297"
   height="297mm"
   width="210mm">
  <defs
     id="defs1920" />
  <metadata
     id="metadata1923">
    <rdf:RDF>
      <cc:Work
         rdf:about="">
        <dc:format>image/svg+xml</dc:format>
        <dc:type
           rdf:resource="http://purl.org/dc/dcmitype/StillImage" />
        <dc:title></dc:title>
      </cc:Work>
    </rdf:RDF>
  </metadata>
  <g
     id="layer1">
    <g
       transform="matrix(0.35277777,0,0,-0.35277777,-342.09479,-23.901786)"
       id="g132">
      <path
         id="path134"
         style="fill:#f04a23;fill-opacity:1;fill-rule:nonzero;stroke:none"
         d="m 0,0 c 0,-9.665 -7.835,-17.5 -17.5,-17.5 -9.665,0 -17.5,7.835 -17.5,17.5 0,9.665 7.835,17.5 17.5,17.5 C -7.835,17.5 0,9.665 0,0" />
    </g>
    <g
       transform="matrix(0.35277777,0,0,-0.35277777,-342.09479,-23.901786)"
       id="g136">
      <path
         id="path138"
         style="fill:none;stroke:#f04a23;stroke-width:1;stroke-linecap:butt;stroke-linejoin:miter;stroke-miterlimit:10;stroke-dasharray:none;stroke-opacity:1"
         d="m 0,0 c 0,-9.665 -7.835,-17.5 -17.5,-17.5 -9.665,0 -17.5,7.835 -17.5,17.5 0,9.665 7.835,17.5 17.5,17.5 C -7.835,17.5 0,9.665 0,0 Z" />
    </g>
    <g
       transform="matrix(0.35277777,0,0,-0.35277777,-346.81319,-23.901786)"
       id="g140">
      <path
         id="path142"
         style="fill:#ffffff;fill-opacity:1;fill-rule:nonzero;stroke:none"
         d="m 0,0 c 0,-2.278 -1.847,-4.125 -4.125,-4.125 -2.277,0 -4.125,1.847 -4.125,4.125 0,2.278 1.848,4.125 4.125,4.125 C -1.847,4.125 0,2.278 0,0" />
    </g>
  </g>
</svg>
