<?xml version="1.0" encoding="UTF-8" standalone="no"?>
<svg
   xmlns:dc="http://purl.org/dc/elements/1.1/"
   xmlns:cc="http://creativecommons.org/ns#"
   xmlns:rdf="http://www.w3.org/1999/02/22-rdf-syntax-ns#"
   xmlns:svg="http://www.w3.org/2000/svg"
   xmlns="http://www.w3.org/2000/svg"
   height="92.913406"
   width="61.91341"
   xml:space="preserve"
   viewBox="0 0 61.913413 92.913408"
   y="0px"
   x="0px"
   id="Layer_1"
   version="1.1"><metadata
   id="metadata23"><rdf:RDF><cc:Work
       rdf:about=""><dc:format>image/svg+xml</dc:format><dc:type
         rdf:resource="http://purl.org/dc/dcmitype/StillImage" /><dc:title></dc:title></cc:Work></rdf:RDF></metadata><defs
   id="defs21" />
<style
   id="style2"
   type="text/css">
	.st0{fill:#44474A;}
</style>
<g
   transform="translate(-0.48659101,-0.88659101)"
   id="g16">
	<g
   id="g12">
		<g
   id="g6">
			<polygon
   style="fill:#44474a"
   id="polygon4"
   points="46.5,93.8 31.9,55.7 40.8,57.9 48.3,51 62.4,88.1 51.6,83.5 "
   class="st0" />
		</g>
		<g
   id="g10">
			<polygon
   style="fill:#44474a"
   id="polygon8"
   points="18.2,93.8 32.5,56.4 23.9,56.7 16.2,51.5 2.2,88.1 13.1,83.5 "
   class="st0" />
		</g>
	</g>
	<path
   style="fill:#44474a"
   id="path14"
   d="m 34.1,2.1 v 0 c 2.8,-2.3 7,-1.2 8.3,2.2 v 0 c 0.9,2.4 3.3,3.8 5.8,3.4 v 0 c 3.6,-0.6 6.7,2.5 6,6 v 0 c -0.4,2.5 1,4.9 3.4,5.8 v 0 c 3.4,1.2 4.5,5.5 2.2,8.3 v 0 c -1.6,1.9 -1.6,4.8 0,6.7 v 0 c 2.3,2.8 1.2,7 -2.2,8.3 v 0 c -2.4,0.9 -3.8,3.3 -3.4,5.8 v 0 c 0.6,3.6 -2.5,6.7 -6,6 v 0 c -2.5,-0.4 -4.9,1 -5.8,3.4 v 0 c -1.2,3.4 -5.5,4.5 -8.3,2.2 v 0 c -1.9,-1.6 -4.8,-1.6 -6.7,0 v 0 c -2.8,2.3 -7,1.2 -8.3,-2.2 v 0 c -0.9,-2.4 -3.3,-3.8 -5.8,-3.4 v 0 c -3.6,0.6 -6.7,-2.5 -6,-6 v 0 c 0.4,-2.5 -1,-4.9 -3.4,-5.8 v 0 C 0.5,41.6 -0.6,37.3 1.7,34.5 v 0 c 1.6,-1.9 1.6,-4.8 0,-6.7 v 0 C -0.6,25 0.5,20.8 3.9,19.5 v 0 c 2.4,-0.9 3.8,-3.3 3.4,-5.8 v 0 c -0.6,-3.6 2.5,-6.7 6,-6 v 0 c 2.5,0.4 4.9,-1 5.8,-3.4 v 0 c 1.2,-3.4 5.5,-4.5 8.3,-2.2 v 0 c 1.9,1.6 4.8,1.6 6.7,0 z M 28,6.5 v 0 c -2.3,-2 -5.9,-1 -7,1.9 v 0 c -0.7,2 -2.8,3.2 -4.9,2.8 v 0 c -3,-0.5 -5.6,2.1 -5.1,5.1 v 0 c 0.4,2.1 -0.8,4.2 -2.8,4.9 v 0 c -2.9,1.1 -3.8,4.6 -1.9,7 v 0 c 1.4,1.6 1.4,4 0,5.7 v 0 c -2,2.3 -1,5.9 1.9,7 v 0 c 2,0.7 3.2,2.8 2.8,4.9 v 0 c -0.5,3 2.1,5.6 5.1,5.1 v 0 c 2.1,-0.4 4.2,0.8 4.9,2.8 v 0 c 0.3,0.7 0.7,1.3 1.2,1.8 1.6,1.4 4,1.6 5.8,0.1 v 0 c 1.6,-1.4 4,-1.4 5.7,0 v 0 c 2.3,2 5.9,1 7,-1.9 v 0 c 0.7,-2 2.8,-3.2 4.9,-2.8 v 0 c 3,0.5 5.6,-2.1 5.1,-5.1 v 0 c -0.4,-2.1 0.8,-4.2 2.8,-4.9 v 0 c 2.9,-1.1 3.8,-4.6 1.9,-7 v 0 c -1.4,-1.6 -1.4,-4 0,-5.7 v 0 c 2,-2.3 1,-5.9 -1.9,-7 v 0 c -2,-0.7 -3.2,-2.8 -2.8,-4.9 v 0 c 0.5,-3 -2.1,-5.6 -5.1,-5.1 v 0 c -2.1,0.4 -4.2,-0.8 -4.9,-2.8 v 0 C 39.6,5.5 36.1,4.6 33.7,6.5 v 0 C 32,7.9 29.6,7.9 28,6.5 Z"
   class="st0" />
</g>
</svg>