<?xml version="1.0" encoding="UTF-8" standalone="no"?>
<svg
   xmlns:dc="http://purl.org/dc/elements/1.1/"
   xmlns:cc="http://creativecommons.org/ns#"
   xmlns:rdf="http://www.w3.org/1999/02/22-rdf-syntax-ns#"
   xmlns:svg="http://www.w3.org/2000/svg"
   xmlns="http://www.w3.org/2000/svg"
   id="svg3860"
   version="1.1"
   viewBox="0 0 8.4144039 8.4458523"
   height="8.4458523mm"
   width="8.4144039mm">
  <defs
     id="defs3854" />
  <metadata
     id="metadata3857">
    <rdf:RDF>
      <cc:Work
         rdf:about="">
        <dc:format>image/svg+xml</dc:format>
        <dc:type
           rdf:resource="http://purl.org/dc/dcmitype/StillImage" />
        <dc:title></dc:title>
      </cc:Work>
    </rdf:RDF>
  </metadata>
  <g
     transform="translate(221.16553,-86.402074)"
     id="layer1">
    <g
       transform="matrix(0.35277777,0,0,-0.35277777,-216.95765,94.086279)"
       id="g678">
      <path
         id="path680"
         style="fill:#ef4a23;fill-opacity:1;fill-rule:nonzero;stroke:none"
         d="m 0,0 c -1.784,0 -3.474,0.47 -4.977,1.314 -0.187,0.095 -0.375,0.189 -0.562,0.189 h -0.282 l -3.286,-0.94 1.127,2.536 c 0.187,0.376 0.093,0.751 -0.094,1.033 -1.221,1.689 -1.878,3.661 -1.878,5.726 0.094,5.446 4.507,9.859 9.952,9.859 5.445,0 9.858,-4.413 9.858,-9.859 C 9.858,4.413 5.445,0 0,0 m 0,21.782 c -6.572,0 -11.924,-5.351 -11.924,-11.924 0,-2.346 0.657,-4.506 1.878,-6.478 l -1.784,-4.037 c -0.188,-0.375 -0.094,-0.845 0.187,-1.126 0.189,-0.282 0.47,-0.376 0.752,-0.376 h 0.282 l 4.975,1.408 c 1.691,-0.938 3.662,-1.408 5.634,-1.408 6.572,0 11.924,5.351 11.924,11.924 0,6.666 -5.352,12.017 -11.924,12.017" />
    </g>
    <g
       transform="matrix(0.35277777,0,0,-0.35277777,-215.33467,91.237881)"
       id="g682">
      <path
         id="path684"
         style="fill:#ef4a23;fill-opacity:1;fill-rule:nonzero;stroke:none"
         d="m 0,0 c -0.47,0.282 -1.127,0.657 -1.784,0.376 -0.47,-0.188 -0.751,-0.938 -1.033,-1.221 -0.188,-0.187 -0.375,-0.187 -0.563,-0.093 -1.69,0.657 -3.005,1.784 -3.943,3.379 -0.189,0.283 -0.094,0.47 0.094,0.658 0.281,0.376 0.657,0.751 0.75,1.127 0.094,0.469 -0.093,0.938 -0.281,1.408 -0.282,0.47 -0.469,1.22 -1.033,1.502 -0.47,0.282 -1.127,0.093 -1.502,-0.188 -0.751,-0.563 -1.033,-1.502 -1.033,-2.441 0,-0.281 0,-0.564 0.094,-0.751 0.188,-0.564 0.469,-1.127 0.751,-1.69 0.282,-0.376 0.469,-0.752 0.752,-1.22 0.938,-1.221 2.065,-2.348 3.379,-3.099 0.658,-0.375 1.315,-0.751 2.066,-1.032 0.845,-0.282 1.502,-0.564 2.44,-0.376 0.94,0.187 1.878,0.751 2.16,1.596 0.094,0.282 0.188,0.563 0.094,0.845 C 1.22,-0.656 0.469,-0.281 0,0" />
    </g>
  </g>
</svg>
